G04*
G04 #@! TF.GenerationSoftware,Altium Limited,Altium Designer,19.1.5 (86)*
G04*
G04 Layer_Color=32768*
%FSLAX25Y25*%
%MOIN*%
G70*
G01*
G75*
%ADD10C,0.00787*%
%ADD16C,0.00500*%
%ADD94C,0.00197*%
%ADD95C,0.00394*%
D10*
X101119Y3735D02*
Y10428D01*
X97969Y3735D02*
X101119D01*
X97969D02*
Y10428D01*
X101119D01*
X88132Y3921D02*
Y10614D01*
X91282D01*
Y3921D02*
Y10614D01*
X88132Y3921D02*
X91282D01*
D16*
X50984Y20276D02*
Y49803D01*
X80512D01*
Y20276D02*
Y49803D01*
X50984Y20276D02*
X80512D01*
D94*
X122244Y44094D02*
X136024D01*
X122244D02*
Y55905D01*
X136024D01*
Y44094D02*
Y55905D01*
X89567Y16732D02*
Y33661D01*
Y16732D02*
X106496D01*
Y33661D01*
X89567D02*
X106496D01*
X37445Y19350D02*
Y31043D01*
Y19350D02*
X43232D01*
Y31043D01*
X37445D02*
X43232D01*
X37535Y17382D02*
X45016D01*
X37535Y13051D02*
X45016D01*
X37535D02*
Y17382D01*
X45016Y13051D02*
Y17382D01*
X36024Y5118D02*
Y12598D01*
Y5118D02*
X45866D01*
Y12598D01*
X36024D02*
X45866D01*
X32098Y39819D02*
X46665D01*
Y53205D01*
X32098D02*
X46665D01*
X32098Y39819D02*
Y53205D01*
X24016Y29134D02*
X32677D01*
X24016D02*
Y30315D01*
X20039D02*
X24016D01*
X20039D02*
Y42126D01*
X24016D01*
Y43307D01*
X32677D01*
Y42126D02*
Y43307D01*
Y42126D02*
X36654D01*
Y30315D02*
Y42126D01*
X32677Y30315D02*
X36654D01*
X32677Y29134D02*
Y30315D01*
X115394Y27953D02*
X139173D01*
Y394D02*
Y27953D01*
X115394Y394D02*
X139173D01*
X115394D02*
Y27953D01*
D95*
X3594Y1201D02*
X26823D01*
X3594D02*
Y18917D01*
X26823D01*
Y1201D02*
Y18917D01*
X9059Y42709D02*
X11323Y44969D01*
X4827Y42709D02*
X11323D01*
X4827D02*
Y53827D01*
X11323D01*
Y42709D02*
Y53827D01*
X120866Y37402D02*
X128740D01*
X120866Y29528D02*
Y37402D01*
Y29528D02*
X128740D01*
Y37402D01*
X126772D02*
X128740Y35433D01*
M02*
