G04*
G04 #@! TF.GenerationSoftware,Altium Limited,Altium Designer,19.1.5 (86)*
G04*
G04 Layer_Color=8388736*
%FSLAX25Y25*%
%MOIN*%
G70*
G01*
G75*
%ADD26R,0.01968X0.01968*%
%ADD33R,0.01784X0.02178*%
%ADD34R,0.02769X0.02769*%
%ADD35R,0.02178X0.01784*%
G04:AMPARAMS|DCode=36|XSize=32.02mil|YSize=21.78mil|CornerRadius=7.45mil|HoleSize=0mil|Usage=FLASHONLY|Rotation=180.000|XOffset=0mil|YOffset=0mil|HoleType=Round|Shape=RoundedRectangle|*
%AMROUNDEDRECTD36*
21,1,0.03202,0.00689,0,0,180.0*
21,1,0.01713,0.02178,0,0,180.0*
1,1,0.01489,-0.00856,0.00345*
1,1,0.01489,0.00856,0.00345*
1,1,0.01489,0.00856,-0.00345*
1,1,0.01489,-0.00856,-0.00345*
%
%ADD36ROUNDEDRECTD36*%
G04:AMPARAMS|DCode=37|XSize=32.02mil|YSize=21.78mil|CornerRadius=7.45mil|HoleSize=0mil|Usage=FLASHONLY|Rotation=270.000|XOffset=0mil|YOffset=0mil|HoleType=Round|Shape=RoundedRectangle|*
%AMROUNDEDRECTD37*
21,1,0.03202,0.00689,0,0,270.0*
21,1,0.01713,0.02178,0,0,270.0*
1,1,0.01489,-0.00345,-0.00856*
1,1,0.01489,-0.00345,0.00856*
1,1,0.01489,0.00345,0.00856*
1,1,0.01489,0.00345,-0.00856*
%
%ADD37ROUNDEDRECTD37*%
%ADD38R,0.01863X0.04068*%
%ADD39R,0.04068X0.01863*%
%ADD40C,0.04737*%
%ADD41R,0.03000X0.06000*%
%ADD42C,0.03898*%
%ADD43R,0.02375X0.06312*%
%ADD44R,0.01587X0.02769*%
%ADD45R,0.04343X0.04737*%
G04:AMPARAMS|DCode=46|XSize=189.1mil|YSize=189.1mil|CornerRadius=13.06mil|HoleSize=0mil|Usage=FLASHONLY|Rotation=90.000|XOffset=0mil|YOffset=0mil|HoleType=Round|Shape=RoundedRectangle|*
%AMROUNDEDRECTD46*
21,1,0.18910,0.16299,0,0,90.0*
21,1,0.16299,0.18910,0,0,90.0*
1,1,0.02611,0.08150,0.08150*
1,1,0.02611,0.08150,-0.08150*
1,1,0.02611,-0.08150,-0.08150*
1,1,0.02611,-0.08150,0.08150*
%
%ADD46ROUNDEDRECTD46*%
%ADD47R,0.05131X0.05131*%
%ADD48C,0.05131*%
%ADD49C,0.04702*%
%ADD50C,0.07887*%
%ADD51R,0.07887X0.07887*%
%ADD52C,0.03202*%
%ADD53C,0.02375*%
G36*
X57764Y24902D02*
Y21536D01*
X56398D01*
Y24902D01*
X57764D01*
D02*
G37*
G36*
X60917D02*
Y21531D01*
X59547D01*
Y24902D01*
X60917D01*
D02*
G37*
G36*
X59344D02*
Y21542D01*
X57972D01*
Y24902D01*
X59344D01*
D02*
G37*
G36*
X64072D02*
Y21532D01*
X62697D01*
Y24902D01*
X64072D01*
D02*
G37*
G36*
X62495D02*
Y21535D01*
X61122D01*
Y24902D01*
X62495D01*
D02*
G37*
G36*
X65649D02*
Y21534D01*
X64272D01*
Y24902D01*
X65649D01*
D02*
G37*
G36*
X55610Y27061D02*
Y25689D01*
X52258D01*
Y27061D01*
X55610D01*
D02*
G37*
G36*
X55610Y28637D02*
Y27264D01*
X52260D01*
Y28637D01*
X55610D01*
D02*
G37*
G36*
X55609Y30211D02*
Y28840D01*
X52259D01*
Y30211D01*
X55609D01*
D02*
G37*
G36*
X55607Y33358D02*
Y31992D01*
X52256D01*
Y33358D01*
X55607D01*
D02*
G37*
G36*
X55610Y31791D02*
Y30413D01*
X52263D01*
Y31791D01*
X55610D01*
D02*
G37*
G36*
X55606Y34934D02*
Y33568D01*
X52257D01*
Y34934D01*
X55606D01*
D02*
G37*
G36*
X55599Y38081D02*
Y36723D01*
X52254D01*
Y38081D01*
X55599D01*
D02*
G37*
G36*
X55605Y36509D02*
Y35143D01*
X52257D01*
Y36509D01*
X55605D01*
D02*
G37*
G36*
X55609Y39665D02*
Y38288D01*
X52263D01*
Y39665D01*
X55609D01*
D02*
G37*
G36*
X55599Y42811D02*
Y41448D01*
X52260D01*
Y42811D01*
X55599D01*
D02*
G37*
G36*
X55605Y41238D02*
Y39867D01*
X52261D01*
Y41238D01*
X55605D01*
D02*
G37*
G36*
X55601Y44388D02*
Y43022D01*
X52262D01*
Y44388D01*
X55601D01*
D02*
G37*
G36*
X57772Y48524D02*
Y45181D01*
X56398D01*
Y48524D01*
X57772D01*
D02*
G37*
G36*
X59343D02*
Y45189D01*
X57972D01*
Y48524D01*
X59343D01*
D02*
G37*
G36*
X60918D02*
Y45193D01*
X59547D01*
Y48524D01*
X60918D01*
D02*
G37*
G36*
X62499D02*
Y45179D01*
X61122D01*
Y48524D01*
X62499D01*
D02*
G37*
G36*
X64073D02*
Y45186D01*
X62697D01*
Y48524D01*
X64073D01*
D02*
G37*
G36*
X65649D02*
Y45188D01*
X64272D01*
Y48524D01*
X65649D01*
D02*
G37*
G36*
X68801Y24902D02*
Y21545D01*
X67421D01*
Y24902D01*
X68801D01*
D02*
G37*
G36*
X67225D02*
Y21554D01*
X65847D01*
Y24902D01*
X67225D01*
D02*
G37*
G36*
X70378D02*
Y21545D01*
X68996D01*
Y24902D01*
X70378D01*
D02*
G37*
G36*
X71955D02*
Y21542D01*
X70571D01*
Y24902D01*
X71955D01*
D02*
G37*
G36*
X73528D02*
Y21548D01*
X72146D01*
Y24902D01*
X73528D01*
D02*
G37*
G36*
X75112D02*
Y21535D01*
X73721D01*
Y24902D01*
X75112D01*
D02*
G37*
G36*
X79237Y28642D02*
Y27259D01*
X75887D01*
Y28642D01*
X79237D01*
D02*
G37*
G36*
X79254Y27069D02*
Y25668D01*
X75888D01*
Y27069D01*
X79254D01*
D02*
G37*
G36*
X79245Y30220D02*
Y28826D01*
X75889D01*
Y30220D01*
X79245D01*
D02*
G37*
G36*
X79235Y31792D02*
Y30411D01*
X75887D01*
Y31792D01*
X79235D01*
D02*
G37*
G36*
X79235Y33368D02*
Y31985D01*
X75887D01*
Y33368D01*
X79235D01*
D02*
G37*
G36*
X79242Y34947D02*
Y33554D01*
X75892D01*
Y34947D01*
X79242D01*
D02*
G37*
G36*
X67225Y48524D02*
Y45181D01*
X65847D01*
Y48524D01*
X67225D01*
D02*
G37*
G36*
X68801D02*
Y45182D01*
X67421D01*
Y48524D01*
X68801D01*
D02*
G37*
G36*
X70383D02*
Y45196D01*
X68996D01*
Y48524D01*
X70383D01*
D02*
G37*
G36*
X71952D02*
Y45182D01*
X70571D01*
Y48524D01*
X71952D01*
D02*
G37*
G36*
X73528D02*
Y45183D01*
X72146D01*
Y48524D01*
X73528D01*
D02*
G37*
G36*
X75110D02*
Y45190D01*
X73721D01*
Y48524D01*
X75110D01*
D02*
G37*
G36*
X79233Y36516D02*
Y35138D01*
X75886D01*
Y36516D01*
X79233D01*
D02*
G37*
G36*
X79242Y38101D02*
Y36703D01*
X75897D01*
Y38101D01*
X79242D01*
D02*
G37*
G36*
X79242Y39680D02*
Y38277D01*
X75900D01*
Y39680D01*
X79242D01*
D02*
G37*
G36*
X79236Y41247D02*
Y39858D01*
X75893D01*
Y41247D01*
X79236D01*
D02*
G37*
G36*
X79236Y42824D02*
Y41433D01*
X75895D01*
Y42824D01*
X79236D01*
D02*
G37*
G36*
X79238Y44409D02*
Y43007D01*
X75905D01*
Y44409D01*
X79238D01*
D02*
G37*
D26*
X99544Y9050D02*
D03*
Y5113D02*
D03*
X89707Y5299D02*
D03*
Y9236D02*
D03*
D33*
X100000Y38583D02*
D03*
X102165D02*
D03*
X60630Y14961D02*
D03*
X58465D02*
D03*
X87598Y13386D02*
D03*
X85433D02*
D03*
X51575Y17717D02*
D03*
X49409D02*
D03*
X56693Y53937D02*
D03*
X58858D02*
D03*
D34*
X103150Y35433D02*
D03*
X99213D02*
D03*
X42126Y29134D02*
D03*
X38189D02*
D03*
D35*
X116535Y56496D02*
D03*
Y54331D02*
D03*
X119685D02*
D03*
Y56496D02*
D03*
X68110Y52362D02*
D03*
Y54527D02*
D03*
X62205Y65354D02*
D03*
Y63189D02*
D03*
X32677Y25000D02*
D03*
Y22835D02*
D03*
X37795Y25000D02*
D03*
Y22835D02*
D03*
X42520Y25000D02*
D03*
Y22835D02*
D03*
X46457Y25000D02*
D03*
Y22835D02*
D03*
D36*
X133701Y47047D02*
D03*
Y49016D02*
D03*
Y50984D02*
D03*
Y52953D02*
D03*
X124567D02*
D03*
Y50984D02*
D03*
Y49016D02*
D03*
Y47047D02*
D03*
D37*
X131102Y53583D02*
D03*
X129134D02*
D03*
X127165D02*
D03*
Y46417D02*
D03*
X129134D02*
D03*
X131102D02*
D03*
D38*
X101969Y19410D02*
D03*
X100000D02*
D03*
X98032D02*
D03*
X96063D02*
D03*
X94095D02*
D03*
X101969Y30984D02*
D03*
X100000D02*
D03*
X98032D02*
D03*
X96063D02*
D03*
X94095D02*
D03*
D39*
X103819Y23228D02*
D03*
Y25197D02*
D03*
Y27165D02*
D03*
X92244Y23228D02*
D03*
Y25197D02*
D03*
Y27165D02*
D03*
D40*
X5512Y51575D02*
D03*
X53150Y4331D02*
D03*
X77559D02*
D03*
X69685D02*
D03*
X62205D02*
D03*
D41*
X15524Y43602D02*
D03*
X7924D02*
D03*
X11724Y35602D02*
D03*
D42*
X100075Y52858D02*
D03*
Y47858D02*
D03*
X95075Y52858D02*
D03*
Y47858D02*
D03*
X90075Y52858D02*
D03*
Y47858D02*
D03*
D43*
X37795Y8858D02*
D03*
X44094D02*
D03*
D44*
X41339Y10630D02*
D03*
X40551Y7087D02*
D03*
D45*
X35248Y50252D02*
D03*
X43516D02*
D03*
Y42772D02*
D03*
X35248D02*
D03*
D46*
X65748Y35039D02*
D03*
D47*
X19146Y7894D02*
D03*
D48*
X11272D02*
D03*
D49*
X105075Y46358D02*
D03*
Y54358D02*
D03*
X85075Y50358D02*
D03*
D50*
X132283Y14173D02*
D03*
D51*
X122283D02*
D03*
D52*
X51575Y54331D02*
D03*
X38976Y57480D02*
D03*
X47638Y57480D02*
D03*
X43307Y57480D02*
D03*
X34646Y57480D02*
D03*
X21654Y57480D02*
D03*
X30315Y57480D02*
D03*
X25984Y57480D02*
D03*
X17323Y57480D02*
D03*
X130051Y50275D02*
D03*
X96063Y27165D02*
D03*
X108268Y29921D02*
D03*
X110236Y18504D02*
D03*
X105118Y13780D02*
D03*
X131496Y40157D02*
D03*
X112598Y46457D02*
D03*
Y52756D02*
D03*
X82677Y46457D02*
D03*
X95276Y38189D02*
D03*
X106299D02*
D03*
X87402Y32283D02*
D03*
X124803Y31496D02*
D03*
Y35433D02*
D03*
X84252Y5118D02*
D03*
X82677Y20079D02*
D03*
X78347D02*
D03*
X61417Y57087D02*
D03*
X63386Y32677D02*
D03*
X46457Y17717D02*
D03*
X50787Y23622D02*
D03*
X31890Y10630D02*
D03*
Y15748D02*
D03*
X47244Y27953D02*
D03*
X49606Y34252D02*
D03*
Y37402D02*
D03*
X4331Y29921D02*
D03*
X27953Y24803D02*
D03*
X39764Y37795D02*
D03*
X19685Y46850D02*
D03*
X49606Y40551D02*
D03*
X39370Y42913D02*
D03*
X29921Y50000D02*
D03*
X18110Y24016D02*
D03*
X62205Y4331D02*
D03*
X53150D02*
D03*
X7874Y55118D02*
D03*
X17323Y62205D02*
D03*
X28346Y40157D02*
D03*
Y36220D02*
D03*
Y32283D02*
D03*
X25984Y62205D02*
D03*
X43307D02*
D03*
X124409Y62205D02*
D03*
X85433Y62205D02*
D03*
X89764D02*
D03*
X98425Y62205D02*
D03*
X94095D02*
D03*
X76772D02*
D03*
X81102D02*
D03*
X72441Y62205D02*
D03*
X68110D02*
D03*
X102756D02*
D03*
X107087D02*
D03*
X115748Y62205D02*
D03*
X111417D02*
D03*
X120079Y62205D02*
D03*
X56299Y62205D02*
D03*
X47638Y62205D02*
D03*
X51968D02*
D03*
X38976Y62205D02*
D03*
X30315Y62205D02*
D03*
X34646D02*
D03*
X21654Y62205D02*
D03*
X68110Y41732D02*
D03*
Y28346D02*
D03*
Y37008D02*
D03*
Y32677D02*
D03*
X63386Y41732D02*
D03*
Y28346D02*
D03*
Y37008D02*
D03*
X72441Y41732D02*
D03*
Y28346D02*
D03*
Y37008D02*
D03*
Y32677D02*
D03*
X59055D02*
D03*
Y37008D02*
D03*
Y28346D02*
D03*
Y41732D02*
D03*
D53*
X59449Y51575D02*
D03*
X82677Y38976D02*
D03*
X81496Y35433D02*
D03*
X68898Y50394D02*
D03*
X62254Y50443D02*
D03*
X50394Y27559D02*
D03*
X131496Y29134D02*
D03*
X137008Y47638D02*
D03*
X127165Y49606D02*
D03*
X85433Y38189D02*
D03*
X96457Y55905D02*
D03*
X118110Y50787D02*
D03*
X76772Y50394D02*
D03*
X92126Y55905D02*
D03*
X106299Y9055D02*
D03*
X94488Y7087D02*
D03*
X63386Y16535D02*
D03*
X64567Y50000D02*
D03*
X48819Y51575D02*
D03*
M02*
