G04*
G04 #@! TF.GenerationSoftware,Altium Limited,Altium Designer,19.1.5 (86)*
G04*
G04 Layer_Color=16711935*
%FSLAX25Y25*%
%MOIN*%
G70*
G01*
G75*
%ADD33R,0.01784X0.02178*%
%ADD35R,0.02178X0.01784*%
%ADD47R,0.05131X0.05131*%
%ADD48C,0.05131*%
%ADD49C,0.04702*%
%ADD50C,0.07887*%
%ADD51R,0.07887X0.07887*%
%ADD52C,0.03202*%
%ADD53C,0.02375*%
%ADD85R,0.03950X0.03950*%
%ADD86R,0.05328X0.05328*%
%ADD87R,0.03950X0.03950*%
%ADD88R,0.03556X0.01981*%
%ADD89R,0.04343X0.07887*%
%ADD90R,0.02769X0.02769*%
%ADD91R,0.04619X0.04737*%
%ADD92R,0.02926X0.03162*%
G04:AMPARAMS|DCode=93|XSize=31.62mil|YSize=61.15mil|CornerRadius=5.77mil|HoleSize=0mil|Usage=FLASHONLY|Rotation=90.000|XOffset=0mil|YOffset=0mil|HoleType=Round|Shape=RoundedRectangle|*
%AMROUNDEDRECTD93*
21,1,0.03162,0.04961,0,0,90.0*
21,1,0.02008,0.06115,0,0,90.0*
1,1,0.01154,0.02480,0.01004*
1,1,0.01154,0.02480,-0.01004*
1,1,0.01154,-0.02480,-0.01004*
1,1,0.01154,-0.02480,0.01004*
%
%ADD93ROUNDEDRECTD93*%
D33*
X92913Y13386D02*
D03*
X90748D02*
D03*
X113976Y23228D02*
D03*
X111811D02*
D03*
D35*
X15066Y46850D02*
D03*
Y44685D02*
D03*
X68110Y17323D02*
D03*
Y15157D02*
D03*
X64961Y12992D02*
D03*
Y10827D02*
D03*
X67323Y52362D02*
D03*
Y54527D02*
D03*
X63386Y52362D02*
D03*
Y54527D02*
D03*
X17323Y35827D02*
D03*
Y37992D02*
D03*
D47*
X19146Y7894D02*
D03*
D48*
X11272D02*
D03*
D49*
X105075Y46358D02*
D03*
Y54358D02*
D03*
X85075Y50358D02*
D03*
D50*
X132283Y14173D02*
D03*
D51*
X122283D02*
D03*
D52*
X51575Y54331D02*
D03*
X38976Y57480D02*
D03*
X47638Y57480D02*
D03*
X43307Y57480D02*
D03*
X34646Y57480D02*
D03*
X21654Y57480D02*
D03*
X30315Y57480D02*
D03*
X25984Y57480D02*
D03*
X17323Y57480D02*
D03*
X130051Y50275D02*
D03*
X96063Y27165D02*
D03*
X108268Y29921D02*
D03*
X110236Y18504D02*
D03*
X105118Y13780D02*
D03*
X131496Y40157D02*
D03*
X112598Y46457D02*
D03*
Y52756D02*
D03*
X82677Y46457D02*
D03*
X95276Y38189D02*
D03*
X106299D02*
D03*
X87402Y32283D02*
D03*
X124803Y31496D02*
D03*
Y35433D02*
D03*
X84252Y5118D02*
D03*
X82677Y20079D02*
D03*
X78347D02*
D03*
X61417Y57087D02*
D03*
X63386Y32677D02*
D03*
X46457Y17717D02*
D03*
X50787Y23622D02*
D03*
X31890Y10630D02*
D03*
Y15748D02*
D03*
X47244Y27953D02*
D03*
X49606Y34252D02*
D03*
Y37402D02*
D03*
X4331Y29921D02*
D03*
X27953Y24803D02*
D03*
X39764Y37795D02*
D03*
X19685Y46850D02*
D03*
X49606Y40551D02*
D03*
X39370Y42913D02*
D03*
X29921Y50000D02*
D03*
X18110Y24016D02*
D03*
X62205Y4331D02*
D03*
X53150D02*
D03*
X7874Y55118D02*
D03*
X17323Y62205D02*
D03*
X28346Y40157D02*
D03*
Y36220D02*
D03*
Y32283D02*
D03*
X25984Y62205D02*
D03*
X43307D02*
D03*
X124409Y62205D02*
D03*
X85433Y62205D02*
D03*
X89764D02*
D03*
X98425Y62205D02*
D03*
X94095D02*
D03*
X76772D02*
D03*
X81102D02*
D03*
X72441Y62205D02*
D03*
X68110D02*
D03*
X102756D02*
D03*
X107087D02*
D03*
X115748Y62205D02*
D03*
X111417D02*
D03*
X120079Y62205D02*
D03*
X56299Y62205D02*
D03*
X47638Y62205D02*
D03*
X51968D02*
D03*
X38976Y62205D02*
D03*
X30315Y62205D02*
D03*
X34646D02*
D03*
X21654Y62205D02*
D03*
X68110Y41732D02*
D03*
Y28346D02*
D03*
Y37008D02*
D03*
Y32677D02*
D03*
X63386Y41732D02*
D03*
Y28346D02*
D03*
Y37008D02*
D03*
X72441Y41732D02*
D03*
Y28346D02*
D03*
Y37008D02*
D03*
Y32677D02*
D03*
X59055D02*
D03*
Y37008D02*
D03*
Y28346D02*
D03*
Y41732D02*
D03*
D53*
X59449Y51575D02*
D03*
X82677Y38976D02*
D03*
X81496Y35433D02*
D03*
X68898Y50394D02*
D03*
X62254Y50443D02*
D03*
X50394Y27559D02*
D03*
X131496Y29134D02*
D03*
X137008Y47638D02*
D03*
X127165Y49606D02*
D03*
X85433Y38189D02*
D03*
X96457Y55905D02*
D03*
X118110Y50787D02*
D03*
X76772Y50394D02*
D03*
X92126Y55905D02*
D03*
X106299Y9055D02*
D03*
X94488Y7087D02*
D03*
X63386Y16535D02*
D03*
X64567Y50000D02*
D03*
X48819Y51575D02*
D03*
D85*
X14370Y29921D02*
D03*
X8268D02*
D03*
D86*
X8075Y55158D02*
D03*
Y41378D02*
D03*
D87*
X112992Y36614D02*
D03*
Y30512D02*
D03*
X135433Y32283D02*
D03*
Y38386D02*
D03*
D88*
X128740Y35433D02*
D03*
Y33465D02*
D03*
Y31496D02*
D03*
X120866D02*
D03*
Y33465D02*
D03*
Y35433D02*
D03*
D89*
X124803Y33465D02*
D03*
D90*
X47244Y25197D02*
D03*
Y21260D02*
D03*
X43307Y37795D02*
D03*
Y33858D02*
D03*
D91*
X40339Y28091D02*
D03*
Y22303D02*
D03*
D92*
X39575Y15216D02*
D03*
X42976D02*
D03*
D93*
X23681Y32480D02*
D03*
Y36220D02*
D03*
Y39961D02*
D03*
X33012D02*
D03*
Y32480D02*
D03*
M02*
