G04*
G04 #@! TF.GenerationSoftware,Altium Limited,Altium Designer,19.1.5 (86)*
G04*
G04 Layer_Color=16711935*
%FSLAX25Y25*%
%MOIN*%
G70*
G01*
G75*
%ADD10C,0.00787*%
%ADD14C,0.01181*%
%ADD15C,0.00000*%
%ADD16C,0.00500*%
G36*
X54921Y26772D02*
X54941D01*
X54961Y26768D01*
X54984D01*
X55004Y26764D01*
X55024Y26760D01*
X55043Y26752D01*
X55063Y26744D01*
X55083Y26736D01*
X55098Y26728D01*
X55118Y26720D01*
X55134Y26709D01*
X55154Y26697D01*
X55169Y26685D01*
X55185Y26669D01*
X55201Y26658D01*
X55213Y26642D01*
X55228Y26626D01*
X55240Y26610D01*
X55252Y26591D01*
X55264Y26575D01*
X55272Y26555D01*
X55279Y26539D01*
X55287Y26520D01*
X55295Y26500D01*
X55303Y26480D01*
X55307Y26461D01*
X55311Y26441D01*
Y26417D01*
X55315Y26398D01*
Y26358D01*
X55311Y26339D01*
Y26315D01*
X55307Y26295D01*
X55303Y26276D01*
X55295Y26256D01*
X55287Y26236D01*
X55279Y26217D01*
X55272Y26201D01*
X55264Y26181D01*
X55252Y26165D01*
X55240Y26146D01*
X55228Y26130D01*
X55213Y26114D01*
X55201Y26098D01*
X55185Y26087D01*
X55169Y26071D01*
X55154Y26059D01*
X55134Y26047D01*
X55118Y26035D01*
X55098Y26028D01*
X55083Y26020D01*
X55063Y26012D01*
X55043Y26004D01*
X55024Y25996D01*
X55004Y25992D01*
X54984Y25988D01*
X54961D01*
X54941Y25984D01*
X54921D01*
X53937D01*
Y26772D01*
X54921D01*
D02*
G37*
G36*
Y28346D02*
X54941D01*
X54961Y28343D01*
X54984D01*
X55004Y28339D01*
X55024Y28335D01*
X55043Y28327D01*
X55063Y28319D01*
X55083Y28311D01*
X55098Y28303D01*
X55118Y28295D01*
X55134Y28284D01*
X55154Y28272D01*
X55169Y28260D01*
X55185Y28244D01*
X55201Y28232D01*
X55213Y28216D01*
X55228Y28201D01*
X55240Y28185D01*
X55252Y28165D01*
X55264Y28150D01*
X55272Y28130D01*
X55279Y28114D01*
X55287Y28095D01*
X55295Y28075D01*
X55303Y28055D01*
X55307Y28035D01*
X55311Y28016D01*
Y27992D01*
X55315Y27972D01*
Y27933D01*
X55311Y27913D01*
Y27890D01*
X55307Y27870D01*
X55303Y27850D01*
X55295Y27831D01*
X55287Y27811D01*
X55279Y27791D01*
X55272Y27776D01*
X55264Y27756D01*
X55252Y27740D01*
X55240Y27720D01*
X55228Y27705D01*
X55213Y27689D01*
X55201Y27673D01*
X55185Y27661D01*
X55169Y27646D01*
X55154Y27634D01*
X55134Y27622D01*
X55118Y27610D01*
X55098Y27602D01*
X55083Y27595D01*
X55063Y27587D01*
X55043Y27579D01*
X55024Y27571D01*
X55004Y27567D01*
X54984Y27563D01*
X54961D01*
X54941Y27559D01*
X54921D01*
X53937D01*
Y28346D01*
X54921D01*
D02*
G37*
G36*
Y29921D02*
X54941D01*
X54961Y29917D01*
X54984D01*
X55004Y29913D01*
X55024Y29909D01*
X55043Y29902D01*
X55063Y29894D01*
X55083Y29886D01*
X55098Y29878D01*
X55118Y29870D01*
X55134Y29858D01*
X55154Y29847D01*
X55169Y29835D01*
X55185Y29819D01*
X55201Y29807D01*
X55213Y29791D01*
X55228Y29776D01*
X55240Y29760D01*
X55252Y29740D01*
X55264Y29724D01*
X55272Y29705D01*
X55279Y29689D01*
X55287Y29669D01*
X55295Y29650D01*
X55303Y29630D01*
X55307Y29610D01*
X55311Y29591D01*
Y29567D01*
X55315Y29547D01*
Y29508D01*
X55311Y29488D01*
Y29465D01*
X55307Y29445D01*
X55303Y29425D01*
X55295Y29406D01*
X55287Y29386D01*
X55279Y29366D01*
X55272Y29350D01*
X55264Y29331D01*
X55252Y29315D01*
X55240Y29295D01*
X55228Y29280D01*
X55213Y29264D01*
X55201Y29248D01*
X55185Y29236D01*
X55169Y29221D01*
X55154Y29209D01*
X55134Y29197D01*
X55118Y29185D01*
X55098Y29177D01*
X55083Y29169D01*
X55063Y29161D01*
X55043Y29153D01*
X55024Y29146D01*
X55004Y29142D01*
X54984Y29138D01*
X54961D01*
X54941Y29134D01*
X54921D01*
X53937D01*
Y29921D01*
X54921D01*
D02*
G37*
G36*
Y31496D02*
X54941D01*
X54961Y31492D01*
X54984D01*
X55004Y31488D01*
X55024Y31484D01*
X55043Y31476D01*
X55063Y31468D01*
X55083Y31461D01*
X55098Y31453D01*
X55118Y31445D01*
X55134Y31433D01*
X55154Y31421D01*
X55169Y31409D01*
X55185Y31394D01*
X55201Y31382D01*
X55213Y31366D01*
X55228Y31350D01*
X55240Y31335D01*
X55252Y31315D01*
X55264Y31299D01*
X55272Y31280D01*
X55279Y31264D01*
X55287Y31244D01*
X55295Y31224D01*
X55303Y31205D01*
X55307Y31185D01*
X55311Y31165D01*
Y31142D01*
X55315Y31122D01*
Y31083D01*
X55311Y31063D01*
Y31039D01*
X55307Y31020D01*
X55303Y31000D01*
X55295Y30980D01*
X55287Y30961D01*
X55279Y30941D01*
X55272Y30925D01*
X55264Y30906D01*
X55252Y30890D01*
X55240Y30870D01*
X55228Y30854D01*
X55213Y30839D01*
X55201Y30823D01*
X55185Y30811D01*
X55169Y30795D01*
X55154Y30784D01*
X55134Y30772D01*
X55118Y30760D01*
X55098Y30752D01*
X55083Y30744D01*
X55063Y30736D01*
X55043Y30728D01*
X55024Y30720D01*
X55004Y30716D01*
X54984Y30713D01*
X54961D01*
X54941Y30709D01*
X54921D01*
X53937D01*
Y31496D01*
X54921D01*
D02*
G37*
G36*
Y33071D02*
X54941D01*
X54961Y33067D01*
X54984D01*
X55004Y33063D01*
X55024Y33059D01*
X55043Y33051D01*
X55063Y33043D01*
X55083Y33035D01*
X55098Y33028D01*
X55118Y33020D01*
X55134Y33008D01*
X55154Y32996D01*
X55169Y32984D01*
X55185Y32969D01*
X55201Y32957D01*
X55213Y32941D01*
X55228Y32925D01*
X55240Y32909D01*
X55252Y32890D01*
X55264Y32874D01*
X55272Y32854D01*
X55279Y32839D01*
X55287Y32819D01*
X55295Y32799D01*
X55303Y32779D01*
X55307Y32760D01*
X55311Y32740D01*
Y32717D01*
X55315Y32697D01*
Y32658D01*
X55311Y32638D01*
Y32614D01*
X55307Y32594D01*
X55303Y32575D01*
X55295Y32555D01*
X55287Y32535D01*
X55279Y32516D01*
X55272Y32500D01*
X55264Y32480D01*
X55252Y32465D01*
X55240Y32445D01*
X55228Y32429D01*
X55213Y32413D01*
X55201Y32398D01*
X55185Y32386D01*
X55169Y32370D01*
X55154Y32358D01*
X55134Y32346D01*
X55118Y32335D01*
X55098Y32327D01*
X55083Y32319D01*
X55063Y32311D01*
X55043Y32303D01*
X55024Y32295D01*
X55004Y32291D01*
X54984Y32287D01*
X54961D01*
X54941Y32283D01*
X54921D01*
X53937D01*
Y33071D01*
X54921D01*
D02*
G37*
G36*
Y34646D02*
X54941D01*
X54961Y34642D01*
X54984D01*
X55004Y34638D01*
X55024Y34634D01*
X55043Y34626D01*
X55063Y34618D01*
X55083Y34610D01*
X55098Y34602D01*
X55118Y34595D01*
X55134Y34583D01*
X55154Y34571D01*
X55169Y34559D01*
X55185Y34543D01*
X55201Y34532D01*
X55213Y34516D01*
X55228Y34500D01*
X55240Y34484D01*
X55252Y34465D01*
X55264Y34449D01*
X55272Y34429D01*
X55279Y34413D01*
X55287Y34394D01*
X55295Y34374D01*
X55303Y34354D01*
X55307Y34335D01*
X55311Y34315D01*
Y34291D01*
X55315Y34272D01*
Y34232D01*
X55311Y34213D01*
Y34189D01*
X55307Y34169D01*
X55303Y34150D01*
X55295Y34130D01*
X55287Y34110D01*
X55279Y34091D01*
X55272Y34075D01*
X55264Y34055D01*
X55252Y34039D01*
X55240Y34020D01*
X55228Y34004D01*
X55213Y33988D01*
X55201Y33972D01*
X55185Y33961D01*
X55169Y33945D01*
X55154Y33933D01*
X55134Y33921D01*
X55118Y33909D01*
X55098Y33902D01*
X55083Y33894D01*
X55063Y33886D01*
X55043Y33878D01*
X55024Y33870D01*
X55004Y33866D01*
X54984Y33862D01*
X54961D01*
X54941Y33858D01*
X54921D01*
X53937D01*
Y34646D01*
X54921D01*
D02*
G37*
G36*
X56697Y24252D02*
Y24276D01*
X56701Y24295D01*
X56705Y24315D01*
X56713Y24335D01*
X56721Y24354D01*
X56728Y24374D01*
X56736Y24390D01*
X56744Y24409D01*
X56756Y24425D01*
X56768Y24445D01*
X56779Y24461D01*
X56795Y24476D01*
X56807Y24492D01*
X56823Y24504D01*
X56839Y24520D01*
X56854Y24532D01*
X56874Y24543D01*
X56890Y24555D01*
X56910Y24563D01*
X56925Y24571D01*
X56945Y24579D01*
X56965Y24587D01*
X56984Y24595D01*
X57004Y24598D01*
X57024Y24602D01*
X57047D01*
X57067Y24606D01*
X57087D01*
X57106D01*
X57126Y24602D01*
X57150D01*
X57169Y24598D01*
X57189Y24595D01*
X57209Y24587D01*
X57228Y24579D01*
X57248Y24571D01*
X57264Y24563D01*
X57284Y24555D01*
X57299Y24543D01*
X57319Y24532D01*
X57335Y24520D01*
X57350Y24504D01*
X57366Y24492D01*
X57378Y24476D01*
X57394Y24461D01*
X57406Y24445D01*
X57417Y24425D01*
X57429Y24409D01*
X57437Y24390D01*
X57445Y24374D01*
X57453Y24354D01*
X57461Y24335D01*
X57468Y24315D01*
X57472Y24295D01*
X57476Y24276D01*
Y24252D01*
X57480Y24232D01*
Y23228D01*
X56693D01*
Y24232D01*
X56697Y24252D01*
D02*
G37*
G36*
X58272D02*
Y24276D01*
X58276Y24295D01*
X58280Y24315D01*
X58287Y24335D01*
X58295Y24354D01*
X58303Y24374D01*
X58311Y24390D01*
X58319Y24409D01*
X58331Y24425D01*
X58342Y24445D01*
X58354Y24461D01*
X58370Y24476D01*
X58382Y24492D01*
X58398Y24504D01*
X58413Y24520D01*
X58429Y24532D01*
X58449Y24543D01*
X58465Y24555D01*
X58484Y24563D01*
X58500Y24571D01*
X58520Y24579D01*
X58539Y24587D01*
X58559Y24595D01*
X58579Y24598D01*
X58598Y24602D01*
X58622D01*
X58642Y24606D01*
X58661D01*
X58681D01*
X58701Y24602D01*
X58724D01*
X58744Y24598D01*
X58764Y24595D01*
X58784Y24587D01*
X58803Y24579D01*
X58823Y24571D01*
X58839Y24563D01*
X58858Y24555D01*
X58874Y24543D01*
X58894Y24532D01*
X58909Y24520D01*
X58925Y24504D01*
X58941Y24492D01*
X58953Y24476D01*
X58969Y24461D01*
X58980Y24445D01*
X58992Y24425D01*
X59004Y24409D01*
X59012Y24390D01*
X59020Y24374D01*
X59028Y24354D01*
X59035Y24335D01*
X59043Y24315D01*
X59047Y24295D01*
X59051Y24276D01*
Y24252D01*
X59055Y24232D01*
Y23228D01*
X58268D01*
Y24232D01*
X58272Y24252D01*
D02*
G37*
G36*
X59847D02*
Y24276D01*
X59850Y24295D01*
X59854Y24315D01*
X59862Y24335D01*
X59870Y24354D01*
X59878Y24374D01*
X59886Y24390D01*
X59894Y24409D01*
X59905Y24425D01*
X59917Y24445D01*
X59929Y24461D01*
X59945Y24476D01*
X59957Y24492D01*
X59972Y24504D01*
X59988Y24520D01*
X60004Y24532D01*
X60024Y24543D01*
X60039Y24555D01*
X60059Y24563D01*
X60075Y24571D01*
X60094Y24579D01*
X60114Y24587D01*
X60134Y24595D01*
X60154Y24598D01*
X60173Y24602D01*
X60197D01*
X60216Y24606D01*
X60236D01*
X60256D01*
X60276Y24602D01*
X60299D01*
X60319Y24598D01*
X60339Y24595D01*
X60358Y24587D01*
X60378Y24579D01*
X60398Y24571D01*
X60413Y24563D01*
X60433Y24555D01*
X60449Y24543D01*
X60469Y24532D01*
X60484Y24520D01*
X60500Y24504D01*
X60516Y24492D01*
X60528Y24476D01*
X60543Y24461D01*
X60555Y24445D01*
X60567Y24425D01*
X60579Y24409D01*
X60587Y24390D01*
X60594Y24374D01*
X60602Y24354D01*
X60610Y24335D01*
X60618Y24315D01*
X60622Y24295D01*
X60626Y24276D01*
Y24252D01*
X60630Y24232D01*
Y23228D01*
X59842D01*
Y24232D01*
X59847Y24252D01*
D02*
G37*
G36*
X61421D02*
Y24276D01*
X61425Y24295D01*
X61429Y24315D01*
X61437Y24335D01*
X61445Y24354D01*
X61453Y24374D01*
X61461Y24390D01*
X61468Y24409D01*
X61480Y24425D01*
X61492Y24445D01*
X61504Y24461D01*
X61520Y24476D01*
X61532Y24492D01*
X61547Y24504D01*
X61563Y24520D01*
X61579Y24532D01*
X61598Y24543D01*
X61614Y24555D01*
X61634Y24563D01*
X61650Y24571D01*
X61669Y24579D01*
X61689Y24587D01*
X61709Y24595D01*
X61728Y24598D01*
X61748Y24602D01*
X61772D01*
X61791Y24606D01*
X61811D01*
X61831D01*
X61850Y24602D01*
X61874D01*
X61894Y24598D01*
X61913Y24595D01*
X61933Y24587D01*
X61953Y24579D01*
X61972Y24571D01*
X61988Y24563D01*
X62008Y24555D01*
X62024Y24543D01*
X62043Y24532D01*
X62059Y24520D01*
X62075Y24504D01*
X62090Y24492D01*
X62102Y24476D01*
X62118Y24461D01*
X62130Y24445D01*
X62142Y24425D01*
X62154Y24409D01*
X62161Y24390D01*
X62169Y24374D01*
X62177Y24354D01*
X62185Y24335D01*
X62193Y24315D01*
X62197Y24295D01*
X62201Y24276D01*
Y24252D01*
X62205Y24232D01*
Y23228D01*
X61417D01*
Y24232D01*
X61421Y24252D01*
D02*
G37*
G36*
X62996D02*
Y24276D01*
X63000Y24295D01*
X63004Y24315D01*
X63012Y24335D01*
X63020Y24354D01*
X63028Y24374D01*
X63035Y24390D01*
X63043Y24409D01*
X63055Y24425D01*
X63067Y24445D01*
X63079Y24461D01*
X63095Y24476D01*
X63106Y24492D01*
X63122Y24504D01*
X63138Y24520D01*
X63153Y24532D01*
X63173Y24543D01*
X63189Y24555D01*
X63209Y24563D01*
X63224Y24571D01*
X63244Y24579D01*
X63264Y24587D01*
X63283Y24595D01*
X63303Y24598D01*
X63323Y24602D01*
X63346D01*
X63366Y24606D01*
X63386D01*
X63406D01*
X63425Y24602D01*
X63449D01*
X63468Y24598D01*
X63488Y24595D01*
X63508Y24587D01*
X63528Y24579D01*
X63547Y24571D01*
X63563Y24563D01*
X63583Y24555D01*
X63598Y24543D01*
X63618Y24532D01*
X63634Y24520D01*
X63650Y24504D01*
X63665Y24492D01*
X63677Y24476D01*
X63693Y24461D01*
X63705Y24445D01*
X63717Y24425D01*
X63728Y24409D01*
X63736Y24390D01*
X63744Y24374D01*
X63752Y24354D01*
X63760Y24335D01*
X63768Y24315D01*
X63772Y24295D01*
X63776Y24276D01*
Y24252D01*
X63779Y24232D01*
Y23228D01*
X62992D01*
Y24232D01*
X62996Y24252D01*
D02*
G37*
G36*
X64571D02*
Y24276D01*
X64575Y24295D01*
X64579Y24315D01*
X64587Y24335D01*
X64595Y24354D01*
X64602Y24374D01*
X64610Y24390D01*
X64618Y24409D01*
X64630Y24425D01*
X64642Y24445D01*
X64653Y24461D01*
X64669Y24476D01*
X64681Y24492D01*
X64697Y24504D01*
X64713Y24520D01*
X64728Y24532D01*
X64748Y24543D01*
X64764Y24555D01*
X64784Y24563D01*
X64799Y24571D01*
X64819Y24579D01*
X64839Y24587D01*
X64858Y24595D01*
X64878Y24598D01*
X64898Y24602D01*
X64921D01*
X64941Y24606D01*
X64961D01*
X64980D01*
X65000Y24602D01*
X65024D01*
X65043Y24598D01*
X65063Y24595D01*
X65083Y24587D01*
X65102Y24579D01*
X65122Y24571D01*
X65138Y24563D01*
X65158Y24555D01*
X65173Y24543D01*
X65193Y24532D01*
X65209Y24520D01*
X65224Y24504D01*
X65240Y24492D01*
X65252Y24476D01*
X65268Y24461D01*
X65280Y24445D01*
X65291Y24425D01*
X65303Y24409D01*
X65311Y24390D01*
X65319Y24374D01*
X65327Y24354D01*
X65335Y24335D01*
X65342Y24315D01*
X65346Y24295D01*
X65350Y24276D01*
Y24252D01*
X65354Y24232D01*
Y23228D01*
X64567D01*
Y24232D01*
X64571Y24252D01*
D02*
G37*
G36*
X54921Y36220D02*
X54941D01*
X54961Y36217D01*
X54984D01*
X55004Y36213D01*
X55024Y36209D01*
X55043Y36201D01*
X55063Y36193D01*
X55083Y36185D01*
X55098Y36177D01*
X55118Y36169D01*
X55134Y36158D01*
X55154Y36146D01*
X55169Y36134D01*
X55185Y36118D01*
X55201Y36106D01*
X55213Y36091D01*
X55228Y36075D01*
X55240Y36059D01*
X55252Y36039D01*
X55264Y36024D01*
X55272Y36004D01*
X55279Y35988D01*
X55287Y35969D01*
X55295Y35949D01*
X55303Y35929D01*
X55307Y35909D01*
X55311Y35890D01*
Y35866D01*
X55315Y35846D01*
Y35807D01*
X55311Y35787D01*
Y35764D01*
X55307Y35744D01*
X55303Y35724D01*
X55295Y35705D01*
X55287Y35685D01*
X55279Y35665D01*
X55272Y35650D01*
X55264Y35630D01*
X55252Y35614D01*
X55240Y35594D01*
X55228Y35579D01*
X55213Y35563D01*
X55201Y35547D01*
X55185Y35535D01*
X55169Y35520D01*
X55154Y35508D01*
X55134Y35496D01*
X55118Y35484D01*
X55098Y35476D01*
X55083Y35469D01*
X55063Y35461D01*
X55043Y35453D01*
X55024Y35445D01*
X55004Y35441D01*
X54984Y35437D01*
X54961D01*
X54941Y35433D01*
X54921D01*
X53937D01*
Y36220D01*
X54921D01*
D02*
G37*
G36*
Y37795D02*
X54941D01*
X54961Y37791D01*
X54984D01*
X55004Y37787D01*
X55024Y37784D01*
X55043Y37776D01*
X55063Y37768D01*
X55083Y37760D01*
X55098Y37752D01*
X55118Y37744D01*
X55134Y37732D01*
X55154Y37721D01*
X55169Y37709D01*
X55185Y37693D01*
X55201Y37681D01*
X55213Y37665D01*
X55228Y37650D01*
X55240Y37634D01*
X55252Y37614D01*
X55264Y37598D01*
X55272Y37579D01*
X55279Y37563D01*
X55287Y37543D01*
X55295Y37524D01*
X55303Y37504D01*
X55307Y37484D01*
X55311Y37465D01*
Y37441D01*
X55315Y37421D01*
Y37382D01*
X55311Y37362D01*
Y37339D01*
X55307Y37319D01*
X55303Y37299D01*
X55295Y37279D01*
X55287Y37260D01*
X55279Y37240D01*
X55272Y37224D01*
X55264Y37205D01*
X55252Y37189D01*
X55240Y37169D01*
X55228Y37154D01*
X55213Y37138D01*
X55201Y37122D01*
X55185Y37110D01*
X55169Y37095D01*
X55154Y37083D01*
X55134Y37071D01*
X55118Y37059D01*
X55098Y37051D01*
X55083Y37043D01*
X55063Y37035D01*
X55043Y37028D01*
X55024Y37020D01*
X55004Y37016D01*
X54984Y37012D01*
X54961D01*
X54941Y37008D01*
X54921D01*
X53937D01*
Y37795D01*
X54921D01*
D02*
G37*
G36*
Y39370D02*
X54941D01*
X54961Y39366D01*
X54984D01*
X55004Y39362D01*
X55024Y39358D01*
X55043Y39350D01*
X55063Y39342D01*
X55083Y39335D01*
X55098Y39327D01*
X55118Y39319D01*
X55134Y39307D01*
X55154Y39295D01*
X55169Y39283D01*
X55185Y39268D01*
X55201Y39256D01*
X55213Y39240D01*
X55228Y39224D01*
X55240Y39209D01*
X55252Y39189D01*
X55264Y39173D01*
X55272Y39154D01*
X55279Y39138D01*
X55287Y39118D01*
X55295Y39098D01*
X55303Y39079D01*
X55307Y39059D01*
X55311Y39039D01*
Y39016D01*
X55315Y38996D01*
Y38957D01*
X55311Y38937D01*
Y38913D01*
X55307Y38894D01*
X55303Y38874D01*
X55295Y38854D01*
X55287Y38835D01*
X55279Y38815D01*
X55272Y38799D01*
X55264Y38780D01*
X55252Y38764D01*
X55240Y38744D01*
X55228Y38728D01*
X55213Y38713D01*
X55201Y38697D01*
X55185Y38685D01*
X55169Y38669D01*
X55154Y38658D01*
X55134Y38646D01*
X55118Y38634D01*
X55098Y38626D01*
X55083Y38618D01*
X55063Y38610D01*
X55043Y38602D01*
X55024Y38594D01*
X55004Y38591D01*
X54984Y38587D01*
X54961D01*
X54941Y38583D01*
X54921D01*
X53937D01*
Y39370D01*
X54921D01*
D02*
G37*
G36*
Y40945D02*
X54941D01*
X54961Y40941D01*
X54984D01*
X55004Y40937D01*
X55024Y40933D01*
X55043Y40925D01*
X55063Y40917D01*
X55083Y40909D01*
X55098Y40902D01*
X55118Y40894D01*
X55134Y40882D01*
X55154Y40870D01*
X55169Y40858D01*
X55185Y40843D01*
X55201Y40831D01*
X55213Y40815D01*
X55228Y40799D01*
X55240Y40784D01*
X55252Y40764D01*
X55264Y40748D01*
X55272Y40728D01*
X55279Y40713D01*
X55287Y40693D01*
X55295Y40673D01*
X55303Y40653D01*
X55307Y40634D01*
X55311Y40614D01*
Y40591D01*
X55315Y40571D01*
Y40532D01*
X55311Y40512D01*
Y40488D01*
X55307Y40468D01*
X55303Y40449D01*
X55295Y40429D01*
X55287Y40409D01*
X55279Y40390D01*
X55272Y40374D01*
X55264Y40354D01*
X55252Y40339D01*
X55240Y40319D01*
X55228Y40303D01*
X55213Y40287D01*
X55201Y40272D01*
X55185Y40260D01*
X55169Y40244D01*
X55154Y40232D01*
X55134Y40220D01*
X55118Y40209D01*
X55098Y40201D01*
X55083Y40193D01*
X55063Y40185D01*
X55043Y40177D01*
X55024Y40169D01*
X55004Y40165D01*
X54984Y40161D01*
X54961D01*
X54941Y40157D01*
X54921D01*
X53937D01*
Y40945D01*
X54921D01*
D02*
G37*
G36*
Y42520D02*
X54941D01*
X54961Y42516D01*
X54984D01*
X55004Y42512D01*
X55024Y42508D01*
X55043Y42500D01*
X55063Y42492D01*
X55083Y42484D01*
X55098Y42476D01*
X55118Y42469D01*
X55134Y42457D01*
X55154Y42445D01*
X55169Y42433D01*
X55185Y42417D01*
X55201Y42406D01*
X55213Y42390D01*
X55228Y42374D01*
X55240Y42358D01*
X55252Y42339D01*
X55264Y42323D01*
X55272Y42303D01*
X55279Y42287D01*
X55287Y42268D01*
X55295Y42248D01*
X55303Y42228D01*
X55307Y42209D01*
X55311Y42189D01*
Y42165D01*
X55315Y42146D01*
Y42106D01*
X55311Y42087D01*
Y42063D01*
X55307Y42043D01*
X55303Y42024D01*
X55295Y42004D01*
X55287Y41984D01*
X55279Y41965D01*
X55272Y41949D01*
X55264Y41929D01*
X55252Y41913D01*
X55240Y41894D01*
X55228Y41878D01*
X55213Y41862D01*
X55201Y41846D01*
X55185Y41835D01*
X55169Y41819D01*
X55154Y41807D01*
X55134Y41795D01*
X55118Y41783D01*
X55098Y41776D01*
X55083Y41768D01*
X55063Y41760D01*
X55043Y41752D01*
X55024Y41744D01*
X55004Y41740D01*
X54984Y41736D01*
X54961D01*
X54941Y41732D01*
X54921D01*
X53937D01*
Y42520D01*
X54921D01*
D02*
G37*
G36*
Y44094D02*
X54941D01*
X54961Y44091D01*
X54984D01*
X55004Y44087D01*
X55024Y44083D01*
X55043Y44075D01*
X55063Y44067D01*
X55083Y44059D01*
X55098Y44051D01*
X55118Y44043D01*
X55134Y44032D01*
X55154Y44020D01*
X55169Y44008D01*
X55185Y43992D01*
X55201Y43980D01*
X55213Y43965D01*
X55228Y43949D01*
X55240Y43933D01*
X55252Y43913D01*
X55264Y43898D01*
X55272Y43878D01*
X55279Y43862D01*
X55287Y43843D01*
X55295Y43823D01*
X55303Y43803D01*
X55307Y43784D01*
X55311Y43764D01*
Y43740D01*
X55315Y43720D01*
Y43681D01*
X55311Y43661D01*
Y43638D01*
X55307Y43618D01*
X55303Y43598D01*
X55295Y43579D01*
X55287Y43559D01*
X55279Y43539D01*
X55272Y43524D01*
X55264Y43504D01*
X55252Y43488D01*
X55240Y43468D01*
X55228Y43453D01*
X55213Y43437D01*
X55201Y43421D01*
X55185Y43409D01*
X55169Y43394D01*
X55154Y43382D01*
X55134Y43370D01*
X55118Y43358D01*
X55098Y43350D01*
X55083Y43343D01*
X55063Y43335D01*
X55043Y43327D01*
X55024Y43319D01*
X55004Y43315D01*
X54984Y43311D01*
X54961D01*
X54941Y43307D01*
X54921D01*
X53937D01*
Y44094D01*
X54921D01*
D02*
G37*
G36*
X57480Y46850D02*
Y45847D01*
X57476Y45827D01*
Y45803D01*
X57472Y45783D01*
X57468Y45764D01*
X57461Y45744D01*
X57453Y45724D01*
X57445Y45705D01*
X57437Y45689D01*
X57429Y45669D01*
X57417Y45654D01*
X57406Y45634D01*
X57394Y45618D01*
X57378Y45602D01*
X57366Y45587D01*
X57350Y45575D01*
X57335Y45559D01*
X57319Y45547D01*
X57299Y45535D01*
X57284Y45524D01*
X57264Y45516D01*
X57248Y45508D01*
X57228Y45500D01*
X57209Y45492D01*
X57189Y45484D01*
X57169Y45480D01*
X57150Y45476D01*
X57126D01*
X57106Y45472D01*
X57087D01*
X57067D01*
X57047Y45476D01*
X57024D01*
X57004Y45480D01*
X56984Y45484D01*
X56965Y45492D01*
X56945Y45500D01*
X56925Y45508D01*
X56910Y45516D01*
X56890Y45524D01*
X56874Y45535D01*
X56854Y45547D01*
X56839Y45559D01*
X56823Y45575D01*
X56807Y45587D01*
X56795Y45602D01*
X56779Y45618D01*
X56768Y45634D01*
X56756Y45654D01*
X56744Y45669D01*
X56736Y45689D01*
X56728Y45705D01*
X56721Y45724D01*
X56713Y45744D01*
X56705Y45764D01*
X56701Y45783D01*
X56697Y45803D01*
Y45827D01*
X56693Y45847D01*
Y46850D01*
X57480D01*
D02*
G37*
G36*
X59055D02*
Y45847D01*
X59051Y45827D01*
Y45803D01*
X59047Y45783D01*
X59043Y45764D01*
X59035Y45744D01*
X59028Y45724D01*
X59020Y45705D01*
X59012Y45689D01*
X59004Y45669D01*
X58992Y45654D01*
X58980Y45634D01*
X58969Y45618D01*
X58953Y45602D01*
X58941Y45587D01*
X58925Y45575D01*
X58909Y45559D01*
X58894Y45547D01*
X58874Y45535D01*
X58858Y45524D01*
X58839Y45516D01*
X58823Y45508D01*
X58803Y45500D01*
X58784Y45492D01*
X58764Y45484D01*
X58744Y45480D01*
X58724Y45476D01*
X58701D01*
X58681Y45472D01*
X58661D01*
X58642D01*
X58622Y45476D01*
X58598D01*
X58579Y45480D01*
X58559Y45484D01*
X58539Y45492D01*
X58520Y45500D01*
X58500Y45508D01*
X58484Y45516D01*
X58465Y45524D01*
X58449Y45535D01*
X58429Y45547D01*
X58413Y45559D01*
X58398Y45575D01*
X58382Y45587D01*
X58370Y45602D01*
X58354Y45618D01*
X58342Y45634D01*
X58331Y45654D01*
X58319Y45669D01*
X58311Y45689D01*
X58303Y45705D01*
X58295Y45724D01*
X58287Y45744D01*
X58280Y45764D01*
X58276Y45783D01*
X58272Y45803D01*
Y45827D01*
X58268Y45847D01*
Y46850D01*
X59055D01*
D02*
G37*
G36*
X60630D02*
Y45847D01*
X60626Y45827D01*
Y45803D01*
X60622Y45783D01*
X60618Y45764D01*
X60610Y45744D01*
X60602Y45724D01*
X60594Y45705D01*
X60587Y45689D01*
X60579Y45669D01*
X60567Y45654D01*
X60555Y45634D01*
X60543Y45618D01*
X60528Y45602D01*
X60516Y45587D01*
X60500Y45575D01*
X60484Y45559D01*
X60469Y45547D01*
X60449Y45535D01*
X60433Y45524D01*
X60413Y45516D01*
X60398Y45508D01*
X60378Y45500D01*
X60358Y45492D01*
X60339Y45484D01*
X60319Y45480D01*
X60299Y45476D01*
X60276D01*
X60256Y45472D01*
X60236D01*
X60216D01*
X60197Y45476D01*
X60173D01*
X60154Y45480D01*
X60134Y45484D01*
X60114Y45492D01*
X60094Y45500D01*
X60075Y45508D01*
X60059Y45516D01*
X60039Y45524D01*
X60024Y45535D01*
X60004Y45547D01*
X59988Y45559D01*
X59972Y45575D01*
X59957Y45587D01*
X59945Y45602D01*
X59929Y45618D01*
X59917Y45634D01*
X59905Y45654D01*
X59894Y45669D01*
X59886Y45689D01*
X59878Y45705D01*
X59870Y45724D01*
X59862Y45744D01*
X59854Y45764D01*
X59850Y45783D01*
X59847Y45803D01*
Y45827D01*
X59842Y45847D01*
Y46850D01*
X60630D01*
D02*
G37*
G36*
X62205D02*
Y45847D01*
X62201Y45827D01*
Y45803D01*
X62197Y45783D01*
X62193Y45764D01*
X62185Y45744D01*
X62177Y45724D01*
X62169Y45705D01*
X62161Y45689D01*
X62154Y45669D01*
X62142Y45654D01*
X62130Y45634D01*
X62118Y45618D01*
X62102Y45602D01*
X62090Y45587D01*
X62075Y45575D01*
X62059Y45559D01*
X62043Y45547D01*
X62024Y45535D01*
X62008Y45524D01*
X61988Y45516D01*
X61972Y45508D01*
X61953Y45500D01*
X61933Y45492D01*
X61913Y45484D01*
X61894Y45480D01*
X61874Y45476D01*
X61850D01*
X61831Y45472D01*
X61811D01*
X61791D01*
X61772Y45476D01*
X61748D01*
X61728Y45480D01*
X61709Y45484D01*
X61689Y45492D01*
X61669Y45500D01*
X61650Y45508D01*
X61634Y45516D01*
X61614Y45524D01*
X61598Y45535D01*
X61579Y45547D01*
X61563Y45559D01*
X61547Y45575D01*
X61532Y45587D01*
X61520Y45602D01*
X61504Y45618D01*
X61492Y45634D01*
X61480Y45654D01*
X61468Y45669D01*
X61461Y45689D01*
X61453Y45705D01*
X61445Y45724D01*
X61437Y45744D01*
X61429Y45764D01*
X61425Y45783D01*
X61421Y45803D01*
Y45827D01*
X61417Y45847D01*
Y46850D01*
X62205D01*
D02*
G37*
G36*
X63779D02*
Y45847D01*
X63776Y45827D01*
Y45803D01*
X63772Y45783D01*
X63768Y45764D01*
X63760Y45744D01*
X63752Y45724D01*
X63744Y45705D01*
X63736Y45689D01*
X63728Y45669D01*
X63717Y45654D01*
X63705Y45634D01*
X63693Y45618D01*
X63677Y45602D01*
X63665Y45587D01*
X63650Y45575D01*
X63634Y45559D01*
X63618Y45547D01*
X63598Y45535D01*
X63583Y45524D01*
X63563Y45516D01*
X63547Y45508D01*
X63528Y45500D01*
X63508Y45492D01*
X63488Y45484D01*
X63468Y45480D01*
X63449Y45476D01*
X63425D01*
X63406Y45472D01*
X63386D01*
X63366D01*
X63346Y45476D01*
X63323D01*
X63303Y45480D01*
X63283Y45484D01*
X63264Y45492D01*
X63244Y45500D01*
X63224Y45508D01*
X63209Y45516D01*
X63189Y45524D01*
X63173Y45535D01*
X63153Y45547D01*
X63138Y45559D01*
X63122Y45575D01*
X63106Y45587D01*
X63095Y45602D01*
X63079Y45618D01*
X63067Y45634D01*
X63055Y45654D01*
X63043Y45669D01*
X63035Y45689D01*
X63028Y45705D01*
X63020Y45724D01*
X63012Y45744D01*
X63004Y45764D01*
X63000Y45783D01*
X62996Y45803D01*
Y45827D01*
X62992Y45847D01*
Y46850D01*
X63779D01*
D02*
G37*
G36*
X65354D02*
Y45847D01*
X65350Y45827D01*
Y45803D01*
X65346Y45783D01*
X65342Y45764D01*
X65335Y45744D01*
X65327Y45724D01*
X65319Y45705D01*
X65311Y45689D01*
X65303Y45669D01*
X65291Y45654D01*
X65280Y45634D01*
X65268Y45618D01*
X65252Y45602D01*
X65240Y45587D01*
X65224Y45575D01*
X65209Y45559D01*
X65193Y45547D01*
X65173Y45535D01*
X65158Y45524D01*
X65138Y45516D01*
X65122Y45508D01*
X65102Y45500D01*
X65083Y45492D01*
X65063Y45484D01*
X65043Y45480D01*
X65024Y45476D01*
X65000D01*
X64980Y45472D01*
X64961D01*
X64941D01*
X64921Y45476D01*
X64898D01*
X64878Y45480D01*
X64858Y45484D01*
X64839Y45492D01*
X64819Y45500D01*
X64799Y45508D01*
X64784Y45516D01*
X64764Y45524D01*
X64748Y45535D01*
X64728Y45547D01*
X64713Y45559D01*
X64697Y45575D01*
X64681Y45587D01*
X64669Y45602D01*
X64653Y45618D01*
X64642Y45634D01*
X64630Y45654D01*
X64618Y45669D01*
X64610Y45689D01*
X64602Y45705D01*
X64595Y45724D01*
X64587Y45744D01*
X64579Y45764D01*
X64575Y45783D01*
X64571Y45803D01*
Y45827D01*
X64567Y45847D01*
Y46850D01*
X65354D01*
D02*
G37*
G36*
X66146Y24252D02*
Y24276D01*
X66150Y24295D01*
X66154Y24315D01*
X66161Y24335D01*
X66169Y24354D01*
X66177Y24374D01*
X66185Y24390D01*
X66193Y24409D01*
X66205Y24425D01*
X66216Y24445D01*
X66228Y24461D01*
X66244Y24476D01*
X66256Y24492D01*
X66272Y24504D01*
X66287Y24520D01*
X66303Y24532D01*
X66323Y24543D01*
X66339Y24555D01*
X66358Y24563D01*
X66374Y24571D01*
X66394Y24579D01*
X66413Y24587D01*
X66433Y24595D01*
X66453Y24598D01*
X66472Y24602D01*
X66496D01*
X66516Y24606D01*
X66535D01*
X66555D01*
X66575Y24602D01*
X66598D01*
X66618Y24598D01*
X66638Y24595D01*
X66658Y24587D01*
X66677Y24579D01*
X66697Y24571D01*
X66713Y24563D01*
X66732Y24555D01*
X66748Y24543D01*
X66768Y24532D01*
X66783Y24520D01*
X66799Y24504D01*
X66815Y24492D01*
X66827Y24476D01*
X66843Y24461D01*
X66854Y24445D01*
X66866Y24425D01*
X66878Y24409D01*
X66886Y24390D01*
X66894Y24374D01*
X66902Y24354D01*
X66909Y24335D01*
X66917Y24315D01*
X66921Y24295D01*
X66925Y24276D01*
Y24252D01*
X66929Y24232D01*
Y23228D01*
X66142D01*
Y24232D01*
X66146Y24252D01*
D02*
G37*
G36*
X67721D02*
Y24276D01*
X67724Y24295D01*
X67728Y24315D01*
X67736Y24335D01*
X67744Y24354D01*
X67752Y24374D01*
X67760Y24390D01*
X67768Y24409D01*
X67779Y24425D01*
X67791Y24445D01*
X67803Y24461D01*
X67819Y24476D01*
X67831Y24492D01*
X67847Y24504D01*
X67862Y24520D01*
X67878Y24532D01*
X67898Y24543D01*
X67913Y24555D01*
X67933Y24563D01*
X67949Y24571D01*
X67968Y24579D01*
X67988Y24587D01*
X68008Y24595D01*
X68028Y24598D01*
X68047Y24602D01*
X68071D01*
X68090Y24606D01*
X68110D01*
X68130D01*
X68150Y24602D01*
X68173D01*
X68193Y24598D01*
X68213Y24595D01*
X68232Y24587D01*
X68252Y24579D01*
X68272Y24571D01*
X68287Y24563D01*
X68307Y24555D01*
X68323Y24543D01*
X68343Y24532D01*
X68358Y24520D01*
X68374Y24504D01*
X68390Y24492D01*
X68402Y24476D01*
X68417Y24461D01*
X68429Y24445D01*
X68441Y24425D01*
X68453Y24409D01*
X68461Y24390D01*
X68468Y24374D01*
X68476Y24354D01*
X68484Y24335D01*
X68492Y24315D01*
X68496Y24295D01*
X68500Y24276D01*
Y24252D01*
X68504Y24232D01*
Y23228D01*
X67716D01*
Y24232D01*
X67721Y24252D01*
D02*
G37*
G36*
X69295D02*
Y24276D01*
X69299Y24295D01*
X69303Y24315D01*
X69311Y24335D01*
X69319Y24354D01*
X69327Y24374D01*
X69335Y24390D01*
X69342Y24409D01*
X69354Y24425D01*
X69366Y24445D01*
X69378Y24461D01*
X69394Y24476D01*
X69406Y24492D01*
X69421Y24504D01*
X69437Y24520D01*
X69453Y24532D01*
X69472Y24543D01*
X69488Y24555D01*
X69508Y24563D01*
X69524Y24571D01*
X69543Y24579D01*
X69563Y24587D01*
X69583Y24595D01*
X69602Y24598D01*
X69622Y24602D01*
X69646D01*
X69665Y24606D01*
X69685D01*
X69705D01*
X69724Y24602D01*
X69748D01*
X69768Y24598D01*
X69787Y24595D01*
X69807Y24587D01*
X69827Y24579D01*
X69846Y24571D01*
X69862Y24563D01*
X69882Y24555D01*
X69898Y24543D01*
X69917Y24532D01*
X69933Y24520D01*
X69949Y24504D01*
X69965Y24492D01*
X69976Y24476D01*
X69992Y24461D01*
X70004Y24445D01*
X70016Y24425D01*
X70028Y24409D01*
X70035Y24390D01*
X70043Y24374D01*
X70051Y24354D01*
X70059Y24335D01*
X70067Y24315D01*
X70071Y24295D01*
X70075Y24276D01*
Y24252D01*
X70079Y24232D01*
Y23228D01*
X69291D01*
Y24232D01*
X69295Y24252D01*
D02*
G37*
G36*
X70870D02*
Y24276D01*
X70874Y24295D01*
X70878Y24315D01*
X70886Y24335D01*
X70894Y24354D01*
X70902Y24374D01*
X70910Y24390D01*
X70917Y24409D01*
X70929Y24425D01*
X70941Y24445D01*
X70953Y24461D01*
X70969Y24476D01*
X70980Y24492D01*
X70996Y24504D01*
X71012Y24520D01*
X71028Y24532D01*
X71047Y24543D01*
X71063Y24555D01*
X71083Y24563D01*
X71098Y24571D01*
X71118Y24579D01*
X71138Y24587D01*
X71157Y24595D01*
X71177Y24598D01*
X71197Y24602D01*
X71220D01*
X71240Y24606D01*
X71260D01*
X71280D01*
X71299Y24602D01*
X71323D01*
X71342Y24598D01*
X71362Y24595D01*
X71382Y24587D01*
X71402Y24579D01*
X71421Y24571D01*
X71437Y24563D01*
X71457Y24555D01*
X71472Y24543D01*
X71492Y24532D01*
X71508Y24520D01*
X71524Y24504D01*
X71539Y24492D01*
X71551Y24476D01*
X71567Y24461D01*
X71579Y24445D01*
X71591Y24425D01*
X71602Y24409D01*
X71610Y24390D01*
X71618Y24374D01*
X71626Y24354D01*
X71634Y24335D01*
X71642Y24315D01*
X71646Y24295D01*
X71650Y24276D01*
Y24252D01*
X71653Y24232D01*
Y23228D01*
X70866D01*
Y24232D01*
X70870Y24252D01*
D02*
G37*
G36*
X72445D02*
Y24276D01*
X72449Y24295D01*
X72453Y24315D01*
X72461Y24335D01*
X72469Y24354D01*
X72476Y24374D01*
X72484Y24390D01*
X72492Y24409D01*
X72504Y24425D01*
X72516Y24445D01*
X72528Y24461D01*
X72543Y24476D01*
X72555Y24492D01*
X72571Y24504D01*
X72587Y24520D01*
X72602Y24532D01*
X72622Y24543D01*
X72638Y24555D01*
X72658Y24563D01*
X72673Y24571D01*
X72693Y24579D01*
X72713Y24587D01*
X72732Y24595D01*
X72752Y24598D01*
X72772Y24602D01*
X72795D01*
X72815Y24606D01*
X72835D01*
X72854D01*
X72874Y24602D01*
X72898D01*
X72917Y24598D01*
X72937Y24595D01*
X72957Y24587D01*
X72976Y24579D01*
X72996Y24571D01*
X73012Y24563D01*
X73032Y24555D01*
X73047Y24543D01*
X73067Y24532D01*
X73083Y24520D01*
X73098Y24504D01*
X73114Y24492D01*
X73126Y24476D01*
X73142Y24461D01*
X73154Y24445D01*
X73165Y24425D01*
X73177Y24409D01*
X73185Y24390D01*
X73193Y24374D01*
X73201Y24354D01*
X73209Y24335D01*
X73216Y24315D01*
X73220Y24295D01*
X73224Y24276D01*
Y24252D01*
X73228Y24232D01*
Y23228D01*
X72441D01*
Y24232D01*
X72445Y24252D01*
D02*
G37*
G36*
X74020D02*
Y24276D01*
X74024Y24295D01*
X74028Y24315D01*
X74035Y24335D01*
X74043Y24354D01*
X74051Y24374D01*
X74059Y24390D01*
X74067Y24409D01*
X74079Y24425D01*
X74090Y24445D01*
X74102Y24461D01*
X74118Y24476D01*
X74130Y24492D01*
X74146Y24504D01*
X74161Y24520D01*
X74177Y24532D01*
X74197Y24543D01*
X74213Y24555D01*
X74232Y24563D01*
X74248Y24571D01*
X74268Y24579D01*
X74287Y24587D01*
X74307Y24595D01*
X74327Y24598D01*
X74347Y24602D01*
X74370D01*
X74390Y24606D01*
X74410D01*
X74429D01*
X74449Y24602D01*
X74472D01*
X74492Y24598D01*
X74512Y24595D01*
X74532Y24587D01*
X74551Y24579D01*
X74571Y24571D01*
X74587Y24563D01*
X74606Y24555D01*
X74622Y24543D01*
X74642Y24532D01*
X74657Y24520D01*
X74673Y24504D01*
X74689Y24492D01*
X74701Y24476D01*
X74717Y24461D01*
X74728Y24445D01*
X74740Y24425D01*
X74752Y24409D01*
X74760Y24390D01*
X74768Y24374D01*
X74776Y24354D01*
X74783Y24335D01*
X74791Y24315D01*
X74795Y24295D01*
X74799Y24276D01*
Y24252D01*
X74803Y24232D01*
Y23228D01*
X74016D01*
Y24232D01*
X74020Y24252D01*
D02*
G37*
G36*
X76185Y26417D02*
Y26441D01*
X76189Y26461D01*
X76193Y26480D01*
X76201Y26500D01*
X76209Y26520D01*
X76217Y26539D01*
X76224Y26555D01*
X76232Y26575D01*
X76244Y26591D01*
X76256Y26610D01*
X76268Y26626D01*
X76284Y26642D01*
X76295Y26658D01*
X76311Y26669D01*
X76327Y26685D01*
X76342Y26697D01*
X76362Y26709D01*
X76378Y26720D01*
X76398Y26728D01*
X76413Y26736D01*
X76433Y26744D01*
X76453Y26752D01*
X76472Y26760D01*
X76492Y26764D01*
X76512Y26768D01*
X76535D01*
X76555Y26772D01*
X76575D01*
X77559D01*
Y25984D01*
X76575D01*
X76555D01*
X76535Y25988D01*
X76512D01*
X76492Y25992D01*
X76472Y25996D01*
X76453Y26004D01*
X76433Y26012D01*
X76413Y26020D01*
X76398Y26028D01*
X76378Y26035D01*
X76362Y26047D01*
X76342Y26059D01*
X76327Y26071D01*
X76311Y26087D01*
X76295Y26098D01*
X76284Y26114D01*
X76268Y26130D01*
X76256Y26146D01*
X76244Y26165D01*
X76232Y26181D01*
X76224Y26201D01*
X76217Y26217D01*
X76209Y26236D01*
X76201Y26256D01*
X76193Y26276D01*
X76189Y26295D01*
X76185Y26315D01*
Y26339D01*
X76181Y26358D01*
Y26398D01*
X76185Y26417D01*
D02*
G37*
G36*
Y27992D02*
Y28016D01*
X76189Y28035D01*
X76193Y28055D01*
X76201Y28075D01*
X76209Y28095D01*
X76217Y28114D01*
X76224Y28130D01*
X76232Y28150D01*
X76244Y28165D01*
X76256Y28185D01*
X76268Y28201D01*
X76284Y28216D01*
X76295Y28232D01*
X76311Y28244D01*
X76327Y28260D01*
X76342Y28272D01*
X76362Y28284D01*
X76378Y28295D01*
X76398Y28303D01*
X76413Y28311D01*
X76433Y28319D01*
X76453Y28327D01*
X76472Y28335D01*
X76492Y28339D01*
X76512Y28343D01*
X76535D01*
X76555Y28346D01*
X76575D01*
X77559D01*
Y27559D01*
X76575D01*
X76555D01*
X76535Y27563D01*
X76512D01*
X76492Y27567D01*
X76472Y27571D01*
X76453Y27579D01*
X76433Y27587D01*
X76413Y27595D01*
X76398Y27602D01*
X76378Y27610D01*
X76362Y27622D01*
X76342Y27634D01*
X76327Y27646D01*
X76311Y27661D01*
X76295Y27673D01*
X76284Y27689D01*
X76268Y27705D01*
X76256Y27720D01*
X76244Y27740D01*
X76232Y27756D01*
X76224Y27776D01*
X76217Y27791D01*
X76209Y27811D01*
X76201Y27831D01*
X76193Y27850D01*
X76189Y27870D01*
X76185Y27890D01*
Y27913D01*
X76181Y27933D01*
Y27972D01*
X76185Y27992D01*
D02*
G37*
G36*
Y29567D02*
Y29591D01*
X76189Y29610D01*
X76193Y29630D01*
X76201Y29650D01*
X76209Y29669D01*
X76217Y29689D01*
X76224Y29705D01*
X76232Y29724D01*
X76244Y29740D01*
X76256Y29760D01*
X76268Y29776D01*
X76284Y29791D01*
X76295Y29807D01*
X76311Y29819D01*
X76327Y29835D01*
X76342Y29847D01*
X76362Y29858D01*
X76378Y29870D01*
X76398Y29878D01*
X76413Y29886D01*
X76433Y29894D01*
X76453Y29902D01*
X76472Y29909D01*
X76492Y29913D01*
X76512Y29917D01*
X76535D01*
X76555Y29921D01*
X76575D01*
X77559D01*
Y29134D01*
X76575D01*
X76555D01*
X76535Y29138D01*
X76512D01*
X76492Y29142D01*
X76472Y29146D01*
X76453Y29153D01*
X76433Y29161D01*
X76413Y29169D01*
X76398Y29177D01*
X76378Y29185D01*
X76362Y29197D01*
X76342Y29209D01*
X76327Y29221D01*
X76311Y29236D01*
X76295Y29248D01*
X76284Y29264D01*
X76268Y29280D01*
X76256Y29295D01*
X76244Y29315D01*
X76232Y29331D01*
X76224Y29350D01*
X76217Y29366D01*
X76209Y29386D01*
X76201Y29406D01*
X76193Y29425D01*
X76189Y29445D01*
X76185Y29465D01*
Y29488D01*
X76181Y29508D01*
Y29547D01*
X76185Y29567D01*
D02*
G37*
G36*
Y31142D02*
Y31165D01*
X76189Y31185D01*
X76193Y31205D01*
X76201Y31224D01*
X76209Y31244D01*
X76217Y31264D01*
X76224Y31280D01*
X76232Y31299D01*
X76244Y31315D01*
X76256Y31335D01*
X76268Y31350D01*
X76284Y31366D01*
X76295Y31382D01*
X76311Y31394D01*
X76327Y31409D01*
X76342Y31421D01*
X76362Y31433D01*
X76378Y31445D01*
X76398Y31453D01*
X76413Y31461D01*
X76433Y31468D01*
X76453Y31476D01*
X76472Y31484D01*
X76492Y31488D01*
X76512Y31492D01*
X76535D01*
X76555Y31496D01*
X76575D01*
X77559D01*
Y30709D01*
X76575D01*
X76555D01*
X76535Y30713D01*
X76512D01*
X76492Y30716D01*
X76472Y30720D01*
X76453Y30728D01*
X76433Y30736D01*
X76413Y30744D01*
X76398Y30752D01*
X76378Y30760D01*
X76362Y30772D01*
X76342Y30784D01*
X76327Y30795D01*
X76311Y30811D01*
X76295Y30823D01*
X76284Y30839D01*
X76268Y30854D01*
X76256Y30870D01*
X76244Y30890D01*
X76232Y30906D01*
X76224Y30925D01*
X76217Y30941D01*
X76209Y30961D01*
X76201Y30980D01*
X76193Y31000D01*
X76189Y31020D01*
X76185Y31039D01*
Y31063D01*
X76181Y31083D01*
Y31122D01*
X76185Y31142D01*
D02*
G37*
G36*
Y32717D02*
Y32740D01*
X76189Y32760D01*
X76193Y32779D01*
X76201Y32799D01*
X76209Y32819D01*
X76217Y32839D01*
X76224Y32854D01*
X76232Y32874D01*
X76244Y32890D01*
X76256Y32909D01*
X76268Y32925D01*
X76284Y32941D01*
X76295Y32957D01*
X76311Y32969D01*
X76327Y32984D01*
X76342Y32996D01*
X76362Y33008D01*
X76378Y33020D01*
X76398Y33028D01*
X76413Y33035D01*
X76433Y33043D01*
X76453Y33051D01*
X76472Y33059D01*
X76492Y33063D01*
X76512Y33067D01*
X76535D01*
X76555Y33071D01*
X76575D01*
X77559D01*
Y32283D01*
X76575D01*
X76555D01*
X76535Y32287D01*
X76512D01*
X76492Y32291D01*
X76472Y32295D01*
X76453Y32303D01*
X76433Y32311D01*
X76413Y32319D01*
X76398Y32327D01*
X76378Y32335D01*
X76362Y32346D01*
X76342Y32358D01*
X76327Y32370D01*
X76311Y32386D01*
X76295Y32398D01*
X76284Y32413D01*
X76268Y32429D01*
X76256Y32445D01*
X76244Y32465D01*
X76232Y32480D01*
X76224Y32500D01*
X76217Y32516D01*
X76209Y32535D01*
X76201Y32555D01*
X76193Y32575D01*
X76189Y32594D01*
X76185Y32614D01*
Y32638D01*
X76181Y32658D01*
Y32697D01*
X76185Y32717D01*
D02*
G37*
G36*
Y34291D02*
Y34315D01*
X76189Y34335D01*
X76193Y34354D01*
X76201Y34374D01*
X76209Y34394D01*
X76217Y34413D01*
X76224Y34429D01*
X76232Y34449D01*
X76244Y34465D01*
X76256Y34484D01*
X76268Y34500D01*
X76284Y34516D01*
X76295Y34532D01*
X76311Y34543D01*
X76327Y34559D01*
X76342Y34571D01*
X76362Y34583D01*
X76378Y34595D01*
X76398Y34602D01*
X76413Y34610D01*
X76433Y34618D01*
X76453Y34626D01*
X76472Y34634D01*
X76492Y34638D01*
X76512Y34642D01*
X76535D01*
X76555Y34646D01*
X76575D01*
X77559D01*
Y33858D01*
X76575D01*
X76555D01*
X76535Y33862D01*
X76512D01*
X76492Y33866D01*
X76472Y33870D01*
X76453Y33878D01*
X76433Y33886D01*
X76413Y33894D01*
X76398Y33902D01*
X76378Y33909D01*
X76362Y33921D01*
X76342Y33933D01*
X76327Y33945D01*
X76311Y33961D01*
X76295Y33972D01*
X76284Y33988D01*
X76268Y34004D01*
X76256Y34020D01*
X76244Y34039D01*
X76232Y34055D01*
X76224Y34075D01*
X76217Y34091D01*
X76209Y34110D01*
X76201Y34130D01*
X76193Y34150D01*
X76189Y34169D01*
X76185Y34189D01*
Y34213D01*
X76181Y34232D01*
Y34272D01*
X76185Y34291D01*
D02*
G37*
G36*
X66929Y46850D02*
Y45847D01*
X66925Y45827D01*
Y45803D01*
X66921Y45783D01*
X66917Y45764D01*
X66909Y45744D01*
X66902Y45724D01*
X66894Y45705D01*
X66886Y45689D01*
X66878Y45669D01*
X66866Y45654D01*
X66854Y45634D01*
X66843Y45618D01*
X66827Y45602D01*
X66815Y45587D01*
X66799Y45575D01*
X66783Y45559D01*
X66768Y45547D01*
X66748Y45535D01*
X66732Y45524D01*
X66713Y45516D01*
X66697Y45508D01*
X66677Y45500D01*
X66658Y45492D01*
X66638Y45484D01*
X66618Y45480D01*
X66598Y45476D01*
X66575D01*
X66555Y45472D01*
X66535D01*
X66516D01*
X66496Y45476D01*
X66472D01*
X66453Y45480D01*
X66433Y45484D01*
X66413Y45492D01*
X66394Y45500D01*
X66374Y45508D01*
X66358Y45516D01*
X66339Y45524D01*
X66323Y45535D01*
X66303Y45547D01*
X66287Y45559D01*
X66272Y45575D01*
X66256Y45587D01*
X66244Y45602D01*
X66228Y45618D01*
X66216Y45634D01*
X66205Y45654D01*
X66193Y45669D01*
X66185Y45689D01*
X66177Y45705D01*
X66169Y45724D01*
X66161Y45744D01*
X66154Y45764D01*
X66150Y45783D01*
X66146Y45803D01*
Y45827D01*
X66142Y45847D01*
Y46850D01*
X66929D01*
D02*
G37*
G36*
X68504D02*
Y45847D01*
X68500Y45827D01*
Y45803D01*
X68496Y45783D01*
X68492Y45764D01*
X68484Y45744D01*
X68476Y45724D01*
X68468Y45705D01*
X68461Y45689D01*
X68453Y45669D01*
X68441Y45654D01*
X68429Y45634D01*
X68417Y45618D01*
X68402Y45602D01*
X68390Y45587D01*
X68374Y45575D01*
X68358Y45559D01*
X68343Y45547D01*
X68323Y45535D01*
X68307Y45524D01*
X68287Y45516D01*
X68272Y45508D01*
X68252Y45500D01*
X68232Y45492D01*
X68213Y45484D01*
X68193Y45480D01*
X68173Y45476D01*
X68150D01*
X68130Y45472D01*
X68110D01*
X68090D01*
X68071Y45476D01*
X68047D01*
X68028Y45480D01*
X68008Y45484D01*
X67988Y45492D01*
X67968Y45500D01*
X67949Y45508D01*
X67933Y45516D01*
X67913Y45524D01*
X67898Y45535D01*
X67878Y45547D01*
X67862Y45559D01*
X67847Y45575D01*
X67831Y45587D01*
X67819Y45602D01*
X67803Y45618D01*
X67791Y45634D01*
X67779Y45654D01*
X67768Y45669D01*
X67760Y45689D01*
X67752Y45705D01*
X67744Y45724D01*
X67736Y45744D01*
X67728Y45764D01*
X67724Y45783D01*
X67721Y45803D01*
Y45827D01*
X67716Y45847D01*
Y46850D01*
X68504D01*
D02*
G37*
G36*
X70079D02*
Y45847D01*
X70075Y45827D01*
Y45803D01*
X70071Y45783D01*
X70067Y45764D01*
X70059Y45744D01*
X70051Y45724D01*
X70043Y45705D01*
X70035Y45689D01*
X70028Y45669D01*
X70016Y45654D01*
X70004Y45634D01*
X69992Y45618D01*
X69976Y45602D01*
X69965Y45587D01*
X69949Y45575D01*
X69933Y45559D01*
X69917Y45547D01*
X69898Y45535D01*
X69882Y45524D01*
X69862Y45516D01*
X69846Y45508D01*
X69827Y45500D01*
X69807Y45492D01*
X69787Y45484D01*
X69768Y45480D01*
X69748Y45476D01*
X69724D01*
X69705Y45472D01*
X69685D01*
X69665D01*
X69646Y45476D01*
X69622D01*
X69602Y45480D01*
X69583Y45484D01*
X69563Y45492D01*
X69543Y45500D01*
X69524Y45508D01*
X69508Y45516D01*
X69488Y45524D01*
X69472Y45535D01*
X69453Y45547D01*
X69437Y45559D01*
X69421Y45575D01*
X69406Y45587D01*
X69394Y45602D01*
X69378Y45618D01*
X69366Y45634D01*
X69354Y45654D01*
X69342Y45669D01*
X69335Y45689D01*
X69327Y45705D01*
X69319Y45724D01*
X69311Y45744D01*
X69303Y45764D01*
X69299Y45783D01*
X69295Y45803D01*
Y45827D01*
X69291Y45847D01*
Y46850D01*
X70079D01*
D02*
G37*
G36*
X71653D02*
Y45847D01*
X71650Y45827D01*
Y45803D01*
X71646Y45783D01*
X71642Y45764D01*
X71634Y45744D01*
X71626Y45724D01*
X71618Y45705D01*
X71610Y45689D01*
X71602Y45669D01*
X71591Y45654D01*
X71579Y45634D01*
X71567Y45618D01*
X71551Y45602D01*
X71539Y45587D01*
X71524Y45575D01*
X71508Y45559D01*
X71492Y45547D01*
X71472Y45535D01*
X71457Y45524D01*
X71437Y45516D01*
X71421Y45508D01*
X71402Y45500D01*
X71382Y45492D01*
X71362Y45484D01*
X71342Y45480D01*
X71323Y45476D01*
X71299D01*
X71280Y45472D01*
X71260D01*
X71240D01*
X71220Y45476D01*
X71197D01*
X71177Y45480D01*
X71157Y45484D01*
X71138Y45492D01*
X71118Y45500D01*
X71098Y45508D01*
X71083Y45516D01*
X71063Y45524D01*
X71047Y45535D01*
X71028Y45547D01*
X71012Y45559D01*
X70996Y45575D01*
X70980Y45587D01*
X70969Y45602D01*
X70953Y45618D01*
X70941Y45634D01*
X70929Y45654D01*
X70917Y45669D01*
X70910Y45689D01*
X70902Y45705D01*
X70894Y45724D01*
X70886Y45744D01*
X70878Y45764D01*
X70874Y45783D01*
X70870Y45803D01*
Y45827D01*
X70866Y45847D01*
Y46850D01*
X71653D01*
D02*
G37*
G36*
X73228D02*
Y45847D01*
X73224Y45827D01*
Y45803D01*
X73220Y45783D01*
X73216Y45764D01*
X73209Y45744D01*
X73201Y45724D01*
X73193Y45705D01*
X73185Y45689D01*
X73177Y45669D01*
X73165Y45654D01*
X73154Y45634D01*
X73142Y45618D01*
X73126Y45602D01*
X73114Y45587D01*
X73098Y45575D01*
X73083Y45559D01*
X73067Y45547D01*
X73047Y45535D01*
X73032Y45524D01*
X73012Y45516D01*
X72996Y45508D01*
X72976Y45500D01*
X72957Y45492D01*
X72937Y45484D01*
X72917Y45480D01*
X72898Y45476D01*
X72874D01*
X72854Y45472D01*
X72835D01*
X72815D01*
X72795Y45476D01*
X72772D01*
X72752Y45480D01*
X72732Y45484D01*
X72713Y45492D01*
X72693Y45500D01*
X72673Y45508D01*
X72658Y45516D01*
X72638Y45524D01*
X72622Y45535D01*
X72602Y45547D01*
X72587Y45559D01*
X72571Y45575D01*
X72555Y45587D01*
X72543Y45602D01*
X72528Y45618D01*
X72516Y45634D01*
X72504Y45654D01*
X72492Y45669D01*
X72484Y45689D01*
X72476Y45705D01*
X72469Y45724D01*
X72461Y45744D01*
X72453Y45764D01*
X72449Y45783D01*
X72445Y45803D01*
Y45827D01*
X72441Y45847D01*
Y46850D01*
X73228D01*
D02*
G37*
G36*
X74803D02*
Y45847D01*
X74799Y45827D01*
Y45803D01*
X74795Y45783D01*
X74791Y45764D01*
X74783Y45744D01*
X74776Y45724D01*
X74768Y45705D01*
X74760Y45689D01*
X74752Y45669D01*
X74740Y45654D01*
X74728Y45634D01*
X74717Y45618D01*
X74701Y45602D01*
X74689Y45587D01*
X74673Y45575D01*
X74657Y45559D01*
X74642Y45547D01*
X74622Y45535D01*
X74606Y45524D01*
X74587Y45516D01*
X74571Y45508D01*
X74551Y45500D01*
X74532Y45492D01*
X74512Y45484D01*
X74492Y45480D01*
X74472Y45476D01*
X74449D01*
X74429Y45472D01*
X74410D01*
X74390D01*
X74370Y45476D01*
X74347D01*
X74327Y45480D01*
X74307Y45484D01*
X74287Y45492D01*
X74268Y45500D01*
X74248Y45508D01*
X74232Y45516D01*
X74213Y45524D01*
X74197Y45535D01*
X74177Y45547D01*
X74161Y45559D01*
X74146Y45575D01*
X74130Y45587D01*
X74118Y45602D01*
X74102Y45618D01*
X74090Y45634D01*
X74079Y45654D01*
X74067Y45669D01*
X74059Y45689D01*
X74051Y45705D01*
X74043Y45724D01*
X74035Y45744D01*
X74028Y45764D01*
X74024Y45783D01*
X74020Y45803D01*
Y45827D01*
X74016Y45847D01*
Y46850D01*
X74803D01*
D02*
G37*
G36*
X76185Y35866D02*
Y35890D01*
X76189Y35909D01*
X76193Y35929D01*
X76201Y35949D01*
X76209Y35969D01*
X76217Y35988D01*
X76224Y36004D01*
X76232Y36024D01*
X76244Y36039D01*
X76256Y36059D01*
X76268Y36075D01*
X76284Y36091D01*
X76295Y36106D01*
X76311Y36118D01*
X76327Y36134D01*
X76342Y36146D01*
X76362Y36158D01*
X76378Y36169D01*
X76398Y36177D01*
X76413Y36185D01*
X76433Y36193D01*
X76453Y36201D01*
X76472Y36209D01*
X76492Y36213D01*
X76512Y36217D01*
X76535D01*
X76555Y36220D01*
X76575D01*
X77559D01*
Y35433D01*
X76575D01*
X76555D01*
X76535Y35437D01*
X76512D01*
X76492Y35441D01*
X76472Y35445D01*
X76453Y35453D01*
X76433Y35461D01*
X76413Y35469D01*
X76398Y35476D01*
X76378Y35484D01*
X76362Y35496D01*
X76342Y35508D01*
X76327Y35520D01*
X76311Y35535D01*
X76295Y35547D01*
X76284Y35563D01*
X76268Y35579D01*
X76256Y35594D01*
X76244Y35614D01*
X76232Y35630D01*
X76224Y35650D01*
X76217Y35665D01*
X76209Y35685D01*
X76201Y35705D01*
X76193Y35724D01*
X76189Y35744D01*
X76185Y35764D01*
Y35787D01*
X76181Y35807D01*
Y35846D01*
X76185Y35866D01*
D02*
G37*
G36*
Y37441D02*
Y37465D01*
X76189Y37484D01*
X76193Y37504D01*
X76201Y37524D01*
X76209Y37543D01*
X76217Y37563D01*
X76224Y37579D01*
X76232Y37598D01*
X76244Y37614D01*
X76256Y37634D01*
X76268Y37650D01*
X76284Y37665D01*
X76295Y37681D01*
X76311Y37693D01*
X76327Y37709D01*
X76342Y37721D01*
X76362Y37732D01*
X76378Y37744D01*
X76398Y37752D01*
X76413Y37760D01*
X76433Y37768D01*
X76453Y37776D01*
X76472Y37784D01*
X76492Y37787D01*
X76512Y37791D01*
X76535D01*
X76555Y37795D01*
X76575D01*
X77559D01*
Y37008D01*
X76575D01*
X76555D01*
X76535Y37012D01*
X76512D01*
X76492Y37016D01*
X76472Y37020D01*
X76453Y37028D01*
X76433Y37035D01*
X76413Y37043D01*
X76398Y37051D01*
X76378Y37059D01*
X76362Y37071D01*
X76342Y37083D01*
X76327Y37095D01*
X76311Y37110D01*
X76295Y37122D01*
X76284Y37138D01*
X76268Y37154D01*
X76256Y37169D01*
X76244Y37189D01*
X76232Y37205D01*
X76224Y37224D01*
X76217Y37240D01*
X76209Y37260D01*
X76201Y37279D01*
X76193Y37299D01*
X76189Y37319D01*
X76185Y37339D01*
Y37362D01*
X76181Y37382D01*
Y37421D01*
X76185Y37441D01*
D02*
G37*
G36*
Y39016D02*
Y39039D01*
X76189Y39059D01*
X76193Y39079D01*
X76201Y39098D01*
X76209Y39118D01*
X76217Y39138D01*
X76224Y39154D01*
X76232Y39173D01*
X76244Y39189D01*
X76256Y39209D01*
X76268Y39224D01*
X76284Y39240D01*
X76295Y39256D01*
X76311Y39268D01*
X76327Y39283D01*
X76342Y39295D01*
X76362Y39307D01*
X76378Y39319D01*
X76398Y39327D01*
X76413Y39335D01*
X76433Y39342D01*
X76453Y39350D01*
X76472Y39358D01*
X76492Y39362D01*
X76512Y39366D01*
X76535D01*
X76555Y39370D01*
X76575D01*
X77559D01*
Y38583D01*
X76575D01*
X76555D01*
X76535Y38587D01*
X76512D01*
X76492Y38591D01*
X76472Y38594D01*
X76453Y38602D01*
X76433Y38610D01*
X76413Y38618D01*
X76398Y38626D01*
X76378Y38634D01*
X76362Y38646D01*
X76342Y38658D01*
X76327Y38669D01*
X76311Y38685D01*
X76295Y38697D01*
X76284Y38713D01*
X76268Y38728D01*
X76256Y38744D01*
X76244Y38764D01*
X76232Y38780D01*
X76224Y38799D01*
X76217Y38815D01*
X76209Y38835D01*
X76201Y38854D01*
X76193Y38874D01*
X76189Y38894D01*
X76185Y38913D01*
Y38937D01*
X76181Y38957D01*
Y38996D01*
X76185Y39016D01*
D02*
G37*
G36*
Y40591D02*
Y40614D01*
X76189Y40634D01*
X76193Y40653D01*
X76201Y40673D01*
X76209Y40693D01*
X76217Y40713D01*
X76224Y40728D01*
X76232Y40748D01*
X76244Y40764D01*
X76256Y40784D01*
X76268Y40799D01*
X76284Y40815D01*
X76295Y40831D01*
X76311Y40843D01*
X76327Y40858D01*
X76342Y40870D01*
X76362Y40882D01*
X76378Y40894D01*
X76398Y40902D01*
X76413Y40909D01*
X76433Y40917D01*
X76453Y40925D01*
X76472Y40933D01*
X76492Y40937D01*
X76512Y40941D01*
X76535D01*
X76555Y40945D01*
X76575D01*
X77559D01*
Y40157D01*
X76575D01*
X76555D01*
X76535Y40161D01*
X76512D01*
X76492Y40165D01*
X76472Y40169D01*
X76453Y40177D01*
X76433Y40185D01*
X76413Y40193D01*
X76398Y40201D01*
X76378Y40209D01*
X76362Y40220D01*
X76342Y40232D01*
X76327Y40244D01*
X76311Y40260D01*
X76295Y40272D01*
X76284Y40287D01*
X76268Y40303D01*
X76256Y40319D01*
X76244Y40339D01*
X76232Y40354D01*
X76224Y40374D01*
X76217Y40390D01*
X76209Y40409D01*
X76201Y40429D01*
X76193Y40449D01*
X76189Y40468D01*
X76185Y40488D01*
Y40512D01*
X76181Y40532D01*
Y40571D01*
X76185Y40591D01*
D02*
G37*
G36*
Y42165D02*
Y42189D01*
X76189Y42209D01*
X76193Y42228D01*
X76201Y42248D01*
X76209Y42268D01*
X76217Y42287D01*
X76224Y42303D01*
X76232Y42323D01*
X76244Y42339D01*
X76256Y42358D01*
X76268Y42374D01*
X76284Y42390D01*
X76295Y42406D01*
X76311Y42417D01*
X76327Y42433D01*
X76342Y42445D01*
X76362Y42457D01*
X76378Y42469D01*
X76398Y42476D01*
X76413Y42484D01*
X76433Y42492D01*
X76453Y42500D01*
X76472Y42508D01*
X76492Y42512D01*
X76512Y42516D01*
X76535D01*
X76555Y42520D01*
X76575D01*
X77559D01*
Y41732D01*
X76575D01*
X76555D01*
X76535Y41736D01*
X76512D01*
X76492Y41740D01*
X76472Y41744D01*
X76453Y41752D01*
X76433Y41760D01*
X76413Y41768D01*
X76398Y41776D01*
X76378Y41783D01*
X76362Y41795D01*
X76342Y41807D01*
X76327Y41819D01*
X76311Y41835D01*
X76295Y41846D01*
X76284Y41862D01*
X76268Y41878D01*
X76256Y41894D01*
X76244Y41913D01*
X76232Y41929D01*
X76224Y41949D01*
X76217Y41965D01*
X76209Y41984D01*
X76201Y42004D01*
X76193Y42024D01*
X76189Y42043D01*
X76185Y42063D01*
Y42087D01*
X76181Y42106D01*
Y42146D01*
X76185Y42165D01*
D02*
G37*
G36*
Y43740D02*
Y43764D01*
X76189Y43784D01*
X76193Y43803D01*
X76201Y43823D01*
X76209Y43843D01*
X76217Y43862D01*
X76224Y43878D01*
X76232Y43898D01*
X76244Y43913D01*
X76256Y43933D01*
X76268Y43949D01*
X76284Y43965D01*
X76295Y43980D01*
X76311Y43992D01*
X76327Y44008D01*
X76342Y44020D01*
X76362Y44032D01*
X76378Y44043D01*
X76398Y44051D01*
X76413Y44059D01*
X76433Y44067D01*
X76453Y44075D01*
X76472Y44083D01*
X76492Y44087D01*
X76512Y44091D01*
X76535D01*
X76555Y44094D01*
X76575D01*
X77559D01*
Y43307D01*
X76575D01*
X76555D01*
X76535Y43311D01*
X76512D01*
X76492Y43315D01*
X76472Y43319D01*
X76453Y43327D01*
X76433Y43335D01*
X76413Y43343D01*
X76398Y43350D01*
X76378Y43358D01*
X76362Y43370D01*
X76342Y43382D01*
X76327Y43394D01*
X76311Y43409D01*
X76295Y43421D01*
X76284Y43437D01*
X76268Y43453D01*
X76256Y43468D01*
X76244Y43488D01*
X76232Y43504D01*
X76224Y43524D01*
X76217Y43539D01*
X76209Y43559D01*
X76201Y43579D01*
X76193Y43598D01*
X76189Y43618D01*
X76185Y43638D01*
Y43661D01*
X76181Y43681D01*
Y43720D01*
X76185Y43740D01*
D02*
G37*
D10*
X137795Y46850D02*
X137008D01*
X137795D01*
X46000Y15216D02*
X45213D01*
X46000D01*
X34646Y8858D02*
X33858D01*
X34646D01*
X35642Y38638D02*
X34854D01*
X35642D01*
X26894Y32480D02*
X26106D01*
X26894D01*
D14*
X90744Y44453D02*
X90153Y45043D01*
X89563Y44453D01*
X90153Y43862D01*
X90744Y44453D01*
D15*
X17624Y40802D02*
X16776Y40451D01*
X16424Y39602D01*
X16776Y38754D01*
X17624Y38402D01*
X5824Y36802D02*
Y42402D01*
Y36802D02*
X10724D01*
X12724D01*
X17624D01*
Y38402D01*
Y40802D01*
Y42402D01*
X16524D02*
X17624D01*
X14524D02*
X16524D01*
X8924D02*
X14524D01*
X16524D02*
Y44502D01*
X14524D02*
X16524D01*
X14524Y42402D02*
Y44502D01*
X5824Y42402D02*
X6924D01*
X8924D01*
Y44502D01*
X6924D02*
X8924D01*
X6924Y42402D02*
Y44502D01*
X10724Y34702D02*
Y36802D01*
Y34702D02*
X12724D01*
Y36802D01*
D16*
X57967Y26378D02*
X57527Y27140D01*
X56646D01*
X56206Y26378D01*
X56646Y25616D01*
X57527D01*
X57967Y26378D01*
X135039Y45079D02*
Y54921D01*
X123228D02*
X135039D01*
X123228Y45079D02*
Y54921D01*
Y45079D02*
X135039D01*
X92126Y19291D02*
Y31102D01*
X103937D01*
Y19291D02*
Y31102D01*
X92126Y19291D02*
X103937D01*
X100725Y4916D02*
Y9246D01*
X98363Y4916D02*
X100725D01*
X98363D02*
Y9246D01*
X100725D01*
X88526Y5102D02*
Y9433D01*
X90888D01*
Y5102D02*
Y9433D01*
X88526Y5102D02*
X90888D01*
X38764Y28346D02*
X41913D01*
X38764Y22047D02*
Y28346D01*
Y22047D02*
X41913D01*
Y28346D01*
X39189Y16319D02*
X43362D01*
X39189Y14114D02*
X43362D01*
Y16319D01*
X39189Y14114D02*
Y16319D01*
X37008Y11220D02*
X44882D01*
Y6496D02*
Y11220D01*
X37008Y6496D02*
X44882D01*
X37008D02*
Y11220D01*
X33083Y41591D02*
X45681D01*
Y51433D01*
X33083D02*
X45681D01*
X33083Y41591D02*
Y51433D01*
X53937Y24803D02*
Y45276D01*
X55512Y46850D02*
X75984D01*
X55512Y23228D02*
X75984D01*
X77559Y24803D02*
Y45276D01*
X25000Y30118D02*
X31693D01*
Y42323D01*
X25000D02*
X31693D01*
X25000Y30118D02*
Y42323D01*
X130118Y24803D02*
X134449D01*
Y26772D01*
X130118Y24803D02*
Y26772D01*
X120118Y24803D02*
X124449D01*
Y26772D01*
X120118Y24803D02*
Y26772D01*
X116378Y1378D02*
Y26969D01*
Y1378D02*
X138189D01*
Y26969D01*
X116378D02*
X138189D01*
M02*
