G04*
G04 #@! TF.GenerationSoftware,Altium Limited,Altium Designer,19.1.5 (86)*
G04*
G04 Layer_Color=32896*
%FSLAX25Y25*%
%MOIN*%
G70*
G01*
G75*
%ADD10C,0.00787*%
%ADD13C,0.01000*%
%ADD16C,0.00500*%
%ADD57C,0.00984*%
G36*
X110334Y91646D02*
X110560D01*
Y91589D01*
X110673D01*
Y91532D01*
X110730D01*
Y91476D01*
X110787D01*
Y91419D01*
X110843D01*
Y91363D01*
X110900D01*
Y91306D01*
Y91250D01*
X110957D01*
Y91193D01*
X111013D01*
Y91136D01*
Y91080D01*
X111070D01*
Y91023D01*
Y90966D01*
X111126D01*
Y90910D01*
X111183D01*
Y90853D01*
Y90797D01*
X111240D01*
Y90740D01*
Y90683D01*
X111296D01*
Y90627D01*
Y90570D01*
X111353D01*
Y90513D01*
X111409D01*
Y90457D01*
Y90400D01*
X111466D01*
Y90344D01*
Y90287D01*
X111523D01*
Y90230D01*
Y90174D01*
X111579D01*
Y90117D01*
X111636D01*
Y90061D01*
Y90004D01*
X111693D01*
Y89947D01*
Y89891D01*
X111749D01*
Y89834D01*
X111806D01*
Y89777D01*
Y89721D01*
X111862D01*
Y89664D01*
Y89608D01*
X111919D01*
Y89551D01*
Y89494D01*
X111976D01*
Y89438D01*
X112032D01*
Y89381D01*
Y89324D01*
X112089D01*
Y89268D01*
Y89211D01*
X112145D01*
Y89155D01*
Y89098D01*
X112202D01*
Y89042D01*
X112259D01*
Y88985D01*
Y88928D01*
X112315D01*
Y88872D01*
Y88815D01*
X112372D01*
Y88758D01*
X112429D01*
Y88702D01*
Y88645D01*
X112485D01*
Y88589D01*
Y88532D01*
X112542D01*
Y88475D01*
Y88419D01*
X112598D01*
Y88362D01*
X112655D01*
Y88305D01*
Y88249D01*
X112712D01*
Y88192D01*
Y88136D01*
X112768D01*
Y88079D01*
Y88022D01*
X112825D01*
Y87966D01*
X112882D01*
Y87909D01*
Y87853D01*
X112938D01*
Y87796D01*
Y87739D01*
X112995D01*
Y87683D01*
Y87626D01*
X113051D01*
Y87569D01*
X113108D01*
Y87513D01*
Y87456D01*
X113165D01*
Y87400D01*
Y87343D01*
X113221D01*
Y87286D01*
X113278D01*
Y87230D01*
Y87173D01*
X113334D01*
Y87117D01*
Y87060D01*
X113391D01*
Y87003D01*
Y86947D01*
X113448D01*
Y86890D01*
X113504D01*
Y86834D01*
Y86777D01*
X113561D01*
Y86720D01*
Y86664D01*
X113618D01*
Y86607D01*
Y86550D01*
X113674D01*
Y86494D01*
X113731D01*
Y86437D01*
Y86381D01*
X113787D01*
Y86324D01*
Y86267D01*
X113844D01*
Y86211D01*
Y86154D01*
X113901D01*
Y86098D01*
X113957D01*
Y86041D01*
Y85984D01*
X114014D01*
Y85928D01*
Y85871D01*
X114070D01*
Y85814D01*
X114127D01*
Y85758D01*
Y85701D01*
X114184D01*
Y85645D01*
Y85588D01*
X114240D01*
Y85531D01*
Y85475D01*
X114297D01*
Y85418D01*
X114354D01*
Y85361D01*
Y85305D01*
X114410D01*
Y85248D01*
Y85192D01*
X114467D01*
Y85135D01*
Y85078D01*
X114523D01*
Y85022D01*
X114580D01*
Y84965D01*
Y84909D01*
X114637D01*
Y84852D01*
Y84795D01*
X114693D01*
Y84739D01*
Y84682D01*
X114750D01*
Y84626D01*
X114806D01*
Y84569D01*
Y84512D01*
X114863D01*
Y84456D01*
Y84399D01*
X114920D01*
Y84342D01*
X114976D01*
Y84286D01*
Y84229D01*
X115033D01*
Y84173D01*
Y84116D01*
X115089D01*
Y84059D01*
Y84003D01*
X115146D01*
Y83946D01*
X115203D01*
Y83890D01*
Y83833D01*
X115259D01*
Y83776D01*
Y83720D01*
X115316D01*
Y83663D01*
Y83606D01*
X115373D01*
Y83550D01*
X115429D01*
Y83493D01*
Y83437D01*
X115486D01*
Y83380D01*
Y83323D01*
X115542D01*
Y83267D01*
X115599D01*
Y83210D01*
Y83153D01*
X115656D01*
Y83097D01*
Y83040D01*
X115712D01*
Y82984D01*
Y82927D01*
X115769D01*
Y82870D01*
X115825D01*
Y82814D01*
Y82757D01*
X115882D01*
Y82701D01*
Y82644D01*
X115939D01*
Y82587D01*
Y82531D01*
X115995D01*
Y82474D01*
X116052D01*
Y82418D01*
Y82361D01*
X116109D01*
Y82304D01*
Y82248D01*
X116165D01*
Y82191D01*
Y82134D01*
X116222D01*
Y82078D01*
X116278D01*
Y82021D01*
Y81965D01*
X116335D01*
Y81908D01*
Y81851D01*
X116392D01*
Y81795D01*
X116448D01*
Y81738D01*
Y81682D01*
X116505D01*
Y81625D01*
Y81568D01*
X116561D01*
Y81512D01*
Y81455D01*
X116618D01*
Y81398D01*
X116675D01*
Y81342D01*
Y81285D01*
X116731D01*
Y81229D01*
Y81172D01*
X116788D01*
Y81115D01*
Y81059D01*
X116845D01*
Y81002D01*
X116901D01*
Y80945D01*
Y80889D01*
X116958D01*
Y80832D01*
Y80776D01*
X117014D01*
Y80719D01*
Y80663D01*
X117071D01*
Y80606D01*
X117128D01*
Y80549D01*
Y80493D01*
X117184D01*
Y80436D01*
Y80379D01*
X117241D01*
Y80323D01*
X117297D01*
Y80266D01*
Y80209D01*
X117354D01*
Y80153D01*
Y80096D01*
X117411D01*
Y80040D01*
Y79983D01*
X117467D01*
Y79927D01*
X117524D01*
Y79870D01*
Y79813D01*
X117580D01*
Y79757D01*
Y79700D01*
X117637D01*
Y79643D01*
Y79587D01*
X117694D01*
Y79530D01*
X117750D01*
Y79474D01*
Y79417D01*
X117807D01*
Y79360D01*
Y79304D01*
X117864D01*
Y79247D01*
Y79190D01*
X117920D01*
Y79134D01*
X117977D01*
Y79077D01*
Y79021D01*
X118034D01*
Y78964D01*
Y78907D01*
X118090D01*
Y78851D01*
X118147D01*
Y78794D01*
Y78737D01*
X118203D01*
Y78681D01*
Y78624D01*
X118260D01*
Y78568D01*
Y78511D01*
X118316D01*
Y78455D01*
X118373D01*
Y78398D01*
Y78341D01*
X118430D01*
Y78285D01*
Y78228D01*
X118486D01*
Y78171D01*
Y78115D01*
X118543D01*
Y78058D01*
X118600D01*
Y78001D01*
Y77945D01*
X118656D01*
Y77888D01*
Y77832D01*
X118713D01*
Y77775D01*
X118770D01*
Y77719D01*
Y77662D01*
X118826D01*
Y77605D01*
Y77549D01*
X118883D01*
Y77492D01*
Y77435D01*
X118939D01*
Y77379D01*
X118996D01*
Y77322D01*
Y77266D01*
X119053D01*
Y77209D01*
Y77152D01*
X119109D01*
Y77096D01*
Y77039D01*
X119166D01*
Y76982D01*
X119222D01*
Y76926D01*
Y76869D01*
X119279D01*
Y76813D01*
Y76756D01*
X119336D01*
Y76699D01*
Y76643D01*
X119392D01*
Y76586D01*
X119449D01*
Y76530D01*
Y76473D01*
X119506D01*
Y76416D01*
Y76360D01*
X119562D01*
Y76303D01*
X119619D01*
Y76247D01*
Y76190D01*
X119675D01*
Y76133D01*
Y76077D01*
X119732D01*
Y76020D01*
Y75963D01*
X119789D01*
Y75907D01*
X119845D01*
Y75850D01*
Y75794D01*
X119902D01*
Y75737D01*
Y75680D01*
X119958D01*
Y75624D01*
Y75567D01*
X120015D01*
Y75511D01*
Y75454D01*
X120072D01*
Y75397D01*
Y75341D01*
Y75284D01*
X120128D01*
Y75227D01*
Y75171D01*
Y75114D01*
Y75058D01*
Y75001D01*
Y74944D01*
X120072D01*
Y74888D01*
Y74831D01*
Y74774D01*
X120015D01*
Y74718D01*
Y74661D01*
X119958D01*
Y74605D01*
Y74548D01*
X119902D01*
Y74491D01*
X119845D01*
Y74435D01*
X119789D01*
Y74378D01*
X119675D01*
Y74322D01*
X119562D01*
Y74265D01*
X119392D01*
Y74208D01*
X100936D01*
Y74265D01*
X100766D01*
Y74322D01*
X100653D01*
Y74378D01*
X100539D01*
Y74435D01*
X100483D01*
Y74491D01*
X100426D01*
Y74548D01*
X100370D01*
Y74605D01*
Y74661D01*
X100313D01*
Y74718D01*
Y74774D01*
X100256D01*
Y74831D01*
Y74888D01*
Y74944D01*
X100200D01*
Y75001D01*
Y75058D01*
Y75114D01*
Y75171D01*
Y75227D01*
Y75284D01*
X100256D01*
Y75341D01*
Y75397D01*
Y75454D01*
X100313D01*
Y75511D01*
Y75567D01*
X100370D01*
Y75624D01*
Y75680D01*
X100426D01*
Y75737D01*
Y75794D01*
X100483D01*
Y75850D01*
Y75907D01*
X100539D01*
Y75963D01*
X100596D01*
Y76020D01*
Y76077D01*
X100653D01*
Y76133D01*
Y76190D01*
X100709D01*
Y76247D01*
Y76303D01*
X100766D01*
Y76360D01*
X100822D01*
Y76416D01*
Y76473D01*
X100879D01*
Y76530D01*
Y76586D01*
X100936D01*
Y76643D01*
X100992D01*
Y76699D01*
Y76756D01*
X101049D01*
Y76813D01*
Y76869D01*
X101106D01*
Y76926D01*
Y76982D01*
X101162D01*
Y77039D01*
X101219D01*
Y77096D01*
Y77152D01*
X101275D01*
Y77209D01*
Y77266D01*
X101332D01*
Y77322D01*
Y77379D01*
X101389D01*
Y77435D01*
X101445D01*
Y77492D01*
Y77549D01*
X101502D01*
Y77605D01*
Y77662D01*
X101558D01*
Y77719D01*
Y77775D01*
X101615D01*
Y77832D01*
X101672D01*
Y77888D01*
Y77945D01*
X101728D01*
Y78001D01*
Y78058D01*
X101785D01*
Y78115D01*
X101842D01*
Y78171D01*
Y78228D01*
X101898D01*
Y78285D01*
Y78341D01*
X101955D01*
Y78398D01*
Y78455D01*
X102011D01*
Y78511D01*
X102068D01*
Y78568D01*
Y78624D01*
X102125D01*
Y78681D01*
Y78737D01*
X102181D01*
Y78794D01*
Y78851D01*
X102238D01*
Y78907D01*
X102295D01*
Y78964D01*
Y79021D01*
X102351D01*
Y79077D01*
Y79134D01*
X102408D01*
Y79190D01*
Y79247D01*
X102464D01*
Y79304D01*
X102521D01*
Y79360D01*
Y79417D01*
X102578D01*
Y79474D01*
Y79530D01*
X102634D01*
Y79587D01*
X102691D01*
Y79643D01*
Y79700D01*
X102747D01*
Y79757D01*
Y79813D01*
X102804D01*
Y79870D01*
Y79927D01*
X102861D01*
Y79983D01*
X102917D01*
Y80040D01*
Y80096D01*
X102974D01*
Y80153D01*
Y80209D01*
X103031D01*
Y80266D01*
Y80323D01*
X103087D01*
Y80379D01*
X103144D01*
Y80436D01*
Y80493D01*
X103200D01*
Y80549D01*
Y80606D01*
X103257D01*
Y80663D01*
X103314D01*
Y80719D01*
Y80776D01*
X103370D01*
Y80832D01*
Y80889D01*
X103427D01*
Y80945D01*
Y81002D01*
X103483D01*
Y81059D01*
X103540D01*
Y81115D01*
Y81172D01*
X103597D01*
Y81229D01*
Y81285D01*
X103653D01*
Y81342D01*
Y81398D01*
X103710D01*
Y81455D01*
X103767D01*
Y81512D01*
Y81568D01*
X103823D01*
Y81625D01*
Y81682D01*
X103880D01*
Y81738D01*
Y81795D01*
X103936D01*
Y81851D01*
X103993D01*
Y81908D01*
Y81965D01*
X104050D01*
Y82021D01*
Y82078D01*
X104106D01*
Y82134D01*
X104163D01*
Y82191D01*
Y82248D01*
X104219D01*
Y82304D01*
Y82361D01*
X104276D01*
Y82418D01*
Y82474D01*
X104333D01*
Y82531D01*
X104389D01*
Y82587D01*
Y82644D01*
X104446D01*
Y82701D01*
Y82757D01*
X104502D01*
Y82814D01*
Y82870D01*
X104559D01*
Y82927D01*
X104616D01*
Y82984D01*
Y83040D01*
X104672D01*
Y83097D01*
Y83153D01*
X104729D01*
Y83210D01*
Y83267D01*
X104786D01*
Y83323D01*
X104842D01*
Y83380D01*
Y83437D01*
X104899D01*
Y83493D01*
Y83550D01*
X104955D01*
Y83606D01*
X105012D01*
Y83663D01*
Y83720D01*
X105069D01*
Y83776D01*
Y83833D01*
X105125D01*
Y83890D01*
Y83946D01*
X105182D01*
Y84003D01*
X105238D01*
Y84059D01*
Y84116D01*
X105295D01*
Y84173D01*
Y84229D01*
X105352D01*
Y84286D01*
Y84342D01*
X105408D01*
Y84399D01*
X105465D01*
Y84456D01*
Y84512D01*
X105522D01*
Y84569D01*
Y84626D01*
X105578D01*
Y84682D01*
X105635D01*
Y84739D01*
Y84795D01*
X105691D01*
Y84852D01*
Y84909D01*
X105748D01*
Y84965D01*
Y85022D01*
X105805D01*
Y85078D01*
X105861D01*
Y85135D01*
Y85192D01*
X105918D01*
Y85248D01*
Y85305D01*
X105974D01*
Y85361D01*
Y85418D01*
X106031D01*
Y85475D01*
X106088D01*
Y85531D01*
Y85588D01*
X106144D01*
Y85645D01*
Y85701D01*
X106201D01*
Y85758D01*
Y85814D01*
X106257D01*
Y85871D01*
X106314D01*
Y85928D01*
Y85984D01*
X106371D01*
Y86041D01*
Y86098D01*
X106427D01*
Y86154D01*
X106484D01*
Y86211D01*
Y86267D01*
X106541D01*
Y86324D01*
Y86381D01*
X106597D01*
Y86437D01*
Y86494D01*
X106654D01*
Y86550D01*
X106711D01*
Y86607D01*
Y86664D01*
X106767D01*
Y86720D01*
Y86777D01*
X106824D01*
Y86834D01*
Y86890D01*
X106880D01*
Y86947D01*
X106937D01*
Y87003D01*
Y87060D01*
X106994D01*
Y87117D01*
Y87173D01*
X107050D01*
Y87230D01*
Y87286D01*
X107107D01*
Y87343D01*
X107163D01*
Y87400D01*
Y87456D01*
X107220D01*
Y87513D01*
Y87569D01*
X107277D01*
Y87626D01*
X107333D01*
Y87683D01*
Y87739D01*
X107390D01*
Y87796D01*
Y87853D01*
X107447D01*
Y87909D01*
Y87966D01*
X107503D01*
Y88022D01*
X107560D01*
Y88079D01*
Y88136D01*
X107616D01*
Y88192D01*
Y88249D01*
X107673D01*
Y88305D01*
Y88362D01*
X107729D01*
Y88419D01*
X107786D01*
Y88475D01*
Y88532D01*
X107843D01*
Y88589D01*
Y88645D01*
X107899D01*
Y88702D01*
X107956D01*
Y88758D01*
Y88815D01*
X108013D01*
Y88872D01*
Y88928D01*
X108069D01*
Y88985D01*
Y89042D01*
X108126D01*
Y89098D01*
X108183D01*
Y89155D01*
Y89211D01*
X108239D01*
Y89268D01*
Y89324D01*
X108296D01*
Y89381D01*
Y89438D01*
X108352D01*
Y89494D01*
X108409D01*
Y89551D01*
Y89608D01*
X108466D01*
Y89664D01*
Y89721D01*
X108522D01*
Y89777D01*
Y89834D01*
X108579D01*
Y89891D01*
X108635D01*
Y89947D01*
Y90004D01*
X108692D01*
Y90061D01*
Y90117D01*
X108749D01*
Y90174D01*
X108805D01*
Y90230D01*
Y90287D01*
X108862D01*
Y90344D01*
Y90400D01*
X108918D01*
Y90457D01*
Y90513D01*
X108975D01*
Y90570D01*
X109032D01*
Y90627D01*
Y90683D01*
X109088D01*
Y90740D01*
Y90797D01*
X109145D01*
Y90853D01*
Y90910D01*
X109202D01*
Y90966D01*
X109258D01*
Y91023D01*
Y91080D01*
X109315D01*
Y91136D01*
Y91193D01*
X109371D01*
Y91250D01*
X109428D01*
Y91306D01*
Y91363D01*
X109485D01*
Y91419D01*
X109541D01*
Y91476D01*
X109598D01*
Y91532D01*
X109711D01*
Y91589D01*
X109768D01*
Y91646D01*
X109994D01*
Y91702D01*
X110334D01*
Y91646D01*
D02*
G37*
G36*
X65748Y94882D02*
Y88583D01*
X20544D01*
Y94882D01*
X65748D01*
D02*
G37*
G36*
X43700Y85926D02*
X43236D01*
Y86456D01*
X43700D01*
Y85926D01*
D02*
G37*
G36*
X24006Y86461D02*
X24153Y86434D01*
X24279Y86390D01*
X24388Y86346D01*
X24437Y86319D01*
X24475Y86297D01*
X24513Y86275D01*
X24541Y86253D01*
X24563Y86237D01*
X24579Y86226D01*
X24590Y86221D01*
X24595Y86215D01*
X24699Y86111D01*
X24781Y85997D01*
X24847Y85877D01*
X24901Y85757D01*
X24934Y85653D01*
X24950Y85609D01*
X24961Y85571D01*
X24967Y85538D01*
X24972Y85516D01*
X24978Y85500D01*
Y85495D01*
X24513Y85413D01*
X24492Y85533D01*
X24459Y85637D01*
X24421Y85724D01*
X24382Y85795D01*
X24344Y85849D01*
X24311Y85888D01*
X24290Y85915D01*
X24284Y85920D01*
X24213Y85975D01*
X24137Y86019D01*
X24066Y86046D01*
X23995Y86068D01*
X23929Y86079D01*
X23880Y86090D01*
X23836D01*
X23738Y86084D01*
X23651Y86062D01*
X23574Y86035D01*
X23509Y86008D01*
X23460Y85975D01*
X23421Y85948D01*
X23394Y85926D01*
X23389Y85920D01*
X23329Y85855D01*
X23285Y85784D01*
X23258Y85713D01*
X23236Y85647D01*
X23225Y85587D01*
X23214Y85544D01*
Y85511D01*
Y85505D01*
Y85500D01*
Y85440D01*
X23225Y85385D01*
X23252Y85293D01*
X23290Y85211D01*
X23334Y85140D01*
X23378Y85091D01*
X23416Y85052D01*
X23443Y85030D01*
X23449Y85025D01*
X23454D01*
X23547Y84976D01*
X23634Y84938D01*
X23727Y84910D01*
X23809Y84894D01*
X23880Y84883D01*
X23940Y84872D01*
X24011D01*
X24033Y84878D01*
X24060D01*
X24115Y84468D01*
X24044Y84484D01*
X23978Y84495D01*
X23924Y84506D01*
X23875Y84512D01*
X23836Y84517D01*
X23787D01*
X23673Y84506D01*
X23569Y84484D01*
X23476Y84452D01*
X23400Y84413D01*
X23339Y84375D01*
X23296Y84342D01*
X23268Y84321D01*
X23258Y84310D01*
X23187Y84228D01*
X23132Y84140D01*
X23094Y84053D01*
X23072Y83966D01*
X23056Y83895D01*
X23050Y83835D01*
X23045Y83813D01*
Y83797D01*
Y83785D01*
Y83780D01*
X23056Y83660D01*
X23083Y83551D01*
X23116Y83458D01*
X23159Y83376D01*
X23203Y83311D01*
X23236Y83261D01*
X23263Y83229D01*
X23274Y83218D01*
X23361Y83141D01*
X23454Y83087D01*
X23547Y83048D01*
X23634Y83021D01*
X23711Y83005D01*
X23771Y82999D01*
X23793Y82994D01*
X23825D01*
X23924Y82999D01*
X24017Y83021D01*
X24099Y83048D01*
X24164Y83081D01*
X24219Y83109D01*
X24262Y83136D01*
X24284Y83158D01*
X24295Y83163D01*
X24361Y83240D01*
X24415Y83327D01*
X24464Y83420D01*
X24502Y83518D01*
X24530Y83600D01*
X24541Y83638D01*
X24546Y83671D01*
X24552Y83698D01*
X24557Y83720D01*
X24563Y83731D01*
Y83736D01*
X25027Y83676D01*
X25016Y83589D01*
X24999Y83507D01*
X24950Y83354D01*
X24890Y83223D01*
X24857Y83169D01*
X24825Y83114D01*
X24792Y83065D01*
X24759Y83027D01*
X24732Y82988D01*
X24704Y82961D01*
X24688Y82939D01*
X24672Y82923D01*
X24661Y82912D01*
X24655Y82907D01*
X24590Y82857D01*
X24524Y82808D01*
X24459Y82770D01*
X24388Y82737D01*
X24251Y82683D01*
X24120Y82650D01*
X24060Y82639D01*
X24006Y82628D01*
X23956Y82623D01*
X23913Y82617D01*
X23880Y82612D01*
X23831D01*
X23727Y82617D01*
X23634Y82628D01*
X23541Y82644D01*
X23454Y82666D01*
X23372Y82693D01*
X23301Y82721D01*
X23230Y82754D01*
X23170Y82786D01*
X23110Y82814D01*
X23061Y82846D01*
X23017Y82874D01*
X22985Y82901D01*
X22957Y82923D01*
X22936Y82939D01*
X22925Y82950D01*
X22919Y82956D01*
X22854Y83021D01*
X22799Y83092D01*
X22750Y83163D01*
X22706Y83234D01*
X22673Y83300D01*
X22641Y83371D01*
X22597Y83502D01*
X22586Y83562D01*
X22575Y83616D01*
X22564Y83665D01*
X22559Y83709D01*
X22553Y83742D01*
Y83769D01*
Y83785D01*
Y83791D01*
X22559Y83922D01*
X22581Y84042D01*
X22613Y84146D01*
X22646Y84233D01*
X22679Y84304D01*
X22712Y84359D01*
X22734Y84392D01*
X22739Y84403D01*
X22815Y84484D01*
X22897Y84555D01*
X22985Y84610D01*
X23072Y84654D01*
X23148Y84686D01*
X23209Y84708D01*
X23230Y84714D01*
X23247Y84719D01*
X23258Y84725D01*
X23263D01*
X23170Y84774D01*
X23094Y84823D01*
X23028Y84878D01*
X22974Y84927D01*
X22930Y84970D01*
X22897Y85009D01*
X22881Y85030D01*
X22875Y85041D01*
X22832Y85118D01*
X22799Y85194D01*
X22772Y85271D01*
X22755Y85342D01*
X22744Y85402D01*
X22739Y85445D01*
Y85478D01*
Y85489D01*
X22744Y85582D01*
X22761Y85675D01*
X22783Y85757D01*
X22810Y85828D01*
X22837Y85888D01*
X22859Y85937D01*
X22875Y85964D01*
X22881Y85975D01*
X22936Y86057D01*
X23001Y86128D01*
X23066Y86188D01*
X23132Y86243D01*
X23187Y86281D01*
X23236Y86313D01*
X23268Y86330D01*
X23274Y86335D01*
X23280D01*
X23378Y86379D01*
X23476Y86412D01*
X23574Y86439D01*
X23662Y86456D01*
X23733Y86466D01*
X23793Y86472D01*
X23929D01*
X24006Y86461D01*
D02*
G37*
G36*
X32693Y86466D02*
X32785Y86461D01*
X32873Y86445D01*
X32955Y86428D01*
X33031Y86406D01*
X33102Y86384D01*
X33167Y86357D01*
X33228Y86330D01*
X33282Y86303D01*
X33326Y86275D01*
X33364Y86253D01*
X33397Y86232D01*
X33424Y86215D01*
X33441Y86199D01*
X33451Y86193D01*
X33457Y86188D01*
X33511Y86133D01*
X33561Y86073D01*
X33610Y86008D01*
X33648Y85942D01*
X33713Y85811D01*
X33757Y85680D01*
X33774Y85620D01*
X33790Y85560D01*
X33801Y85511D01*
X33812Y85467D01*
X33817Y85429D01*
Y85402D01*
X33823Y85385D01*
Y85380D01*
X33348Y85331D01*
X33337Y85456D01*
X33315Y85566D01*
X33282Y85664D01*
X33244Y85740D01*
X33211Y85806D01*
X33178Y85849D01*
X33157Y85877D01*
X33146Y85888D01*
X33064Y85953D01*
X32976Y86002D01*
X32884Y86041D01*
X32802Y86062D01*
X32725Y86079D01*
X32660Y86084D01*
X32638Y86090D01*
X32605D01*
X32491Y86084D01*
X32387Y86062D01*
X32299Y86030D01*
X32223Y85997D01*
X32163Y85959D01*
X32125Y85931D01*
X32097Y85909D01*
X32086Y85899D01*
X32021Y85822D01*
X31972Y85746D01*
X31934Y85669D01*
X31912Y85593D01*
X31895Y85533D01*
X31890Y85478D01*
X31884Y85445D01*
Y85440D01*
Y85435D01*
X31895Y85336D01*
X31917Y85232D01*
X31955Y85140D01*
X31994Y85052D01*
X32037Y84981D01*
X32076Y84921D01*
X32086Y84899D01*
X32097Y84883D01*
X32108Y84878D01*
Y84872D01*
X32152Y84812D01*
X32207Y84752D01*
X32267Y84686D01*
X32332Y84621D01*
X32469Y84490D01*
X32605Y84359D01*
X32676Y84299D01*
X32736Y84244D01*
X32796Y84195D01*
X32845Y84151D01*
X32884Y84119D01*
X32916Y84091D01*
X32938Y84075D01*
X32944Y84070D01*
X33080Y83955D01*
X33206Y83846D01*
X33310Y83747D01*
X33391Y83665D01*
X33462Y83594D01*
X33511Y83545D01*
X33539Y83513D01*
X33550Y83507D01*
Y83502D01*
X33626Y83409D01*
X33686Y83321D01*
X33741Y83234D01*
X33784Y83158D01*
X33817Y83092D01*
X33839Y83043D01*
X33850Y83010D01*
X33856Y83005D01*
Y82999D01*
X33877Y82939D01*
X33888Y82885D01*
X33899Y82830D01*
X33905Y82781D01*
X33910Y82737D01*
Y82705D01*
Y82683D01*
Y82677D01*
X31404D01*
Y83125D01*
X33266D01*
X33200Y83218D01*
X33167Y83256D01*
X33140Y83294D01*
X33113Y83327D01*
X33091Y83349D01*
X33075Y83365D01*
X33069Y83371D01*
X33042Y83398D01*
X33009Y83425D01*
X32933Y83496D01*
X32845Y83578D01*
X32753Y83660D01*
X32665Y83731D01*
X32627Y83764D01*
X32594Y83797D01*
X32567Y83818D01*
X32545Y83835D01*
X32534Y83846D01*
X32529Y83851D01*
X32441Y83928D01*
X32354Y83999D01*
X32278Y84070D01*
X32207Y84130D01*
X32141Y84190D01*
X32086Y84244D01*
X32032Y84293D01*
X31988Y84337D01*
X31945Y84381D01*
X31912Y84413D01*
X31884Y84441D01*
X31857Y84468D01*
X31830Y84501D01*
X31819Y84512D01*
X31743Y84605D01*
X31677Y84686D01*
X31622Y84768D01*
X31579Y84834D01*
X31546Y84894D01*
X31524Y84938D01*
X31513Y84965D01*
X31508Y84976D01*
X31475Y85058D01*
X31453Y85140D01*
X31431Y85216D01*
X31420Y85282D01*
X31415Y85342D01*
X31409Y85385D01*
Y85413D01*
Y85424D01*
X31415Y85505D01*
X31426Y85582D01*
X31437Y85658D01*
X31459Y85724D01*
X31513Y85855D01*
X31568Y85959D01*
X31600Y86008D01*
X31628Y86046D01*
X31655Y86084D01*
X31682Y86111D01*
X31704Y86133D01*
X31715Y86155D01*
X31726Y86161D01*
X31732Y86166D01*
X31792Y86221D01*
X31857Y86270D01*
X31928Y86308D01*
X31999Y86341D01*
X32141Y86395D01*
X32283Y86434D01*
X32343Y86445D01*
X32403Y86456D01*
X32458Y86461D01*
X32501Y86466D01*
X32540Y86472D01*
X32594D01*
X32693Y86466D01*
D02*
G37*
G36*
X26818Y86466D02*
X26910Y86461D01*
X26998Y86445D01*
X27080Y86428D01*
X27156Y86406D01*
X27227Y86384D01*
X27293Y86357D01*
X27353Y86330D01*
X27407Y86303D01*
X27451Y86275D01*
X27489Y86253D01*
X27522Y86232D01*
X27549Y86215D01*
X27566Y86199D01*
X27577Y86193D01*
X27582Y86188D01*
X27637Y86133D01*
X27686Y86073D01*
X27735Y86008D01*
X27773Y85942D01*
X27839Y85811D01*
X27882Y85680D01*
X27899Y85620D01*
X27915Y85560D01*
X27926Y85511D01*
X27937Y85467D01*
X27942Y85429D01*
Y85402D01*
X27948Y85385D01*
Y85380D01*
X27473Y85331D01*
X27462Y85456D01*
X27440Y85566D01*
X27407Y85664D01*
X27369Y85740D01*
X27336Y85806D01*
X27303Y85849D01*
X27282Y85877D01*
X27271Y85888D01*
X27189Y85953D01*
X27101Y86002D01*
X27009Y86041D01*
X26927Y86062D01*
X26850Y86079D01*
X26785Y86084D01*
X26763Y86090D01*
X26730D01*
X26616Y86084D01*
X26512Y86062D01*
X26424Y86030D01*
X26348Y85997D01*
X26288Y85959D01*
X26250Y85931D01*
X26222Y85909D01*
X26212Y85899D01*
X26146Y85822D01*
X26097Y85746D01*
X26059Y85669D01*
X26037Y85593D01*
X26020Y85533D01*
X26015Y85478D01*
X26010Y85445D01*
Y85440D01*
Y85435D01*
X26020Y85336D01*
X26042Y85232D01*
X26080Y85140D01*
X26119Y85052D01*
X26162Y84981D01*
X26201Y84921D01*
X26212Y84899D01*
X26222Y84883D01*
X26233Y84878D01*
Y84872D01*
X26277Y84812D01*
X26332Y84752D01*
X26392Y84686D01*
X26457Y84621D01*
X26594Y84490D01*
X26730Y84359D01*
X26801Y84299D01*
X26861Y84244D01*
X26921Y84195D01*
X26970Y84151D01*
X27009Y84119D01*
X27041Y84091D01*
X27063Y84075D01*
X27069Y84070D01*
X27205Y83955D01*
X27331Y83846D01*
X27435Y83747D01*
X27516Y83665D01*
X27587Y83594D01*
X27637Y83545D01*
X27664Y83513D01*
X27675Y83507D01*
Y83502D01*
X27751Y83409D01*
X27811Y83321D01*
X27866Y83234D01*
X27909Y83158D01*
X27942Y83092D01*
X27964Y83043D01*
X27975Y83010D01*
X27981Y83005D01*
Y82999D01*
X28002Y82939D01*
X28013Y82885D01*
X28024Y82830D01*
X28030Y82781D01*
X28035Y82737D01*
Y82705D01*
Y82683D01*
Y82677D01*
X25529D01*
Y83125D01*
X27391D01*
X27325Y83218D01*
X27293Y83256D01*
X27265Y83294D01*
X27238Y83327D01*
X27216Y83349D01*
X27200Y83365D01*
X27194Y83371D01*
X27167Y83398D01*
X27134Y83425D01*
X27058Y83496D01*
X26970Y83578D01*
X26878Y83660D01*
X26790Y83731D01*
X26752Y83764D01*
X26719Y83797D01*
X26692Y83818D01*
X26670Y83835D01*
X26659Y83846D01*
X26654Y83851D01*
X26566Y83928D01*
X26479Y83999D01*
X26403Y84070D01*
X26332Y84130D01*
X26266Y84190D01*
X26212Y84244D01*
X26157Y84293D01*
X26113Y84337D01*
X26070Y84381D01*
X26037Y84413D01*
X26010Y84441D01*
X25982Y84468D01*
X25955Y84501D01*
X25944Y84512D01*
X25868Y84605D01*
X25802Y84686D01*
X25747Y84768D01*
X25704Y84834D01*
X25671Y84894D01*
X25649Y84938D01*
X25638Y84965D01*
X25633Y84976D01*
X25600Y85058D01*
X25578Y85140D01*
X25556Y85216D01*
X25545Y85282D01*
X25540Y85342D01*
X25534Y85385D01*
Y85413D01*
Y85423D01*
X25540Y85505D01*
X25551Y85582D01*
X25562Y85658D01*
X25584Y85724D01*
X25638Y85855D01*
X25693Y85959D01*
X25725Y86008D01*
X25753Y86046D01*
X25780Y86084D01*
X25807Y86111D01*
X25829Y86133D01*
X25840Y86155D01*
X25851Y86161D01*
X25857Y86166D01*
X25917Y86221D01*
X25982Y86270D01*
X26053Y86308D01*
X26124Y86341D01*
X26266Y86395D01*
X26408Y86434D01*
X26468Y86445D01*
X26528Y86456D01*
X26583Y86461D01*
X26626Y86466D01*
X26665Y86472D01*
X26719D01*
X26818Y86466D01*
D02*
G37*
G36*
X39588Y82677D02*
X39124D01*
Y84173D01*
X39119Y84288D01*
X39114Y84386D01*
X39103Y84474D01*
X39086Y84544D01*
X39070Y84599D01*
X39059Y84643D01*
X39053Y84665D01*
X39048Y84676D01*
X39015Y84741D01*
X38977Y84801D01*
X38933Y84850D01*
X38890Y84894D01*
X38851Y84927D01*
X38819Y84948D01*
X38797Y84965D01*
X38791Y84970D01*
X38720Y85009D01*
X38655Y85036D01*
X38589Y85052D01*
X38535Y85069D01*
X38480Y85074D01*
X38442Y85080D01*
X38409D01*
X38311Y85074D01*
X38223Y85052D01*
X38153Y85030D01*
X38092Y84998D01*
X38043Y84970D01*
X38010Y84943D01*
X37989Y84921D01*
X37983Y84916D01*
X37934Y84850D01*
X37896Y84768D01*
X37869Y84686D01*
X37847Y84605D01*
X37836Y84528D01*
X37830Y84468D01*
Y84446D01*
Y84430D01*
Y84419D01*
Y84413D01*
Y82677D01*
X37366D01*
Y84408D01*
X37372Y84550D01*
X37383Y84676D01*
X37399Y84779D01*
X37415Y84867D01*
X37432Y84938D01*
X37448Y84987D01*
X37459Y85014D01*
X37464Y85025D01*
X37508Y85101D01*
X37557Y85167D01*
X37612Y85221D01*
X37661Y85271D01*
X37710Y85309D01*
X37749Y85336D01*
X37776Y85353D01*
X37787Y85358D01*
X37874Y85396D01*
X37961Y85429D01*
X38049Y85451D01*
X38131Y85462D01*
X38202Y85473D01*
X38262Y85478D01*
X38311D01*
X38398Y85473D01*
X38486Y85462D01*
X38568Y85445D01*
X38644Y85418D01*
X38786Y85358D01*
X38846Y85325D01*
X38901Y85293D01*
X38950Y85254D01*
X38999Y85221D01*
X39037Y85189D01*
X39064Y85162D01*
X39092Y85134D01*
X39108Y85118D01*
X39119Y85107D01*
X39124Y85101D01*
Y86456D01*
X39588D01*
Y82677D01*
D02*
G37*
G36*
X41652Y85473D02*
X41772Y85451D01*
X41882Y85418D01*
X41974Y85385D01*
X42051Y85353D01*
X42105Y85320D01*
X42127Y85309D01*
X42144Y85298D01*
X42149Y85293D01*
X42155D01*
X42248Y85221D01*
X42329Y85134D01*
X42400Y85052D01*
X42460Y84970D01*
X42504Y84894D01*
X42537Y84834D01*
X42548Y84812D01*
X42559Y84796D01*
X42564Y84785D01*
Y84779D01*
X42613Y84654D01*
X42646Y84528D01*
X42673Y84408D01*
X42690Y84299D01*
X42701Y84201D01*
Y84162D01*
X42706Y84124D01*
Y84097D01*
Y84075D01*
Y84064D01*
Y84059D01*
X42701Y83955D01*
X42695Y83851D01*
X42657Y83665D01*
X42635Y83578D01*
X42608Y83502D01*
X42581Y83425D01*
X42553Y83360D01*
X42526Y83294D01*
X42499Y83240D01*
X42471Y83196D01*
X42450Y83152D01*
X42428Y83125D01*
X42411Y83098D01*
X42406Y83087D01*
X42400Y83081D01*
X42340Y83010D01*
X42275Y82950D01*
X42204Y82896D01*
X42133Y82846D01*
X42056Y82808D01*
X41985Y82775D01*
X41914Y82748D01*
X41844Y82726D01*
X41778Y82710D01*
X41718Y82699D01*
X41663Y82688D01*
X41614Y82683D01*
X41576D01*
X41549Y82677D01*
X41521D01*
X41439Y82683D01*
X41357Y82694D01*
X41281Y82710D01*
X41210Y82732D01*
X41085Y82792D01*
X40970Y82857D01*
X40926Y82890D01*
X40883Y82923D01*
X40844Y82956D01*
X40817Y82983D01*
X40795Y83005D01*
X40779Y83021D01*
X40768Y83032D01*
X40762Y83038D01*
Y82956D01*
Y82885D01*
X40768Y82814D01*
Y82754D01*
Y82699D01*
X40773Y82650D01*
Y82606D01*
X40779Y82568D01*
X40784Y82513D01*
X40790Y82470D01*
X40795Y82448D01*
Y82442D01*
X40822Y82361D01*
X40861Y82289D01*
X40899Y82229D01*
X40937Y82175D01*
X40975Y82137D01*
X41008Y82104D01*
X41030Y82087D01*
X41035Y82082D01*
X41106Y82038D01*
X41188Y82006D01*
X41270Y81984D01*
X41347Y81967D01*
X41423Y81956D01*
X41478Y81951D01*
X41532D01*
X41636Y81956D01*
X41734Y81973D01*
X41816Y81995D01*
X41882Y82022D01*
X41936Y82044D01*
X41974Y82066D01*
X41996Y82082D01*
X42007Y82087D01*
X42051Y82126D01*
X42084Y82175D01*
X42111Y82224D01*
X42133Y82273D01*
X42144Y82322D01*
X42155Y82361D01*
X42160Y82382D01*
Y82393D01*
X42613Y82453D01*
Y82371D01*
X42602Y82300D01*
X42592Y82229D01*
X42575Y82164D01*
X42526Y82049D01*
X42471Y81956D01*
X42417Y81885D01*
X42373Y81836D01*
X42335Y81804D01*
X42329Y81798D01*
X42324Y81793D01*
X42204Y81716D01*
X42073Y81662D01*
X41942Y81623D01*
X41816Y81596D01*
X41756Y81585D01*
X41701Y81580D01*
X41658Y81574D01*
X41614D01*
X41581Y81569D01*
X41532D01*
X41385Y81574D01*
X41248Y81596D01*
X41128Y81618D01*
X41030Y81651D01*
X40948Y81678D01*
X40915Y81689D01*
X40888Y81705D01*
X40866Y81711D01*
X40850Y81722D01*
X40844Y81727D01*
X40839D01*
X40740Y81787D01*
X40653Y81858D01*
X40582Y81929D01*
X40522Y81995D01*
X40479Y82055D01*
X40451Y82104D01*
X40429Y82137D01*
X40424Y82142D01*
Y82148D01*
X40402Y82202D01*
X40380Y82262D01*
X40364Y82328D01*
X40347Y82399D01*
X40326Y82552D01*
X40309Y82699D01*
X40304Y82770D01*
X40298Y82836D01*
Y82896D01*
X40293Y82945D01*
Y82988D01*
Y83021D01*
Y83043D01*
Y83048D01*
Y85418D01*
X40719D01*
Y85080D01*
X40779Y85150D01*
X40844Y85211D01*
X40910Y85265D01*
X40975Y85309D01*
X41046Y85347D01*
X41112Y85380D01*
X41177Y85407D01*
X41237Y85429D01*
X41298Y85445D01*
X41352Y85456D01*
X41401Y85467D01*
X41439Y85473D01*
X41472Y85478D01*
X41521D01*
X41652Y85473D01*
D02*
G37*
G36*
X47331Y82677D02*
X47353Y82628D01*
X47363Y82590D01*
X47374Y82568D01*
Y82563D01*
X47407Y82470D01*
X47440Y82393D01*
X47462Y82328D01*
X47484Y82284D01*
X47495Y82251D01*
X47506Y82229D01*
X47516Y82218D01*
Y82213D01*
X47560Y82153D01*
X47609Y82109D01*
X47631Y82093D01*
X47647Y82082D01*
X47658Y82071D01*
X47664D01*
X47702Y82055D01*
X47740Y82038D01*
X47822Y82022D01*
X47855D01*
X47882Y82016D01*
X47910D01*
X47997Y82022D01*
X48084Y82038D01*
X48117Y82049D01*
X48144Y82055D01*
X48166Y82060D01*
X48172D01*
X48123Y81629D01*
X48062Y81607D01*
X48008Y81596D01*
X47959Y81585D01*
X47915Y81574D01*
X47877D01*
X47850Y81569D01*
X47828D01*
X47746Y81574D01*
X47675Y81585D01*
X47609Y81602D01*
X47555Y81623D01*
X47506Y81645D01*
X47473Y81662D01*
X47451Y81673D01*
X47445Y81678D01*
X47385Y81722D01*
X47336Y81776D01*
X47287Y81831D01*
X47243Y81885D01*
X47211Y81935D01*
X47183Y81973D01*
X47167Y82000D01*
X47161Y82011D01*
X47145Y82049D01*
X47123Y82087D01*
X47080Y82180D01*
X47036Y82284D01*
X46998Y82388D01*
X46959Y82481D01*
X46943Y82524D01*
X46927Y82563D01*
X46916Y82590D01*
X46905Y82612D01*
X46899Y82628D01*
Y82634D01*
X45857Y85418D01*
X46321D01*
X46910Y83818D01*
X46954Y83704D01*
X46987Y83594D01*
X47025Y83485D01*
X47052Y83392D01*
X47074Y83311D01*
X47085Y83278D01*
X47091Y83250D01*
X47096Y83229D01*
X47101Y83212D01*
X47107Y83201D01*
Y83196D01*
X47140Y83321D01*
X47172Y83436D01*
X47205Y83545D01*
X47238Y83638D01*
X47265Y83715D01*
X47276Y83747D01*
X47287Y83775D01*
X47293Y83802D01*
X47298Y83818D01*
X47304Y83824D01*
Y83829D01*
X47877Y85418D01*
X48368D01*
X47331Y82677D01*
D02*
G37*
G36*
X36575Y86095D02*
Y85418D01*
X36919D01*
Y85058D01*
X36575D01*
Y83474D01*
Y83398D01*
Y83332D01*
X36569Y83272D01*
X36564Y83212D01*
Y83163D01*
X36558Y83119D01*
X36547Y83048D01*
X36536Y82994D01*
X36531Y82956D01*
X36520Y82934D01*
Y82928D01*
X36498Y82879D01*
X36465Y82841D01*
X36433Y82803D01*
X36405Y82775D01*
X36373Y82748D01*
X36351Y82732D01*
X36334Y82721D01*
X36329Y82715D01*
X36269Y82688D01*
X36209Y82672D01*
X36143Y82655D01*
X36078Y82650D01*
X36023Y82644D01*
X35979Y82639D01*
X35936D01*
X35816Y82644D01*
X35756Y82650D01*
X35701Y82661D01*
X35652Y82666D01*
X35614Y82672D01*
X35592Y82677D01*
X35581D01*
X35641Y83087D01*
X35685Y83081D01*
X35728Y83076D01*
X35767D01*
X35794Y83070D01*
X35848D01*
X35919Y83076D01*
X35969Y83087D01*
X35996Y83098D01*
X36007Y83103D01*
X36045Y83130D01*
X36067Y83158D01*
X36083Y83179D01*
X36089Y83190D01*
X36094Y83218D01*
X36099Y83256D01*
X36105Y83343D01*
X36110Y83381D01*
Y83414D01*
Y83436D01*
Y83447D01*
Y85058D01*
X35641D01*
Y85418D01*
X36110D01*
Y86374D01*
X36575Y86095D01*
D02*
G37*
G36*
X56274Y86510D02*
X56449Y86483D01*
X56602Y86450D01*
X56673Y86428D01*
X56738Y86406D01*
X56798Y86384D01*
X56853Y86363D01*
X56897Y86346D01*
X56940Y86330D01*
X56968Y86313D01*
X56990Y86303D01*
X57006Y86297D01*
X57011Y86292D01*
X57159Y86199D01*
X57284Y86090D01*
X57393Y85980D01*
X57486Y85871D01*
X57557Y85773D01*
X57585Y85729D01*
X57607Y85691D01*
X57628Y85664D01*
X57639Y85642D01*
X57645Y85626D01*
X57650Y85620D01*
X57727Y85451D01*
X57781Y85276D01*
X57819Y85101D01*
X57847Y84943D01*
X57858Y84872D01*
X57863Y84801D01*
X57869Y84746D01*
Y84692D01*
X57874Y84654D01*
Y84621D01*
Y84599D01*
Y84594D01*
X57863Y84397D01*
X57841Y84206D01*
X57814Y84037D01*
X57792Y83955D01*
X57776Y83884D01*
X57759Y83818D01*
X57737Y83758D01*
X57721Y83704D01*
X57710Y83660D01*
X57694Y83627D01*
X57688Y83600D01*
X57678Y83583D01*
Y83578D01*
X57596Y83414D01*
X57503Y83267D01*
X57405Y83141D01*
X57355Y83092D01*
X57312Y83043D01*
X57268Y82999D01*
X57224Y82961D01*
X57186Y82928D01*
X57153Y82907D01*
X57131Y82885D01*
X57110Y82868D01*
X57099Y82863D01*
X57093Y82857D01*
X57017Y82814D01*
X56940Y82775D01*
X56777Y82715D01*
X56613Y82672D01*
X56454Y82644D01*
X56378Y82634D01*
X56313Y82623D01*
X56252Y82617D01*
X56203D01*
X56160Y82612D01*
X56099D01*
X55990Y82617D01*
X55887Y82628D01*
X55788Y82639D01*
X55695Y82661D01*
X55608Y82688D01*
X55526Y82715D01*
X55450Y82743D01*
X55379Y82775D01*
X55319Y82803D01*
X55259Y82830D01*
X55215Y82857D01*
X55171Y82885D01*
X55144Y82907D01*
X55117Y82917D01*
X55106Y82928D01*
X55100Y82934D01*
X55024Y82999D01*
X54958Y83065D01*
X54898Y83141D01*
X54838Y83218D01*
X54740Y83371D01*
X54663Y83523D01*
X54631Y83594D01*
X54603Y83660D01*
X54582Y83720D01*
X54565Y83769D01*
X54549Y83813D01*
X54538Y83846D01*
X54532Y83867D01*
Y83873D01*
X55035Y83999D01*
X55057Y83911D01*
X55084Y83829D01*
X55111Y83753D01*
X55139Y83682D01*
X55171Y83616D01*
X55204Y83562D01*
X55242Y83507D01*
X55275Y83458D01*
X55302Y83414D01*
X55335Y83381D01*
X55362Y83349D01*
X55384Y83321D01*
X55406Y83305D01*
X55423Y83289D01*
X55428Y83283D01*
X55433Y83278D01*
X55488Y83234D01*
X55548Y83201D01*
X55668Y83141D01*
X55783Y83098D01*
X55897Y83070D01*
X55996Y83048D01*
X56034Y83043D01*
X56072D01*
X56105Y83038D01*
X56143D01*
X56269Y83043D01*
X56389Y83065D01*
X56498Y83092D01*
X56596Y83125D01*
X56673Y83158D01*
X56706Y83174D01*
X56733Y83185D01*
X56755Y83196D01*
X56771Y83207D01*
X56782Y83212D01*
X56788D01*
X56891Y83289D01*
X56979Y83371D01*
X57055Y83463D01*
X57115Y83551D01*
X57164Y83627D01*
X57197Y83693D01*
X57208Y83720D01*
X57219Y83736D01*
X57224Y83747D01*
Y83753D01*
X57268Y83895D01*
X57301Y84037D01*
X57328Y84179D01*
X57344Y84310D01*
X57350Y84370D01*
X57355Y84424D01*
Y84474D01*
X57361Y84512D01*
Y84544D01*
Y84572D01*
Y84588D01*
Y84594D01*
X57355Y84736D01*
X57344Y84867D01*
X57323Y84987D01*
X57301Y85096D01*
X57284Y85189D01*
X57273Y85227D01*
X57262Y85260D01*
X57257Y85287D01*
X57252Y85303D01*
X57246Y85314D01*
Y85320D01*
X57191Y85445D01*
X57131Y85560D01*
X57066Y85653D01*
X56995Y85735D01*
X56935Y85800D01*
X56886Y85844D01*
X56848Y85871D01*
X56842Y85882D01*
X56837D01*
X56722Y85953D01*
X56596Y86008D01*
X56476Y86046D01*
X56362Y86068D01*
X56258Y86084D01*
X56214Y86090D01*
X56176D01*
X56149Y86095D01*
X56105D01*
X55968Y86090D01*
X55843Y86068D01*
X55739Y86035D01*
X55646Y86002D01*
X55575Y85964D01*
X55521Y85937D01*
X55488Y85915D01*
X55477Y85904D01*
X55390Y85822D01*
X55308Y85729D01*
X55242Y85631D01*
X55188Y85533D01*
X55144Y85445D01*
X55128Y85402D01*
X55117Y85369D01*
X55106Y85342D01*
X55095Y85320D01*
X55089Y85309D01*
Y85303D01*
X54598Y85418D01*
X54631Y85516D01*
X54663Y85604D01*
X54707Y85686D01*
X54745Y85768D01*
X54789Y85839D01*
X54838Y85904D01*
X54882Y85970D01*
X54926Y86024D01*
X54969Y86068D01*
X55007Y86111D01*
X55046Y86150D01*
X55073Y86177D01*
X55100Y86204D01*
X55122Y86221D01*
X55133Y86226D01*
X55139Y86232D01*
X55215Y86281D01*
X55291Y86330D01*
X55368Y86368D01*
X55450Y86401D01*
X55614Y86450D01*
X55761Y86483D01*
X55832Y86499D01*
X55892Y86505D01*
X55952Y86510D01*
X56001Y86515D01*
X56040Y86521D01*
X56094D01*
X56274Y86510D01*
D02*
G37*
G36*
X44513Y85473D02*
X44568Y85462D01*
X44623Y85445D01*
X44666Y85429D01*
X44699Y85413D01*
X44732Y85396D01*
X44748Y85385D01*
X44754Y85380D01*
X44803Y85336D01*
X44852Y85282D01*
X44901Y85216D01*
X44945Y85156D01*
X44988Y85096D01*
X45016Y85047D01*
X45038Y85009D01*
X45043Y85003D01*
Y85418D01*
X45463D01*
Y82677D01*
X44999D01*
Y84108D01*
X44994Y84217D01*
X44988Y84315D01*
X44978Y84408D01*
X44961Y84490D01*
X44945Y84555D01*
X44934Y84605D01*
X44928Y84637D01*
X44923Y84648D01*
X44901Y84708D01*
X44874Y84757D01*
X44846Y84801D01*
X44819Y84839D01*
X44792Y84867D01*
X44776Y84888D01*
X44759Y84899D01*
X44754Y84905D01*
X44710Y84938D01*
X44661Y84960D01*
X44612Y84976D01*
X44574Y84987D01*
X44535Y84992D01*
X44508Y84998D01*
X44481D01*
X44421Y84992D01*
X44361Y84981D01*
X44300Y84965D01*
X44251Y84948D01*
X44208Y84932D01*
X44175Y84916D01*
X44153Y84905D01*
X44148Y84899D01*
X43978Y85325D01*
X44071Y85374D01*
X44159Y85413D01*
X44235Y85440D01*
X44306Y85462D01*
X44366Y85473D01*
X44415Y85478D01*
X44453D01*
X44513Y85473D01*
D02*
G37*
G36*
X43700Y82677D02*
X43236D01*
Y85418D01*
X43700D01*
Y82677D01*
D02*
G37*
G36*
X52960Y85473D02*
X53047Y85467D01*
X53217Y85429D01*
X53364Y85380D01*
X53430Y85353D01*
X53490Y85325D01*
X53544Y85298D01*
X53588Y85271D01*
X53632Y85243D01*
X53664Y85221D01*
X53692Y85200D01*
X53714Y85183D01*
X53724Y85178D01*
X53730Y85172D01*
X53806Y85101D01*
X53866Y85019D01*
X53926Y84932D01*
X53970Y84845D01*
X54014Y84752D01*
X54047Y84654D01*
X54074Y84561D01*
X54096Y84474D01*
X54118Y84386D01*
X54128Y84310D01*
X54139Y84233D01*
X54145Y84173D01*
Y84119D01*
X54150Y84080D01*
Y84059D01*
Y84048D01*
X54145Y83922D01*
X54134Y83802D01*
X54118Y83693D01*
X54096Y83589D01*
X54068Y83496D01*
X54041Y83409D01*
X54008Y83327D01*
X53976Y83256D01*
X53943Y83190D01*
X53910Y83136D01*
X53883Y83092D01*
X53856Y83054D01*
X53834Y83021D01*
X53817Y82999D01*
X53806Y82988D01*
X53801Y82983D01*
X53730Y82917D01*
X53659Y82863D01*
X53583Y82814D01*
X53506Y82770D01*
X53430Y82737D01*
X53348Y82705D01*
X53200Y82661D01*
X53135Y82650D01*
X53069Y82639D01*
X53015Y82628D01*
X52965Y82623D01*
X52922Y82617D01*
X52867D01*
X52736Y82623D01*
X52616Y82644D01*
X52501Y82672D01*
X52409Y82699D01*
X52327Y82732D01*
X52294Y82743D01*
X52267Y82754D01*
X52239Y82765D01*
X52223Y82775D01*
X52218Y82781D01*
X52212D01*
X52103Y82852D01*
X52010Y82928D01*
X51928Y83005D01*
X51863Y83081D01*
X51813Y83147D01*
X51775Y83201D01*
X51764Y83223D01*
X51753Y83240D01*
X51748Y83245D01*
Y83250D01*
X51693Y83376D01*
X51655Y83513D01*
X51622Y83649D01*
X51606Y83786D01*
X51595Y83846D01*
Y83900D01*
X51590Y83955D01*
X51584Y83999D01*
Y84037D01*
Y84064D01*
Y84080D01*
Y84086D01*
X51590Y84206D01*
X51600Y84315D01*
X51617Y84419D01*
X51639Y84517D01*
X51666Y84610D01*
X51699Y84692D01*
X51731Y84774D01*
X51764Y84839D01*
X51797Y84899D01*
X51830Y84954D01*
X51863Y85003D01*
X51890Y85041D01*
X51912Y85069D01*
X51928Y85091D01*
X51939Y85101D01*
X51945Y85107D01*
X52015Y85172D01*
X52086Y85227D01*
X52163Y85282D01*
X52239Y85320D01*
X52316Y85358D01*
X52392Y85385D01*
X52540Y85435D01*
X52611Y85445D01*
X52671Y85456D01*
X52725Y85467D01*
X52774Y85473D01*
X52813Y85478D01*
X52867D01*
X52960Y85473D01*
D02*
G37*
G36*
X29820Y86461D02*
X29957Y86439D01*
X30072Y86401D01*
X30170Y86363D01*
X30252Y86319D01*
X30285Y86303D01*
X30312Y86281D01*
X30334Y86270D01*
X30350Y86259D01*
X30356Y86248D01*
X30361D01*
X30459Y86161D01*
X30541Y86057D01*
X30612Y85953D01*
X30667Y85855D01*
X30711Y85762D01*
X30732Y85724D01*
X30743Y85686D01*
X30754Y85658D01*
X30765Y85637D01*
X30771Y85626D01*
Y85620D01*
X30792Y85538D01*
X30814Y85456D01*
X30847Y85276D01*
X30874Y85096D01*
X30891Y84927D01*
X30896Y84845D01*
X30902Y84774D01*
Y84708D01*
X30907Y84648D01*
Y84605D01*
Y84566D01*
Y84544D01*
Y84539D01*
X30902Y84348D01*
X30891Y84168D01*
X30874Y84004D01*
X30847Y83851D01*
X30820Y83709D01*
X30787Y83583D01*
X30754Y83469D01*
X30721Y83371D01*
X30689Y83283D01*
X30650Y83207D01*
X30623Y83141D01*
X30596Y83092D01*
X30569Y83048D01*
X30552Y83021D01*
X30541Y83005D01*
X30536Y82999D01*
X30476Y82934D01*
X30410Y82874D01*
X30339Y82819D01*
X30268Y82775D01*
X30197Y82737D01*
X30126Y82705D01*
X30055Y82683D01*
X29990Y82661D01*
X29924Y82644D01*
X29864Y82634D01*
X29810Y82623D01*
X29766Y82617D01*
X29728Y82612D01*
X29673D01*
X29526Y82623D01*
X29389Y82644D01*
X29274Y82683D01*
X29176Y82721D01*
X29094Y82759D01*
X29067Y82781D01*
X29040Y82797D01*
X29018Y82808D01*
X29002Y82819D01*
X28996Y82830D01*
X28991D01*
X28892Y82923D01*
X28810Y83021D01*
X28740Y83130D01*
X28685Y83229D01*
X28641Y83321D01*
X28619Y83360D01*
X28608Y83398D01*
X28598Y83425D01*
X28587Y83447D01*
X28581Y83458D01*
Y83463D01*
X28554Y83545D01*
X28532Y83627D01*
X28499Y83802D01*
X28472Y83982D01*
X28455Y84157D01*
X28450Y84233D01*
X28445Y84304D01*
Y84370D01*
X28439Y84430D01*
Y84474D01*
Y84512D01*
Y84534D01*
Y84539D01*
Y84643D01*
X28445Y84741D01*
Y84828D01*
X28450Y84916D01*
X28461Y84992D01*
X28466Y85069D01*
X28472Y85134D01*
X28483Y85194D01*
X28488Y85249D01*
X28499Y85298D01*
X28505Y85336D01*
X28510Y85369D01*
X28516Y85396D01*
X28521Y85413D01*
X28526Y85423D01*
Y85429D01*
X28559Y85549D01*
X28598Y85658D01*
X28641Y85751D01*
X28674Y85833D01*
X28712Y85904D01*
X28734Y85953D01*
X28756Y85980D01*
X28761Y85991D01*
X28821Y86073D01*
X28881Y86144D01*
X28947Y86204D01*
X29007Y86259D01*
X29062Y86297D01*
X29105Y86324D01*
X29133Y86341D01*
X29138Y86346D01*
X29144D01*
X29231Y86390D01*
X29324Y86417D01*
X29411Y86439D01*
X29493Y86456D01*
X29564Y86466D01*
X29624Y86472D01*
X29673D01*
X29820Y86461D01*
D02*
G37*
G36*
X49924Y85473D02*
X50012Y85462D01*
X50088Y85445D01*
X50154Y85424D01*
X50208Y85402D01*
X50252Y85385D01*
X50274Y85374D01*
X50285Y85369D01*
X50350Y85325D01*
X50416Y85276D01*
X50470Y85227D01*
X50519Y85172D01*
X50563Y85129D01*
X50590Y85091D01*
X50612Y85069D01*
X50618Y85058D01*
Y85418D01*
X51038D01*
Y81629D01*
X50574D01*
Y82961D01*
X50530Y82907D01*
X50481Y82857D01*
X50427Y82814D01*
X50383Y82781D01*
X50339Y82748D01*
X50306Y82726D01*
X50279Y82715D01*
X50274Y82710D01*
X50203Y82677D01*
X50132Y82655D01*
X50061Y82639D01*
X49995Y82628D01*
X49941Y82623D01*
X49897Y82617D01*
X49859D01*
X49744Y82623D01*
X49629Y82644D01*
X49531Y82672D01*
X49438Y82705D01*
X49362Y82737D01*
X49307Y82765D01*
X49285Y82775D01*
X49269Y82786D01*
X49264Y82792D01*
X49258D01*
X49154Y82868D01*
X49067Y82950D01*
X48991Y83032D01*
X48930Y83114D01*
X48881Y83190D01*
X48843Y83250D01*
X48832Y83272D01*
X48821Y83289D01*
X48816Y83300D01*
Y83305D01*
X48767Y83436D01*
X48728Y83567D01*
X48701Y83693D01*
X48679Y83813D01*
X48669Y83911D01*
Y83955D01*
X48663Y83993D01*
Y84026D01*
Y84048D01*
Y84059D01*
Y84064D01*
X48669Y84206D01*
X48685Y84342D01*
X48707Y84463D01*
X48734Y84572D01*
X48761Y84659D01*
X48772Y84697D01*
X48783Y84730D01*
X48794Y84752D01*
X48799Y84768D01*
X48805Y84779D01*
Y84785D01*
X48860Y84899D01*
X48925Y85003D01*
X48991Y85091D01*
X49056Y85162D01*
X49116Y85216D01*
X49165Y85260D01*
X49198Y85282D01*
X49204Y85293D01*
X49209D01*
X49313Y85353D01*
X49417Y85402D01*
X49520Y85435D01*
X49619Y85456D01*
X49700Y85467D01*
X49739Y85473D01*
X49766Y85478D01*
X49826D01*
X49924Y85473D01*
D02*
G37*
G36*
X77785Y89829D02*
X77896Y89755D01*
X78007Y89718D01*
X78044Y89681D01*
X78155Y89607D01*
X78192Y89570D01*
X78229D01*
X78859Y89163D01*
X79488Y88718D01*
X80044Y88237D01*
X80562Y87792D01*
X81006Y87385D01*
X81340Y87052D01*
X81562Y86830D01*
X81599Y86793D01*
X81636Y86756D01*
X82265Y86089D01*
X82821Y85460D01*
X83302Y84904D01*
X83746Y84386D01*
X84080Y83941D01*
X84302Y83645D01*
X84487Y83423D01*
X84524Y83386D01*
Y83349D01*
X84709Y83053D01*
X84894Y82830D01*
X85154Y82423D01*
X85376Y82127D01*
X85487Y81942D01*
X85561Y81794D01*
X85598Y81757D01*
X85635Y81719D01*
Y81757D01*
X85672Y81831D01*
X85783Y82053D01*
X85894Y82238D01*
X85931Y82312D01*
Y82349D01*
X86153Y82830D01*
X86376Y83238D01*
X86487Y83423D01*
X86561Y83571D01*
X86598Y83645D01*
X86635Y83682D01*
X86857Y83904D01*
X87042Y84052D01*
X87190Y84127D01*
X87264Y84163D01*
X87450Y84201D01*
X87635Y84163D01*
X87783Y84089D01*
X87968Y84015D01*
X88116Y83904D01*
X88227Y83793D01*
X88301Y83756D01*
X88338Y83719D01*
X88560Y83534D01*
X88709Y83386D01*
X88820Y83275D01*
X88894Y83201D01*
X88968Y83127D01*
X88820D01*
X88671Y83053D01*
X88523Y82978D01*
X88375Y82830D01*
X88116Y82497D01*
X87820Y82090D01*
X87598Y81719D01*
X87413Y81349D01*
X87338Y81201D01*
X87301Y81127D01*
X87264Y81053D01*
Y81016D01*
X87079Y80646D01*
X86931Y80312D01*
X86820Y80016D01*
X86709Y79757D01*
X86598Y79535D01*
X86524Y79350D01*
X86413Y79090D01*
X86339Y78942D01*
X86302Y78868D01*
Y78831D01*
X84524Y80201D01*
X84302Y80720D01*
X84043Y81275D01*
X83746Y81794D01*
X83450Y82312D01*
X83154Y82756D01*
X82932Y83127D01*
X82821Y83275D01*
X82784Y83386D01*
X82710Y83423D01*
Y83460D01*
X82191Y84201D01*
X81673Y84904D01*
X81154Y85534D01*
X80673Y86089D01*
X80266Y86533D01*
X79969Y86904D01*
X79747Y87126D01*
X79673Y87163D01*
Y87200D01*
X79155Y87792D01*
X78896Y88052D01*
X78673Y88274D01*
X78488Y88496D01*
X78340Y88644D01*
X78229Y88718D01*
X78192Y88755D01*
X77933Y89014D01*
X77711Y89200D01*
X77562Y89311D01*
X77488Y89422D01*
X77414Y89459D01*
X77377Y89496D01*
Y89533D01*
X77414Y89570D01*
X77451Y89607D01*
X77488Y89644D01*
X77562Y89755D01*
X77600Y89829D01*
X77636Y89866D01*
X77785Y89829D01*
D02*
G37*
G36*
X83413Y74758D02*
X83006D01*
Y76720D01*
X80673D01*
Y74758D01*
X80303D01*
Y78868D01*
X80673D01*
Y77091D01*
X83006D01*
Y78868D01*
X83413D01*
Y74758D01*
D02*
G37*
G36*
X90301D02*
X89894D01*
Y76572D01*
X88375D01*
X88190Y76535D01*
X88116Y76498D01*
X88079Y76461D01*
X87968Y76276D01*
X87894Y76017D01*
X87857Y75795D01*
Y75758D01*
Y75721D01*
X87820Y75202D01*
Y75091D01*
Y75054D01*
X87783Y74980D01*
Y74943D01*
X87746Y74869D01*
Y74795D01*
Y74758D01*
X87301D01*
Y74795D01*
X87338Y74832D01*
X87375Y74906D01*
X87413Y74943D01*
Y74980D01*
Y75017D01*
X87450Y75054D01*
Y75165D01*
Y75202D01*
X87524Y75832D01*
X87561Y76165D01*
X87598Y76387D01*
X87635Y76498D01*
Y76535D01*
X87857Y76720D01*
X87968Y76758D01*
X88005D01*
X87820Y76869D01*
X87672Y76980D01*
X87561Y77091D01*
X87524Y77128D01*
X87413Y77350D01*
X87375Y77572D01*
X87338Y77720D01*
Y77794D01*
X87375Y78017D01*
X87413Y78165D01*
X87450Y78276D01*
X87486Y78313D01*
X87598Y78498D01*
X87709Y78609D01*
X87820Y78646D01*
X87857Y78683D01*
X87968Y78757D01*
X88079Y78794D01*
X88190Y78831D01*
X88227D01*
X88375Y78868D01*
X90301D01*
Y74758D01*
D02*
G37*
G36*
X85857Y77720D02*
X86190Y77609D01*
X86376Y77461D01*
X86450Y77424D01*
Y77387D01*
X86672Y77054D01*
X86783Y76646D01*
Y76498D01*
X86820Y76350D01*
Y76276D01*
Y76239D01*
Y75980D01*
X86746Y75721D01*
X86709Y75536D01*
X86635Y75387D01*
X86524Y75165D01*
X86450Y75091D01*
X86302Y74943D01*
X86153Y74869D01*
X85820Y74721D01*
X85672D01*
X85561Y74684D01*
X85450D01*
X85228Y74721D01*
X85043Y74758D01*
X84709Y74906D01*
X84524Y75017D01*
X84450Y75091D01*
X84228Y75462D01*
X84117Y75832D01*
X84080Y75980D01*
Y76128D01*
Y76202D01*
Y76239D01*
X84154Y76720D01*
X84265Y77091D01*
X84339Y77202D01*
X84376Y77313D01*
X84450Y77350D01*
Y77387D01*
X84598Y77535D01*
X84746Y77609D01*
X85080Y77757D01*
X85228D01*
X85339Y77794D01*
X85672D01*
X85857Y77720D01*
D02*
G37*
G36*
X78525Y78942D02*
X78859Y78831D01*
X79044Y78720D01*
X79081Y78683D01*
X79118D01*
X79340Y78424D01*
X79451Y78165D01*
X79488Y77943D01*
Y77905D01*
Y77868D01*
X79451Y77572D01*
X79377Y77350D01*
X79303Y77202D01*
X79266Y77165D01*
X79155Y77091D01*
X79044Y76980D01*
X78747Y76869D01*
X78488Y76794D01*
X78414Y76758D01*
X78377D01*
X77970Y76646D01*
X77600Y76535D01*
X77377Y76424D01*
X77229Y76350D01*
X77192Y76313D01*
X77081Y76165D01*
X77044Y75980D01*
X77007Y75869D01*
Y75795D01*
X77044Y75536D01*
X77155Y75350D01*
X77266Y75239D01*
X77303Y75202D01*
X77562Y75091D01*
X77785Y75017D01*
X77970Y74980D01*
X78044D01*
X78377Y75017D01*
X78673Y75128D01*
X78821Y75202D01*
X78896Y75239D01*
X79081Y75498D01*
X79155Y75758D01*
X79192Y75943D01*
Y75980D01*
Y76017D01*
X79562D01*
Y75980D01*
X79488Y75536D01*
X79377Y75239D01*
X79266Y75091D01*
X79192Y75017D01*
X78821Y74795D01*
X78451Y74684D01*
X78303D01*
X78155Y74647D01*
X78044D01*
X77600Y74684D01*
X77266Y74832D01*
X77081Y74943D01*
X77007Y74980D01*
X76785Y75239D01*
X76674Y75498D01*
X76637Y75721D01*
Y75795D01*
Y75832D01*
X76674Y76128D01*
X76785Y76350D01*
X76896Y76498D01*
X76933Y76572D01*
X77044Y76683D01*
X77229Y76758D01*
X77526Y76906D01*
X77711Y76943D01*
X77822Y76980D01*
X77896Y77017D01*
X77933D01*
X78414Y77165D01*
X78636Y77239D01*
X78785Y77313D01*
X78896Y77350D01*
X78933Y77387D01*
X79007Y77535D01*
X79044Y77683D01*
X79081Y77794D01*
Y77831D01*
X79044Y78091D01*
X78933Y78313D01*
X78859Y78424D01*
X78821Y78461D01*
X78636Y78572D01*
X78414Y78609D01*
X78229Y78646D01*
X78155D01*
X77822Y78609D01*
X77600Y78535D01*
X77451Y78424D01*
X77414Y78387D01*
X77229Y78165D01*
X77155Y77943D01*
X77118Y77794D01*
Y77757D01*
Y77720D01*
X76748D01*
X76822Y78128D01*
X76933Y78424D01*
X77044Y78572D01*
X77118Y78646D01*
X77451Y78831D01*
X77785Y78942D01*
X77933Y78979D01*
X78155D01*
X78525Y78942D01*
D02*
G37*
G36*
X10976Y34012D02*
X11004Y33972D01*
X11037Y33931D01*
X11068Y33895D01*
X11099Y33865D01*
X11121Y33839D01*
X11132Y33831D01*
X11139Y33824D01*
X11142Y33821D01*
X11144Y33819D01*
X11198Y33775D01*
X11252Y33734D01*
X11303Y33699D01*
X11354Y33671D01*
X11397Y33645D01*
X11415Y33635D01*
X11430Y33627D01*
X11443Y33620D01*
X11453Y33617D01*
X11458Y33612D01*
X11461D01*
Y33403D01*
X11422Y33418D01*
X11384Y33436D01*
X11346Y33454D01*
X11310Y33472D01*
X11280Y33487D01*
X11254Y33500D01*
X11239Y33510D01*
X11236Y33513D01*
X11234D01*
X11188Y33541D01*
X11147Y33569D01*
X11111Y33594D01*
X11083Y33617D01*
X11058Y33635D01*
X11042Y33650D01*
X11030Y33661D01*
X11027Y33663D01*
Y32283D01*
X10810D01*
Y34056D01*
X10951D01*
X10976Y34012D01*
D02*
G37*
G36*
X9681Y34053D02*
X9729Y34048D01*
X9775Y34038D01*
X9818Y34025D01*
X9857Y34007D01*
X9895Y33992D01*
X9928Y33972D01*
X9959Y33954D01*
X9984Y33936D01*
X10010Y33915D01*
X10030Y33900D01*
X10045Y33885D01*
X10058Y33870D01*
X10068Y33859D01*
X10073Y33854D01*
X10076Y33852D01*
X10109Y33806D01*
X10137Y33752D01*
X10163Y33696D01*
X10186Y33637D01*
X10203Y33576D01*
X10219Y33515D01*
X10232Y33451D01*
X10242Y33393D01*
X10249Y33334D01*
X10254Y33281D01*
X10260Y33232D01*
X10262Y33191D01*
Y33156D01*
X10265Y33130D01*
Y33120D01*
Y33112D01*
Y33110D01*
Y33107D01*
X10262Y33026D01*
X10257Y32949D01*
X10249Y32878D01*
X10237Y32811D01*
X10224Y32753D01*
X10211Y32699D01*
X10196Y32651D01*
X10178Y32607D01*
X10163Y32572D01*
X10147Y32539D01*
X10135Y32513D01*
X10119Y32490D01*
X10109Y32472D01*
X10101Y32462D01*
X10096Y32454D01*
X10094Y32452D01*
X10061Y32416D01*
X10025Y32386D01*
X9989Y32360D01*
X9954Y32337D01*
X9915Y32317D01*
X9880Y32301D01*
X9844Y32289D01*
X9808Y32278D01*
X9778Y32271D01*
X9747Y32263D01*
X9721Y32258D01*
X9698Y32255D01*
X9678D01*
X9665Y32253D01*
X9653D01*
X9594Y32255D01*
X9540Y32266D01*
X9492Y32276D01*
X9449Y32291D01*
X9415Y32304D01*
X9390Y32317D01*
X9380Y32319D01*
X9372Y32324D01*
X9370Y32327D01*
X9367D01*
X9324Y32357D01*
X9283Y32393D01*
X9250Y32429D01*
X9222Y32465D01*
X9199Y32498D01*
X9183Y32523D01*
X9178Y32533D01*
X9173Y32541D01*
X9171Y32544D01*
Y32546D01*
X9145Y32600D01*
X9127Y32656D01*
X9115Y32707D01*
X9107Y32755D01*
X9099Y32796D01*
Y32811D01*
X9097Y32827D01*
Y32839D01*
Y32847D01*
Y32852D01*
Y32855D01*
X9099Y32901D01*
X9104Y32944D01*
X9112Y32987D01*
X9120Y33026D01*
X9132Y33061D01*
X9145Y33097D01*
X9158Y33127D01*
X9173Y33156D01*
X9189Y33181D01*
X9201Y33204D01*
X9214Y33222D01*
X9227Y33240D01*
X9234Y33253D01*
X9242Y33260D01*
X9247Y33265D01*
X9250Y33268D01*
X9278Y33296D01*
X9308Y33321D01*
X9341Y33342D01*
X9372Y33360D01*
X9403Y33377D01*
X9433Y33390D01*
X9492Y33408D01*
X9517Y33416D01*
X9543Y33421D01*
X9563Y33423D01*
X9584Y33426D01*
X9599Y33428D01*
X9619D01*
X9665Y33426D01*
X9709Y33418D01*
X9749Y33411D01*
X9785Y33400D01*
X9816Y33388D01*
X9839Y33380D01*
X9854Y33372D01*
X9857Y33370D01*
X9859D01*
X9900Y33344D01*
X9936Y33316D01*
X9969Y33288D01*
X9994Y33258D01*
X10017Y33232D01*
X10035Y33212D01*
X10045Y33196D01*
X10048Y33194D01*
Y33240D01*
X10045Y33286D01*
X10043Y33326D01*
X10038Y33367D01*
X10035Y33403D01*
X10030Y33436D01*
X10025Y33467D01*
X10017Y33495D01*
X10012Y33520D01*
X10007Y33541D01*
X10002Y33558D01*
X9999Y33574D01*
X9994Y33584D01*
X9992Y33592D01*
X9989Y33597D01*
Y33599D01*
X9964Y33650D01*
X9938Y33696D01*
X9910Y33732D01*
X9885Y33762D01*
X9862Y33788D01*
X9844Y33806D01*
X9831Y33816D01*
X9826Y33819D01*
X9795Y33839D01*
X9765Y33852D01*
X9734Y33862D01*
X9704Y33870D01*
X9681Y33875D01*
X9660Y33877D01*
X9642D01*
X9596Y33872D01*
X9553Y33862D01*
X9517Y33847D01*
X9484Y33831D01*
X9459Y33814D01*
X9441Y33798D01*
X9431Y33788D01*
X9426Y33783D01*
X9408Y33760D01*
X9390Y33732D01*
X9375Y33701D01*
X9364Y33671D01*
X9354Y33643D01*
X9347Y33620D01*
X9344Y33604D01*
X9341Y33602D01*
Y33599D01*
X9125Y33617D01*
X9140Y33689D01*
X9163Y33752D01*
X9189Y33808D01*
X9217Y33854D01*
X9245Y33890D01*
X9255Y33905D01*
X9268Y33918D01*
X9275Y33926D01*
X9283Y33933D01*
X9285Y33936D01*
X9288Y33938D01*
X9313Y33959D01*
X9341Y33977D01*
X9398Y34007D01*
X9454Y34028D01*
X9507Y34040D01*
X9556Y34051D01*
X9576Y34053D01*
X9594D01*
X9609Y34056D01*
X9630D01*
X9681Y34053D01*
D02*
G37*
G36*
X12639Y34074D02*
X12720Y34061D01*
X12792Y34045D01*
X12825Y34035D01*
X12855Y34025D01*
X12883Y34015D01*
X12909Y34005D01*
X12929Y33997D01*
X12950Y33989D01*
X12962Y33982D01*
X12973Y33977D01*
X12980Y33974D01*
X12983Y33972D01*
X13052Y33928D01*
X13110Y33877D01*
X13161Y33826D01*
X13205Y33775D01*
X13238Y33729D01*
X13251Y33709D01*
X13261Y33691D01*
X13271Y33678D01*
X13276Y33668D01*
X13279Y33661D01*
X13281Y33658D01*
X13317Y33579D01*
X13342Y33497D01*
X13360Y33416D01*
X13373Y33342D01*
X13378Y33309D01*
X13381Y33275D01*
X13383Y33250D01*
Y33224D01*
X13386Y33207D01*
Y33191D01*
Y33181D01*
Y33178D01*
X13381Y33087D01*
X13371Y32998D01*
X13358Y32918D01*
X13348Y32880D01*
X13340Y32847D01*
X13332Y32816D01*
X13322Y32788D01*
X13314Y32763D01*
X13309Y32743D01*
X13302Y32727D01*
X13299Y32714D01*
X13294Y32707D01*
Y32704D01*
X13256Y32628D01*
X13212Y32559D01*
X13167Y32500D01*
X13144Y32477D01*
X13123Y32454D01*
X13103Y32434D01*
X13082Y32416D01*
X13065Y32401D01*
X13049Y32391D01*
X13039Y32380D01*
X13029Y32373D01*
X13024Y32370D01*
X13021Y32368D01*
X12986Y32347D01*
X12950Y32329D01*
X12873Y32301D01*
X12797Y32281D01*
X12723Y32268D01*
X12687Y32263D01*
X12656Y32258D01*
X12629Y32255D01*
X12606D01*
X12585Y32253D01*
X12557D01*
X12506Y32255D01*
X12458Y32261D01*
X12412Y32266D01*
X12368Y32276D01*
X12328Y32289D01*
X12289Y32301D01*
X12254Y32314D01*
X12220Y32329D01*
X12192Y32342D01*
X12164Y32355D01*
X12144Y32368D01*
X12124Y32380D01*
X12111Y32391D01*
X12098Y32396D01*
X12093Y32401D01*
X12090Y32403D01*
X12055Y32434D01*
X12024Y32465D01*
X11996Y32500D01*
X11968Y32536D01*
X11922Y32607D01*
X11886Y32679D01*
X11871Y32712D01*
X11858Y32743D01*
X11848Y32770D01*
X11840Y32794D01*
X11833Y32814D01*
X11828Y32829D01*
X11825Y32839D01*
Y32842D01*
X12060Y32901D01*
X12070Y32860D01*
X12083Y32822D01*
X12095Y32786D01*
X12108Y32753D01*
X12124Y32722D01*
X12139Y32697D01*
X12157Y32671D01*
X12172Y32648D01*
X12185Y32628D01*
X12200Y32612D01*
X12213Y32597D01*
X12223Y32584D01*
X12233Y32577D01*
X12241Y32569D01*
X12243Y32566D01*
X12246Y32564D01*
X12271Y32544D01*
X12299Y32528D01*
X12356Y32500D01*
X12409Y32480D01*
X12463Y32467D01*
X12509Y32457D01*
X12527Y32454D01*
X12544D01*
X12560Y32452D01*
X12577D01*
X12636Y32454D01*
X12692Y32465D01*
X12743Y32477D01*
X12789Y32493D01*
X12825Y32508D01*
X12840Y32515D01*
X12853Y32521D01*
X12863Y32526D01*
X12871Y32531D01*
X12876Y32533D01*
X12878D01*
X12927Y32569D01*
X12968Y32607D01*
X13003Y32651D01*
X13031Y32691D01*
X13054Y32727D01*
X13070Y32758D01*
X13075Y32770D01*
X13080Y32778D01*
X13082Y32783D01*
Y32786D01*
X13103Y32852D01*
X13118Y32918D01*
X13131Y32985D01*
X13138Y33046D01*
X13141Y33074D01*
X13144Y33099D01*
Y33122D01*
X13146Y33140D01*
Y33156D01*
Y33168D01*
Y33176D01*
Y33178D01*
X13144Y33245D01*
X13138Y33306D01*
X13128Y33362D01*
X13118Y33413D01*
X13110Y33457D01*
X13105Y33474D01*
X13100Y33490D01*
X13098Y33502D01*
X13095Y33510D01*
X13093Y33515D01*
Y33518D01*
X13067Y33576D01*
X13039Y33630D01*
X13008Y33673D01*
X12975Y33711D01*
X12947Y33742D01*
X12924Y33762D01*
X12906Y33775D01*
X12904Y33780D01*
X12901D01*
X12848Y33814D01*
X12789Y33839D01*
X12733Y33857D01*
X12679Y33867D01*
X12631Y33875D01*
X12611Y33877D01*
X12593D01*
X12580Y33880D01*
X12560D01*
X12496Y33877D01*
X12437Y33867D01*
X12389Y33852D01*
X12345Y33836D01*
X12312Y33819D01*
X12287Y33806D01*
X12271Y33796D01*
X12266Y33790D01*
X12226Y33752D01*
X12187Y33709D01*
X12157Y33663D01*
X12131Y33617D01*
X12111Y33576D01*
X12103Y33556D01*
X12098Y33541D01*
X12093Y33528D01*
X12088Y33518D01*
X12085Y33513D01*
Y33510D01*
X11856Y33564D01*
X11871Y33610D01*
X11886Y33650D01*
X11907Y33689D01*
X11925Y33727D01*
X11945Y33760D01*
X11968Y33790D01*
X11988Y33821D01*
X12009Y33847D01*
X12029Y33867D01*
X12047Y33887D01*
X12065Y33905D01*
X12078Y33918D01*
X12090Y33931D01*
X12101Y33938D01*
X12106Y33941D01*
X12108Y33944D01*
X12144Y33966D01*
X12180Y33989D01*
X12215Y34007D01*
X12254Y34023D01*
X12330Y34045D01*
X12399Y34061D01*
X12432Y34069D01*
X12460Y34071D01*
X12488Y34074D01*
X12511Y34076D01*
X12529Y34079D01*
X12554D01*
X12639Y34074D01*
D02*
G37*
G36*
X125439Y39810D02*
X125235Y39782D01*
X125217Y39810D01*
X125194Y39833D01*
X125174Y39856D01*
X125153Y39874D01*
X125133Y39887D01*
X125118Y39900D01*
X125108Y39905D01*
X125105Y39907D01*
X125072Y39922D01*
X125039Y39935D01*
X125008Y39943D01*
X124977Y39950D01*
X124952Y39953D01*
X124932Y39956D01*
X124883D01*
X124853Y39950D01*
X124799Y39938D01*
X124753Y39920D01*
X124712Y39902D01*
X124682Y39882D01*
X124659Y39864D01*
X124646Y39851D01*
X124641Y39849D01*
Y39846D01*
X124605Y39803D01*
X124580Y39757D01*
X124562Y39708D01*
X124549Y39660D01*
X124541Y39619D01*
X124539Y39601D01*
Y39586D01*
X124536Y39573D01*
Y39563D01*
Y39558D01*
Y39555D01*
Y39520D01*
X124541Y39486D01*
X124554Y39423D01*
X124572Y39369D01*
X124590Y39326D01*
X124610Y39290D01*
X124628Y39262D01*
X124636Y39254D01*
X124641Y39247D01*
X124643Y39244D01*
X124646Y39242D01*
X124666Y39221D01*
X124687Y39203D01*
X124733Y39173D01*
X124776Y39152D01*
X124819Y39140D01*
X124855Y39129D01*
X124886Y39127D01*
X124896Y39124D01*
X124911D01*
X124960Y39127D01*
X125003Y39137D01*
X125041Y39150D01*
X125072Y39165D01*
X125100Y39180D01*
X125120Y39193D01*
X125130Y39203D01*
X125136Y39206D01*
X125166Y39242D01*
X125192Y39280D01*
X125212Y39323D01*
X125227Y39361D01*
X125238Y39400D01*
X125245Y39428D01*
X125248Y39441D01*
X125250Y39448D01*
Y39453D01*
Y39456D01*
X125477Y39438D01*
X125472Y39397D01*
X125464Y39359D01*
X125442Y39287D01*
X125414Y39226D01*
X125398Y39198D01*
X125383Y39175D01*
X125370Y39152D01*
X125355Y39132D01*
X125342Y39117D01*
X125329Y39104D01*
X125319Y39094D01*
X125314Y39083D01*
X125309Y39081D01*
X125306Y39078D01*
X125276Y39055D01*
X125245Y39035D01*
X125212Y39017D01*
X125179Y39002D01*
X125115Y38979D01*
X125051Y38964D01*
X125023Y38956D01*
X124995Y38953D01*
X124972Y38951D01*
X124952Y38948D01*
X124934Y38946D01*
X124911D01*
X124858Y38948D01*
X124807Y38956D01*
X124758Y38966D01*
X124715Y38979D01*
X124674Y38997D01*
X124636Y39015D01*
X124600Y39033D01*
X124569Y39053D01*
X124541Y39073D01*
X124516Y39091D01*
X124495Y39112D01*
X124478Y39127D01*
X124465Y39140D01*
X124455Y39150D01*
X124450Y39157D01*
X124447Y39160D01*
X124422Y39193D01*
X124401Y39229D01*
X124381Y39262D01*
X124365Y39298D01*
X124340Y39366D01*
X124325Y39433D01*
X124320Y39461D01*
X124314Y39489D01*
X124312Y39512D01*
X124309Y39532D01*
X124307Y39550D01*
Y39563D01*
Y39571D01*
Y39573D01*
X124309Y39619D01*
X124314Y39662D01*
X124322Y39706D01*
X124332Y39744D01*
X124345Y39780D01*
X124358Y39815D01*
X124373Y39846D01*
X124386Y39874D01*
X124401Y39900D01*
X124416Y39922D01*
X124429Y39940D01*
X124442Y39958D01*
X124452Y39971D01*
X124460Y39979D01*
X124465Y39984D01*
X124468Y39986D01*
X124498Y40014D01*
X124529Y40040D01*
X124562Y40060D01*
X124595Y40078D01*
X124628Y40096D01*
X124661Y40109D01*
X124723Y40126D01*
X124750Y40134D01*
X124776Y40139D01*
X124799Y40142D01*
X124819Y40144D01*
X124835Y40147D01*
X124891D01*
X124921Y40142D01*
X124983Y40129D01*
X125039Y40111D01*
X125090Y40091D01*
X125130Y40070D01*
X125148Y40060D01*
X125164Y40053D01*
X125176Y40045D01*
X125184Y40040D01*
X125189Y40037D01*
X125192Y40035D01*
X125097Y40512D01*
X124391D01*
Y40718D01*
X125268D01*
X125439Y39810D01*
D02*
G37*
G36*
X127165Y39721D02*
Y39670D01*
X127163Y39621D01*
X127160Y39576D01*
X127155Y39532D01*
X127150Y39494D01*
X127145Y39458D01*
X127137Y39425D01*
X127132Y39395D01*
X127127Y39366D01*
X127120Y39344D01*
X127114Y39323D01*
X127109Y39308D01*
X127104Y39295D01*
X127102Y39285D01*
X127099Y39280D01*
Y39277D01*
X127071Y39221D01*
X127035Y39170D01*
X127000Y39129D01*
X126961Y39094D01*
X126928Y39066D01*
X126900Y39045D01*
X126890Y39040D01*
X126882Y39035D01*
X126877Y39030D01*
X126875D01*
X126811Y39002D01*
X126745Y38982D01*
X126676Y38966D01*
X126612Y38956D01*
X126584Y38953D01*
X126556Y38951D01*
X126530Y38948D01*
X126510D01*
X126492Y38946D01*
X126469D01*
X126377Y38951D01*
X126337Y38956D01*
X126298Y38961D01*
X126260Y38969D01*
X126227Y38976D01*
X126196Y38984D01*
X126168Y38994D01*
X126143Y39004D01*
X126122Y39012D01*
X126102Y39020D01*
X126087Y39027D01*
X126074Y39035D01*
X126066Y39038D01*
X126061Y39043D01*
X126059D01*
X126003Y39081D01*
X125957Y39124D01*
X125921Y39165D01*
X125890Y39206D01*
X125867Y39242D01*
X125852Y39270D01*
X125847Y39280D01*
X125842Y39287D01*
X125839Y39293D01*
Y39295D01*
X125829Y39326D01*
X125819Y39359D01*
X125804Y39428D01*
X125794Y39499D01*
X125786Y39568D01*
X125783Y39599D01*
X125781Y39629D01*
Y39655D01*
X125778Y39678D01*
Y39696D01*
Y39708D01*
Y39718D01*
Y39721D01*
Y40741D01*
X126013D01*
Y39721D01*
Y39662D01*
X126018Y39606D01*
X126023Y39558D01*
X126031Y39512D01*
X126038Y39471D01*
X126049Y39433D01*
X126056Y39400D01*
X126066Y39372D01*
X126076Y39349D01*
X126087Y39326D01*
X126097Y39310D01*
X126104Y39295D01*
X126112Y39285D01*
X126117Y39277D01*
X126120Y39275D01*
X126122Y39272D01*
X126145Y39252D01*
X126171Y39234D01*
X126227Y39206D01*
X126286Y39186D01*
X126347Y39173D01*
X126403Y39162D01*
X126426Y39160D01*
X126449D01*
X126464Y39157D01*
X126490D01*
X126543Y39160D01*
X126592Y39168D01*
X126637Y39175D01*
X126673Y39188D01*
X126704Y39198D01*
X126727Y39206D01*
X126740Y39213D01*
X126745Y39216D01*
X126780Y39239D01*
X126811Y39267D01*
X126836Y39295D01*
X126854Y39321D01*
X126870Y39346D01*
X126882Y39364D01*
X126887Y39377D01*
X126890Y39382D01*
X126898Y39405D01*
X126903Y39428D01*
X126913Y39481D01*
X126921Y39537D01*
X126926Y39593D01*
X126928Y39642D01*
Y39665D01*
X126931Y39683D01*
Y39698D01*
Y39711D01*
Y39718D01*
Y39721D01*
Y40741D01*
X127165D01*
Y39721D01*
D02*
G37*
G36*
X29921Y44445D02*
Y44394D01*
X29919Y44346D01*
X29916Y44300D01*
X29911Y44257D01*
X29906Y44218D01*
X29901Y44183D01*
X29893Y44150D01*
X29888Y44119D01*
X29883Y44091D01*
X29875Y44068D01*
X29870Y44048D01*
X29865Y44032D01*
X29860Y44019D01*
X29858Y44009D01*
X29855Y44004D01*
Y44002D01*
X29827Y43946D01*
X29791Y43895D01*
X29755Y43854D01*
X29717Y43818D01*
X29684Y43790D01*
X29656Y43770D01*
X29646Y43764D01*
X29638Y43759D01*
X29633Y43754D01*
X29631D01*
X29567Y43726D01*
X29500Y43706D01*
X29432Y43691D01*
X29368Y43680D01*
X29340Y43678D01*
X29312Y43675D01*
X29286Y43673D01*
X29266D01*
X29248Y43670D01*
X29225D01*
X29133Y43675D01*
X29092Y43680D01*
X29054Y43685D01*
X29016Y43693D01*
X28983Y43701D01*
X28952Y43708D01*
X28924Y43719D01*
X28899Y43729D01*
X28878Y43736D01*
X28858Y43744D01*
X28843Y43752D01*
X28830Y43759D01*
X28822Y43762D01*
X28817Y43767D01*
X28815D01*
X28758Y43805D01*
X28713Y43849D01*
X28677Y43889D01*
X28646Y43930D01*
X28623Y43966D01*
X28608Y43994D01*
X28603Y44004D01*
X28598Y44012D01*
X28595Y44017D01*
Y44019D01*
X28585Y44050D01*
X28575Y44083D01*
X28560Y44152D01*
X28549Y44223D01*
X28542Y44292D01*
X28539Y44323D01*
X28537Y44354D01*
Y44379D01*
X28534Y44402D01*
Y44420D01*
Y44433D01*
Y44443D01*
Y44445D01*
Y45465D01*
X28769D01*
Y44445D01*
Y44387D01*
X28774Y44331D01*
X28779Y44282D01*
X28787Y44236D01*
X28794Y44196D01*
X28804Y44157D01*
X28812Y44124D01*
X28822Y44096D01*
X28832Y44073D01*
X28843Y44050D01*
X28853Y44035D01*
X28861Y44019D01*
X28868Y44009D01*
X28873Y44002D01*
X28876Y43999D01*
X28878Y43997D01*
X28901Y43976D01*
X28927Y43958D01*
X28983Y43930D01*
X29041Y43910D01*
X29103Y43897D01*
X29159Y43887D01*
X29182Y43884D01*
X29205D01*
X29220Y43882D01*
X29245D01*
X29299Y43884D01*
X29348Y43892D01*
X29393Y43900D01*
X29429Y43912D01*
X29460Y43923D01*
X29483Y43930D01*
X29495Y43938D01*
X29500Y43940D01*
X29536Y43963D01*
X29567Y43992D01*
X29592Y44019D01*
X29610Y44045D01*
X29625Y44071D01*
X29638Y44088D01*
X29643Y44101D01*
X29646Y44106D01*
X29653Y44129D01*
X29659Y44152D01*
X29669Y44206D01*
X29676Y44262D01*
X29682Y44318D01*
X29684Y44366D01*
Y44389D01*
X29687Y44407D01*
Y44422D01*
Y44435D01*
Y44443D01*
Y44445D01*
Y45465D01*
X29921D01*
Y44445D01*
D02*
G37*
G36*
X28307Y44323D02*
Y44124D01*
X27540D01*
Y43701D01*
X27323D01*
Y44124D01*
X27083D01*
Y44323D01*
X27323D01*
Y45465D01*
X27499D01*
X28307Y44323D01*
D02*
G37*
G36*
X70302Y18388D02*
X70345Y18383D01*
X70389Y18376D01*
X70427Y18368D01*
X70463Y18355D01*
X70499Y18342D01*
X70529Y18330D01*
X70557Y18314D01*
X70583Y18299D01*
X70606Y18286D01*
X70623Y18274D01*
X70641Y18261D01*
X70654Y18253D01*
X70662Y18246D01*
X70667Y18240D01*
X70669Y18238D01*
X70697Y18210D01*
X70723Y18179D01*
X70743Y18146D01*
X70761Y18115D01*
X70779Y18085D01*
X70792Y18054D01*
X70810Y17996D01*
X70817Y17970D01*
X70822Y17945D01*
X70825Y17924D01*
X70827Y17904D01*
X70830Y17889D01*
Y17868D01*
X70827Y17822D01*
X70820Y17779D01*
X70812Y17738D01*
X70802Y17702D01*
X70789Y17672D01*
X70781Y17649D01*
X70774Y17634D01*
X70771Y17631D01*
Y17628D01*
X70746Y17588D01*
X70718Y17552D01*
X70690Y17519D01*
X70659Y17493D01*
X70634Y17470D01*
X70613Y17452D01*
X70598Y17442D01*
X70595Y17440D01*
X70641D01*
X70687Y17442D01*
X70728Y17445D01*
X70769Y17450D01*
X70805Y17452D01*
X70838Y17458D01*
X70868Y17463D01*
X70896Y17470D01*
X70922Y17476D01*
X70942Y17481D01*
X70960Y17486D01*
X70975Y17488D01*
X70986Y17493D01*
X70993Y17496D01*
X70998Y17498D01*
X71001D01*
X71052Y17524D01*
X71098Y17549D01*
X71133Y17578D01*
X71164Y17603D01*
X71189Y17626D01*
X71207Y17644D01*
X71218Y17657D01*
X71220Y17662D01*
X71241Y17692D01*
X71253Y17723D01*
X71263Y17753D01*
X71271Y17784D01*
X71276Y17807D01*
X71279Y17827D01*
Y17845D01*
X71274Y17891D01*
X71263Y17934D01*
X71248Y17970D01*
X71233Y18003D01*
X71215Y18029D01*
X71200Y18047D01*
X71189Y18057D01*
X71184Y18062D01*
X71162Y18080D01*
X71133Y18098D01*
X71103Y18113D01*
X71072Y18123D01*
X71044Y18133D01*
X71021Y18141D01*
X71006Y18144D01*
X71003Y18146D01*
X71001D01*
X71019Y18363D01*
X71090Y18348D01*
X71154Y18325D01*
X71210Y18299D01*
X71256Y18271D01*
X71292Y18243D01*
X71307Y18233D01*
X71320Y18220D01*
X71327Y18212D01*
X71335Y18205D01*
X71337Y18202D01*
X71340Y18200D01*
X71360Y18174D01*
X71378Y18146D01*
X71409Y18090D01*
X71429Y18034D01*
X71442Y17980D01*
X71452Y17932D01*
X71455Y17911D01*
Y17894D01*
X71457Y17878D01*
Y17858D01*
X71455Y17807D01*
X71450Y17759D01*
X71439Y17713D01*
X71427Y17669D01*
X71409Y17631D01*
X71394Y17593D01*
X71373Y17560D01*
X71355Y17529D01*
X71337Y17503D01*
X71317Y17478D01*
X71302Y17458D01*
X71286Y17442D01*
X71271Y17430D01*
X71261Y17419D01*
X71256Y17414D01*
X71253Y17412D01*
X71207Y17379D01*
X71154Y17350D01*
X71098Y17325D01*
X71039Y17302D01*
X70978Y17284D01*
X70917Y17269D01*
X70853Y17256D01*
X70794Y17246D01*
X70736Y17238D01*
X70682Y17233D01*
X70634Y17228D01*
X70593Y17226D01*
X70557D01*
X70532Y17223D01*
X70521D01*
X70514D01*
X70511D01*
X70509D01*
X70427Y17226D01*
X70351Y17231D01*
X70279Y17238D01*
X70213Y17251D01*
X70154Y17264D01*
X70101Y17277D01*
X70052Y17292D01*
X70009Y17310D01*
X69973Y17325D01*
X69940Y17340D01*
X69915Y17353D01*
X69892Y17368D01*
X69874Y17379D01*
X69863Y17386D01*
X69856Y17391D01*
X69853Y17394D01*
X69818Y17427D01*
X69787Y17463D01*
X69762Y17498D01*
X69739Y17534D01*
X69718Y17572D01*
X69703Y17608D01*
X69690Y17644D01*
X69680Y17680D01*
X69672Y17710D01*
X69665Y17741D01*
X69660Y17766D01*
X69657Y17789D01*
Y17809D01*
X69654Y17822D01*
Y17835D01*
X69657Y17894D01*
X69667Y17947D01*
X69677Y17996D01*
X69693Y18039D01*
X69705Y18072D01*
X69718Y18098D01*
X69721Y18108D01*
X69726Y18115D01*
X69728Y18118D01*
Y18121D01*
X69759Y18164D01*
X69795Y18205D01*
X69830Y18238D01*
X69866Y18266D01*
X69899Y18289D01*
X69925Y18304D01*
X69935Y18309D01*
X69943Y18314D01*
X69945Y18317D01*
X69948D01*
X70001Y18342D01*
X70057Y18360D01*
X70108Y18373D01*
X70157Y18381D01*
X70198Y18388D01*
X70213D01*
X70228Y18391D01*
X70241D01*
X70249D01*
X70254D01*
X70256D01*
X70302Y18388D01*
D02*
G37*
G36*
X71457Y16537D02*
X71414Y16512D01*
X71373Y16484D01*
X71332Y16450D01*
X71297Y16420D01*
X71266Y16389D01*
X71241Y16366D01*
X71233Y16356D01*
X71225Y16348D01*
X71223Y16346D01*
X71220Y16343D01*
X71177Y16290D01*
X71136Y16236D01*
X71100Y16185D01*
X71072Y16134D01*
X71047Y16091D01*
X71036Y16073D01*
X71029Y16058D01*
X71021Y16045D01*
X71019Y16035D01*
X71014Y16030D01*
Y16027D01*
X70805D01*
X70820Y16065D01*
X70838Y16104D01*
X70855Y16142D01*
X70873Y16177D01*
X70889Y16208D01*
X70901Y16234D01*
X70912Y16249D01*
X70914Y16251D01*
Y16254D01*
X70942Y16300D01*
X70970Y16341D01*
X70996Y16376D01*
X71019Y16405D01*
X71036Y16430D01*
X71052Y16445D01*
X71062Y16458D01*
X71065Y16461D01*
X69685D01*
Y16677D01*
X71457D01*
Y16537D01*
D02*
G37*
G36*
X70164Y15420D02*
X70215Y15384D01*
X70261Y15351D01*
X70300Y15318D01*
X70335Y15290D01*
X70361Y15265D01*
X70381Y15244D01*
X70394Y15232D01*
X70399Y15226D01*
X70414Y15206D01*
X70432Y15183D01*
X70460Y15137D01*
X70470Y15117D01*
X70481Y15101D01*
X70486Y15091D01*
X70488Y15086D01*
X70496Y15132D01*
X70504Y15175D01*
X70516Y15214D01*
X70526Y15252D01*
X70539Y15285D01*
X70555Y15316D01*
X70567Y15344D01*
X70580Y15369D01*
X70595Y15390D01*
X70608Y15410D01*
X70618Y15425D01*
X70628Y15438D01*
X70636Y15448D01*
X70644Y15456D01*
X70646Y15458D01*
X70649Y15461D01*
X70674Y15481D01*
X70700Y15502D01*
X70754Y15532D01*
X70807Y15553D01*
X70858Y15568D01*
X70901Y15578D01*
X70919Y15581D01*
X70937D01*
X70950Y15583D01*
X70960D01*
X70965D01*
X70968D01*
X71021Y15581D01*
X71070Y15573D01*
X71116Y15560D01*
X71154Y15548D01*
X71187Y15532D01*
X71213Y15522D01*
X71228Y15512D01*
X71230Y15509D01*
X71233D01*
X71274Y15479D01*
X71309Y15448D01*
X71340Y15415D01*
X71363Y15384D01*
X71381Y15356D01*
X71391Y15334D01*
X71399Y15318D01*
X71401Y15316D01*
Y15313D01*
X71409Y15290D01*
X71416Y15262D01*
X71429Y15206D01*
X71437Y15145D01*
X71444Y15089D01*
X71447Y15035D01*
Y15012D01*
X71450Y14992D01*
Y14173D01*
X69685D01*
Y14408D01*
X70468D01*
Y14709D01*
X70465Y14737D01*
Y14757D01*
X70463Y14775D01*
X70460Y14788D01*
Y14798D01*
X70458Y14803D01*
Y14806D01*
X70445Y14846D01*
X70437Y14864D01*
X70430Y14880D01*
X70422Y14895D01*
X70417Y14905D01*
X70414Y14910D01*
X70412Y14913D01*
X70397Y14933D01*
X70379Y14954D01*
X70340Y14992D01*
X70323Y15010D01*
X70307Y15022D01*
X70297Y15030D01*
X70294Y15033D01*
X70259Y15058D01*
X70221Y15086D01*
X70180Y15114D01*
X70142Y15142D01*
X70106Y15165D01*
X70078Y15183D01*
X70068Y15191D01*
X70060Y15196D01*
X70055Y15201D01*
X70052D01*
X69685Y15433D01*
Y15724D01*
X70164Y15420D01*
D02*
G37*
G36*
X62992Y13939D02*
X62209D01*
Y13638D01*
X62212Y13610D01*
Y13589D01*
X62214Y13571D01*
X62217Y13559D01*
Y13548D01*
X62220Y13543D01*
Y13541D01*
X62232Y13500D01*
X62240Y13482D01*
X62248Y13467D01*
X62255Y13452D01*
X62260Y13441D01*
X62263Y13436D01*
X62265Y13434D01*
X62281Y13413D01*
X62299Y13393D01*
X62337Y13355D01*
X62355Y13337D01*
X62370Y13324D01*
X62380Y13316D01*
X62383Y13314D01*
X62418Y13288D01*
X62457Y13260D01*
X62497Y13232D01*
X62536Y13204D01*
X62571Y13181D01*
X62599Y13163D01*
X62610Y13156D01*
X62617Y13151D01*
X62622Y13146D01*
X62625D01*
X62992Y12913D01*
Y12623D01*
X62513Y12926D01*
X62462Y12962D01*
X62416Y12995D01*
X62378Y13028D01*
X62342Y13056D01*
X62316Y13082D01*
X62296Y13102D01*
X62283Y13115D01*
X62278Y13120D01*
X62263Y13140D01*
X62245Y13163D01*
X62217Y13209D01*
X62207Y13230D01*
X62196Y13245D01*
X62191Y13255D01*
X62189Y13260D01*
X62181Y13214D01*
X62174Y13171D01*
X62161Y13133D01*
X62151Y13095D01*
X62138Y13061D01*
X62123Y13031D01*
X62110Y13003D01*
X62097Y12977D01*
X62082Y12957D01*
X62069Y12936D01*
X62059Y12921D01*
X62049Y12908D01*
X62041Y12898D01*
X62033Y12891D01*
X62031Y12888D01*
X62028Y12886D01*
X62003Y12865D01*
X61977Y12845D01*
X61924Y12814D01*
X61870Y12794D01*
X61819Y12778D01*
X61776Y12768D01*
X61758Y12766D01*
X61740D01*
X61727Y12763D01*
X61717D01*
X61712D01*
X61709D01*
X61656Y12766D01*
X61607Y12773D01*
X61562Y12786D01*
X61523Y12799D01*
X61490Y12814D01*
X61465Y12824D01*
X61449Y12834D01*
X61447Y12837D01*
X61444D01*
X61404Y12868D01*
X61368Y12898D01*
X61337Y12931D01*
X61314Y12962D01*
X61296Y12990D01*
X61286Y13013D01*
X61278Y13028D01*
X61276Y13031D01*
Y13033D01*
X61268Y13056D01*
X61261Y13084D01*
X61248Y13140D01*
X61240Y13202D01*
X61233Y13258D01*
X61230Y13311D01*
Y13334D01*
X61228Y13355D01*
Y14173D01*
X62992D01*
Y13939D01*
D02*
G37*
G36*
X61857Y12281D02*
X61839Y12243D01*
X61822Y12205D01*
X61804Y12169D01*
X61788Y12138D01*
X61776Y12113D01*
X61766Y12098D01*
X61763Y12095D01*
Y12092D01*
X61735Y12047D01*
X61707Y12006D01*
X61681Y11970D01*
X61659Y11942D01*
X61641Y11917D01*
X61625Y11901D01*
X61615Y11888D01*
X61613Y11886D01*
X62992D01*
Y11669D01*
X61220D01*
Y11809D01*
X61263Y11835D01*
X61304Y11863D01*
X61345Y11896D01*
X61380Y11927D01*
X61411Y11957D01*
X61437Y11980D01*
X61444Y11990D01*
X61452Y11998D01*
X61454Y12001D01*
X61457Y12003D01*
X61500Y12057D01*
X61541Y12110D01*
X61577Y12161D01*
X61605Y12212D01*
X61630Y12256D01*
X61641Y12274D01*
X61648Y12289D01*
X61656Y12302D01*
X61659Y12312D01*
X61664Y12317D01*
Y12319D01*
X61873D01*
X61857Y12281D01*
D02*
G37*
G36*
X62571Y11108D02*
X62610Y11101D01*
X62681Y11078D01*
X62742Y11050D01*
X62770Y11034D01*
X62793Y11019D01*
X62816Y11006D01*
X62837Y10991D01*
X62852Y10978D01*
X62865Y10965D01*
X62875Y10955D01*
X62885Y10950D01*
X62888Y10945D01*
X62890Y10942D01*
X62913Y10912D01*
X62933Y10881D01*
X62951Y10848D01*
X62967Y10815D01*
X62990Y10751D01*
X63005Y10687D01*
X63012Y10659D01*
X63015Y10631D01*
X63018Y10608D01*
X63020Y10588D01*
X63023Y10570D01*
Y10547D01*
X63020Y10494D01*
X63012Y10443D01*
X63002Y10394D01*
X62990Y10351D01*
X62972Y10310D01*
X62954Y10272D01*
X62936Y10236D01*
X62916Y10205D01*
X62895Y10177D01*
X62877Y10152D01*
X62857Y10131D01*
X62842Y10114D01*
X62829Y10101D01*
X62819Y10091D01*
X62811Y10086D01*
X62809Y10083D01*
X62775Y10058D01*
X62740Y10037D01*
X62707Y10017D01*
X62671Y10001D01*
X62602Y9976D01*
X62536Y9961D01*
X62508Y9956D01*
X62480Y9950D01*
X62457Y9948D01*
X62436Y9945D01*
X62418Y9943D01*
X62406D01*
X62398D01*
X62395D01*
X62349Y9945D01*
X62306Y9950D01*
X62263Y9958D01*
X62225Y9968D01*
X62189Y9981D01*
X62153Y9994D01*
X62123Y10009D01*
X62094Y10022D01*
X62069Y10037D01*
X62046Y10052D01*
X62028Y10065D01*
X62010Y10078D01*
X61998Y10088D01*
X61990Y10096D01*
X61985Y10101D01*
X61982Y10103D01*
X61954Y10134D01*
X61929Y10165D01*
X61908Y10198D01*
X61891Y10231D01*
X61873Y10264D01*
X61860Y10297D01*
X61842Y10358D01*
X61834Y10386D01*
X61829Y10412D01*
X61827Y10435D01*
X61824Y10455D01*
X61822Y10471D01*
Y10527D01*
X61827Y10557D01*
X61839Y10618D01*
X61857Y10675D01*
X61878Y10726D01*
X61898Y10766D01*
X61908Y10784D01*
X61916Y10800D01*
X61924Y10812D01*
X61929Y10820D01*
X61931Y10825D01*
X61934Y10828D01*
X61457Y10733D01*
Y10027D01*
X61251D01*
Y10904D01*
X62158Y11075D01*
X62186Y10871D01*
X62158Y10853D01*
X62135Y10830D01*
X62112Y10810D01*
X62094Y10789D01*
X62082Y10769D01*
X62069Y10754D01*
X62064Y10744D01*
X62061Y10741D01*
X62046Y10708D01*
X62033Y10675D01*
X62026Y10644D01*
X62018Y10613D01*
X62015Y10588D01*
X62013Y10567D01*
Y10519D01*
X62018Y10488D01*
X62031Y10435D01*
X62049Y10389D01*
X62067Y10348D01*
X62087Y10318D01*
X62105Y10295D01*
X62117Y10282D01*
X62120Y10277D01*
X62123D01*
X62166Y10241D01*
X62212Y10216D01*
X62260Y10198D01*
X62309Y10185D01*
X62349Y10177D01*
X62367Y10175D01*
X62383D01*
X62395Y10172D01*
X62406D01*
X62411D01*
X62413D01*
X62449D01*
X62482Y10177D01*
X62546Y10190D01*
X62599Y10208D01*
X62643Y10226D01*
X62678Y10246D01*
X62707Y10264D01*
X62714Y10272D01*
X62722Y10277D01*
X62724Y10279D01*
X62727Y10282D01*
X62747Y10302D01*
X62765Y10323D01*
X62796Y10369D01*
X62816Y10412D01*
X62829Y10455D01*
X62839Y10491D01*
X62842Y10522D01*
X62844Y10532D01*
Y10547D01*
X62842Y10596D01*
X62831Y10639D01*
X62819Y10677D01*
X62803Y10708D01*
X62788Y10736D01*
X62775Y10756D01*
X62765Y10766D01*
X62763Y10772D01*
X62727Y10802D01*
X62689Y10828D01*
X62645Y10848D01*
X62607Y10863D01*
X62569Y10874D01*
X62541Y10881D01*
X62528Y10884D01*
X62520Y10886D01*
X62515D01*
X62513D01*
X62531Y11113D01*
X62571Y11108D01*
D02*
G37*
G36*
X20472Y44488D02*
X20138D01*
Y45606D01*
X19708D01*
X19668Y45602D01*
X19639D01*
X19613Y45598D01*
X19595Y45595D01*
X19581D01*
X19573Y45591D01*
X19570D01*
X19512Y45573D01*
X19486Y45562D01*
X19464Y45551D01*
X19442Y45540D01*
X19428Y45533D01*
X19421Y45529D01*
X19417Y45526D01*
X19388Y45504D01*
X19359Y45478D01*
X19304Y45424D01*
X19278Y45398D01*
X19260Y45376D01*
X19249Y45362D01*
X19246Y45358D01*
X19209Y45307D01*
X19169Y45253D01*
X19129Y45194D01*
X19089Y45140D01*
X19057Y45089D01*
X19031Y45049D01*
X19020Y45034D01*
X19013Y45023D01*
X19005Y45016D01*
Y45012D01*
X18674Y44488D01*
X18259D01*
X18692Y45173D01*
X18743Y45245D01*
X18791Y45311D01*
X18838Y45365D01*
X18878Y45416D01*
X18914Y45453D01*
X18944Y45482D01*
X18962Y45500D01*
X18969Y45507D01*
X18998Y45529D01*
X19031Y45555D01*
X19096Y45595D01*
X19126Y45609D01*
X19148Y45624D01*
X19162Y45631D01*
X19169Y45635D01*
X19104Y45646D01*
X19042Y45657D01*
X18987Y45675D01*
X18933Y45689D01*
X18885Y45708D01*
X18842Y45729D01*
X18802Y45748D01*
X18765Y45766D01*
X18736Y45788D01*
X18707Y45806D01*
X18685Y45820D01*
X18667Y45835D01*
X18652Y45846D01*
X18642Y45857D01*
X18638Y45860D01*
X18634Y45864D01*
X18605Y45900D01*
X18576Y45937D01*
X18532Y46013D01*
X18503Y46090D01*
X18481Y46163D01*
X18467Y46224D01*
X18463Y46250D01*
Y46275D01*
X18460Y46294D01*
Y46308D01*
Y46316D01*
Y46319D01*
X18463Y46395D01*
X18474Y46465D01*
X18492Y46530D01*
X18510Y46585D01*
X18532Y46632D01*
X18547Y46668D01*
X18561Y46690D01*
X18565Y46694D01*
Y46698D01*
X18609Y46756D01*
X18652Y46807D01*
X18700Y46850D01*
X18743Y46883D01*
X18783Y46909D01*
X18816Y46923D01*
X18838Y46934D01*
X18842Y46938D01*
X18845D01*
X18878Y46949D01*
X18918Y46960D01*
X18998Y46978D01*
X19086Y46989D01*
X19166Y47000D01*
X19242Y47003D01*
X19275D01*
X19304Y47007D01*
X20472D01*
Y44488D01*
D02*
G37*
G36*
X18041Y46676D02*
X16807D01*
X16894Y46570D01*
X16978Y46457D01*
X17051Y46348D01*
X17120Y46243D01*
X17149Y46195D01*
X17175Y46152D01*
X17200Y46112D01*
X17218Y46079D01*
X17233Y46050D01*
X17244Y46031D01*
X17251Y46017D01*
X17255Y46013D01*
X17327Y45868D01*
X17393Y45722D01*
X17448Y45584D01*
X17469Y45522D01*
X17491Y45460D01*
X17513Y45406D01*
X17528Y45355D01*
X17542Y45311D01*
X17553Y45274D01*
X17564Y45242D01*
X17571Y45220D01*
X17575Y45205D01*
Y45202D01*
X17611Y45052D01*
X17626Y44980D01*
X17637Y44914D01*
X17648Y44852D01*
X17659Y44790D01*
X17666Y44739D01*
X17673Y44688D01*
X17677Y44645D01*
X17681Y44605D01*
X17684Y44568D01*
Y44539D01*
X17688Y44517D01*
Y44503D01*
Y44492D01*
Y44488D01*
X17371D01*
X17360Y44627D01*
X17342Y44754D01*
X17324Y44870D01*
X17313Y44925D01*
X17302Y44976D01*
X17295Y45020D01*
X17284Y45060D01*
X17277Y45096D01*
X17269Y45125D01*
X17262Y45147D01*
X17258Y45165D01*
X17255Y45176D01*
Y45180D01*
X17200Y45347D01*
X17142Y45504D01*
X17113Y45580D01*
X17084Y45653D01*
X17051Y45719D01*
X17022Y45784D01*
X16996Y45842D01*
X16971Y45893D01*
X16949Y45937D01*
X16931Y45977D01*
X16913Y46010D01*
X16902Y46031D01*
X16894Y46046D01*
X16891Y46050D01*
X16847Y46126D01*
X16803Y46203D01*
X16760Y46272D01*
X16716Y46337D01*
X16676Y46395D01*
X16636Y46454D01*
X16596Y46505D01*
X16563Y46548D01*
X16530Y46592D01*
X16501Y46628D01*
X16472Y46658D01*
X16450Y46683D01*
X16436Y46705D01*
X16421Y46720D01*
X16414Y46727D01*
X16410Y46730D01*
Y46974D01*
X18041D01*
Y46676D01*
D02*
G37*
G36*
X16242Y41337D02*
X16290Y41331D01*
X16336Y41321D01*
X16380Y41309D01*
X16418Y41291D01*
X16456Y41275D01*
X16489Y41255D01*
X16520Y41237D01*
X16545Y41219D01*
X16571Y41199D01*
X16591Y41184D01*
X16607Y41168D01*
X16620Y41153D01*
X16630Y41143D01*
X16635Y41138D01*
X16637Y41135D01*
X16670Y41089D01*
X16699Y41036D01*
X16724Y40980D01*
X16747Y40921D01*
X16765Y40860D01*
X16780Y40799D01*
X16793Y40735D01*
X16803Y40676D01*
X16811Y40617D01*
X16816Y40564D01*
X16821Y40516D01*
X16824Y40475D01*
Y40439D01*
X16826Y40413D01*
Y40403D01*
Y40396D01*
Y40393D01*
Y40391D01*
X16824Y40309D01*
X16818Y40233D01*
X16811Y40161D01*
X16798Y40095D01*
X16785Y40036D01*
X16772Y39983D01*
X16757Y39934D01*
X16739Y39891D01*
X16724Y39855D01*
X16709Y39822D01*
X16696Y39796D01*
X16681Y39773D01*
X16670Y39756D01*
X16663Y39745D01*
X16658Y39738D01*
X16655Y39735D01*
X16622Y39700D01*
X16586Y39669D01*
X16551Y39643D01*
X16515Y39621D01*
X16477Y39600D01*
X16441Y39585D01*
X16405Y39572D01*
X16370Y39562D01*
X16339Y39554D01*
X16308Y39546D01*
X16283Y39541D01*
X16260Y39539D01*
X16240D01*
X16227Y39536D01*
X16214D01*
X16155Y39539D01*
X16102Y39549D01*
X16053Y39559D01*
X16010Y39575D01*
X15977Y39587D01*
X15951Y39600D01*
X15941Y39603D01*
X15934Y39608D01*
X15931Y39610D01*
X15928D01*
X15885Y39641D01*
X15844Y39677D01*
X15811Y39712D01*
X15783Y39748D01*
X15760Y39781D01*
X15745Y39807D01*
X15740Y39817D01*
X15735Y39825D01*
X15732Y39827D01*
Y39830D01*
X15707Y39883D01*
X15689Y39939D01*
X15676Y39990D01*
X15668Y40039D01*
X15661Y40080D01*
Y40095D01*
X15658Y40110D01*
Y40123D01*
Y40130D01*
Y40136D01*
Y40138D01*
X15661Y40184D01*
X15666Y40227D01*
X15673Y40271D01*
X15681Y40309D01*
X15694Y40345D01*
X15707Y40380D01*
X15719Y40411D01*
X15735Y40439D01*
X15750Y40464D01*
X15763Y40488D01*
X15775Y40505D01*
X15788Y40523D01*
X15796Y40536D01*
X15803Y40544D01*
X15809Y40549D01*
X15811Y40551D01*
X15839Y40579D01*
X15870Y40605D01*
X15903Y40625D01*
X15934Y40643D01*
X15964Y40661D01*
X15995Y40674D01*
X16053Y40692D01*
X16079Y40699D01*
X16104Y40704D01*
X16125Y40707D01*
X16145Y40709D01*
X16161Y40712D01*
X16181D01*
X16227Y40709D01*
X16270Y40702D01*
X16311Y40694D01*
X16347Y40684D01*
X16377Y40671D01*
X16400Y40663D01*
X16416Y40656D01*
X16418Y40653D01*
X16421D01*
X16461Y40628D01*
X16497Y40600D01*
X16530Y40572D01*
X16556Y40541D01*
X16579Y40516D01*
X16597Y40495D01*
X16607Y40480D01*
X16609Y40477D01*
Y40523D01*
X16607Y40569D01*
X16604Y40610D01*
X16599Y40651D01*
X16597Y40686D01*
X16591Y40720D01*
X16586Y40750D01*
X16579Y40778D01*
X16574Y40804D01*
X16568Y40824D01*
X16563Y40842D01*
X16561Y40857D01*
X16556Y40867D01*
X16553Y40875D01*
X16551Y40880D01*
Y40883D01*
X16525Y40934D01*
X16500Y40980D01*
X16472Y41015D01*
X16446Y41046D01*
X16423Y41071D01*
X16405Y41089D01*
X16393Y41100D01*
X16387Y41102D01*
X16357Y41122D01*
X16326Y41135D01*
X16296Y41145D01*
X16265Y41153D01*
X16242Y41158D01*
X16222Y41161D01*
X16204D01*
X16158Y41156D01*
X16115Y41145D01*
X16079Y41130D01*
X16046Y41115D01*
X16020Y41097D01*
X16002Y41082D01*
X15992Y41071D01*
X15987Y41066D01*
X15969Y41043D01*
X15951Y41015D01*
X15936Y40985D01*
X15926Y40954D01*
X15916Y40926D01*
X15908Y40903D01*
X15905Y40888D01*
X15903Y40885D01*
Y40883D01*
X15686Y40901D01*
X15701Y40972D01*
X15724Y41036D01*
X15750Y41092D01*
X15778Y41138D01*
X15806Y41173D01*
X15816Y41189D01*
X15829Y41201D01*
X15837Y41209D01*
X15844Y41217D01*
X15847Y41219D01*
X15849Y41222D01*
X15875Y41242D01*
X15903Y41260D01*
X15959Y41291D01*
X16015Y41311D01*
X16069Y41324D01*
X16117Y41334D01*
X16138Y41337D01*
X16155D01*
X16171Y41339D01*
X16191D01*
X16242Y41337D01*
D02*
G37*
G36*
X18504Y39567D02*
X18269D01*
Y40350D01*
X17968D01*
X17940Y40347D01*
X17920D01*
X17902Y40345D01*
X17889Y40342D01*
X17879D01*
X17874Y40340D01*
X17872D01*
X17831Y40327D01*
X17813Y40319D01*
X17798Y40312D01*
X17782Y40304D01*
X17772Y40299D01*
X17767Y40296D01*
X17764Y40294D01*
X17744Y40278D01*
X17724Y40260D01*
X17685Y40222D01*
X17668Y40204D01*
X17655Y40189D01*
X17647Y40179D01*
X17645Y40176D01*
X17619Y40141D01*
X17591Y40102D01*
X17563Y40062D01*
X17535Y40023D01*
X17512Y39988D01*
X17494Y39960D01*
X17487Y39949D01*
X17481Y39942D01*
X17476Y39937D01*
Y39934D01*
X17244Y39567D01*
X16953D01*
X17257Y40046D01*
X17293Y40097D01*
X17326Y40143D01*
X17359Y40181D01*
X17387Y40217D01*
X17413Y40243D01*
X17433Y40263D01*
X17446Y40276D01*
X17451Y40281D01*
X17471Y40296D01*
X17494Y40314D01*
X17540Y40342D01*
X17560Y40352D01*
X17576Y40363D01*
X17586Y40368D01*
X17591Y40370D01*
X17545Y40378D01*
X17502Y40385D01*
X17463Y40398D01*
X17425Y40408D01*
X17392Y40421D01*
X17361Y40437D01*
X17334Y40449D01*
X17308Y40462D01*
X17288Y40477D01*
X17267Y40490D01*
X17252Y40500D01*
X17239Y40510D01*
X17229Y40518D01*
X17221Y40526D01*
X17219Y40528D01*
X17216Y40531D01*
X17196Y40556D01*
X17175Y40582D01*
X17145Y40635D01*
X17124Y40689D01*
X17109Y40740D01*
X17099Y40783D01*
X17096Y40801D01*
Y40819D01*
X17094Y40832D01*
Y40842D01*
Y40847D01*
Y40850D01*
X17096Y40903D01*
X17104Y40952D01*
X17117Y40997D01*
X17130Y41036D01*
X17145Y41069D01*
X17155Y41094D01*
X17165Y41110D01*
X17168Y41112D01*
Y41115D01*
X17198Y41156D01*
X17229Y41191D01*
X17262Y41222D01*
X17293Y41245D01*
X17321Y41263D01*
X17344Y41273D01*
X17359Y41280D01*
X17361Y41283D01*
X17364D01*
X17387Y41291D01*
X17415Y41298D01*
X17471Y41311D01*
X17532Y41319D01*
X17589Y41326D01*
X17642Y41329D01*
X17665D01*
X17685Y41331D01*
X18504D01*
Y39567D01*
D02*
G37*
G36*
X91974Y15795D02*
X91770Y15766D01*
X91753Y15795D01*
X91730Y15817D01*
X91709Y15840D01*
X91689Y15858D01*
X91668Y15871D01*
X91653Y15884D01*
X91643Y15889D01*
X91640Y15891D01*
X91607Y15907D01*
X91574Y15919D01*
X91544Y15927D01*
X91513Y15935D01*
X91487Y15937D01*
X91467Y15940D01*
X91418D01*
X91388Y15935D01*
X91334Y15922D01*
X91289Y15904D01*
X91248Y15886D01*
X91217Y15866D01*
X91194Y15848D01*
X91181Y15835D01*
X91176Y15833D01*
Y15830D01*
X91141Y15787D01*
X91115Y15741D01*
X91097Y15692D01*
X91084Y15644D01*
X91077Y15603D01*
X91074Y15585D01*
Y15570D01*
X91072Y15557D01*
Y15547D01*
Y15542D01*
Y15540D01*
Y15504D01*
X91077Y15471D01*
X91090Y15407D01*
X91107Y15353D01*
X91125Y15310D01*
X91146Y15274D01*
X91163Y15246D01*
X91171Y15239D01*
X91176Y15231D01*
X91179Y15228D01*
X91181Y15226D01*
X91202Y15205D01*
X91222Y15188D01*
X91268Y15157D01*
X91311Y15137D01*
X91355Y15124D01*
X91391Y15114D01*
X91421Y15111D01*
X91431Y15109D01*
X91447D01*
X91495Y15111D01*
X91538Y15121D01*
X91577Y15134D01*
X91607Y15149D01*
X91635Y15165D01*
X91656Y15177D01*
X91666Y15188D01*
X91671Y15190D01*
X91702Y15226D01*
X91727Y15264D01*
X91747Y15307D01*
X91763Y15346D01*
X91773Y15384D01*
X91781Y15412D01*
X91783Y15425D01*
X91786Y15432D01*
Y15438D01*
Y15440D01*
X92013Y15422D01*
X92008Y15381D01*
X92000Y15343D01*
X91977Y15272D01*
X91949Y15211D01*
X91934Y15182D01*
X91918Y15159D01*
X91906Y15137D01*
X91890Y15116D01*
X91878Y15101D01*
X91865Y15088D01*
X91855Y15078D01*
X91849Y15068D01*
X91844Y15065D01*
X91842Y15063D01*
X91811Y15040D01*
X91781Y15019D01*
X91747Y15001D01*
X91714Y14986D01*
X91651Y14963D01*
X91587Y14948D01*
X91559Y14940D01*
X91531Y14938D01*
X91508Y14935D01*
X91487Y14933D01*
X91470Y14930D01*
X91447D01*
X91393Y14933D01*
X91342Y14940D01*
X91294Y14950D01*
X91250Y14963D01*
X91209Y14981D01*
X91171Y14999D01*
X91136Y15017D01*
X91105Y15037D01*
X91077Y15057D01*
X91051Y15075D01*
X91031Y15096D01*
X91013Y15111D01*
X91000Y15124D01*
X90990Y15134D01*
X90985Y15142D01*
X90983Y15144D01*
X90957Y15177D01*
X90937Y15213D01*
X90916Y15246D01*
X90901Y15282D01*
X90875Y15351D01*
X90860Y15417D01*
X90855Y15445D01*
X90850Y15473D01*
X90847Y15496D01*
X90845Y15517D01*
X90842Y15534D01*
Y15547D01*
Y15555D01*
Y15557D01*
X90845Y15603D01*
X90850Y15647D01*
X90857Y15690D01*
X90868Y15728D01*
X90881Y15764D01*
X90893Y15800D01*
X90908Y15830D01*
X90921Y15858D01*
X90937Y15884D01*
X90952Y15907D01*
X90965Y15924D01*
X90977Y15942D01*
X90988Y15955D01*
X90995Y15963D01*
X91000Y15968D01*
X91003Y15970D01*
X91034Y15999D01*
X91064Y16024D01*
X91097Y16044D01*
X91130Y16062D01*
X91163Y16080D01*
X91197Y16093D01*
X91258Y16111D01*
X91286Y16118D01*
X91311Y16123D01*
X91334Y16126D01*
X91355Y16128D01*
X91370Y16131D01*
X91426D01*
X91457Y16126D01*
X91518Y16113D01*
X91574Y16095D01*
X91625Y16075D01*
X91666Y16055D01*
X91684Y16044D01*
X91699Y16037D01*
X91712Y16029D01*
X91719Y16024D01*
X91724Y16021D01*
X91727Y16019D01*
X91633Y16496D01*
X90926D01*
Y16702D01*
X91804D01*
X91974Y15795D01*
D02*
G37*
G36*
X93701Y14961D02*
X93466D01*
Y15743D01*
X93165D01*
X93137Y15741D01*
X93117D01*
X93099Y15738D01*
X93086Y15736D01*
X93076D01*
X93071Y15733D01*
X93068D01*
X93028Y15721D01*
X93010Y15713D01*
X92994Y15705D01*
X92979Y15698D01*
X92969Y15692D01*
X92964Y15690D01*
X92961Y15687D01*
X92941Y15672D01*
X92921Y15654D01*
X92882Y15616D01*
X92864Y15598D01*
X92852Y15583D01*
X92844Y15573D01*
X92841Y15570D01*
X92816Y15534D01*
X92788Y15496D01*
X92760Y15455D01*
X92732Y15417D01*
X92709Y15381D01*
X92691Y15353D01*
X92683Y15343D01*
X92678Y15336D01*
X92673Y15330D01*
Y15328D01*
X92441Y14961D01*
X92150D01*
X92454Y15440D01*
X92489Y15491D01*
X92523Y15537D01*
X92556Y15575D01*
X92584Y15611D01*
X92609Y15636D01*
X92630Y15657D01*
X92642Y15669D01*
X92648Y15675D01*
X92668Y15690D01*
X92691Y15708D01*
X92737Y15736D01*
X92757Y15746D01*
X92773Y15756D01*
X92783Y15761D01*
X92788Y15764D01*
X92742Y15771D01*
X92699Y15779D01*
X92660Y15792D01*
X92622Y15802D01*
X92589Y15815D01*
X92558Y15830D01*
X92530Y15843D01*
X92505Y15856D01*
X92484Y15871D01*
X92464Y15884D01*
X92449Y15894D01*
X92436Y15904D01*
X92426Y15912D01*
X92418Y15919D01*
X92416Y15922D01*
X92413Y15924D01*
X92393Y15950D01*
X92372Y15976D01*
X92342Y16029D01*
X92321Y16083D01*
X92306Y16134D01*
X92296Y16177D01*
X92293Y16195D01*
Y16213D01*
X92291Y16225D01*
Y16236D01*
Y16241D01*
Y16243D01*
X92293Y16297D01*
X92301Y16345D01*
X92314Y16391D01*
X92326Y16429D01*
X92342Y16463D01*
X92352Y16488D01*
X92362Y16503D01*
X92365Y16506D01*
Y16509D01*
X92395Y16549D01*
X92426Y16585D01*
X92459Y16616D01*
X92489Y16638D01*
X92518Y16656D01*
X92541Y16667D01*
X92556Y16674D01*
X92558Y16677D01*
X92561D01*
X92584Y16684D01*
X92612Y16692D01*
X92668Y16705D01*
X92729Y16713D01*
X92785Y16720D01*
X92839Y16723D01*
X92862D01*
X92882Y16725D01*
X93701D01*
Y14961D01*
D02*
G37*
G36*
X114764Y24803D02*
X114529D01*
Y25586D01*
X114228D01*
X114200Y25583D01*
X114180D01*
X114162Y25581D01*
X114149Y25578D01*
X114139D01*
X114134Y25576D01*
X114131D01*
X114091Y25563D01*
X114073Y25555D01*
X114057Y25548D01*
X114042Y25540D01*
X114032Y25535D01*
X114027Y25532D01*
X114024Y25530D01*
X114004Y25515D01*
X113984Y25497D01*
X113945Y25458D01*
X113927Y25441D01*
X113915Y25425D01*
X113907Y25415D01*
X113904Y25413D01*
X113879Y25377D01*
X113851Y25339D01*
X113823Y25298D01*
X113795Y25260D01*
X113772Y25224D01*
X113754Y25196D01*
X113746Y25186D01*
X113741Y25178D01*
X113736Y25173D01*
Y25170D01*
X113504Y24803D01*
X113213D01*
X113517Y25283D01*
X113552Y25333D01*
X113586Y25379D01*
X113619Y25418D01*
X113647Y25453D01*
X113672Y25479D01*
X113693Y25499D01*
X113706Y25512D01*
X113711Y25517D01*
X113731Y25532D01*
X113754Y25550D01*
X113800Y25578D01*
X113820Y25589D01*
X113836Y25599D01*
X113846Y25604D01*
X113851Y25606D01*
X113805Y25614D01*
X113762Y25622D01*
X113723Y25634D01*
X113685Y25645D01*
X113652Y25657D01*
X113621Y25673D01*
X113593Y25685D01*
X113568Y25698D01*
X113547Y25714D01*
X113527Y25726D01*
X113512Y25736D01*
X113499Y25747D01*
X113489Y25754D01*
X113481Y25762D01*
X113479Y25765D01*
X113476Y25767D01*
X113456Y25793D01*
X113435Y25818D01*
X113405Y25872D01*
X113384Y25925D01*
X113369Y25976D01*
X113359Y26019D01*
X113356Y26037D01*
Y26055D01*
X113354Y26068D01*
Y26078D01*
Y26083D01*
Y26086D01*
X113356Y26139D01*
X113364Y26188D01*
X113377Y26234D01*
X113389Y26272D01*
X113405Y26305D01*
X113415Y26331D01*
X113425Y26346D01*
X113428Y26349D01*
Y26351D01*
X113458Y26392D01*
X113489Y26428D01*
X113522Y26458D01*
X113552Y26481D01*
X113581Y26499D01*
X113603Y26509D01*
X113619Y26517D01*
X113621Y26519D01*
X113624D01*
X113647Y26527D01*
X113675Y26535D01*
X113731Y26547D01*
X113792Y26555D01*
X113848Y26563D01*
X113902Y26565D01*
X113925D01*
X113945Y26568D01*
X114764D01*
Y24803D01*
D02*
G37*
G36*
X113150Y25425D02*
Y25226D01*
X112382D01*
Y24803D01*
X112165D01*
Y25226D01*
X111926D01*
Y25425D01*
X112165D01*
Y26568D01*
X112341D01*
X113150Y25425D01*
D02*
G37*
G36*
X40354Y13184D02*
X40423Y13172D01*
X40481Y13151D01*
X40532Y13131D01*
X40555Y13118D01*
X40573Y13108D01*
X40591Y13098D01*
X40604Y13088D01*
X40614Y13080D01*
X40622Y13075D01*
X40627Y13072D01*
X40629Y13070D01*
X40678Y13021D01*
X40716Y12968D01*
X40746Y12912D01*
X40772Y12855D01*
X40787Y12807D01*
X40795Y12787D01*
X40800Y12769D01*
X40802Y12754D01*
X40805Y12743D01*
X40808Y12736D01*
Y12733D01*
X40591Y12695D01*
X40581Y12751D01*
X40565Y12799D01*
X40547Y12840D01*
X40530Y12873D01*
X40512Y12899D01*
X40497Y12917D01*
X40486Y12930D01*
X40484Y12932D01*
X40451Y12957D01*
X40415Y12978D01*
X40382Y12991D01*
X40349Y13001D01*
X40318Y13006D01*
X40295Y13011D01*
X40275D01*
X40229Y13009D01*
X40188Y12998D01*
X40152Y12986D01*
X40122Y12973D01*
X40099Y12957D01*
X40081Y12945D01*
X40068Y12935D01*
X40066Y12932D01*
X40038Y12901D01*
X40017Y12868D01*
X40004Y12835D01*
X39994Y12804D01*
X39989Y12776D01*
X39984Y12756D01*
Y12741D01*
Y12738D01*
Y12736D01*
Y12708D01*
X39989Y12682D01*
X40002Y12639D01*
X40020Y12600D01*
X40040Y12567D01*
X40060Y12544D01*
X40078Y12527D01*
X40091Y12516D01*
X40094Y12514D01*
X40096D01*
X40139Y12491D01*
X40180Y12473D01*
X40224Y12460D01*
X40262Y12453D01*
X40295Y12448D01*
X40323Y12442D01*
X40356D01*
X40367Y12445D01*
X40379D01*
X40405Y12254D01*
X40372Y12261D01*
X40341Y12267D01*
X40315Y12272D01*
X40293Y12274D01*
X40275Y12277D01*
X40252D01*
X40198Y12272D01*
X40150Y12261D01*
X40106Y12246D01*
X40071Y12228D01*
X40043Y12210D01*
X40022Y12195D01*
X40009Y12185D01*
X40004Y12180D01*
X39971Y12141D01*
X39946Y12101D01*
X39928Y12060D01*
X39918Y12019D01*
X39910Y11986D01*
X39908Y11958D01*
X39905Y11948D01*
Y11940D01*
Y11935D01*
Y11932D01*
X39910Y11876D01*
X39923Y11825D01*
X39938Y11782D01*
X39959Y11744D01*
X39979Y11713D01*
X39994Y11690D01*
X40007Y11675D01*
X40012Y11670D01*
X40053Y11634D01*
X40096Y11609D01*
X40139Y11591D01*
X40180Y11578D01*
X40216Y11570D01*
X40244Y11568D01*
X40254Y11565D01*
X40270D01*
X40315Y11568D01*
X40359Y11578D01*
X40397Y11591D01*
X40428Y11606D01*
X40453Y11619D01*
X40474Y11631D01*
X40484Y11642D01*
X40489Y11644D01*
X40519Y11680D01*
X40545Y11721D01*
X40568Y11764D01*
X40586Y11810D01*
X40598Y11848D01*
X40604Y11866D01*
X40606Y11881D01*
X40609Y11894D01*
X40611Y11904D01*
X40614Y11909D01*
Y11912D01*
X40831Y11884D01*
X40826Y11843D01*
X40818Y11805D01*
X40795Y11733D01*
X40767Y11672D01*
X40751Y11647D01*
X40736Y11621D01*
X40721Y11598D01*
X40706Y11581D01*
X40693Y11563D01*
X40680Y11550D01*
X40672Y11540D01*
X40665Y11532D01*
X40660Y11527D01*
X40657Y11524D01*
X40627Y11502D01*
X40596Y11479D01*
X40565Y11461D01*
X40532Y11445D01*
X40468Y11420D01*
X40407Y11405D01*
X40379Y11400D01*
X40354Y11394D01*
X40331Y11392D01*
X40310Y11389D01*
X40295Y11387D01*
X40272D01*
X40224Y11389D01*
X40180Y11394D01*
X40137Y11402D01*
X40096Y11412D01*
X40058Y11425D01*
X40025Y11438D01*
X39992Y11453D01*
X39964Y11468D01*
X39935Y11481D01*
X39913Y11496D01*
X39892Y11509D01*
X39877Y11522D01*
X39864Y11532D01*
X39854Y11540D01*
X39849Y11545D01*
X39846Y11547D01*
X39816Y11578D01*
X39790Y11611D01*
X39767Y11644D01*
X39747Y11677D01*
X39731Y11708D01*
X39716Y11741D01*
X39696Y11802D01*
X39691Y11830D01*
X39686Y11856D01*
X39680Y11879D01*
X39678Y11899D01*
X39675Y11915D01*
Y11927D01*
Y11935D01*
Y11937D01*
X39678Y11999D01*
X39688Y12055D01*
X39704Y12103D01*
X39719Y12144D01*
X39734Y12177D01*
X39749Y12203D01*
X39760Y12218D01*
X39762Y12223D01*
X39798Y12261D01*
X39836Y12295D01*
X39877Y12320D01*
X39918Y12340D01*
X39953Y12356D01*
X39981Y12366D01*
X39992Y12369D01*
X39999Y12371D01*
X40004Y12374D01*
X40007D01*
X39964Y12397D01*
X39928Y12420D01*
X39897Y12445D01*
X39872Y12468D01*
X39851Y12488D01*
X39836Y12506D01*
X39828Y12516D01*
X39826Y12521D01*
X39805Y12557D01*
X39790Y12593D01*
X39777Y12629D01*
X39770Y12662D01*
X39765Y12690D01*
X39762Y12710D01*
Y12725D01*
Y12731D01*
X39765Y12774D01*
X39772Y12817D01*
X39783Y12855D01*
X39795Y12889D01*
X39808Y12917D01*
X39818Y12940D01*
X39826Y12952D01*
X39828Y12957D01*
X39854Y12996D01*
X39884Y13029D01*
X39915Y13057D01*
X39946Y13082D01*
X39971Y13100D01*
X39994Y13116D01*
X40009Y13123D01*
X40012Y13126D01*
X40015D01*
X40060Y13146D01*
X40106Y13161D01*
X40152Y13174D01*
X40193Y13182D01*
X40226Y13187D01*
X40254Y13190D01*
X40318D01*
X40354Y13184D01*
D02*
G37*
G36*
X42126Y11417D02*
X41022D01*
Y11626D01*
X41891D01*
Y13182D01*
X42126D01*
Y11417D01*
D02*
G37*
G36*
X35571Y25785D02*
X35614Y25783D01*
X35655Y25775D01*
X35693Y25768D01*
X35729Y25757D01*
X35762Y25747D01*
X35792Y25734D01*
X35821Y25722D01*
X35846Y25709D01*
X35866Y25696D01*
X35884Y25686D01*
X35900Y25676D01*
X35912Y25668D01*
X35920Y25660D01*
X35925Y25658D01*
X35928Y25655D01*
X35953Y25630D01*
X35976Y25602D01*
X35999Y25571D01*
X36017Y25541D01*
X36048Y25479D01*
X36068Y25418D01*
X36076Y25390D01*
X36083Y25362D01*
X36088Y25339D01*
X36093Y25319D01*
X36096Y25301D01*
Y25288D01*
X36099Y25280D01*
Y25278D01*
X35877Y25255D01*
X35872Y25314D01*
X35861Y25365D01*
X35846Y25411D01*
X35828Y25446D01*
X35813Y25477D01*
X35798Y25497D01*
X35787Y25510D01*
X35782Y25515D01*
X35744Y25546D01*
X35703Y25569D01*
X35660Y25587D01*
X35622Y25597D01*
X35586Y25604D01*
X35555Y25607D01*
X35545Y25609D01*
X35530D01*
X35476Y25607D01*
X35428Y25597D01*
X35387Y25581D01*
X35351Y25566D01*
X35323Y25548D01*
X35306Y25536D01*
X35293Y25525D01*
X35288Y25520D01*
X35257Y25484D01*
X35234Y25449D01*
X35216Y25413D01*
X35206Y25377D01*
X35198Y25349D01*
X35196Y25324D01*
X35193Y25309D01*
Y25306D01*
Y25304D01*
X35198Y25258D01*
X35209Y25209D01*
X35226Y25166D01*
X35244Y25125D01*
X35265Y25092D01*
X35282Y25064D01*
X35288Y25054D01*
X35293Y25046D01*
X35298Y25043D01*
Y25041D01*
X35318Y25013D01*
X35344Y24985D01*
X35372Y24954D01*
X35402Y24924D01*
X35466Y24862D01*
X35530Y24801D01*
X35563Y24773D01*
X35591Y24748D01*
X35619Y24725D01*
X35642Y24704D01*
X35660Y24689D01*
X35675Y24676D01*
X35685Y24668D01*
X35688Y24666D01*
X35752Y24612D01*
X35810Y24561D01*
X35859Y24516D01*
X35897Y24477D01*
X35930Y24444D01*
X35953Y24421D01*
X35966Y24406D01*
X35971Y24403D01*
Y24401D01*
X36007Y24358D01*
X36035Y24317D01*
X36060Y24276D01*
X36081Y24240D01*
X36096Y24209D01*
X36106Y24187D01*
X36111Y24171D01*
X36114Y24169D01*
Y24166D01*
X36124Y24138D01*
X36129Y24113D01*
X36134Y24087D01*
X36137Y24064D01*
X36139Y24044D01*
Y24028D01*
Y24018D01*
Y24016D01*
X34969D01*
Y24225D01*
X35838D01*
X35808Y24268D01*
X35792Y24286D01*
X35780Y24304D01*
X35767Y24319D01*
X35757Y24329D01*
X35749Y24337D01*
X35747Y24340D01*
X35734Y24352D01*
X35719Y24365D01*
X35683Y24398D01*
X35642Y24437D01*
X35599Y24475D01*
X35558Y24508D01*
X35540Y24523D01*
X35525Y24539D01*
X35512Y24549D01*
X35502Y24556D01*
X35497Y24561D01*
X35494Y24564D01*
X35453Y24600D01*
X35413Y24633D01*
X35377Y24666D01*
X35344Y24694D01*
X35313Y24722D01*
X35288Y24748D01*
X35262Y24771D01*
X35242Y24791D01*
X35221Y24811D01*
X35206Y24827D01*
X35193Y24839D01*
X35181Y24852D01*
X35168Y24867D01*
X35163Y24873D01*
X35127Y24916D01*
X35096Y24954D01*
X35071Y24992D01*
X35050Y25023D01*
X35035Y25051D01*
X35025Y25071D01*
X35020Y25084D01*
X35017Y25089D01*
X35002Y25128D01*
X34992Y25166D01*
X34982Y25201D01*
X34977Y25232D01*
X34974Y25260D01*
X34971Y25280D01*
Y25293D01*
Y25298D01*
X34974Y25337D01*
X34979Y25372D01*
X34984Y25408D01*
X34994Y25439D01*
X35020Y25500D01*
X35045Y25548D01*
X35061Y25571D01*
X35073Y25589D01*
X35086Y25607D01*
X35099Y25620D01*
X35109Y25630D01*
X35114Y25640D01*
X35119Y25643D01*
X35122Y25645D01*
X35150Y25671D01*
X35181Y25694D01*
X35214Y25712D01*
X35247Y25727D01*
X35313Y25752D01*
X35379Y25770D01*
X35408Y25775D01*
X35436Y25780D01*
X35461Y25783D01*
X35481Y25785D01*
X35499Y25788D01*
X35525D01*
X35571Y25785D01*
D02*
G37*
G36*
X37402Y24016D02*
X36297D01*
Y24225D01*
X37167D01*
Y25780D01*
X37402D01*
Y24016D01*
D02*
G37*
G36*
X13407Y56453D02*
X13435Y56413D01*
X13468Y56372D01*
X13499Y56336D01*
X13530Y56305D01*
X13553Y56280D01*
X13563Y56272D01*
X13570Y56265D01*
X13573Y56262D01*
X13575Y56260D01*
X13629Y56216D01*
X13682Y56175D01*
X13734Y56140D01*
X13784Y56112D01*
X13828Y56086D01*
X13846Y56076D01*
X13861Y56068D01*
X13874Y56061D01*
X13884Y56058D01*
X13889Y56053D01*
X13892D01*
Y55844D01*
X13853Y55859D01*
X13815Y55877D01*
X13777Y55895D01*
X13741Y55913D01*
X13711Y55928D01*
X13685Y55941D01*
X13670Y55951D01*
X13667Y55954D01*
X13665D01*
X13619Y55982D01*
X13578Y56010D01*
X13542Y56035D01*
X13514Y56058D01*
X13489Y56076D01*
X13473Y56091D01*
X13461Y56101D01*
X13458Y56104D01*
Y54724D01*
X13241D01*
Y56497D01*
X13382D01*
X13407Y56453D01*
D02*
G37*
G36*
X15748Y54724D02*
X15113D01*
X15054Y54727D01*
X15001Y54729D01*
X14952Y54735D01*
X14912Y54740D01*
X14876Y54745D01*
X14850Y54747D01*
X14843Y54750D01*
X14835Y54752D01*
X14830D01*
X14784Y54765D01*
X14743Y54781D01*
X14708Y54793D01*
X14677Y54809D01*
X14651Y54821D01*
X14634Y54831D01*
X14624Y54839D01*
X14618Y54842D01*
X14585Y54865D01*
X14557Y54893D01*
X14529Y54918D01*
X14506Y54944D01*
X14486Y54967D01*
X14470Y54984D01*
X14460Y54997D01*
X14458Y55002D01*
X14432Y55043D01*
X14407Y55086D01*
X14386Y55127D01*
X14371Y55168D01*
X14356Y55204D01*
X14345Y55232D01*
X14343Y55242D01*
X14340Y55250D01*
X14338Y55255D01*
Y55257D01*
X14323Y55319D01*
X14310Y55380D01*
X14302Y55438D01*
X14295Y55494D01*
X14292Y55543D01*
Y55563D01*
X14289Y55581D01*
Y55594D01*
Y55607D01*
Y55612D01*
Y55614D01*
X14292Y55701D01*
X14300Y55780D01*
X14312Y55852D01*
X14318Y55885D01*
X14325Y55913D01*
X14333Y55941D01*
X14338Y55964D01*
X14343Y55984D01*
X14351Y56002D01*
X14353Y56017D01*
X14358Y56028D01*
X14361Y56033D01*
Y56035D01*
X14389Y56101D01*
X14422Y56160D01*
X14458Y56211D01*
X14491Y56254D01*
X14522Y56290D01*
X14547Y56316D01*
X14557Y56323D01*
X14565Y56331D01*
X14567Y56334D01*
X14570Y56336D01*
X14611Y56369D01*
X14654Y56395D01*
X14697Y56418D01*
X14738Y56436D01*
X14774Y56448D01*
X14802Y56456D01*
X14812Y56461D01*
X14820D01*
X14825Y56463D01*
X14828D01*
X14871Y56471D01*
X14922Y56479D01*
X14973Y56484D01*
X15024Y56486D01*
X15070Y56489D01*
X15748D01*
Y54724D01*
D02*
G37*
G36*
X115915Y34998D02*
X115969Y34988D01*
X116017Y34972D01*
X116058Y34957D01*
X116091Y34942D01*
X116117Y34926D01*
X116132Y34916D01*
X116135Y34914D01*
X116137D01*
X116178Y34878D01*
X116214Y34840D01*
X116242Y34799D01*
X116267Y34761D01*
X116285Y34725D01*
X116298Y34694D01*
X116303Y34684D01*
X116305Y34677D01*
X116308Y34671D01*
Y34669D01*
X116328Y34715D01*
X116351Y34753D01*
X116374Y34786D01*
X116397Y34814D01*
X116418Y34835D01*
X116433Y34850D01*
X116443Y34860D01*
X116448Y34863D01*
X116484Y34886D01*
X116520Y34901D01*
X116555Y34914D01*
X116591Y34921D01*
X116619Y34926D01*
X116642Y34929D01*
X116657D01*
X116660D01*
X116663D01*
X116698Y34926D01*
X116731Y34924D01*
X116795Y34906D01*
X116851Y34883D01*
X116900Y34857D01*
X116938Y34832D01*
X116953Y34819D01*
X116969Y34809D01*
X116979Y34799D01*
X116986Y34791D01*
X116989Y34789D01*
X116991Y34786D01*
X117014Y34758D01*
X117037Y34730D01*
X117055Y34699D01*
X117070Y34669D01*
X117093Y34608D01*
X117109Y34546D01*
X117116Y34521D01*
X117119Y34495D01*
X117122Y34473D01*
X117124Y34452D01*
X117127Y34437D01*
Y34414D01*
X117124Y34373D01*
X117122Y34332D01*
X117106Y34261D01*
X117096Y34228D01*
X117086Y34197D01*
X117073Y34169D01*
X117060Y34143D01*
X117048Y34123D01*
X117035Y34103D01*
X117025Y34085D01*
X117014Y34072D01*
X117007Y34062D01*
X116999Y34054D01*
X116997Y34049D01*
X116994Y34047D01*
X116969Y34024D01*
X116943Y34001D01*
X116915Y33983D01*
X116887Y33968D01*
X116833Y33942D01*
X116782Y33927D01*
X116739Y33917D01*
X116719Y33914D01*
X116703Y33911D01*
X116688Y33909D01*
X116678D01*
X116673D01*
X116670D01*
X116624Y33911D01*
X116581Y33919D01*
X116543Y33929D01*
X116509Y33942D01*
X116484Y33952D01*
X116464Y33963D01*
X116453Y33970D01*
X116448Y33973D01*
X116418Y34001D01*
X116390Y34031D01*
X116364Y34064D01*
X116344Y34098D01*
X116328Y34128D01*
X116318Y34151D01*
X116313Y34161D01*
X116311Y34169D01*
X116308Y34172D01*
Y34174D01*
X116290Y34115D01*
X116267Y34067D01*
X116239Y34024D01*
X116214Y33988D01*
X116188Y33960D01*
X116168Y33939D01*
X116155Y33929D01*
X116153Y33924D01*
X116150D01*
X116104Y33896D01*
X116056Y33873D01*
X116010Y33858D01*
X115964Y33848D01*
X115923Y33843D01*
X115905Y33840D01*
X115890D01*
X115880Y33838D01*
X115869D01*
X115864D01*
X115862D01*
X115821Y33840D01*
X115780Y33845D01*
X115742Y33853D01*
X115704Y33863D01*
X115640Y33889D01*
X115609Y33901D01*
X115584Y33917D01*
X115558Y33932D01*
X115538Y33945D01*
X115520Y33960D01*
X115505Y33970D01*
X115492Y33980D01*
X115484Y33988D01*
X115479Y33993D01*
X115477Y33996D01*
X115449Y34026D01*
X115426Y34059D01*
X115405Y34095D01*
X115387Y34131D01*
X115375Y34164D01*
X115362Y34200D01*
X115344Y34269D01*
X115337Y34299D01*
X115331Y34327D01*
X115329Y34353D01*
X115326Y34376D01*
X115324Y34393D01*
Y34419D01*
X115326Y34467D01*
X115331Y34511D01*
X115339Y34554D01*
X115347Y34595D01*
X115359Y34631D01*
X115372Y34666D01*
X115385Y34699D01*
X115400Y34727D01*
X115416Y34753D01*
X115428Y34776D01*
X115441Y34794D01*
X115454Y34812D01*
X115461Y34824D01*
X115469Y34832D01*
X115474Y34837D01*
X115477Y34840D01*
X115507Y34868D01*
X115538Y34893D01*
X115568Y34914D01*
X115602Y34931D01*
X115632Y34949D01*
X115665Y34962D01*
X115724Y34980D01*
X115752Y34988D01*
X115778Y34993D01*
X115801Y34995D01*
X115818Y34998D01*
X115834Y35000D01*
X115847D01*
X115854D01*
X115857D01*
X115915Y34998D01*
D02*
G37*
G36*
X117127Y33144D02*
X117083Y33118D01*
X117042Y33090D01*
X117002Y33057D01*
X116966Y33027D01*
X116935Y32996D01*
X116910Y32973D01*
X116902Y32963D01*
X116894Y32955D01*
X116892Y32953D01*
X116889Y32950D01*
X116846Y32897D01*
X116805Y32843D01*
X116770Y32792D01*
X116742Y32741D01*
X116716Y32698D01*
X116706Y32680D01*
X116698Y32664D01*
X116691Y32652D01*
X116688Y32642D01*
X116683Y32636D01*
Y32634D01*
X116474D01*
X116489Y32672D01*
X116507Y32710D01*
X116525Y32749D01*
X116543Y32784D01*
X116558Y32815D01*
X116571Y32840D01*
X116581Y32856D01*
X116583Y32858D01*
Y32861D01*
X116612Y32907D01*
X116639Y32948D01*
X116665Y32983D01*
X116688Y33011D01*
X116706Y33037D01*
X116721Y33052D01*
X116731Y33065D01*
X116734Y33067D01*
X115354D01*
Y33284D01*
X117127D01*
Y33144D01*
D02*
G37*
G36*
X115971Y32035D02*
X115931Y32024D01*
X115892Y32012D01*
X115857Y31999D01*
X115823Y31986D01*
X115793Y31971D01*
X115767Y31956D01*
X115742Y31938D01*
X115719Y31923D01*
X115699Y31910D01*
X115683Y31894D01*
X115668Y31882D01*
X115655Y31872D01*
X115648Y31861D01*
X115640Y31854D01*
X115637Y31851D01*
X115635Y31848D01*
X115614Y31823D01*
X115599Y31795D01*
X115571Y31739D01*
X115551Y31685D01*
X115538Y31632D01*
X115528Y31586D01*
X115525Y31568D01*
Y31550D01*
X115523Y31535D01*
Y31517D01*
X115525Y31458D01*
X115535Y31402D01*
X115548Y31351D01*
X115563Y31305D01*
X115579Y31270D01*
X115586Y31254D01*
X115592Y31242D01*
X115597Y31231D01*
X115602Y31224D01*
X115604Y31219D01*
Y31216D01*
X115640Y31168D01*
X115678Y31127D01*
X115721Y31091D01*
X115762Y31063D01*
X115798Y31040D01*
X115829Y31025D01*
X115841Y31020D01*
X115849Y31015D01*
X115854Y31012D01*
X115857D01*
X115923Y30992D01*
X115989Y30976D01*
X116056Y30964D01*
X116117Y30956D01*
X116145Y30953D01*
X116170Y30951D01*
X116193D01*
X116211Y30948D01*
X116226D01*
X116239D01*
X116247D01*
X116249D01*
X116316Y30951D01*
X116377Y30956D01*
X116433Y30966D01*
X116484Y30976D01*
X116527Y30984D01*
X116545Y30989D01*
X116560Y30994D01*
X116573Y30997D01*
X116581Y30999D01*
X116586Y31002D01*
X116588D01*
X116647Y31027D01*
X116701Y31056D01*
X116744Y31086D01*
X116782Y31119D01*
X116813Y31147D01*
X116833Y31170D01*
X116846Y31188D01*
X116851Y31191D01*
Y31193D01*
X116884Y31247D01*
X116910Y31305D01*
X116928Y31361D01*
X116938Y31415D01*
X116946Y31464D01*
X116948Y31484D01*
Y31502D01*
X116951Y31514D01*
Y31535D01*
X116948Y31599D01*
X116938Y31657D01*
X116923Y31706D01*
X116907Y31749D01*
X116889Y31782D01*
X116877Y31808D01*
X116867Y31823D01*
X116861Y31828D01*
X116823Y31869D01*
X116780Y31907D01*
X116734Y31938D01*
X116688Y31963D01*
X116647Y31984D01*
X116627Y31991D01*
X116612Y31996D01*
X116599Y32002D01*
X116588Y32007D01*
X116583Y32009D01*
X116581D01*
X116634Y32239D01*
X116680Y32223D01*
X116721Y32208D01*
X116759Y32188D01*
X116798Y32170D01*
X116831Y32149D01*
X116861Y32127D01*
X116892Y32106D01*
X116918Y32086D01*
X116938Y32065D01*
X116958Y32047D01*
X116976Y32030D01*
X116989Y32017D01*
X117002Y32004D01*
X117009Y31994D01*
X117012Y31989D01*
X117014Y31986D01*
X117037Y31951D01*
X117060Y31915D01*
X117078Y31879D01*
X117093Y31841D01*
X117116Y31764D01*
X117132Y31696D01*
X117139Y31662D01*
X117142Y31634D01*
X117144Y31606D01*
X117147Y31583D01*
X117149Y31565D01*
Y31540D01*
X117144Y31456D01*
X117132Y31374D01*
X117116Y31303D01*
X117106Y31270D01*
X117096Y31239D01*
X117086Y31211D01*
X117076Y31185D01*
X117068Y31165D01*
X117060Y31145D01*
X117053Y31132D01*
X117048Y31122D01*
X117045Y31114D01*
X117042Y31112D01*
X116999Y31043D01*
X116948Y30984D01*
X116897Y30933D01*
X116846Y30890D01*
X116800Y30857D01*
X116780Y30844D01*
X116762Y30834D01*
X116749Y30823D01*
X116739Y30818D01*
X116731Y30816D01*
X116729Y30813D01*
X116650Y30777D01*
X116568Y30752D01*
X116487Y30734D01*
X116413Y30721D01*
X116379Y30716D01*
X116346Y30714D01*
X116321Y30711D01*
X116295D01*
X116277Y30709D01*
X116262D01*
X116252D01*
X116249D01*
X116158Y30714D01*
X116068Y30724D01*
X115989Y30737D01*
X115951Y30747D01*
X115918Y30755D01*
X115887Y30762D01*
X115859Y30772D01*
X115834Y30780D01*
X115813Y30785D01*
X115798Y30793D01*
X115785Y30795D01*
X115778Y30801D01*
X115775D01*
X115699Y30839D01*
X115630Y30882D01*
X115571Y30928D01*
X115548Y30951D01*
X115525Y30971D01*
X115505Y30992D01*
X115487Y31012D01*
X115472Y31030D01*
X115461Y31045D01*
X115451Y31056D01*
X115444Y31066D01*
X115441Y31071D01*
X115438Y31073D01*
X115418Y31109D01*
X115400Y31145D01*
X115372Y31221D01*
X115352Y31298D01*
X115339Y31372D01*
X115334Y31407D01*
X115329Y31438D01*
X115326Y31466D01*
Y31489D01*
X115324Y31509D01*
Y31537D01*
X115326Y31588D01*
X115331Y31637D01*
X115337Y31683D01*
X115347Y31726D01*
X115359Y31767D01*
X115372Y31805D01*
X115385Y31841D01*
X115400Y31874D01*
X115413Y31902D01*
X115426Y31930D01*
X115438Y31951D01*
X115451Y31971D01*
X115461Y31984D01*
X115466Y31996D01*
X115472Y32002D01*
X115474Y32004D01*
X115505Y32040D01*
X115535Y32070D01*
X115571Y32098D01*
X115607Y32127D01*
X115678Y32172D01*
X115750Y32208D01*
X115783Y32223D01*
X115813Y32236D01*
X115841Y32246D01*
X115864Y32254D01*
X115885Y32262D01*
X115900Y32267D01*
X115910Y32269D01*
X115913D01*
X115971Y32035D01*
D02*
G37*
G36*
X135386Y42674D02*
X135414Y42633D01*
X135447Y42592D01*
X135477Y42557D01*
X135508Y42526D01*
X135531Y42500D01*
X135541Y42493D01*
X135549Y42485D01*
X135551Y42483D01*
X135554Y42480D01*
X135607Y42437D01*
X135661Y42396D01*
X135712Y42360D01*
X135763Y42332D01*
X135806Y42307D01*
X135824Y42296D01*
X135839Y42289D01*
X135852Y42281D01*
X135862Y42279D01*
X135868Y42273D01*
X135870D01*
Y42064D01*
X135832Y42080D01*
X135793Y42097D01*
X135755Y42115D01*
X135720Y42133D01*
X135689Y42149D01*
X135663Y42161D01*
X135648Y42171D01*
X135646Y42174D01*
X135643D01*
X135597Y42202D01*
X135556Y42230D01*
X135521Y42256D01*
X135493Y42279D01*
X135467Y42296D01*
X135452Y42312D01*
X135439Y42322D01*
X135436Y42324D01*
Y40945D01*
X135220D01*
Y42717D01*
X135360D01*
X135386Y42674D01*
D02*
G37*
G36*
X137048Y42735D02*
X137130Y42722D01*
X137201Y42707D01*
X137234Y42697D01*
X137265Y42687D01*
X137293Y42676D01*
X137318Y42666D01*
X137339Y42658D01*
X137359Y42651D01*
X137372Y42643D01*
X137382Y42638D01*
X137390Y42636D01*
X137392Y42633D01*
X137461Y42590D01*
X137520Y42539D01*
X137571Y42488D01*
X137614Y42437D01*
X137647Y42391D01*
X137660Y42370D01*
X137670Y42353D01*
X137680Y42340D01*
X137686Y42329D01*
X137688Y42322D01*
X137691Y42319D01*
X137726Y42240D01*
X137752Y42159D01*
X137770Y42077D01*
X137783Y42003D01*
X137788Y41970D01*
X137790Y41937D01*
X137793Y41911D01*
Y41886D01*
X137795Y41868D01*
Y41853D01*
Y41842D01*
Y41840D01*
X137790Y41748D01*
X137780Y41659D01*
X137767Y41580D01*
X137757Y41542D01*
X137749Y41508D01*
X137742Y41478D01*
X137732Y41450D01*
X137724Y41424D01*
X137719Y41404D01*
X137711Y41389D01*
X137709Y41376D01*
X137704Y41368D01*
Y41366D01*
X137665Y41289D01*
X137622Y41220D01*
X137576Y41162D01*
X137553Y41139D01*
X137533Y41116D01*
X137512Y41095D01*
X137492Y41078D01*
X137474Y41062D01*
X137459Y41052D01*
X137449Y41042D01*
X137438Y41034D01*
X137433Y41032D01*
X137431Y41029D01*
X137395Y41009D01*
X137359Y40991D01*
X137283Y40963D01*
X137206Y40942D01*
X137132Y40930D01*
X137097Y40925D01*
X137066Y40919D01*
X137038Y40917D01*
X137015D01*
X136995Y40914D01*
X136967D01*
X136916Y40917D01*
X136867Y40922D01*
X136821Y40927D01*
X136778Y40937D01*
X136737Y40950D01*
X136699Y40963D01*
X136663Y40975D01*
X136630Y40991D01*
X136602Y41004D01*
X136574Y41016D01*
X136553Y41029D01*
X136533Y41042D01*
X136520Y41052D01*
X136507Y41057D01*
X136502Y41062D01*
X136500Y41065D01*
X136464Y41095D01*
X136434Y41126D01*
X136406Y41162D01*
X136378Y41197D01*
X136332Y41269D01*
X136296Y41340D01*
X136281Y41373D01*
X136268Y41404D01*
X136258Y41432D01*
X136250Y41455D01*
X136242Y41475D01*
X136237Y41491D01*
X136235Y41501D01*
Y41503D01*
X136469Y41562D01*
X136479Y41521D01*
X136492Y41483D01*
X136505Y41447D01*
X136518Y41414D01*
X136533Y41383D01*
X136548Y41358D01*
X136566Y41333D01*
X136582Y41309D01*
X136594Y41289D01*
X136609Y41274D01*
X136622Y41258D01*
X136633Y41246D01*
X136643Y41238D01*
X136650Y41230D01*
X136653Y41228D01*
X136655Y41225D01*
X136681Y41205D01*
X136709Y41190D01*
X136765Y41162D01*
X136819Y41141D01*
X136872Y41129D01*
X136918Y41118D01*
X136936Y41116D01*
X136954D01*
X136969Y41113D01*
X136987D01*
X137046Y41116D01*
X137102Y41126D01*
X137153Y41139D01*
X137199Y41154D01*
X137234Y41169D01*
X137250Y41177D01*
X137262Y41182D01*
X137273Y41187D01*
X137280Y41192D01*
X137285Y41195D01*
X137288D01*
X137336Y41230D01*
X137377Y41269D01*
X137413Y41312D01*
X137441Y41353D01*
X137464Y41389D01*
X137479Y41419D01*
X137484Y41432D01*
X137489Y41440D01*
X137492Y41445D01*
Y41447D01*
X137512Y41513D01*
X137528Y41580D01*
X137540Y41646D01*
X137548Y41707D01*
X137550Y41735D01*
X137553Y41761D01*
Y41784D01*
X137556Y41802D01*
Y41817D01*
Y41830D01*
Y41837D01*
Y41840D01*
X137553Y41906D01*
X137548Y41967D01*
X137538Y42024D01*
X137528Y42074D01*
X137520Y42118D01*
X137515Y42136D01*
X137510Y42151D01*
X137507Y42164D01*
X137505Y42171D01*
X137502Y42176D01*
Y42179D01*
X137477Y42238D01*
X137449Y42291D01*
X137418Y42335D01*
X137385Y42373D01*
X137357Y42404D01*
X137334Y42424D01*
X137316Y42437D01*
X137313Y42442D01*
X137311D01*
X137257Y42475D01*
X137199Y42500D01*
X137143Y42518D01*
X137089Y42528D01*
X137040Y42536D01*
X137020Y42539D01*
X137002D01*
X136989Y42541D01*
X136969D01*
X136905Y42539D01*
X136847Y42528D01*
X136798Y42513D01*
X136755Y42498D01*
X136722Y42480D01*
X136696Y42467D01*
X136681Y42457D01*
X136676Y42452D01*
X136635Y42414D01*
X136597Y42370D01*
X136566Y42324D01*
X136541Y42279D01*
X136520Y42238D01*
X136513Y42217D01*
X136507Y42202D01*
X136502Y42189D01*
X136497Y42179D01*
X136495Y42174D01*
Y42171D01*
X136265Y42225D01*
X136281Y42271D01*
X136296Y42312D01*
X136316Y42350D01*
X136334Y42388D01*
X136354Y42421D01*
X136378Y42452D01*
X136398Y42483D01*
X136418Y42508D01*
X136439Y42528D01*
X136457Y42549D01*
X136474Y42567D01*
X136487Y42579D01*
X136500Y42592D01*
X136510Y42600D01*
X136515Y42602D01*
X136518Y42605D01*
X136553Y42628D01*
X136589Y42651D01*
X136625Y42669D01*
X136663Y42684D01*
X136740Y42707D01*
X136808Y42722D01*
X136842Y42730D01*
X136870Y42732D01*
X136898Y42735D01*
X136921Y42737D01*
X136939Y42740D01*
X136964D01*
X137048Y42735D01*
D02*
G37*
G36*
X134649Y42477D02*
X133784D01*
X133845Y42404D01*
X133904Y42324D01*
X133955Y42248D01*
X134003Y42174D01*
X134024Y42141D01*
X134042Y42110D01*
X134060Y42082D01*
X134072Y42059D01*
X134082Y42039D01*
X134090Y42026D01*
X134095Y42016D01*
X134098Y42013D01*
X134149Y41911D01*
X134195Y41809D01*
X134233Y41712D01*
X134248Y41669D01*
X134264Y41626D01*
X134279Y41587D01*
X134289Y41552D01*
X134299Y41521D01*
X134307Y41496D01*
X134315Y41473D01*
X134320Y41457D01*
X134322Y41447D01*
Y41445D01*
X134348Y41340D01*
X134358Y41289D01*
X134365Y41243D01*
X134373Y41200D01*
X134381Y41157D01*
X134386Y41121D01*
X134391Y41085D01*
X134394Y41054D01*
X134396Y41026D01*
X134399Y41001D01*
Y40981D01*
X134401Y40965D01*
Y40955D01*
Y40947D01*
Y40945D01*
X134179D01*
X134172Y41042D01*
X134159Y41131D01*
X134146Y41213D01*
X134139Y41251D01*
X134131Y41287D01*
X134126Y41317D01*
X134118Y41345D01*
X134113Y41371D01*
X134108Y41391D01*
X134103Y41406D01*
X134100Y41419D01*
X134098Y41427D01*
Y41429D01*
X134060Y41547D01*
X134019Y41656D01*
X133998Y41710D01*
X133978Y41761D01*
X133955Y41807D01*
X133935Y41853D01*
X133917Y41894D01*
X133899Y41929D01*
X133884Y41960D01*
X133871Y41988D01*
X133858Y42011D01*
X133850Y42026D01*
X133845Y42036D01*
X133843Y42039D01*
X133812Y42092D01*
X133782Y42146D01*
X133751Y42194D01*
X133720Y42240D01*
X133692Y42281D01*
X133664Y42322D01*
X133636Y42358D01*
X133613Y42388D01*
X133590Y42419D01*
X133570Y42444D01*
X133549Y42465D01*
X133534Y42483D01*
X133524Y42498D01*
X133514Y42508D01*
X133509Y42513D01*
X133506Y42516D01*
Y42687D01*
X134649D01*
Y42477D01*
D02*
G37*
G36*
X43653Y41231D02*
X43681Y41190D01*
X43714Y41149D01*
X43745Y41114D01*
X43776Y41083D01*
X43799Y41058D01*
X43809Y41050D01*
X43816Y41042D01*
X43819Y41040D01*
X43821Y41037D01*
X43875Y40994D01*
X43929Y40953D01*
X43980Y40917D01*
X44031Y40889D01*
X44074Y40864D01*
X44092Y40854D01*
X44107Y40846D01*
X44120Y40838D01*
X44130Y40836D01*
X44135Y40830D01*
X44138D01*
Y40621D01*
X44100Y40637D01*
X44061Y40655D01*
X44023Y40672D01*
X43987Y40690D01*
X43957Y40706D01*
X43931Y40718D01*
X43916Y40729D01*
X43913Y40731D01*
X43911D01*
X43865Y40759D01*
X43824Y40787D01*
X43788Y40813D01*
X43760Y40836D01*
X43735Y40854D01*
X43720Y40869D01*
X43707Y40879D01*
X43704Y40881D01*
Y39502D01*
X43488D01*
Y41274D01*
X43628D01*
X43653Y41231D01*
D02*
G37*
G36*
X42893Y40336D02*
X42689Y40308D01*
X42671Y40336D01*
X42649Y40359D01*
X42628Y40382D01*
X42608Y40400D01*
X42587Y40412D01*
X42572Y40425D01*
X42562Y40430D01*
X42559Y40433D01*
X42526Y40448D01*
X42493Y40461D01*
X42462Y40468D01*
X42432Y40476D01*
X42406Y40479D01*
X42386Y40481D01*
X42337D01*
X42307Y40476D01*
X42253Y40463D01*
X42207Y40446D01*
X42167Y40428D01*
X42136Y40407D01*
X42113Y40389D01*
X42100Y40377D01*
X42095Y40374D01*
Y40372D01*
X42059Y40328D01*
X42034Y40282D01*
X42016Y40234D01*
X42003Y40185D01*
X41996Y40145D01*
X41993Y40127D01*
Y40111D01*
X41991Y40099D01*
Y40088D01*
Y40083D01*
Y40081D01*
Y40045D01*
X41996Y40012D01*
X42009Y39948D01*
X42026Y39895D01*
X42044Y39851D01*
X42065Y39816D01*
X42082Y39788D01*
X42090Y39780D01*
X42095Y39772D01*
X42098Y39770D01*
X42100Y39767D01*
X42121Y39747D01*
X42141Y39729D01*
X42187Y39698D01*
X42230Y39678D01*
X42274Y39665D01*
X42309Y39655D01*
X42340Y39652D01*
X42350Y39650D01*
X42366D01*
X42414Y39652D01*
X42457Y39663D01*
X42496Y39675D01*
X42526Y39691D01*
X42554Y39706D01*
X42575Y39719D01*
X42585Y39729D01*
X42590Y39731D01*
X42621Y39767D01*
X42646Y39805D01*
X42666Y39849D01*
X42682Y39887D01*
X42692Y39925D01*
X42700Y39953D01*
X42702Y39966D01*
X42705Y39974D01*
Y39979D01*
Y39981D01*
X42932Y39963D01*
X42926Y39923D01*
X42919Y39884D01*
X42896Y39813D01*
X42868Y39752D01*
X42853Y39724D01*
X42837Y39701D01*
X42825Y39678D01*
X42809Y39658D01*
X42796Y39642D01*
X42784Y39630D01*
X42774Y39619D01*
X42768Y39609D01*
X42763Y39606D01*
X42761Y39604D01*
X42730Y39581D01*
X42700Y39561D01*
X42666Y39543D01*
X42633Y39527D01*
X42570Y39505D01*
X42506Y39489D01*
X42478Y39482D01*
X42450Y39479D01*
X42427Y39476D01*
X42406Y39474D01*
X42388Y39471D01*
X42366D01*
X42312Y39474D01*
X42261Y39482D01*
X42213Y39492D01*
X42169Y39505D01*
X42128Y39522D01*
X42090Y39540D01*
X42054Y39558D01*
X42024Y39579D01*
X41996Y39599D01*
X41970Y39617D01*
X41950Y39637D01*
X41932Y39652D01*
X41919Y39665D01*
X41909Y39675D01*
X41904Y39683D01*
X41901Y39686D01*
X41876Y39719D01*
X41855Y39754D01*
X41835Y39788D01*
X41820Y39823D01*
X41794Y39892D01*
X41779Y39958D01*
X41774Y39987D01*
X41769Y40014D01*
X41766Y40038D01*
X41764Y40058D01*
X41761Y40076D01*
Y40088D01*
Y40096D01*
Y40099D01*
X41764Y40145D01*
X41769Y40188D01*
X41776Y40231D01*
X41787Y40270D01*
X41799Y40305D01*
X41812Y40341D01*
X41827Y40372D01*
X41840Y40400D01*
X41855Y40425D01*
X41871Y40448D01*
X41884Y40466D01*
X41896Y40484D01*
X41906Y40497D01*
X41914Y40504D01*
X41919Y40509D01*
X41922Y40512D01*
X41952Y40540D01*
X41983Y40565D01*
X42016Y40586D01*
X42049Y40604D01*
X42082Y40621D01*
X42116Y40634D01*
X42177Y40652D01*
X42205Y40660D01*
X42230Y40665D01*
X42253Y40667D01*
X42274Y40670D01*
X42289Y40672D01*
X42345D01*
X42376Y40667D01*
X42437Y40655D01*
X42493Y40637D01*
X42544Y40616D01*
X42585Y40596D01*
X42603Y40586D01*
X42618Y40578D01*
X42631Y40570D01*
X42638Y40565D01*
X42643Y40563D01*
X42646Y40560D01*
X42552Y41037D01*
X41845D01*
Y41244D01*
X42722D01*
X42893Y40336D01*
D02*
G37*
G36*
X45316Y41292D02*
X45397Y41279D01*
X45469Y41264D01*
X45502Y41254D01*
X45533Y41244D01*
X45561Y41233D01*
X45586Y41223D01*
X45606Y41216D01*
X45627Y41208D01*
X45640Y41200D01*
X45650Y41195D01*
X45658Y41193D01*
X45660Y41190D01*
X45729Y41147D01*
X45788Y41096D01*
X45839Y41045D01*
X45882Y40994D01*
X45915Y40948D01*
X45928Y40927D01*
X45938Y40910D01*
X45948Y40897D01*
X45953Y40887D01*
X45956Y40879D01*
X45958Y40876D01*
X45994Y40797D01*
X46020Y40716D01*
X46038Y40634D01*
X46050Y40560D01*
X46055Y40527D01*
X46058Y40494D01*
X46060Y40468D01*
Y40443D01*
X46063Y40425D01*
Y40410D01*
Y40400D01*
Y40397D01*
X46058Y40305D01*
X46048Y40216D01*
X46035Y40137D01*
X46025Y40099D01*
X46017Y40066D01*
X46009Y40035D01*
X45999Y40007D01*
X45992Y39981D01*
X45987Y39961D01*
X45979Y39946D01*
X45976Y39933D01*
X45971Y39925D01*
Y39923D01*
X45933Y39846D01*
X45890Y39777D01*
X45844Y39719D01*
X45821Y39696D01*
X45800Y39673D01*
X45780Y39652D01*
X45759Y39635D01*
X45742Y39619D01*
X45726Y39609D01*
X45716Y39599D01*
X45706Y39591D01*
X45701Y39589D01*
X45698Y39586D01*
X45663Y39566D01*
X45627Y39548D01*
X45550Y39520D01*
X45474Y39499D01*
X45400Y39487D01*
X45364Y39482D01*
X45334Y39476D01*
X45306Y39474D01*
X45283D01*
X45262Y39471D01*
X45234D01*
X45183Y39474D01*
X45135Y39479D01*
X45089Y39484D01*
X45046Y39494D01*
X45005Y39507D01*
X44967Y39520D01*
X44931Y39533D01*
X44898Y39548D01*
X44870Y39561D01*
X44842Y39573D01*
X44821Y39586D01*
X44801Y39599D01*
X44788Y39609D01*
X44775Y39614D01*
X44770Y39619D01*
X44768Y39622D01*
X44732Y39652D01*
X44701Y39683D01*
X44673Y39719D01*
X44645Y39754D01*
X44599Y39826D01*
X44564Y39897D01*
X44548Y39930D01*
X44535Y39961D01*
X44525Y39989D01*
X44518Y40012D01*
X44510Y40032D01*
X44505Y40048D01*
X44502Y40058D01*
Y40060D01*
X44737Y40119D01*
X44747Y40078D01*
X44760Y40040D01*
X44773Y40004D01*
X44785Y39971D01*
X44801Y39941D01*
X44816Y39915D01*
X44834Y39890D01*
X44849Y39867D01*
X44862Y39846D01*
X44877Y39831D01*
X44890Y39816D01*
X44900Y39803D01*
X44910Y39795D01*
X44918Y39788D01*
X44921Y39785D01*
X44923Y39783D01*
X44949Y39762D01*
X44977Y39747D01*
X45033Y39719D01*
X45086Y39698D01*
X45140Y39686D01*
X45186Y39675D01*
X45204Y39673D01*
X45221D01*
X45237Y39670D01*
X45255D01*
X45313Y39673D01*
X45369Y39683D01*
X45420Y39696D01*
X45466Y39711D01*
X45502Y39726D01*
X45517Y39734D01*
X45530Y39739D01*
X45540Y39744D01*
X45548Y39749D01*
X45553Y39752D01*
X45555D01*
X45604Y39788D01*
X45645Y39826D01*
X45680Y39869D01*
X45709Y39910D01*
X45731Y39946D01*
X45747Y39976D01*
X45752Y39989D01*
X45757Y39997D01*
X45759Y40002D01*
Y40004D01*
X45780Y40071D01*
X45795Y40137D01*
X45808Y40203D01*
X45816Y40264D01*
X45818Y40293D01*
X45821Y40318D01*
Y40341D01*
X45823Y40359D01*
Y40374D01*
Y40387D01*
Y40394D01*
Y40397D01*
X45821Y40463D01*
X45816Y40525D01*
X45805Y40581D01*
X45795Y40632D01*
X45788Y40675D01*
X45783Y40693D01*
X45777Y40708D01*
X45775Y40721D01*
X45772Y40729D01*
X45770Y40734D01*
Y40736D01*
X45744Y40795D01*
X45716Y40848D01*
X45686Y40892D01*
X45652Y40930D01*
X45624Y40961D01*
X45601Y40981D01*
X45584Y40994D01*
X45581Y40999D01*
X45579D01*
X45525Y41032D01*
X45466Y41058D01*
X45410Y41075D01*
X45357Y41085D01*
X45308Y41093D01*
X45288Y41096D01*
X45270D01*
X45257Y41098D01*
X45237D01*
X45173Y41096D01*
X45114Y41085D01*
X45066Y41070D01*
X45023Y41055D01*
X44989Y41037D01*
X44964Y41024D01*
X44949Y41014D01*
X44943Y41009D01*
X44903Y40971D01*
X44864Y40927D01*
X44834Y40881D01*
X44808Y40836D01*
X44788Y40795D01*
X44780Y40774D01*
X44775Y40759D01*
X44770Y40746D01*
X44765Y40736D01*
X44763Y40731D01*
Y40729D01*
X44533Y40782D01*
X44548Y40828D01*
X44564Y40869D01*
X44584Y40907D01*
X44602Y40945D01*
X44622Y40978D01*
X44645Y41009D01*
X44666Y41040D01*
X44686Y41065D01*
X44706Y41085D01*
X44724Y41106D01*
X44742Y41124D01*
X44755Y41137D01*
X44768Y41149D01*
X44778Y41157D01*
X44783Y41159D01*
X44785Y41162D01*
X44821Y41185D01*
X44857Y41208D01*
X44892Y41226D01*
X44931Y41241D01*
X45007Y41264D01*
X45076Y41279D01*
X45109Y41287D01*
X45137Y41289D01*
X45165Y41292D01*
X45188Y41295D01*
X45206Y41297D01*
X45232D01*
X45316Y41292D01*
D02*
G37*
G36*
X66882Y57241D02*
X66910Y57200D01*
X66943Y57159D01*
X66973Y57123D01*
X67004Y57093D01*
X67027Y57067D01*
X67037Y57060D01*
X67045Y57052D01*
X67047Y57050D01*
X67050Y57047D01*
X67103Y57004D01*
X67157Y56963D01*
X67208Y56927D01*
X67259Y56899D01*
X67302Y56874D01*
X67320Y56863D01*
X67335Y56856D01*
X67348Y56848D01*
X67358Y56845D01*
X67364Y56840D01*
X67366D01*
Y56631D01*
X67328Y56647D01*
X67290Y56664D01*
X67251Y56682D01*
X67216Y56700D01*
X67185Y56715D01*
X67159Y56728D01*
X67144Y56738D01*
X67142Y56741D01*
X67139D01*
X67093Y56769D01*
X67052Y56797D01*
X67017Y56823D01*
X66989Y56845D01*
X66963Y56863D01*
X66948Y56879D01*
X66935Y56889D01*
X66933Y56891D01*
Y55512D01*
X66716D01*
Y57284D01*
X66856D01*
X66882Y57241D01*
D02*
G37*
G36*
X68544Y57302D02*
X68626Y57289D01*
X68697Y57274D01*
X68730Y57264D01*
X68761Y57253D01*
X68789Y57243D01*
X68814Y57233D01*
X68835Y57225D01*
X68855Y57218D01*
X68868Y57210D01*
X68878Y57205D01*
X68886Y57203D01*
X68888Y57200D01*
X68957Y57157D01*
X69016Y57106D01*
X69067Y57055D01*
X69110Y57004D01*
X69143Y56958D01*
X69156Y56937D01*
X69166Y56919D01*
X69177Y56907D01*
X69182Y56897D01*
X69184Y56889D01*
X69187Y56886D01*
X69222Y56807D01*
X69248Y56726D01*
X69266Y56644D01*
X69279Y56570D01*
X69284Y56537D01*
X69286Y56504D01*
X69289Y56478D01*
Y56453D01*
X69291Y56435D01*
Y56420D01*
Y56409D01*
Y56407D01*
X69286Y56315D01*
X69276Y56226D01*
X69263Y56147D01*
X69253Y56108D01*
X69245Y56075D01*
X69238Y56045D01*
X69228Y56017D01*
X69220Y55991D01*
X69215Y55971D01*
X69207Y55955D01*
X69205Y55943D01*
X69200Y55935D01*
Y55933D01*
X69161Y55856D01*
X69118Y55787D01*
X69072Y55729D01*
X69049Y55706D01*
X69029Y55683D01*
X69008Y55662D01*
X68988Y55644D01*
X68970Y55629D01*
X68955Y55619D01*
X68945Y55609D01*
X68934Y55601D01*
X68929Y55598D01*
X68927Y55596D01*
X68891Y55576D01*
X68855Y55558D01*
X68779Y55530D01*
X68702Y55509D01*
X68628Y55497D01*
X68593Y55491D01*
X68562Y55486D01*
X68534Y55484D01*
X68511D01*
X68491Y55481D01*
X68463D01*
X68412Y55484D01*
X68363Y55489D01*
X68317Y55494D01*
X68274Y55504D01*
X68233Y55517D01*
X68195Y55530D01*
X68159Y55542D01*
X68126Y55558D01*
X68098Y55571D01*
X68070Y55583D01*
X68050Y55596D01*
X68029Y55609D01*
X68016Y55619D01*
X68004Y55624D01*
X67998Y55629D01*
X67996Y55632D01*
X67960Y55662D01*
X67930Y55693D01*
X67902Y55729D01*
X67874Y55764D01*
X67828Y55836D01*
X67792Y55907D01*
X67777Y55940D01*
X67764Y55971D01*
X67754Y55999D01*
X67746Y56022D01*
X67738Y56042D01*
X67733Y56058D01*
X67731Y56068D01*
Y56070D01*
X67965Y56129D01*
X67975Y56088D01*
X67988Y56050D01*
X68001Y56014D01*
X68014Y55981D01*
X68029Y55950D01*
X68044Y55925D01*
X68062Y55899D01*
X68077Y55876D01*
X68090Y55856D01*
X68106Y55841D01*
X68118Y55826D01*
X68129Y55813D01*
X68139Y55805D01*
X68146Y55797D01*
X68149Y55795D01*
X68151Y55792D01*
X68177Y55772D01*
X68205Y55757D01*
X68261Y55729D01*
X68315Y55708D01*
X68368Y55695D01*
X68414Y55685D01*
X68432Y55683D01*
X68450D01*
X68465Y55680D01*
X68483D01*
X68542Y55683D01*
X68598Y55693D01*
X68649Y55706D01*
X68695Y55721D01*
X68730Y55736D01*
X68746Y55744D01*
X68758Y55749D01*
X68769Y55754D01*
X68776Y55759D01*
X68781Y55762D01*
X68784D01*
X68832Y55797D01*
X68873Y55836D01*
X68909Y55879D01*
X68937Y55920D01*
X68960Y55955D01*
X68975Y55986D01*
X68980Y55999D01*
X68985Y56006D01*
X68988Y56012D01*
Y56014D01*
X69008Y56081D01*
X69024Y56147D01*
X69036Y56213D01*
X69044Y56274D01*
X69046Y56302D01*
X69049Y56328D01*
Y56351D01*
X69052Y56369D01*
Y56384D01*
Y56397D01*
Y56404D01*
Y56407D01*
X69049Y56473D01*
X69044Y56534D01*
X69034Y56590D01*
X69024Y56642D01*
X69016Y56685D01*
X69011Y56703D01*
X69006Y56718D01*
X69003Y56731D01*
X69001Y56738D01*
X68998Y56744D01*
Y56746D01*
X68973Y56805D01*
X68945Y56858D01*
X68914Y56902D01*
X68881Y56940D01*
X68853Y56970D01*
X68830Y56991D01*
X68812Y57004D01*
X68809Y57009D01*
X68807D01*
X68753Y57042D01*
X68695Y57067D01*
X68638Y57085D01*
X68585Y57095D01*
X68537Y57103D01*
X68516Y57106D01*
X68498D01*
X68485Y57108D01*
X68465D01*
X68401Y57106D01*
X68343Y57095D01*
X68294Y57080D01*
X68251Y57065D01*
X68218Y57047D01*
X68192Y57034D01*
X68177Y57024D01*
X68172Y57019D01*
X68131Y56981D01*
X68093Y56937D01*
X68062Y56891D01*
X68037Y56845D01*
X68016Y56805D01*
X68009Y56784D01*
X68004Y56769D01*
X67998Y56756D01*
X67993Y56746D01*
X67991Y56741D01*
Y56738D01*
X67761Y56792D01*
X67777Y56838D01*
X67792Y56879D01*
X67812Y56917D01*
X67830Y56955D01*
X67851Y56988D01*
X67874Y57019D01*
X67894Y57050D01*
X67914Y57075D01*
X67935Y57095D01*
X67953Y57116D01*
X67970Y57134D01*
X67983Y57146D01*
X67996Y57159D01*
X68006Y57167D01*
X68011Y57169D01*
X68014Y57172D01*
X68050Y57195D01*
X68085Y57218D01*
X68121Y57236D01*
X68159Y57251D01*
X68236Y57274D01*
X68305Y57289D01*
X68338Y57297D01*
X68366Y57299D01*
X68394Y57302D01*
X68417Y57305D01*
X68435Y57307D01*
X68460D01*
X68544Y57302D01*
D02*
G37*
G36*
X65653Y57279D02*
X65716Y57269D01*
X65770Y57251D01*
X65816Y57233D01*
X65854Y57213D01*
X65869Y57205D01*
X65882Y57195D01*
X65892Y57190D01*
X65900Y57185D01*
X65902Y57179D01*
X65905D01*
X65951Y57139D01*
X65989Y57090D01*
X66022Y57042D01*
X66048Y56996D01*
X66068Y56953D01*
X66078Y56935D01*
X66083Y56917D01*
X66088Y56904D01*
X66094Y56894D01*
X66096Y56889D01*
Y56886D01*
X66106Y56848D01*
X66117Y56810D01*
X66132Y56726D01*
X66145Y56642D01*
X66152Y56562D01*
X66155Y56524D01*
X66157Y56491D01*
Y56460D01*
X66160Y56432D01*
Y56412D01*
Y56394D01*
Y56384D01*
Y56381D01*
X66157Y56292D01*
X66152Y56208D01*
X66145Y56132D01*
X66132Y56060D01*
X66119Y55994D01*
X66104Y55935D01*
X66088Y55882D01*
X66073Y55836D01*
X66058Y55795D01*
X66040Y55759D01*
X66027Y55729D01*
X66015Y55706D01*
X66002Y55685D01*
X65994Y55673D01*
X65989Y55665D01*
X65987Y55662D01*
X65958Y55632D01*
X65928Y55604D01*
X65895Y55578D01*
X65862Y55558D01*
X65828Y55540D01*
X65795Y55525D01*
X65762Y55514D01*
X65732Y55504D01*
X65701Y55497D01*
X65673Y55491D01*
X65647Y55486D01*
X65627Y55484D01*
X65609Y55481D01*
X65584D01*
X65515Y55486D01*
X65451Y55497D01*
X65398Y55514D01*
X65352Y55532D01*
X65313Y55550D01*
X65301Y55560D01*
X65288Y55568D01*
X65278Y55573D01*
X65270Y55578D01*
X65267Y55583D01*
X65265D01*
X65219Y55627D01*
X65181Y55673D01*
X65148Y55724D01*
X65122Y55769D01*
X65102Y55813D01*
X65092Y55831D01*
X65086Y55848D01*
X65081Y55861D01*
X65076Y55871D01*
X65074Y55876D01*
Y55879D01*
X65061Y55917D01*
X65051Y55955D01*
X65035Y56037D01*
X65023Y56121D01*
X65015Y56203D01*
X65012Y56239D01*
X65010Y56272D01*
Y56302D01*
X65007Y56330D01*
Y56351D01*
Y56369D01*
Y56379D01*
Y56381D01*
Y56430D01*
X65010Y56476D01*
Y56516D01*
X65012Y56557D01*
X65017Y56593D01*
X65020Y56629D01*
X65023Y56659D01*
X65028Y56687D01*
X65030Y56713D01*
X65035Y56736D01*
X65038Y56754D01*
X65040Y56769D01*
X65043Y56782D01*
X65046Y56789D01*
X65048Y56795D01*
Y56797D01*
X65063Y56853D01*
X65081Y56904D01*
X65102Y56947D01*
X65117Y56986D01*
X65135Y57019D01*
X65145Y57042D01*
X65155Y57055D01*
X65158Y57060D01*
X65186Y57098D01*
X65214Y57131D01*
X65245Y57159D01*
X65272Y57185D01*
X65298Y57203D01*
X65318Y57215D01*
X65331Y57223D01*
X65334Y57225D01*
X65336D01*
X65377Y57246D01*
X65420Y57259D01*
X65461Y57269D01*
X65500Y57276D01*
X65533Y57282D01*
X65561Y57284D01*
X65584D01*
X65653Y57279D01*
D02*
G37*
G36*
X59541Y54526D02*
X59582Y54520D01*
X59623Y54513D01*
X59659Y54503D01*
X59728Y54475D01*
X59758Y54462D01*
X59784Y54447D01*
X59809Y54429D01*
X59830Y54416D01*
X59850Y54401D01*
X59865Y54388D01*
X59878Y54378D01*
X59886Y54370D01*
X59891Y54365D01*
X59893Y54362D01*
X59921Y54332D01*
X59944Y54296D01*
X59967Y54263D01*
X59985Y54227D01*
X60000Y54189D01*
X60013Y54153D01*
X60031Y54087D01*
X60039Y54054D01*
X60044Y54026D01*
X60046Y53998D01*
X60049Y53975D01*
X60052Y53957D01*
Y53944D01*
Y53934D01*
Y53931D01*
X60049Y53883D01*
X60044Y53840D01*
X60039Y53796D01*
X60029Y53755D01*
X60016Y53720D01*
X60003Y53684D01*
X59990Y53654D01*
X59975Y53626D01*
X59962Y53600D01*
X59949Y53577D01*
X59937Y53559D01*
X59924Y53541D01*
X59914Y53529D01*
X59909Y53521D01*
X59904Y53516D01*
X59901Y53513D01*
X59873Y53485D01*
X59842Y53462D01*
X59812Y53439D01*
X59779Y53421D01*
X59748Y53406D01*
X59718Y53393D01*
X59659Y53376D01*
X59633Y53368D01*
X59608Y53363D01*
X59587Y53360D01*
X59567Y53358D01*
X59552Y53355D01*
X59531D01*
X59483Y53358D01*
X59437Y53365D01*
X59396Y53376D01*
X59358Y53388D01*
X59330Y53399D01*
X59307Y53409D01*
X59292Y53416D01*
X59286Y53419D01*
X59246Y53444D01*
X59210Y53473D01*
X59179Y53500D01*
X59154Y53526D01*
X59136Y53552D01*
X59121Y53569D01*
X59111Y53582D01*
X59108Y53587D01*
Y53567D01*
Y53554D01*
Y53546D01*
Y53544D01*
X59111Y53493D01*
X59113Y53444D01*
X59118Y53401D01*
X59123Y53360D01*
X59131Y53327D01*
X59136Y53302D01*
X59139Y53291D01*
Y53284D01*
X59141Y53281D01*
Y53279D01*
X59154Y53233D01*
X59167Y53192D01*
X59179Y53156D01*
X59192Y53126D01*
X59202Y53103D01*
X59213Y53085D01*
X59218Y53072D01*
X59220Y53070D01*
X59241Y53041D01*
X59261Y53019D01*
X59281Y52998D01*
X59302Y52980D01*
X59317Y52965D01*
X59332Y52955D01*
X59343Y52950D01*
X59345Y52947D01*
X59373Y52932D01*
X59404Y52922D01*
X59432Y52914D01*
X59460Y52909D01*
X59483Y52906D01*
X59501Y52904D01*
X59519D01*
X59559Y52906D01*
X59598Y52914D01*
X59631Y52924D01*
X59659Y52937D01*
X59679Y52947D01*
X59697Y52957D01*
X59707Y52965D01*
X59710Y52968D01*
X59735Y52996D01*
X59756Y53029D01*
X59774Y53065D01*
X59786Y53100D01*
X59797Y53131D01*
X59804Y53159D01*
X59807Y53169D01*
Y53174D01*
X59809Y53179D01*
Y53182D01*
X60018Y53164D01*
X60003Y53090D01*
X59983Y53026D01*
X59957Y52970D01*
X59932Y52924D01*
X59906Y52889D01*
X59893Y52873D01*
X59883Y52860D01*
X59876Y52853D01*
X59868Y52845D01*
X59865Y52843D01*
X59863Y52840D01*
X59837Y52820D01*
X59809Y52802D01*
X59753Y52774D01*
X59697Y52753D01*
X59644Y52741D01*
X59595Y52730D01*
X59575Y52728D01*
X59557D01*
X59544Y52725D01*
X59524D01*
X59452Y52730D01*
X59389Y52741D01*
X59330Y52759D01*
X59281Y52779D01*
X59261Y52786D01*
X59241Y52797D01*
X59225Y52807D01*
X59210Y52815D01*
X59200Y52820D01*
X59192Y52825D01*
X59187Y52830D01*
X59184D01*
X59133Y52873D01*
X59088Y52922D01*
X59052Y52973D01*
X59021Y53021D01*
X58996Y53065D01*
X58986Y53085D01*
X58978Y53100D01*
X58973Y53115D01*
X58968Y53126D01*
X58965Y53131D01*
Y53133D01*
X58952Y53172D01*
X58940Y53215D01*
X58922Y53302D01*
X58909Y53393D01*
X58902Y53480D01*
X58896Y53518D01*
X58894Y53557D01*
Y53590D01*
X58891Y53618D01*
Y53641D01*
Y53659D01*
Y53671D01*
Y53674D01*
Y53733D01*
X58894Y53789D01*
X58899Y53840D01*
X58904Y53888D01*
X58909Y53931D01*
X58914Y53972D01*
X58922Y54010D01*
X58930Y54044D01*
X58937Y54072D01*
X58942Y54097D01*
X58950Y54120D01*
X58955Y54138D01*
X58960Y54151D01*
X58965Y54161D01*
X58968Y54166D01*
Y54169D01*
X58998Y54230D01*
X59031Y54283D01*
X59070Y54329D01*
X59103Y54368D01*
X59136Y54396D01*
X59162Y54416D01*
X59172Y54424D01*
X59179Y54429D01*
X59182Y54434D01*
X59184D01*
X59238Y54464D01*
X59292Y54487D01*
X59345Y54505D01*
X59394Y54515D01*
X59437Y54523D01*
X59455Y54526D01*
X59468D01*
X59480Y54528D01*
X59498D01*
X59541Y54526D01*
D02*
G37*
G36*
X61064Y54546D02*
X61146Y54533D01*
X61217Y54518D01*
X61250Y54508D01*
X61281Y54498D01*
X61309Y54487D01*
X61334Y54477D01*
X61355Y54470D01*
X61375Y54462D01*
X61388Y54454D01*
X61398Y54449D01*
X61406Y54447D01*
X61408Y54444D01*
X61477Y54401D01*
X61536Y54350D01*
X61587Y54299D01*
X61630Y54248D01*
X61663Y54202D01*
X61676Y54181D01*
X61686Y54163D01*
X61696Y54151D01*
X61701Y54141D01*
X61704Y54133D01*
X61707Y54130D01*
X61742Y54051D01*
X61768Y53970D01*
X61786Y53888D01*
X61798Y53814D01*
X61803Y53781D01*
X61806Y53748D01*
X61809Y53722D01*
Y53697D01*
X61811Y53679D01*
Y53664D01*
Y53654D01*
Y53651D01*
X61806Y53559D01*
X61796Y53470D01*
X61783Y53391D01*
X61773Y53353D01*
X61765Y53320D01*
X61757Y53289D01*
X61747Y53261D01*
X61740Y53235D01*
X61734Y53215D01*
X61727Y53200D01*
X61724Y53187D01*
X61719Y53179D01*
Y53177D01*
X61681Y53100D01*
X61638Y53031D01*
X61592Y52973D01*
X61569Y52950D01*
X61548Y52927D01*
X61528Y52906D01*
X61508Y52889D01*
X61490Y52873D01*
X61474Y52863D01*
X61464Y52853D01*
X61454Y52845D01*
X61449Y52843D01*
X61446Y52840D01*
X61411Y52820D01*
X61375Y52802D01*
X61299Y52774D01*
X61222Y52753D01*
X61148Y52741D01*
X61112Y52736D01*
X61082Y52730D01*
X61054Y52728D01*
X61031D01*
X61010Y52725D01*
X60982D01*
X60931Y52728D01*
X60883Y52733D01*
X60837Y52738D01*
X60794Y52748D01*
X60753Y52761D01*
X60715Y52774D01*
X60679Y52786D01*
X60646Y52802D01*
X60618Y52815D01*
X60590Y52827D01*
X60569Y52840D01*
X60549Y52853D01*
X60536Y52863D01*
X60523Y52868D01*
X60518Y52873D01*
X60516Y52876D01*
X60480Y52906D01*
X60449Y52937D01*
X60421Y52973D01*
X60393Y53008D01*
X60347Y53080D01*
X60312Y53151D01*
X60296Y53184D01*
X60284Y53215D01*
X60273Y53243D01*
X60266Y53266D01*
X60258Y53286D01*
X60253Y53302D01*
X60250Y53312D01*
Y53314D01*
X60485Y53373D01*
X60495Y53332D01*
X60508Y53294D01*
X60521Y53258D01*
X60533Y53225D01*
X60549Y53194D01*
X60564Y53169D01*
X60582Y53144D01*
X60597Y53121D01*
X60610Y53100D01*
X60625Y53085D01*
X60638Y53070D01*
X60648Y53057D01*
X60658Y53049D01*
X60666Y53041D01*
X60669Y53039D01*
X60671Y53036D01*
X60697Y53016D01*
X60725Y53001D01*
X60781Y52973D01*
X60834Y52952D01*
X60888Y52939D01*
X60934Y52929D01*
X60952Y52927D01*
X60970D01*
X60985Y52924D01*
X61003D01*
X61061Y52927D01*
X61117Y52937D01*
X61168Y52950D01*
X61214Y52965D01*
X61250Y52980D01*
X61265Y52988D01*
X61278Y52993D01*
X61288Y52998D01*
X61296Y53003D01*
X61301Y53006D01*
X61304D01*
X61352Y53041D01*
X61393Y53080D01*
X61428Y53123D01*
X61457Y53164D01*
X61480Y53200D01*
X61495Y53230D01*
X61500Y53243D01*
X61505Y53251D01*
X61508Y53256D01*
Y53258D01*
X61528Y53325D01*
X61543Y53391D01*
X61556Y53457D01*
X61564Y53518D01*
X61566Y53546D01*
X61569Y53572D01*
Y53595D01*
X61571Y53613D01*
Y53628D01*
Y53641D01*
Y53648D01*
Y53651D01*
X61569Y53717D01*
X61564Y53778D01*
X61554Y53835D01*
X61543Y53886D01*
X61536Y53929D01*
X61531Y53947D01*
X61525Y53962D01*
X61523Y53975D01*
X61520Y53983D01*
X61518Y53988D01*
Y53990D01*
X61492Y54049D01*
X61464Y54102D01*
X61434Y54146D01*
X61401Y54184D01*
X61372Y54215D01*
X61349Y54235D01*
X61332Y54248D01*
X61329Y54253D01*
X61326D01*
X61273Y54286D01*
X61214Y54311D01*
X61158Y54329D01*
X61105Y54339D01*
X61056Y54347D01*
X61036Y54350D01*
X61018D01*
X61005Y54352D01*
X60985D01*
X60921Y54350D01*
X60862Y54339D01*
X60814Y54324D01*
X60771Y54309D01*
X60738Y54291D01*
X60712Y54278D01*
X60697Y54268D01*
X60692Y54263D01*
X60651Y54225D01*
X60612Y54181D01*
X60582Y54136D01*
X60556Y54090D01*
X60536Y54049D01*
X60528Y54028D01*
X60523Y54013D01*
X60518Y54000D01*
X60513Y53990D01*
X60510Y53985D01*
Y53983D01*
X60281Y54036D01*
X60296Y54082D01*
X60312Y54123D01*
X60332Y54161D01*
X60350Y54199D01*
X60370Y54232D01*
X60393Y54263D01*
X60414Y54294D01*
X60434Y54319D01*
X60454Y54339D01*
X60472Y54360D01*
X60490Y54378D01*
X60503Y54391D01*
X60516Y54403D01*
X60526Y54411D01*
X60531Y54413D01*
X60533Y54416D01*
X60569Y54439D01*
X60605Y54462D01*
X60641Y54480D01*
X60679Y54495D01*
X60755Y54518D01*
X60824Y54533D01*
X60857Y54541D01*
X60885Y54544D01*
X60913Y54546D01*
X60936Y54549D01*
X60954Y54551D01*
X60980D01*
X61064Y54546D01*
D02*
G37*
G36*
X51615Y21869D02*
X51697Y21856D01*
X51768Y21841D01*
X51801Y21831D01*
X51832Y21820D01*
X51860Y21810D01*
X51885Y21800D01*
X51906Y21792D01*
X51926Y21785D01*
X51939Y21777D01*
X51949Y21772D01*
X51957Y21769D01*
X51959Y21767D01*
X52028Y21723D01*
X52087Y21673D01*
X52138Y21621D01*
X52181Y21571D01*
X52214Y21525D01*
X52227Y21504D01*
X52237Y21486D01*
X52248Y21474D01*
X52253Y21463D01*
X52255Y21456D01*
X52258Y21453D01*
X52293Y21374D01*
X52319Y21293D01*
X52337Y21211D01*
X52350Y21137D01*
X52355Y21104D01*
X52357Y21071D01*
X52360Y21045D01*
Y21020D01*
X52362Y21002D01*
Y20987D01*
Y20976D01*
Y20974D01*
X52357Y20882D01*
X52347Y20793D01*
X52334Y20714D01*
X52324Y20675D01*
X52316Y20642D01*
X52309Y20612D01*
X52298Y20584D01*
X52291Y20558D01*
X52286Y20538D01*
X52278Y20522D01*
X52276Y20510D01*
X52270Y20502D01*
Y20500D01*
X52232Y20423D01*
X52189Y20354D01*
X52143Y20295D01*
X52120Y20272D01*
X52100Y20250D01*
X52079Y20229D01*
X52059Y20211D01*
X52041Y20196D01*
X52026Y20186D01*
X52015Y20176D01*
X52005Y20168D01*
X52000Y20165D01*
X51998Y20163D01*
X51962Y20143D01*
X51926Y20125D01*
X51850Y20097D01*
X51773Y20076D01*
X51699Y20063D01*
X51664Y20058D01*
X51633Y20053D01*
X51605Y20051D01*
X51582D01*
X51561Y20048D01*
X51534D01*
X51482Y20051D01*
X51434Y20056D01*
X51388Y20061D01*
X51345Y20071D01*
X51304Y20084D01*
X51266Y20097D01*
X51230Y20109D01*
X51197Y20125D01*
X51169Y20137D01*
X51141Y20150D01*
X51120Y20163D01*
X51100Y20176D01*
X51087Y20186D01*
X51074Y20191D01*
X51069Y20196D01*
X51067Y20199D01*
X51031Y20229D01*
X51000Y20260D01*
X50972Y20295D01*
X50944Y20331D01*
X50898Y20403D01*
X50863Y20474D01*
X50848Y20507D01*
X50835Y20538D01*
X50824Y20566D01*
X50817Y20589D01*
X50809Y20609D01*
X50804Y20624D01*
X50802Y20635D01*
Y20637D01*
X51036Y20696D01*
X51046Y20655D01*
X51059Y20617D01*
X51072Y20581D01*
X51085Y20548D01*
X51100Y20517D01*
X51115Y20492D01*
X51133Y20466D01*
X51148Y20443D01*
X51161Y20423D01*
X51176Y20408D01*
X51189Y20392D01*
X51199Y20380D01*
X51210Y20372D01*
X51217Y20364D01*
X51220Y20362D01*
X51222Y20359D01*
X51248Y20339D01*
X51276Y20324D01*
X51332Y20295D01*
X51386Y20275D01*
X51439Y20262D01*
X51485Y20252D01*
X51503Y20250D01*
X51521D01*
X51536Y20247D01*
X51554D01*
X51613Y20250D01*
X51669Y20260D01*
X51720Y20272D01*
X51766Y20288D01*
X51801Y20303D01*
X51816Y20311D01*
X51829Y20316D01*
X51839Y20321D01*
X51847Y20326D01*
X51852Y20329D01*
X51855D01*
X51903Y20364D01*
X51944Y20403D01*
X51980Y20446D01*
X52008Y20487D01*
X52031Y20522D01*
X52046Y20553D01*
X52051Y20566D01*
X52056Y20573D01*
X52059Y20579D01*
Y20581D01*
X52079Y20647D01*
X52094Y20714D01*
X52107Y20780D01*
X52115Y20841D01*
X52117Y20869D01*
X52120Y20895D01*
Y20918D01*
X52122Y20935D01*
Y20951D01*
Y20964D01*
Y20971D01*
Y20974D01*
X52120Y21040D01*
X52115Y21101D01*
X52105Y21157D01*
X52094Y21208D01*
X52087Y21252D01*
X52082Y21270D01*
X52077Y21285D01*
X52074Y21298D01*
X52071Y21305D01*
X52069Y21310D01*
Y21313D01*
X52043Y21372D01*
X52015Y21425D01*
X51985Y21468D01*
X51952Y21507D01*
X51924Y21537D01*
X51901Y21558D01*
X51883Y21571D01*
X51880Y21576D01*
X51878D01*
X51824Y21609D01*
X51766Y21634D01*
X51709Y21652D01*
X51656Y21662D01*
X51607Y21670D01*
X51587Y21673D01*
X51569D01*
X51556Y21675D01*
X51536D01*
X51472Y21673D01*
X51414Y21662D01*
X51365Y21647D01*
X51322Y21632D01*
X51289Y21614D01*
X51263Y21601D01*
X51248Y21591D01*
X51243Y21586D01*
X51202Y21547D01*
X51164Y21504D01*
X51133Y21458D01*
X51108Y21412D01*
X51087Y21372D01*
X51080Y21351D01*
X51074Y21336D01*
X51069Y21323D01*
X51064Y21313D01*
X51062Y21308D01*
Y21305D01*
X50832Y21359D01*
X50848Y21405D01*
X50863Y21445D01*
X50883Y21484D01*
X50901Y21522D01*
X50921Y21555D01*
X50944Y21586D01*
X50965Y21616D01*
X50985Y21642D01*
X51006Y21662D01*
X51024Y21683D01*
X51041Y21700D01*
X51054Y21713D01*
X51067Y21726D01*
X51077Y21734D01*
X51082Y21736D01*
X51085Y21739D01*
X51120Y21762D01*
X51156Y21785D01*
X51192Y21802D01*
X51230Y21818D01*
X51306Y21841D01*
X51375Y21856D01*
X51408Y21864D01*
X51437Y21866D01*
X51465Y21869D01*
X51487Y21871D01*
X51505Y21874D01*
X51531D01*
X51615Y21869D01*
D02*
G37*
G36*
X50070Y21848D02*
X50111Y21846D01*
X50182Y21831D01*
X50215Y21820D01*
X50246Y21810D01*
X50274Y21797D01*
X50299Y21785D01*
X50320Y21772D01*
X50340Y21759D01*
X50358Y21749D01*
X50371Y21739D01*
X50381Y21731D01*
X50388Y21723D01*
X50394Y21721D01*
X50396Y21718D01*
X50419Y21693D01*
X50442Y21667D01*
X50460Y21639D01*
X50475Y21611D01*
X50501Y21558D01*
X50516Y21507D01*
X50526Y21463D01*
X50529Y21443D01*
X50531Y21428D01*
X50534Y21412D01*
Y21402D01*
Y21397D01*
Y21395D01*
X50531Y21349D01*
X50524Y21305D01*
X50513Y21267D01*
X50501Y21234D01*
X50490Y21208D01*
X50480Y21188D01*
X50473Y21178D01*
X50470Y21173D01*
X50442Y21142D01*
X50411Y21114D01*
X50378Y21089D01*
X50345Y21068D01*
X50315Y21053D01*
X50292Y21043D01*
X50281Y21037D01*
X50274Y21035D01*
X50271Y21032D01*
X50269D01*
X50327Y21015D01*
X50376Y20992D01*
X50419Y20964D01*
X50455Y20938D01*
X50483Y20913D01*
X50503Y20892D01*
X50513Y20879D01*
X50519Y20877D01*
Y20874D01*
X50547Y20828D01*
X50569Y20780D01*
X50585Y20734D01*
X50595Y20688D01*
X50600Y20647D01*
X50603Y20629D01*
Y20614D01*
X50605Y20604D01*
Y20594D01*
Y20589D01*
Y20586D01*
X50603Y20545D01*
X50598Y20505D01*
X50590Y20466D01*
X50580Y20428D01*
X50554Y20364D01*
X50542Y20334D01*
X50526Y20308D01*
X50511Y20283D01*
X50498Y20262D01*
X50483Y20245D01*
X50473Y20229D01*
X50463Y20216D01*
X50455Y20209D01*
X50450Y20204D01*
X50447Y20201D01*
X50417Y20173D01*
X50383Y20150D01*
X50348Y20130D01*
X50312Y20112D01*
X50279Y20099D01*
X50243Y20086D01*
X50174Y20068D01*
X50144Y20061D01*
X50116Y20056D01*
X50090Y20053D01*
X50067Y20051D01*
X50049Y20048D01*
X50024D01*
X49975Y20051D01*
X49932Y20056D01*
X49889Y20063D01*
X49848Y20071D01*
X49812Y20084D01*
X49777Y20097D01*
X49743Y20109D01*
X49715Y20125D01*
X49690Y20140D01*
X49667Y20153D01*
X49649Y20165D01*
X49631Y20178D01*
X49618Y20186D01*
X49611Y20193D01*
X49606Y20199D01*
X49603Y20201D01*
X49575Y20232D01*
X49549Y20262D01*
X49529Y20293D01*
X49511Y20326D01*
X49494Y20357D01*
X49481Y20390D01*
X49463Y20448D01*
X49455Y20477D01*
X49450Y20502D01*
X49448Y20525D01*
X49445Y20543D01*
X49442Y20558D01*
Y20571D01*
Y20579D01*
Y20581D01*
X49445Y20640D01*
X49455Y20693D01*
X49470Y20742D01*
X49486Y20783D01*
X49501Y20816D01*
X49516Y20841D01*
X49527Y20856D01*
X49529Y20859D01*
Y20862D01*
X49565Y20902D01*
X49603Y20938D01*
X49644Y20966D01*
X49682Y20992D01*
X49718Y21010D01*
X49749Y21022D01*
X49759Y21027D01*
X49766Y21030D01*
X49771Y21032D01*
X49774D01*
X49728Y21053D01*
X49690Y21076D01*
X49657Y21099D01*
X49629Y21122D01*
X49608Y21142D01*
X49593Y21157D01*
X49583Y21168D01*
X49580Y21173D01*
X49557Y21208D01*
X49542Y21244D01*
X49529Y21280D01*
X49521Y21316D01*
X49516Y21343D01*
X49514Y21366D01*
Y21382D01*
Y21384D01*
Y21387D01*
X49516Y21423D01*
X49519Y21456D01*
X49537Y21520D01*
X49560Y21576D01*
X49585Y21624D01*
X49611Y21662D01*
X49624Y21678D01*
X49634Y21693D01*
X49644Y21703D01*
X49652Y21711D01*
X49654Y21713D01*
X49657Y21716D01*
X49685Y21739D01*
X49713Y21762D01*
X49743Y21780D01*
X49774Y21795D01*
X49835Y21818D01*
X49896Y21833D01*
X49922Y21841D01*
X49947Y21843D01*
X49970Y21846D01*
X49991Y21848D01*
X50006Y21851D01*
X50029D01*
X50070Y21848D01*
D02*
G37*
%LPC*%
G36*
X110221Y90004D02*
X110107D01*
Y89947D01*
Y89891D01*
X110051D01*
Y89834D01*
Y89777D01*
X109994D01*
Y89721D01*
Y89664D01*
X109938D01*
Y89608D01*
X109881D01*
Y89551D01*
Y89494D01*
X109824D01*
Y89438D01*
Y89381D01*
X109768D01*
Y89324D01*
Y89268D01*
X109711D01*
Y89211D01*
X109654D01*
Y89155D01*
Y89098D01*
X109598D01*
Y89042D01*
Y88985D01*
X109541D01*
Y88928D01*
X109485D01*
Y88872D01*
Y88815D01*
X109428D01*
Y88758D01*
Y88702D01*
X109371D01*
Y88645D01*
Y88589D01*
X109315D01*
Y88532D01*
X109258D01*
Y88475D01*
Y88419D01*
X109202D01*
Y88362D01*
Y88305D01*
X109145D01*
Y88249D01*
Y88192D01*
X109088D01*
Y88136D01*
X109032D01*
Y88079D01*
Y88022D01*
X108975D01*
Y87966D01*
Y87909D01*
X108918D01*
Y87853D01*
Y87796D01*
X108862D01*
Y87739D01*
X108805D01*
Y87683D01*
Y87626D01*
X108749D01*
Y87569D01*
Y87513D01*
X108692D01*
Y87456D01*
X108635D01*
Y87400D01*
Y87343D01*
X108579D01*
Y87286D01*
Y87230D01*
X108522D01*
Y87173D01*
Y87117D01*
X108466D01*
Y87060D01*
X108409D01*
Y87003D01*
Y86947D01*
X108352D01*
Y86890D01*
Y86834D01*
X108296D01*
Y86777D01*
Y86720D01*
X108239D01*
Y86664D01*
X108183D01*
Y86607D01*
Y86550D01*
X108126D01*
Y86494D01*
Y86437D01*
X108069D01*
Y86381D01*
Y86324D01*
X108013D01*
Y86267D01*
X107956D01*
Y86211D01*
Y86154D01*
X107899D01*
Y86098D01*
Y86041D01*
X107843D01*
Y85984D01*
X107786D01*
Y85928D01*
Y85871D01*
X107729D01*
Y85814D01*
Y85758D01*
X107673D01*
Y85701D01*
Y85645D01*
X107616D01*
Y85588D01*
X107560D01*
Y85531D01*
Y85475D01*
X107503D01*
Y85418D01*
Y85361D01*
X107447D01*
Y85305D01*
Y85248D01*
X107390D01*
Y85192D01*
X107333D01*
Y85135D01*
Y85078D01*
X107277D01*
Y85022D01*
Y84965D01*
X107220D01*
Y84909D01*
X107163D01*
Y84852D01*
Y84795D01*
X107107D01*
Y84739D01*
Y84682D01*
X107050D01*
Y84626D01*
Y84569D01*
X106994D01*
Y84512D01*
X106937D01*
Y84456D01*
Y84399D01*
X106880D01*
Y84342D01*
Y84286D01*
X106824D01*
Y84229D01*
Y84173D01*
X106767D01*
Y84116D01*
X106711D01*
Y84059D01*
Y84003D01*
X106654D01*
Y83946D01*
Y83890D01*
X106597D01*
Y83833D01*
Y83776D01*
X106541D01*
Y83720D01*
X106484D01*
Y83663D01*
Y83606D01*
X106427D01*
Y83550D01*
Y83493D01*
X106371D01*
Y83437D01*
X106314D01*
Y83380D01*
Y83323D01*
X106257D01*
Y83267D01*
Y83210D01*
X106201D01*
Y83153D01*
Y83097D01*
X106144D01*
Y83040D01*
X106088D01*
Y82984D01*
Y82927D01*
X106031D01*
Y82870D01*
Y82814D01*
X105974D01*
Y82757D01*
Y82701D01*
X105918D01*
Y82644D01*
X105861D01*
Y82587D01*
Y82531D01*
X105805D01*
Y82474D01*
Y82418D01*
X105748D01*
Y82361D01*
Y82304D01*
X105691D01*
Y82248D01*
X105635D01*
Y82191D01*
Y82134D01*
X105578D01*
Y82078D01*
Y82021D01*
X105522D01*
Y81965D01*
X105465D01*
Y81908D01*
X105522D01*
Y81851D01*
X105635D01*
Y81795D01*
X105748D01*
Y81738D01*
X105918D01*
Y81682D01*
Y81625D01*
X105861D01*
Y81568D01*
Y81512D01*
X105805D01*
Y81455D01*
X105748D01*
Y81398D01*
Y81342D01*
X105691D01*
Y81285D01*
X105635D01*
Y81229D01*
Y81172D01*
X105578D01*
Y81115D01*
X105522D01*
Y81059D01*
Y81002D01*
X105465D01*
Y80945D01*
X105408D01*
Y80889D01*
X105352D01*
Y80832D01*
X105295D01*
Y80776D01*
X105238D01*
Y80719D01*
X105125D01*
Y80776D01*
X105012D01*
Y80832D01*
X104842D01*
Y80776D01*
X104786D01*
Y80719D01*
Y80663D01*
X104729D01*
Y80606D01*
Y80549D01*
X104672D01*
Y80493D01*
X104616D01*
Y80436D01*
Y80379D01*
X104559D01*
Y80323D01*
Y80266D01*
X104502D01*
Y80209D01*
Y80153D01*
X104446D01*
Y80096D01*
X104389D01*
Y80040D01*
Y79983D01*
X104333D01*
Y79927D01*
Y79870D01*
X104276D01*
Y79813D01*
Y79757D01*
X104219D01*
Y79700D01*
X104163D01*
Y79643D01*
Y79587D01*
X104106D01*
Y79530D01*
Y79474D01*
X104050D01*
Y79417D01*
X103993D01*
Y79360D01*
Y79304D01*
X103936D01*
Y79247D01*
Y79190D01*
X103880D01*
Y79134D01*
Y79077D01*
X103823D01*
Y79021D01*
X103767D01*
Y78964D01*
Y78907D01*
X103710D01*
Y78851D01*
Y78794D01*
X103653D01*
Y78737D01*
Y78681D01*
X103597D01*
Y78624D01*
X103540D01*
Y78568D01*
Y78511D01*
X103483D01*
Y78455D01*
Y78398D01*
X103427D01*
Y78341D01*
Y78285D01*
X103370D01*
Y78228D01*
X103314D01*
Y78171D01*
Y78115D01*
X103257D01*
Y78058D01*
Y78001D01*
X103200D01*
Y77945D01*
X103144D01*
Y77888D01*
Y77832D01*
X103087D01*
Y77775D01*
Y77719D01*
X103031D01*
Y77662D01*
Y77605D01*
X102974D01*
Y77549D01*
X102917D01*
Y77492D01*
Y77435D01*
X102861D01*
Y77379D01*
Y77322D01*
X102804D01*
Y77266D01*
Y77209D01*
X102747D01*
Y77152D01*
X102691D01*
Y77096D01*
Y77039D01*
X102634D01*
Y76982D01*
Y76926D01*
X102578D01*
Y76869D01*
Y76813D01*
X102521D01*
Y76756D01*
X102464D01*
Y76699D01*
Y76643D01*
X102408D01*
Y76586D01*
Y76530D01*
X102351D01*
Y76473D01*
X102295D01*
Y76416D01*
Y76360D01*
X102238D01*
Y76303D01*
Y76247D01*
X102181D01*
Y76190D01*
Y76133D01*
X102125D01*
Y76077D01*
X102068D01*
Y76020D01*
Y75963D01*
X102011D01*
Y75907D01*
Y75850D01*
X101955D01*
Y75794D01*
Y75737D01*
X101898D01*
Y75680D01*
X101842D01*
Y75624D01*
Y75567D01*
X101785D01*
Y75511D01*
X117637D01*
Y75567D01*
X117524D01*
Y75624D01*
X117354D01*
Y75680D01*
X117241D01*
Y75737D01*
X117071D01*
Y75794D01*
X116958D01*
Y75850D01*
X116845D01*
Y75907D01*
X116675D01*
Y75963D01*
X116561D01*
Y76020D01*
X116392D01*
Y76077D01*
X116278D01*
Y76133D01*
X116165D01*
Y76190D01*
X115995D01*
Y76247D01*
X115882D01*
Y76303D01*
X115769D01*
Y76360D01*
X115599D01*
Y76416D01*
X115486D01*
Y76473D01*
X115316D01*
Y76530D01*
X115203D01*
Y76586D01*
X115089D01*
Y76643D01*
X114920D01*
Y76699D01*
X114806D01*
Y76756D01*
X114637D01*
Y76813D01*
X114523D01*
Y76869D01*
X114410D01*
Y76926D01*
X114240D01*
Y76982D01*
X114127D01*
Y77039D01*
X113957D01*
Y77096D01*
X113844D01*
Y77152D01*
X113731D01*
Y77209D01*
X113561D01*
Y77266D01*
X113448D01*
Y77322D01*
X113334D01*
Y77379D01*
X113165D01*
Y77435D01*
X113051D01*
Y77492D01*
X112882D01*
Y77549D01*
X112768D01*
Y77605D01*
X112655D01*
Y77662D01*
X112485D01*
Y77719D01*
X112372D01*
Y77775D01*
X112202D01*
Y77832D01*
X112089D01*
Y77888D01*
X111976D01*
Y77945D01*
X111806D01*
Y78001D01*
X111693D01*
Y78058D01*
X111579D01*
Y78115D01*
X111636D01*
Y78171D01*
X111749D01*
Y78228D01*
X111806D01*
Y78285D01*
X111862D01*
Y78341D01*
X111976D01*
Y78398D01*
X112089D01*
Y78455D01*
X112145D01*
Y78511D01*
X112259D01*
Y78568D01*
X112372D01*
Y78624D01*
X112485D01*
Y78681D01*
X112598D01*
Y78737D01*
X112655D01*
Y78794D01*
X112768D01*
Y78851D01*
X112882D01*
Y78794D01*
X112995D01*
Y78737D01*
X113165D01*
Y78681D01*
X113278D01*
Y78624D01*
X113391D01*
Y78568D01*
X113561D01*
Y78511D01*
X113674D01*
Y78455D01*
X113844D01*
Y78398D01*
X113957D01*
Y78341D01*
X114070D01*
Y78285D01*
X114240D01*
Y78228D01*
X114354D01*
Y78171D01*
X114467D01*
Y78115D01*
X114637D01*
Y78058D01*
X114750D01*
Y78001D01*
X114920D01*
Y77945D01*
X115033D01*
Y77888D01*
X115146D01*
Y77832D01*
X115316D01*
Y77775D01*
X115429D01*
Y77719D01*
X115599D01*
Y77662D01*
X115712D01*
Y77605D01*
X115825D01*
Y77549D01*
X115995D01*
Y77492D01*
X116109D01*
Y77435D01*
X116222D01*
Y77379D01*
X116392D01*
Y77322D01*
X116505D01*
Y77266D01*
X116675D01*
Y77209D01*
X116788D01*
Y77152D01*
X116901D01*
Y77096D01*
X117071D01*
Y77039D01*
X117184D01*
Y76982D01*
X117354D01*
Y76926D01*
X117467D01*
Y76869D01*
X117580D01*
Y76813D01*
X117750D01*
Y76756D01*
X117807D01*
Y76813D01*
X117750D01*
Y76869D01*
Y76926D01*
X117694D01*
Y76982D01*
Y77039D01*
X117637D01*
Y77096D01*
Y77152D01*
X117580D01*
Y77209D01*
X117524D01*
Y77266D01*
Y77322D01*
X117467D01*
Y77379D01*
Y77435D01*
X117411D01*
Y77492D01*
Y77549D01*
X117354D01*
Y77605D01*
X117297D01*
Y77662D01*
Y77719D01*
X117241D01*
Y77775D01*
Y77832D01*
X117184D01*
Y77888D01*
Y77945D01*
X117128D01*
Y78001D01*
X117071D01*
Y78058D01*
Y78115D01*
X117014D01*
Y78171D01*
Y78228D01*
X116958D01*
Y78285D01*
X116901D01*
Y78341D01*
Y78398D01*
X116845D01*
Y78455D01*
Y78511D01*
X116788D01*
Y78568D01*
Y78624D01*
X116731D01*
Y78681D01*
X116675D01*
Y78737D01*
Y78794D01*
X116618D01*
Y78851D01*
Y78907D01*
X116561D01*
Y78964D01*
Y79021D01*
X116505D01*
Y79077D01*
X116448D01*
Y79134D01*
Y79190D01*
X116392D01*
Y79247D01*
Y79304D01*
X116335D01*
Y79360D01*
Y79417D01*
X116278D01*
Y79474D01*
X116222D01*
Y79530D01*
Y79587D01*
X116165D01*
Y79643D01*
Y79700D01*
X116109D01*
Y79757D01*
X116052D01*
Y79813D01*
Y79870D01*
X115995D01*
Y79927D01*
Y79983D01*
X115939D01*
Y80040D01*
Y80096D01*
X115882D01*
Y80153D01*
X115825D01*
Y80209D01*
Y80266D01*
X115769D01*
Y80323D01*
Y80379D01*
X115712D01*
Y80436D01*
Y80493D01*
X115656D01*
Y80549D01*
X115599D01*
Y80606D01*
Y80663D01*
X115542D01*
Y80719D01*
Y80776D01*
X115486D01*
Y80832D01*
X115429D01*
Y80889D01*
Y80945D01*
X115373D01*
Y81002D01*
Y81059D01*
X115316D01*
Y81115D01*
Y81172D01*
X115259D01*
Y81229D01*
X115203D01*
Y81285D01*
Y81342D01*
X115146D01*
Y81398D01*
Y81455D01*
X115089D01*
Y81512D01*
Y81568D01*
X115033D01*
Y81625D01*
X114976D01*
Y81682D01*
X114920D01*
Y81625D01*
X114806D01*
Y81568D01*
X114693D01*
Y81512D01*
X114580D01*
Y81455D01*
X114523D01*
Y81398D01*
X114410D01*
Y81342D01*
X114354D01*
Y81285D01*
X114297D01*
Y81229D01*
X114240D01*
Y81172D01*
X114184D01*
Y81115D01*
X114127D01*
Y81059D01*
Y81002D01*
X114070D01*
Y80945D01*
Y80889D01*
X114014D01*
Y80832D01*
X113957D01*
Y80776D01*
Y80719D01*
X113901D01*
Y80663D01*
Y80606D01*
X113844D01*
Y80549D01*
Y80493D01*
X113787D01*
Y80436D01*
Y80379D01*
X113731D01*
Y80323D01*
X113674D01*
Y80266D01*
X113618D01*
Y80209D01*
Y80153D01*
X113561D01*
Y80096D01*
X113504D01*
Y80040D01*
X113448D01*
Y79983D01*
X113391D01*
Y79927D01*
Y79870D01*
X113334D01*
Y79813D01*
X113278D01*
Y79757D01*
X113221D01*
Y79700D01*
X113165D01*
Y79643D01*
Y79587D01*
X113108D01*
Y79530D01*
X113051D01*
Y79474D01*
X112995D01*
Y79417D01*
X112938D01*
Y79360D01*
X112882D01*
Y79304D01*
X112825D01*
Y79247D01*
X112768D01*
Y79190D01*
X112712D01*
Y79134D01*
X112598D01*
Y79077D01*
X112542D01*
Y79021D01*
X112485D01*
Y78964D01*
X112372D01*
Y78907D01*
X112315D01*
Y78851D01*
X112202D01*
Y78794D01*
X112089D01*
Y78737D01*
X111976D01*
Y78681D01*
X111919D01*
Y78624D01*
X111806D01*
Y78568D01*
X111636D01*
Y78511D01*
X111579D01*
Y78455D01*
X111466D01*
Y78398D01*
X111409D01*
Y78341D01*
X111296D01*
Y78285D01*
X111240D01*
Y78228D01*
X111126D01*
Y78171D01*
X111070D01*
Y78115D01*
X110957D01*
Y78058D01*
X110900D01*
Y78001D01*
X110843D01*
Y77945D01*
X110730D01*
Y77888D01*
X110673D01*
Y77832D01*
X110560D01*
Y77775D01*
X110504D01*
Y77719D01*
X110447D01*
Y77662D01*
X110334D01*
Y77605D01*
X110277D01*
Y77549D01*
X110221D01*
Y77492D01*
X110107D01*
Y77435D01*
X110051D01*
Y77379D01*
X109994D01*
Y77322D01*
X109938D01*
Y77266D01*
X109824D01*
Y77209D01*
X109768D01*
Y77152D01*
X109711D01*
Y77096D01*
X109654D01*
Y77039D01*
X109598D01*
Y76982D01*
X109485D01*
Y76926D01*
X109428D01*
Y76869D01*
X109371D01*
Y76813D01*
X109315D01*
Y76756D01*
Y76699D01*
X109258D01*
Y76643D01*
X109202D01*
Y76699D01*
X109088D01*
Y76756D01*
X108975D01*
Y76813D01*
X108805D01*
Y76869D01*
X108466D01*
Y76813D01*
X108409D01*
Y76756D01*
X108352D01*
Y76699D01*
X108296D01*
Y76643D01*
X108239D01*
Y76586D01*
X108183D01*
Y76530D01*
X108126D01*
Y76473D01*
Y76416D01*
X108069D01*
Y76360D01*
Y76303D01*
X108013D01*
Y76247D01*
X107956D01*
Y76303D01*
Y76360D01*
Y76416D01*
Y76473D01*
Y76530D01*
Y76586D01*
Y76643D01*
Y76699D01*
X108013D01*
Y76756D01*
Y76813D01*
Y76869D01*
Y76926D01*
X108069D01*
Y76982D01*
Y77039D01*
X108126D01*
Y77096D01*
Y77152D01*
Y77209D01*
X108183D01*
Y77266D01*
Y77322D01*
X108239D01*
Y77379D01*
Y77435D01*
X108296D01*
Y77492D01*
Y77549D01*
X108352D01*
Y77605D01*
X108409D01*
Y77662D01*
Y77719D01*
X108466D01*
Y77775D01*
Y77832D01*
X108522D01*
Y77888D01*
X108579D01*
Y77945D01*
Y78001D01*
X108635D01*
Y78058D01*
X108692D01*
Y78115D01*
Y78171D01*
X108749D01*
Y78228D01*
X108805D01*
Y78285D01*
X108862D01*
Y78341D01*
X108918D01*
Y78398D01*
Y78455D01*
X108975D01*
Y78511D01*
X109032D01*
Y78568D01*
X109088D01*
Y78624D01*
X109145D01*
Y78681D01*
X109202D01*
Y78737D01*
X109258D01*
Y78794D01*
X109315D01*
Y78851D01*
X109371D01*
Y78907D01*
X109428D01*
Y78964D01*
X109485D01*
Y79021D01*
X109541D01*
Y79077D01*
X109598D01*
Y79134D01*
Y79190D01*
X109654D01*
Y79247D01*
X109711D01*
Y79304D01*
X109768D01*
Y79360D01*
Y79417D01*
X109824D01*
Y79474D01*
X109881D01*
Y79530D01*
X109938D01*
Y79587D01*
Y79643D01*
X109994D01*
Y79700D01*
X110051D01*
Y79757D01*
Y79813D01*
X110107D01*
Y79870D01*
X110164D01*
Y79927D01*
Y79983D01*
X110221D01*
Y80040D01*
Y80096D01*
X110277D01*
Y80153D01*
X110334D01*
Y80209D01*
Y80266D01*
Y80323D01*
X110277D01*
Y80379D01*
X110107D01*
Y80323D01*
X110051D01*
Y80266D01*
X109824D01*
Y80323D01*
X109711D01*
Y80379D01*
X109654D01*
Y80436D01*
X109598D01*
Y80493D01*
X109541D01*
Y80549D01*
X109485D01*
Y80606D01*
X109428D01*
Y80663D01*
X109371D01*
Y80719D01*
X109315D01*
Y80776D01*
X109258D01*
Y80832D01*
X109202D01*
Y80889D01*
Y80945D01*
X109145D01*
Y81002D01*
X109088D01*
Y81059D01*
X109032D01*
Y81115D01*
X108975D01*
Y81172D01*
X108918D01*
Y81229D01*
X108862D01*
Y81285D01*
X108805D01*
Y81342D01*
X108522D01*
Y81285D01*
X108466D01*
Y81229D01*
X108409D01*
Y81172D01*
X108352D01*
Y81115D01*
X108239D01*
Y81059D01*
X108126D01*
Y81002D01*
X108013D01*
Y80945D01*
X107843D01*
Y80889D01*
X107560D01*
Y80832D01*
X107333D01*
Y80776D01*
Y80719D01*
Y80663D01*
X107277D01*
Y80606D01*
Y80549D01*
Y80493D01*
X107220D01*
Y80436D01*
Y80379D01*
X107163D01*
Y80323D01*
Y80266D01*
X107107D01*
Y80209D01*
X107050D01*
Y80153D01*
Y80096D01*
X106994D01*
Y80040D01*
X106937D01*
Y79983D01*
Y79927D01*
X106880D01*
Y79870D01*
X106824D01*
Y79813D01*
Y79757D01*
X106767D01*
Y79700D01*
X106711D01*
Y79643D01*
Y79587D01*
X106654D01*
Y79530D01*
X106597D01*
Y79474D01*
X106541D01*
Y79417D01*
X106484D01*
Y79360D01*
X106427D01*
Y79304D01*
Y79247D01*
Y79190D01*
Y79134D01*
X106484D01*
Y79077D01*
Y79021D01*
Y78964D01*
Y78907D01*
Y78851D01*
Y78794D01*
Y78737D01*
Y78681D01*
Y78624D01*
Y78568D01*
Y78511D01*
X106541D01*
Y78455D01*
Y78398D01*
Y78341D01*
Y78285D01*
Y78228D01*
Y78171D01*
Y78115D01*
X106484D01*
Y78058D01*
Y78001D01*
Y77945D01*
Y77888D01*
Y77832D01*
Y77775D01*
Y77719D01*
Y77662D01*
X106541D01*
Y77605D01*
Y77549D01*
X106597D01*
Y77492D01*
X106654D01*
Y77435D01*
Y77379D01*
X106711D01*
Y77322D01*
Y77266D01*
X106767D01*
Y77209D01*
Y77152D01*
X106824D01*
Y77096D01*
Y77039D01*
Y76982D01*
X106880D01*
Y76926D01*
Y76869D01*
Y76813D01*
X106937D01*
Y76756D01*
Y76699D01*
Y76643D01*
Y76586D01*
Y76530D01*
Y76473D01*
Y76416D01*
Y76360D01*
Y76303D01*
Y76247D01*
X106880D01*
Y76190D01*
Y76133D01*
X106824D01*
Y76077D01*
X106767D01*
Y76020D01*
X106427D01*
Y76077D01*
Y76133D01*
X106371D01*
Y76190D01*
Y76247D01*
X106314D01*
Y76303D01*
Y76360D01*
Y76416D01*
X106257D01*
Y76473D01*
Y76530D01*
X106201D01*
Y76586D01*
Y76643D01*
X106144D01*
Y76699D01*
X106088D01*
Y76756D01*
X106031D01*
Y76813D01*
X105748D01*
Y76756D01*
X105635D01*
Y76813D01*
X105578D01*
Y76869D01*
Y76926D01*
X105522D01*
Y76982D01*
Y77039D01*
X105465D01*
Y77096D01*
Y77152D01*
X105408D01*
Y77209D01*
Y77266D01*
X105352D01*
Y77322D01*
Y77379D01*
X105295D01*
Y77435D01*
Y77492D01*
Y77549D01*
Y77605D01*
X105238D01*
Y77662D01*
Y77719D01*
Y77775D01*
Y77832D01*
Y77888D01*
X105182D01*
Y77945D01*
Y78001D01*
Y78058D01*
Y78115D01*
Y78171D01*
Y78228D01*
Y78285D01*
Y78341D01*
X105125D01*
Y78398D01*
Y78455D01*
Y78511D01*
Y78568D01*
Y78624D01*
Y78681D01*
Y78737D01*
Y78794D01*
Y78851D01*
Y78907D01*
Y78964D01*
Y79021D01*
Y79077D01*
Y79134D01*
Y79190D01*
Y79247D01*
Y79304D01*
Y79360D01*
Y79417D01*
Y79474D01*
Y79530D01*
Y79587D01*
Y79643D01*
Y79700D01*
Y79757D01*
Y79813D01*
Y79870D01*
Y79927D01*
X105182D01*
Y79983D01*
Y80040D01*
Y80096D01*
Y80153D01*
X105238D01*
Y80209D01*
Y80266D01*
X105295D01*
Y80323D01*
Y80379D01*
X105352D01*
Y80436D01*
X105408D01*
Y80493D01*
X105465D01*
Y80549D01*
X105522D01*
Y80606D01*
X105578D01*
Y80663D01*
X105635D01*
Y80719D01*
X105691D01*
Y80776D01*
X105748D01*
Y80832D01*
Y80889D01*
X105805D01*
Y80945D01*
X105861D01*
Y81002D01*
X105918D01*
Y81059D01*
Y81115D01*
X105974D01*
Y81172D01*
X106031D01*
Y81229D01*
Y81285D01*
X106088D01*
Y81342D01*
Y81398D01*
X106144D01*
Y81455D01*
Y81512D01*
X106201D01*
Y81568D01*
X106257D01*
Y81625D01*
Y81682D01*
X106314D01*
Y81738D01*
X106371D01*
Y81795D01*
X106427D01*
Y81851D01*
X106484D01*
Y81908D01*
X106541D01*
Y81965D01*
X106597D01*
Y82021D01*
X106654D01*
Y82078D01*
X106711D01*
Y82134D01*
X106767D01*
Y82191D01*
X106824D01*
Y82248D01*
X106880D01*
Y82304D01*
Y82361D01*
X106937D01*
Y82418D01*
X106994D01*
Y82474D01*
Y82531D01*
X107050D01*
Y82587D01*
X107107D01*
Y82644D01*
Y82701D01*
X107163D01*
Y82757D01*
Y82814D01*
X107220D01*
Y82870D01*
Y82927D01*
X107277D01*
Y82984D01*
X107333D01*
Y83040D01*
Y83097D01*
X107390D01*
Y83153D01*
X107447D01*
Y83210D01*
X107503D01*
Y83267D01*
Y83323D01*
X107560D01*
Y83380D01*
X107616D01*
Y83437D01*
X107673D01*
Y83493D01*
X107786D01*
Y83550D01*
X107843D01*
Y83606D01*
X107956D01*
Y83663D01*
X108069D01*
Y83720D01*
X108409D01*
Y83776D01*
X108805D01*
Y83833D01*
X109088D01*
Y83890D01*
X109371D01*
Y83946D01*
X109598D01*
Y84003D01*
X109824D01*
Y84059D01*
X110051D01*
Y84116D01*
X110277D01*
Y84173D01*
X110504D01*
Y84229D01*
X110730D01*
Y84286D01*
X110957D01*
Y84342D01*
X111240D01*
Y84399D01*
X111466D01*
Y84456D01*
X111636D01*
Y84512D01*
X111806D01*
Y84569D01*
X111976D01*
Y84626D01*
X112145D01*
Y84682D01*
X112315D01*
Y84739D01*
X112429D01*
Y84795D01*
X112598D01*
Y84852D01*
X112712D01*
Y84909D01*
X112825D01*
Y84965D01*
X112938D01*
Y85022D01*
X113051D01*
Y85078D01*
X112995D01*
Y85135D01*
Y85192D01*
X112938D01*
Y85248D01*
X112882D01*
Y85305D01*
Y85361D01*
X112825D01*
Y85418D01*
Y85475D01*
X112768D01*
Y85531D01*
Y85588D01*
X112712D01*
Y85645D01*
X112655D01*
Y85701D01*
Y85758D01*
X112598D01*
Y85814D01*
Y85871D01*
X112542D01*
Y85928D01*
Y85984D01*
X112485D01*
Y86041D01*
X112429D01*
Y86098D01*
Y86154D01*
X112372D01*
Y86211D01*
Y86267D01*
X112315D01*
Y86324D01*
X112259D01*
Y86381D01*
Y86437D01*
X112202D01*
Y86494D01*
Y86550D01*
X112145D01*
Y86607D01*
Y86664D01*
X112089D01*
Y86720D01*
X112032D01*
Y86777D01*
Y86834D01*
X111976D01*
Y86890D01*
Y86947D01*
X111919D01*
Y87003D01*
Y87060D01*
X111862D01*
Y87117D01*
X111806D01*
Y87173D01*
Y87230D01*
X111749D01*
Y87286D01*
Y87343D01*
X111693D01*
Y87400D01*
Y87456D01*
X111636D01*
Y87513D01*
X111579D01*
Y87569D01*
Y87626D01*
X111523D01*
Y87683D01*
Y87739D01*
X111466D01*
Y87796D01*
X111409D01*
Y87853D01*
Y87909D01*
X111353D01*
Y87966D01*
Y88022D01*
X111296D01*
Y88079D01*
Y88136D01*
X111240D01*
Y88192D01*
X111183D01*
Y88249D01*
Y88305D01*
X111126D01*
Y88362D01*
Y88419D01*
X111070D01*
Y88475D01*
Y88532D01*
X111013D01*
Y88589D01*
X110957D01*
Y88645D01*
Y88702D01*
X110900D01*
Y88758D01*
Y88815D01*
X110843D01*
Y88872D01*
Y88928D01*
X110787D01*
Y88985D01*
X110730D01*
Y89042D01*
Y89098D01*
X110673D01*
Y89155D01*
Y89211D01*
X110617D01*
Y89268D01*
X110560D01*
Y89324D01*
Y89381D01*
X110504D01*
Y89438D01*
Y89494D01*
X110447D01*
Y89551D01*
Y89608D01*
X110390D01*
Y89664D01*
X110334D01*
Y89721D01*
Y89777D01*
X110277D01*
Y89834D01*
Y89891D01*
X110221D01*
Y89947D01*
Y90004D01*
D02*
G37*
G36*
X55598Y93948D02*
X55488D01*
X55415Y93941D01*
X55328Y93934D01*
X55233Y93927D01*
X55029Y93890D01*
X55014D01*
X54978Y93883D01*
X54927Y93868D01*
X54854Y93854D01*
X54766Y93839D01*
X54672Y93810D01*
X54460Y93759D01*
Y92964D01*
X54475Y92972D01*
X54504Y92986D01*
X54555Y93001D01*
X54621Y93030D01*
X54701Y93059D01*
X54796Y93088D01*
X54890Y93117D01*
X55000Y93147D01*
X55014Y93154D01*
X55051Y93161D01*
X55109Y93176D01*
X55182Y93190D01*
X55269Y93205D01*
X55372Y93212D01*
X55481Y93227D01*
X55641D01*
X55700Y93219D01*
X55765Y93212D01*
X55853Y93198D01*
X55940Y93183D01*
X56035Y93154D01*
X56122Y93117D01*
X56130Y93110D01*
X56159Y93095D01*
X56203Y93074D01*
X56261Y93045D01*
X56319Y93001D01*
X56385Y92950D01*
X56450Y92891D01*
X56509Y92818D01*
X56516Y92811D01*
X56531Y92782D01*
X56560Y92746D01*
X56596Y92687D01*
X56633Y92622D01*
X56669Y92541D01*
X56706Y92447D01*
X56742Y92345D01*
Y92330D01*
X56757Y92294D01*
X56764Y92235D01*
X56779Y92162D01*
X56793Y92068D01*
X56808Y91958D01*
X56815Y91842D01*
X56822Y91710D01*
Y91703D01*
Y91696D01*
Y91652D01*
Y91587D01*
X56815Y91506D01*
X56808Y91412D01*
X56800Y91302D01*
X56764Y91091D01*
Y91076D01*
X56749Y91047D01*
X56735Y90996D01*
X56713Y90930D01*
X56684Y90857D01*
X56647Y90777D01*
X56560Y90624D01*
X56552Y90617D01*
X56538Y90595D01*
X56502Y90559D01*
X56465Y90515D01*
X56414Y90471D01*
X56348Y90420D01*
X56283Y90376D01*
X56203Y90333D01*
X56195Y90325D01*
X56166Y90318D01*
X56115Y90303D01*
X56057Y90289D01*
X55977Y90267D01*
X55889Y90252D01*
X55780Y90245D01*
X55670Y90238D01*
X55532D01*
X55503Y90245D01*
X55466D01*
X55430Y90252D01*
X55423D01*
X55401Y90260D01*
X55372Y90267D01*
X55335Y90274D01*
X55328D01*
X55306Y90282D01*
X55277Y90296D01*
X55240Y90303D01*
Y91404D01*
X55969D01*
Y92068D01*
X54446D01*
Y89779D01*
X54460Y89771D01*
X54497Y89757D01*
X54555Y89735D01*
X54635Y89706D01*
X54730Y89669D01*
X54832Y89640D01*
X54949Y89604D01*
X55065Y89582D01*
X55080D01*
X55124Y89574D01*
X55189Y89560D01*
X55269Y89553D01*
X55379Y89538D01*
X55496Y89523D01*
X55627Y89516D01*
X54446D01*
X55838D01*
X55882Y89523D01*
X55926D01*
X56035Y89531D01*
X56159Y89545D01*
X56290Y89574D01*
X56429Y89604D01*
X56567Y89647D01*
X56574D01*
X56582Y89655D01*
X56625Y89676D01*
X56691Y89706D01*
X56779Y89749D01*
X56873Y89808D01*
X56975Y89881D01*
X57077Y89961D01*
X57172Y90056D01*
X57179Y90070D01*
X57216Y90107D01*
X57260Y90165D01*
X57311Y90245D01*
X57376Y90340D01*
X57435Y90456D01*
X57500Y90588D01*
X57551Y90734D01*
Y90741D01*
X57559Y90755D01*
X57566Y90777D01*
X57573Y90806D01*
X57580Y90843D01*
X57595Y90894D01*
X57617Y91003D01*
X57639Y91142D01*
X57661Y91302D01*
X57675Y91477D01*
X57683Y91667D01*
Y89881D01*
Y91761D01*
X57675Y91805D01*
Y91864D01*
X57668Y91987D01*
X57646Y92141D01*
X57624Y92301D01*
X57588Y92469D01*
X57544Y92629D01*
Y92636D01*
X57537Y92651D01*
X57529Y92673D01*
X57515Y92702D01*
X57486Y92775D01*
X57442Y92877D01*
X57384Y92986D01*
X57318Y93110D01*
X57238Y93227D01*
X57143Y93343D01*
X57128Y93358D01*
X57092Y93394D01*
X57034Y93445D01*
X56961Y93511D01*
X56866Y93584D01*
X56749Y93657D01*
X56625Y93722D01*
X56487Y93788D01*
X56480D01*
X56472Y93795D01*
X56450Y93803D01*
X56414Y93810D01*
X56378Y93824D01*
X56334Y93839D01*
X56225Y93868D01*
X56093Y93897D01*
X55948Y93927D01*
X55780Y93941D01*
X55598Y93948D01*
D02*
G37*
G36*
X31643Y93948D02*
Y90486D01*
X31635D01*
X31613Y90478D01*
X31584Y90464D01*
X31548Y90449D01*
X31504Y90435D01*
X31453Y90420D01*
X31336Y90384D01*
X31329D01*
X31307Y90376D01*
X31271Y90369D01*
X31234Y90355D01*
X31183Y90347D01*
X31125Y90333D01*
X31001Y90303D01*
X30994D01*
X30972Y90296D01*
X30943Y90289D01*
X30899Y90282D01*
X30848Y90274D01*
X30790Y90267D01*
X30673Y90245D01*
X30644D01*
X30615Y90238D01*
X30571D01*
X30469Y90231D01*
X30272D01*
X30214Y90238D01*
X30156D01*
X30090Y90245D01*
X29959Y90267D01*
X29951D01*
X29930Y90274D01*
X29900Y90282D01*
X29864Y90296D01*
X29776Y90325D01*
X29696Y90369D01*
X29689D01*
X29682Y90384D01*
X29638Y90420D01*
X29594Y90471D01*
X29550Y90537D01*
Y90544D01*
X29543Y90551D01*
X29521Y90602D01*
X29507Y90668D01*
X29499Y90748D01*
Y90755D01*
Y90777D01*
X29507Y90806D01*
X29514Y90843D01*
X29536Y90930D01*
X29565Y90967D01*
X29594Y91011D01*
X29601Y91018D01*
X29609Y91032D01*
X29631Y91047D01*
X29660Y91076D01*
X29733Y91135D01*
X29835Y91200D01*
X29842Y91207D01*
X29857Y91215D01*
X29893Y91229D01*
X29930Y91251D01*
X29980Y91273D01*
X30039Y91295D01*
X30170Y91346D01*
X30177D01*
X30199Y91360D01*
X30243Y91368D01*
X30287Y91390D01*
X30345Y91412D01*
X30411Y91433D01*
X30556Y91484D01*
X30564Y91492D01*
X30586Y91499D01*
X30629Y91514D01*
X30673Y91535D01*
X30731Y91565D01*
X30797Y91594D01*
X30935Y91659D01*
X30943Y91667D01*
X30965Y91674D01*
X31001Y91696D01*
X31052Y91725D01*
X31161Y91798D01*
X31278Y91893D01*
X31285Y91900D01*
X31300Y91922D01*
X31329Y91951D01*
X31358Y91987D01*
X31402Y92039D01*
X31438Y92097D01*
X31511Y92228D01*
Y92235D01*
X31526Y92264D01*
X31541Y92308D01*
X31555Y92359D01*
X31570Y92432D01*
X31584Y92512D01*
X31592Y92600D01*
X31599Y92702D01*
Y92716D01*
Y92746D01*
X31592Y92797D01*
X31584Y92855D01*
X31577Y92935D01*
X31562Y93015D01*
X31541Y93095D01*
X31511Y93183D01*
X31504Y93190D01*
X31497Y93219D01*
X31468Y93263D01*
X31438Y93314D01*
X31395Y93380D01*
X31351Y93445D01*
X31285Y93511D01*
X31220Y93577D01*
X31212Y93584D01*
X31183Y93606D01*
X31140Y93635D01*
X31081Y93671D01*
X31008Y93715D01*
X30921Y93759D01*
X30826Y93803D01*
X30717Y93846D01*
X30709D01*
X30702Y93854D01*
X30659Y93861D01*
X30593Y93875D01*
X30505Y93897D01*
X30396Y93919D01*
X30265Y93934D01*
X30126Y93941D01*
X29966Y93948D01*
X29886D01*
X29805Y93941D01*
X29704Y93934D01*
X29682D01*
X29652Y93927D01*
X29616D01*
X29521Y93912D01*
X29426Y93897D01*
X29405D01*
X29375Y93890D01*
X29339D01*
X29259Y93875D01*
X29164Y93854D01*
X29142D01*
X29113Y93846D01*
X29084Y93839D01*
X29004Y93824D01*
X28923Y93810D01*
Y93074D01*
X28931D01*
X28945Y93081D01*
X28967Y93088D01*
X28996Y93095D01*
X29069Y93117D01*
X29157Y93139D01*
X29164D01*
X29179Y93147D01*
X29201Y93154D01*
X29237Y93161D01*
X29317Y93183D01*
X29419Y93198D01*
X29426D01*
X29441Y93205D01*
X29470D01*
X29499Y93212D01*
X29587Y93227D01*
X29689Y93241D01*
X29711D01*
X29740Y93249D01*
X29769D01*
X29849Y93256D01*
X30017D01*
X30068Y93249D01*
X30185Y93241D01*
X30308Y93219D01*
X30316D01*
X30330Y93212D01*
X30360Y93205D01*
X30396Y93190D01*
X30469Y93161D01*
X30549Y93117D01*
X30556D01*
X30564Y93110D01*
X30600Y93081D01*
X30644Y93030D01*
X30688Y92972D01*
Y92964D01*
X30695Y92957D01*
X30702Y92913D01*
X30717Y92855D01*
X30724Y92775D01*
Y92767D01*
Y92753D01*
X30717Y92731D01*
X30709Y92695D01*
X30688Y92622D01*
X30666Y92578D01*
X30637Y92541D01*
X30629Y92534D01*
X30622Y92527D01*
X30600Y92505D01*
X30571Y92483D01*
X30498Y92425D01*
X30403Y92366D01*
X30396D01*
X30374Y92352D01*
X30345Y92337D01*
X30301Y92323D01*
X30250Y92301D01*
X30192Y92279D01*
X30061Y92228D01*
X30053D01*
X30024Y92213D01*
X29988Y92206D01*
X29944Y92184D01*
X29886Y92162D01*
X29820Y92141D01*
X29674Y92082D01*
X29667D01*
X29638Y92068D01*
X29601Y92053D01*
X29550Y92031D01*
X29485Y92009D01*
X29419Y91980D01*
X29281Y91907D01*
X29273Y91900D01*
X29252Y91893D01*
X29215Y91871D01*
X29164Y91842D01*
X29062Y91769D01*
X28945Y91667D01*
X28938Y91659D01*
X28916Y91645D01*
X28894Y91616D01*
X28858Y91572D01*
X28821Y91521D01*
X28778Y91470D01*
X28741Y91404D01*
X28705Y91331D01*
X28697Y91324D01*
X28690Y91295D01*
X28676Y91258D01*
X28654Y91207D01*
X28639Y91135D01*
X28624Y91062D01*
X28617Y90974D01*
X28610Y90879D01*
Y90894D01*
Y90821D01*
X28617Y90755D01*
X28624Y90675D01*
X28639Y90573D01*
X28668Y90471D01*
X28697Y90369D01*
X28741Y90267D01*
X28749Y90252D01*
X28763Y90223D01*
X28792Y90180D01*
X28836Y90121D01*
X28887Y90048D01*
X28953Y89983D01*
X29026Y89910D01*
X29106Y89844D01*
X29113Y89837D01*
X29149Y89815D01*
X29193Y89786D01*
X29266Y89749D01*
X29346Y89713D01*
X29441Y89669D01*
X29550Y89633D01*
X29667Y89596D01*
X29682D01*
X29725Y89582D01*
X29791Y89574D01*
X29871Y89560D01*
X29980Y89545D01*
X30097Y89531D01*
X30228Y89523D01*
X30367Y89516D01*
X28610D01*
D01*
X31643D01*
Y93948D01*
D02*
G37*
G36*
X53535Y93875D02*
X50954D01*
Y93190D01*
X52711D01*
Y92126D01*
X51034D01*
Y91462D01*
X52711D01*
Y90274D01*
X50954D01*
Y89589D01*
X53535D01*
Y93875D01*
D02*
G37*
G36*
X50181D02*
X47010D01*
Y93205D01*
X48184D01*
Y89589D01*
X47010D01*
D01*
X50181D01*
D01*
X49007D01*
Y93205D01*
X50181D01*
Y93875D01*
D02*
G37*
G36*
X42629D02*
X39523D01*
X41258D01*
X41171Y93868D01*
X41069Y93861D01*
X40966Y93846D01*
X40740Y93810D01*
X40726D01*
X40690Y93795D01*
X40639Y93781D01*
X40573Y93766D01*
X40493Y93737D01*
X40413Y93701D01*
X40332Y93657D01*
X40252Y93606D01*
X40245Y93599D01*
X40216Y93584D01*
X40179Y93547D01*
X40135Y93511D01*
X40084Y93453D01*
X40033Y93394D01*
X39982Y93322D01*
X39939Y93241D01*
X39931Y93234D01*
X39917Y93198D01*
X39902Y93154D01*
X39880Y93088D01*
X39858Y93008D01*
X39837Y92913D01*
X39829Y92804D01*
X39822Y92687D01*
Y92680D01*
Y92651D01*
Y92607D01*
X39829Y92549D01*
X39837Y92483D01*
X39851Y92410D01*
X39895Y92272D01*
Y92264D01*
X39909Y92243D01*
X39924Y92206D01*
X39946Y92162D01*
X40004Y92060D01*
X40084Y91951D01*
X40092Y91944D01*
X40106Y91929D01*
X40135Y91907D01*
X40165Y91878D01*
X40208Y91842D01*
X40259Y91805D01*
X40383Y91740D01*
X40391D01*
X40413Y91725D01*
X40449Y91710D01*
X40493Y91696D01*
X40551Y91674D01*
X40617Y91659D01*
X40762Y91623D01*
X40755D01*
X40733Y91616D01*
X40704Y91608D01*
X40668Y91594D01*
X40624Y91565D01*
X40573Y91536D01*
X40522Y91499D01*
X40471Y91448D01*
X40464Y91441D01*
X40449Y91419D01*
X40420Y91390D01*
X40391Y91339D01*
X40347Y91280D01*
X40303Y91207D01*
X40259Y91120D01*
X40208Y91025D01*
X39523Y89589D01*
X40471D01*
D01*
X40914D01*
X40471D01*
X41076Y90967D01*
Y90974D01*
X41090Y90996D01*
X41112Y91032D01*
X41134Y91076D01*
X41207Y91178D01*
X41258Y91222D01*
X41309Y91266D01*
X41316Y91273D01*
X41338Y91280D01*
X41368Y91295D01*
X41411Y91317D01*
X41462Y91339D01*
X41521Y91353D01*
X41594Y91360D01*
X41666Y91368D01*
X41820D01*
Y89589D01*
X42629D01*
Y93875D01*
D02*
G37*
G36*
X38750D02*
X36170Y93875D01*
Y93190D01*
X37927Y93190D01*
Y92126D01*
X36250Y92126D01*
Y91462D01*
X37927Y91462D01*
Y90274D01*
X36170Y90274D01*
Y89589D01*
X38750Y89589D01*
Y93875D01*
D02*
G37*
G36*
X35215Y93875D02*
X33888D01*
X33815Y93868D01*
X33713Y93861D01*
X33596Y93854D01*
X33472Y93839D01*
X33349Y93810D01*
X33224Y93781D01*
X33217D01*
X33210Y93774D01*
X33173Y93766D01*
X33115Y93744D01*
X33035Y93715D01*
X32955Y93679D01*
X32867Y93635D01*
X32773Y93577D01*
X32692Y93518D01*
X32685Y93511D01*
X32656Y93489D01*
X32620Y93453D01*
X32568Y93402D01*
X32517Y93336D01*
X32459Y93263D01*
X32408Y93183D01*
X32357Y93088D01*
X32350Y93074D01*
X32335Y93045D01*
X32321Y92993D01*
X32299Y92921D01*
X32277Y92833D01*
X32255Y92738D01*
X32248Y92622D01*
X32240Y92505D01*
Y92447D01*
X32248Y92381D01*
X32255Y92301D01*
X32269Y92206D01*
X32291Y92104D01*
X32321Y91995D01*
X32357Y91885D01*
X32364Y91871D01*
X32379Y91842D01*
X32401Y91783D01*
X32437Y91718D01*
X32488Y91645D01*
X32539Y91565D01*
X32605Y91477D01*
X32685Y91397D01*
X32692Y91390D01*
X32721Y91360D01*
X32773Y91324D01*
X32838Y91280D01*
X32911Y91229D01*
X33006Y91178D01*
X33115Y91127D01*
X33232Y91076D01*
X33246Y91069D01*
X33290Y91062D01*
X33356Y91040D01*
X33450Y91025D01*
X33560Y91003D01*
X33691Y90981D01*
X33837Y90974D01*
X33990Y90967D01*
X34398D01*
Y89589D01*
X32240D01*
X35215D01*
Y93875D01*
D02*
G37*
%LPD*%
G36*
X31643Y89516D02*
X30491D01*
X30571Y89523D01*
X30673D01*
X30782Y89538D01*
X31023Y89560D01*
X31038D01*
X31074Y89567D01*
X31140Y89574D01*
X31220Y89589D01*
X31315Y89611D01*
X31417Y89633D01*
X31643Y89691D01*
Y89516D01*
D02*
G37*
G36*
X41820Y91995D02*
X41433D01*
X41382Y92002D01*
X41273Y92009D01*
X41156Y92031D01*
X41149D01*
X41127Y92039D01*
X41105Y92046D01*
X41069Y92060D01*
X40981Y92097D01*
X40901Y92148D01*
X40894Y92155D01*
X40879Y92162D01*
X40835Y92206D01*
X40784Y92264D01*
X40733Y92345D01*
Y92352D01*
X40726Y92366D01*
X40711Y92388D01*
X40697Y92425D01*
X40675Y92505D01*
X40668Y92614D01*
Y92622D01*
Y92629D01*
Y92665D01*
X40675Y92724D01*
X40690Y92789D01*
X40719Y92862D01*
X40755Y92935D01*
X40806Y93008D01*
X40872Y93066D01*
X40879Y93074D01*
X40908Y93088D01*
X40952Y93110D01*
X41017Y93139D01*
X41105Y93161D01*
X41207Y93183D01*
X41331Y93198D01*
X41469Y93205D01*
X41820D01*
Y91995D01*
D02*
G37*
G36*
X34398Y91637D02*
X33881D01*
X33830Y91645D01*
X33771Y91652D01*
X33706Y91659D01*
X33582Y91689D01*
X33575D01*
X33553Y91703D01*
X33523Y91710D01*
X33487Y91732D01*
X33400Y91783D01*
X33312Y91856D01*
X33305Y91864D01*
X33290Y91878D01*
X33276Y91900D01*
X33246Y91929D01*
X33195Y92009D01*
X33144Y92111D01*
Y92119D01*
X33137Y92141D01*
X33123Y92170D01*
X33115Y92213D01*
X33101Y92264D01*
X33093Y92323D01*
X33086Y92454D01*
Y92461D01*
Y92483D01*
Y92512D01*
X33093Y92556D01*
X33108Y92651D01*
X33144Y92760D01*
Y92767D01*
X33152Y92782D01*
X33166Y92811D01*
X33181Y92840D01*
X33232Y92921D01*
X33305Y92993D01*
X33312Y93001D01*
X33327Y93008D01*
X33349Y93030D01*
X33378Y93052D01*
X33421Y93074D01*
X33465Y93103D01*
X33582Y93147D01*
X33589D01*
X33611Y93154D01*
X33647Y93168D01*
X33691Y93176D01*
X33757Y93190D01*
X33822Y93198D01*
X33895Y93205D01*
X34398D01*
Y91637D01*
D02*
G37*
%LPC*%
G36*
X41516Y85096D02*
X41429D01*
X41374Y85085D01*
X41270Y85058D01*
X41177Y85014D01*
X41101Y84970D01*
X41035Y84921D01*
X40986Y84878D01*
X40959Y84850D01*
X40948Y84845D01*
Y84839D01*
X40910Y84790D01*
X40872Y84736D01*
X40817Y84610D01*
X40779Y84484D01*
X40751Y84359D01*
X40735Y84250D01*
X40730Y84201D01*
Y84157D01*
X40724Y84124D01*
Y84097D01*
Y84080D01*
Y84075D01*
Y83982D01*
X40735Y83889D01*
X40746Y83807D01*
X40757Y83736D01*
X40773Y83665D01*
X40795Y83600D01*
X40811Y83545D01*
X40833Y83496D01*
X40855Y83447D01*
X40872Y83409D01*
X40893Y83376D01*
X40910Y83354D01*
X40921Y83332D01*
X40932Y83316D01*
X40943Y83311D01*
Y83305D01*
X40986Y83261D01*
X41030Y83223D01*
X41117Y83163D01*
X41210Y83119D01*
X41292Y83092D01*
X41368Y83070D01*
X41429Y83065D01*
X41450Y83059D01*
X41483D01*
X41543Y83065D01*
X41598Y83070D01*
X41701Y83098D01*
X41794Y83136D01*
X41871Y83185D01*
X41936Y83229D01*
X41980Y83267D01*
X42007Y83294D01*
X42018Y83305D01*
X42056Y83354D01*
X42089Y83409D01*
X42144Y83534D01*
X42176Y83660D01*
X42204Y83791D01*
X42220Y83906D01*
X42226Y83960D01*
Y84004D01*
X42231Y84042D01*
Y84070D01*
Y84086D01*
Y84091D01*
Y84184D01*
X42220Y84266D01*
X42209Y84342D01*
X42198Y84419D01*
X42182Y84484D01*
X42166Y84544D01*
X42144Y84605D01*
X42122Y84654D01*
X42105Y84697D01*
X42084Y84736D01*
X42067Y84768D01*
X42051Y84790D01*
X42040Y84812D01*
X42029Y84828D01*
X42018Y84834D01*
Y84839D01*
X41974Y84883D01*
X41931Y84927D01*
X41844Y84987D01*
X41756Y85036D01*
X41669Y85063D01*
X41598Y85085D01*
X41538Y85091D01*
X41516Y85096D01*
D02*
G37*
G36*
X52900D02*
X52867D01*
X52802Y85091D01*
X52742Y85085D01*
X52632Y85058D01*
X52534Y85014D01*
X52452Y84965D01*
X52387Y84916D01*
X52338Y84878D01*
X52305Y84845D01*
X52294Y84839D01*
Y84834D01*
X52250Y84785D01*
X52218Y84725D01*
X52157Y84605D01*
X52114Y84474D01*
X52086Y84353D01*
X52070Y84239D01*
X52065Y84190D01*
Y84146D01*
X52059Y84113D01*
Y84086D01*
Y84070D01*
Y84064D01*
Y83966D01*
X52070Y83873D01*
X52081Y83791D01*
X52097Y83709D01*
X52114Y83638D01*
X52136Y83573D01*
X52152Y83513D01*
X52174Y83458D01*
X52196Y83414D01*
X52218Y83371D01*
X52239Y83338D01*
X52256Y83311D01*
X52272Y83289D01*
X52283Y83272D01*
X52288Y83267D01*
X52294Y83261D01*
X52338Y83218D01*
X52387Y83174D01*
X52479Y83109D01*
X52578Y83065D01*
X52665Y83032D01*
X52747Y83016D01*
X52807Y83005D01*
X52834Y82999D01*
X52867D01*
X52933Y83005D01*
X52993Y83010D01*
X53107Y83038D01*
X53206Y83081D01*
X53288Y83130D01*
X53353Y83174D01*
X53402Y83218D01*
X53435Y83245D01*
X53440Y83256D01*
X53446D01*
X53484Y83311D01*
X53522Y83365D01*
X53577Y83491D01*
X53621Y83622D01*
X53648Y83753D01*
X53664Y83867D01*
X53670Y83917D01*
Y83960D01*
X53675Y83999D01*
Y84026D01*
Y84042D01*
Y84048D01*
X53670Y84140D01*
X53664Y84233D01*
X53653Y84315D01*
X53637Y84392D01*
X53621Y84463D01*
X53604Y84528D01*
X53583Y84583D01*
X53561Y84637D01*
X53539Y84681D01*
X53517Y84725D01*
X53501Y84757D01*
X53484Y84785D01*
X53468Y84807D01*
X53457Y84823D01*
X53446Y84828D01*
Y84834D01*
X53402Y84878D01*
X53353Y84921D01*
X53260Y84987D01*
X53162Y85030D01*
X53069Y85063D01*
X52987Y85085D01*
X52927Y85091D01*
X52900Y85096D01*
D02*
G37*
G36*
X29711Y86090D02*
X29679D01*
X29618Y86084D01*
X29559Y86079D01*
X29504Y86062D01*
X29455Y86041D01*
X29362Y85991D01*
X29280Y85937D01*
X29220Y85877D01*
X29171Y85828D01*
X29154Y85806D01*
X29144Y85789D01*
X29133Y85784D01*
Y85778D01*
X29094Y85713D01*
X29062Y85637D01*
X29029Y85549D01*
X29007Y85456D01*
X28985Y85358D01*
X28969Y85254D01*
X28942Y85047D01*
X28931Y84943D01*
X28925Y84850D01*
X28920Y84763D01*
Y84692D01*
X28914Y84626D01*
Y84577D01*
Y84550D01*
Y84544D01*
Y84539D01*
Y84370D01*
X28925Y84217D01*
X28936Y84080D01*
X28947Y83949D01*
X28963Y83840D01*
X28985Y83736D01*
X29007Y83649D01*
X29023Y83567D01*
X29045Y83502D01*
X29067Y83447D01*
X29083Y83398D01*
X29105Y83360D01*
X29116Y83332D01*
X29127Y83316D01*
X29138Y83305D01*
Y83300D01*
X29182Y83245D01*
X29225Y83201D01*
X29269Y83158D01*
X29313Y83125D01*
X29406Y83070D01*
X29487Y83032D01*
X29564Y83010D01*
X29618Y82999D01*
X29640Y82994D01*
X29673D01*
X29733Y82999D01*
X29788Y83005D01*
X29891Y83043D01*
X29984Y83092D01*
X30066Y83147D01*
X30126Y83201D01*
X30175Y83250D01*
X30203Y83289D01*
X30214Y83294D01*
Y83300D01*
X30252Y83365D01*
X30285Y83442D01*
X30317Y83529D01*
X30339Y83622D01*
X30361Y83720D01*
X30378Y83824D01*
X30405Y84037D01*
X30416Y84135D01*
X30421Y84228D01*
X30427Y84315D01*
Y84386D01*
X30432Y84452D01*
Y84501D01*
Y84528D01*
Y84539D01*
X30427Y84708D01*
X30421Y84861D01*
X30410Y85003D01*
X30394Y85134D01*
X30378Y85249D01*
X30356Y85353D01*
X30334Y85445D01*
X30312Y85527D01*
X30290Y85598D01*
X30274Y85658D01*
X30252Y85707D01*
X30235Y85751D01*
X30219Y85778D01*
X30208Y85800D01*
X30197Y85811D01*
Y85817D01*
X30159Y85866D01*
X30121Y85909D01*
X30077Y85942D01*
X30033Y85975D01*
X29946Y86024D01*
X29864Y86057D01*
X29793Y86073D01*
X29733Y86084D01*
X29711Y86090D01*
D02*
G37*
G36*
X49897Y85112D02*
X49870D01*
X49815Y85107D01*
X49760Y85101D01*
X49662Y85074D01*
X49575Y85030D01*
X49498Y84981D01*
X49438Y84932D01*
X49395Y84894D01*
X49367Y84861D01*
X49356Y84856D01*
Y84850D01*
X49318Y84801D01*
X49285Y84741D01*
X49231Y84615D01*
X49193Y84490D01*
X49165Y84364D01*
X49149Y84250D01*
X49143Y84201D01*
Y84157D01*
X49138Y84119D01*
Y84091D01*
Y84075D01*
Y84070D01*
Y83971D01*
X49149Y83878D01*
X49160Y83791D01*
X49171Y83709D01*
X49187Y83638D01*
X49209Y83573D01*
X49231Y83507D01*
X49247Y83458D01*
X49269Y83409D01*
X49291Y83371D01*
X49307Y83332D01*
X49329Y83305D01*
X49340Y83283D01*
X49351Y83267D01*
X49362Y83261D01*
Y83256D01*
X49406Y83212D01*
X49449Y83174D01*
X49537Y83109D01*
X49624Y83065D01*
X49706Y83032D01*
X49782Y83016D01*
X49837Y83005D01*
X49859Y82999D01*
X49891D01*
X49946Y83005D01*
X50001Y83010D01*
X50099Y83038D01*
X50186Y83081D01*
X50263Y83125D01*
X50323Y83169D01*
X50366Y83212D01*
X50394Y83240D01*
X50405Y83250D01*
X50443Y83300D01*
X50476Y83354D01*
X50530Y83480D01*
X50563Y83605D01*
X50590Y83736D01*
X50607Y83851D01*
X50612Y83900D01*
Y83944D01*
X50618Y83982D01*
Y84009D01*
Y84026D01*
Y84031D01*
Y84130D01*
X50607Y84217D01*
X50596Y84299D01*
X50585Y84381D01*
X50563Y84452D01*
X50547Y84517D01*
X50525Y84577D01*
X50503Y84632D01*
X50487Y84676D01*
X50465Y84719D01*
X50443Y84752D01*
X50427Y84785D01*
X50416Y84807D01*
X50405Y84823D01*
X50394Y84828D01*
Y84834D01*
X50350Y84883D01*
X50306Y84927D01*
X50263Y84965D01*
X50214Y84998D01*
X50126Y85047D01*
X50044Y85080D01*
X49973Y85096D01*
X49919Y85107D01*
X49897Y85112D01*
D02*
G37*
G36*
X89894Y78535D02*
X88597D01*
X88449Y78498D01*
X88375Y78461D01*
X88338D01*
X88116Y78424D01*
X88079Y78387D01*
X88042D01*
X87857Y78202D01*
X87820Y78165D01*
Y78128D01*
X87783Y77979D01*
X87746Y77868D01*
Y77794D01*
Y77757D01*
X87783Y77461D01*
X87857Y77276D01*
X87931Y77165D01*
X87968Y77128D01*
X88227Y77017D01*
X88486Y76980D01*
X88709Y76943D01*
X89894D01*
Y78535D01*
D02*
G37*
G36*
X85524Y77498D02*
X85450D01*
X85117Y77461D01*
X84894Y77350D01*
X84746Y77202D01*
X84709Y77165D01*
X84561Y76906D01*
X84487Y76609D01*
X84450Y76350D01*
Y76276D01*
Y76239D01*
X84487Y75832D01*
X84561Y75573D01*
X84672Y75387D01*
X84709Y75313D01*
X84931Y75128D01*
X85191Y75017D01*
X85376Y74980D01*
X85450D01*
X85783Y75017D01*
X86005Y75165D01*
X86153Y75276D01*
X86190Y75313D01*
X86339Y75610D01*
X86413Y75906D01*
X86450Y76128D01*
Y76202D01*
Y76239D01*
X86413Y76646D01*
X86302Y76943D01*
X86228Y77091D01*
X86190Y77165D01*
X85968Y77350D01*
X85709Y77461D01*
X85524Y77498D01*
D02*
G37*
G36*
X9678Y33237D02*
X9663D01*
X9609Y33232D01*
X9561Y33219D01*
X9520Y33204D01*
X9484Y33184D01*
X9456Y33163D01*
X9436Y33148D01*
X9423Y33135D01*
X9418Y33130D01*
X9385Y33087D01*
X9359Y33041D01*
X9341Y32992D01*
X9331Y32947D01*
X9324Y32906D01*
X9321Y32888D01*
Y32873D01*
X9319Y32860D01*
Y32850D01*
Y32844D01*
Y32842D01*
X9324Y32773D01*
X9334Y32714D01*
X9349Y32663D01*
X9367Y32620D01*
X9387Y32587D01*
X9403Y32561D01*
X9413Y32546D01*
X9418Y32544D01*
Y32541D01*
X9436Y32521D01*
X9456Y32505D01*
X9497Y32477D01*
X9538Y32459D01*
X9574Y32444D01*
X9607Y32436D01*
X9632Y32434D01*
X9642Y32431D01*
X9655D01*
X9691Y32434D01*
X9724Y32439D01*
X9755Y32449D01*
X9780Y32459D01*
X9803Y32467D01*
X9821Y32477D01*
X9831Y32482D01*
X9836Y32485D01*
X9867Y32508D01*
X9892Y32531D01*
X9915Y32559D01*
X9933Y32582D01*
X9948Y32605D01*
X9959Y32623D01*
X9966Y32635D01*
X9969Y32640D01*
X9984Y32679D01*
X9994Y32717D01*
X10005Y32753D01*
X10010Y32786D01*
X10012Y32814D01*
X10015Y32837D01*
Y32850D01*
Y32855D01*
X10010Y32916D01*
X9999Y32969D01*
X9982Y33018D01*
X9964Y33056D01*
X9946Y33089D01*
X9928Y33112D01*
X9918Y33125D01*
X9913Y33130D01*
X9872Y33166D01*
X9831Y33191D01*
X9788Y33212D01*
X9749Y33224D01*
X9714Y33232D01*
X9688Y33235D01*
X9678Y33237D01*
D02*
G37*
G36*
X27540Y45114D02*
Y44323D01*
X28095D01*
X27540Y45114D01*
D02*
G37*
G36*
X70261Y18169D02*
X70251D01*
X70246D01*
X70244D01*
X70175Y18164D01*
X70116Y18154D01*
X70065Y18138D01*
X70022Y18121D01*
X69989Y18100D01*
X69963Y18085D01*
X69948Y18075D01*
X69945Y18070D01*
X69943D01*
X69922Y18052D01*
X69907Y18031D01*
X69879Y17991D01*
X69861Y17950D01*
X69846Y17914D01*
X69838Y17881D01*
X69836Y17855D01*
X69833Y17845D01*
Y17832D01*
X69836Y17797D01*
X69841Y17764D01*
X69851Y17733D01*
X69861Y17707D01*
X69869Y17685D01*
X69879Y17667D01*
X69884Y17657D01*
X69886Y17651D01*
X69909Y17621D01*
X69932Y17595D01*
X69960Y17572D01*
X69983Y17555D01*
X70006Y17539D01*
X70024Y17529D01*
X70037Y17521D01*
X70042Y17519D01*
X70080Y17503D01*
X70118Y17493D01*
X70154Y17483D01*
X70187Y17478D01*
X70215Y17476D01*
X70238Y17473D01*
X70251D01*
X70256D01*
X70317Y17478D01*
X70371Y17488D01*
X70419Y17506D01*
X70458Y17524D01*
X70491Y17542D01*
X70514Y17560D01*
X70526Y17570D01*
X70532Y17575D01*
X70567Y17616D01*
X70593Y17657D01*
X70613Y17700D01*
X70626Y17738D01*
X70634Y17774D01*
X70636Y17799D01*
X70639Y17809D01*
Y17825D01*
X70634Y17878D01*
X70621Y17927D01*
X70606Y17968D01*
X70585Y18003D01*
X70565Y18031D01*
X70549Y18052D01*
X70537Y18065D01*
X70532Y18070D01*
X70488Y18103D01*
X70442Y18128D01*
X70394Y18146D01*
X70348Y18156D01*
X70307Y18164D01*
X70289Y18167D01*
X70274D01*
X70261Y18169D01*
D02*
G37*
G36*
X70970Y15344D02*
X70968D01*
X70965D01*
X70934Y15341D01*
X70904Y15336D01*
X70878Y15328D01*
X70855Y15321D01*
X70835Y15311D01*
X70820Y15303D01*
X70810Y15298D01*
X70807Y15295D01*
X70781Y15277D01*
X70759Y15254D01*
X70741Y15232D01*
X70725Y15209D01*
X70715Y15188D01*
X70708Y15173D01*
X70702Y15163D01*
X70700Y15157D01*
X70690Y15122D01*
X70682Y15081D01*
X70677Y15040D01*
X70674Y14999D01*
X70672Y14964D01*
X70669Y14933D01*
Y14408D01*
X71253D01*
Y14964D01*
X71251Y15033D01*
X71241Y15091D01*
X71228Y15142D01*
X71213Y15180D01*
X71197Y15214D01*
X71184Y15234D01*
X71174Y15247D01*
X71172Y15252D01*
X71139Y15282D01*
X71105Y15305D01*
X71070Y15321D01*
X71039Y15334D01*
X71008Y15339D01*
X70986Y15341D01*
X70970Y15344D01*
D02*
G37*
G36*
X62008Y13939D02*
X61424D01*
Y13383D01*
X61426Y13314D01*
X61437Y13255D01*
X61449Y13204D01*
X61465Y13166D01*
X61480Y13133D01*
X61493Y13112D01*
X61503Y13100D01*
X61506Y13095D01*
X61539Y13064D01*
X61572Y13041D01*
X61607Y13026D01*
X61638Y13013D01*
X61669Y13008D01*
X61692Y13005D01*
X61707Y13003D01*
X61709D01*
X61712D01*
X61743Y13005D01*
X61773Y13010D01*
X61799Y13018D01*
X61822Y13026D01*
X61842Y13036D01*
X61857Y13044D01*
X61868Y13049D01*
X61870Y13051D01*
X61896Y13069D01*
X61919Y13092D01*
X61936Y13115D01*
X61952Y13138D01*
X61962Y13158D01*
X61970Y13174D01*
X61975Y13184D01*
X61977Y13189D01*
X61987Y13225D01*
X61995Y13265D01*
X62000Y13306D01*
X62003Y13347D01*
X62005Y13383D01*
X62008Y13413D01*
Y13939D01*
D02*
G37*
G36*
X20138Y46727D02*
X19344D01*
X19246Y46723D01*
X19162Y46709D01*
X19089Y46690D01*
X19035Y46668D01*
X18987Y46647D01*
X18958Y46628D01*
X18940Y46614D01*
X18933Y46610D01*
X18889Y46563D01*
X18856Y46516D01*
X18834Y46465D01*
X18816Y46421D01*
X18809Y46377D01*
X18805Y46345D01*
X18802Y46323D01*
Y46319D01*
Y46316D01*
X18805Y46272D01*
X18813Y46228D01*
X18823Y46192D01*
X18834Y46159D01*
X18849Y46130D01*
X18860Y46108D01*
X18867Y46093D01*
X18871Y46090D01*
X18896Y46053D01*
X18929Y46021D01*
X18962Y45995D01*
X18995Y45973D01*
X19024Y45959D01*
X19046Y45948D01*
X19060Y45941D01*
X19067Y45937D01*
X19118Y45922D01*
X19177Y45911D01*
X19235Y45904D01*
X19293Y45900D01*
X19344Y45897D01*
X19388Y45893D01*
X20138D01*
Y46727D01*
D02*
G37*
G36*
X16240Y40521D02*
X16224D01*
X16171Y40516D01*
X16122Y40503D01*
X16081Y40488D01*
X16046Y40467D01*
X16018Y40447D01*
X15997Y40431D01*
X15984Y40419D01*
X15979Y40413D01*
X15946Y40370D01*
X15921Y40324D01*
X15903Y40276D01*
X15893Y40230D01*
X15885Y40189D01*
X15882Y40171D01*
Y40156D01*
X15880Y40143D01*
Y40133D01*
Y40128D01*
Y40125D01*
X15885Y40056D01*
X15895Y39998D01*
X15911Y39947D01*
X15928Y39904D01*
X15949Y39870D01*
X15964Y39845D01*
X15974Y39830D01*
X15979Y39827D01*
Y39825D01*
X15997Y39804D01*
X16018Y39789D01*
X16059Y39761D01*
X16099Y39743D01*
X16135Y39728D01*
X16168Y39720D01*
X16194Y39717D01*
X16204Y39715D01*
X16217D01*
X16252Y39717D01*
X16285Y39722D01*
X16316Y39733D01*
X16341Y39743D01*
X16364Y39750D01*
X16382Y39761D01*
X16393Y39766D01*
X16398Y39768D01*
X16428Y39791D01*
X16454Y39814D01*
X16477Y39842D01*
X16495Y39865D01*
X16510Y39888D01*
X16520Y39906D01*
X16528Y39919D01*
X16530Y39924D01*
X16545Y39962D01*
X16556Y40000D01*
X16566Y40036D01*
X16571Y40069D01*
X16574Y40097D01*
X16576Y40120D01*
Y40133D01*
Y40138D01*
X16571Y40199D01*
X16561Y40253D01*
X16543Y40301D01*
X16525Y40340D01*
X16507Y40373D01*
X16489Y40396D01*
X16479Y40408D01*
X16474Y40413D01*
X16433Y40449D01*
X16393Y40475D01*
X16349Y40495D01*
X16311Y40508D01*
X16275Y40516D01*
X16250Y40518D01*
X16240Y40521D01*
D02*
G37*
G36*
X18269Y41135D02*
X17713D01*
X17645Y41133D01*
X17586Y41122D01*
X17535Y41110D01*
X17497Y41094D01*
X17463Y41079D01*
X17443Y41066D01*
X17430Y41056D01*
X17425Y41054D01*
X17395Y41020D01*
X17372Y40987D01*
X17356Y40952D01*
X17344Y40921D01*
X17339Y40890D01*
X17336Y40867D01*
X17334Y40852D01*
Y40850D01*
Y40847D01*
X17336Y40816D01*
X17341Y40786D01*
X17349Y40760D01*
X17356Y40737D01*
X17367Y40717D01*
X17374Y40702D01*
X17379Y40692D01*
X17382Y40689D01*
X17400Y40663D01*
X17423Y40641D01*
X17446Y40623D01*
X17469Y40607D01*
X17489Y40597D01*
X17504Y40589D01*
X17515Y40584D01*
X17520Y40582D01*
X17555Y40572D01*
X17596Y40564D01*
X17637Y40559D01*
X17678Y40556D01*
X17713Y40554D01*
X17744Y40551D01*
X18269D01*
Y41135D01*
D02*
G37*
G36*
X93466Y16529D02*
X92910D01*
X92841Y16526D01*
X92783Y16516D01*
X92732Y16503D01*
X92694Y16488D01*
X92660Y16473D01*
X92640Y16460D01*
X92627Y16450D01*
X92622Y16447D01*
X92592Y16414D01*
X92569Y16381D01*
X92553Y16345D01*
X92541Y16315D01*
X92535Y16284D01*
X92533Y16261D01*
X92530Y16246D01*
Y16243D01*
Y16241D01*
X92533Y16210D01*
X92538Y16180D01*
X92546Y16154D01*
X92553Y16131D01*
X92563Y16111D01*
X92571Y16095D01*
X92576Y16085D01*
X92579Y16083D01*
X92597Y16057D01*
X92620Y16034D01*
X92642Y16016D01*
X92665Y16001D01*
X92686Y15991D01*
X92701Y15983D01*
X92711Y15978D01*
X92716Y15976D01*
X92752Y15965D01*
X92793Y15958D01*
X92834Y15953D01*
X92875Y15950D01*
X92910Y15947D01*
X92941Y15945D01*
X93466D01*
Y16529D01*
D02*
G37*
G36*
X114529Y26371D02*
X113973D01*
X113904Y26369D01*
X113846Y26359D01*
X113795Y26346D01*
X113757Y26331D01*
X113723Y26315D01*
X113703Y26303D01*
X113690Y26292D01*
X113685Y26290D01*
X113654Y26257D01*
X113632Y26223D01*
X113616Y26188D01*
X113603Y26157D01*
X113598Y26127D01*
X113596Y26104D01*
X113593Y26088D01*
Y26086D01*
Y26083D01*
X113596Y26053D01*
X113601Y26022D01*
X113609Y25997D01*
X113616Y25974D01*
X113627Y25953D01*
X113634Y25938D01*
X113639Y25928D01*
X113642Y25925D01*
X113660Y25900D01*
X113683Y25877D01*
X113706Y25859D01*
X113728Y25844D01*
X113749Y25833D01*
X113764Y25826D01*
X113774Y25821D01*
X113779Y25818D01*
X113815Y25808D01*
X113856Y25800D01*
X113897Y25795D01*
X113938Y25793D01*
X113973Y25790D01*
X114004Y25787D01*
X114529D01*
Y26371D01*
D02*
G37*
G36*
X112382Y26216D02*
Y25425D01*
X112938D01*
X112382Y26216D01*
D02*
G37*
G36*
X15513Y56280D02*
X15105D01*
X15072Y56277D01*
X15039D01*
X15009Y56275D01*
X14957Y56267D01*
X14917Y56262D01*
X14884Y56254D01*
X14861Y56247D01*
X14848Y56244D01*
X14843Y56242D01*
X14797Y56219D01*
X14753Y56191D01*
X14715Y56157D01*
X14682Y56124D01*
X14657Y56094D01*
X14636Y56068D01*
X14631Y56058D01*
X14626Y56050D01*
X14621Y56045D01*
Y56043D01*
X14606Y56015D01*
X14590Y55982D01*
X14567Y55915D01*
X14552Y55844D01*
X14539Y55775D01*
X14537Y55744D01*
X14534Y55714D01*
X14532Y55688D01*
Y55665D01*
X14529Y55645D01*
Y55632D01*
Y55622D01*
Y55620D01*
X14532Y55548D01*
X14537Y55482D01*
X14544Y55423D01*
X14552Y55372D01*
X14557Y55352D01*
X14562Y55334D01*
X14567Y55316D01*
X14570Y55303D01*
X14572Y55293D01*
X14575Y55285D01*
X14578Y55280D01*
Y55278D01*
X14595Y55229D01*
X14616Y55186D01*
X14639Y55148D01*
X14659Y55115D01*
X14677Y55089D01*
X14692Y55071D01*
X14703Y55061D01*
X14705Y55056D01*
X14731Y55036D01*
X14756Y55018D01*
X14782Y55002D01*
X14807Y54987D01*
X14830Y54977D01*
X14848Y54969D01*
X14861Y54967D01*
X14866Y54964D01*
X14904Y54954D01*
X14950Y54946D01*
X14996Y54941D01*
X15039Y54939D01*
X15077Y54936D01*
X15095Y54934D01*
X15513D01*
Y56280D01*
D02*
G37*
G36*
X116685Y34707D02*
X116670D01*
X116668D01*
X116665D01*
X116624Y34705D01*
X116586Y34694D01*
X116553Y34682D01*
X116525Y34666D01*
X116502Y34651D01*
X116487Y34638D01*
X116474Y34628D01*
X116471Y34626D01*
X116446Y34595D01*
X116425Y34559D01*
X116413Y34526D01*
X116402Y34493D01*
X116397Y34462D01*
X116395Y34439D01*
X116392Y34424D01*
Y34419D01*
X116395Y34373D01*
X116405Y34332D01*
X116418Y34297D01*
X116433Y34266D01*
X116446Y34243D01*
X116458Y34225D01*
X116469Y34212D01*
X116471Y34210D01*
X116502Y34184D01*
X116537Y34164D01*
X116571Y34151D01*
X116604Y34141D01*
X116632Y34136D01*
X116655Y34133D01*
X116670Y34131D01*
X116673D01*
X116675D01*
X116716Y34133D01*
X116752Y34143D01*
X116785Y34156D01*
X116813Y34172D01*
X116836Y34184D01*
X116854Y34197D01*
X116864Y34207D01*
X116867Y34210D01*
X116894Y34243D01*
X116915Y34276D01*
X116928Y34312D01*
X116938Y34345D01*
X116943Y34376D01*
X116948Y34398D01*
Y34419D01*
X116946Y34462D01*
X116935Y34503D01*
X116923Y34536D01*
X116907Y34567D01*
X116892Y34590D01*
X116879Y34608D01*
X116869Y34620D01*
X116867Y34623D01*
X116833Y34651D01*
X116800Y34671D01*
X116767Y34687D01*
X116736Y34697D01*
X116708Y34702D01*
X116685Y34707D01*
D02*
G37*
G36*
X115869Y34778D02*
X115862D01*
X115857D01*
X115854D01*
X115801Y34773D01*
X115750Y34763D01*
X115706Y34745D01*
X115671Y34727D01*
X115642Y34710D01*
X115620Y34692D01*
X115607Y34682D01*
X115602Y34677D01*
X115568Y34636D01*
X115543Y34595D01*
X115528Y34552D01*
X115515Y34511D01*
X115507Y34475D01*
X115505Y34444D01*
X115502Y34434D01*
Y34419D01*
X115505Y34383D01*
X115510Y34348D01*
X115517Y34314D01*
X115525Y34286D01*
X115533Y34263D01*
X115541Y34245D01*
X115546Y34235D01*
X115548Y34230D01*
X115568Y34200D01*
X115589Y34174D01*
X115612Y34151D01*
X115635Y34133D01*
X115653Y34118D01*
X115668Y34108D01*
X115681Y34103D01*
X115683Y34100D01*
X115716Y34087D01*
X115747Y34077D01*
X115778Y34070D01*
X115806Y34064D01*
X115829Y34062D01*
X115847Y34059D01*
X115857D01*
X115862D01*
X115915Y34064D01*
X115964Y34075D01*
X116007Y34090D01*
X116045Y34110D01*
X116073Y34128D01*
X116096Y34143D01*
X116109Y34154D01*
X116114Y34159D01*
X116147Y34197D01*
X116173Y34240D01*
X116191Y34281D01*
X116203Y34322D01*
X116211Y34358D01*
X116214Y34386D01*
X116216Y34396D01*
Y34411D01*
X116211Y34467D01*
X116201Y34518D01*
X116183Y34564D01*
X116165Y34602D01*
X116145Y34633D01*
X116127Y34656D01*
X116117Y34669D01*
X116112Y34674D01*
X116071Y34710D01*
X116027Y34735D01*
X115984Y34753D01*
X115946Y34766D01*
X115908Y34773D01*
X115880Y34776D01*
X115869Y34778D01*
D02*
G37*
G36*
X65601Y57106D02*
X65586D01*
X65558Y57103D01*
X65530Y57100D01*
X65505Y57093D01*
X65482Y57083D01*
X65438Y57060D01*
X65400Y57034D01*
X65372Y57006D01*
X65349Y56983D01*
X65341Y56973D01*
X65336Y56965D01*
X65331Y56963D01*
Y56960D01*
X65313Y56930D01*
X65298Y56894D01*
X65283Y56853D01*
X65272Y56810D01*
X65262Y56764D01*
X65255Y56715D01*
X65242Y56618D01*
X65237Y56570D01*
X65234Y56527D01*
X65232Y56486D01*
Y56453D01*
X65229Y56422D01*
Y56399D01*
Y56387D01*
Y56384D01*
Y56381D01*
Y56302D01*
X65234Y56231D01*
X65239Y56167D01*
X65245Y56106D01*
X65252Y56055D01*
X65262Y56006D01*
X65272Y55966D01*
X65280Y55927D01*
X65290Y55897D01*
X65301Y55871D01*
X65308Y55848D01*
X65318Y55831D01*
X65324Y55818D01*
X65329Y55810D01*
X65334Y55805D01*
Y55803D01*
X65354Y55777D01*
X65374Y55757D01*
X65395Y55736D01*
X65415Y55721D01*
X65459Y55695D01*
X65497Y55678D01*
X65533Y55667D01*
X65558Y55662D01*
X65568Y55660D01*
X65584D01*
X65612Y55662D01*
X65637Y55665D01*
X65686Y55683D01*
X65729Y55706D01*
X65767Y55731D01*
X65795Y55757D01*
X65818Y55780D01*
X65831Y55797D01*
X65836Y55800D01*
Y55803D01*
X65854Y55833D01*
X65869Y55869D01*
X65885Y55910D01*
X65895Y55953D01*
X65905Y55999D01*
X65913Y56047D01*
X65925Y56147D01*
X65930Y56193D01*
X65933Y56236D01*
X65935Y56277D01*
Y56310D01*
X65938Y56341D01*
Y56363D01*
Y56376D01*
Y56381D01*
X65935Y56460D01*
X65933Y56532D01*
X65928Y56598D01*
X65920Y56659D01*
X65913Y56713D01*
X65902Y56761D01*
X65892Y56805D01*
X65882Y56843D01*
X65872Y56876D01*
X65864Y56904D01*
X65854Y56927D01*
X65846Y56947D01*
X65839Y56960D01*
X65833Y56970D01*
X65828Y56976D01*
Y56978D01*
X65811Y57001D01*
X65793Y57021D01*
X65772Y57037D01*
X65752Y57052D01*
X65711Y57075D01*
X65673Y57090D01*
X65640Y57098D01*
X65612Y57103D01*
X65601Y57106D01*
D02*
G37*
G36*
X59485Y54350D02*
X59445D01*
X59419Y54345D01*
X59373Y54332D01*
X59332Y54314D01*
X59297Y54296D01*
X59269Y54276D01*
X59248Y54258D01*
X59236Y54245D01*
X59230Y54243D01*
Y54240D01*
X59197Y54197D01*
X59172Y54148D01*
X59154Y54097D01*
X59144Y54049D01*
X59136Y54008D01*
X59133Y53990D01*
Y53972D01*
X59131Y53960D01*
Y53949D01*
Y53944D01*
Y53942D01*
X59136Y53875D01*
X59146Y53817D01*
X59162Y53768D01*
X59179Y53728D01*
X59200Y53694D01*
X59215Y53671D01*
X59225Y53656D01*
X59230Y53651D01*
X59269Y53615D01*
X59310Y53590D01*
X59350Y53572D01*
X59391Y53559D01*
X59424Y53552D01*
X59452Y53549D01*
X59462Y53546D01*
X59478D01*
X59531Y53552D01*
X59580Y53562D01*
X59623Y53580D01*
X59661Y53600D01*
X59689Y53618D01*
X59712Y53636D01*
X59725Y53646D01*
X59730Y53651D01*
X59763Y53692D01*
X59789Y53738D01*
X59804Y53784D01*
X59817Y53827D01*
X59825Y53865D01*
X59827Y53881D01*
Y53896D01*
X59830Y53908D01*
Y53916D01*
Y53921D01*
Y53924D01*
X59825Y53990D01*
X59814Y54051D01*
X59797Y54105D01*
X59776Y54148D01*
X59758Y54184D01*
X59740Y54209D01*
X59735Y54217D01*
X59730Y54225D01*
X59725Y54227D01*
Y54230D01*
X59705Y54250D01*
X59684Y54271D01*
X59641Y54299D01*
X59598Y54322D01*
X59557Y54334D01*
X59524Y54345D01*
X59496Y54347D01*
X59485Y54350D01*
D02*
G37*
G36*
X50044Y21673D02*
X50024D01*
X49981Y21670D01*
X49940Y21660D01*
X49907Y21647D01*
X49876Y21632D01*
X49853Y21616D01*
X49835Y21604D01*
X49822Y21593D01*
X49820Y21591D01*
X49792Y21558D01*
X49771Y21525D01*
X49756Y21491D01*
X49746Y21461D01*
X49741Y21433D01*
X49736Y21410D01*
Y21395D01*
Y21392D01*
Y21389D01*
X49738Y21349D01*
X49749Y21310D01*
X49761Y21277D01*
X49777Y21249D01*
X49792Y21226D01*
X49805Y21211D01*
X49815Y21198D01*
X49817Y21196D01*
X49848Y21170D01*
X49884Y21150D01*
X49917Y21137D01*
X49950Y21127D01*
X49981Y21122D01*
X50003Y21119D01*
X50019Y21117D01*
X50024D01*
X50070Y21119D01*
X50111Y21129D01*
X50146Y21142D01*
X50177Y21157D01*
X50200Y21170D01*
X50218Y21183D01*
X50230Y21193D01*
X50233Y21196D01*
X50258Y21226D01*
X50279Y21262D01*
X50292Y21295D01*
X50302Y21328D01*
X50307Y21356D01*
X50309Y21379D01*
X50312Y21395D01*
Y21397D01*
Y21400D01*
X50309Y21440D01*
X50299Y21476D01*
X50287Y21509D01*
X50271Y21537D01*
X50258Y21560D01*
X50246Y21578D01*
X50235Y21588D01*
X50233Y21591D01*
X50200Y21619D01*
X50167Y21639D01*
X50131Y21652D01*
X50098Y21662D01*
X50067Y21667D01*
X50044Y21673D01*
D02*
G37*
G36*
X50047Y20941D02*
X50032D01*
X49975Y20935D01*
X49924Y20925D01*
X49878Y20908D01*
X49840Y20890D01*
X49810Y20869D01*
X49787Y20851D01*
X49774Y20841D01*
X49769Y20836D01*
X49733Y20795D01*
X49708Y20752D01*
X49690Y20709D01*
X49677Y20670D01*
X49669Y20632D01*
X49667Y20604D01*
X49664Y20594D01*
Y20586D01*
Y20581D01*
Y20579D01*
X49669Y20525D01*
X49680Y20474D01*
X49697Y20431D01*
X49715Y20395D01*
X49733Y20367D01*
X49751Y20344D01*
X49761Y20331D01*
X49766Y20326D01*
X49807Y20293D01*
X49848Y20267D01*
X49891Y20252D01*
X49932Y20239D01*
X49968Y20232D01*
X49998Y20229D01*
X50009Y20227D01*
X50024D01*
X50060Y20229D01*
X50095Y20234D01*
X50128Y20242D01*
X50156Y20250D01*
X50179Y20257D01*
X50197Y20265D01*
X50208Y20270D01*
X50213Y20272D01*
X50243Y20293D01*
X50269Y20313D01*
X50292Y20336D01*
X50309Y20359D01*
X50325Y20377D01*
X50335Y20392D01*
X50340Y20405D01*
X50343Y20408D01*
X50355Y20441D01*
X50366Y20471D01*
X50373Y20502D01*
X50378Y20530D01*
X50381Y20553D01*
X50383Y20571D01*
Y20581D01*
Y20586D01*
X50378Y20640D01*
X50368Y20688D01*
X50353Y20731D01*
X50332Y20770D01*
X50315Y20798D01*
X50299Y20821D01*
X50289Y20833D01*
X50284Y20839D01*
X50246Y20872D01*
X50202Y20897D01*
X50161Y20915D01*
X50121Y20928D01*
X50085Y20935D01*
X50057Y20938D01*
X50047Y20941D01*
D02*
G37*
%LPD*%
D10*
X46000Y15216D02*
X45213D01*
X46000D01*
X19020Y32480D02*
X18232D01*
X19020D01*
X4827Y42709D02*
Y53827D01*
X11323Y39114D02*
Y53827D01*
D13*
X8575Y36768D02*
X7825Y37201D01*
Y36335D01*
X8575Y36768D01*
D16*
X25000Y30118D02*
X31693D01*
X25000Y42323D02*
X31693D01*
X25000Y41929D02*
Y42323D01*
X31693Y41929D02*
Y42323D01*
Y30118D02*
Y30512D01*
X25000Y30118D02*
Y30512D01*
D57*
X130610Y37992D02*
X129872Y38418D01*
Y37566D01*
X130610Y37992D01*
M02*
