G04*
G04 #@! TF.GenerationSoftware,Altium Limited,Altium Designer,19.1.5 (86)*
G04*
G04 Layer_Physical_Order=2*
G04 Layer_Color=32768*
%FSLAX25Y25*%
%MOIN*%
G70*
G01*
G75*
%ADD10C,0.00787*%
%ADD67C,0.01575*%
%ADD68C,0.04000*%
%ADD69R,1.05512X0.31890*%
%ADD70C,0.03543*%
%ADD71C,0.04689*%
%ADD72C,0.05512*%
G04:AMPARAMS|DCode=73|XSize=59.252mil|YSize=59.252mil|CornerRadius=0mil|HoleSize=0mil|Usage=FLASHONLY|Rotation=0.000|XOffset=0mil|YOffset=0mil|HoleType=Round|Shape=Relief|Width=7.87mil|Gap=7.87mil|Entries=4|*
%AMTHD73*
7,0,0,0.05925,0.04350,0.00787,45*
%
%ADD73THD73*%
%ADD74C,0.01988*%
D10*
X0Y0D02*
Y65748D01*
Y0D02*
X141732D01*
Y65748D01*
X0D02*
X141732D01*
X0Y0D02*
Y65748D01*
Y0D02*
X141732D01*
Y65748D01*
D67*
X59449Y51575D02*
D03*
X82677Y38976D02*
D03*
X81496Y35433D02*
D03*
X68898Y50394D02*
D03*
X62254Y50443D02*
D03*
X50394Y27559D02*
D03*
X131496Y29134D02*
D03*
X137008Y47638D02*
D03*
X127165Y49606D02*
D03*
X85433Y38189D02*
D03*
X96457Y55905D02*
D03*
X118110Y50787D02*
D03*
X76772Y50394D02*
D03*
X92126Y55905D02*
D03*
X106299Y9055D02*
D03*
X94488Y7087D02*
D03*
X63386Y16535D02*
D03*
X64567Y50000D02*
D03*
X48819Y51575D02*
D03*
D68*
X-0Y65748D02*
X0Y0D01*
X-0Y65748D02*
X18110D01*
X18110Y98425D01*
X123622D01*
X123622Y65748D02*
X123622Y98425D01*
X123622Y65748D02*
X141732D01*
X141732Y0D01*
X0D02*
X141732D01*
D69*
X70866Y82480D02*
D03*
D70*
X19146Y7894D02*
D03*
X11272D02*
D03*
D71*
X105075Y46358D02*
D03*
Y54358D02*
D03*
X85075Y50358D02*
D03*
D72*
X132283Y14173D02*
D03*
X122283D02*
D03*
D73*
X51575Y54331D02*
D03*
X110236Y18504D02*
D03*
X112598Y46457D02*
D03*
X82677D02*
D03*
X95276Y38189D02*
D03*
X82677Y20079D02*
D03*
X50787Y23622D02*
D03*
X31890Y15748D02*
D03*
X27953Y24803D02*
D03*
X29921Y50000D02*
D03*
X53150Y4331D02*
D03*
D74*
X38976Y57480D02*
D03*
X47638Y57480D02*
D03*
X43307Y57480D02*
D03*
X34646Y57480D02*
D03*
X21654Y57480D02*
D03*
X30315Y57480D02*
D03*
X25984Y57480D02*
D03*
X17323Y57480D02*
D03*
X130051Y50275D02*
D03*
X96063Y27165D02*
D03*
X108268Y29921D02*
D03*
X105118Y13780D02*
D03*
X131496Y40157D02*
D03*
X112598Y52756D02*
D03*
X106299Y38189D02*
D03*
X87402Y32283D02*
D03*
X124803Y31496D02*
D03*
Y35433D02*
D03*
X84252Y5118D02*
D03*
X78347Y20079D02*
D03*
X61417Y57087D02*
D03*
X63386Y32677D02*
D03*
X46457Y17717D02*
D03*
X31890Y10630D02*
D03*
X47244Y27953D02*
D03*
X49606Y34252D02*
D03*
Y37402D02*
D03*
X4331Y29921D02*
D03*
X39764Y37795D02*
D03*
X19685Y46850D02*
D03*
X49606Y40551D02*
D03*
X39370Y42913D02*
D03*
X18110Y24016D02*
D03*
X62205Y4331D02*
D03*
X7874Y55118D02*
D03*
X17323Y62205D02*
D03*
X28346Y40157D02*
D03*
Y36220D02*
D03*
Y32283D02*
D03*
X25984Y62205D02*
D03*
X43307D02*
D03*
X124409Y62205D02*
D03*
X85433Y62205D02*
D03*
X89764D02*
D03*
X98425Y62205D02*
D03*
X94095D02*
D03*
X76772D02*
D03*
X81102D02*
D03*
X72441Y62205D02*
D03*
X68110D02*
D03*
X102756D02*
D03*
X107087D02*
D03*
X115748Y62205D02*
D03*
X111417D02*
D03*
X120079Y62205D02*
D03*
X56299Y62205D02*
D03*
X47638Y62205D02*
D03*
X51968D02*
D03*
X38976Y62205D02*
D03*
X30315Y62205D02*
D03*
X34646D02*
D03*
X21654Y62205D02*
D03*
X68110Y41732D02*
D03*
Y28346D02*
D03*
Y37008D02*
D03*
Y32677D02*
D03*
X63386Y41732D02*
D03*
Y28346D02*
D03*
Y37008D02*
D03*
X72441Y41732D02*
D03*
Y28346D02*
D03*
Y37008D02*
D03*
Y32677D02*
D03*
X59055D02*
D03*
Y37008D02*
D03*
Y28346D02*
D03*
Y41732D02*
D03*
M02*
