M48
;Layer_Color=9474304
;FILE_FORMAT=2:5
INCH,TZ
;TYPE=PLATED
T1F00S00C0.00787
T2F00S00C0.01201
T3F00S00C0.02756
T4F00S00C0.04724
;TYPE=NON_PLATED
T5F00S00C0.03902
%
T01
X50394Y27559
X48819Y51575
X59449
X62254Y50443
X64567Y50000
X68898Y50394
X76772
X82677Y38976
X85433Y38189
X81496Y35433
X92126Y55905
X96457
X118110Y50787
X127165Y49606
X137008Y47638
X131496Y29134
X106299Y9055
X94488Y7087
X63386Y16535
T02
X4331Y29921
X18110Y24016
X27953Y24803
X28346Y32283
Y36220
Y40157
X29921Y50000
X19685Y46850
X7874Y55118
X39370Y42913
X39764Y37795
X49606Y37402
Y34252
Y40551
X47244Y27953
X50787Y23622
X46457Y17717
X31890Y15748
Y10630
X53150Y4331
X51575Y54331
X59055Y41732
X63386
X68110
X72441
Y37008
Y32677
X68110
Y37008
X63386
X59055
Y32677
X63386Y32677
X63386Y28346
X59055
X68110
X72441
X78347Y20079
X82677
X84252Y5118
X62205Y4331
X105118Y13780
X110236Y18504
X108268Y29921
X106299Y38189
X95276
X96063Y27165
X87402Y32283
X82677Y46457
X112598
Y52756
X130051Y50275
X131496Y40157
X124803Y35433
Y31496
X124409Y62205
X120079Y62205
X115748Y62205
X111417
X107087Y62205
X102756
X98425Y62205
X94095
X89764Y62205
X85433
X81102Y62205
X76772
X72441Y62205
X68110
X61417Y57087
X56299Y62205
X51968Y62205
X47638
X43307Y62205
X38976
X34646Y62205
X30315
X25984Y62205
X21654
X17323Y62205
Y57480
X21654Y57480
X25984
X30315Y57480
X34646
X38976Y57480
X43307
X47638Y57480
T03
X11272Y7894
X19146
T04
X122283Y14173
X132283
T05
X85075Y50358
X105075Y46358
Y54358
M30
