G04*
G04 #@! TF.GenerationSoftware,Altium Limited,Altium Designer,19.1.5 (86)*
G04*
G04 Layer_Physical_Order=1*
G04 Layer_Color=255*
%FSLAX25Y25*%
%MOIN*%
G70*
G01*
G75*
%ADD10C,0.00787*%
%ADD17R,0.00984X0.01378*%
%ADD18R,0.01968X0.01968*%
%ADD19R,0.01378X0.00984*%
G04:AMPARAMS|DCode=20|XSize=24.02mil|YSize=13.78mil|CornerRadius=3.45mil|HoleSize=0mil|Usage=FLASHONLY|Rotation=180.000|XOffset=0mil|YOffset=0mil|HoleType=Round|Shape=RoundedRectangle|*
%AMROUNDEDRECTD20*
21,1,0.02402,0.00689,0,0,180.0*
21,1,0.01713,0.01378,0,0,180.0*
1,1,0.00689,-0.00856,0.00345*
1,1,0.00689,0.00856,0.00345*
1,1,0.00689,0.00856,-0.00345*
1,1,0.00689,-0.00856,-0.00345*
%
%ADD20ROUNDEDRECTD20*%
G04:AMPARAMS|DCode=21|XSize=24.02mil|YSize=13.78mil|CornerRadius=3.45mil|HoleSize=0mil|Usage=FLASHONLY|Rotation=270.000|XOffset=0mil|YOffset=0mil|HoleType=Round|Shape=RoundedRectangle|*
%AMROUNDEDRECTD21*
21,1,0.02402,0.00689,0,0,270.0*
21,1,0.01713,0.01378,0,0,270.0*
1,1,0.00689,-0.00345,-0.00856*
1,1,0.00689,-0.00345,0.00856*
1,1,0.00689,0.00345,0.00856*
1,1,0.00689,0.00345,-0.00856*
%
%ADD21ROUNDEDRECTD21*%
%ADD22R,0.01063X0.03268*%
%ADD23R,0.03268X0.01063*%
%ADD24C,0.03937*%
%ADD25R,0.02200X0.05200*%
%ADD26R,0.01968X0.01968*%
%ADD27R,0.01575X0.05512*%
%ADD28R,0.00787X0.01968*%
%ADD29R,0.03543X0.03937*%
%ADD30O,0.01181X0.03150*%
%ADD31O,0.03150X0.01181*%
%ADD32R,0.01575X0.01575*%
%ADD54C,0.01968*%
%ADD55C,0.03098*%
G04:AMPARAMS|DCode=56|XSize=181.1mil|YSize=181.1mil|CornerRadius=9.06mil|HoleSize=0mil|Usage=FLASHONLY|Rotation=90.000|XOffset=0mil|YOffset=0mil|HoleType=Round|Shape=RoundedRectangle|*
%AMROUNDEDRECTD56*
21,1,0.18110,0.16299,0,0,90.0*
21,1,0.16299,0.18110,0,0,90.0*
1,1,0.01811,0.08150,0.08150*
1,1,0.01811,0.08150,-0.08150*
1,1,0.01811,-0.08150,-0.08150*
1,1,0.01811,-0.08150,0.08150*
%
%ADD56ROUNDEDRECTD56*%
%ADD57C,0.00984*%
%ADD58C,0.03937*%
%ADD59C,0.02953*%
%ADD60C,0.03150*%
%ADD61R,0.04331X0.04331*%
%ADD62C,0.04331*%
%ADD63C,0.03902*%
%ADD64C,0.07087*%
%ADD65R,0.07087X0.07087*%
%ADD66C,0.02402*%
%ADD67C,0.01575*%
G36*
X121181Y90945D02*
X56614D01*
Y83858D01*
X60551D01*
Y81286D01*
X64153Y77684D01*
X64134Y77665D01*
X64134Y68504D01*
X62323D01*
X62323Y76954D01*
X59355Y79921D01*
X47953D01*
Y83858D01*
X51890D01*
Y87008D01*
X29055D01*
Y76496D01*
X60551D01*
Y68504D01*
X55827D01*
Y71417D01*
X51890D01*
Y68504D01*
X47953D01*
Y71417D01*
X20472D01*
Y95709D01*
X121181D01*
Y90945D01*
D02*
G37*
G36*
X122880Y65441D02*
X123054Y65180D01*
X123315Y65006D01*
X123622Y64945D01*
X140929D01*
Y803D01*
X803D01*
Y64945D01*
X18110D01*
X18417Y65006D01*
X18678Y65180D01*
X18852Y65441D01*
X18913Y65748D01*
X46735D01*
Y64248D01*
X46051Y63791D01*
X45773Y63375D01*
X45172D01*
X44894Y63791D01*
X44166Y64278D01*
X43807Y64349D01*
Y62205D01*
X42807D01*
Y64349D01*
X42448Y64278D01*
X41720Y63791D01*
X41442Y63375D01*
X40841D01*
X40563Y63791D01*
X39835Y64278D01*
X39476Y64349D01*
Y62205D01*
X38476D01*
Y64349D01*
X38118Y64278D01*
X37390Y63791D01*
X37112Y63375D01*
X36510D01*
X36232Y63791D01*
X35504Y64278D01*
X35146Y64349D01*
Y62205D01*
X34146D01*
Y64349D01*
X33787Y64278D01*
X33059Y63791D01*
X32781Y63375D01*
X32180D01*
X31902Y63791D01*
X31174Y64278D01*
X30815Y64349D01*
Y62205D01*
X29815D01*
Y64349D01*
X29456Y64278D01*
X28728Y63791D01*
X28450Y63375D01*
X27849D01*
X27571Y63791D01*
X26843Y64278D01*
X26484Y64349D01*
Y62205D01*
X25484D01*
Y64349D01*
X25126Y64278D01*
X24398Y63791D01*
X24120Y63375D01*
X23518D01*
X23240Y63791D01*
X22512Y64278D01*
X22154Y64349D01*
Y62205D01*
X21154D01*
Y64349D01*
X20795Y64278D01*
X20067Y63791D01*
X19789Y63375D01*
X19187D01*
X18910Y63791D01*
X18181Y64278D01*
X17823Y64349D01*
Y62205D01*
X17323D01*
Y61705D01*
X15178D01*
X15250Y61346D01*
X15736Y60618D01*
X16464Y60132D01*
X16636Y60097D01*
Y59588D01*
X16464Y59553D01*
X15736Y59067D01*
X15250Y58339D01*
X15178Y57980D01*
X17323D01*
Y57480D01*
X17823D01*
Y55336D01*
X18181Y55407D01*
X18910Y55894D01*
X19187Y56310D01*
X19789D01*
X20067Y55894D01*
X20795Y55407D01*
X21154Y55336D01*
Y57480D01*
X22154D01*
Y55336D01*
X22512Y55407D01*
X23240Y55894D01*
X23518Y56310D01*
X24120D01*
X24398Y55894D01*
X25126Y55407D01*
X25484Y55336D01*
Y57480D01*
X26484D01*
Y55336D01*
X26843Y55407D01*
X27571Y55894D01*
X27849Y56310D01*
X28450D01*
X28728Y55894D01*
X29456Y55407D01*
X29815Y55336D01*
Y57480D01*
X30815D01*
Y55336D01*
X31174Y55407D01*
X31902Y55894D01*
X32180Y56310D01*
X32781D01*
X33059Y55894D01*
X33787Y55407D01*
X34146Y55336D01*
Y57480D01*
X35146D01*
Y55336D01*
X35504Y55407D01*
X36232Y55894D01*
X36510Y56310D01*
X37112D01*
X37390Y55894D01*
X38118Y55407D01*
X38476Y55336D01*
Y57480D01*
X39476D01*
Y55336D01*
X39835Y55407D01*
X40563Y55894D01*
X40841Y56310D01*
X41442D01*
X41720Y55894D01*
X42448Y55407D01*
X42807Y55336D01*
Y57480D01*
X43807D01*
Y55336D01*
X44166Y55407D01*
X44894Y55894D01*
X45172Y56310D01*
X45773D01*
X46051Y55894D01*
X46779Y55407D01*
X47138Y55336D01*
Y57480D01*
X47638D01*
Y57980D01*
X49782D01*
X49711Y58339D01*
X49224Y59067D01*
X48496Y59553D01*
X48324Y59588D01*
Y60097D01*
X48496Y60132D01*
X49224Y60618D01*
X49503Y61034D01*
X50104D01*
X50382Y60618D01*
X51110Y60132D01*
X51468Y60060D01*
Y62205D01*
X52469D01*
Y60060D01*
X52827Y60132D01*
X53555Y60618D01*
X53833Y61034D01*
X54435D01*
X54712Y60618D01*
X55440Y60132D01*
X55799Y60060D01*
Y62205D01*
X56799D01*
Y60060D01*
X57105Y60121D01*
X57955Y59272D01*
Y55626D01*
X57366D01*
Y55020D01*
X55807D01*
Y54024D01*
X55790Y53937D01*
Y52100D01*
X55290Y51893D01*
X53143Y54040D01*
X53201Y54331D01*
X53077Y54953D01*
X52724Y55480D01*
X52197Y55833D01*
X51575Y55956D01*
X50953Y55833D01*
X50425Y55480D01*
X50073Y54953D01*
X49949Y54331D01*
X50073Y53709D01*
X50425Y53181D01*
X50953Y52829D01*
X51575Y52705D01*
X51865Y52763D01*
X56183Y48445D01*
Y48254D01*
X56160Y48219D01*
X56083Y47835D01*
Y45866D01*
X56160Y45482D01*
X56327Y45232D01*
X56360Y45043D01*
X56295Y44610D01*
X56225Y44563D01*
X56178Y44492D01*
X55744Y44427D01*
X55555Y44461D01*
X55305Y44628D01*
X54921Y44704D01*
X52953D01*
X52569Y44628D01*
X52243Y44410D01*
X52026Y44085D01*
X51949Y43701D01*
X52026Y43317D01*
X52037Y43299D01*
X52209Y42913D01*
X52037Y42527D01*
X52026Y42510D01*
X51949Y42126D01*
X51983Y41954D01*
X51662Y41454D01*
X50920D01*
X50756Y41701D01*
X50228Y42053D01*
X49606Y42177D01*
X48984Y42053D01*
X48457Y41701D01*
X48104Y41173D01*
X47981Y40551D01*
X48104Y39929D01*
X48235Y39733D01*
X48132Y39063D01*
X48020Y38988D01*
X47382Y38934D01*
X46966Y39351D01*
Y40027D01*
X46966Y40028D01*
X46897Y40373D01*
X46702Y40666D01*
X46702Y40666D01*
X46287Y41080D01*
Y42272D01*
X44016D01*
Y39803D01*
X45010D01*
X45160Y39653D01*
Y38976D01*
X45229Y38631D01*
X45424Y38338D01*
X46728Y37034D01*
X47021Y36838D01*
X47367Y36770D01*
X47488D01*
X47533Y36543D01*
X48012Y35827D01*
X47533Y35111D01*
X47488Y34884D01*
X46973D01*
X46627Y34815D01*
X46334Y34619D01*
X46334Y34619D01*
X42833Y31118D01*
X42626D01*
Y29634D01*
X44110D01*
Y29841D01*
X47285Y33016D01*
X47808Y32983D01*
X48020Y32665D01*
X48748Y32179D01*
X49106Y32107D01*
Y34252D01*
X50106D01*
Y32107D01*
X50465Y32179D01*
X51193Y32665D01*
X51596Y33268D01*
X52026Y33061D01*
X51949Y32677D01*
X52008Y32384D01*
X51806Y32249D01*
X51455Y31723D01*
X51430Y31602D01*
X53937D01*
Y30602D01*
X51096D01*
X50955Y30431D01*
X49202D01*
X48857Y30362D01*
X48564Y30166D01*
X47855Y29457D01*
X47244Y29579D01*
X46622Y29455D01*
X46095Y29102D01*
X45742Y28575D01*
X45618Y27953D01*
X45742Y27331D01*
X46095Y26803D01*
X46622Y26451D01*
X46861Y26403D01*
X46812Y25903D01*
X37795D01*
X37708Y25886D01*
X36713D01*
Y24327D01*
X36106D01*
Y23738D01*
X34366D01*
Y24327D01*
X34366D01*
X34256Y24592D01*
X37393Y27729D01*
X38189D01*
X38325Y27756D01*
X39567D01*
Y28998D01*
X39594Y29134D01*
X39567Y29270D01*
Y30512D01*
X38325D01*
X38189Y30539D01*
X36811D01*
X36273Y30432D01*
X35818Y30127D01*
X31898Y26208D01*
X28720D01*
X28575Y26305D01*
X27953Y26429D01*
X27331Y26305D01*
X26803Y25953D01*
X26451Y25425D01*
X26327Y24803D01*
X26451Y24181D01*
X26803Y23654D01*
X27331Y23301D01*
X27953Y23177D01*
X28575Y23301D01*
X28720Y23398D01*
X30988D01*
Y23335D01*
X32677D01*
Y22835D01*
X33177D01*
Y21342D01*
X34366D01*
Y21932D01*
X36106D01*
Y21342D01*
X37295D01*
Y22835D01*
X38295D01*
Y21342D01*
X39484D01*
Y21932D01*
X40831D01*
Y21342D01*
X42020D01*
Y22835D01*
X43020D01*
Y21342D01*
X44209D01*
Y21932D01*
X44768D01*
Y21342D01*
X45957D01*
Y22835D01*
X46957D01*
Y21342D01*
X48146D01*
X48506Y21006D01*
Y19406D01*
X47917D01*
X47917Y19406D01*
Y19406D01*
X47525Y19649D01*
X47315Y19790D01*
X46957Y19861D01*
Y17717D01*
Y15572D01*
X47315Y15643D01*
X47525Y15783D01*
X47917Y16027D01*
Y16028D01*
X47917Y16028D01*
X48909D01*
Y17717D01*
X49909D01*
Y16028D01*
X50902D01*
Y16634D01*
X52461D01*
Y16813D01*
X53805D01*
X54013Y16313D01*
X47460Y9761D01*
X45276D01*
Y12008D01*
X42913D01*
Y5709D01*
X45276D01*
Y7955D01*
X47835D01*
X48180Y8024D01*
X48473Y8220D01*
X57061Y16808D01*
X57561Y16601D01*
Y14961D01*
X57579Y14873D01*
Y13878D01*
X59138D01*
Y13272D01*
X60130D01*
Y14961D01*
X60630D01*
Y15461D01*
X62206D01*
X62300Y15525D01*
X62622Y15625D01*
X62925Y15423D01*
X63386Y15331D01*
X63847Y15423D01*
X64237Y15684D01*
X64498Y16075D01*
X64584Y16503D01*
X64713Y16587D01*
X65061Y16733D01*
X68782Y13012D01*
Y6560D01*
X68763Y6556D01*
X67982Y6034D01*
X67460Y5252D01*
X67277Y4331D01*
X67460Y3409D01*
X67982Y2628D01*
X68763Y2106D01*
X69685Y1922D01*
X70607Y2106D01*
X71388Y2628D01*
X71910Y3409D01*
X72093Y4331D01*
X71910Y5252D01*
X71388Y6034D01*
X70607Y6556D01*
X70588Y6560D01*
Y12860D01*
X71088Y13068D01*
X76656Y7500D01*
Y6560D01*
X76637Y6556D01*
X75856Y6034D01*
X75334Y5252D01*
X75151Y4331D01*
X75334Y3409D01*
X75856Y2628D01*
X76637Y2106D01*
X77559Y1922D01*
X78481Y2106D01*
X79262Y2628D01*
X79784Y3409D01*
X79967Y4331D01*
X79784Y5252D01*
X79262Y6034D01*
X78481Y6556D01*
X78462Y6560D01*
Y7874D01*
X78462Y7874D01*
X78394Y8220D01*
X78198Y8513D01*
X74575Y12135D01*
X74833Y12524D01*
X74870Y12548D01*
X75197Y12483D01*
X84547D01*
Y12303D01*
X86319D01*
X86695Y12005D01*
Y11345D01*
X86764Y10999D01*
X86960Y10706D01*
X88329Y9337D01*
Y7858D01*
X91085D01*
Y10614D01*
X89606D01*
X88502Y11719D01*
Y13386D01*
X88484Y13473D01*
Y14451D01*
X96850D01*
X97196Y14520D01*
X97489Y14716D01*
X98631Y15857D01*
X98641Y15872D01*
X99166Y15796D01*
X99361Y15503D01*
X101724Y13141D01*
X102017Y12945D01*
X102362Y12876D01*
X103075D01*
X103531Y12193D01*
X104259Y11706D01*
X104618Y11635D01*
Y13780D01*
Y15924D01*
X104259Y15853D01*
X104067Y15724D01*
X103710Y16081D01*
X103679Y16102D01*
X103355Y16426D01*
X103500Y16776D01*
X103500D01*
Y18910D01*
X101969D01*
Y19909D01*
X103500D01*
Y21545D01*
X104000Y21844D01*
X104057Y21813D01*
Y20236D01*
X104126Y19891D01*
X104322Y19598D01*
X106054Y17865D01*
X106347Y17670D01*
X106693Y17601D01*
X108922D01*
X109087Y17354D01*
X109614Y17002D01*
X110236Y16878D01*
X110858Y17002D01*
X111386Y17354D01*
X111738Y17882D01*
X111862Y18504D01*
X111738Y19126D01*
X111386Y19654D01*
X111139Y19818D01*
Y21654D01*
X111071Y21999D01*
X110875Y22292D01*
X107371Y25796D01*
X107363Y25802D01*
X107419Y26159D01*
X107498Y26313D01*
X107787Y26370D01*
X108080Y26566D01*
X108656Y27143D01*
X108852Y27436D01*
X108921Y27781D01*
Y27807D01*
X109126Y27848D01*
X109854Y28335D01*
X110341Y29063D01*
X110412Y29421D01*
X106123D01*
X106168Y29197D01*
X105883Y28697D01*
X104319D01*
Y27165D01*
X103319D01*
Y28697D01*
X103286D01*
X102894Y28957D01*
Y33012D01*
X102894D01*
X103046Y33449D01*
X105134D01*
Y34924D01*
X105512D01*
X105857Y34992D01*
X106150Y35188D01*
X106727Y35765D01*
X106923Y36058D01*
X106925Y36070D01*
X107158Y36116D01*
X107886Y36602D01*
X108372Y37330D01*
X108444Y37689D01*
X106299D01*
Y38689D01*
X108444D01*
X108372Y39048D01*
X107975Y39642D01*
X108169Y40142D01*
X128347D01*
X128654Y40203D01*
X128766Y40279D01*
X128970Y40228D01*
X129189Y40116D01*
X129277Y40033D01*
X129423Y39299D01*
X129909Y38571D01*
X130637Y38084D01*
X130996Y38013D01*
Y40157D01*
X131496D01*
Y40657D01*
X133641D01*
X133569Y41016D01*
X133083Y41744D01*
X132355Y42231D01*
X131621Y42377D01*
X131388Y42851D01*
X131670Y43133D01*
X131844Y43393D01*
X131905Y43701D01*
Y44980D01*
X131979Y45029D01*
X132142Y45273D01*
X132200Y45561D01*
Y45645D01*
X132304Y45750D01*
X132700Y45979D01*
X132844Y45950D01*
X134557D01*
X134845Y46007D01*
X135089Y46170D01*
X135152Y46264D01*
X136378D01*
X136724Y46333D01*
X136905Y46454D01*
X137008Y46434D01*
X137469Y46525D01*
X137859Y46786D01*
X138120Y47177D01*
X138212Y47638D01*
X138120Y48099D01*
X137859Y48489D01*
X137469Y48750D01*
X137008Y48842D01*
X136547Y48750D01*
X136428Y48671D01*
X135928Y48938D01*
Y49360D01*
X135824Y49885D01*
X135747Y50000D01*
X135824Y50115D01*
X135897Y50484D01*
X133701D01*
Y51484D01*
X135897D01*
X135824Y51853D01*
X135526Y52298D01*
X135281Y52462D01*
X135310Y52608D01*
Y53297D01*
X135252Y53585D01*
X135089Y53829D01*
X134845Y53993D01*
X134604Y54041D01*
Y56011D01*
X134535Y56357D01*
X134339Y56650D01*
X132477Y58513D01*
X132184Y58708D01*
X131838Y58777D01*
X79134D01*
X79134Y58777D01*
X78788Y58708D01*
X78495Y58513D01*
X78495Y58513D01*
X70621Y50639D01*
X70619Y50636D01*
X70595Y50618D01*
X70500Y50593D01*
X70027Y50771D01*
X70010Y50854D01*
X69916Y50995D01*
X70031Y51528D01*
X70324Y51724D01*
X73080Y54479D01*
X73080Y54479D01*
X73275Y54773D01*
X73344Y55118D01*
X73344Y55118D01*
Y60161D01*
X74028Y60618D01*
X74306Y61034D01*
X74907D01*
X75185Y60618D01*
X75913Y60132D01*
X76272Y60060D01*
Y62205D01*
Y64349D01*
X75913Y64278D01*
X75185Y63791D01*
X74907Y63375D01*
X74306D01*
X74028Y63791D01*
X73300Y64278D01*
X72941Y64349D01*
Y62205D01*
X71941D01*
Y64349D01*
X71582Y64278D01*
X70854Y63791D01*
X70576Y63375D01*
X69975D01*
X69697Y63791D01*
X68969Y64278D01*
X68610Y64349D01*
Y62205D01*
Y60060D01*
X68969Y60132D01*
X69697Y60618D01*
X69975Y61034D01*
X70576D01*
X70854Y60618D01*
X71538Y60161D01*
Y55492D01*
X70201Y54155D01*
X69923Y54185D01*
X69515Y54528D01*
Y55905D01*
X69524D01*
X69382Y56985D01*
X68965Y57990D01*
X68303Y58854D01*
X67439Y59516D01*
X66434Y59933D01*
X65354Y60075D01*
Y60075D01*
X64885Y60149D01*
X64683Y60189D01*
X64113Y60570D01*
X63733Y61139D01*
X63604Y61784D01*
X63610Y61811D01*
Y63189D01*
X63503Y63727D01*
X63329Y63986D01*
X63287Y64468D01*
X63287Y64468D01*
X63287Y64468D01*
Y65748D01*
X122819D01*
X122880Y65441D01*
D02*
G37*
G36*
X64172Y57400D02*
X65354Y57244D01*
Y57244D01*
X65822Y57166D01*
X65873Y57156D01*
X66312Y56863D01*
X66605Y56424D01*
X66707Y55913D01*
X66705Y55905D01*
Y55778D01*
X65897Y54969D01*
X65701Y54676D01*
X65632Y54331D01*
Y51310D01*
X65132Y51043D01*
X65028Y51113D01*
X64567Y51204D01*
X64106Y51113D01*
X63867Y50953D01*
X63563Y50923D01*
X63258Y51067D01*
X63105Y51294D01*
X62715Y51556D01*
X62254Y51647D01*
X61793Y51556D01*
X61460Y51333D01*
X61334Y51307D01*
X60866Y51391D01*
X60776Y51525D01*
X60776Y51525D01*
X60635Y51666D01*
X60561Y52036D01*
X60350Y52351D01*
Y53437D01*
X58858D01*
Y54437D01*
X60350D01*
Y54597D01*
X60850Y54956D01*
X60917Y54942D01*
Y57087D01*
X61917D01*
Y54942D01*
X62276Y55014D01*
X63004Y55500D01*
X63490Y56228D01*
X63658Y57072D01*
X63680Y57160D01*
X64095Y57432D01*
X64172Y57400D01*
D02*
G37*
G36*
X113499Y56509D02*
X111960Y54969D01*
X111885Y54858D01*
X111740Y54829D01*
X111012Y54343D01*
X110525Y53615D01*
X110454Y53256D01*
X112598D01*
Y52256D01*
X110454D01*
X110515Y51950D01*
X109862Y51297D01*
X102610D01*
X102265Y51228D01*
X101972Y51032D01*
X101147Y50208D01*
X101069Y50260D01*
X100301Y50412D01*
Y50922D01*
X100833Y51028D01*
X101476Y51458D01*
X101905Y52100D01*
X102056Y52858D01*
X101905Y53616D01*
X101476Y54259D01*
X100833Y54689D01*
X100075Y54839D01*
X99317Y54689D01*
X99193Y54606D01*
X97603Y56196D01*
X97569Y56366D01*
X97499Y56471D01*
X97767Y56971D01*
X103865D01*
X104016Y56471D01*
X103384Y56049D01*
X102866Y55273D01*
X102684Y54358D01*
X102866Y53443D01*
X103384Y52668D01*
X104160Y52150D01*
X105075Y51968D01*
X105990Y52150D01*
X106765Y52668D01*
X107283Y53443D01*
X107465Y54358D01*
X107283Y55273D01*
X106765Y56049D01*
X106133Y56471D01*
X106285Y56971D01*
X113308D01*
X113499Y56509D01*
D02*
G37*
G36*
X91083Y56471D02*
X91013Y56366D01*
X90922Y55905D01*
X91013Y55445D01*
X91274Y55054D01*
X91665Y54793D01*
X91973Y54732D01*
X93219Y53486D01*
X93094Y52858D01*
X93245Y52100D01*
X93674Y51458D01*
X94317Y51028D01*
X95075Y50877D01*
X95833Y51028D01*
X96476Y51458D01*
X96905Y52100D01*
X97056Y52858D01*
X96905Y53616D01*
X96872Y53665D01*
X97261Y53984D01*
X98142Y53102D01*
X98094Y52858D01*
X98245Y52100D01*
X98674Y51458D01*
X99317Y51028D01*
X99849Y50922D01*
Y50412D01*
X99080Y50260D01*
X98237Y49696D01*
X97673Y48853D01*
X97521Y48084D01*
X97011D01*
X96905Y48616D01*
X96476Y49259D01*
X95833Y49689D01*
X95075Y49839D01*
X94317Y49689D01*
X93674Y49259D01*
X93245Y48616D01*
X93094Y47858D01*
X93211Y47271D01*
X90543Y44604D01*
X83674D01*
X83523Y45104D01*
X83827Y45307D01*
X83991Y45553D01*
X85827D01*
X86172Y45622D01*
X86465Y45818D01*
X87423Y46776D01*
X88461D01*
X88674Y46457D01*
X89317Y46028D01*
X90075Y45877D01*
X90833Y46028D01*
X91476Y46457D01*
X91905Y47100D01*
X92056Y47858D01*
X91905Y48616D01*
X91476Y49259D01*
X90833Y49689D01*
X90075Y49839D01*
X89317Y49689D01*
X88674Y49259D01*
X88245Y48616D01*
X88238Y48582D01*
X87309D01*
X87039Y49078D01*
X87283Y49444D01*
X87465Y50358D01*
X87283Y51273D01*
X86765Y52049D01*
X85990Y52567D01*
X85075Y52749D01*
X84160Y52567D01*
X83385Y52049D01*
X82866Y51273D01*
X82684Y50358D01*
X82866Y49444D01*
X83385Y48668D01*
X84160Y48150D01*
X85033Y47976D01*
X85161Y47804D01*
X85318Y47506D01*
X85218Y47360D01*
X83991D01*
X83827Y47606D01*
X83299Y47959D01*
X82677Y48082D01*
X82055Y47959D01*
X81528Y47606D01*
X81175Y47079D01*
X81051Y46457D01*
X81175Y45835D01*
X81528Y45307D01*
X81832Y45104D01*
X81680Y44604D01*
X78963D01*
X78927Y44628D01*
X78543Y44704D01*
X76575D01*
X76191Y44628D01*
X75941Y44461D01*
X75752Y44427D01*
X75319Y44492D01*
X75271Y44563D01*
X75201Y44610D01*
X75136Y45043D01*
X75170Y45232D01*
X75337Y45482D01*
X75413Y45866D01*
Y47614D01*
X77042Y49243D01*
X77232Y49281D01*
X77623Y49542D01*
X77884Y49933D01*
X77976Y50394D01*
X77884Y50854D01*
X77623Y51245D01*
X77232Y51506D01*
X76804Y51591D01*
X76720Y51721D01*
X76574Y52068D01*
X77933Y53427D01*
X87805D01*
X88134Y53060D01*
X88094Y52858D01*
X88245Y52100D01*
X88674Y51458D01*
X89317Y51028D01*
X90075Y50877D01*
X90833Y51028D01*
X91476Y51458D01*
X91905Y52100D01*
X92056Y52858D01*
X91905Y53616D01*
X91476Y54259D01*
X90833Y54689D01*
X90075Y54839D01*
X89317Y54689D01*
X89192Y54605D01*
X88828Y54969D01*
X88535Y55165D01*
X88189Y55234D01*
X78424D01*
X78233Y55696D01*
X79508Y56971D01*
X90816D01*
X91083Y56471D01*
D02*
G37*
G36*
X116971Y51266D02*
X116994Y51230D01*
X116906Y50787D01*
X116998Y50327D01*
X117259Y49936D01*
X117649Y49675D01*
X118110Y49583D01*
X118571Y49675D01*
X118885Y49884D01*
X122617D01*
X122963Y49384D01*
X122958Y49360D01*
Y48671D01*
X123015Y48383D01*
X123140Y48031D01*
X123015Y47680D01*
X122958Y47392D01*
Y46703D01*
X123015Y46415D01*
X123178Y46170D01*
X123423Y46007D01*
X123711Y45950D01*
X125423D01*
X125568Y45979D01*
X125964Y45750D01*
X126068Y45645D01*
Y45561D01*
X126126Y45273D01*
X126289Y45029D01*
X126533Y44866D01*
X126821Y44808D01*
X127510D01*
X127777Y44420D01*
X127792Y44228D01*
X127404Y43817D01*
X106391D01*
X106239Y44317D01*
X106765Y44668D01*
X107283Y45443D01*
X107465Y46358D01*
X107283Y47273D01*
X106765Y48049D01*
X105990Y48567D01*
X105075Y48749D01*
X104160Y48567D01*
X103384Y48049D01*
X103153Y47701D01*
X102738Y47837D01*
X102670Y47879D01*
X102476Y48853D01*
X102424Y48930D01*
X102984Y49490D01*
X110236D01*
X110582Y49559D01*
X110875Y49755D01*
X111792Y50672D01*
X112355Y50560D01*
X112530Y50027D01*
X112231Y49729D01*
X112035Y49436D01*
X111966Y49090D01*
Y47952D01*
X111449Y47606D01*
X111097Y47079D01*
X110973Y46457D01*
X111097Y45835D01*
X111449Y45307D01*
X111976Y44955D01*
X112598Y44831D01*
X113221Y44955D01*
X113748Y45307D01*
X114100Y45835D01*
X114224Y46457D01*
X114100Y47079D01*
X113773Y47569D01*
Y48716D01*
X116582Y51525D01*
X116971Y51266D01*
D02*
G37*
G36*
X94564Y39950D02*
X94580Y39642D01*
X94126Y39338D01*
X93774Y38811D01*
X93650Y38189D01*
X93774Y37567D01*
X94126Y37039D01*
X94634Y36700D01*
X94440Y36268D01*
X94095Y36336D01*
X85616D01*
X85341Y36824D01*
X85341Y36836D01*
X85512Y37001D01*
X85894Y37076D01*
X86285Y37337D01*
X86546Y37728D01*
X86637Y38189D01*
X86546Y38650D01*
X86285Y39040D01*
X85974Y39248D01*
X86003Y39601D01*
X86057Y39748D01*
X92913D01*
X93221Y39810D01*
X93481Y39983D01*
X93640Y40142D01*
X94497D01*
X94564Y39950D01*
D02*
G37*
G36*
X86054Y34030D02*
X85815Y33870D01*
X85329Y33142D01*
X85257Y32783D01*
X87402D01*
Y32283D01*
X87902D01*
Y30139D01*
X88260Y30210D01*
X88988Y30697D01*
X89475Y31425D01*
X89645Y32283D01*
X89874Y32561D01*
X92154D01*
X92563Y32153D01*
Y31484D01*
X94095D01*
Y30484D01*
X92563D01*
Y28350D01*
X92171Y28091D01*
X90216D01*
Y28069D01*
X87382D01*
X83710Y31741D01*
X83483Y31892D01*
X83386Y32159D01*
X83345Y32461D01*
X85413Y34530D01*
X85902D01*
X86054Y34030D01*
D02*
G37*
G36*
X56178Y25587D02*
X56225Y25516D01*
X56295Y25469D01*
X56360Y25036D01*
X56327Y24847D01*
X56160Y24597D01*
X56083Y24213D01*
Y22244D01*
X56146Y21929D01*
Y20809D01*
X53957Y18620D01*
X52461D01*
Y18799D01*
X50902D01*
Y19406D01*
X50313D01*
Y21457D01*
X50287Y21586D01*
X50631Y21999D01*
X50672Y22019D01*
X50787Y21996D01*
X51410Y22120D01*
X51937Y22472D01*
X52289Y23000D01*
X52413Y23622D01*
X52289Y24244D01*
X51962Y24735D01*
Y25267D01*
X52132Y25437D01*
X52637D01*
X52953Y25374D01*
X54921D01*
X55305Y25451D01*
X55555Y25618D01*
X55744Y25651D01*
X56178Y25587D01*
D02*
G37*
G36*
X75941Y25618D02*
X76191Y25451D01*
X76575Y25374D01*
X78543D01*
X78927Y25451D01*
X78963Y25475D01*
X80335D01*
X81774Y24035D01*
Y21393D01*
X81528Y21228D01*
X81175Y20701D01*
X81076Y20201D01*
X80566Y20201D01*
X80419Y20937D01*
X79933Y21665D01*
X79205Y22152D01*
X78847Y22223D01*
Y20079D01*
X78347D01*
Y19579D01*
X76202D01*
X76273Y19220D01*
X76760Y18492D01*
X76999Y18332D01*
X76847Y17832D01*
X75965D01*
X73028Y20769D01*
X73185Y21289D01*
X73639Y21493D01*
X74008Y21329D01*
X74025Y21317D01*
X74410Y21241D01*
X74793Y21317D01*
X75119Y21534D01*
X75337Y21860D01*
X75413Y22244D01*
Y24213D01*
X75337Y24597D01*
X75170Y24847D01*
X75136Y25036D01*
X75201Y25469D01*
X75271Y25516D01*
X75319Y25587D01*
X75752Y25651D01*
X75941Y25618D01*
D02*
G37*
G36*
X85582Y22590D02*
X85582Y22590D01*
X85875Y22394D01*
X86221Y22325D01*
X90216D01*
Y22303D01*
X94139D01*
X94375Y22147D01*
X94514Y21937D01*
X94408Y21437D01*
X93169D01*
Y18659D01*
X92342Y17832D01*
X79846D01*
X79694Y18332D01*
X79933Y18492D01*
X80419Y19220D01*
X80566Y19956D01*
X81076Y19956D01*
X81175Y19457D01*
X81528Y18929D01*
X82055Y18577D01*
X82677Y18453D01*
X83299Y18577D01*
X83827Y18929D01*
X84179Y19457D01*
X84303Y20079D01*
X84179Y20701D01*
X83827Y21228D01*
X83580Y21393D01*
Y23884D01*
X84080Y24091D01*
X85582Y22590D01*
D02*
G37*
%LPC*%
G36*
X123909Y64349D02*
X123551Y64278D01*
X122823Y63791D01*
X122545Y63375D01*
X121943D01*
X121665Y63791D01*
X120937Y64278D01*
X120579Y64349D01*
Y62205D01*
Y60060D01*
X120937Y60132D01*
X121665Y60618D01*
X121943Y61034D01*
X122545D01*
X122823Y60618D01*
X123551Y60132D01*
X123909Y60060D01*
Y62205D01*
Y64349D01*
D02*
G37*
G36*
X110917D02*
X110559Y64278D01*
X109831Y63791D01*
X109553Y63375D01*
X108951D01*
X108673Y63791D01*
X107945Y64278D01*
X107587Y64349D01*
Y62205D01*
Y60060D01*
X107945Y60132D01*
X108673Y60618D01*
X108951Y61034D01*
X109553D01*
X109831Y60618D01*
X110559Y60132D01*
X110917Y60060D01*
Y62205D01*
Y64349D01*
D02*
G37*
G36*
X93594D02*
X93236Y64278D01*
X92508Y63791D01*
X92230Y63375D01*
X91628D01*
X91351Y63791D01*
X90623Y64278D01*
X90264Y64349D01*
Y62205D01*
Y60060D01*
X90623Y60132D01*
X91351Y60618D01*
X91628Y61034D01*
X92230D01*
X92508Y60618D01*
X93236Y60132D01*
X93594Y60060D01*
Y62205D01*
Y64349D01*
D02*
G37*
G36*
X115248D02*
X114889Y64278D01*
X114161Y63791D01*
X113883Y63375D01*
X113282D01*
X113004Y63791D01*
X112276Y64278D01*
X111917Y64349D01*
Y62205D01*
Y60060D01*
X112276Y60132D01*
X113004Y60618D01*
X113282Y61034D01*
X113883D01*
X114161Y60618D01*
X114889Y60132D01*
X115248Y60060D01*
Y62205D01*
Y64349D01*
D02*
G37*
G36*
X97925D02*
X97566Y64278D01*
X96838Y63791D01*
X96561Y63375D01*
X95959D01*
X95681Y63791D01*
X94953Y64278D01*
X94595Y64349D01*
Y62205D01*
Y60060D01*
X94953Y60132D01*
X95681Y60618D01*
X95959Y61034D01*
X96561D01*
X96838Y60618D01*
X97566Y60132D01*
X97925Y60060D01*
Y62205D01*
Y64349D01*
D02*
G37*
G36*
X80602D02*
X80244Y64278D01*
X79516Y63791D01*
X79238Y63375D01*
X78636D01*
X78358Y63791D01*
X77630Y64278D01*
X77272Y64349D01*
Y62205D01*
Y60060D01*
X77630Y60132D01*
X78358Y60618D01*
X78636Y61034D01*
X79238D01*
X79516Y60618D01*
X80244Y60132D01*
X80602Y60060D01*
Y62205D01*
Y64349D01*
D02*
G37*
G36*
X106587Y64349D02*
X106228Y64278D01*
X105500Y63791D01*
X105222Y63375D01*
X104621D01*
X104343Y63791D01*
X103615Y64278D01*
X103256Y64349D01*
Y62205D01*
Y60060D01*
X103615Y60132D01*
X104343Y60618D01*
X104621Y61034D01*
X105222D01*
X105500Y60618D01*
X106228Y60132D01*
X106587Y60060D01*
Y62205D01*
Y64349D01*
D02*
G37*
G36*
X89264D02*
X88905Y64278D01*
X88177Y63791D01*
X87899Y63375D01*
X87298D01*
X87020Y63791D01*
X86292Y64278D01*
X85933Y64349D01*
Y62205D01*
Y60060D01*
X86292Y60132D01*
X87020Y60618D01*
X87298Y61034D01*
X87899D01*
X88177Y60618D01*
X88905Y60132D01*
X89264Y60060D01*
Y62205D01*
Y64349D01*
D02*
G37*
G36*
X124909Y64349D02*
Y62705D01*
X126554D01*
X126482Y63063D01*
X125996Y63791D01*
X125268Y64278D01*
X124909Y64349D01*
D02*
G37*
G36*
X67610Y64349D02*
X67251Y64278D01*
X66524Y63791D01*
X66037Y63063D01*
X65966Y62705D01*
X67610D01*
Y64349D01*
D02*
G37*
G36*
X16823D02*
X16464Y64278D01*
X15736Y63791D01*
X15250Y63063D01*
X15178Y62705D01*
X16823D01*
Y64349D01*
D02*
G37*
G36*
X126554Y61705D02*
X124909D01*
Y60060D01*
X125268Y60132D01*
X125996Y60618D01*
X126482Y61346D01*
X126554Y61705D01*
D02*
G37*
G36*
X116248Y64349D02*
Y62205D01*
Y60060D01*
X116607Y60132D01*
X117335Y60618D01*
X117613Y61034D01*
X118214D01*
X118492Y60618D01*
X119220Y60132D01*
X119579Y60060D01*
Y62205D01*
Y64349D01*
X119220Y64278D01*
X118492Y63791D01*
X118214Y63375D01*
X117613D01*
X117335Y63791D01*
X116607Y64278D01*
X116248Y64349D01*
D02*
G37*
G36*
X98925D02*
Y62205D01*
Y60060D01*
X99284Y60132D01*
X100012Y60618D01*
X100290Y61034D01*
X100891D01*
X101169Y60618D01*
X101897Y60132D01*
X102256Y60060D01*
Y62205D01*
Y64349D01*
X101897Y64278D01*
X101169Y63791D01*
X100891Y63375D01*
X100290D01*
X100012Y63791D01*
X99284Y64278D01*
X98925Y64349D01*
D02*
G37*
G36*
X81602D02*
Y62205D01*
Y60060D01*
X81961Y60132D01*
X82689Y60618D01*
X82967Y61034D01*
X83568D01*
X83846Y60618D01*
X84574Y60132D01*
X84933Y60060D01*
Y62205D01*
Y64349D01*
X84574Y64278D01*
X83846Y63791D01*
X83568Y63375D01*
X82967D01*
X82689Y63791D01*
X81961Y64278D01*
X81602Y64349D01*
D02*
G37*
G36*
X67610Y61705D02*
X65966D01*
X66037Y61346D01*
X66524Y60618D01*
X67251Y60132D01*
X67610Y60060D01*
Y61705D01*
D02*
G37*
G36*
X49782Y56980D02*
X48138D01*
Y55336D01*
X48496Y55407D01*
X49224Y55894D01*
X49711Y56622D01*
X49782Y56980D01*
D02*
G37*
G36*
X16823D02*
X15178D01*
X15250Y56622D01*
X15736Y55894D01*
X16464Y55407D01*
X16823Y55336D01*
Y56980D01*
D02*
G37*
G36*
X7874Y56744D02*
X7252Y56620D01*
X6724Y56268D01*
X6372Y55740D01*
X6248Y55118D01*
X6340Y54656D01*
X5641Y53957D01*
X5512Y53983D01*
X4590Y53800D01*
X3809Y53278D01*
X3287Y52496D01*
X3103Y51575D01*
X3287Y50653D01*
X3809Y49872D01*
X4590Y49350D01*
X5512Y49166D01*
X6434Y49350D01*
X7215Y49872D01*
X7288Y49981D01*
X9055D01*
X14031Y45006D01*
Y40609D01*
X17018D01*
Y46111D01*
X17018Y46124D01*
X17018Y46124D01*
X17018Y46382D01*
X17022Y46385D01*
X17018Y46415D01*
Y46596D01*
X16995D01*
X16994Y46599D01*
X16982Y46596D01*
X16414Y46596D01*
X10631Y52380D01*
X10175Y52684D01*
X9637Y52791D01*
X9073D01*
X8922Y53291D01*
X9172Y53666D01*
X9279Y54203D01*
Y54351D01*
X9376Y54496D01*
X9500Y55118D01*
X9376Y55740D01*
X9024Y56268D01*
X8496Y56620D01*
X7874Y56744D01*
D02*
G37*
G36*
X48819Y52779D02*
X48358Y52687D01*
X47967Y52426D01*
X47706Y52036D01*
X47673Y51865D01*
X46962Y51155D01*
X45681D01*
Y52614D01*
X41350D01*
Y47890D01*
X45681D01*
Y49349D01*
X47336D01*
X47682Y49417D01*
X47975Y49613D01*
X48746Y50385D01*
X48819Y50371D01*
X49280Y50462D01*
X49670Y50723D01*
X49931Y51114D01*
X50023Y51575D01*
X49931Y52036D01*
X49670Y52426D01*
X49280Y52687D01*
X48819Y52779D01*
D02*
G37*
G36*
X35248Y52661D02*
X35015Y52614D01*
X33083D01*
Y52408D01*
X29921D01*
X29000Y52225D01*
X28218Y51703D01*
X27696Y50922D01*
X27513Y50000D01*
X27696Y49078D01*
X28218Y48297D01*
X29000Y47775D01*
X29921Y47592D01*
X34996D01*
X35918Y47775D01*
X36090Y47890D01*
X37413D01*
Y49241D01*
X37473Y49330D01*
X37657Y50252D01*
X37473Y51174D01*
X37413Y51263D01*
Y52614D01*
X35481D01*
X35248Y52661D01*
D02*
G37*
G36*
X20185Y48995D02*
Y47350D01*
X21829D01*
X21758Y47709D01*
X21272Y48437D01*
X20544Y48924D01*
X20185Y48995D01*
D02*
G37*
G36*
X19185D02*
X18826Y48924D01*
X18098Y48437D01*
X17612Y47709D01*
X17541Y47350D01*
X19185D01*
Y48995D01*
D02*
G37*
G36*
X21829Y46350D02*
X20185D01*
Y44706D01*
X20544Y44777D01*
X21272Y45264D01*
X21758Y45992D01*
X21829Y46350D01*
D02*
G37*
G36*
X19185D02*
X17541D01*
X17612Y45992D01*
X18098Y45264D01*
X18826Y44777D01*
X19185Y44706D01*
Y46350D01*
D02*
G37*
G36*
X43016Y45740D02*
X40744D01*
Y44514D01*
X40244Y44247D01*
X39992Y44415D01*
X39370Y44539D01*
X38748Y44415D01*
X38221Y44063D01*
X38056Y43817D01*
X37413D01*
Y45134D01*
X33083D01*
Y40409D01*
X37413D01*
Y42010D01*
X38056D01*
X38221Y41764D01*
X38748Y41411D01*
X39370Y41288D01*
X39992Y41411D01*
X40244Y41580D01*
X40744Y41313D01*
Y40343D01*
X40264Y39959D01*
Y38295D01*
X41908D01*
X41837Y38654D01*
X41403Y39303D01*
X41492Y39604D01*
X41620Y39803D01*
X43016D01*
Y42772D01*
Y45740D01*
D02*
G37*
G36*
X46287D02*
X44016D01*
Y43272D01*
X46287D01*
Y45740D01*
D02*
G37*
G36*
X28846Y42302D02*
Y40657D01*
X30491D01*
X30420Y41016D01*
X29933Y41744D01*
X29205Y42231D01*
X28846Y42302D01*
D02*
G37*
G36*
X27847D02*
X27488Y42231D01*
X26760Y41744D01*
X26273Y41016D01*
X26202Y40657D01*
X27847D01*
Y42302D01*
D02*
G37*
G36*
X39264Y39940D02*
X38905Y39868D01*
X38177Y39382D01*
X37691Y38654D01*
X37619Y38295D01*
X39264D01*
Y39940D01*
D02*
G37*
G36*
X133641Y39658D02*
X131996D01*
Y38013D01*
X132355Y38084D01*
X133083Y38571D01*
X133569Y39299D01*
X133641Y39658D01*
D02*
G37*
G36*
X30491Y39658D02*
X26202D01*
X26273Y39299D01*
X26760Y38571D01*
X26957Y38439D01*
Y37939D01*
X26760Y37807D01*
X26273Y37079D01*
X26202Y36720D01*
X30491D01*
X30420Y37079D01*
X29933Y37807D01*
X29736Y37939D01*
Y38439D01*
X29933Y38571D01*
X30420Y39299D01*
X30491Y39658D01*
D02*
G37*
G36*
X125303Y37578D02*
Y35933D01*
X126948D01*
X126876Y36292D01*
X126390Y37020D01*
X125662Y37506D01*
X125303Y37578D01*
D02*
G37*
G36*
X124303D02*
X123944Y37506D01*
X123216Y37020D01*
X122730Y36292D01*
X122659Y35933D01*
X124303D01*
Y37578D01*
D02*
G37*
G36*
X41908Y37295D02*
X40264D01*
Y35651D01*
X40622Y35722D01*
X41350Y36209D01*
X41837Y36937D01*
X41908Y37295D01*
D02*
G37*
G36*
X39264D02*
X37619D01*
X37691Y36937D01*
X38177Y36209D01*
X38905Y35722D01*
X39264Y35651D01*
Y37295D01*
D02*
G37*
G36*
X30491Y35721D02*
X26202D01*
X26273Y35362D01*
X26760Y34634D01*
X26957Y34502D01*
Y34002D01*
X26760Y33870D01*
X26273Y33142D01*
X26202Y32783D01*
X30491D01*
X30420Y33142D01*
X29933Y33870D01*
X29736Y34002D01*
Y34502D01*
X29933Y34634D01*
X30420Y35362D01*
X30491Y35721D01*
D02*
G37*
G36*
X126948Y34933D02*
X122659D01*
X122730Y34574D01*
X123216Y33846D01*
X123414Y33715D01*
Y33215D01*
X123216Y33083D01*
X122730Y32355D01*
X122659Y31996D01*
X126948D01*
X126876Y32355D01*
X126390Y33083D01*
X126192Y33215D01*
Y33715D01*
X126390Y33846D01*
X126876Y34574D01*
X126948Y34933D01*
D02*
G37*
G36*
X108768Y32066D02*
Y30421D01*
X110412D01*
X110341Y30780D01*
X109854Y31508D01*
X109126Y31994D01*
X108768Y32066D01*
D02*
G37*
G36*
X107768D02*
X107409Y31994D01*
X106681Y31508D01*
X106195Y30780D01*
X106123Y30421D01*
X107768D01*
Y32066D01*
D02*
G37*
G36*
X30491Y31784D02*
X28846D01*
Y30139D01*
X29205Y30210D01*
X29933Y30697D01*
X30420Y31425D01*
X30491Y31784D01*
D02*
G37*
G36*
X27847D02*
X26202D01*
X26273Y31425D01*
X26760Y30697D01*
X27488Y30210D01*
X27847Y30139D01*
Y31784D01*
D02*
G37*
G36*
X41626Y31118D02*
X40142D01*
Y29634D01*
X41626D01*
Y31118D01*
D02*
G37*
G36*
X126948Y30996D02*
X125303D01*
Y29352D01*
X125662Y29423D01*
X126390Y29909D01*
X126876Y30637D01*
X126948Y30996D01*
D02*
G37*
G36*
X124303D02*
X122659D01*
X122730Y30637D01*
X123216Y29909D01*
X123944Y29423D01*
X124303Y29352D01*
Y30996D01*
D02*
G37*
G36*
X9418Y46596D02*
X6431D01*
Y41886D01*
X3692Y39147D01*
X3496Y38854D01*
X3427Y38509D01*
Y31235D01*
X3181Y31071D01*
X2829Y30543D01*
X2705Y29921D01*
X2829Y29299D01*
X3181Y28772D01*
X3709Y28419D01*
X4331Y28295D01*
X4953Y28419D01*
X5480Y28772D01*
X5833Y29299D01*
X5956Y29921D01*
X5833Y30543D01*
X5480Y31071D01*
X5234Y31235D01*
Y38135D01*
X7708Y40609D01*
X9418D01*
Y46596D01*
D02*
G37*
G36*
X44110Y28634D02*
X42626D01*
Y27150D01*
X44110D01*
Y28634D01*
D02*
G37*
G36*
X41626D02*
X40142D01*
Y27150D01*
X41626D01*
Y28634D01*
D02*
G37*
G36*
X18610Y26160D02*
Y24516D01*
X20255D01*
X20183Y24874D01*
X19697Y25602D01*
X18969Y26089D01*
X18610Y26160D01*
D02*
G37*
G36*
X17610D02*
X17252Y26089D01*
X16524Y25602D01*
X16037Y24874D01*
X15966Y24516D01*
X17610D01*
Y26160D01*
D02*
G37*
G36*
X20255Y23516D02*
X18610D01*
Y21871D01*
X18969Y21943D01*
X19697Y22429D01*
X20183Y23157D01*
X20255Y23516D01*
D02*
G37*
G36*
X17610D02*
X15966D01*
X16037Y23157D01*
X16524Y22429D01*
X17252Y21943D01*
X17610Y21871D01*
Y23516D01*
D02*
G37*
G36*
X32177Y22335D02*
X30988D01*
Y21342D01*
X32177D01*
Y22335D01*
D02*
G37*
G36*
X45957Y19861D02*
X45598Y19790D01*
X44870Y19303D01*
X44384Y18575D01*
X44312Y18216D01*
X45957D01*
Y19861D01*
D02*
G37*
G36*
Y17217D02*
X44312D01*
X44384Y16858D01*
X44870Y16130D01*
X45598Y15643D01*
X45957Y15572D01*
Y17217D01*
D02*
G37*
G36*
X132783Y18690D02*
Y14673D01*
X136800D01*
X136710Y15359D01*
X136252Y16465D01*
X135524Y17414D01*
X134575Y18142D01*
X133469Y18600D01*
X132783Y18690D01*
D02*
G37*
G36*
X131783D02*
X131097Y18600D01*
X129992Y18142D01*
X129043Y17414D01*
X128315Y16465D01*
X127857Y15359D01*
X127767Y14673D01*
X131783D01*
Y18690D01*
D02*
G37*
G36*
X105618Y15924D02*
Y14279D01*
X107263D01*
X107191Y14638D01*
X106705Y15366D01*
X105977Y15853D01*
X105618Y15924D01*
D02*
G37*
G36*
X107263Y13280D02*
X105618D01*
Y11635D01*
X105977Y11706D01*
X106705Y12193D01*
X107191Y12921D01*
X107263Y13280D01*
D02*
G37*
G36*
X32390Y12774D02*
Y11130D01*
X34034D01*
X33963Y11489D01*
X33476Y12217D01*
X32748Y12703D01*
X32390Y12774D01*
D02*
G37*
G36*
X31390D02*
X31031Y12703D01*
X30303Y12217D01*
X29817Y11489D01*
X29745Y11130D01*
X31390D01*
Y12774D01*
D02*
G37*
G36*
X13218Y38596D02*
X10231D01*
Y37445D01*
X10021Y37305D01*
X9499Y36524D01*
X9316Y35602D01*
Y15315D01*
X9499Y14393D01*
X10021Y13612D01*
X12160Y11474D01*
X11926Y11000D01*
X11772Y11021D01*
Y8394D01*
X14399D01*
X14378Y8548D01*
X14852Y8782D01*
X16587Y7047D01*
Y5335D01*
X21705D01*
Y10453D01*
X19993D01*
X14133Y16313D01*
Y35602D01*
X13950Y36524D01*
X13427Y37305D01*
X13218Y37445D01*
Y38596D01*
D02*
G37*
G36*
X126221Y18110D02*
X118347D01*
Y10236D01*
X126221D01*
Y18110D01*
D02*
G37*
G36*
X131496Y30338D02*
X131035Y30246D01*
X130645Y29985D01*
X130384Y29595D01*
X130310Y29225D01*
X127579Y26494D01*
X122835D01*
X122489Y26425D01*
X122196Y26229D01*
X106208Y10241D01*
X105838Y10168D01*
X105521Y9956D01*
X100922D01*
Y10428D01*
X98166D01*
Y7672D01*
X100922D01*
Y8149D01*
X105529D01*
X105838Y7942D01*
X106299Y7851D01*
X106760Y7942D01*
X107151Y8204D01*
X107412Y8594D01*
X107485Y8964D01*
X123209Y24687D01*
X127953D01*
X128298Y24756D01*
X128591Y24952D01*
X131587Y27948D01*
X131957Y28021D01*
X132348Y28282D01*
X132609Y28673D01*
X132700Y29134D01*
X132609Y29595D01*
X132348Y29985D01*
X131957Y30246D01*
X131496Y30338D01*
D02*
G37*
G36*
X136800Y13673D02*
X132783D01*
Y9657D01*
X133469Y9747D01*
X134575Y10205D01*
X135524Y10933D01*
X136252Y11882D01*
X136710Y12987D01*
X136800Y13673D01*
D02*
G37*
G36*
X131783D02*
X127767D01*
X127857Y12987D01*
X128315Y11882D01*
X129043Y10933D01*
X129992Y10205D01*
X131097Y9747D01*
X131783Y9657D01*
Y13673D01*
D02*
G37*
G36*
X10772Y11021D02*
X10445Y10978D01*
X9675Y10659D01*
X9014Y10151D01*
X8507Y9490D01*
X8188Y8720D01*
X8145Y8394D01*
X10772D01*
Y11021D01*
D02*
G37*
G36*
X89207Y7283D02*
X87723D01*
Y6112D01*
X86235D01*
X85839Y6705D01*
X85111Y7191D01*
X84752Y7263D01*
Y5118D01*
Y2974D01*
X85111Y3045D01*
X85839Y3531D01*
X86325Y4259D01*
X86334Y4306D01*
X87723D01*
Y3315D01*
X89207D01*
Y5299D01*
Y7283D01*
D02*
G37*
G36*
X91691D02*
X90207D01*
Y5799D01*
X91691D01*
Y7283D01*
D02*
G37*
G36*
X83752Y7263D02*
X83393Y7191D01*
X82665Y6705D01*
X82179Y5977D01*
X82108Y5618D01*
X83752D01*
Y7263D01*
D02*
G37*
G36*
X31890Y17374D02*
X31268Y17250D01*
X30740Y16898D01*
X30388Y16370D01*
X30264Y15748D01*
X30388Y15126D01*
X30740Y14599D01*
X31268Y14246D01*
X31890Y14122D01*
X32512Y14246D01*
X33039Y14599D01*
X33204Y14845D01*
X36240D01*
X38577Y12508D01*
X38370Y12008D01*
X36614D01*
Y5709D01*
X38976Y5709D01*
X39042Y5555D01*
X39158Y5102D01*
X39158D01*
X39154Y4604D01*
X38996Y4447D01*
X35020D01*
X32793Y6673D01*
Y8586D01*
X33476Y9043D01*
X33963Y9771D01*
X34034Y10130D01*
X29745D01*
X29817Y9771D01*
X30303Y9043D01*
X30987Y8586D01*
Y6299D01*
X31055Y5954D01*
X31251Y5661D01*
X34007Y2905D01*
X34300Y2709D01*
X34646Y2640D01*
X39370D01*
X39716Y2709D01*
X40009Y2905D01*
X41091Y3987D01*
X41287Y4280D01*
X41356Y4626D01*
Y5102D01*
X41945D01*
Y6587D01*
X40551D01*
Y7587D01*
X41945D01*
Y8827D01*
X42126Y9252D01*
X42126Y9496D01*
Y10214D01*
X42173Y10284D01*
X42242Y10630D01*
Y11024D01*
X42173Y11369D01*
X42126Y11440D01*
Y12008D01*
X41632D01*
X37253Y16387D01*
X36960Y16582D01*
X36614Y16651D01*
X33204D01*
X33039Y16898D01*
X32512Y17250D01*
X31890Y17374D01*
D02*
G37*
G36*
X14399Y7394D02*
X11772D01*
Y4767D01*
X12098Y4810D01*
X12868Y5129D01*
X13529Y5636D01*
X14037Y6297D01*
X14356Y7067D01*
X14399Y7394D01*
D02*
G37*
G36*
X10772D02*
X8145D01*
X8188Y7067D01*
X8507Y6297D01*
X9014Y5636D01*
X9675Y5129D01*
X10445Y4810D01*
X10772Y4767D01*
Y7394D01*
D02*
G37*
G36*
X62210Y14461D02*
X61130D01*
Y12987D01*
X61301Y12815D01*
Y7170D01*
X60708Y6924D01*
X60088Y6448D01*
X59612Y5828D01*
X59313Y5106D01*
X59276Y4831D01*
X62205D01*
Y4331D01*
D01*
Y4831D01*
X65133D01*
X65097Y5106D01*
X64798Y5828D01*
X64322Y6448D01*
X63702Y6924D01*
X63108Y7170D01*
Y13189D01*
X63039Y13535D01*
X62843Y13828D01*
X62210Y14461D01*
D02*
G37*
G36*
X94488Y8291D02*
X94027Y8199D01*
X93637Y7938D01*
X93376Y7547D01*
X93284Y7087D01*
X93376Y6626D01*
X93637Y6235D01*
X94027Y5974D01*
X94397Y5900D01*
X95824Y4474D01*
X96117Y4278D01*
X96462Y4209D01*
X98166D01*
Y3735D01*
X100922D01*
Y6491D01*
X98166D01*
Y6016D01*
X96836D01*
X95674Y7178D01*
X95601Y7547D01*
X95340Y7938D01*
X94949Y8199D01*
X94488Y8291D01*
D02*
G37*
G36*
X91691Y4799D02*
X90207D01*
Y3315D01*
X91691D01*
Y4799D01*
D02*
G37*
G36*
X83752Y4618D02*
X82108D01*
X82179Y4259D01*
X82665Y3531D01*
X83393Y3045D01*
X83752Y2974D01*
Y4618D01*
D02*
G37*
G36*
X53150Y6739D02*
X52228Y6556D01*
X51447Y6034D01*
X50924Y5252D01*
X50741Y4331D01*
X50924Y3409D01*
X51447Y2628D01*
X52228Y2106D01*
X53150Y1922D01*
X54071Y2106D01*
X54853Y2628D01*
X55375Y3409D01*
X55558Y4331D01*
X55375Y5252D01*
X54853Y6034D01*
X54071Y6556D01*
X53150Y6739D01*
D02*
G37*
G36*
X65133Y3831D02*
X62705D01*
Y1402D01*
X62980Y1439D01*
X63702Y1738D01*
X64322Y2214D01*
X64798Y2834D01*
X65097Y3556D01*
X65133Y3831D01*
D02*
G37*
G36*
X61705D02*
X59276D01*
X59313Y3556D01*
X59612Y2834D01*
X60088Y2214D01*
X60708Y1738D01*
X61430Y1439D01*
X61705Y1402D01*
Y3831D01*
D02*
G37*
G36*
X86902Y31784D02*
X85257D01*
X85329Y31425D01*
X85815Y30697D01*
X86543Y30210D01*
X86902Y30139D01*
Y31784D01*
D02*
G37*
G36*
X77846Y22223D02*
X77488Y22152D01*
X76760Y21665D01*
X76273Y20937D01*
X76202Y20579D01*
X77846D01*
Y22223D01*
D02*
G37*
%LPD*%
D10*
X77559Y38976D02*
X82677D01*
X77559Y40551D02*
X92913D01*
X93307Y40945D01*
X128347D01*
X131102Y43701D01*
Y46417D01*
X77559Y37402D02*
X84486D01*
X85273Y38189D01*
D17*
X100000Y38583D02*
D03*
X102165D02*
D03*
X60630Y14961D02*
D03*
X58465D02*
D03*
X87598Y13386D02*
D03*
X85433D02*
D03*
X51575Y17717D02*
D03*
X49409D02*
D03*
X56693Y53937D02*
D03*
X58858D02*
D03*
D18*
X103150Y35433D02*
D03*
X99213D02*
D03*
X42126Y29134D02*
D03*
X38189D02*
D03*
D19*
X116535Y56496D02*
D03*
Y54331D02*
D03*
X119685D02*
D03*
Y56496D02*
D03*
X68110Y52362D02*
D03*
Y54527D02*
D03*
X62205Y65354D02*
D03*
Y63189D02*
D03*
X32677Y25000D02*
D03*
Y22835D02*
D03*
X37795Y25000D02*
D03*
Y22835D02*
D03*
X42520Y25000D02*
D03*
Y22835D02*
D03*
X46457Y25000D02*
D03*
Y22835D02*
D03*
D20*
X133701Y47047D02*
D03*
Y49016D02*
D03*
Y50984D02*
D03*
Y52953D02*
D03*
X124567D02*
D03*
Y50984D02*
D03*
Y49016D02*
D03*
Y47047D02*
D03*
D21*
X131102Y53583D02*
D03*
X129134D02*
D03*
X127165D02*
D03*
Y46417D02*
D03*
X129134D02*
D03*
X131102D02*
D03*
D22*
X101969Y19410D02*
D03*
X100000D02*
D03*
X98032D02*
D03*
X96063D02*
D03*
X94095D02*
D03*
X101969Y30984D02*
D03*
X100000D02*
D03*
X98032D02*
D03*
X96063D02*
D03*
X94095D02*
D03*
D23*
X103819Y23228D02*
D03*
Y25197D02*
D03*
Y27165D02*
D03*
X92244Y23228D02*
D03*
Y25197D02*
D03*
Y27165D02*
D03*
D24*
X5512Y51575D02*
D03*
X53150Y4331D02*
D03*
X77559D02*
D03*
X69685D02*
D03*
X62205D02*
D03*
D25*
X15524Y43602D02*
D03*
X7924D02*
D03*
X11724Y35602D02*
D03*
D26*
X99544Y9050D02*
D03*
Y5113D02*
D03*
X89707Y5299D02*
D03*
Y9236D02*
D03*
D27*
X37795Y8858D02*
D03*
X44094D02*
D03*
D28*
X41339Y10630D02*
D03*
X40551Y7087D02*
D03*
D29*
X35248Y50252D02*
D03*
X43516D02*
D03*
Y42772D02*
D03*
X35248D02*
D03*
D30*
X57087Y23228D02*
D03*
X58661D02*
D03*
X60236D02*
D03*
X61811D02*
D03*
X63386D02*
D03*
X64961D02*
D03*
X66535D02*
D03*
X68110D02*
D03*
X69685D02*
D03*
X71260D02*
D03*
X72835D02*
D03*
X74410D02*
D03*
Y46850D02*
D03*
X72835D02*
D03*
X71260D02*
D03*
X69685D02*
D03*
X68110D02*
D03*
X66535D02*
D03*
X64961D02*
D03*
X63386D02*
D03*
X61811D02*
D03*
X60236D02*
D03*
X58661D02*
D03*
X57087D02*
D03*
D31*
X77559Y26378D02*
D03*
Y27953D02*
D03*
Y29528D02*
D03*
Y31102D02*
D03*
Y32677D02*
D03*
Y34252D02*
D03*
Y35827D02*
D03*
Y37402D02*
D03*
Y38976D02*
D03*
Y40551D02*
D03*
Y42126D02*
D03*
Y43701D02*
D03*
X53937D02*
D03*
Y42126D02*
D03*
Y40551D02*
D03*
Y38976D02*
D03*
Y37402D02*
D03*
Y35827D02*
D03*
Y34252D02*
D03*
Y32677D02*
D03*
Y31102D02*
D03*
Y29528D02*
D03*
Y27953D02*
D03*
Y26378D02*
D03*
D32*
X58268Y69685D02*
D03*
X63189Y69331D02*
D03*
X50000Y69685D02*
D03*
D54*
X68110Y55905D02*
X67901Y56960D01*
X67303Y57854D01*
X66409Y58452D01*
X65354Y58661D01*
X62205Y61811D02*
X62359Y60838D01*
X62806Y59960D01*
X63503Y59263D01*
X64381Y58816D01*
X65354Y58661D01*
X68110Y54527D02*
Y55905D01*
X62205Y61811D02*
Y63189D01*
X32480Y24803D02*
X32677Y25000D01*
X27953Y24803D02*
X32480D01*
X32677Y25000D02*
X36811Y29134D01*
X38189D01*
X15524Y43602D02*
Y45499D01*
X9637Y51386D02*
X15524Y45499D01*
X5700Y51386D02*
X9637D01*
X7874Y54203D02*
Y55118D01*
X5512Y51841D02*
X7874Y54203D01*
D55*
X100075Y52858D02*
D03*
Y47858D02*
D03*
X95075Y52858D02*
D03*
Y47858D02*
D03*
X90075Y52858D02*
D03*
Y47858D02*
D03*
D56*
X65748Y35039D02*
D03*
D57*
X56299Y62205D02*
X56570Y62476D01*
Y67988D01*
X51575Y54331D02*
X57087Y48819D01*
X59449Y51575D02*
X60138Y50886D01*
X47638Y62205D02*
Y68504D01*
X77658Y35728D02*
X81200D01*
X81496Y35433D01*
X77559Y35827D02*
X77658Y35728D01*
X69587Y46949D02*
Y49705D01*
X68898Y50394D02*
X69587Y49705D01*
Y46949D02*
X69685Y46850D01*
X66535Y54331D02*
X68110Y55905D01*
X66535Y46850D02*
Y54331D01*
X61910Y50098D02*
X62254Y50443D01*
X60138Y48913D02*
Y50886D01*
X58624Y46888D02*
Y49644D01*
X56693Y51575D02*
X58624Y49644D01*
X56693Y51575D02*
Y53937D01*
X60138Y48913D02*
X60236Y48815D01*
Y46850D02*
Y48815D01*
X61910Y46949D02*
Y50098D01*
X61811Y46850D02*
X61910Y46949D01*
X63386Y48815D02*
X64567Y49996D01*
Y50000D01*
X63386Y46850D02*
Y48815D01*
X50689Y27854D02*
X53839D01*
X50394Y27559D02*
X50689Y27854D01*
X53839D02*
X53937Y27953D01*
X48819Y69685D02*
X50000D01*
X47638Y68504D02*
X48819Y69685D01*
X56570Y67988D02*
X58268Y69685D01*
X131496Y48829D02*
X133514D01*
X130051Y50275D02*
X131496Y48829D01*
X129331Y50994D02*
X130051Y50275D01*
X129331Y50994D02*
Y53386D01*
X129134Y53583D02*
X129331Y53386D01*
X102165Y38386D02*
X106102D01*
X106088Y38372D02*
X106102Y38386D01*
X106088Y36403D02*
Y38372D01*
X64961Y35827D02*
Y46850D01*
X61811Y31102D02*
X65748Y35039D01*
X53937Y31102D02*
X61811D01*
X112598Y52756D02*
Y54331D01*
X114764Y56496D02*
X116535D01*
X112598Y54331D02*
X114764Y56496D01*
X100787Y24016D02*
X101535Y23268D01*
X103779D01*
X103819Y23228D01*
X100787Y24016D02*
Y27559D01*
X102008Y16496D02*
X103061Y15443D01*
X103071D01*
X104735Y13780D01*
X102362D02*
X104735D01*
X101969Y19410D02*
X102008Y19370D01*
X100000Y16142D02*
X102362Y13780D01*
X102008Y16496D02*
Y19370D01*
X100787Y27559D02*
X101929Y28701D01*
Y30945D01*
X101969Y30984D01*
X110236Y18504D02*
Y21654D01*
X106732Y25157D02*
X110236Y21654D01*
X103858Y25157D02*
X106732D01*
X103819Y25197D02*
X103858Y25157D01*
X104961Y20236D02*
X106693Y18504D01*
X110236D01*
X104961Y20236D02*
Y23189D01*
X104921Y23228D02*
X104961Y23189D01*
X103819Y23228D02*
X104921D01*
X99961Y19449D02*
Y22480D01*
Y19449D02*
X100000Y19410D01*
X99213Y23228D02*
X99961Y22480D01*
X96850Y23228D02*
X99213D01*
X96102Y22480D02*
X96850Y23228D01*
X96102Y19449D02*
Y22480D01*
X96063Y19410D02*
X96102Y19449D01*
X100000Y16142D02*
Y19410D01*
X107441Y27205D02*
X108018Y27781D01*
Y29671D01*
X108268Y29921D01*
X103858Y27205D02*
X107441D01*
X103819Y27165D02*
X103858Y27205D01*
X123898Y53110D02*
X125157D01*
X125197Y53150D02*
Y55118D01*
X125157Y53110D02*
X125197Y53150D01*
Y55118D02*
X126378Y56299D01*
X129921D01*
X131102Y55118D01*
Y53583D02*
Y55118D01*
X131102Y53583D02*
X131102Y53583D01*
X119685Y54331D02*
X122677D01*
X123898Y53110D01*
X133701Y49016D02*
Y50984D01*
X133514Y48829D02*
X133701Y49016D01*
X127165Y53583D02*
X129134D01*
X119108Y52756D02*
X119685Y53333D01*
Y54331D01*
X116535Y52756D02*
X119108D01*
X116535D02*
Y54331D01*
X112870Y49090D02*
X116535Y52756D01*
X112870Y46728D02*
Y49090D01*
X112598Y46457D02*
X112870Y46728D01*
X116535Y56496D02*
X119685D01*
X110236Y50394D02*
X112598Y52756D01*
X102610Y50394D02*
X110236D01*
X100075Y47858D02*
X102610Y50394D01*
X85827Y46457D02*
X87049Y47679D01*
X89896D01*
X90075Y47858D01*
X82677Y46457D02*
X85827D01*
X105512Y35827D02*
X106088Y36403D01*
X103543Y35827D02*
X105512D01*
X103150Y35433D02*
X103543Y35827D01*
X102165Y38386D02*
Y38583D01*
X95472Y38386D02*
X100000D01*
X95276Y38189D02*
X95472Y38386D01*
X100000D02*
Y38583D01*
X95276Y38189D02*
X97539Y35925D01*
X98721D01*
X99213Y35433D01*
X87402Y32283D02*
X88583Y33465D01*
X92716D01*
X94095Y32087D01*
Y30984D02*
Y32087D01*
X122835Y25591D02*
X127953D01*
X131496Y29134D01*
X106299Y9055D02*
X122835Y25591D01*
X136848Y47638D02*
X137008D01*
X136378Y47168D02*
X136848Y47638D01*
X133821Y47168D02*
X136378D01*
X133701Y47047D02*
X133821Y47168D01*
X128937Y43898D02*
Y46220D01*
X127953Y42913D02*
X128937Y43898D01*
X92520Y42913D02*
X127953D01*
X128937Y46220D02*
X129134Y46417D01*
X91732Y42126D02*
X92520Y42913D01*
X127165Y46417D02*
Y49606D01*
X85273Y38189D02*
X85433D01*
X96457Y55905D02*
X96617D01*
X99664Y52858D01*
X100075D01*
X79134Y57874D02*
X131838D01*
X133701Y56011D01*
X71260Y50000D02*
X79134Y57874D01*
X77559Y42126D02*
X91732D01*
X90917Y43701D02*
X95075Y47858D01*
X77559Y43701D02*
X90917D01*
X133701Y52953D02*
Y56011D01*
X118110Y50787D02*
X124370D01*
X92126Y55856D02*
Y55905D01*
Y55856D02*
X94882Y53100D01*
Y53051D02*
Y53100D01*
X76772Y50250D02*
Y50394D01*
X74410Y47888D02*
X76772Y50250D01*
X74410Y46850D02*
Y47888D01*
Y46850D02*
X74447Y46888D01*
X88189Y54331D02*
X89661Y52858D01*
X90075D01*
X77559Y54331D02*
X88189D01*
X72872Y49644D02*
X77559Y54331D01*
X94882Y53051D02*
X95075Y52858D01*
X92126Y55905D02*
X92239Y55792D01*
X71260Y46850D02*
Y50000D01*
X124370Y50787D02*
X124567Y50984D01*
X72872Y46888D02*
Y49644D01*
X72835Y46850D02*
X72872Y46888D01*
X106297Y9052D02*
X106299Y9055D01*
X99547Y9052D02*
X106297D01*
X99544Y9050D02*
X99547Y9052D01*
X94488Y7087D02*
X96462Y5113D01*
X99544D01*
X69685Y52362D02*
X72441Y55118D01*
Y62205D01*
X68110Y52362D02*
X69685D01*
X96024Y31024D02*
Y33504D01*
Y31024D02*
X96063Y30984D01*
X94095Y35433D02*
X96024Y33504D01*
X85039Y35433D02*
X94095D01*
X82284Y32677D02*
X85039Y35433D01*
X77559Y32677D02*
X82284D01*
X84252Y5118D02*
X84342Y5209D01*
X89617D01*
X89707Y5299D01*
X87598Y11345D02*
Y13386D01*
Y11345D02*
X89707Y9236D01*
X82677Y20079D02*
Y24409D01*
X80709Y26378D02*
X82677Y24409D01*
X77559Y26378D02*
X80709D01*
X87008Y27165D02*
X92244D01*
X83071Y31102D02*
X87008Y27165D01*
X77559Y31102D02*
X83071D01*
X86614Y25197D02*
X92244D01*
X82284Y29528D02*
X86614Y25197D01*
X77559Y29528D02*
X82284D01*
X86221Y23228D02*
X92244D01*
X81496Y27953D02*
X86221Y23228D01*
X77559Y27953D02*
X81496D01*
X92716Y16929D02*
X94095Y18307D01*
Y19410D01*
X75590Y16929D02*
X92716D01*
X71298Y21222D02*
X75590Y16929D01*
X71260Y23228D02*
X71298Y23191D01*
Y21222D02*
Y23191D01*
X96850Y15354D02*
X97992Y16496D01*
Y19370D01*
X98032Y19410D01*
X75197Y15354D02*
X96850D01*
X69685Y20866D02*
X75197Y15354D01*
X69685Y20866D02*
Y23228D01*
X75197Y13386D02*
X85433D01*
X68148Y20435D02*
X75197Y13386D01*
X68148Y20435D02*
Y23191D01*
X68110Y23228D02*
X68148Y23191D01*
X63386Y16535D02*
Y16587D01*
X61811Y18162D02*
X63386Y16587D01*
X61811Y18162D02*
Y23228D01*
X60236Y18898D02*
Y23228D01*
X58465Y17126D02*
X60236Y18898D01*
X58465Y14961D02*
Y17126D01*
X58661Y19685D02*
Y23228D01*
X47835Y8858D02*
X58661Y19685D01*
X44094Y8858D02*
X47835D01*
X62205Y4331D02*
Y13189D01*
X60630Y14764D02*
X62205Y13189D01*
X60630Y14764D02*
Y14961D01*
X77559Y4331D02*
Y7874D01*
X64998Y20435D02*
X77559Y7874D01*
X64998Y20435D02*
Y23191D01*
X64961Y23228D02*
X64998Y23191D01*
X69685Y4331D02*
Y13386D01*
X63386Y19685D02*
X69685Y13386D01*
X63386Y19685D02*
Y23228D01*
X67913Y54527D02*
X68110D01*
X56299Y62205D02*
X58858Y59646D01*
Y53937D02*
Y59646D01*
X62205Y68347D02*
X63189Y69331D01*
X62205Y65354D02*
Y68347D01*
X64961Y35827D02*
X65748Y35039D01*
X63386Y46850D02*
X63386Y46850D01*
X57087D02*
Y48819D01*
X58624Y46888D02*
X58661Y46850D01*
X43516Y50252D02*
X47336D01*
X48659Y51575D01*
X48819D01*
X51575Y17717D02*
X54331D01*
X57049Y20435D01*
Y23191D01*
X57087Y23228D01*
X31890Y15748D02*
X36614D01*
X41339Y11024D01*
Y10630D02*
Y11024D01*
X31890Y6299D02*
X34646Y3543D01*
X31890Y6299D02*
Y10630D01*
X34646Y3543D02*
X39370D01*
X40453Y4626D01*
Y6988D01*
X40551Y7087D01*
X46457Y17717D02*
X46457Y17717D01*
X49409D01*
Y21457D01*
X48031Y22835D02*
X49409Y21457D01*
X46457Y22835D02*
X48031D01*
X32677D02*
X37795D01*
X42520D01*
X46457D01*
X37795Y25000D02*
X42520D01*
X46457D01*
X50404Y23622D02*
X50787D01*
X49026Y25000D02*
X50404Y23622D01*
X46457Y25000D02*
X49026D01*
X51059Y25641D02*
X51758Y26340D01*
X51059Y23893D02*
Y25641D01*
X50787Y23622D02*
X51059Y23893D01*
X51758Y26340D02*
X53899D01*
X53937Y26378D01*
X49202Y29528D02*
X53937D01*
X47628Y27953D02*
X49202Y29528D01*
X47244Y27953D02*
X47628D01*
X49494Y33981D02*
X49878Y33597D01*
X46973Y33981D02*
X49494D01*
X42126Y29134D02*
X46973Y33981D01*
X49335Y37673D02*
X49606Y37402D01*
X47367Y37673D02*
X49335D01*
X4331Y29921D02*
Y38509D01*
X7924Y42102D01*
Y43602D01*
X46063Y38976D02*
X47367Y37673D01*
X46063Y38976D02*
Y40028D01*
X43516Y42575D02*
X46063Y40028D01*
X43516Y42575D02*
Y42772D01*
X49606Y40551D02*
X53937D01*
X35390Y42913D02*
X39370D01*
X35248Y42772D02*
X35390Y42913D01*
D58*
X29921Y50000D02*
X34996D01*
X35248Y50252D01*
X11724Y15315D02*
Y35602D01*
Y15315D02*
X19146Y7894D01*
D59*
X5512Y51575D02*
Y51841D01*
Y51575D02*
X5700Y51386D01*
D60*
X35051Y50449D02*
X35248Y50252D01*
D61*
X19146Y7894D02*
D03*
D62*
X11272D02*
D03*
D63*
X105075Y46358D02*
D03*
Y54358D02*
D03*
X85075Y50358D02*
D03*
D64*
X132283Y14173D02*
D03*
D65*
X122283D02*
D03*
D66*
X51575Y54331D02*
D03*
X38976Y57480D02*
D03*
X47638Y57480D02*
D03*
X43307Y57480D02*
D03*
X34646Y57480D02*
D03*
X21654Y57480D02*
D03*
X30315Y57480D02*
D03*
X25984Y57480D02*
D03*
X17323Y57480D02*
D03*
X130051Y50275D02*
D03*
X96063Y27165D02*
D03*
X108268Y29921D02*
D03*
X110236Y18504D02*
D03*
X105118Y13780D02*
D03*
X131496Y40157D02*
D03*
X112598Y46457D02*
D03*
Y52756D02*
D03*
X82677Y46457D02*
D03*
X95276Y38189D02*
D03*
X106299D02*
D03*
X87402Y32283D02*
D03*
X124803Y31496D02*
D03*
Y35433D02*
D03*
X84252Y5118D02*
D03*
X82677Y20079D02*
D03*
X78347D02*
D03*
X61417Y57087D02*
D03*
X63386Y32677D02*
D03*
X46457Y17717D02*
D03*
X50787Y23622D02*
D03*
X31890Y10630D02*
D03*
Y15748D02*
D03*
X47244Y27953D02*
D03*
X49606Y34252D02*
D03*
Y37402D02*
D03*
X4331Y29921D02*
D03*
X27953Y24803D02*
D03*
X39764Y37795D02*
D03*
X19685Y46850D02*
D03*
X49606Y40551D02*
D03*
X39370Y42913D02*
D03*
X29921Y50000D02*
D03*
X18110Y24016D02*
D03*
X62205Y4331D02*
D03*
X53150D02*
D03*
X7874Y55118D02*
D03*
X17323Y62205D02*
D03*
X28346Y40157D02*
D03*
Y36220D02*
D03*
Y32283D02*
D03*
X25984Y62205D02*
D03*
X43307D02*
D03*
X124409Y62205D02*
D03*
X85433Y62205D02*
D03*
X89764D02*
D03*
X98425Y62205D02*
D03*
X94095D02*
D03*
X76772D02*
D03*
X81102D02*
D03*
X72441Y62205D02*
D03*
X68110D02*
D03*
X102756D02*
D03*
X107087D02*
D03*
X115748Y62205D02*
D03*
X111417D02*
D03*
X120079Y62205D02*
D03*
X56299Y62205D02*
D03*
X47638Y62205D02*
D03*
X51968D02*
D03*
X38976Y62205D02*
D03*
X30315Y62205D02*
D03*
X34646D02*
D03*
X21654Y62205D02*
D03*
X68110Y41732D02*
D03*
Y28346D02*
D03*
Y37008D02*
D03*
Y32677D02*
D03*
X63386Y41732D02*
D03*
Y28346D02*
D03*
Y37008D02*
D03*
X72441Y41732D02*
D03*
Y28346D02*
D03*
Y37008D02*
D03*
Y32677D02*
D03*
X59055D02*
D03*
Y37008D02*
D03*
Y28346D02*
D03*
Y41732D02*
D03*
D67*
X59449Y51575D02*
D03*
X82677Y38976D02*
D03*
X81496Y35433D02*
D03*
X68898Y50394D02*
D03*
X62254Y50443D02*
D03*
X50394Y27559D02*
D03*
X131496Y29134D02*
D03*
X137008Y47638D02*
D03*
X127165Y49606D02*
D03*
X85433Y38189D02*
D03*
X96457Y55905D02*
D03*
X118110Y50787D02*
D03*
X76772Y50394D02*
D03*
X92126Y55905D02*
D03*
X106299Y9055D02*
D03*
X94488Y7087D02*
D03*
X63386Y16535D02*
D03*
X64567Y50000D02*
D03*
X48819Y51575D02*
D03*
M02*
