M48
;Layer_Color=9474304
;FILE_FORMAT=2:4
INCH,TZ
;TYPE=PLATED
T1F00S00C0.0039
;TYPE=NON_PLATED
%
T01
X1196Y3360
X2567Y3061
X3084Y2802
X3632Y3328
X4379Y4155
X5420Y4727
X8299Y5431
X8597Y5250
X8539Y6114
X9348Y4253
X9927Y4237
X11686Y8818
X11599Y9171
X13119Y9062
X18653Y9112
X18894Y8379
X19734Y7270
X19836Y7833
X21167Y8841
X22421Y9232
X22636Y7406
X21699Y7218
X23357Y6726
X23636Y5953
X27070Y5824
X27114Y7364
X27763Y7067
X28531Y7258
X27711Y8511
X27734Y9038
X26833Y9062
X26409Y9179
X27058Y8561
X25996Y8294
X25499Y8336
X30389Y9221
X31221Y8929
X32119Y9179
X32747Y6980
X32470Y6699
X33033Y6200
X33260Y5815
X33525Y5976
X32918Y4248
X32194
X31342Y4184
X30978Y3525
X29981Y3496
X31026Y6870
X35944Y17784
X30897Y18375
X31260Y20200
X30797Y20620
X31980Y20732
X29851Y20199
X28621Y20159
X28450Y19754
X29018Y20819
X26910Y20790
X26469Y18149
X23970Y17946
X23961Y16811
X23444Y15368
X23233Y14363
X22862Y13752
X22695Y13129
X23060Y12560
X23596Y12193
X23721Y13144
X23746Y13734
X22439Y14155
X22053Y13849
X22063Y12588
X22160Y11920
X22580Y11232
X23044Y10415
X23060Y9709
X23494Y9839
X24142Y9851
X24667Y9672
X24561Y10421
X23755Y10391
X23769Y11070
X25000Y11074
X25619Y10815
X26311Y10825
X26935Y10340
X25777Y10093
X28557Y10016
X29479Y10003
X28994Y9463
X30540Y10209
X31035Y9918
X31565Y10241
X31777Y10659
X32381Y10034
X33163Y9660
X33448Y10340
X21851Y10080
X21035Y10730
X20873Y19672
X21021Y20176
X21780Y19960
X22143Y20199
X22658Y19984
X23115Y20494
X23658Y19952
X24149Y19463
X19860Y20176
X19592Y19681
X18951Y20166
X18426Y19952
X19002Y15293
X18010Y11501
X17862Y11377
X17710Y11265
X14514Y10417
X14272
X14030
X13789
X13165Y10602
X13080Y10760
X12998Y10917
X12974Y10445
X13139Y9750
X12647Y9894
X12490
X12332
X12175
X12017
Y12098
X11860
X11702
X11545
X12175
X12527Y12571
X12450Y13559
X12228
X12005Y13561
X11783Y13565
X13039Y11676
X6980Y17260
X6204Y17228
X5500Y17135
X5276Y17935
X8702Y20604
X4033Y17980
X4076Y17007
X1274Y13523
X1272Y11506
X1551Y10560
X2211Y10714
M30
