M48
;Layer_Color=9474304
;FILE_FORMAT=2:4
INCH,TZ
;TYPE=PLATED
T2F00S00C0.0098
T3F00S00C0.0120
T4F00S00C0.0130
T6F00S00C0.0354
T7F00S00C0.0394
;TYPE=NON_PLATED
T8F00S00C0.0390
T9F00S00C0.0701
T10F00S00C0.1260
%
T02
X500Y496
X707Y1507
X1650
X1680Y790
X2500Y496
X1196Y2033
X500Y2496
X2048Y2888
X3993Y2727
X3560Y3710
X3600Y5446
X3981Y5842
X3192Y6394
X2700Y6388
X2674Y7596
X2766Y8709
X3310Y9006
X1710Y8980
X1181Y9080
X500Y8496
X490Y6496
X500Y4496
X1824Y4936
X4370Y4500
X4811Y4766
X5010Y5100
X5510Y5600
X5486Y5991
X5981Y6210
X5898Y5526
X6007Y5193
X6850Y5238
X7207Y5193
X7062Y5720
X6807Y6190
X6493Y5947
X7693
X8000Y5962
X7638Y6272
X7740Y6934
X7382Y6796
X6928Y6786
X6940Y7688
X7090Y8190
X6916Y8562
X5860Y8692
X5898Y8190
X5770Y7616
X5734Y7206
X5185Y8576
X6410Y9371
X8282Y9338
X8333Y8648
X8788Y8808
X8889Y8366
X8698Y8071
X8479Y7772
X8230Y7250
X8879Y6895
X9920Y6890
X9952Y7448
X10364Y7164
X10918Y7404
X11044Y7019
X10721Y7727
X10311Y8146
X10441Y9180
X10952Y8795
X11387Y9041
X12254Y9034
X12552Y9016
X12848Y9022
X12542Y8161
Y7460
X13356Y7442
X13223Y6840
X13343Y8192
X14158Y8699
X14792Y8254
X14410Y7822
X14489Y7422
X14701Y6998
X15530Y7000
X15514Y6333
X15740Y5220
X16510Y5200
X16630Y5930
X16930Y6020
X17240Y6080
X17780Y5730
X17800Y5400
X18110
X18510Y5710
X18580Y6070
X18850Y5900
X19070Y6170
X19370Y6000
X19510Y6675
X19773Y6500
X19450Y7100
X19250Y7330
X19510Y7620
X19810Y8280
Y8600
X18900Y8015
X18600Y7998
X18280Y7660
X18333Y7354
X18030Y7100
X18041Y6791
X17805Y6569
X18240Y6230
X18400Y4718
X19050Y4550
X19615Y4745
X18540Y4030
X18530Y2660
X19050Y2566
X19470Y2236
X18750Y1620
X19300Y1060
X18970Y310
X18000Y2996
X17520Y3486
X16470Y3516
X15530Y3526
X15000Y2996
X15490Y2506
X16460Y2476
X17460Y2456
X14000Y2996
X13000
X12000
X11510Y2496
X12500
X12490Y3906
X11510Y3926
X10440Y3860
X10480Y3010
X11000Y2996
X9280Y2986
X8249Y3003
X8270Y3606
X8290Y1980
X9620Y1796
X10500Y1496
Y496
X9000
X6500
X6490Y1090
X6150Y1880
X6950Y1796
X6860Y3006
X6140Y3990
X8050Y5238
X10280Y5220
X10341Y5577
X10551Y5057
X10921Y4697
X9800Y4707
X12024Y4803
X12976
X14054
X14440Y4680
X15230Y4660
X14610Y5730
X14060Y5770
X12710Y5790
X12060Y6440
X11798Y8161
X9326Y7772
X9479Y8796
X15526Y7709
X16906Y7628
X17043Y8002
X17353Y8027
X17990Y7800
X17981Y8329
X18210Y8830
X17760Y9250
X16811Y9232
X17099Y6949
X14460Y3700
X13480Y3920
X4740Y1970
X4678Y5880
X20310Y5700
X20670Y5980
X20940Y6390
X21141Y6949
X21220Y7720
Y8110
X20680Y8430
X20670Y7690
X22350Y8500
X22160Y9080
X23120Y8370
X24120
X24620
X25120
Y6800
X24620Y6802
X24120
X22810Y7130
X22675Y5679
X23166Y5620
X23416Y5430
X23636Y5211
X23440Y4496
X24054Y4707
X24000Y2996
X23000
X22000
X21000
X20000
X20485Y4496
X21480Y4140
X21997Y4764
X22500Y4496
X25000Y2996
X25560Y3380
X26310Y3216
X26350Y2680
X26780Y2400
X27480Y2420
X27810Y2640
X27510Y3370
X28340Y3800
X28810Y4250
X29280Y4860
X30199Y4587
X30709Y4376
X30500Y4046
X30415Y3035
X29780Y2197
X29110Y1670
X27490Y1530
X27400Y1050
X27440Y320
X28500Y496
X30500
X32500
X31720Y1600
X31050Y2197
X32500Y3096
X32607Y4680
X32907
X32780Y5340
X32437Y5320
X31777Y5240
Y5540
Y4940
X31220Y4900
X31250Y5650
X30500Y5346
X28500
X28557Y5910
X27960Y5900
Y6200
X27810Y7350
Y7650
Y7952
Y8254
X28380Y8080
X28280Y8760
X28580
X28880
X29180
X29753Y9350
X29960Y8210
X31050Y8240
X30650Y7320
X29970Y7067
X32500Y7536
X32791Y6673
X32227Y5910
X33860Y6030
X34500Y5346
X33527Y5030
X33290Y4206
X31780Y4196
X34829Y4089
X34500Y3096
X34170Y2202
X33590Y1580
X34500Y496
X35440Y2202
X35116Y6363
X35087Y6956
X34500Y7526
X33962Y7460
X34169Y8247
X34140Y9346
X32500Y8896
X26987Y8254
Y7952
Y7650
X25777Y7350
X26990Y4200
X27810Y4820
X28500Y3016
X26750Y1510
X26310Y496
X25570Y1020
X25597Y2236
X36090Y1670
X36500Y496
X37100Y2250
X36586Y2991
X37100Y4496
X36500Y5346
X35613Y4936
X37100Y6496
X36174Y7489
X35449Y8247
X36131Y9318
X37100Y8496
Y10496
X36303Y11156
X36050Y11746
X36790
X36869Y13262
X36059
X36210Y14330
X37150Y14496
X36611Y15663
X35585Y15602
X36106Y16780
X37150Y16496
X36967Y17910
X36258Y18200
X36510Y18870
X36810
X36890Y19440
X36260Y19420
X36299Y19910
X36020Y19790
X36299Y20330
X36577Y21000
X37247Y20540
X37688Y20440
X37510Y20100
Y19620
Y19320
X38116Y19612
X38500Y20496
X38520Y21486
X38500Y22496
X37310Y21815
X36500Y22496
X35578Y22746
X35660Y23940
X36500Y24486
X37124Y23510
X38500Y24496
Y18496
X37622Y18300
X35450Y18970
X35550Y20690
X35670Y21290
X35000Y21996
X34000
X33000
X32000
X31000
X30000
X29000
X28000
X27000
X26040Y21780
X25590Y21040
X26410Y20620
X26020Y19610
X25760Y19350
X25610Y18950
X25840Y18670
X26060Y18880
X26660Y18916
X27160Y18892
X27660Y18916
X28160
X28330Y17960
X29380Y17850
Y17550
X30285Y17685
X30495Y17905
X30705Y18125
X31105Y17985
X31150Y17340
X32250Y17470
X32710Y17390
X33010Y17046
X33060Y18020
X33810Y17970
X34370Y17370
X34760Y17470
X34740Y18970
X34320Y18870
X32820Y18860
X32250Y18973
X31300Y18940
X30317Y18910
X29337
X29450Y21000
X29970Y20760
X31490Y21050
X32520Y21200
X32500Y22726
X33490Y22910
X34500Y22746
X34490Y21000
X34650Y20400
X34700Y15996
X34115Y15985
X33335Y16065
X33545Y16285
X33755Y16505
X32905Y16085
X32685Y15875
X32465Y15665
X33125Y15845
X33085Y15012
X33505
X34045
X34385
X34765Y15092
X33765Y14689
Y14262
X32065Y14312
X32060Y15160
X31960Y16180
X30775Y16142
X30360Y16620
X30150Y16910
X29745Y15775
X29120Y16360
X28425Y16635
X28520Y15590
X28470Y14440
X29745Y14425
X29755Y13834
X29855Y13434
X30356Y14129
X30810Y14500
X31155Y14234
X31275Y11501
X31141Y10757
X31515Y10752
X32060Y10780
X32270Y10560
X32690
X32480Y10340
X32900
X33680Y10520
X33470Y10740
X33260Y10960
X34130Y11030
X33920Y11250
X33710Y11470
X34850Y11380
Y12126
X35200Y11806
X34850Y12856
X35045Y13362
Y13692
X35405Y13982
X35300Y10496
X34550Y10590
X34340Y10810
X31850Y11000
X28955Y11403
X28860Y11890
X29210Y12320
X29606Y12388
X26990Y12390
X26425Y12616
X26662Y13498
X26677Y14630
X25520Y14470
X24990Y14720
X24593Y14723
X24280Y14480
X24130Y13600
Y12600
X24677Y12400
X25320Y11100
X25620
X25920
X26220
X26530
X26830
X27130
X27430
X28230Y10016
X28250Y9430
X26550
X26508Y9850
X25470Y10110
X25170
X24870
X24570
X24270
X23970
X23670
X23370
X23070
X22770
X22743Y9793
X22650Y9460
X22270Y9670
X22330Y10530
X22110Y10740
X21890Y10950
X22550Y10320
X20730Y9970
X20860Y9494
X20670Y10730
X20849Y11250
X20810Y12050
X20900Y12390
X21200
X21500
X21800
X22490Y13480
X22370Y13760
X22130Y14120
X22007Y14625
X21640Y14960
X21850Y15510
X22233Y16140
X22366Y16938
X21989Y17386
Y17806
Y18226
Y18646
Y19066
X21299Y18380
X20419Y18408
Y18758
X20520Y19250
X20163Y17798
X20360Y17380
X20666Y17478
X19823Y17441
X20176Y16635
X19960Y16256
X20383Y15708
X20310Y15015
X20653Y14358
X20383Y13770
X21243Y13940
X20002Y12949
X21043Y16938
X20540Y21080
X20520Y22010
X21000Y21996
X21510Y21520
X22000Y21996
X23000
X24000
X25000
X24510Y21210
X23540Y21130
X22520
X24300Y19780
X24420Y19500
X24540Y19220
X24660Y18940
X25540Y17770
X25840
X26140
X26440
X26857Y16870
X27520Y21130
X28490Y21120
X28510Y23040
X29510
X30510Y22980
X31520
X27520Y23010
X26440Y22766
X25620Y22716
X26140Y23586
X20000Y21996
X31800Y17930
X19211Y17430
X18660Y17258
X18791Y16830
X18293Y16250
X17713Y17258
X17811Y17651
Y17952
X17410Y17960
X17290Y17360
X16284Y17732
X15094Y17682
X14400Y17989
X13400Y17996
X12400Y17996
X11400Y17996
X10400
X9400
X8400Y17996
X7900Y18496
X7400Y17996
X6850Y17586
X6804Y18696
X5663Y18711
X5690Y17546
X6204Y16463
X7509Y16427
X7890Y17066
X8950Y17436
X8838Y16453
X9021Y15436
X9194Y14467
X9358Y14066
X9852Y14035
X10495Y13898
X11073Y13760
X11448Y13735
X11818Y13283
X12188Y13347
X12710Y13559
X13009Y13358
X13317Y12949
X13566Y12812
X13250Y12131
X13710Y11812
X13740Y11384
X13250Y10960
X13145Y10249
X13009Y9972
X13740Y9834
X14590Y9821
X14909Y10988
X15838Y10801
X16211Y11132
X15861Y11959
X15892Y12637
X15883Y13357
X14858Y13339
X14759Y12721
X14727Y12205
X13843Y13716
X14242Y14580
X14820Y14531
X15029Y14720
X15238Y14922
X15425Y15126
X15103Y15496
X15145Y16552
X16701
X16880Y15529
X17240Y14784
X18301Y14542
X18335Y13358
X18134Y12683
X17630Y12206
X17679Y13764
X16657Y13860
X15708Y14403
X15821Y14803
X13579Y15212
X12210Y15217
X10876Y15212
X10068Y15230
X10311Y14496
X11521Y14553
X12938Y14450
X12386Y12739
X10256Y13108
X9852Y12131
X10047Y11719
X9518Y11705
X9330Y11480
X9359Y11170
X9506Y10917
X9562Y10421
X9977Y10343
X9998Y9926
X9674
X9977Y9528
X10391Y9492
X10859Y9515
X11408Y9395
X11624Y9576
X12050Y9424
X8845Y9525
X8788Y10311
X9155Y10647
X8806Y11100
X8975Y11648
X8308Y11601
X8345Y10714
X7274Y10699
X7249Y11579
X6107Y11601
X6062Y10718
X4911Y10714
X4661Y11376
X5176Y11579
X4297Y11797
X4398Y10249
X5369Y9955
X5682Y9424
X6794Y9983
X7892Y10002
X9909Y11105
X8961Y13532
X8383Y13744
X8033Y14457
X6847Y14436
X7108Y13746
X5898
X5600Y14435
X4336Y14436
X4475Y13760
X5240Y15463
X6578Y15450
X7801Y15463
X10055Y16453
X11179Y16491
X11963Y16470
X12701Y16526
X12910Y19350
X12970Y19960
X13920Y20000
X13940Y21080
X13910Y21970
X14400Y21996
X14860Y21980
X15400Y21996
X15920Y21990
X16400Y21996
X16850Y21990
X17560Y22010
X18000Y21996
X18500Y22000
X19000Y21996
X19530Y21970
X19330Y21090
X18540Y21040
X18400Y20430
X17310Y20896
X16979Y20176
X15940Y20166
X15970Y19350
X15821Y18749
X15010Y18700
X14680Y19350
X14943Y20150
X14920Y21080
X15940Y21070
X16684Y19172
X17885Y19292
X17857Y18791
X17811Y18424
X18465Y18109
X18505Y18960
X18860Y18770
X19329Y19058
X19730Y19170
X19580Y14996
X19694Y14640
X19530Y13833
X19360Y12721
X19649Y11719
X19178Y11501
X18814
X18894Y10490
X19480Y9960
X19810Y10269
Y11180
X18115Y10846
X17254Y10877
X17122Y9949
X17850Y9750
X18200Y9980
X17210Y22756
X13400Y21996
X12910Y21980
X12400Y21996
X11940Y21980
X11400Y21996
X10900Y21970
X10400Y22000
X9920Y21980
X9400Y21996
X8400
X7400
X6970Y21270
X7880Y21230
X8250Y20770
X7515Y20350
X7400Y19306
X8170Y19290
X8900Y19096
X8910Y19920
X9930Y19950
Y21090
X10260Y20770
X10880Y21080
X11420Y20770
X11940Y21100
X12940Y21080
X11880Y19930
X10890Y19350
Y22596
X9890Y22576
X8890Y21430
X6980Y22780
X6500Y23216
X6900Y24496
X5400
X4500Y22496
X4910Y21206
X5153Y19950
X6005Y20662
X6641Y19761
X4867Y16453
X3816Y15450
X2674Y15463
X2500Y14870
X3144Y14450
X2790Y13550
X3493Y13467
X3213Y11674
X2390Y11866
X2510Y11260
X1318Y11835
X1329Y12752
X1200Y14990
X1866Y15436
X1010Y15916
X500Y16496
X648Y17470
X500Y18496
X751Y19178
X510Y20000
X2250Y19166
X2880Y18696
X3030Y17280
X2320Y17346
X2655Y16453
X500Y14496
Y10496
X634Y9633
X1204Y9939
X3140Y10066
X3100Y9426
Y20996
X2970Y21550
X3000Y22496
X3720Y22430
X3980Y21240
X3977Y20244
X4120Y23720
X2500Y22996
X1589Y22573
X1560Y23420
X500Y22996
Y24496
X2500
T03
X10836Y10287
Y10760
Y11232
Y11705
X11361
Y11232
Y10760
Y10287
X11886
Y10760
Y11232
Y11705
X12411
Y11232
Y10760
Y10287
T04
X31746Y11973
X32218
X32691
X33163
Y12445
X32691
X32218
X31746
Y12918
X32218
Y13390
X31746
X32691
Y12918
X33163
Y13390
T06
X11000Y496
X12000
X13000
Y1496
X12000
X11000
X14000
X15000
Y496
X14000
X16000
Y1496
X17000
X18000
Y496
X17000
X20000
Y1496
X21000
Y496
X22000
X23000
Y1496
X22000
X24000
X25000
Y496
X24000
Y23496
X23000
Y24496
X24000
X25000
Y23496
X27000Y23496
X28000
Y24496
X29000
X30000
X31000
Y23496
X32000
X33000
Y24496
X34000
Y23496
X35000
Y24496
X32000
X30000Y23496
X29000
X27000Y24496
X22000Y24496
X21000
Y23496
X22000
X20000
Y24496
X19000
X18000
Y23496
X19000
X16400
Y24496
X15400
Y23496
X14400
X13400
Y24496
X14400
X12400
X11400
X10400
Y23496
X11400
X12400
X9400
X8400
X7400
Y24496
X8400
X9400
T07
X4595Y496
X1530Y24306
T08
X19000Y12496
X18600Y15496
X19400
T09
X2880Y6996
Y17996
T10
X5500Y2996
X26000Y4996
X38000Y2996
X26000Y15996
X6000Y21996
M30
