<svg width="275" height="125" viewBox="0 0 275 125" fill="none" xmlns="http://www.w3.org/2000/svg">
<path d="M86.7278 36.6928L62.5505 22.6872C58.6764 20.4376 53.8804 20.4376 50.0209 22.6872L25.8415 36.6928C21.9673 38.9277 19.5694 43.0984 19.5694 47.5682V75.5793C19.5694 80.0639 21.9673 84.2346 25.8415 86.4674L50.0209 100.475C51.9506 101.585 54.1219 102.154 56.2784 102.154C58.4496 102.154 60.6187 101.585 62.5505 100.475L83.0238 88.618V99.9042L56.3771 114.921L15.9367 91.7208L11 100.361L51.8646 123.804C53.2546 124.6 54.8169 125 56.3771 125C57.9099 125 59.4428 124.615 60.8182 123.846L88.3174 108.359C91.1837 106.737 92.9559 103.692 92.9559 100.403V76.5609C92.9853 76.2344 93 75.9079 93 75.5793V47.5682C93 43.0984 90.5873 38.9277 86.7278 36.6928ZM81.7618 77.8416L57.5824 91.8492C56.7739 92.3042 55.7807 92.3042 54.987 91.8492L30.8076 77.8416C29.9992 77.374 29.5036 76.504 29.5036 75.5793V47.5682C29.5036 46.6414 29.9992 45.7736 30.8076 45.3186L54.987 31.313C55.3839 31.0855 55.8374 30.957 56.2784 30.957C56.7319 30.957 57.1855 31.0855 57.5824 31.313L81.7618 45.3186C82.5702 45.7736 83.0679 46.6414 83.0679 47.5682V75.5793C83.0679 76.504 82.5702 77.374 81.7618 77.8416Z" fill="#CCFF03"/>
<path d="M9.95725 80H0V35.5438C0 32.311 1.73462 29.2949 4.53023 27.67L51.0178 1.20934C53.7502 -0.381836 57.2089 -0.407089 60.0067 1.15883L98 22.4356L93.1329 31.1239L55.5606 10.0787L9.95725 36.0364V80ZM55.9838 9.83875L55.9711 9.84716C55.9753 9.84296 55.9795 9.84085 55.9838 9.83875Z" fill="#CCFF03"/>
<path d="M144.428 56.4533C141.324 56.4533 138.464 55.9691 135.846 55.0006C133.265 53.9948 131.003 52.5794 129.058 50.7541C127.151 48.9289 125.655 46.787 124.571 44.3285C123.524 41.87 123 39.1694 123 36.2267C123 33.2839 123.524 30.5833 124.571 28.1248C125.655 25.6663 127.17 23.5245 129.114 21.6992C131.059 19.874 133.34 18.4771 135.958 17.5086C138.576 16.5029 141.455 16 144.597 16C148.075 16 151.197 16.5774 153.965 17.7321C156.769 18.8869 159.125 20.5631 161.033 22.7608L155.199 28.1248C153.778 26.6348 152.226 25.536 150.543 24.8282C148.86 24.0832 147.028 23.7107 145.045 23.7107C143.138 23.7107 141.399 24.0087 139.829 24.6047C138.258 25.2007 136.893 26.0575 135.734 27.175C134.612 28.2924 133.733 29.6148 133.097 31.1421C132.499 32.6693 132.2 34.3642 132.2 36.2267C132.2 38.0519 132.499 39.7282 133.097 41.2554C133.733 42.7826 134.612 44.1236 135.734 45.2784C136.893 46.3959 138.239 47.2526 139.773 47.8486C141.343 48.4446 143.063 48.7426 144.933 48.7426C146.728 48.7426 148.467 48.4632 150.15 47.9045C151.87 47.3085 153.535 46.3214 155.143 44.9431L160.303 51.4805C158.172 53.0822 155.685 54.3115 152.843 55.1682C150.038 56.025 147.233 56.4533 144.428 56.4533ZM152.001 50.3071V35.612H160.303V51.4805L152.001 50.3071Z" fill="white"/>
<path d="M177.103 32.4272H196.007V39.4674H177.103V32.4272ZM177.776 48.5191H199.149V55.7828H168.745V16.6705H198.419V23.9342H177.776V48.5191Z" fill="white"/>
<path d="M214.513 55.7828V24.046H201.948V16.6705H236.166V24.046H223.6V55.7828H214.513Z" fill="white"/>
<path d="M125.468 109.33V70.2172H142.465C145.98 70.2172 149.01 70.7945 151.553 71.9493C154.096 73.0668 156.059 74.6871 157.443 76.8104C158.826 78.9336 159.518 81.4666 159.518 84.4094C159.518 87.3148 158.826 89.8292 157.443 91.9524C156.059 94.0384 154.096 95.6402 151.553 96.7577C149.01 97.8752 145.98 98.4339 142.465 98.4339H130.517L134.556 94.4668V109.33H125.468ZM150.431 109.33L140.614 95.1373H150.318L160.247 109.33H150.431ZM134.556 95.4726L130.517 91.2261H141.96C144.765 91.2261 146.859 90.6301 148.243 89.4381C149.627 88.2088 150.318 86.5326 150.318 84.4094C150.318 82.2489 149.627 80.5726 148.243 79.3806C146.859 78.1886 144.765 77.5926 141.96 77.5926H130.517L134.556 73.2903V95.4726Z" fill="white"/>
<path d="M175.076 85.9738H193.98V93.0141H175.076V85.9738ZM175.749 102.066H197.122V109.33H166.718V70.2172H196.392V77.4809H175.749V102.066Z" fill="white"/>
<path d="M204.352 109.33V70.2172H221.349C224.864 70.2172 227.894 70.7945 230.437 71.9493C232.98 73.0668 234.943 74.6871 236.327 76.8104C237.71 78.9336 238.402 81.4666 238.402 84.4094C238.402 87.3148 237.71 89.8292 236.327 91.9524C234.943 94.0757 232.98 95.7147 230.437 96.8694C227.894 97.9869 224.864 98.5457 221.349 98.5457H209.401L213.44 94.4668V109.33H204.352ZM213.44 95.4726L209.401 91.1702H220.844C223.649 91.1702 225.743 90.5742 227.127 89.3822C228.511 88.1902 229.203 86.5326 229.203 84.4094C229.203 82.2489 228.511 80.5726 227.127 79.3806C225.743 78.1886 223.649 77.5926 220.844 77.5926H209.401L213.44 73.2903V95.4726Z" fill="white"/>
<path d="M258.34 110C255.198 110 252.188 109.59 249.308 108.771C246.429 107.914 244.11 106.815 242.353 105.474L245.438 98.6574C247.121 99.8494 249.103 100.837 251.384 101.619C253.702 102.364 256.04 102.736 258.396 102.736C260.191 102.736 261.631 102.569 262.715 102.233C263.837 101.861 264.66 101.358 265.183 100.725C265.707 100.092 265.969 99.3652 265.969 98.5457C265.969 97.5027 265.557 96.6832 264.735 96.0872C263.912 95.4539 262.827 94.9511 261.481 94.5786C260.135 94.1688 258.639 93.7963 256.993 93.4611C255.385 93.0886 253.759 92.6416 252.113 92.1201C250.505 91.5986 249.028 90.9281 247.682 90.1086C246.335 89.2891 245.232 88.2088 244.372 86.8679C243.549 85.5269 243.138 83.8133 243.138 81.7274C243.138 79.4924 243.736 77.4623 244.933 75.637C246.167 73.7745 247.999 72.3032 250.43 71.2229C252.898 70.1054 255.984 69.5467 259.686 69.5467C262.154 69.5467 264.585 69.8447 266.978 70.4407C269.372 70.9994 271.485 71.8561 273.317 73.0109L270.512 79.8835C268.68 78.8405 266.847 78.0769 265.015 77.5926C263.183 77.0711 261.388 76.8104 259.63 76.8104C257.872 76.8104 256.432 77.0153 255.311 77.425C254.189 77.8348 253.385 78.3749 252.898 79.0454C252.412 79.6786 252.169 80.4236 252.169 81.2804C252.169 82.2861 252.581 83.1056 253.403 83.7389C254.226 84.3349 255.311 84.8191 256.657 85.1916C258.003 85.5641 259.48 85.9366 261.088 86.3091C262.734 86.6816 264.361 87.11 265.969 87.5942C267.614 88.0785 269.11 88.7303 270.456 89.5498C271.803 90.3693 272.887 91.4496 273.71 92.7906C274.57 94.1316 275 95.8264 275 97.8752C275 100.073 274.383 102.084 273.149 103.91C271.915 105.735 270.064 107.206 267.595 108.324C265.165 109.441 262.079 110 258.34 110Z" fill="white"/>
</svg>
