G04*
G04 #@! TF.GenerationSoftware,Altium Limited,Altium Designer,21.4.1 (30)*
G04*
G04 Layer_Color=16711935*
%FSLAX24Y24*%
%MOIN*%
G70*
G04*
G04 #@! TF.SameCoordinates,516B4A6D-3ECB-46AA-BE42-5657E3C56184*
G04*
G04*
G04 #@! TF.FilePolarity,Negative*
G04*
G01*
G75*
%ADD81C,0.0240*%
%ADD101C,0.0139*%
%ADD116R,0.0462X0.0922*%
%ADD125C,0.0787*%
%ADD142C,0.0651*%
%ADD143R,0.0651X0.0651*%
%ADD144C,0.1280*%
%ADD145O,0.0690X0.0414*%
%ADD146C,0.0761*%
%ADD175R,0.1714X0.1320*%
%ADD176R,0.0934X0.0462*%
D81*
X25790Y10509D02*
G03*
X25790Y10509I-110J0D01*
G01*
Y10531D02*
G03*
X25790Y10531I-110J0D01*
G01*
X26375Y10509D02*
G03*
X26375Y10509I-110J0D01*
G01*
Y10531D02*
G03*
X26375Y10531I-110J0D01*
G01*
X27545Y10509D02*
G03*
X27545Y10509I-110J0D01*
G01*
Y10531D02*
G03*
X27545Y10531I-110J0D01*
G01*
X26960Y10509D02*
G03*
X26960Y10509I-110J0D01*
G01*
Y10531D02*
G03*
X26960Y10531I-110J0D01*
G01*
X24650Y6293D02*
G03*
X24650Y6293I-110J0D01*
G01*
Y6315D02*
G03*
X24650Y6315I-110J0D01*
G01*
X24075Y6293D02*
G03*
X24075Y6293I-110J0D01*
G01*
Y6315D02*
G03*
X24075Y6315I-110J0D01*
G01*
X23501Y6293D02*
G03*
X23501Y6293I-110J0D01*
G01*
Y6315D02*
G03*
X23501Y6315I-110J0D01*
G01*
X22926Y6293D02*
G03*
X22926Y6293I-110J0D01*
G01*
Y6315D02*
G03*
X22926Y6315I-110J0D01*
G01*
D101*
X25680Y10387D02*
D03*
Y10653D02*
D03*
X26265Y10387D02*
D03*
Y10653D02*
D03*
X27435Y10387D02*
D03*
Y10653D02*
D03*
X26850Y10387D02*
D03*
Y10653D02*
D03*
X24540Y6171D02*
D03*
Y6437D02*
D03*
X23965Y6171D02*
D03*
Y6437D02*
D03*
X23391Y6171D02*
D03*
Y6437D02*
D03*
X22816Y6171D02*
D03*
Y6437D02*
D03*
D116*
X8400Y22573D02*
D03*
Y21419D02*
D03*
X7400Y22573D02*
D03*
Y21419D02*
D03*
X16400D02*
D03*
Y22573D02*
D03*
X12400D02*
D03*
Y21419D02*
D03*
X11400Y22573D02*
D03*
Y21419D02*
D03*
X13400Y22573D02*
D03*
Y21419D02*
D03*
X14400Y22573D02*
D03*
Y21419D02*
D03*
X15400D02*
D03*
Y22573D02*
D03*
X9400Y21419D02*
D03*
Y22573D02*
D03*
X10400Y21419D02*
D03*
Y22573D02*
D03*
X25000Y21419D02*
D03*
Y22573D02*
D03*
X21000D02*
D03*
Y21419D02*
D03*
X20000Y22573D02*
D03*
Y21419D02*
D03*
X22000Y22573D02*
D03*
Y21419D02*
D03*
X23000Y22573D02*
D03*
Y21419D02*
D03*
X24000D02*
D03*
Y22573D02*
D03*
X18000Y21419D02*
D03*
Y22573D02*
D03*
X19000Y21419D02*
D03*
Y22573D02*
D03*
X27000Y22573D02*
D03*
Y21419D02*
D03*
X35000D02*
D03*
Y22573D02*
D03*
X31000D02*
D03*
Y21419D02*
D03*
X30000Y22573D02*
D03*
Y21419D02*
D03*
X32000Y22573D02*
D03*
Y21419D02*
D03*
X33000Y22573D02*
D03*
Y21419D02*
D03*
X34000D02*
D03*
Y22573D02*
D03*
X28000Y21419D02*
D03*
Y22573D02*
D03*
X29000Y21419D02*
D03*
Y22573D02*
D03*
X20000Y3573D02*
D03*
Y2419D02*
D03*
X24000D02*
D03*
Y3573D02*
D03*
X25000Y2419D02*
D03*
Y3573D02*
D03*
X23000Y2419D02*
D03*
Y3573D02*
D03*
X22000Y2419D02*
D03*
Y3573D02*
D03*
X21000D02*
D03*
Y2419D02*
D03*
X11000Y3573D02*
D03*
Y2419D02*
D03*
X15000D02*
D03*
Y3573D02*
D03*
X16000Y2419D02*
D03*
Y3573D02*
D03*
X14000Y2419D02*
D03*
Y3573D02*
D03*
X13000Y2419D02*
D03*
Y3573D02*
D03*
X12000D02*
D03*
Y2419D02*
D03*
X18000Y3573D02*
D03*
Y2419D02*
D03*
X17000Y3573D02*
D03*
Y2419D02*
D03*
X13400Y17419D02*
D03*
Y18573D02*
D03*
X14400Y17419D02*
D03*
Y18573D02*
D03*
X8400Y17419D02*
D03*
Y18573D02*
D03*
X9400D02*
D03*
Y17419D02*
D03*
X10400Y18573D02*
D03*
Y17419D02*
D03*
X12400Y18573D02*
D03*
Y17419D02*
D03*
X11400Y18573D02*
D03*
Y17419D02*
D03*
X7400D02*
D03*
Y18573D02*
D03*
D125*
X37973Y23596D02*
D03*
X5630Y730D02*
D03*
D142*
X18000Y496D02*
D03*
Y1496D02*
D03*
X15000D02*
D03*
Y496D02*
D03*
X13000Y1496D02*
D03*
Y496D02*
D03*
X12000Y1496D02*
D03*
Y496D02*
D03*
X11000Y1496D02*
D03*
X14000Y496D02*
D03*
Y1496D02*
D03*
X16000Y496D02*
D03*
Y1496D02*
D03*
X17000D02*
D03*
Y496D02*
D03*
X25000Y1496D02*
D03*
Y496D02*
D03*
X23000Y1496D02*
D03*
Y496D02*
D03*
X20000Y1496D02*
D03*
X21000Y496D02*
D03*
Y1496D02*
D03*
X22000Y496D02*
D03*
Y1496D02*
D03*
X24000Y496D02*
D03*
Y1496D02*
D03*
X1530Y24306D02*
D03*
X18000Y24496D02*
D03*
Y23496D02*
D03*
X21000D02*
D03*
Y24496D02*
D03*
X23000Y23496D02*
D03*
Y24496D02*
D03*
X24000Y23496D02*
D03*
Y24496D02*
D03*
X25000Y23496D02*
D03*
X22000Y24496D02*
D03*
Y23496D02*
D03*
X20000Y24496D02*
D03*
Y23496D02*
D03*
X19000D02*
D03*
Y24496D02*
D03*
X7400D02*
D03*
Y23496D02*
D03*
X8400D02*
D03*
Y24496D02*
D03*
X10400D02*
D03*
Y23496D02*
D03*
X11400D02*
D03*
Y24496D02*
D03*
X13400Y23496D02*
D03*
Y24496D02*
D03*
X16400Y23496D02*
D03*
X15400Y24496D02*
D03*
Y23496D02*
D03*
X14400Y24496D02*
D03*
Y23496D02*
D03*
X12400Y24496D02*
D03*
Y23496D02*
D03*
X9400D02*
D03*
Y24496D02*
D03*
X28000Y24496D02*
D03*
Y23496D02*
D03*
X31000D02*
D03*
Y24496D02*
D03*
X33000Y23496D02*
D03*
Y24496D02*
D03*
X34000Y23496D02*
D03*
Y24496D02*
D03*
X35000Y23496D02*
D03*
X32000Y24496D02*
D03*
Y23496D02*
D03*
X30000Y24496D02*
D03*
Y23496D02*
D03*
X29000D02*
D03*
Y24496D02*
D03*
X27000D02*
D03*
Y23496D02*
D03*
X4595Y496D02*
D03*
D143*
X11000Y496D02*
D03*
X20000D02*
D03*
X25000Y24496D02*
D03*
X16400D02*
D03*
X35000Y24496D02*
D03*
D144*
X26000Y4996D02*
D03*
Y15996D02*
D03*
X5500Y2996D02*
D03*
X6000Y21996D02*
D03*
X38000Y2996D02*
D03*
D145*
X765Y13795D02*
D03*
Y11197D02*
D03*
D146*
X2880Y6996D02*
D03*
Y17996D02*
D03*
D175*
X4411Y6985D02*
D03*
Y18520D02*
D03*
D176*
X24438Y11996D02*
D03*
X26662D02*
D03*
X24438Y12996D02*
D03*
Y13996D02*
D03*
X26662Y12996D02*
D03*
Y13996D02*
D03*
M02*
