G04*
G04 #@! TF.GenerationSoftware,Altium Limited,Altium Designer,21.4.1 (30)*
G04*
G04 Layer_Color=8421504*
%FSLAX24Y24*%
%MOIN*%
G70*
G04*
G04 #@! TF.SameCoordinates,516B4A6D-3ECB-46AA-BE42-5657E3C56184*
G04*
G04*
G04 #@! TF.FilePolarity,Positive*
G04*
G01*
G75*
G04:AMPARAMS|DCode=27|XSize=43.3mil|YSize=39.4mil|CornerRadius=3mil|HoleSize=0mil|Usage=FLASHONLY|Rotation=180.000|XOffset=0mil|YOffset=0mil|HoleType=Round|Shape=RoundedRectangle|*
%AMROUNDEDRECTD27*
21,1,0.0433,0.0335,0,0,180.0*
21,1,0.0374,0.0394,0,0,180.0*
1,1,0.0059,-0.0187,0.0167*
1,1,0.0059,0.0187,0.0167*
1,1,0.0059,0.0187,-0.0167*
1,1,0.0059,-0.0187,-0.0167*
%
%ADD27ROUNDEDRECTD27*%
%ADD28O,0.0787X0.0591*%
%ADD29R,0.0207X0.0098*%
%ADD30R,0.1083X0.0551*%
%ADD31O,0.0071X0.0240*%
%ADD32O,0.0240X0.0071*%
%ADD33R,0.0394X0.0591*%
%ADD34R,0.0106X0.0118*%
%ADD35R,0.0320X0.0300*%
%ADD36R,0.0157X0.0098*%
%ADD37R,0.0157X0.0276*%
%ADD38R,0.0394X0.0630*%
%ADD39R,0.0118X0.0106*%
%ADD40R,0.0236X0.0197*%
%ADD41C,0.0098*%
%ADD42R,0.0197X0.0236*%
%ADD43R,0.0217X0.0236*%
%ADD44R,0.0236X0.0217*%
%ADD45C,0.0167*%
%ADD46R,0.0276X0.0157*%
%ADD47R,0.0098X0.0157*%
%ADD48R,0.0315X0.0295*%
%ADD49R,0.0335X0.0374*%
%ADD50R,0.0295X0.0315*%
%ADD51R,0.0551X0.0630*%
%ADD52R,0.0610X0.0748*%
%ADD53R,0.0531X0.0157*%
%ADD54R,0.0256X0.0197*%
%ADD55R,0.0300X0.0320*%
%ADD56R,0.0402X0.0862*%
%ADD57R,0.0709X0.0394*%
G04:AMPARAMS|DCode=58|XSize=31.5mil|YSize=29.5mil|CornerRadius=0mil|HoleSize=0mil|Usage=FLASHONLY|Rotation=40.000|XOffset=0mil|YOffset=0mil|HoleType=Round|Shape=Rectangle|*
%AMROTATEDRECTD58*
4,1,4,-0.0026,-0.0214,-0.0216,0.0012,0.0026,0.0214,0.0216,-0.0012,-0.0026,-0.0214,0.0*
%
%ADD58ROTATEDRECTD58*%

G04:AMPARAMS|DCode=59|XSize=19.7mil|YSize=25.6mil|CornerRadius=0mil|HoleSize=0mil|Usage=FLASHONLY|Rotation=40.000|XOffset=0mil|YOffset=0mil|HoleType=Round|Shape=Rectangle|*
%AMROTATEDRECTD59*
4,1,4,0.0007,-0.0161,-0.0158,0.0035,-0.0007,0.0161,0.0158,-0.0035,0.0007,-0.0161,0.0*
%
%ADD59ROTATEDRECTD59*%

%ADD60R,0.0142X0.0098*%
%ADD61R,0.0236X0.0335*%
%ADD62R,0.0394X0.0335*%
%ADD63R,0.0157X0.0197*%
%ADD64C,0.0394*%
%ADD65R,0.0228X0.0197*%
%ADD66R,0.0315X0.0295*%
%ADD67R,0.1500X0.0500*%
%ADD68R,0.0299X0.0945*%
%ADD69R,0.0945X0.0299*%
%ADD70R,0.1252X0.0500*%
%ADD71R,0.1850X0.1850*%
%ADD72O,0.0079X0.0256*%
%ADD73O,0.0256X0.0079*%
%ADD74R,0.0400X0.0300*%
%ADD75R,0.0374X0.0335*%
%ADD76R,0.0236X0.1024*%
%ADD77R,0.0118X0.0315*%
%ADD78R,0.0280X0.0362*%
%ADD79R,0.0165X0.0217*%
%ADD80C,0.0087*%
D27*
X12391Y11705D02*
D03*
X11880D02*
D03*
X11368D02*
D03*
X10856D02*
D03*
X12391Y11232D02*
D03*
X11880D02*
D03*
X11368D02*
D03*
X10856D02*
D03*
X12391Y10760D02*
D03*
X11880D02*
D03*
X11368D02*
D03*
X10856D02*
D03*
Y10287D02*
D03*
X11368D02*
D03*
X11880D02*
D03*
X12391D02*
D03*
D28*
X765Y11197D02*
D03*
Y13795D02*
D03*
D29*
X7743Y5303D02*
D03*
Y5500D02*
D03*
Y5697D02*
D03*
X7457Y5303D02*
D03*
Y5500D02*
D03*
Y5697D02*
D03*
X6543Y5303D02*
D03*
Y5500D02*
D03*
Y5697D02*
D03*
X6257Y5303D02*
D03*
Y5500D02*
D03*
Y5697D02*
D03*
D30*
X6941Y3783D02*
D03*
Y2209D02*
D03*
X9599Y3783D02*
D03*
Y2209D02*
D03*
X33491Y3774D02*
D03*
Y2199D02*
D03*
X36149Y3774D02*
D03*
Y2199D02*
D03*
X29091Y3774D02*
D03*
Y2199D02*
D03*
X31749Y3774D02*
D03*
Y2199D02*
D03*
X36149Y6669D02*
D03*
Y8244D02*
D03*
X33491Y6669D02*
D03*
Y8244D02*
D03*
X31749Y6669D02*
D03*
Y8244D02*
D03*
X29091Y6669D02*
D03*
Y8244D02*
D03*
D31*
X20566Y6388D02*
D03*
X20409D02*
D03*
X20251D02*
D03*
X20094D02*
D03*
Y7352D02*
D03*
X20251D02*
D03*
X20409D02*
D03*
X20566D02*
D03*
X18502Y7352D02*
D03*
X18660D02*
D03*
X18817D02*
D03*
X18975D02*
D03*
Y6388D02*
D03*
X18817D02*
D03*
X18660D02*
D03*
X18502D02*
D03*
X17049Y7352D02*
D03*
X17206D02*
D03*
X17364D02*
D03*
Y6388D02*
D03*
X17206D02*
D03*
X17049D02*
D03*
X16891D02*
D03*
Y7352D02*
D03*
X32833Y5645D02*
D03*
X32675D02*
D03*
X32518D02*
D03*
X32360D02*
D03*
Y4995D02*
D03*
X32518D02*
D03*
X32675D02*
D03*
X32833D02*
D03*
X36654Y19138D02*
D03*
X36811D02*
D03*
X36969D02*
D03*
X37126D02*
D03*
Y20102D02*
D03*
X36969D02*
D03*
X36811D02*
D03*
X36654D02*
D03*
X18662Y18670D02*
D03*
X18505D02*
D03*
X18347D02*
D03*
X18190D02*
D03*
Y17705D02*
D03*
X18347D02*
D03*
X18505D02*
D03*
X18662D02*
D03*
X21536Y18682D02*
D03*
X21378D02*
D03*
X21221D02*
D03*
X21063D02*
D03*
Y17718D02*
D03*
X21221D02*
D03*
X21378D02*
D03*
X21536D02*
D03*
D32*
X20005Y6634D02*
D03*
Y6791D02*
D03*
Y6949D02*
D03*
Y7106D02*
D03*
X20655D02*
D03*
Y6949D02*
D03*
Y6791D02*
D03*
Y6634D02*
D03*
X19063Y7106D02*
D03*
Y6949D02*
D03*
Y6791D02*
D03*
Y6634D02*
D03*
X18414D02*
D03*
Y6791D02*
D03*
Y6949D02*
D03*
Y7106D02*
D03*
X17452D02*
D03*
Y6949D02*
D03*
Y6791D02*
D03*
Y6634D02*
D03*
X16803D02*
D03*
Y6791D02*
D03*
Y6949D02*
D03*
Y7106D02*
D03*
X32114Y5556D02*
D03*
Y5399D02*
D03*
Y5241D02*
D03*
Y5084D02*
D03*
X33079D02*
D03*
Y5241D02*
D03*
Y5399D02*
D03*
Y5556D02*
D03*
X36565Y19856D02*
D03*
Y19699D02*
D03*
Y19541D02*
D03*
Y19384D02*
D03*
X37215D02*
D03*
Y19541D02*
D03*
Y19699D02*
D03*
Y19856D02*
D03*
X18751Y17952D02*
D03*
Y18109D02*
D03*
Y18266D02*
D03*
Y18424D02*
D03*
X18101D02*
D03*
Y18266D02*
D03*
Y18109D02*
D03*
Y17952D02*
D03*
X21624Y17964D02*
D03*
Y18121D02*
D03*
Y18279D02*
D03*
Y18436D02*
D03*
X20975D02*
D03*
Y18279D02*
D03*
Y18121D02*
D03*
Y17964D02*
D03*
D33*
X3164Y4047D02*
D03*
X1196D02*
D03*
X2180D02*
D03*
Y1291D02*
D03*
X1196D02*
D03*
X3164D02*
D03*
D34*
X13474Y11413D02*
D03*
X13250D02*
D03*
X13107Y12707D02*
D03*
X13250Y11940D02*
D03*
Y11150D02*
D03*
X9909Y10917D02*
D03*
X9898Y10130D02*
D03*
X13317Y10421D02*
D03*
X13541D02*
D03*
X9450Y8366D02*
D03*
X9225D02*
D03*
X13474Y11940D02*
D03*
X11907Y12746D02*
D03*
X12132D02*
D03*
X13331Y12707D02*
D03*
X13474Y11150D02*
D03*
X13250Y11676D02*
D03*
X13474D02*
D03*
X9674Y10130D02*
D03*
X9684Y10917D02*
D03*
X6542Y6890D02*
D03*
X6318D02*
D03*
X7382Y6470D02*
D03*
X7158D02*
D03*
X9392Y6770D02*
D03*
X9168D02*
D03*
X8889Y8071D02*
D03*
X9113D02*
D03*
X8889Y7771D02*
D03*
X9113D02*
D03*
D35*
X9832Y7816D02*
D03*
Y8366D02*
D03*
D36*
X10483Y7905D02*
D03*
Y7727D02*
D03*
D37*
X10208Y7816D02*
D03*
D38*
X15266Y9808D02*
D03*
X15955D02*
D03*
X16644D02*
D03*
Y8352D02*
D03*
X15955D02*
D03*
X15266D02*
D03*
D39*
X12005Y13977D02*
D03*
Y13752D02*
D03*
X11783Y13977D02*
D03*
Y13752D02*
D03*
X12254Y9424D02*
D03*
X9852Y11944D02*
D03*
X11257Y9395D02*
D03*
X10953Y9008D02*
D03*
Y9232D02*
D03*
X14514Y10661D02*
D03*
Y10886D02*
D03*
X13789Y10661D02*
D03*
Y10886D02*
D03*
X12450Y13752D02*
D03*
Y13977D02*
D03*
X12228Y13752D02*
D03*
Y13977D02*
D03*
X8961Y13332D02*
D03*
Y13108D02*
D03*
X12254Y9200D02*
D03*
X11257Y9171D02*
D03*
X9852Y11719D02*
D03*
X6030Y9342D02*
D03*
Y9118D02*
D03*
X8000Y5712D02*
D03*
Y5488D02*
D03*
X6800Y5712D02*
D03*
Y5488D02*
D03*
X7200Y7912D02*
D03*
Y7688D02*
D03*
X14030Y10661D02*
D03*
Y10886D02*
D03*
X14272Y10661D02*
D03*
Y10886D02*
D03*
X5620Y8468D02*
D03*
Y8692D02*
D03*
X1620Y5592D02*
D03*
Y5368D02*
D03*
D40*
X11818Y13028D02*
D03*
X34318Y13362D02*
D03*
X34711D02*
D03*
X20077Y5940D02*
D03*
X19683D02*
D03*
X30552Y13432D02*
D03*
X30158D02*
D03*
X34318Y13692D02*
D03*
X34711D02*
D03*
X29259Y11408D02*
D03*
X29653D02*
D03*
X3593Y9016D02*
D03*
X3987D02*
D03*
X10932Y13020D02*
D03*
X11326D02*
D03*
X27227Y9350D02*
D03*
X26833D02*
D03*
X27967D02*
D03*
X27573D02*
D03*
X36573Y20540D02*
D03*
X36967D02*
D03*
X17986Y17258D02*
D03*
X18380D02*
D03*
X20873Y17278D02*
D03*
X21267D02*
D03*
X20654Y14618D02*
D03*
X21048D02*
D03*
X22386Y14625D02*
D03*
X22780D02*
D03*
X12212Y13028D02*
D03*
X31532Y11072D02*
D03*
X31138D02*
D03*
X1215Y10236D02*
D03*
X822D02*
D03*
X4013Y11806D02*
D03*
X3619D02*
D03*
X12591Y13028D02*
D03*
X12985D02*
D03*
X11088Y13374D02*
D03*
X11482D02*
D03*
X21057Y15708D02*
D03*
X20663D02*
D03*
X23838Y15737D02*
D03*
X23444D02*
D03*
X19327Y7800D02*
D03*
X18933D02*
D03*
X17747D02*
D03*
X17353D02*
D03*
D41*
X11781Y12256D02*
D03*
X12805Y11862D02*
D03*
X12490Y12098D02*
D03*
X12805Y9972D02*
D03*
Y11232D02*
D03*
X12254Y9736D02*
D03*
X11624D02*
D03*
X10915Y12098D02*
D03*
X10285Y11390D02*
D03*
Y10130D02*
D03*
Y10917D02*
D03*
Y10445D02*
D03*
Y11862D02*
D03*
Y12020D02*
D03*
X11151Y9736D02*
D03*
X10521D02*
D03*
X10836D02*
D03*
X12805Y10130D02*
D03*
Y10287D02*
D03*
X12332Y12098D02*
D03*
X12175D02*
D03*
X10679Y12256D02*
D03*
X11309D02*
D03*
X11466D02*
D03*
X11624D02*
D03*
X11939D02*
D03*
X12096D02*
D03*
X12254D02*
D03*
X10443Y12098D02*
D03*
X10600D02*
D03*
X10758D02*
D03*
X11073D02*
D03*
X11230D02*
D03*
X11387D02*
D03*
X11545D02*
D03*
X11702D02*
D03*
X11860D02*
D03*
X12017D02*
D03*
X12805Y12020D02*
D03*
X10443Y11941D02*
D03*
Y11783D02*
D03*
X10285Y11705D02*
D03*
X12805D02*
D03*
X10443Y11626D02*
D03*
X10285Y11547D02*
D03*
X12805D02*
D03*
X10443Y11468D02*
D03*
X12805Y11390D02*
D03*
X10443Y11311D02*
D03*
X10285Y11232D02*
D03*
X10443Y11153D02*
D03*
X10285Y11075D02*
D03*
X12805D02*
D03*
X10443Y10996D02*
D03*
X12805Y10917D02*
D03*
X10443Y10839D02*
D03*
X10285Y10760D02*
D03*
X12805D02*
D03*
X10443Y10681D02*
D03*
X10285Y10602D02*
D03*
X12805D02*
D03*
X10443Y10524D02*
D03*
X12805Y10445D02*
D03*
X10443Y10366D02*
D03*
X10285Y10287D02*
D03*
X10443Y10209D02*
D03*
Y10051D02*
D03*
Y9894D02*
D03*
X10600D02*
D03*
X10758D02*
D03*
X10915D02*
D03*
X11073D02*
D03*
X11230D02*
D03*
X11387D02*
D03*
X11545D02*
D03*
X11702D02*
D03*
X11860D02*
D03*
X12017D02*
D03*
X12175D02*
D03*
X12332D02*
D03*
X12490D02*
D03*
X10679Y9736D02*
D03*
X10994D02*
D03*
X11309D02*
D03*
X11466D02*
D03*
X11781D02*
D03*
X11939D02*
D03*
X12096D02*
D03*
X10285Y9972D02*
D03*
X12647Y12098D02*
D03*
Y9894D02*
D03*
X12411Y9736D02*
D03*
X12569D02*
D03*
X12411Y12256D02*
D03*
D42*
X10515Y13123D02*
D03*
X35200Y12483D02*
D03*
Y12089D02*
D03*
X10515Y13517D02*
D03*
X30016Y12452D02*
D03*
Y12845D02*
D03*
X37189Y12605D02*
D03*
Y12998D02*
D03*
X34395Y14295D02*
D03*
Y14689D02*
D03*
X34045Y14295D02*
D03*
Y14689D02*
D03*
X33485Y14295D02*
D03*
Y14689D02*
D03*
X33105Y14295D02*
D03*
Y14689D02*
D03*
X35795Y14689D02*
D03*
Y14295D02*
D03*
X34105Y12878D02*
D03*
Y12485D02*
D03*
X33527Y5687D02*
D03*
Y5293D02*
D03*
D43*
X10839Y5945D02*
D03*
X6520Y17619D02*
D03*
Y18013D02*
D03*
X11179Y5945D02*
D03*
Y5552D02*
D03*
X32250Y18253D02*
D03*
Y18647D02*
D03*
X34740Y18253D02*
D03*
Y18647D02*
D03*
X32250Y16753D02*
D03*
Y17147D02*
D03*
X34760Y16753D02*
D03*
Y17147D02*
D03*
X10839Y5552D02*
D03*
X10341Y6223D02*
D03*
Y5829D02*
D03*
D44*
X21710Y16938D02*
D03*
X21316D02*
D03*
X27965Y10016D02*
D03*
X27572D02*
D03*
X26832D02*
D03*
X27225D02*
D03*
X26832Y9686D02*
D03*
X27225D02*
D03*
X27965D02*
D03*
X27572D02*
D03*
X20467Y9980D02*
D03*
X20073D02*
D03*
X1215Y10586D02*
D03*
X822D02*
D03*
X18887Y9980D02*
D03*
X18493D02*
D03*
X20163Y18058D02*
D03*
X19769D02*
D03*
X20163Y18408D02*
D03*
X19769D02*
D03*
X20163Y18758D02*
D03*
X19769D02*
D03*
X22646Y17386D02*
D03*
X22253D02*
D03*
X22646Y17806D02*
D03*
X22253D02*
D03*
X22646Y18226D02*
D03*
X22253D02*
D03*
X22646Y18646D02*
D03*
X22253D02*
D03*
X22646Y19066D02*
D03*
X22253D02*
D03*
X22104Y16938D02*
D03*
X21710D02*
D03*
X24987Y14990D02*
D03*
X24593D02*
D03*
X21057Y16048D02*
D03*
X20663D02*
D03*
X21048Y14958D02*
D03*
X20654D02*
D03*
X22780Y14965D02*
D03*
X22386D02*
D03*
X23838Y16077D02*
D03*
X23444D02*
D03*
X12497Y5993D02*
D03*
X12103D02*
D03*
X18887Y8830D02*
D03*
X18493D02*
D03*
X15167Y5993D02*
D03*
X14773D02*
D03*
X20507Y11180D02*
D03*
X20113D02*
D03*
X18887D02*
D03*
X18493D02*
D03*
X13830Y5993D02*
D03*
X13437D02*
D03*
D45*
X12805Y12256D02*
D03*
Y9736D02*
D03*
X10285D02*
D03*
Y12256D02*
D03*
D46*
X13429Y9860D02*
D03*
D47*
X13517Y10136D02*
D03*
X13340D02*
D03*
D48*
X9809Y13104D02*
D03*
Y13636D02*
D03*
X9349Y13104D02*
D03*
Y13636D02*
D03*
X3470Y10612D02*
D03*
Y10080D02*
D03*
X31565Y14869D02*
D03*
Y14338D02*
D03*
D49*
X13937Y12743D02*
D03*
X14390D02*
D03*
Y12172D02*
D03*
X13937D02*
D03*
D50*
X30089Y13832D02*
D03*
X30620D02*
D03*
X3956Y9436D02*
D03*
X3424D02*
D03*
X3660Y11406D02*
D03*
X4192D02*
D03*
D51*
X1730Y13756D02*
D03*
Y11236D02*
D03*
D52*
X765Y12024D02*
D03*
Y12968D02*
D03*
D53*
X1818Y11984D02*
D03*
Y12240D02*
D03*
Y13008D02*
D03*
Y12752D02*
D03*
Y12496D02*
D03*
D54*
X34842Y12482D02*
D03*
X34468D02*
D03*
D55*
X31775Y18440D02*
D03*
X31225D02*
D03*
X34275D02*
D03*
X33725D02*
D03*
X31775Y16940D02*
D03*
X31225D02*
D03*
X33725D02*
D03*
X34275D02*
D03*
D56*
X13000Y2419D02*
D03*
X17000D02*
D03*
X13000Y3573D02*
D03*
X17000D02*
D03*
X12000Y2419D02*
D03*
X11000D02*
D03*
X16000D02*
D03*
X15000D02*
D03*
X18000D02*
D03*
X12000Y3573D02*
D03*
X11000D02*
D03*
X16000Y3573D02*
D03*
X15000Y3573D02*
D03*
X18000D02*
D03*
X14000Y2419D02*
D03*
Y3573D02*
D03*
X22000Y2419D02*
D03*
Y3573D02*
D03*
X20000Y2419D02*
D03*
X21000D02*
D03*
X24000D02*
D03*
X25000D02*
D03*
X20000Y3573D02*
D03*
X21000D02*
D03*
X24000D02*
D03*
X25000D02*
D03*
X23000Y2419D02*
D03*
X23000Y3573D02*
D03*
X13400Y18573D02*
D03*
Y17419D02*
D03*
X14400Y18573D02*
D03*
Y17419D02*
D03*
X8400Y18573D02*
D03*
Y17419D02*
D03*
X9400D02*
D03*
Y18573D02*
D03*
X10400Y17419D02*
D03*
Y18573D02*
D03*
X12400Y17419D02*
D03*
Y18573D02*
D03*
X11400Y17419D02*
D03*
Y18573D02*
D03*
X7400D02*
D03*
Y17419D02*
D03*
X23000Y22573D02*
D03*
X19000D02*
D03*
X23000Y21419D02*
D03*
X19000D02*
D03*
X24000Y22573D02*
D03*
X25000D02*
D03*
X20000D02*
D03*
X21000D02*
D03*
X18000D02*
D03*
X24000Y21419D02*
D03*
X25000D02*
D03*
X20000Y21419D02*
D03*
X21000Y21419D02*
D03*
X18000D02*
D03*
X22000Y22573D02*
D03*
Y21419D02*
D03*
X14400Y22573D02*
D03*
X10400D02*
D03*
X14400Y21419D02*
D03*
X10400Y21419D02*
D03*
X16400Y22573D02*
D03*
X15400D02*
D03*
X12400D02*
D03*
X11400D02*
D03*
X9400D02*
D03*
X8400D02*
D03*
X16400Y21419D02*
D03*
X15400D02*
D03*
X12400D02*
D03*
X11400D02*
D03*
X9400D02*
D03*
X8400Y21419D02*
D03*
X13400Y22573D02*
D03*
X7400D02*
D03*
X13400Y21419D02*
D03*
X7400D02*
D03*
X27000Y21419D02*
D03*
Y22573D02*
D03*
X33000D02*
D03*
X29000D02*
D03*
X33000Y21419D02*
D03*
X29000D02*
D03*
X34000Y22573D02*
D03*
X35000D02*
D03*
X30000D02*
D03*
X31000D02*
D03*
X28000D02*
D03*
X34000Y21419D02*
D03*
X35000D02*
D03*
X30000Y21419D02*
D03*
X31000Y21419D02*
D03*
X28000D02*
D03*
X32000Y22573D02*
D03*
Y21419D02*
D03*
D57*
X29456Y11826D02*
D03*
Y12811D02*
D03*
D58*
X31546Y15560D02*
D03*
X31204Y15967D02*
D03*
D59*
X31225Y15280D02*
D03*
X30985Y15567D02*
D03*
D60*
X7635Y8146D02*
D03*
X7965D02*
D03*
X7635Y7246D02*
D03*
X7965D02*
D03*
D61*
X3600Y12222D02*
D03*
X2852D02*
D03*
Y13030D02*
D03*
D62*
X3521D02*
D03*
D63*
X20587Y16418D02*
D03*
X21138D02*
D03*
X20587Y15328D02*
D03*
X21139D02*
D03*
X22307D02*
D03*
X22859D02*
D03*
X23357Y16450D02*
D03*
X23909D02*
D03*
D64*
X37973Y23596D02*
D03*
X5630Y730D02*
D03*
D65*
X36875Y12482D02*
D03*
X35962D02*
D03*
D66*
X36793Y12078D02*
D03*
Y12885D02*
D03*
X36045D02*
D03*
Y12078D02*
D03*
D67*
X24675Y13996D02*
D03*
X26425D02*
D03*
X24675Y12996D02*
D03*
X26425D02*
D03*
X24675Y11996D02*
D03*
X26425D02*
D03*
D68*
X23120Y8965D02*
D03*
X23620D02*
D03*
X24120D02*
D03*
X24620D02*
D03*
X25120D02*
D03*
X23120Y7430D02*
D03*
X23620D02*
D03*
X24120D02*
D03*
X24620D02*
D03*
X25120D02*
D03*
D69*
X2298Y22506D02*
D03*
Y22006D02*
D03*
Y21506D02*
D03*
Y21006D02*
D03*
Y20506D02*
D03*
X762Y22506D02*
D03*
Y22006D02*
D03*
Y21506D02*
D03*
Y21006D02*
D03*
Y20506D02*
D03*
D70*
X4650Y6496D02*
D03*
Y7496D02*
D03*
Y17496D02*
D03*
Y18496D02*
D03*
D71*
X32455Y12682D02*
D03*
D72*
X31589Y13873D02*
D03*
X31746D02*
D03*
X31903D02*
D03*
X32061D02*
D03*
X32218D02*
D03*
X32376D02*
D03*
X32533D02*
D03*
X32691D02*
D03*
X32848D02*
D03*
X33006D02*
D03*
X33163D02*
D03*
X33321D02*
D03*
Y11491D02*
D03*
X33163D02*
D03*
X33006D02*
D03*
X32848D02*
D03*
X32691D02*
D03*
X32533D02*
D03*
X32376D02*
D03*
X32218D02*
D03*
X32061D02*
D03*
X31903D02*
D03*
X31746D02*
D03*
X31589D02*
D03*
D73*
X33646Y13548D02*
D03*
Y13390D02*
D03*
Y13233D02*
D03*
Y13075D02*
D03*
Y12918D02*
D03*
Y12760D02*
D03*
Y12603D02*
D03*
Y12445D02*
D03*
Y12288D02*
D03*
Y12130D02*
D03*
Y11973D02*
D03*
Y11815D02*
D03*
X31264D02*
D03*
Y11973D02*
D03*
Y12130D02*
D03*
Y12288D02*
D03*
Y12445D02*
D03*
Y12603D02*
D03*
Y12760D02*
D03*
Y12918D02*
D03*
Y13075D02*
D03*
Y13233D02*
D03*
Y13390D02*
D03*
Y13548D02*
D03*
D74*
X4827Y10252D02*
D03*
X4000Y9878D02*
D03*
Y10626D02*
D03*
D75*
X35380Y14265D02*
D03*
Y14718D02*
D03*
X34809D02*
D03*
Y14265D02*
D03*
D76*
X27872Y1914D02*
D03*
X26376D02*
D03*
D77*
X27321Y2820D02*
D03*
X27124D02*
D03*
X26927D02*
D03*
X26730D02*
D03*
X27517D02*
D03*
D78*
X2567Y5090D02*
D03*
X2193D02*
D03*
X6223Y8190D02*
D03*
X6597D02*
D03*
X9257Y6020D02*
D03*
X8883D02*
D03*
D79*
X2124Y5462D02*
D03*
X2380D02*
D03*
X2636D02*
D03*
Y4718D02*
D03*
X2380D02*
D03*
X2124D02*
D03*
X6666Y7818D02*
D03*
X6410D02*
D03*
X6154D02*
D03*
Y8562D02*
D03*
X6410D02*
D03*
X6666D02*
D03*
X8814Y6392D02*
D03*
X9070D02*
D03*
X9326D02*
D03*
Y5648D02*
D03*
X9070D02*
D03*
X8814D02*
D03*
D80*
X4611Y5499D02*
D03*
X4769D02*
D03*
X4611Y5341D02*
D03*
X4769D02*
D03*
M02*
