G04*
G04 #@! TF.GenerationSoftware,Altium Limited,Altium Designer,21.4.1 (30)*
G04*
G04 Layer_Color=127485*
%FSLAX24Y24*%
%MOIN*%
G70*
G04*
G04 #@! TF.SameCoordinates,516B4A6D-3ECB-46AA-BE42-5657E3C56184*
G04*
G04*
G04 #@! TF.FilePolarity,Positive*
G04*
G01*
G75*
%ADD170C,0.0118*%
G36*
X13224Y12939D02*
X13129D01*
Y13031D01*
X13224D01*
Y12939D01*
D02*
G37*
G36*
X10468Y13045D02*
X10474D01*
X10478Y13044D01*
X10482Y13044D01*
X10486Y13044D01*
X10496Y13042D01*
X10507Y13041D01*
X10519Y13039D01*
X10531Y13036D01*
X10545Y13032D01*
X10559Y13028D01*
X10574Y13023D01*
X10588Y13017D01*
X10603Y13010D01*
X10617Y13002D01*
X10631Y12993D01*
X10581Y12917D01*
X10580Y12917D01*
X10579Y12919D01*
X10576Y12921D01*
X10571Y12923D01*
X10566Y12926D01*
X10560Y12929D01*
X10553Y12933D01*
X10545Y12937D01*
X10536Y12940D01*
X10527Y12944D01*
X10517Y12947D01*
X10507Y12950D01*
X10496Y12953D01*
X10485Y12954D01*
X10473Y12956D01*
X10461Y12956D01*
X10457D01*
X10453Y12956D01*
X10449Y12956D01*
X10445Y12955D01*
X10439Y12955D01*
X10433Y12954D01*
X10427Y12953D01*
X10421Y12952D01*
X10407Y12948D01*
X10400Y12946D01*
X10393Y12943D01*
X10385Y12940D01*
X10378Y12937D01*
X10378Y12936D01*
X10377Y12936D01*
X10375Y12934D01*
X10373Y12933D01*
X10369Y12931D01*
X10366Y12929D01*
X10362Y12926D01*
X10358Y12922D01*
X10353Y12918D01*
X10349Y12914D01*
X10344Y12910D01*
X10339Y12905D01*
X10334Y12899D01*
X10330Y12894D01*
X10325Y12887D01*
X10321Y12881D01*
X10321Y12881D01*
X10321Y12879D01*
X10319Y12877D01*
X10318Y12875D01*
X10317Y12871D01*
X10315Y12867D01*
X10313Y12862D01*
X10311Y12857D01*
X10309Y12851D01*
X10307Y12845D01*
X10305Y12838D01*
X10304Y12831D01*
X10302Y12823D01*
X10301Y12815D01*
X10301Y12806D01*
X10301Y12798D01*
Y12797D01*
Y12795D01*
Y12793D01*
X10301Y12790D01*
X10301Y12786D01*
X10302Y12781D01*
X10302Y12775D01*
X10303Y12770D01*
X10304Y12763D01*
X10306Y12756D01*
X10307Y12750D01*
X10309Y12743D01*
X10312Y12735D01*
X10314Y12728D01*
X10318Y12721D01*
X10321Y12714D01*
X10322Y12714D01*
X10322Y12713D01*
X10323Y12711D01*
X10325Y12708D01*
X10327Y12705D01*
X10330Y12702D01*
X10333Y12698D01*
X10336Y12694D01*
X10340Y12689D01*
X10344Y12685D01*
X10349Y12680D01*
X10354Y12676D01*
X10359Y12671D01*
X10366Y12667D01*
X10372Y12663D01*
X10378Y12659D01*
X10379Y12658D01*
X10380Y12658D01*
X10382Y12657D01*
X10385Y12656D01*
X10388Y12654D01*
X10393Y12652D01*
X10397Y12651D01*
X10402Y12649D01*
X10408Y12647D01*
X10415Y12645D01*
X10422Y12644D01*
X10429Y12642D01*
X10436Y12641D01*
X10444Y12640D01*
X10453Y12639D01*
X10461Y12639D01*
X10464D01*
X10467Y12639D01*
X10472Y12640D01*
X10478Y12640D01*
X10484Y12641D01*
X10492Y12642D01*
X10500Y12644D01*
X10509Y12646D01*
X10519Y12648D01*
X10528Y12652D01*
X10539Y12656D01*
X10549Y12660D01*
X10560Y12665D01*
X10571Y12671D01*
X10581Y12678D01*
X10631Y12602D01*
X10631D01*
X10631Y12602D01*
X10630Y12601D01*
X10628Y12600D01*
X10626Y12599D01*
X10624Y12598D01*
X10621Y12596D01*
X10618Y12594D01*
X10611Y12590D01*
X10603Y12586D01*
X10593Y12581D01*
X10582Y12577D01*
X10570Y12572D01*
X10557Y12567D01*
X10543Y12563D01*
X10528Y12559D01*
X10513Y12556D01*
X10496Y12553D01*
X10479Y12551D01*
X10462Y12551D01*
X10457D01*
X10454Y12551D01*
X10449D01*
X10443Y12552D01*
X10435Y12552D01*
X10427Y12553D01*
X10417Y12555D01*
X10407Y12556D01*
X10397Y12558D01*
X10386Y12561D01*
X10374Y12564D01*
X10363Y12567D01*
X10351Y12571D01*
X10340Y12576D01*
X10329Y12581D01*
X10328Y12582D01*
X10326Y12583D01*
X10323Y12585D01*
X10319Y12587D01*
X10314Y12590D01*
X10309Y12594D01*
X10303Y12598D01*
X10296Y12604D01*
X10289Y12609D01*
X10281Y12616D01*
X10274Y12623D01*
X10266Y12630D01*
X10259Y12639D01*
X10251Y12648D01*
X10244Y12657D01*
X10238Y12668D01*
X10238Y12668D01*
X10237Y12670D01*
X10235Y12673D01*
X10233Y12677D01*
X10231Y12683D01*
X10228Y12689D01*
X10225Y12697D01*
X10222Y12705D01*
X10219Y12714D01*
X10216Y12724D01*
X10214Y12735D01*
X10211Y12746D01*
X10209Y12758D01*
X10207Y12771D01*
X10206Y12784D01*
X10206Y12798D01*
Y12798D01*
Y12798D01*
Y12799D01*
Y12801D01*
Y12803D01*
X10206Y12805D01*
Y12810D01*
X10207Y12816D01*
X10208Y12824D01*
X10208Y12832D01*
X10210Y12842D01*
X10212Y12851D01*
X10214Y12862D01*
X10216Y12873D01*
X10220Y12883D01*
X10223Y12894D01*
X10228Y12906D01*
X10232Y12917D01*
X10238Y12927D01*
X10239Y12928D01*
X10240Y12930D01*
X10242Y12933D01*
X10244Y12936D01*
X10248Y12941D01*
X10252Y12946D01*
X10256Y12953D01*
X10262Y12959D01*
X10268Y12966D01*
X10275Y12973D01*
X10282Y12980D01*
X10290Y12988D01*
X10299Y12994D01*
X10308Y13001D01*
X10318Y13008D01*
X10329Y13014D01*
X10330Y13015D01*
X10331Y13016D01*
X10335Y13017D01*
X10339Y13019D01*
X10345Y13021D01*
X10351Y13024D01*
X10359Y13027D01*
X10368Y13030D01*
X10377Y13032D01*
X10387Y13035D01*
X10398Y13038D01*
X10410Y13040D01*
X10422Y13042D01*
X10435Y13044D01*
X10448Y13045D01*
X10462Y13045D01*
X10466D01*
X10468Y13045D01*
D02*
G37*
G36*
X12526Y12561D02*
X12444D01*
Y12605D01*
X12442D01*
Y12604D01*
X12442Y12604D01*
X12441Y12602D01*
X12439Y12600D01*
X12438Y12598D01*
X12436Y12596D01*
X12431Y12590D01*
X12425Y12584D01*
X12418Y12577D01*
X12410Y12570D01*
X12400Y12565D01*
X12400D01*
X12399Y12564D01*
X12398Y12564D01*
X12396Y12562D01*
X12393Y12561D01*
X12390Y12560D01*
X12387Y12559D01*
X12383Y12558D01*
X12379Y12556D01*
X12374Y12555D01*
X12369Y12554D01*
X12363Y12553D01*
X12351Y12551D01*
X12338Y12551D01*
X12334D01*
X12331Y12551D01*
X12327Y12551D01*
X12323Y12552D01*
X12318Y12552D01*
X12313Y12553D01*
X12307Y12554D01*
X12301Y12556D01*
X12289Y12559D01*
X12282Y12561D01*
X12275Y12564D01*
X12269Y12567D01*
X12262Y12570D01*
X12262Y12570D01*
X12261Y12571D01*
X12259Y12572D01*
X12256Y12574D01*
X12253Y12576D01*
X12250Y12578D01*
X12246Y12581D01*
X12242Y12585D01*
X12238Y12588D01*
X12234Y12593D01*
X12229Y12597D01*
X12225Y12602D01*
X12220Y12608D01*
X12216Y12614D01*
X12212Y12620D01*
X12208Y12627D01*
X12207Y12628D01*
X12207Y12629D01*
X12206Y12631D01*
X12204Y12634D01*
X12203Y12637D01*
X12201Y12642D01*
X12200Y12647D01*
X12198Y12653D01*
X12196Y12659D01*
X12194Y12666D01*
X12192Y12673D01*
X12191Y12681D01*
X12189Y12689D01*
X12188Y12698D01*
X12188Y12708D01*
X12188Y12717D01*
Y12718D01*
Y12719D01*
Y12722D01*
X12188Y12726D01*
X12188Y12730D01*
X12189Y12736D01*
X12189Y12742D01*
X12190Y12748D01*
X12191Y12755D01*
X12192Y12762D01*
X12196Y12777D01*
X12198Y12784D01*
X12201Y12792D01*
X12204Y12799D01*
X12208Y12807D01*
X12208Y12807D01*
X12209Y12808D01*
X12210Y12810D01*
X12211Y12813D01*
X12213Y12816D01*
X12216Y12820D01*
X12218Y12824D01*
X12222Y12828D01*
X12226Y12832D01*
X12230Y12837D01*
X12234Y12842D01*
X12239Y12847D01*
X12244Y12851D01*
X12250Y12856D01*
X12256Y12860D01*
X12262Y12864D01*
X12262Y12865D01*
X12264Y12865D01*
X12266Y12866D01*
X12268Y12867D01*
X12272Y12869D01*
X12275Y12870D01*
X12280Y12872D01*
X12285Y12874D01*
X12290Y12876D01*
X12296Y12878D01*
X12302Y12879D01*
X12309Y12881D01*
X12323Y12883D01*
X12330Y12883D01*
X12338Y12884D01*
X12341D01*
X12344Y12883D01*
X12347D01*
X12351Y12883D01*
X12355Y12883D01*
X12359Y12882D01*
X12369Y12880D01*
X12380Y12878D01*
X12390Y12874D01*
X12400Y12869D01*
X12401D01*
X12402Y12869D01*
X12403Y12868D01*
X12405Y12867D01*
X12407Y12865D01*
X12410Y12863D01*
X12415Y12859D01*
X12422Y12853D01*
X12429Y12847D01*
X12436Y12839D01*
X12442Y12830D01*
X12444D01*
Y13035D01*
X12526D01*
Y12561D01*
D02*
G37*
G36*
X11660Y12883D02*
X11664Y12883D01*
X11668Y12883D01*
X11673Y12882D01*
X11678Y12881D01*
X11684Y12880D01*
X11690Y12879D01*
X11703Y12875D01*
X11710Y12873D01*
X11716Y12871D01*
X11723Y12868D01*
X11729Y12864D01*
X11730Y12864D01*
X11731Y12863D01*
X11733Y12862D01*
X11735Y12861D01*
X11738Y12858D01*
X11741Y12856D01*
X11745Y12853D01*
X11749Y12850D01*
X11753Y12846D01*
X11758Y12842D01*
X11762Y12837D01*
X11767Y12832D01*
X11771Y12826D01*
X11776Y12820D01*
X11780Y12814D01*
X11784Y12807D01*
X11784Y12806D01*
X11785Y12805D01*
X11786Y12803D01*
X11787Y12800D01*
X11789Y12796D01*
X11790Y12792D01*
X11792Y12787D01*
X11794Y12782D01*
X11796Y12775D01*
X11798Y12768D01*
X11799Y12761D01*
X11801Y12753D01*
X11802Y12745D01*
X11803Y12736D01*
X11803Y12727D01*
X11804Y12717D01*
Y12716D01*
Y12715D01*
Y12712D01*
X11803Y12708D01*
X11803Y12704D01*
X11803Y12699D01*
X11802Y12693D01*
X11801Y12686D01*
X11800Y12679D01*
X11799Y12672D01*
X11795Y12657D01*
X11793Y12649D01*
X11790Y12642D01*
X11787Y12634D01*
X11784Y12627D01*
X11783Y12627D01*
X11783Y12626D01*
X11782Y12624D01*
X11780Y12621D01*
X11778Y12618D01*
X11776Y12614D01*
X11773Y12610D01*
X11770Y12606D01*
X11766Y12601D01*
X11762Y12597D01*
X11757Y12592D01*
X11753Y12587D01*
X11747Y12583D01*
X11742Y12578D01*
X11735Y12574D01*
X11729Y12570D01*
X11729Y12570D01*
X11728Y12569D01*
X11726Y12568D01*
X11723Y12567D01*
X11720Y12566D01*
X11716Y12564D01*
X11712Y12562D01*
X11707Y12561D01*
X11702Y12559D01*
X11696Y12557D01*
X11689Y12555D01*
X11683Y12554D01*
X11668Y12551D01*
X11661Y12551D01*
X11654Y12551D01*
X11650D01*
X11647Y12551D01*
X11644D01*
X11640Y12551D01*
X11636Y12552D01*
X11632Y12553D01*
X11622Y12554D01*
X11611Y12557D01*
X11601Y12560D01*
X11591Y12565D01*
X11590D01*
X11589Y12565D01*
X11588Y12566D01*
X11586Y12567D01*
X11584Y12569D01*
X11581Y12570D01*
X11576Y12575D01*
X11569Y12581D01*
X11562Y12588D01*
X11555Y12596D01*
X11549Y12605D01*
X11548D01*
Y12425D01*
X11465D01*
Y12874D01*
X11548D01*
Y12830D01*
X11549D01*
X11549Y12830D01*
X11550Y12831D01*
X11551Y12832D01*
X11552Y12834D01*
X11553Y12836D01*
X11555Y12838D01*
X11560Y12844D01*
X11566Y12850D01*
X11573Y12857D01*
X11581Y12863D01*
X11591Y12869D01*
X11591D01*
X11592Y12870D01*
X11593Y12871D01*
X11595Y12871D01*
X11598Y12873D01*
X11601Y12874D01*
X11604Y12875D01*
X11608Y12877D01*
X11613Y12878D01*
X11617Y12879D01*
X11623Y12881D01*
X11628Y12882D01*
X11640Y12883D01*
X11654Y12884D01*
X11658D01*
X11660Y12883D01*
D02*
G37*
G36*
X11267D02*
X11271Y12883D01*
X11275Y12883D01*
X11280Y12882D01*
X11285Y12881D01*
X11291Y12880D01*
X11297Y12879D01*
X11310Y12875D01*
X11316Y12873D01*
X11323Y12871D01*
X11330Y12868D01*
X11336Y12864D01*
X11336Y12864D01*
X11338Y12863D01*
X11339Y12862D01*
X11342Y12861D01*
X11345Y12858D01*
X11348Y12856D01*
X11352Y12853D01*
X11356Y12850D01*
X11360Y12846D01*
X11365Y12842D01*
X11369Y12837D01*
X11374Y12832D01*
X11378Y12826D01*
X11383Y12820D01*
X11387Y12814D01*
X11391Y12807D01*
X11391Y12806D01*
X11391Y12805D01*
X11393Y12803D01*
X11394Y12800D01*
X11395Y12796D01*
X11397Y12792D01*
X11399Y12787D01*
X11401Y12782D01*
X11403Y12775D01*
X11405Y12768D01*
X11406Y12761D01*
X11407Y12753D01*
X11409Y12745D01*
X11410Y12736D01*
X11410Y12727D01*
X11411Y12717D01*
Y12716D01*
Y12715D01*
Y12712D01*
X11410Y12708D01*
X11410Y12704D01*
X11410Y12699D01*
X11409Y12693D01*
X11408Y12686D01*
X11407Y12679D01*
X11406Y12672D01*
X11402Y12657D01*
X11400Y12649D01*
X11397Y12642D01*
X11394Y12634D01*
X11391Y12627D01*
X11390Y12627D01*
X11390Y12626D01*
X11389Y12624D01*
X11387Y12621D01*
X11385Y12618D01*
X11383Y12614D01*
X11380Y12610D01*
X11377Y12606D01*
X11373Y12601D01*
X11369Y12597D01*
X11364Y12592D01*
X11359Y12587D01*
X11354Y12583D01*
X11348Y12578D01*
X11342Y12574D01*
X11336Y12570D01*
X11336Y12570D01*
X11335Y12569D01*
X11333Y12568D01*
X11330Y12567D01*
X11327Y12566D01*
X11323Y12564D01*
X11319Y12562D01*
X11314Y12561D01*
X11308Y12559D01*
X11303Y12557D01*
X11296Y12555D01*
X11290Y12554D01*
X11275Y12551D01*
X11268Y12551D01*
X11260Y12551D01*
X11257D01*
X11254Y12551D01*
X11251D01*
X11247Y12551D01*
X11243Y12552D01*
X11239Y12553D01*
X11229Y12554D01*
X11218Y12557D01*
X11208Y12560D01*
X11197Y12565D01*
X11197D01*
X11196Y12565D01*
X11195Y12566D01*
X11193Y12567D01*
X11191Y12569D01*
X11188Y12570D01*
X11183Y12575D01*
X11176Y12581D01*
X11169Y12588D01*
X11162Y12596D01*
X11156Y12605D01*
X11154D01*
Y12425D01*
X11072D01*
Y12874D01*
X11154D01*
Y12830D01*
X11156D01*
X11156Y12830D01*
X11157Y12831D01*
X11157Y12832D01*
X11159Y12834D01*
X11160Y12836D01*
X11162Y12838D01*
X11167Y12844D01*
X11173Y12850D01*
X11180Y12857D01*
X11188Y12863D01*
X11197Y12869D01*
X11198D01*
X11199Y12870D01*
X11200Y12871D01*
X11202Y12871D01*
X11205Y12873D01*
X11208Y12874D01*
X11211Y12875D01*
X11215Y12877D01*
X11220Y12878D01*
X11224Y12879D01*
X11229Y12881D01*
X11235Y12882D01*
X11247Y12883D01*
X11260Y12884D01*
X11264D01*
X11267Y12883D01*
D02*
G37*
G36*
X13811Y12883D02*
X13816Y12883D01*
X13822Y12883D01*
X13828Y12882D01*
X13836Y12881D01*
X13844Y12880D01*
X13852Y12878D01*
X13862Y12877D01*
X13871Y12875D01*
X13881Y12872D01*
X13892Y12869D01*
X13902Y12866D01*
X13913Y12862D01*
X13885Y12792D01*
X13884Y12792D01*
X13883Y12793D01*
X13880Y12794D01*
X13877Y12795D01*
X13872Y12797D01*
X13867Y12799D01*
X13862Y12801D01*
X13855Y12803D01*
X13848Y12805D01*
X13842Y12807D01*
X13827Y12811D01*
X13819Y12812D01*
X13812Y12813D01*
X13804Y12814D01*
X13797Y12814D01*
X13794D01*
X13791Y12814D01*
X13788Y12813D01*
X13779Y12812D01*
X13776Y12811D01*
X13772Y12809D01*
X13772Y12809D01*
X13771Y12808D01*
X13770Y12807D01*
X13769Y12806D01*
X13768Y12804D01*
X13767Y12801D01*
X13766Y12798D01*
X13765Y12795D01*
Y12795D01*
Y12794D01*
X13766Y12792D01*
X13766Y12790D01*
X13767Y12787D01*
X13768Y12785D01*
X13769Y12783D01*
X13772Y12780D01*
X13772Y12780D01*
X13773Y12779D01*
X13775Y12778D01*
X13777Y12776D01*
X13780Y12774D01*
X13784Y12772D01*
X13789Y12769D01*
X13795Y12767D01*
X13851Y12742D01*
X13852D01*
X13853Y12742D01*
X13855Y12741D01*
X13857Y12740D01*
X13860Y12738D01*
X13863Y12736D01*
X13871Y12732D01*
X13879Y12727D01*
X13888Y12721D01*
X13896Y12714D01*
X13900Y12710D01*
X13903Y12706D01*
X13903Y12705D01*
X13904Y12705D01*
X13904Y12704D01*
X13906Y12702D01*
X13907Y12700D01*
X13908Y12697D01*
X13910Y12694D01*
X13912Y12691D01*
X13914Y12687D01*
X13915Y12683D01*
X13917Y12678D01*
X13918Y12673D01*
X13920Y12663D01*
X13920Y12657D01*
X13921Y12651D01*
Y12650D01*
Y12648D01*
X13920Y12646D01*
Y12642D01*
X13919Y12638D01*
X13919Y12633D01*
X13918Y12628D01*
X13916Y12622D01*
X13914Y12616D01*
X13912Y12610D01*
X13909Y12604D01*
X13906Y12598D01*
X13902Y12592D01*
X13897Y12586D01*
X13892Y12581D01*
X13886Y12576D01*
X13886Y12575D01*
X13884Y12574D01*
X13882Y12573D01*
X13880Y12572D01*
X13876Y12570D01*
X13872Y12568D01*
X13867Y12565D01*
X13861Y12563D01*
X13855Y12561D01*
X13848Y12559D01*
X13840Y12557D01*
X13831Y12555D01*
X13822Y12553D01*
X13812Y12552D01*
X13802Y12551D01*
X13791Y12551D01*
X13785D01*
X13782Y12551D01*
X13778D01*
X13774Y12551D01*
X13769Y12552D01*
X13765Y12552D01*
X13759Y12553D01*
X13748Y12554D01*
X13735Y12556D01*
X13722Y12559D01*
X13721D01*
X13720Y12559D01*
X13718Y12559D01*
X13716Y12560D01*
X13713Y12561D01*
X13709Y12562D01*
X13705Y12564D01*
X13701Y12565D01*
X13690Y12568D01*
X13680Y12573D01*
X13668Y12578D01*
X13657Y12584D01*
X13691Y12654D01*
X13692Y12653D01*
X13693Y12652D01*
X13696Y12651D01*
X13700Y12649D01*
X13705Y12646D01*
X13711Y12644D01*
X13717Y12641D01*
X13725Y12638D01*
X13732Y12634D01*
X13741Y12632D01*
X13749Y12629D01*
X13759Y12626D01*
X13768Y12624D01*
X13777Y12623D01*
X13786Y12622D01*
X13796Y12621D01*
X13799D01*
X13802Y12622D01*
X13805Y12622D01*
X13808Y12622D01*
X13815Y12624D01*
X13822Y12627D01*
X13826Y12629D01*
X13828Y12631D01*
X13831Y12633D01*
X13833Y12637D01*
X13834Y12640D01*
X13835Y12644D01*
Y12644D01*
Y12645D01*
X13834Y12647D01*
X13834Y12649D01*
X13833Y12651D01*
X13832Y12654D01*
X13831Y12656D01*
X13828Y12658D01*
X13828Y12659D01*
X13827Y12659D01*
X13826Y12660D01*
X13823Y12662D01*
X13820Y12664D01*
X13817Y12666D01*
X13812Y12668D01*
X13807Y12671D01*
X13751Y12695D01*
X13751Y12696D01*
X13750Y12696D01*
X13748Y12697D01*
X13745Y12698D01*
X13742Y12700D01*
X13739Y12702D01*
X13735Y12704D01*
X13731Y12706D01*
X13722Y12712D01*
X13713Y12719D01*
X13705Y12726D01*
X13701Y12730D01*
X13697Y12735D01*
Y12735D01*
X13697Y12736D01*
X13696Y12737D01*
X13695Y12739D01*
X13693Y12741D01*
X13692Y12744D01*
X13690Y12747D01*
X13689Y12750D01*
X13688Y12754D01*
X13686Y12758D01*
X13683Y12767D01*
X13681Y12778D01*
X13681Y12783D01*
X13681Y12789D01*
Y12789D01*
Y12791D01*
X13681Y12793D01*
Y12796D01*
X13682Y12800D01*
X13682Y12805D01*
X13683Y12810D01*
X13685Y12815D01*
X13686Y12820D01*
X13688Y12826D01*
X13691Y12832D01*
X13694Y12838D01*
X13697Y12844D01*
X13701Y12849D01*
X13706Y12855D01*
X13712Y12859D01*
X13712Y12860D01*
X13713Y12861D01*
X13715Y12862D01*
X13717Y12863D01*
X13721Y12865D01*
X13725Y12867D01*
X13729Y12869D01*
X13735Y12872D01*
X13741Y12874D01*
X13747Y12876D01*
X13755Y12878D01*
X13763Y12880D01*
X13772Y12882D01*
X13781Y12883D01*
X13791Y12883D01*
X13802Y12884D01*
X13807D01*
X13811Y12883D01*
D02*
G37*
G36*
X12965Y12561D02*
X12884D01*
X12756Y12874D01*
X12851D01*
X12925Y12657D01*
X12998Y12874D01*
X13093Y12874D01*
X12965Y12561D01*
D02*
G37*
G36*
X13431Y12883D02*
X13434D01*
X13437Y12883D01*
X13441Y12883D01*
X13446Y12882D01*
X13456Y12880D01*
X13466Y12878D01*
X13477Y12874D01*
X13487Y12869D01*
X13487D01*
X13488Y12869D01*
X13490Y12868D01*
X13491Y12867D01*
X13494Y12865D01*
X13496Y12863D01*
X13502Y12859D01*
X13509Y12853D01*
X13516Y12847D01*
X13523Y12839D01*
X13529Y12830D01*
X13530D01*
Y12874D01*
X13613D01*
Y12561D01*
X13530D01*
Y12605D01*
X13529D01*
Y12604D01*
X13528Y12604D01*
X13527Y12602D01*
X13526Y12600D01*
X13524Y12598D01*
X13523Y12596D01*
X13518Y12590D01*
X13512Y12584D01*
X13504Y12577D01*
X13496Y12570D01*
X13487Y12565D01*
X13487D01*
X13486Y12564D01*
X13484Y12564D01*
X13482Y12562D01*
X13480Y12561D01*
X13477Y12560D01*
X13474Y12559D01*
X13470Y12558D01*
X13465Y12556D01*
X13460Y12555D01*
X13455Y12554D01*
X13450Y12553D01*
X13437Y12551D01*
X13424Y12551D01*
X13420D01*
X13417Y12551D01*
X13414Y12551D01*
X13409Y12552D01*
X13405Y12552D01*
X13400Y12553D01*
X13394Y12554D01*
X13388Y12556D01*
X13375Y12559D01*
X13369Y12561D01*
X13362Y12564D01*
X13355Y12567D01*
X13349Y12570D01*
X13348Y12570D01*
X13347Y12571D01*
X13345Y12572D01*
X13343Y12574D01*
X13340Y12576D01*
X13337Y12578D01*
X13333Y12581D01*
X13329Y12585D01*
X13325Y12588D01*
X13320Y12593D01*
X13316Y12597D01*
X13311Y12602D01*
X13306Y12608D01*
X13302Y12614D01*
X13298Y12620D01*
X13294Y12627D01*
X13294Y12628D01*
X13293Y12629D01*
X13292Y12631D01*
X13291Y12634D01*
X13289Y12637D01*
X13288Y12642D01*
X13286Y12647D01*
X13284Y12653D01*
X13282Y12659D01*
X13280Y12666D01*
X13279Y12673D01*
X13277Y12681D01*
X13276Y12689D01*
X13275Y12698D01*
X13274Y12708D01*
X13274Y12717D01*
Y12718D01*
Y12719D01*
Y12722D01*
X13274Y12726D01*
X13275Y12730D01*
X13275Y12736D01*
X13276Y12742D01*
X13277Y12748D01*
X13278Y12755D01*
X13279Y12762D01*
X13282Y12777D01*
X13285Y12784D01*
X13288Y12792D01*
X13290Y12799D01*
X13294Y12807D01*
X13294Y12807D01*
X13295Y12808D01*
X13296Y12810D01*
X13298Y12813D01*
X13300Y12816D01*
X13302Y12820D01*
X13305Y12824D01*
X13308Y12828D01*
X13312Y12833D01*
X13316Y12837D01*
X13321Y12842D01*
X13326Y12847D01*
X13331Y12851D01*
X13336Y12856D01*
X13342Y12860D01*
X13349Y12864D01*
X13349Y12865D01*
X13350Y12865D01*
X13352Y12866D01*
X13355Y12867D01*
X13358Y12869D01*
X13362Y12870D01*
X13366Y12872D01*
X13371Y12874D01*
X13377Y12876D01*
X13383Y12878D01*
X13389Y12879D01*
X13395Y12881D01*
X13409Y12883D01*
X13417Y12883D01*
X13424Y12884D01*
X13428D01*
X13431Y12883D01*
D02*
G37*
G36*
X13218Y12561D02*
X13135D01*
Y12874D01*
X13218D01*
Y12561D01*
D02*
G37*
G36*
X10818Y12883D02*
X10821D01*
X10825Y12883D01*
X10829Y12883D01*
X10833Y12882D01*
X10843Y12880D01*
X10853Y12878D01*
X10864Y12874D01*
X10874Y12869D01*
X10875D01*
X10875Y12869D01*
X10877Y12868D01*
X10879Y12867D01*
X10881Y12865D01*
X10883Y12863D01*
X10889Y12859D01*
X10896Y12853D01*
X10903Y12847D01*
X10910Y12839D01*
X10916Y12830D01*
X10918D01*
Y12874D01*
X11000D01*
Y12561D01*
X10918D01*
Y12605D01*
X10916D01*
Y12604D01*
X10915Y12604D01*
X10915Y12602D01*
X10913Y12600D01*
X10912Y12598D01*
X10910Y12596D01*
X10905Y12590D01*
X10899Y12584D01*
X10892Y12577D01*
X10884Y12570D01*
X10874Y12565D01*
X10874D01*
X10873Y12564D01*
X10872Y12564D01*
X10869Y12562D01*
X10867Y12561D01*
X10864Y12560D01*
X10861Y12559D01*
X10857Y12558D01*
X10852Y12556D01*
X10848Y12555D01*
X10843Y12554D01*
X10837Y12553D01*
X10825Y12551D01*
X10812Y12551D01*
X10808D01*
X10805Y12551D01*
X10801Y12551D01*
X10797Y12552D01*
X10792Y12552D01*
X10787Y12553D01*
X10781Y12554D01*
X10775Y12556D01*
X10762Y12559D01*
X10756Y12561D01*
X10749Y12564D01*
X10742Y12567D01*
X10736Y12570D01*
X10736Y12570D01*
X10734Y12571D01*
X10733Y12572D01*
X10730Y12574D01*
X10727Y12576D01*
X10724Y12578D01*
X10720Y12581D01*
X10716Y12585D01*
X10712Y12588D01*
X10707Y12593D01*
X10703Y12597D01*
X10698Y12602D01*
X10694Y12608D01*
X10689Y12614D01*
X10685Y12620D01*
X10681Y12627D01*
X10681Y12628D01*
X10681Y12629D01*
X10679Y12631D01*
X10678Y12634D01*
X10677Y12637D01*
X10675Y12642D01*
X10673Y12647D01*
X10671Y12653D01*
X10669Y12659D01*
X10667Y12666D01*
X10666Y12673D01*
X10665Y12681D01*
X10663Y12689D01*
X10662Y12698D01*
X10662Y12708D01*
X10661Y12717D01*
Y12718D01*
Y12719D01*
Y12722D01*
X10662Y12726D01*
X10662Y12730D01*
X10662Y12736D01*
X10663Y12742D01*
X10664Y12748D01*
X10665Y12755D01*
X10666Y12762D01*
X10670Y12777D01*
X10672Y12784D01*
X10675Y12792D01*
X10678Y12799D01*
X10681Y12807D01*
X10682Y12807D01*
X10682Y12808D01*
X10683Y12810D01*
X10685Y12813D01*
X10687Y12816D01*
X10689Y12820D01*
X10692Y12824D01*
X10695Y12828D01*
X10699Y12832D01*
X10703Y12837D01*
X10708Y12842D01*
X10713Y12847D01*
X10718Y12851D01*
X10724Y12856D01*
X10730Y12860D01*
X10736Y12864D01*
X10736Y12865D01*
X10737Y12865D01*
X10740Y12866D01*
X10742Y12867D01*
X10745Y12869D01*
X10749Y12870D01*
X10753Y12872D01*
X10758Y12874D01*
X10764Y12876D01*
X10770Y12878D01*
X10776Y12879D01*
X10782Y12881D01*
X10797Y12883D01*
X10804Y12883D01*
X10812Y12884D01*
X10815D01*
X10818Y12883D01*
D02*
G37*
G36*
X12009D02*
X12014Y12883D01*
X12020Y12882D01*
X12027Y12882D01*
X12034Y12880D01*
X12043Y12878D01*
X12051Y12876D01*
X12061Y12873D01*
X12070Y12870D01*
X12079Y12865D01*
X12089Y12860D01*
X12097Y12854D01*
X12106Y12847D01*
X12114Y12840D01*
X12114Y12839D01*
X12115Y12838D01*
X12117Y12835D01*
X12120Y12832D01*
X12123Y12827D01*
X12126Y12822D01*
X12130Y12815D01*
X12134Y12808D01*
X12137Y12800D01*
X12141Y12791D01*
X12145Y12780D01*
X12147Y12769D01*
X12150Y12758D01*
X12152Y12744D01*
X12153Y12731D01*
X12154Y12716D01*
Y12700D01*
X11920D01*
Y12700D01*
X11920Y12699D01*
Y12697D01*
X11921Y12694D01*
X11921Y12691D01*
X11922Y12688D01*
X11923Y12684D01*
X11924Y12680D01*
X11928Y12671D01*
X11930Y12666D01*
X11933Y12661D01*
X11936Y12657D01*
X11939Y12652D01*
X11943Y12648D01*
X11947Y12644D01*
X11948Y12644D01*
X11948Y12643D01*
X11950Y12642D01*
X11952Y12641D01*
X11954Y12640D01*
X11957Y12638D01*
X11960Y12636D01*
X11964Y12634D01*
X11968Y12632D01*
X11973Y12630D01*
X11978Y12629D01*
X11983Y12627D01*
X11989Y12626D01*
X11995Y12625D01*
X12002Y12625D01*
X12008Y12624D01*
X12010D01*
X12013Y12625D01*
X12017Y12625D01*
X12021Y12626D01*
X12026Y12626D01*
X12032Y12628D01*
X12039Y12630D01*
X12046Y12632D01*
X12053Y12635D01*
X12061Y12638D01*
X12069Y12642D01*
X12077Y12647D01*
X12085Y12653D01*
X12094Y12659D01*
X12102Y12667D01*
X12143Y12606D01*
X12143Y12606D01*
X12142Y12605D01*
X12141Y12604D01*
X12139Y12602D01*
X12136Y12600D01*
X12133Y12598D01*
X12130Y12595D01*
X12126Y12592D01*
X12122Y12589D01*
X12117Y12586D01*
X12107Y12579D01*
X12097Y12573D01*
X12084Y12566D01*
X12084D01*
X12083Y12566D01*
X12081Y12565D01*
X12079Y12564D01*
X12076Y12563D01*
X12072Y12561D01*
X12068Y12560D01*
X12063Y12559D01*
X12058Y12557D01*
X12052Y12556D01*
X12045Y12554D01*
X12039Y12553D01*
X12031Y12552D01*
X12024Y12551D01*
X12016Y12551D01*
X12008Y12551D01*
X12003D01*
X12000Y12551D01*
X11995Y12551D01*
X11990Y12552D01*
X11984Y12553D01*
X11978Y12553D01*
X11971Y12554D01*
X11964Y12556D01*
X11949Y12559D01*
X11941Y12562D01*
X11934Y12565D01*
X11926Y12568D01*
X11919Y12571D01*
X11919Y12572D01*
X11917Y12572D01*
X11915Y12573D01*
X11913Y12575D01*
X11909Y12577D01*
X11906Y12580D01*
X11902Y12582D01*
X11897Y12586D01*
X11893Y12590D01*
X11888Y12594D01*
X11883Y12599D01*
X11878Y12604D01*
X11873Y12610D01*
X11869Y12616D01*
X11864Y12622D01*
X11860Y12629D01*
X11860Y12629D01*
X11859Y12631D01*
X11858Y12633D01*
X11857Y12636D01*
X11855Y12639D01*
X11853Y12644D01*
X11852Y12649D01*
X11850Y12654D01*
X11848Y12660D01*
X11846Y12667D01*
X11844Y12674D01*
X11842Y12682D01*
X11841Y12690D01*
X11840Y12699D01*
X11840Y12707D01*
X11839Y12716D01*
Y12717D01*
Y12719D01*
Y12721D01*
X11840Y12725D01*
X11840Y12729D01*
X11840Y12734D01*
X11841Y12740D01*
X11842Y12746D01*
X11843Y12752D01*
X11844Y12759D01*
X11848Y12774D01*
X11850Y12782D01*
X11853Y12789D01*
X11856Y12796D01*
X11860Y12804D01*
X11860Y12804D01*
X11861Y12806D01*
X11862Y12807D01*
X11863Y12810D01*
X11865Y12813D01*
X11868Y12817D01*
X11871Y12821D01*
X11874Y12825D01*
X11878Y12830D01*
X11882Y12835D01*
X11887Y12840D01*
X11892Y12845D01*
X11898Y12850D01*
X11904Y12854D01*
X11910Y12859D01*
X11916Y12863D01*
X11917Y12863D01*
X11918Y12864D01*
X11920Y12865D01*
X11923Y12866D01*
X11927Y12867D01*
X11931Y12869D01*
X11935Y12871D01*
X11941Y12873D01*
X11947Y12875D01*
X11953Y12877D01*
X11960Y12879D01*
X11968Y12881D01*
X11976Y12882D01*
X11984Y12883D01*
X11993Y12883D01*
X12002Y12884D01*
X12005D01*
X12009Y12883D01*
D02*
G37*
%LPC*%
G36*
X12359Y12805D02*
X12355D01*
X12353Y12805D01*
X12349Y12804D01*
X12346Y12804D01*
X12341Y12803D01*
X12337Y12802D01*
X12327Y12799D01*
X12322Y12797D01*
X12317Y12795D01*
X12312Y12792D01*
X12307Y12789D01*
X12302Y12785D01*
X12297Y12781D01*
X12297Y12780D01*
X12296Y12780D01*
X12295Y12778D01*
X12294Y12776D01*
X12292Y12774D01*
X12290Y12771D01*
X12288Y12768D01*
X12286Y12764D01*
X12284Y12759D01*
X12281Y12755D01*
X12280Y12749D01*
X12278Y12744D01*
X12276Y12737D01*
X12275Y12731D01*
X12275Y12724D01*
X12274Y12717D01*
Y12717D01*
Y12715D01*
Y12713D01*
X12275Y12711D01*
X12275Y12707D01*
X12275Y12703D01*
X12276Y12699D01*
X12277Y12695D01*
X12280Y12684D01*
X12282Y12679D01*
X12284Y12674D01*
X12287Y12668D01*
X12290Y12663D01*
X12293Y12658D01*
X12297Y12653D01*
X12298Y12653D01*
X12299Y12652D01*
X12300Y12651D01*
X12302Y12650D01*
X12304Y12648D01*
X12307Y12646D01*
X12310Y12644D01*
X12314Y12641D01*
X12318Y12639D01*
X12323Y12637D01*
X12328Y12635D01*
X12333Y12633D01*
X12339Y12631D01*
X12345Y12630D01*
X12352Y12629D01*
X12359Y12629D01*
X12363D01*
X12365Y12629D01*
X12368Y12630D01*
X12372Y12630D01*
X12376Y12631D01*
X12381Y12632D01*
X12391Y12635D01*
X12396Y12637D01*
X12401Y12639D01*
X12406Y12642D01*
X12411Y12645D01*
X12416Y12649D01*
X12420Y12653D01*
X12420Y12654D01*
X12421Y12655D01*
X12422Y12656D01*
X12424Y12658D01*
X12426Y12660D01*
X12428Y12663D01*
X12430Y12667D01*
X12432Y12671D01*
X12434Y12675D01*
X12436Y12680D01*
X12438Y12685D01*
X12440Y12691D01*
X12442Y12697D01*
X12443Y12703D01*
X12443Y12710D01*
X12444Y12717D01*
Y12717D01*
Y12719D01*
Y12721D01*
X12443Y12724D01*
X12443Y12727D01*
X12443Y12731D01*
X12442Y12735D01*
X12441Y12740D01*
X12438Y12750D01*
X12436Y12755D01*
X12434Y12760D01*
X12431Y12766D01*
X12428Y12771D01*
X12424Y12776D01*
X12420Y12781D01*
X12420Y12781D01*
X12419Y12782D01*
X12418Y12783D01*
X12416Y12785D01*
X12414Y12787D01*
X12411Y12788D01*
X12407Y12791D01*
X12404Y12793D01*
X12400Y12795D01*
X12395Y12798D01*
X12390Y12799D01*
X12384Y12802D01*
X12379Y12803D01*
X12372Y12804D01*
X12366Y12805D01*
X12359Y12805D01*
D02*
G37*
G36*
X11632D02*
X11629D01*
X11626Y12805D01*
X11623Y12804D01*
X11619Y12804D01*
X11615Y12803D01*
X11611Y12802D01*
X11601Y12799D01*
X11596Y12797D01*
X11591Y12795D01*
X11585Y12792D01*
X11580Y12789D01*
X11576Y12785D01*
X11571Y12781D01*
X11571Y12780D01*
X11570Y12780D01*
X11569Y12778D01*
X11567Y12776D01*
X11565Y12774D01*
X11564Y12771D01*
X11561Y12768D01*
X11559Y12764D01*
X11557Y12759D01*
X11555Y12755D01*
X11553Y12749D01*
X11551Y12744D01*
X11550Y12737D01*
X11549Y12731D01*
X11548Y12724D01*
X11548Y12717D01*
Y12717D01*
Y12715D01*
Y12713D01*
X11548Y12711D01*
X11548Y12707D01*
X11549Y12703D01*
X11549Y12699D01*
X11551Y12695D01*
X11553Y12684D01*
X11555Y12679D01*
X11557Y12674D01*
X11560Y12668D01*
X11563Y12663D01*
X11567Y12658D01*
X11571Y12653D01*
X11571Y12653D01*
X11572Y12652D01*
X11573Y12651D01*
X11575Y12650D01*
X11577Y12648D01*
X11580Y12646D01*
X11584Y12644D01*
X11588Y12641D01*
X11592Y12639D01*
X11596Y12637D01*
X11601Y12635D01*
X11607Y12633D01*
X11613Y12631D01*
X11619Y12630D01*
X11625Y12629D01*
X11632Y12629D01*
X11636D01*
X11639Y12629D01*
X11642Y12630D01*
X11646Y12630D01*
X11650Y12631D01*
X11654Y12632D01*
X11664Y12635D01*
X11669Y12637D01*
X11674Y12639D01*
X11679Y12642D01*
X11684Y12645D01*
X11689Y12649D01*
X11694Y12653D01*
X11694Y12654D01*
X11695Y12655D01*
X11696Y12656D01*
X11697Y12658D01*
X11699Y12660D01*
X11701Y12663D01*
X11703Y12667D01*
X11706Y12671D01*
X11708Y12675D01*
X11710Y12680D01*
X11712Y12685D01*
X11714Y12691D01*
X11715Y12697D01*
X11716Y12703D01*
X11717Y12710D01*
X11717Y12717D01*
Y12717D01*
Y12719D01*
Y12721D01*
X11717Y12724D01*
X11716Y12727D01*
X11716Y12731D01*
X11715Y12735D01*
X11714Y12740D01*
X11711Y12750D01*
X11710Y12755D01*
X11707Y12760D01*
X11704Y12766D01*
X11701Y12771D01*
X11698Y12776D01*
X11694Y12781D01*
X11693Y12781D01*
X11692Y12782D01*
X11691Y12783D01*
X11689Y12785D01*
X11687Y12787D01*
X11684Y12788D01*
X11681Y12791D01*
X11677Y12793D01*
X11673Y12795D01*
X11668Y12798D01*
X11663Y12799D01*
X11658Y12802D01*
X11652Y12803D01*
X11646Y12804D01*
X11639Y12805D01*
X11632Y12805D01*
D02*
G37*
G36*
X11239D02*
X11236D01*
X11233Y12805D01*
X11230Y12804D01*
X11226Y12804D01*
X11222Y12803D01*
X11217Y12802D01*
X11208Y12799D01*
X11203Y12797D01*
X11197Y12795D01*
X11192Y12792D01*
X11187Y12789D01*
X11183Y12785D01*
X11178Y12781D01*
X11177Y12780D01*
X11177Y12780D01*
X11176Y12778D01*
X11174Y12776D01*
X11172Y12774D01*
X11170Y12771D01*
X11168Y12768D01*
X11166Y12764D01*
X11164Y12759D01*
X11162Y12755D01*
X11160Y12749D01*
X11158Y12744D01*
X11157Y12737D01*
X11156Y12731D01*
X11155Y12724D01*
X11154Y12717D01*
Y12717D01*
Y12715D01*
Y12713D01*
X11155Y12711D01*
X11155Y12707D01*
X11156Y12703D01*
X11156Y12699D01*
X11157Y12695D01*
X11160Y12684D01*
X11162Y12679D01*
X11164Y12674D01*
X11167Y12668D01*
X11170Y12663D01*
X11174Y12658D01*
X11178Y12653D01*
X11178Y12653D01*
X11179Y12652D01*
X11180Y12651D01*
X11182Y12650D01*
X11184Y12648D01*
X11187Y12646D01*
X11191Y12644D01*
X11195Y12641D01*
X11199Y12639D01*
X11203Y12637D01*
X11208Y12635D01*
X11214Y12633D01*
X11220Y12631D01*
X11226Y12630D01*
X11232Y12629D01*
X11239Y12629D01*
X11243D01*
X11245Y12629D01*
X11249Y12630D01*
X11252Y12630D01*
X11257Y12631D01*
X11261Y12632D01*
X11271Y12635D01*
X11276Y12637D01*
X11281Y12639D01*
X11286Y12642D01*
X11291Y12645D01*
X11296Y12649D01*
X11300Y12653D01*
X11301Y12654D01*
X11302Y12655D01*
X11303Y12656D01*
X11304Y12658D01*
X11306Y12660D01*
X11308Y12663D01*
X11310Y12667D01*
X11312Y12671D01*
X11315Y12675D01*
X11316Y12680D01*
X11319Y12685D01*
X11320Y12691D01*
X11322Y12697D01*
X11323Y12703D01*
X11324Y12710D01*
X11324Y12717D01*
Y12717D01*
Y12719D01*
Y12721D01*
X11324Y12724D01*
X11323Y12727D01*
X11323Y12731D01*
X11322Y12735D01*
X11321Y12740D01*
X11318Y12750D01*
X11316Y12755D01*
X11314Y12760D01*
X11311Y12766D01*
X11308Y12771D01*
X11304Y12776D01*
X11300Y12781D01*
X11300Y12781D01*
X11299Y12782D01*
X11298Y12783D01*
X11296Y12785D01*
X11294Y12787D01*
X11291Y12788D01*
X11288Y12791D01*
X11284Y12793D01*
X11280Y12795D01*
X11275Y12798D01*
X11270Y12799D01*
X11265Y12802D01*
X11259Y12803D01*
X11253Y12804D01*
X11246Y12805D01*
X11239Y12805D01*
D02*
G37*
G36*
X13445Y12805D02*
X13442D01*
X13439Y12805D01*
X13436Y12804D01*
X13432Y12804D01*
X13428Y12803D01*
X13424Y12802D01*
X13414Y12799D01*
X13409Y12797D01*
X13404Y12795D01*
X13399Y12792D01*
X13393Y12789D01*
X13389Y12785D01*
X13384Y12781D01*
X13384Y12780D01*
X13383Y12780D01*
X13382Y12778D01*
X13380Y12776D01*
X13379Y12774D01*
X13377Y12771D01*
X13375Y12768D01*
X13372Y12764D01*
X13370Y12759D01*
X13368Y12755D01*
X13366Y12749D01*
X13364Y12744D01*
X13363Y12737D01*
X13362Y12731D01*
X13361Y12724D01*
X13361Y12717D01*
Y12717D01*
Y12715D01*
Y12713D01*
X13361Y12711D01*
X13361Y12707D01*
X13362Y12703D01*
X13362Y12699D01*
X13364Y12695D01*
X13367Y12684D01*
X13368Y12679D01*
X13371Y12674D01*
X13373Y12668D01*
X13376Y12663D01*
X13380Y12658D01*
X13384Y12653D01*
X13384Y12653D01*
X13385Y12652D01*
X13387Y12651D01*
X13388Y12650D01*
X13391Y12648D01*
X13393Y12646D01*
X13397Y12644D01*
X13401Y12641D01*
X13405Y12639D01*
X13409Y12637D01*
X13415Y12635D01*
X13420Y12633D01*
X13426Y12631D01*
X13432Y12630D01*
X13439Y12629D01*
X13445Y12629D01*
X13449D01*
X13452Y12629D01*
X13455Y12630D01*
X13459Y12630D01*
X13463Y12631D01*
X13467Y12632D01*
X13477Y12635D01*
X13482Y12637D01*
X13487Y12639D01*
X13492Y12642D01*
X13497Y12645D01*
X13502Y12649D01*
X13507Y12653D01*
X13507Y12654D01*
X13508Y12655D01*
X13509Y12656D01*
X13510Y12658D01*
X13512Y12660D01*
X13514Y12663D01*
X13516Y12667D01*
X13519Y12671D01*
X13521Y12675D01*
X13523Y12680D01*
X13525Y12685D01*
X13527Y12691D01*
X13528Y12697D01*
X13529Y12703D01*
X13530Y12710D01*
X13530Y12717D01*
Y12717D01*
Y12719D01*
Y12721D01*
X13530Y12724D01*
X13530Y12727D01*
X13529Y12731D01*
X13528Y12735D01*
X13527Y12740D01*
X13524Y12750D01*
X13523Y12755D01*
X13520Y12760D01*
X13518Y12766D01*
X13514Y12771D01*
X13511Y12776D01*
X13507Y12781D01*
X13506Y12781D01*
X13506Y12782D01*
X13504Y12783D01*
X13502Y12785D01*
X13500Y12787D01*
X13497Y12788D01*
X13494Y12791D01*
X13490Y12793D01*
X13486Y12795D01*
X13482Y12798D01*
X13476Y12799D01*
X13471Y12802D01*
X13465Y12803D01*
X13459Y12804D01*
X13452Y12805D01*
X13445Y12805D01*
D02*
G37*
G36*
X10833Y12805D02*
X10829D01*
X10827Y12805D01*
X10823Y12804D01*
X10820Y12804D01*
X10815Y12803D01*
X10811Y12802D01*
X10801Y12799D01*
X10796Y12797D01*
X10791Y12795D01*
X10786Y12792D01*
X10781Y12789D01*
X10776Y12785D01*
X10771Y12781D01*
X10771Y12780D01*
X10770Y12780D01*
X10769Y12778D01*
X10768Y12776D01*
X10766Y12774D01*
X10764Y12771D01*
X10762Y12768D01*
X10760Y12764D01*
X10757Y12759D01*
X10755Y12755D01*
X10753Y12749D01*
X10752Y12744D01*
X10750Y12737D01*
X10749Y12731D01*
X10748Y12724D01*
X10748Y12717D01*
Y12717D01*
Y12715D01*
Y12713D01*
X10748Y12711D01*
X10749Y12707D01*
X10749Y12703D01*
X10750Y12699D01*
X10751Y12695D01*
X10754Y12684D01*
X10756Y12679D01*
X10758Y12674D01*
X10760Y12668D01*
X10764Y12663D01*
X10767Y12658D01*
X10771Y12653D01*
X10772Y12653D01*
X10772Y12652D01*
X10774Y12651D01*
X10776Y12650D01*
X10778Y12648D01*
X10781Y12646D01*
X10784Y12644D01*
X10788Y12641D01*
X10792Y12639D01*
X10797Y12637D01*
X10802Y12635D01*
X10807Y12633D01*
X10813Y12631D01*
X10819Y12630D01*
X10826Y12629D01*
X10833Y12629D01*
X10836D01*
X10839Y12629D01*
X10842Y12630D01*
X10846Y12630D01*
X10850Y12631D01*
X10855Y12632D01*
X10864Y12635D01*
X10869Y12637D01*
X10875Y12639D01*
X10880Y12642D01*
X10884Y12645D01*
X10889Y12649D01*
X10894Y12653D01*
X10894Y12654D01*
X10895Y12655D01*
X10896Y12656D01*
X10897Y12658D01*
X10899Y12660D01*
X10901Y12663D01*
X10903Y12667D01*
X10906Y12671D01*
X10908Y12675D01*
X10910Y12680D01*
X10912Y12685D01*
X10914Y12691D01*
X10915Y12697D01*
X10916Y12703D01*
X10917Y12710D01*
X10918Y12717D01*
Y12717D01*
Y12719D01*
Y12721D01*
X10917Y12724D01*
X10917Y12727D01*
X10916Y12731D01*
X10916Y12735D01*
X10915Y12740D01*
X10912Y12750D01*
X10910Y12755D01*
X10908Y12760D01*
X10905Y12766D01*
X10901Y12771D01*
X10898Y12776D01*
X10894Y12781D01*
X10893Y12781D01*
X10893Y12782D01*
X10891Y12783D01*
X10889Y12785D01*
X10887Y12787D01*
X10884Y12788D01*
X10881Y12791D01*
X10877Y12793D01*
X10873Y12795D01*
X10869Y12798D01*
X10864Y12799D01*
X10858Y12802D01*
X10852Y12803D01*
X10846Y12804D01*
X10840Y12805D01*
X10833Y12805D01*
D02*
G37*
G36*
X12004Y12816D02*
X11995D01*
X11993Y12816D01*
X11990D01*
X11987Y12816D01*
X11980Y12815D01*
X11972Y12813D01*
X11963Y12810D01*
X11955Y12806D01*
X11951Y12804D01*
X11947Y12801D01*
X11946D01*
X11946Y12800D01*
X11945Y12799D01*
X11943Y12798D01*
X11942Y12796D01*
X11940Y12794D01*
X11938Y12792D01*
X11936Y12789D01*
X11934Y12786D01*
X11932Y12783D01*
X11930Y12779D01*
X11928Y12774D01*
X11926Y12770D01*
X11924Y12765D01*
X11923Y12759D01*
X11922Y12754D01*
X12070D01*
Y12754D01*
Y12755D01*
X12069Y12756D01*
X12069Y12759D01*
X12068Y12761D01*
X12068Y12764D01*
X12066Y12771D01*
X12063Y12778D01*
X12060Y12786D01*
X12055Y12793D01*
X12051Y12796D01*
X12048Y12800D01*
X12048Y12800D01*
X12047Y12800D01*
X12046Y12801D01*
X12044Y12802D01*
X12043Y12804D01*
X12040Y12805D01*
X12038Y12807D01*
X12035Y12808D01*
X12027Y12811D01*
X12019Y12814D01*
X12009Y12816D01*
X12004Y12816D01*
D02*
G37*
%LPD*%
D170*
X12175Y12098D02*
D03*
X12017D02*
D03*
X11860D02*
D03*
X11702D02*
D03*
X11545D02*
D03*
X12647Y9894D02*
D03*
X12490D02*
D03*
X12332D02*
D03*
X12175D02*
D03*
X12017D02*
D03*
M02*
