G04*
G04 #@! TF.GenerationSoftware,Altium Limited,Altium Designer,21.4.1 (30)*
G04*
G04 Layer_Physical_Order=4*
G04 Layer_Color=16711680*
%FSLAX24Y24*%
%MOIN*%
G70*
G04*
G04 #@! TF.SameCoordinates,516B4A6D-3ECB-46AA-BE42-5657E3C56184*
G04*
G04*
G04 #@! TF.FilePolarity,Positive*
G04*
G01*
G75*
%ADD12C,0.0060*%
%ADD14C,0.0118*%
%ADD15C,0.0150*%
%ADD16C,0.0100*%
%ADD17C,0.0200*%
%ADD19C,0.0079*%
%ADD21C,0.0060*%
%ADD56R,0.0402X0.0862*%
%ADD64C,0.0394*%
%ADD105C,0.0197*%
%ADD149C,0.0079*%
%ADD154C,0.0300*%
%ADD155C,0.0250*%
%ADD158C,0.0080*%
%ADD164C,0.0591*%
%ADD165R,0.0591X0.0591*%
%ADD166C,0.1220*%
%ADD167O,0.0630X0.0354*%
%ADD168C,0.0390*%
%ADD169C,0.0701*%
%ADD171C,0.0240*%
%ADD172C,0.0260*%
%ADD173R,0.1654X0.1260*%
%ADD174R,0.0874X0.0402*%
G36*
X38696Y24827D02*
X38777Y24773D01*
X38831Y24692D01*
X38840Y24643D01*
X38847Y24596D01*
X38847Y24596D01*
X38847Y24547D01*
Y17896D01*
X38831Y17876D01*
X37401D01*
X37400Y3889D01*
X37366Y3868D01*
X37238Y3758D01*
X37128Y3630D01*
X37039Y3485D01*
X36975Y3329D01*
X36935Y3165D01*
X36922Y2996D01*
X36935Y2827D01*
X36975Y2663D01*
X37039Y2506D01*
X37128Y2362D01*
X37238Y2234D01*
X37366Y2124D01*
X37400Y2103D01*
X37400Y149D01*
X25279D01*
X25262Y199D01*
X25282Y214D01*
X25345Y297D01*
X25385Y393D01*
X25392Y446D01*
X24608D01*
X24615Y393D01*
X24655Y297D01*
X24718Y214D01*
X24738Y199D01*
X24721Y149D01*
X24279D01*
X24262Y199D01*
X24282Y214D01*
X24345Y297D01*
X24385Y393D01*
X24392Y446D01*
X23608D01*
X23615Y393D01*
X23655Y297D01*
X23718Y214D01*
X23738Y199D01*
X23721Y149D01*
X23279D01*
X23262Y199D01*
X23282Y214D01*
X23345Y297D01*
X23385Y393D01*
X23392Y446D01*
X22608D01*
X22615Y393D01*
X22655Y297D01*
X22718Y214D01*
X22738Y199D01*
X22721Y149D01*
X22279D01*
X22262Y199D01*
X22282Y214D01*
X22345Y297D01*
X22385Y393D01*
X22392Y446D01*
X21608D01*
X21615Y393D01*
X21655Y297D01*
X21718Y214D01*
X21738Y199D01*
X21721Y149D01*
X21279D01*
X21262Y199D01*
X21282Y214D01*
X21345Y297D01*
X21385Y393D01*
X21392Y446D01*
X20608D01*
X20615Y393D01*
X20655Y297D01*
X20718Y214D01*
X20738Y199D01*
X20721Y149D01*
X20395D01*
Y446D01*
X19605D01*
Y149D01*
X18279D01*
X18262Y199D01*
X18282Y214D01*
X18345Y297D01*
X18385Y393D01*
X18392Y446D01*
X17608D01*
X17615Y393D01*
X17655Y297D01*
X17718Y214D01*
X17738Y199D01*
X17721Y149D01*
X17279D01*
X17262Y199D01*
X17282Y214D01*
X17345Y297D01*
X17385Y393D01*
X17392Y446D01*
X16608D01*
X16615Y393D01*
X16655Y297D01*
X16718Y214D01*
X16738Y199D01*
X16721Y149D01*
X16279D01*
X16262Y199D01*
X16282Y214D01*
X16345Y297D01*
X16385Y393D01*
X16392Y446D01*
X15608D01*
X15615Y393D01*
X15655Y297D01*
X15718Y214D01*
X15738Y199D01*
X15721Y149D01*
X15279D01*
X15262Y199D01*
X15282Y214D01*
X15345Y297D01*
X15385Y393D01*
X15392Y446D01*
X14608D01*
X14615Y393D01*
X14655Y297D01*
X14718Y214D01*
X14738Y199D01*
X14721Y149D01*
X14279D01*
X14262Y199D01*
X14282Y214D01*
X14345Y297D01*
X14385Y393D01*
X14392Y446D01*
X13608D01*
X13615Y393D01*
X13655Y297D01*
X13718Y214D01*
X13738Y199D01*
X13721Y149D01*
X13279D01*
X13262Y199D01*
X13282Y214D01*
X13345Y297D01*
X13385Y393D01*
X13392Y446D01*
X12608D01*
X12615Y393D01*
X12655Y297D01*
X12718Y214D01*
X12738Y199D01*
X12721Y149D01*
X12279D01*
X12262Y199D01*
X12282Y214D01*
X12345Y297D01*
X12385Y393D01*
X12392Y446D01*
X11608D01*
X11615Y393D01*
X11655Y297D01*
X11718Y214D01*
X11738Y199D01*
X11721Y149D01*
X11395D01*
Y446D01*
X10605D01*
Y149D01*
X4875D01*
X4858Y199D01*
X4877Y214D01*
X4941Y297D01*
X4981Y393D01*
X4988Y446D01*
X4203D01*
X4210Y393D01*
X4250Y297D01*
X4314Y214D01*
X4333Y199D01*
X4316Y149D01*
X400D01*
X393Y148D01*
X304Y165D01*
X223Y219D01*
X169Y300D01*
X152Y389D01*
X153Y396D01*
X153Y24606D01*
X152Y24610D01*
X169Y24695D01*
X222Y24774D01*
X301Y24827D01*
X351Y24837D01*
X398Y24843D01*
X400Y24843D01*
X448Y24843D01*
X7121D01*
X7138Y24793D01*
X7118Y24778D01*
X7055Y24695D01*
X7015Y24599D01*
X7008Y24546D01*
X7400D01*
X7792D01*
X7785Y24599D01*
X7745Y24695D01*
X7682Y24778D01*
X7662Y24793D01*
X7679Y24843D01*
X8121D01*
X8138Y24793D01*
X8118Y24778D01*
X8055Y24695D01*
X8015Y24599D01*
X8008Y24546D01*
X8400D01*
X8792D01*
X8785Y24599D01*
X8745Y24695D01*
X8682Y24778D01*
X8662Y24793D01*
X8679Y24843D01*
X9121D01*
X9138Y24793D01*
X9118Y24778D01*
X9055Y24695D01*
X9015Y24599D01*
X9008Y24546D01*
X9400D01*
X9792D01*
X9785Y24599D01*
X9745Y24695D01*
X9682Y24778D01*
X9662Y24793D01*
X9679Y24843D01*
X10121D01*
X10138Y24793D01*
X10118Y24778D01*
X10055Y24695D01*
X10015Y24599D01*
X10008Y24546D01*
X10400D01*
X10792D01*
X10785Y24599D01*
X10745Y24695D01*
X10682Y24778D01*
X10662Y24793D01*
X10679Y24843D01*
X11121D01*
X11138Y24793D01*
X11118Y24778D01*
X11055Y24695D01*
X11015Y24599D01*
X11008Y24546D01*
X11400D01*
X11792D01*
X11785Y24599D01*
X11745Y24695D01*
X11682Y24778D01*
X11662Y24793D01*
X11679Y24843D01*
X12121D01*
X12138Y24793D01*
X12118Y24778D01*
X12055Y24695D01*
X12015Y24599D01*
X12008Y24546D01*
X12400D01*
X12792D01*
X12785Y24599D01*
X12745Y24695D01*
X12682Y24778D01*
X12662Y24793D01*
X12679Y24843D01*
X13121D01*
X13138Y24793D01*
X13118Y24778D01*
X13055Y24695D01*
X13015Y24599D01*
X13008Y24546D01*
X13400D01*
X13792D01*
X13785Y24599D01*
X13745Y24695D01*
X13682Y24778D01*
X13662Y24793D01*
X13679Y24843D01*
X14121D01*
X14138Y24793D01*
X14118Y24778D01*
X14055Y24695D01*
X14015Y24599D01*
X14008Y24546D01*
X14400D01*
X14792D01*
X14785Y24599D01*
X14745Y24695D01*
X14682Y24778D01*
X14662Y24793D01*
X14679Y24843D01*
X15121D01*
X15138Y24793D01*
X15118Y24778D01*
X15055Y24695D01*
X15015Y24599D01*
X15008Y24546D01*
X15400D01*
X15792D01*
X15785Y24599D01*
X15745Y24695D01*
X15682Y24778D01*
X15662Y24793D01*
X15679Y24843D01*
X16005D01*
Y24546D01*
X16400D01*
X16795D01*
Y24843D01*
X17721D01*
X17738Y24793D01*
X17718Y24778D01*
X17655Y24695D01*
X17615Y24599D01*
X17608Y24546D01*
X18000D01*
X18392D01*
X18385Y24599D01*
X18345Y24695D01*
X18282Y24778D01*
X18262Y24793D01*
X18279Y24843D01*
X18721D01*
X18738Y24793D01*
X18718Y24778D01*
X18655Y24695D01*
X18615Y24599D01*
X18608Y24546D01*
X19000D01*
X19392D01*
X19385Y24599D01*
X19345Y24695D01*
X19282Y24778D01*
X19262Y24793D01*
X19279Y24843D01*
X19721D01*
X19738Y24793D01*
X19718Y24778D01*
X19655Y24695D01*
X19615Y24599D01*
X19608Y24546D01*
X20000D01*
X20392D01*
X20385Y24599D01*
X20345Y24695D01*
X20282Y24778D01*
X20262Y24793D01*
X20279Y24843D01*
X20721D01*
X20738Y24793D01*
X20718Y24778D01*
X20655Y24695D01*
X20615Y24599D01*
X20608Y24546D01*
X21000D01*
X21392D01*
X21385Y24599D01*
X21345Y24695D01*
X21282Y24778D01*
X21262Y24793D01*
X21279Y24843D01*
X21721D01*
X21738Y24793D01*
X21718Y24778D01*
X21655Y24695D01*
X21615Y24599D01*
X21608Y24546D01*
X22000D01*
X22392D01*
X22385Y24599D01*
X22345Y24695D01*
X22282Y24778D01*
X22262Y24793D01*
X22279Y24843D01*
X22721D01*
X22738Y24793D01*
X22718Y24778D01*
X22655Y24695D01*
X22615Y24599D01*
X22608Y24546D01*
X23000D01*
X23392D01*
X23385Y24599D01*
X23345Y24695D01*
X23282Y24778D01*
X23262Y24793D01*
X23279Y24843D01*
X23721D01*
X23738Y24793D01*
X23718Y24778D01*
X23655Y24695D01*
X23615Y24599D01*
X23608Y24546D01*
X24000D01*
X24392D01*
X24385Y24599D01*
X24345Y24695D01*
X24282Y24778D01*
X24262Y24793D01*
X24279Y24843D01*
X24605D01*
Y24546D01*
X25000D01*
X25395D01*
Y24843D01*
X26721D01*
X26738Y24793D01*
X26718Y24778D01*
X26655Y24695D01*
X26615Y24599D01*
X26608Y24546D01*
X27000D01*
X27392D01*
X27385Y24599D01*
X27345Y24695D01*
X27282Y24778D01*
X27262Y24793D01*
X27279Y24843D01*
X27721D01*
X27738Y24793D01*
X27718Y24778D01*
X27655Y24695D01*
X27615Y24599D01*
X27608Y24546D01*
X28000D01*
X28392D01*
X28385Y24599D01*
X28345Y24695D01*
X28282Y24778D01*
X28262Y24793D01*
X28279Y24843D01*
X28721D01*
X28738Y24793D01*
X28718Y24778D01*
X28655Y24695D01*
X28615Y24599D01*
X28608Y24546D01*
X29000D01*
X29392D01*
X29385Y24599D01*
X29345Y24695D01*
X29282Y24778D01*
X29262Y24793D01*
X29279Y24843D01*
X29721D01*
X29738Y24793D01*
X29718Y24778D01*
X29655Y24695D01*
X29615Y24599D01*
X29608Y24546D01*
X30000D01*
X30392D01*
X30385Y24599D01*
X30345Y24695D01*
X30282Y24778D01*
X30262Y24793D01*
X30279Y24843D01*
X30721D01*
X30738Y24793D01*
X30718Y24778D01*
X30655Y24695D01*
X30615Y24599D01*
X30608Y24546D01*
X31000D01*
X31392D01*
X31385Y24599D01*
X31345Y24695D01*
X31282Y24778D01*
X31262Y24793D01*
X31279Y24843D01*
X31721D01*
X31738Y24793D01*
X31718Y24778D01*
X31655Y24695D01*
X31615Y24599D01*
X31608Y24546D01*
X32000D01*
X32392D01*
X32385Y24599D01*
X32345Y24695D01*
X32282Y24778D01*
X32262Y24793D01*
X32279Y24843D01*
X32721D01*
X32738Y24793D01*
X32718Y24778D01*
X32655Y24695D01*
X32615Y24599D01*
X32608Y24546D01*
X33000D01*
X33392D01*
X33385Y24599D01*
X33345Y24695D01*
X33282Y24778D01*
X33262Y24793D01*
X33279Y24843D01*
X33721D01*
X33738Y24793D01*
X33718Y24778D01*
X33655Y24695D01*
X33615Y24599D01*
X33608Y24546D01*
X34000D01*
X34392D01*
X34385Y24599D01*
X34345Y24695D01*
X34282Y24778D01*
X34262Y24793D01*
X34279Y24843D01*
X34605D01*
Y24546D01*
X35000D01*
X35395D01*
Y24843D01*
X38600D01*
X38607Y24844D01*
X38696Y24827D01*
D02*
G37*
%LPC*%
G36*
X1580Y24698D02*
Y24356D01*
X1922D01*
X1915Y24409D01*
X1875Y24505D01*
X1812Y24588D01*
X1729Y24651D01*
X1633Y24691D01*
X1580Y24698D01*
D02*
G37*
G36*
X1480D02*
X1427Y24691D01*
X1331Y24651D01*
X1248Y24588D01*
X1185Y24505D01*
X1145Y24409D01*
X1138Y24356D01*
X1480D01*
Y24698D01*
D02*
G37*
G36*
X34392Y24446D02*
X34050D01*
Y24104D01*
X34103Y24111D01*
X34199Y24151D01*
X34282Y24214D01*
X34345Y24297D01*
X34385Y24393D01*
X34392Y24446D01*
D02*
G37*
G36*
X33392D02*
X33050D01*
Y24104D01*
X33103Y24111D01*
X33199Y24151D01*
X33282Y24214D01*
X33345Y24297D01*
X33385Y24393D01*
X33392Y24446D01*
D02*
G37*
G36*
X32392D02*
X32050D01*
Y24104D01*
X32103Y24111D01*
X32199Y24151D01*
X32282Y24214D01*
X32345Y24297D01*
X32385Y24393D01*
X32392Y24446D01*
D02*
G37*
G36*
X31392D02*
X31050D01*
Y24104D01*
X31103Y24111D01*
X31199Y24151D01*
X31282Y24214D01*
X31345Y24297D01*
X31385Y24393D01*
X31392Y24446D01*
D02*
G37*
G36*
X30392D02*
X30050D01*
Y24104D01*
X30103Y24111D01*
X30199Y24151D01*
X30282Y24214D01*
X30345Y24297D01*
X30385Y24393D01*
X30392Y24446D01*
D02*
G37*
G36*
X29392D02*
X29050D01*
Y24104D01*
X29103Y24111D01*
X29199Y24151D01*
X29282Y24214D01*
X29345Y24297D01*
X29385Y24393D01*
X29392Y24446D01*
D02*
G37*
G36*
X28392D02*
X28050D01*
Y24104D01*
X28103Y24111D01*
X28199Y24151D01*
X28282Y24214D01*
X28345Y24297D01*
X28385Y24393D01*
X28392Y24446D01*
D02*
G37*
G36*
X27392D02*
X27050D01*
Y24104D01*
X27103Y24111D01*
X27199Y24151D01*
X27282Y24214D01*
X27345Y24297D01*
X27385Y24393D01*
X27392Y24446D01*
D02*
G37*
G36*
X33950D02*
X33608D01*
X33615Y24393D01*
X33655Y24297D01*
X33718Y24214D01*
X33801Y24151D01*
X33897Y24111D01*
X33950Y24104D01*
Y24446D01*
D02*
G37*
G36*
X32950D02*
X32608D01*
X32615Y24393D01*
X32655Y24297D01*
X32718Y24214D01*
X32801Y24151D01*
X32897Y24111D01*
X32950Y24104D01*
Y24446D01*
D02*
G37*
G36*
X31950D02*
X31608D01*
X31615Y24393D01*
X31655Y24297D01*
X31718Y24214D01*
X31801Y24151D01*
X31897Y24111D01*
X31950Y24104D01*
Y24446D01*
D02*
G37*
G36*
X30950D02*
X30608D01*
X30615Y24393D01*
X30655Y24297D01*
X30718Y24214D01*
X30801Y24151D01*
X30897Y24111D01*
X30950Y24104D01*
Y24446D01*
D02*
G37*
G36*
X29950D02*
X29608D01*
X29615Y24393D01*
X29655Y24297D01*
X29718Y24214D01*
X29801Y24151D01*
X29897Y24111D01*
X29950Y24104D01*
Y24446D01*
D02*
G37*
G36*
X28950D02*
X28608D01*
X28615Y24393D01*
X28655Y24297D01*
X28718Y24214D01*
X28801Y24151D01*
X28897Y24111D01*
X28950Y24104D01*
Y24446D01*
D02*
G37*
G36*
X27950D02*
X27608D01*
X27615Y24393D01*
X27655Y24297D01*
X27718Y24214D01*
X27801Y24151D01*
X27897Y24111D01*
X27950Y24104D01*
Y24446D01*
D02*
G37*
G36*
X26950D02*
X26608D01*
X26615Y24393D01*
X26655Y24297D01*
X26718Y24214D01*
X26801Y24151D01*
X26897Y24111D01*
X26950Y24104D01*
Y24446D01*
D02*
G37*
G36*
X24392Y24446D02*
X24050D01*
Y24104D01*
X24103Y24111D01*
X24199Y24151D01*
X24282Y24214D01*
X24345Y24297D01*
X24385Y24393D01*
X24392Y24446D01*
D02*
G37*
G36*
X23392D02*
X23050D01*
Y24104D01*
X23103Y24111D01*
X23199Y24151D01*
X23282Y24214D01*
X23345Y24297D01*
X23385Y24393D01*
X23392Y24446D01*
D02*
G37*
G36*
X22392D02*
X22050D01*
Y24104D01*
X22103Y24111D01*
X22199Y24151D01*
X22282Y24214D01*
X22345Y24297D01*
X22385Y24393D01*
X22392Y24446D01*
D02*
G37*
G36*
X21392D02*
X21050D01*
Y24104D01*
X21103Y24111D01*
X21199Y24151D01*
X21282Y24214D01*
X21345Y24297D01*
X21385Y24393D01*
X21392Y24446D01*
D02*
G37*
G36*
X20392D02*
X20050D01*
Y24104D01*
X20103Y24111D01*
X20199Y24151D01*
X20282Y24214D01*
X20345Y24297D01*
X20385Y24393D01*
X20392Y24446D01*
D02*
G37*
G36*
X19392D02*
X19050D01*
Y24104D01*
X19103Y24111D01*
X19199Y24151D01*
X19282Y24214D01*
X19345Y24297D01*
X19385Y24393D01*
X19392Y24446D01*
D02*
G37*
G36*
X18392D02*
X18050D01*
Y24104D01*
X18103Y24111D01*
X18199Y24151D01*
X18282Y24214D01*
X18345Y24297D01*
X18385Y24393D01*
X18392Y24446D01*
D02*
G37*
G36*
X15792D02*
X15450D01*
Y24104D01*
X15503Y24111D01*
X15599Y24151D01*
X15682Y24214D01*
X15745Y24297D01*
X15785Y24393D01*
X15792Y24446D01*
D02*
G37*
G36*
X14792D02*
X14450D01*
Y24104D01*
X14503Y24111D01*
X14599Y24151D01*
X14682Y24214D01*
X14745Y24297D01*
X14785Y24393D01*
X14792Y24446D01*
D02*
G37*
G36*
X13792D02*
X13450D01*
Y24104D01*
X13503Y24111D01*
X13599Y24151D01*
X13682Y24214D01*
X13745Y24297D01*
X13785Y24393D01*
X13792Y24446D01*
D02*
G37*
G36*
X12792D02*
X12450D01*
Y24104D01*
X12503Y24111D01*
X12599Y24151D01*
X12682Y24214D01*
X12745Y24297D01*
X12785Y24393D01*
X12792Y24446D01*
D02*
G37*
G36*
X11792D02*
X11450D01*
Y24104D01*
X11503Y24111D01*
X11599Y24151D01*
X11682Y24214D01*
X11745Y24297D01*
X11785Y24393D01*
X11792Y24446D01*
D02*
G37*
G36*
X10792D02*
X10450D01*
Y24104D01*
X10503Y24111D01*
X10599Y24151D01*
X10682Y24214D01*
X10745Y24297D01*
X10785Y24393D01*
X10792Y24446D01*
D02*
G37*
G36*
X9792D02*
X9450D01*
Y24104D01*
X9503Y24111D01*
X9599Y24151D01*
X9682Y24214D01*
X9745Y24297D01*
X9785Y24393D01*
X9792Y24446D01*
D02*
G37*
G36*
X8792D02*
X8450D01*
Y24104D01*
X8503Y24111D01*
X8599Y24151D01*
X8682Y24214D01*
X8745Y24297D01*
X8785Y24393D01*
X8792Y24446D01*
D02*
G37*
G36*
X7792D02*
X7450D01*
Y24104D01*
X7503Y24111D01*
X7599Y24151D01*
X7682Y24214D01*
X7745Y24297D01*
X7785Y24393D01*
X7792Y24446D01*
D02*
G37*
G36*
X23950D02*
X23608D01*
X23615Y24393D01*
X23655Y24297D01*
X23718Y24214D01*
X23801Y24151D01*
X23897Y24111D01*
X23950Y24104D01*
Y24446D01*
D02*
G37*
G36*
X22950D02*
X22608D01*
X22615Y24393D01*
X22655Y24297D01*
X22718Y24214D01*
X22801Y24151D01*
X22897Y24111D01*
X22950Y24104D01*
Y24446D01*
D02*
G37*
G36*
X21950D02*
X21608D01*
X21615Y24393D01*
X21655Y24297D01*
X21718Y24214D01*
X21801Y24151D01*
X21897Y24111D01*
X21950Y24104D01*
Y24446D01*
D02*
G37*
G36*
X20950D02*
X20608D01*
X20615Y24393D01*
X20655Y24297D01*
X20718Y24214D01*
X20801Y24151D01*
X20897Y24111D01*
X20950Y24104D01*
Y24446D01*
D02*
G37*
G36*
X19950D02*
X19608D01*
X19615Y24393D01*
X19655Y24297D01*
X19718Y24214D01*
X19801Y24151D01*
X19897Y24111D01*
X19950Y24104D01*
Y24446D01*
D02*
G37*
G36*
X18950D02*
X18608D01*
X18615Y24393D01*
X18655Y24297D01*
X18718Y24214D01*
X18801Y24151D01*
X18897Y24111D01*
X18950Y24104D01*
Y24446D01*
D02*
G37*
G36*
X17950D02*
X17608D01*
X17615Y24393D01*
X17655Y24297D01*
X17718Y24214D01*
X17801Y24151D01*
X17897Y24111D01*
X17950Y24104D01*
Y24446D01*
D02*
G37*
G36*
X15350D02*
X15008D01*
X15015Y24393D01*
X15055Y24297D01*
X15118Y24214D01*
X15201Y24151D01*
X15297Y24111D01*
X15350Y24104D01*
Y24446D01*
D02*
G37*
G36*
X14350D02*
X14008D01*
X14015Y24393D01*
X14055Y24297D01*
X14118Y24214D01*
X14201Y24151D01*
X14297Y24111D01*
X14350Y24104D01*
Y24446D01*
D02*
G37*
G36*
X13350D02*
X13008D01*
X13015Y24393D01*
X13055Y24297D01*
X13118Y24214D01*
X13201Y24151D01*
X13297Y24111D01*
X13350Y24104D01*
Y24446D01*
D02*
G37*
G36*
X12350D02*
X12008D01*
X12015Y24393D01*
X12055Y24297D01*
X12118Y24214D01*
X12201Y24151D01*
X12297Y24111D01*
X12350Y24104D01*
Y24446D01*
D02*
G37*
G36*
X11350D02*
X11008D01*
X11015Y24393D01*
X11055Y24297D01*
X11118Y24214D01*
X11201Y24151D01*
X11297Y24111D01*
X11350Y24104D01*
Y24446D01*
D02*
G37*
G36*
X10350D02*
X10008D01*
X10015Y24393D01*
X10055Y24297D01*
X10118Y24214D01*
X10201Y24151D01*
X10297Y24111D01*
X10350Y24104D01*
Y24446D01*
D02*
G37*
G36*
X9350D02*
X9008D01*
X9015Y24393D01*
X9055Y24297D01*
X9118Y24214D01*
X9201Y24151D01*
X9297Y24111D01*
X9350Y24104D01*
Y24446D01*
D02*
G37*
G36*
X8350D02*
X8008D01*
X8015Y24393D01*
X8055Y24297D01*
X8118Y24214D01*
X8201Y24151D01*
X8297Y24111D01*
X8350Y24104D01*
Y24446D01*
D02*
G37*
G36*
X7350D02*
X7008D01*
X7015Y24393D01*
X7055Y24297D01*
X7118Y24214D01*
X7201Y24151D01*
X7297Y24111D01*
X7350Y24104D01*
Y24446D01*
D02*
G37*
G36*
X35395Y24446D02*
X35050D01*
Y24101D01*
X35395D01*
Y24446D01*
D02*
G37*
G36*
X34950D02*
X34605D01*
Y24101D01*
X34950D01*
Y24446D01*
D02*
G37*
G36*
X25395Y24446D02*
X25050D01*
Y24101D01*
X25395D01*
Y24446D01*
D02*
G37*
G36*
X24950D02*
X24605D01*
Y24101D01*
X24950D01*
Y24446D01*
D02*
G37*
G36*
X16795D02*
X16450D01*
Y24101D01*
X16795D01*
Y24446D01*
D02*
G37*
G36*
X16350D02*
X16005D01*
Y24101D01*
X16350D01*
Y24446D01*
D02*
G37*
G36*
X1922Y24256D02*
X1580D01*
Y23914D01*
X1633Y23921D01*
X1729Y23961D01*
X1812Y24024D01*
X1875Y24107D01*
X1915Y24203D01*
X1922Y24256D01*
D02*
G37*
G36*
X1480D02*
X1138D01*
X1145Y24203D01*
X1185Y24107D01*
X1248Y24024D01*
X1331Y23961D01*
X1427Y23921D01*
X1480Y23914D01*
Y24256D01*
D02*
G37*
G36*
X10450Y23888D02*
Y23546D01*
X10792D01*
X10785Y23599D01*
X10745Y23695D01*
X10682Y23778D01*
X10599Y23841D01*
X10503Y23881D01*
X10450Y23888D01*
D02*
G37*
G36*
X10350Y23888D02*
X10297Y23881D01*
X10201Y23841D01*
X10118Y23778D01*
X10055Y23695D01*
X10015Y23599D01*
X10008Y23546D01*
X10350D01*
Y23888D01*
D02*
G37*
G36*
X37973Y24096D02*
X37843Y24079D01*
X37723Y24029D01*
X37619Y23950D01*
X37540Y23846D01*
X37490Y23725D01*
X37473Y23596D01*
X37490Y23467D01*
X37540Y23346D01*
X37619Y23242D01*
X37723Y23163D01*
X37843Y23113D01*
X37973Y23096D01*
X38102Y23113D01*
X38223Y23163D01*
X38326Y23242D01*
X38406Y23346D01*
X38456Y23467D01*
X38473Y23596D01*
X38456Y23725D01*
X38406Y23846D01*
X38326Y23950D01*
X38223Y24029D01*
X38102Y24079D01*
X37973Y24096D01*
D02*
G37*
G36*
X10792Y23446D02*
X10400D01*
X10008D01*
X10015Y23393D01*
X10055Y23297D01*
X10118Y23214D01*
X10197Y23154D01*
X10197Y23148D01*
X10163Y23104D01*
X10099D01*
Y22623D01*
X10400D01*
X10701D01*
Y23104D01*
X10637D01*
X10603Y23148D01*
X10603Y23154D01*
X10682Y23214D01*
X10745Y23297D01*
X10785Y23393D01*
X10792Y23446D01*
D02*
G37*
G36*
X7400Y23895D02*
X7297Y23881D01*
X7201Y23841D01*
X7118Y23778D01*
X7055Y23695D01*
X7015Y23599D01*
X7001Y23496D01*
X7015Y23393D01*
X7055Y23297D01*
X7118Y23214D01*
X7197Y23154D01*
X7197Y23148D01*
X7163Y23104D01*
X7099D01*
Y22236D01*
X7049Y22230D01*
X7025Y22329D01*
X6961Y22485D01*
X6872Y22630D01*
X6762Y22758D01*
X6634Y22868D01*
X6489Y22957D01*
X6333Y23021D01*
X6169Y23061D01*
X6000Y23074D01*
X5831Y23061D01*
X5667Y23021D01*
X5511Y22957D01*
X5366Y22868D01*
X5238Y22758D01*
X5128Y22630D01*
X5039Y22485D01*
X4975Y22329D01*
X4935Y22165D01*
X4922Y21996D01*
X4935Y21827D01*
X4975Y21663D01*
X5039Y21507D01*
X5128Y21362D01*
X5238Y21234D01*
X5366Y21124D01*
X5511Y21035D01*
X5667Y20971D01*
X5831Y20931D01*
X6000Y20918D01*
X6169Y20931D01*
X6333Y20971D01*
X6489Y21035D01*
X6634Y21124D01*
X6762Y21234D01*
X6872Y21362D01*
X6961Y21507D01*
X7025Y21663D01*
X7049Y21762D01*
X7099Y21756D01*
Y20888D01*
X7701D01*
Y21950D01*
X7633D01*
X7601Y21989D01*
X7602Y21996D01*
X7601Y22003D01*
X7633Y22042D01*
X7701D01*
Y23104D01*
X7637D01*
X7603Y23148D01*
X7603Y23154D01*
X7682Y23214D01*
X7745Y23297D01*
X7785Y23393D01*
X7799Y23496D01*
X7785Y23599D01*
X7745Y23695D01*
X7682Y23778D01*
X7599Y23841D01*
X7503Y23881D01*
X7400Y23895D01*
D02*
G37*
G36*
X3720Y22632D02*
X3643Y22617D01*
X3577Y22573D01*
X3533Y22507D01*
X3518Y22430D01*
X3533Y22353D01*
X3577Y22287D01*
X3643Y22243D01*
X3720Y22228D01*
X3797Y22243D01*
X3863Y22287D01*
X3907Y22353D01*
X3922Y22430D01*
X3907Y22507D01*
X3863Y22573D01*
X3797Y22617D01*
X3720Y22632D01*
D02*
G37*
G36*
X10701Y22523D02*
X10450D01*
Y22042D01*
X10701D01*
Y22523D01*
D02*
G37*
G36*
X10350D02*
X10099D01*
Y22042D01*
X10350D01*
Y22523D01*
D02*
G37*
G36*
X10701Y21950D02*
X10450D01*
Y21469D01*
X10701D01*
Y21950D01*
D02*
G37*
G36*
X10350D02*
X10099D01*
Y21469D01*
X10350D01*
Y21950D01*
D02*
G37*
G36*
X30000Y23895D02*
X29897Y23881D01*
X29801Y23841D01*
X29718Y23778D01*
X29655Y23695D01*
X29615Y23599D01*
X29601Y23496D01*
X29615Y23393D01*
X29655Y23297D01*
X29718Y23214D01*
X29797Y23154D01*
X29797Y23148D01*
X29763Y23104D01*
X29699D01*
Y22042D01*
X29767D01*
X29799Y22003D01*
X29798Y21996D01*
X29799Y21989D01*
X29767Y21950D01*
X29699D01*
Y20888D01*
X30301D01*
Y21950D01*
X30233D01*
X30201Y21989D01*
X30202Y21996D01*
X30201Y22003D01*
X30233Y22042D01*
X30301D01*
Y23104D01*
X30237D01*
X30203Y23148D01*
X30203Y23154D01*
X30282Y23214D01*
X30345Y23297D01*
X30385Y23393D01*
X30399Y23496D01*
X30385Y23599D01*
X30345Y23695D01*
X30282Y23778D01*
X30199Y23841D01*
X30103Y23881D01*
X30000Y23895D01*
D02*
G37*
G36*
X29000D02*
X28897Y23881D01*
X28801Y23841D01*
X28718Y23778D01*
X28655Y23695D01*
X28615Y23599D01*
X28601Y23496D01*
X28615Y23393D01*
X28655Y23297D01*
X28718Y23214D01*
X28797Y23154D01*
X28797Y23148D01*
X28763Y23104D01*
X28699D01*
Y22042D01*
X28767D01*
X28799Y22003D01*
X28798Y21996D01*
X28799Y21989D01*
X28767Y21950D01*
X28699D01*
Y20888D01*
X29301D01*
Y21950D01*
X29233D01*
X29201Y21989D01*
X29202Y21996D01*
X29201Y22003D01*
X29233Y22042D01*
X29301D01*
Y23104D01*
X29237D01*
X29203Y23148D01*
X29203Y23154D01*
X29282Y23214D01*
X29345Y23297D01*
X29385Y23393D01*
X29399Y23496D01*
X29385Y23599D01*
X29345Y23695D01*
X29282Y23778D01*
X29199Y23841D01*
X29103Y23881D01*
X29000Y23895D01*
D02*
G37*
G36*
X11400Y23895D02*
X11297Y23881D01*
X11201Y23841D01*
X11118Y23778D01*
X11055Y23695D01*
X11015Y23599D01*
X11001Y23496D01*
X11015Y23393D01*
X11055Y23297D01*
X11118Y23214D01*
X11197Y23154D01*
X11197Y23148D01*
X11163Y23104D01*
X11099D01*
Y22042D01*
X11167D01*
X11199Y22003D01*
X11198Y21996D01*
X11199Y21989D01*
X11167Y21950D01*
X11099D01*
Y20888D01*
X11701D01*
Y21950D01*
X11633D01*
X11601Y21989D01*
X11602Y21996D01*
X11601Y22003D01*
X11633Y22042D01*
X11701D01*
Y23104D01*
X11637D01*
X11603Y23148D01*
X11603Y23154D01*
X11682Y23214D01*
X11745Y23297D01*
X11785Y23393D01*
X11799Y23496D01*
X11785Y23599D01*
X11745Y23695D01*
X11682Y23778D01*
X11599Y23841D01*
X11503Y23881D01*
X11400Y23895D01*
D02*
G37*
G36*
X10701Y21369D02*
X10450D01*
Y20888D01*
X10701D01*
Y21369D01*
D02*
G37*
G36*
X10350D02*
X10099D01*
Y20888D01*
X10350D01*
Y21369D01*
D02*
G37*
G36*
X8400Y23895D02*
X8297Y23881D01*
X8201Y23841D01*
X8118Y23778D01*
X8055Y23695D01*
X8015Y23599D01*
X8001Y23496D01*
X8015Y23393D01*
X8055Y23297D01*
X8118Y23214D01*
X8197Y23154D01*
X8197Y23148D01*
X8163Y23104D01*
X8099D01*
Y22042D01*
X8167D01*
X8199Y22003D01*
X8198Y21996D01*
X8199Y21989D01*
X8167Y21950D01*
X8099D01*
Y20888D01*
X8701D01*
Y21950D01*
X8633D01*
X8601Y21989D01*
X8602Y21996D01*
X8601Y22003D01*
X8633Y22042D01*
X8701D01*
Y23104D01*
X8637D01*
X8603Y23148D01*
X8603Y23154D01*
X8682Y23214D01*
X8745Y23297D01*
X8785Y23393D01*
X8799Y23496D01*
X8785Y23599D01*
X8745Y23695D01*
X8682Y23778D01*
X8599Y23841D01*
X8503Y23881D01*
X8400Y23895D01*
D02*
G37*
G36*
X35000Y23895D02*
X34897Y23881D01*
X34801Y23841D01*
X34718Y23778D01*
X34655Y23695D01*
X34615Y23599D01*
X34601Y23496D01*
X34615Y23393D01*
X34655Y23297D01*
X34718Y23214D01*
X34797Y23154D01*
X34797Y23148D01*
X34763Y23104D01*
X34699D01*
Y22042D01*
X34767D01*
X34799Y22003D01*
X34798Y21996D01*
X34799Y21989D01*
X34767Y21950D01*
X34699D01*
Y21077D01*
X34324Y20701D01*
X34278Y20720D01*
Y20888D01*
X34301D01*
Y21950D01*
X34233D01*
X34201Y21989D01*
X34202Y21996D01*
X34201Y22003D01*
X34233Y22042D01*
X34301D01*
Y23104D01*
X34237D01*
X34203Y23148D01*
X34203Y23154D01*
X34282Y23214D01*
X34345Y23297D01*
X34385Y23393D01*
X34399Y23496D01*
X34385Y23599D01*
X34345Y23695D01*
X34282Y23778D01*
X34199Y23841D01*
X34103Y23881D01*
X34000Y23895D01*
X33897Y23881D01*
X33801Y23841D01*
X33718Y23778D01*
X33655Y23695D01*
X33615Y23599D01*
X33601Y23496D01*
X33615Y23393D01*
X33655Y23297D01*
X33718Y23214D01*
X33797Y23154D01*
X33797Y23148D01*
X33763Y23104D01*
X33699D01*
Y22728D01*
X33301D01*
Y23104D01*
X33237D01*
X33203Y23148D01*
X33203Y23154D01*
X33282Y23214D01*
X33345Y23297D01*
X33385Y23393D01*
X33399Y23496D01*
X33385Y23599D01*
X33345Y23695D01*
X33282Y23778D01*
X33199Y23841D01*
X33103Y23881D01*
X33000Y23895D01*
X32897Y23881D01*
X32801Y23841D01*
X32718Y23778D01*
X32655Y23695D01*
X32615Y23599D01*
X32601Y23496D01*
X32615Y23393D01*
X32655Y23297D01*
X32718Y23214D01*
X32797Y23154D01*
X32797Y23148D01*
X32763Y23104D01*
X32699D01*
Y22042D01*
X32767D01*
X32799Y22003D01*
X32798Y21996D01*
X32799Y21989D01*
X32767Y21950D01*
X32699D01*
Y21067D01*
X32515Y20883D01*
X32348D01*
X32301Y20888D01*
X32301Y20933D01*
Y21950D01*
X32233D01*
X32201Y21989D01*
X32202Y21996D01*
X32201Y22003D01*
X32233Y22042D01*
X32301D01*
Y23104D01*
X32237D01*
X32203Y23148D01*
X32203Y23154D01*
X32282Y23214D01*
X32345Y23297D01*
X32385Y23393D01*
X32399Y23496D01*
X32385Y23599D01*
X32345Y23695D01*
X32282Y23778D01*
X32199Y23841D01*
X32103Y23881D01*
X32000Y23895D01*
X31897Y23881D01*
X31801Y23841D01*
X31718Y23778D01*
X31655Y23695D01*
X31615Y23599D01*
X31601Y23496D01*
X31615Y23393D01*
X31655Y23297D01*
X31718Y23214D01*
X31797Y23154D01*
X31797Y23148D01*
X31763Y23104D01*
X31699D01*
Y22042D01*
X31767D01*
X31799Y22003D01*
X31798Y21996D01*
X31799Y21989D01*
X31767Y21950D01*
X31699D01*
Y20933D01*
X31699Y20888D01*
X31652Y20883D01*
X31348D01*
X31301Y20888D01*
X31301Y20933D01*
Y21950D01*
X31233D01*
X31201Y21989D01*
X31202Y21996D01*
X31201Y22003D01*
X31233Y22042D01*
X31301D01*
Y23104D01*
X31237D01*
X31203Y23148D01*
X31203Y23154D01*
X31282Y23214D01*
X31345Y23297D01*
X31385Y23393D01*
X31399Y23496D01*
X31385Y23599D01*
X31345Y23695D01*
X31282Y23778D01*
X31199Y23841D01*
X31103Y23881D01*
X31000Y23895D01*
X30897Y23881D01*
X30801Y23841D01*
X30718Y23778D01*
X30655Y23695D01*
X30615Y23599D01*
X30601Y23496D01*
X30615Y23393D01*
X30655Y23297D01*
X30718Y23214D01*
X30797Y23154D01*
X30797Y23148D01*
X30763Y23104D01*
X30699D01*
Y22042D01*
X30767D01*
X30799Y22003D01*
X30798Y21996D01*
X30799Y21989D01*
X30767Y21950D01*
X30699D01*
Y20933D01*
X30699Y20888D01*
X30652Y20883D01*
X30620D01*
X30569Y20872D01*
X30526Y20844D01*
X29556Y19874D01*
X29528Y19831D01*
X29517Y19780D01*
X29517Y18918D01*
X28199Y17599D01*
X28153Y17618D01*
Y18265D01*
X28764Y18877D01*
X28792Y18920D01*
X28803Y18970D01*
Y20520D01*
X28803Y20520D01*
X28792Y20571D01*
X28764Y20614D01*
X28301Y21077D01*
Y21950D01*
X28233D01*
X28201Y21989D01*
X28202Y21996D01*
X28201Y22003D01*
X28233Y22042D01*
X28301D01*
Y23104D01*
X28237D01*
X28203Y23148D01*
X28203Y23154D01*
X28282Y23214D01*
X28345Y23297D01*
X28385Y23393D01*
X28399Y23496D01*
X28385Y23599D01*
X28345Y23695D01*
X28282Y23778D01*
X28199Y23841D01*
X28103Y23881D01*
X28000Y23895D01*
X27897Y23881D01*
X27801Y23841D01*
X27718Y23778D01*
X27655Y23695D01*
X27615Y23599D01*
X27601Y23496D01*
X27615Y23393D01*
X27655Y23297D01*
X27718Y23214D01*
X27797Y23154D01*
X27797Y23148D01*
X27763Y23104D01*
X27699D01*
Y22042D01*
X27767D01*
X27799Y22003D01*
X27798Y21996D01*
X27799Y21989D01*
X27767Y21950D01*
X27699D01*
Y20983D01*
X27395D01*
X27301Y21077D01*
Y21950D01*
X27233D01*
X27201Y21989D01*
X27202Y21996D01*
X27201Y22003D01*
X27233Y22042D01*
X27301D01*
Y23104D01*
X27237D01*
X27203Y23148D01*
X27203Y23154D01*
X27282Y23214D01*
X27345Y23297D01*
X27385Y23393D01*
X27399Y23496D01*
X27385Y23599D01*
X27345Y23695D01*
X27282Y23778D01*
X27199Y23841D01*
X27103Y23881D01*
X27000Y23895D01*
X26897Y23881D01*
X26801Y23841D01*
X26718Y23778D01*
X26655Y23695D01*
X26615Y23599D01*
X26601Y23496D01*
X26615Y23393D01*
X26655Y23297D01*
X26718Y23214D01*
X26797Y23154D01*
X26797Y23148D01*
X26763Y23104D01*
X26699D01*
Y22042D01*
X26767D01*
X26799Y22003D01*
X26798Y21996D01*
X26799Y21989D01*
X26767Y21950D01*
X26699D01*
Y20888D01*
X27114D01*
X27246Y20756D01*
X27289Y20728D01*
X27340Y20717D01*
X28113D01*
X28417Y20413D01*
Y19075D01*
X28370Y19028D01*
X28321Y19033D01*
X28303Y19059D01*
X28237Y19103D01*
X28160Y19118D01*
X28083Y19103D01*
X28017Y19059D01*
X27973Y18993D01*
X27958Y18916D01*
X27960Y18903D01*
X27899Y18842D01*
X27852Y18867D01*
X27862Y18916D01*
X27847Y18993D01*
X27803Y19059D01*
X27737Y19103D01*
X27660Y19118D01*
X27583Y19103D01*
X27517Y19059D01*
X27487Y19014D01*
X27317D01*
X27303Y19035D01*
X27237Y19079D01*
X27160Y19094D01*
X27083Y19079D01*
X27017Y19035D01*
X27003Y19014D01*
X26860D01*
X26819Y19036D01*
X26803Y19059D01*
X26737Y19103D01*
X26660Y19118D01*
X26583Y19103D01*
X26517Y19059D01*
X26473Y18993D01*
X26472Y18986D01*
X26460Y18941D01*
X26456Y18941D01*
X26413Y18958D01*
Y19900D01*
X26402Y19951D01*
X26374Y19994D01*
X25301Y21067D01*
Y21950D01*
X25233D01*
X25201Y21989D01*
X25202Y21996D01*
X25201Y22003D01*
X25233Y22042D01*
X25301D01*
Y23104D01*
X25237D01*
X25203Y23148D01*
X25203Y23154D01*
X25282Y23214D01*
X25345Y23297D01*
X25385Y23393D01*
X25399Y23496D01*
X25385Y23599D01*
X25345Y23695D01*
X25282Y23778D01*
X25199Y23841D01*
X25103Y23881D01*
X25000Y23895D01*
X24897Y23881D01*
X24801Y23841D01*
X24718Y23778D01*
X24655Y23695D01*
X24615Y23599D01*
X24601Y23496D01*
X24615Y23393D01*
X24655Y23297D01*
X24718Y23214D01*
X24797Y23154D01*
X24797Y23148D01*
X24763Y23104D01*
X24699D01*
Y22042D01*
X24767D01*
X24799Y22003D01*
X24798Y21996D01*
X24799Y21989D01*
X24767Y21950D01*
X24699D01*
Y21112D01*
X24649Y21071D01*
X24639Y21073D01*
X24305D01*
X24301Y21077D01*
Y21950D01*
X24233D01*
X24201Y21989D01*
X24202Y21996D01*
X24201Y22003D01*
X24233Y22042D01*
X24301D01*
Y23104D01*
X24237D01*
X24203Y23148D01*
X24203Y23154D01*
X24282Y23214D01*
X24345Y23297D01*
X24385Y23393D01*
X24399Y23496D01*
X24385Y23599D01*
X24345Y23695D01*
X24282Y23778D01*
X24199Y23841D01*
X24103Y23881D01*
X24000Y23895D01*
X23897Y23881D01*
X23801Y23841D01*
X23718Y23778D01*
X23655Y23695D01*
X23615Y23599D01*
X23601Y23496D01*
X23615Y23393D01*
X23655Y23297D01*
X23718Y23214D01*
X23797Y23154D01*
X23797Y23148D01*
X23763Y23104D01*
X23699D01*
Y22042D01*
X23767D01*
X23799Y22003D01*
X23798Y21996D01*
X23799Y21989D01*
X23767Y21950D01*
X23699D01*
Y20953D01*
X23425D01*
X23301Y21077D01*
Y21950D01*
X23233D01*
X23201Y21989D01*
X23202Y21996D01*
X23201Y22003D01*
X23233Y22042D01*
X23301D01*
Y23104D01*
X23237D01*
X23203Y23148D01*
X23203Y23154D01*
X23282Y23214D01*
X23345Y23297D01*
X23385Y23393D01*
X23399Y23496D01*
X23385Y23599D01*
X23345Y23695D01*
X23282Y23778D01*
X23199Y23841D01*
X23103Y23881D01*
X23000Y23895D01*
X22897Y23881D01*
X22801Y23841D01*
X22718Y23778D01*
X22655Y23695D01*
X22615Y23599D01*
X22601Y23496D01*
X22615Y23393D01*
X22655Y23297D01*
X22718Y23214D01*
X22797Y23154D01*
X22797Y23148D01*
X22763Y23104D01*
X22699D01*
Y22042D01*
X22767D01*
X22799Y22003D01*
X22798Y21996D01*
X22799Y21989D01*
X22767Y21950D01*
X22699D01*
Y20888D01*
X23074D01*
X23077Y20883D01*
X23051Y20833D01*
X22545D01*
X22301Y21077D01*
Y21950D01*
X22233D01*
X22201Y21989D01*
X22202Y21996D01*
X22201Y22003D01*
X22233Y22042D01*
X22301D01*
Y23104D01*
X22237D01*
X22203Y23148D01*
X22203Y23154D01*
X22282Y23214D01*
X22345Y23297D01*
X22385Y23393D01*
X22399Y23496D01*
X22385Y23599D01*
X22345Y23695D01*
X22282Y23778D01*
X22199Y23841D01*
X22103Y23881D01*
X22000Y23895D01*
X21897Y23881D01*
X21801Y23841D01*
X21718Y23778D01*
X21655Y23695D01*
X21615Y23599D01*
X21601Y23496D01*
X21615Y23393D01*
X21655Y23297D01*
X21718Y23214D01*
X21797Y23154D01*
X21797Y23148D01*
X21763Y23104D01*
X21699D01*
Y22042D01*
X21767D01*
X21799Y22003D01*
X21798Y21996D01*
X21799Y21989D01*
X21767Y21950D01*
X21699D01*
Y21119D01*
X21653Y21100D01*
X21301Y21453D01*
Y21950D01*
X21233D01*
X21201Y21989D01*
X21202Y21996D01*
X21201Y22003D01*
X21233Y22042D01*
X21301D01*
Y23104D01*
X21237D01*
X21203Y23148D01*
X21203Y23154D01*
X21282Y23214D01*
X21345Y23297D01*
X21385Y23393D01*
X21399Y23496D01*
X21385Y23599D01*
X21345Y23695D01*
X21282Y23778D01*
X21199Y23841D01*
X21103Y23881D01*
X21000Y23895D01*
X20897Y23881D01*
X20801Y23841D01*
X20718Y23778D01*
X20655Y23695D01*
X20615Y23599D01*
X20601Y23496D01*
X20615Y23393D01*
X20655Y23297D01*
X20718Y23214D01*
X20797Y23154D01*
X20797Y23148D01*
X20763Y23104D01*
X20699D01*
Y22042D01*
X20767D01*
X20799Y22003D01*
X20798Y21996D01*
X20799Y21989D01*
X20767Y21950D01*
X20699D01*
Y20930D01*
X20453D01*
X20301Y21083D01*
Y21950D01*
X20233D01*
X20201Y21989D01*
X20202Y21996D01*
X20201Y22003D01*
X20233Y22042D01*
X20301D01*
Y23104D01*
X20237D01*
X20203Y23148D01*
X20203Y23154D01*
X20282Y23214D01*
X20345Y23297D01*
X20385Y23393D01*
X20399Y23496D01*
X20385Y23599D01*
X20345Y23695D01*
X20282Y23778D01*
X20199Y23841D01*
X20103Y23881D01*
X20000Y23895D01*
X19897Y23881D01*
X19801Y23841D01*
X19718Y23778D01*
X19655Y23695D01*
X19615Y23599D01*
X19601Y23496D01*
X19615Y23393D01*
X19655Y23297D01*
X19718Y23214D01*
X19797Y23154D01*
X19797Y23148D01*
X19763Y23104D01*
X19699D01*
Y22042D01*
X19767D01*
X19799Y22003D01*
X19798Y21996D01*
X19799Y21989D01*
X19767Y21950D01*
X19699D01*
Y20974D01*
X19653Y20954D01*
X19530Y21078D01*
X19532Y21090D01*
X19517Y21167D01*
X19473Y21233D01*
X19407Y21277D01*
X19330Y21292D01*
X19301Y21316D01*
Y21950D01*
X19233D01*
X19201Y21989D01*
X19202Y21996D01*
X19201Y22003D01*
X19233Y22042D01*
X19301D01*
Y23104D01*
X19237D01*
X19203Y23148D01*
X19203Y23154D01*
X19282Y23214D01*
X19345Y23297D01*
X19385Y23393D01*
X19399Y23496D01*
X19385Y23599D01*
X19345Y23695D01*
X19282Y23778D01*
X19199Y23841D01*
X19103Y23881D01*
X19000Y23895D01*
X18897Y23881D01*
X18801Y23841D01*
X18718Y23778D01*
X18655Y23695D01*
X18615Y23599D01*
X18601Y23496D01*
X18615Y23393D01*
X18655Y23297D01*
X18718Y23214D01*
X18797Y23154D01*
X18797Y23148D01*
X18763Y23104D01*
X18699D01*
Y22042D01*
X18767D01*
X18799Y22003D01*
X18798Y21996D01*
X18799Y21989D01*
X18767Y21950D01*
X18699D01*
Y20900D01*
X18473D01*
X18301Y21073D01*
Y21950D01*
X18233D01*
X18201Y21989D01*
X18202Y21996D01*
X18201Y22003D01*
X18233Y22042D01*
X18301D01*
Y23104D01*
X18237D01*
X18203Y23148D01*
X18203Y23154D01*
X18282Y23214D01*
X18345Y23297D01*
X18385Y23393D01*
X18399Y23496D01*
X18385Y23599D01*
X18345Y23695D01*
X18282Y23778D01*
X18199Y23841D01*
X18103Y23881D01*
X18000Y23895D01*
X17897Y23881D01*
X17801Y23841D01*
X17718Y23778D01*
X17655Y23695D01*
X17615Y23599D01*
X17601Y23496D01*
X17615Y23393D01*
X17655Y23297D01*
X17718Y23214D01*
X17797Y23154D01*
X17797Y23148D01*
X17763Y23104D01*
X17699D01*
Y22042D01*
X17767D01*
X17799Y22003D01*
X17798Y21996D01*
X17799Y21989D01*
X17767Y21950D01*
X17699D01*
Y20888D01*
X18110D01*
X18333Y20665D01*
X18316Y20612D01*
X18257Y20573D01*
X18213Y20507D01*
X18198Y20430D01*
X18213Y20353D01*
X18257Y20287D01*
X18264Y20283D01*
X18248Y20233D01*
X17553D01*
X16701Y21084D01*
Y21950D01*
X16633D01*
X16601Y21989D01*
X16602Y21996D01*
X16601Y22003D01*
X16633Y22042D01*
X16701D01*
Y23104D01*
X16637D01*
X16603Y23148D01*
X16603Y23154D01*
X16682Y23214D01*
X16745Y23297D01*
X16785Y23393D01*
X16799Y23496D01*
X16785Y23599D01*
X16745Y23695D01*
X16682Y23778D01*
X16599Y23841D01*
X16503Y23881D01*
X16400Y23895D01*
X16297Y23881D01*
X16201Y23841D01*
X16118Y23778D01*
X16055Y23695D01*
X16015Y23599D01*
X16001Y23496D01*
X16015Y23393D01*
X16055Y23297D01*
X16118Y23214D01*
X16197Y23154D01*
X16197Y23148D01*
X16163Y23104D01*
X16099D01*
Y22042D01*
X16167D01*
X16199Y22003D01*
X16198Y21996D01*
X16199Y21989D01*
X16167Y21950D01*
X16099D01*
Y20888D01*
X16522D01*
X17251Y20159D01*
X17232Y20113D01*
X16661D01*
X15701Y21073D01*
Y21950D01*
X15633D01*
X15601Y21989D01*
X15602Y21996D01*
X15601Y22003D01*
X15633Y22042D01*
X15701D01*
Y23104D01*
X15637D01*
X15603Y23148D01*
X15603Y23154D01*
X15682Y23214D01*
X15745Y23297D01*
X15785Y23393D01*
X15799Y23496D01*
X15785Y23599D01*
X15745Y23695D01*
X15682Y23778D01*
X15599Y23841D01*
X15503Y23881D01*
X15400Y23895D01*
X15297Y23881D01*
X15201Y23841D01*
X15118Y23778D01*
X15055Y23695D01*
X15015Y23599D01*
X15001Y23496D01*
X15015Y23393D01*
X15055Y23297D01*
X15118Y23214D01*
X15197Y23154D01*
X15197Y23148D01*
X15163Y23104D01*
X15099D01*
Y22042D01*
X15167D01*
X15199Y22003D01*
X15198Y21996D01*
X15199Y21989D01*
X15167Y21950D01*
X15099D01*
Y20888D01*
X15510D01*
X16240Y20159D01*
X16221Y20113D01*
X15661D01*
X14701Y21073D01*
Y21950D01*
X14633D01*
X14601Y21989D01*
X14602Y21996D01*
X14601Y22003D01*
X14633Y22042D01*
X14701D01*
Y23104D01*
X14637D01*
X14603Y23148D01*
X14603Y23154D01*
X14682Y23214D01*
X14745Y23297D01*
X14785Y23393D01*
X14799Y23496D01*
X14785Y23599D01*
X14745Y23695D01*
X14682Y23778D01*
X14599Y23841D01*
X14503Y23881D01*
X14400Y23895D01*
X14297Y23881D01*
X14201Y23841D01*
X14118Y23778D01*
X14055Y23695D01*
X14015Y23599D01*
X14001Y23496D01*
X14015Y23393D01*
X14055Y23297D01*
X14118Y23214D01*
X14197Y23154D01*
X14197Y23148D01*
X14163Y23104D01*
X14099D01*
Y22042D01*
X14167D01*
X14199Y22003D01*
X14198Y21996D01*
X14199Y21989D01*
X14167Y21950D01*
X14099D01*
Y20888D01*
X14510D01*
X15360Y20039D01*
X15341Y19993D01*
X14781D01*
X13701Y21073D01*
Y21950D01*
X13633D01*
X13601Y21989D01*
X13602Y21996D01*
X13601Y22003D01*
X13633Y22042D01*
X13701D01*
Y23104D01*
X13637D01*
X13603Y23148D01*
X13603Y23154D01*
X13682Y23214D01*
X13745Y23297D01*
X13785Y23393D01*
X13799Y23496D01*
X13785Y23599D01*
X13745Y23695D01*
X13682Y23778D01*
X13599Y23841D01*
X13503Y23881D01*
X13400Y23895D01*
X13297Y23881D01*
X13201Y23841D01*
X13118Y23778D01*
X13055Y23695D01*
X13015Y23599D01*
X13001Y23496D01*
X13015Y23393D01*
X13055Y23297D01*
X13118Y23214D01*
X13197Y23154D01*
X13197Y23148D01*
X13163Y23104D01*
X13099D01*
Y22042D01*
X13167D01*
X13199Y22003D01*
X13198Y21996D01*
X13199Y21989D01*
X13167Y21950D01*
X13099D01*
Y20888D01*
X13510D01*
X14480Y19919D01*
X14461Y19873D01*
X13911D01*
X12701Y21083D01*
Y21950D01*
X12633D01*
X12601Y21989D01*
X12602Y21996D01*
X12601Y22003D01*
X12633Y22042D01*
X12701D01*
Y23104D01*
X12637D01*
X12603Y23148D01*
X12603Y23154D01*
X12682Y23214D01*
X12745Y23297D01*
X12785Y23393D01*
X12799Y23496D01*
X12785Y23599D01*
X12745Y23695D01*
X12682Y23778D01*
X12599Y23841D01*
X12503Y23881D01*
X12400Y23895D01*
X12297Y23881D01*
X12201Y23841D01*
X12118Y23778D01*
X12055Y23695D01*
X12015Y23599D01*
X12001Y23496D01*
X12015Y23393D01*
X12055Y23297D01*
X12118Y23214D01*
X12197Y23154D01*
X12197Y23148D01*
X12163Y23104D01*
X12099D01*
Y22042D01*
X12167D01*
X12199Y22003D01*
X12198Y21996D01*
X12199Y21989D01*
X12167Y21950D01*
X12099D01*
Y20888D01*
X12520D01*
X13610Y19799D01*
X13591Y19753D01*
X11035D01*
X9701Y21087D01*
Y21950D01*
X9633D01*
X9601Y21989D01*
X9602Y21996D01*
X9601Y22003D01*
X9633Y22042D01*
X9701D01*
Y23104D01*
X9637D01*
X9603Y23148D01*
X9603Y23154D01*
X9682Y23214D01*
X9745Y23297D01*
X9785Y23393D01*
X9799Y23496D01*
X9785Y23599D01*
X9745Y23695D01*
X9682Y23778D01*
X9599Y23841D01*
X9503Y23881D01*
X9400Y23895D01*
X9297Y23881D01*
X9201Y23841D01*
X9118Y23778D01*
X9055Y23695D01*
X9015Y23599D01*
X9001Y23496D01*
X9015Y23393D01*
X9055Y23297D01*
X9118Y23214D01*
X9197Y23154D01*
X9197Y23148D01*
X9163Y23104D01*
X9099D01*
Y22042D01*
X9167D01*
X9199Y22003D01*
X9198Y21996D01*
X9199Y21989D01*
X9167Y21950D01*
X9099D01*
Y20888D01*
X9524D01*
X10886Y19526D01*
X10929Y19498D01*
X10980Y19487D01*
X16226D01*
X16307Y19406D01*
X16350Y19378D01*
X16401Y19367D01*
X20823D01*
X20842Y19321D01*
X20605Y19085D01*
X20577Y19042D01*
X20567Y18991D01*
Y18958D01*
X20517Y18931D01*
X20497Y18945D01*
X20419Y18960D01*
X20342Y18945D01*
X20279Y18903D01*
X19524D01*
X19498Y18953D01*
X19516Y18980D01*
X19532Y19058D01*
X19516Y19135D01*
X19472Y19201D01*
X19407Y19245D01*
X19329Y19260D01*
X19252Y19245D01*
X19186Y19201D01*
X19142Y19135D01*
X19127Y19058D01*
X19142Y18980D01*
X19161Y18953D01*
X19134Y18903D01*
X19010D01*
X19003Y18913D01*
X18937Y18957D01*
X18860Y18972D01*
X18783Y18957D01*
X18717Y18913D01*
X18673Y18847D01*
X18658Y18770D01*
X18673Y18693D01*
X18717Y18627D01*
X18772Y18590D01*
X18761Y18540D01*
X17972D01*
X17954Y18567D01*
X17889Y18611D01*
X17811Y18626D01*
X17734Y18611D01*
X17668Y18567D01*
X17624Y18501D01*
X17609Y18424D01*
X17624Y18347D01*
X17668Y18281D01*
X17706Y18255D01*
Y18120D01*
X17668Y18095D01*
X17624Y18029D01*
X17609Y17952D01*
X17624Y17874D01*
X17647Y17840D01*
X17665Y17802D01*
X17647Y17763D01*
X17624Y17729D01*
X17609Y17651D01*
X17624Y17574D01*
X17668Y17508D01*
X17734Y17465D01*
X17811Y17449D01*
X17889Y17465D01*
X17954Y17508D01*
X17961Y17519D01*
X20017D01*
X20068Y17529D01*
X20111Y17558D01*
X20151Y17598D01*
X20163Y17595D01*
X20240Y17611D01*
X20306Y17655D01*
X20350Y17720D01*
X20365Y17798D01*
X20350Y17875D01*
X20316Y17926D01*
X20336Y17976D01*
X20453D01*
X20504Y17987D01*
X20547Y18015D01*
X20793Y18261D01*
X20822Y18304D01*
X20832Y18355D01*
Y18936D01*
X21143Y19247D01*
X21820D01*
X21838Y19197D01*
X21802Y19144D01*
X21787Y19066D01*
X21802Y18989D01*
X21836Y18938D01*
Y18774D01*
X21802Y18724D01*
X21787Y18646D01*
X21802Y18569D01*
X21836Y18518D01*
Y18354D01*
X21802Y18304D01*
X21787Y18226D01*
X21802Y18149D01*
X21836Y18098D01*
Y17934D01*
X21802Y17884D01*
X21787Y17806D01*
X21802Y17729D01*
X21836Y17678D01*
Y17514D01*
X21802Y17464D01*
X21791Y17404D01*
X21477Y17091D01*
X21171D01*
X21120Y17125D01*
X21043Y17140D01*
X20966Y17125D01*
X20900Y17081D01*
X20856Y17015D01*
X20841Y16938D01*
X20856Y16860D01*
X20900Y16795D01*
X20966Y16751D01*
X21043Y16735D01*
X21120Y16751D01*
X21171Y16785D01*
X21541D01*
X21599Y16796D01*
X21649Y16830D01*
X22007Y17187D01*
X22067Y17199D01*
X22077Y17206D01*
X22117Y17231D01*
Y17231D01*
X22117Y17231D01*
X22987D01*
Y16156D01*
X22124Y15292D01*
X22095Y15249D01*
X22085Y15199D01*
Y14313D01*
X22053Y14307D01*
X21987Y14263D01*
X21943Y14197D01*
X21928Y14120D01*
X21931Y14101D01*
X21918Y14081D01*
X21907Y14030D01*
Y12612D01*
X21857Y12581D01*
X21800Y12592D01*
X21723Y12577D01*
X21689Y12554D01*
X21650Y12536D01*
X21611Y12554D01*
X21577Y12577D01*
X21500Y12592D01*
X21423Y12577D01*
X21389Y12554D01*
X21350Y12536D01*
X21311Y12554D01*
X21277Y12577D01*
X21200Y12592D01*
X21123Y12577D01*
X21089Y12554D01*
X21050Y12536D01*
X21011Y12554D01*
X20977Y12577D01*
X20900Y12592D01*
X20823Y12577D01*
X20757Y12533D01*
X20713Y12467D01*
X20698Y12390D01*
X20713Y12313D01*
X20757Y12247D01*
X20823Y12203D01*
X20900Y12188D01*
X20977Y12203D01*
X21011Y12226D01*
X21050Y12244D01*
X21089Y12226D01*
X21123Y12203D01*
X21200Y12188D01*
X21277Y12203D01*
X21311Y12226D01*
X21350Y12244D01*
X21389Y12226D01*
X21423Y12203D01*
X21500Y12188D01*
X21577Y12203D01*
X21611Y12226D01*
X21650Y12244D01*
X21689Y12226D01*
X21723Y12203D01*
X21800Y12188D01*
X21857Y12199D01*
X21907Y12168D01*
Y11465D01*
X21586Y11144D01*
X21558Y11101D01*
X21547Y11050D01*
Y10853D01*
X20826D01*
X20813Y10873D01*
X20747Y10917D01*
X20670Y10932D01*
X20593Y10917D01*
X20527Y10873D01*
X20483Y10807D01*
X20468Y10730D01*
X20470Y10718D01*
X20299Y10546D01*
X20253Y10565D01*
Y10870D01*
X20242Y10921D01*
X20214Y10964D01*
X20010Y11168D01*
X20012Y11180D01*
X19997Y11257D01*
X19953Y11323D01*
X19887Y11367D01*
X19810Y11382D01*
X19733Y11367D01*
X19667Y11323D01*
X19623Y11257D01*
X19608Y11180D01*
X19623Y11103D01*
X19667Y11037D01*
X19733Y10993D01*
X19810Y10978D01*
X19822Y10980D01*
X19987Y10815D01*
Y10444D01*
X19937Y10423D01*
X19887Y10456D01*
X19810Y10471D01*
X19733Y10456D01*
X19667Y10412D01*
X19623Y10346D01*
X19583Y10319D01*
X19567Y10323D01*
X19249D01*
X19094Y10478D01*
X19096Y10490D01*
X19081Y10567D01*
X19037Y10633D01*
X18971Y10677D01*
X18894Y10692D01*
X18817Y10677D01*
X18751Y10633D01*
X18707Y10567D01*
X18701Y10538D01*
X18418D01*
Y10538D01*
X18418Y10538D01*
X18302D01*
Y10426D01*
X18307D01*
Y10203D01*
X18257Y10171D01*
X18200Y10182D01*
X18123Y10167D01*
X18057Y10123D01*
X18013Y10057D01*
X17998Y9980D01*
X18013Y9903D01*
X18057Y9837D01*
X18067Y9830D01*
Y9300D01*
X18078Y9249D01*
X18106Y9206D01*
X18234Y9079D01*
X18210Y9032D01*
X18133Y9017D01*
X18067Y8973D01*
X18060Y8963D01*
X17580D01*
X17530Y8952D01*
X17487Y8924D01*
X15935Y7372D01*
X15435D01*
X15384Y7361D01*
X15341Y7333D01*
X14970Y6962D01*
X14947Y6963D01*
X14903Y6998D01*
X14888Y7075D01*
X14844Y7141D01*
X14778Y7185D01*
X14701Y7200D01*
X14623Y7185D01*
X14558Y7141D01*
X14551Y7131D01*
X13603D01*
X13480Y7254D01*
X13437Y7282D01*
X13386Y7293D01*
X12468D01*
X12369Y7391D01*
Y8646D01*
X12540Y8816D01*
X12552Y8814D01*
X12629Y8829D01*
X12695Y8873D01*
X12743Y8854D01*
X12771Y8835D01*
X12848Y8820D01*
X12926Y8835D01*
X12991Y8879D01*
X13035Y8945D01*
X13050Y9022D01*
X13035Y9100D01*
X12991Y9165D01*
X12926Y9209D01*
X12848Y9225D01*
X12771Y9209D01*
X12705Y9165D01*
X12658Y9184D01*
X12629Y9203D01*
X12552Y9218D01*
X12475Y9203D01*
X12409Y9159D01*
X12365Y9093D01*
X12350Y9016D01*
X12352Y9004D01*
X12143Y8795D01*
X12114Y8752D01*
X12104Y8701D01*
Y7337D01*
X12107Y7324D01*
X12061Y7300D01*
X9548Y9812D01*
Y10170D01*
X9562Y10218D01*
X9639Y10234D01*
X9705Y10277D01*
X9729Y10314D01*
X9782Y10304D01*
X9790Y10266D01*
X9834Y10200D01*
X9900Y10156D01*
X9907Y10104D01*
X9855Y10070D01*
X9811Y10004D01*
X9796Y9926D01*
X9811Y9849D01*
X9855Y9783D01*
X9921Y9740D01*
X9998Y9724D01*
X10076Y9740D01*
X10141Y9783D01*
X10185Y9849D01*
X10201Y9926D01*
X10185Y10004D01*
X10141Y10070D01*
X10076Y10113D01*
X10069Y10166D01*
X10120Y10200D01*
X10164Y10266D01*
X10179Y10343D01*
X10164Y10420D01*
X10120Y10486D01*
X10054Y10530D01*
X9977Y10545D01*
X9900Y10530D01*
X9834Y10486D01*
X9809Y10449D01*
X9756Y10460D01*
X9749Y10498D01*
X9705Y10564D01*
X9684Y10577D01*
X9679Y10627D01*
X9803Y10751D01*
X9831Y10794D01*
X9841Y10844D01*
Y10876D01*
X9880Y10908D01*
X9909Y10903D01*
X9986Y10918D01*
X10052Y10962D01*
X10096Y11027D01*
X10111Y11105D01*
X10096Y11182D01*
X10052Y11248D01*
X9986Y11292D01*
X9909Y11307D01*
X9831Y11292D01*
X9766Y11248D01*
X9751Y11246D01*
X9541Y11456D01*
X9551Y11509D01*
X9596Y11518D01*
X9661Y11562D01*
X9705Y11627D01*
X9720Y11705D01*
X9705Y11782D01*
X9661Y11848D01*
X9596Y11892D01*
X9518Y11907D01*
X9441Y11892D01*
X9375Y11848D01*
X9331Y11782D01*
X9316Y11705D01*
X9321Y11680D01*
X9253Y11667D01*
X9187Y11623D01*
X9143Y11557D01*
X9128Y11480D01*
X9143Y11402D01*
X9187Y11337D01*
X9190Y11275D01*
X9172Y11247D01*
X9157Y11170D01*
X9159Y11158D01*
X8882Y10880D01*
X8853Y10837D01*
X8843Y10786D01*
Y9734D01*
X8853Y9684D01*
X8882Y9641D01*
X10594Y7928D01*
X10589Y7878D01*
X10578Y7870D01*
X10535Y7805D01*
X10519Y7727D01*
X10535Y7650D01*
X10578Y7584D01*
X10644Y7540D01*
X10721Y7525D01*
X10799Y7540D01*
X10865Y7584D01*
X10872Y7595D01*
X10922Y7600D01*
X11894Y6628D01*
X11917Y6583D01*
X11873Y6517D01*
X11858Y6440D01*
X11873Y6363D01*
X11917Y6297D01*
X11983Y6253D01*
X11993Y6251D01*
Y5810D01*
X12104Y5812D01*
Y5812D01*
X12490D01*
X12508Y5790D01*
X12523Y5713D01*
X12567Y5647D01*
X12633Y5603D01*
X12710Y5588D01*
X12787Y5603D01*
X12853Y5647D01*
X12860Y5657D01*
X13685D01*
X14566Y4776D01*
X14609Y4748D01*
X14660Y4737D01*
X14992D01*
X15033Y4687D01*
X15028Y4660D01*
X15033Y4631D01*
X14992Y4581D01*
X4650D01*
X4550Y4680D01*
X4468Y4735D01*
X4370Y4755D01*
X4272Y4735D01*
X4190Y4680D01*
X4135Y4598D01*
X4115Y4500D01*
X4135Y4402D01*
X4190Y4320D01*
X4364Y4146D01*
X4446Y4090D01*
X4544Y4071D01*
X5160D01*
X5167Y4021D01*
X5010Y3957D01*
X4866Y3868D01*
X4738Y3758D01*
X4628Y3630D01*
X4539Y3485D01*
X4475Y3329D01*
X4435Y3165D01*
X4422Y2996D01*
X4435Y2827D01*
X4475Y2663D01*
X4539Y2506D01*
X4628Y2362D01*
X4738Y2234D01*
X4866Y2124D01*
X5010Y2035D01*
X5167Y1971D01*
X5331Y1931D01*
X5500Y1918D01*
X5669Y1931D01*
X5833Y1971D01*
X5989Y2035D01*
X6134Y2124D01*
X6262Y2234D01*
X6372Y2362D01*
X6461Y2506D01*
X6525Y2663D01*
X6565Y2827D01*
X6578Y2996D01*
X6565Y3165D01*
X6525Y3329D01*
X6461Y3485D01*
X6372Y3630D01*
X6262Y3758D01*
X6134Y3868D01*
X5989Y3957D01*
X5833Y4021D01*
X5840Y4071D01*
X10699D01*
Y3042D01*
X10745D01*
Y2950D01*
X10699D01*
Y1888D01*
X10763D01*
X10797Y1844D01*
X10797Y1838D01*
X10718Y1778D01*
X10655Y1695D01*
X10615Y1599D01*
X10601Y1496D01*
X10615Y1393D01*
X10655Y1297D01*
X10718Y1214D01*
X10801Y1151D01*
X10897Y1111D01*
X11000Y1097D01*
X11103Y1111D01*
X11199Y1151D01*
X11282Y1214D01*
X11345Y1297D01*
X11385Y1393D01*
X11399Y1496D01*
X11385Y1599D01*
X11345Y1695D01*
X11282Y1778D01*
X11203Y1838D01*
X11203Y1844D01*
X11237Y1888D01*
X11301D01*
Y2950D01*
X11255D01*
Y3042D01*
X11301D01*
Y4071D01*
X11699D01*
Y3042D01*
X11745D01*
Y2950D01*
X11699D01*
Y1888D01*
X11763D01*
X11797Y1844D01*
X11797Y1838D01*
X11718Y1778D01*
X11655Y1695D01*
X11615Y1599D01*
X11601Y1496D01*
X11615Y1393D01*
X11655Y1297D01*
X11718Y1214D01*
X11801Y1151D01*
X11897Y1111D01*
X12000Y1097D01*
X12103Y1111D01*
X12199Y1151D01*
X12282Y1214D01*
X12345Y1297D01*
X12385Y1393D01*
X12399Y1496D01*
X12385Y1599D01*
X12345Y1695D01*
X12282Y1778D01*
X12203Y1838D01*
X12203Y1844D01*
X12237Y1888D01*
X12301D01*
Y2950D01*
X12255D01*
Y3042D01*
X12301D01*
Y4071D01*
X12699D01*
Y3042D01*
X12767D01*
X12799Y3003D01*
X12798Y2996D01*
X12799Y2989D01*
X12767Y2950D01*
X12699D01*
Y1888D01*
X12763D01*
X12797Y1844D01*
X12797Y1838D01*
X12718Y1778D01*
X12655Y1695D01*
X12615Y1599D01*
X12601Y1496D01*
X12615Y1393D01*
X12655Y1297D01*
X12718Y1214D01*
X12801Y1151D01*
X12897Y1111D01*
X13000Y1097D01*
X13103Y1111D01*
X13199Y1151D01*
X13282Y1214D01*
X13345Y1297D01*
X13385Y1393D01*
X13399Y1496D01*
X13385Y1599D01*
X13345Y1695D01*
X13282Y1778D01*
X13203Y1838D01*
X13203Y1844D01*
X13237Y1888D01*
X13301D01*
Y2950D01*
X13233D01*
X13201Y2989D01*
X13202Y2996D01*
X13201Y3003D01*
X13233Y3042D01*
X13301D01*
Y4071D01*
X13699D01*
Y3042D01*
X13745D01*
Y2950D01*
X13699D01*
Y1888D01*
X13763D01*
X13797Y1844D01*
X13797Y1838D01*
X13718Y1778D01*
X13655Y1695D01*
X13615Y1599D01*
X13601Y1496D01*
X13615Y1393D01*
X13655Y1297D01*
X13718Y1214D01*
X13801Y1151D01*
X13897Y1111D01*
X14000Y1097D01*
X14103Y1111D01*
X14199Y1151D01*
X14282Y1214D01*
X14345Y1297D01*
X14385Y1393D01*
X14399Y1496D01*
X14385Y1599D01*
X14345Y1695D01*
X14282Y1778D01*
X14203Y1838D01*
X14203Y1844D01*
X14237Y1888D01*
X14301D01*
Y2950D01*
X14255D01*
Y3042D01*
X14301D01*
Y4071D01*
X14699D01*
Y3042D01*
X14745D01*
Y2950D01*
X14699D01*
Y1888D01*
X14763D01*
X14797Y1844D01*
X14797Y1838D01*
X14718Y1778D01*
X14655Y1695D01*
X14615Y1599D01*
X14601Y1496D01*
X14615Y1393D01*
X14655Y1297D01*
X14718Y1214D01*
X14801Y1151D01*
X14897Y1111D01*
X15000Y1097D01*
X15103Y1111D01*
X15199Y1151D01*
X15282Y1214D01*
X15345Y1297D01*
X15385Y1393D01*
X15399Y1496D01*
X15385Y1599D01*
X15345Y1695D01*
X15282Y1778D01*
X15203Y1838D01*
X15203Y1844D01*
X15237Y1888D01*
X15301D01*
Y2950D01*
X15255D01*
Y3042D01*
X15301D01*
Y4071D01*
X15699D01*
Y3623D01*
X16301D01*
Y4071D01*
X16699D01*
Y3623D01*
X17301D01*
Y4071D01*
X17699D01*
Y3042D01*
X17767D01*
X17799Y3003D01*
X17798Y2996D01*
X17799Y2989D01*
X17767Y2950D01*
X17699D01*
Y1888D01*
X17763D01*
X17797Y1844D01*
X17797Y1838D01*
X17718Y1778D01*
X17655Y1695D01*
X17615Y1599D01*
X17601Y1496D01*
X17615Y1393D01*
X17655Y1297D01*
X17718Y1214D01*
X17801Y1151D01*
X17897Y1111D01*
X18000Y1097D01*
X18103Y1111D01*
X18199Y1151D01*
X18282Y1214D01*
X18345Y1297D01*
X18385Y1393D01*
X18399Y1496D01*
X18385Y1599D01*
X18345Y1695D01*
X18282Y1778D01*
X18203Y1838D01*
X18203Y1844D01*
X18237Y1888D01*
X18301D01*
Y2950D01*
X18233D01*
X18201Y2989D01*
X18202Y2996D01*
X18201Y3003D01*
X18233Y3042D01*
X18301D01*
Y4104D01*
X18005D01*
X17993Y4154D01*
X18303Y4463D01*
X18400D01*
X18498Y4482D01*
X18580Y4538D01*
X18635Y4620D01*
X18655Y4718D01*
X18635Y4816D01*
X18580Y4898D01*
X18498Y4953D01*
X18400Y4973D01*
X18238D01*
X18217Y5023D01*
X18442Y5247D01*
X20724D01*
Y4634D01*
X20724D01*
X20742Y4589D01*
X20394Y4241D01*
X20302D01*
X20252Y4231D01*
X20209Y4202D01*
X20110Y4104D01*
X19699D01*
Y3042D01*
X19767D01*
X19799Y3003D01*
X19798Y2996D01*
X19799Y2989D01*
X19767Y2950D01*
X19699D01*
Y1888D01*
X19763D01*
X19797Y1844D01*
X19797Y1838D01*
X19718Y1778D01*
X19655Y1695D01*
X19615Y1599D01*
X19601Y1496D01*
X19615Y1393D01*
X19655Y1297D01*
X19718Y1214D01*
X19801Y1151D01*
X19897Y1111D01*
X20000Y1097D01*
X20103Y1111D01*
X20199Y1151D01*
X20282Y1214D01*
X20345Y1297D01*
X20385Y1393D01*
X20399Y1496D01*
X20385Y1599D01*
X20345Y1695D01*
X20284Y1776D01*
X20286Y1793D01*
X20297Y1826D01*
X20698D01*
X20715Y1786D01*
X20716Y1776D01*
X20655Y1695D01*
X20615Y1599D01*
X20601Y1496D01*
X20615Y1393D01*
X20655Y1297D01*
X20718Y1214D01*
X20801Y1151D01*
X20897Y1111D01*
X21000Y1097D01*
X21103Y1111D01*
X21199Y1151D01*
X21282Y1214D01*
X21345Y1297D01*
X21385Y1393D01*
X21399Y1496D01*
X21385Y1599D01*
X21345Y1695D01*
X21282Y1778D01*
X21203Y1838D01*
X21203Y1844D01*
X21237Y1888D01*
X21301D01*
Y2950D01*
X21233D01*
X21201Y2989D01*
X21202Y2996D01*
X21201Y3003D01*
X21233Y3042D01*
X21301D01*
Y4104D01*
X21133D01*
Y4435D01*
X21854Y5156D01*
X21882Y5199D01*
X21893Y5250D01*
Y5378D01*
X23097D01*
Y5392D01*
X23135Y5424D01*
X23166Y5418D01*
X23214Y5427D01*
X23229Y5353D01*
X23273Y5287D01*
X23338Y5243D01*
X23416Y5228D01*
X23439Y5181D01*
X23449Y5134D01*
X23493Y5068D01*
X23558Y5025D01*
X23636Y5009D01*
X23713Y5025D01*
X23779Y5068D01*
X23823Y5134D01*
X23838Y5211D01*
X23836Y5224D01*
X24217Y5606D01*
X24267Y5585D01*
Y4598D01*
X24032Y4363D01*
X22430D01*
X22379Y4352D01*
X22336Y4324D01*
X22116Y4104D01*
X21699D01*
Y3042D01*
X21767D01*
X21799Y3003D01*
X21798Y2996D01*
X21799Y2989D01*
X21767Y2950D01*
X21699D01*
Y1888D01*
X21763D01*
X21797Y1844D01*
X21797Y1838D01*
X21718Y1778D01*
X21655Y1695D01*
X21615Y1599D01*
X21601Y1496D01*
X21615Y1393D01*
X21655Y1297D01*
X21718Y1214D01*
X21801Y1151D01*
X21897Y1111D01*
X22000Y1097D01*
X22103Y1111D01*
X22199Y1151D01*
X22282Y1214D01*
X22345Y1297D01*
X22385Y1393D01*
X22399Y1496D01*
X22385Y1599D01*
X22345Y1695D01*
X22284Y1776D01*
X22286Y1793D01*
X22297Y1826D01*
X22703D01*
X22714Y1793D01*
X22716Y1776D01*
X22655Y1695D01*
X22615Y1599D01*
X22601Y1496D01*
X22615Y1393D01*
X22655Y1297D01*
X22718Y1214D01*
X22801Y1151D01*
X22897Y1111D01*
X23000Y1097D01*
X23103Y1111D01*
X23199Y1151D01*
X23282Y1214D01*
X23345Y1297D01*
X23385Y1393D01*
X23399Y1496D01*
X23385Y1599D01*
X23345Y1695D01*
X23293Y1763D01*
X23313Y1813D01*
X23685D01*
X23688Y1810D01*
X23707Y1763D01*
X23655Y1695D01*
X23615Y1599D01*
X23601Y1496D01*
X23615Y1393D01*
X23655Y1297D01*
X23718Y1214D01*
X23801Y1151D01*
X23897Y1111D01*
X24000Y1097D01*
X24103Y1111D01*
X24199Y1151D01*
X24282Y1214D01*
X24345Y1297D01*
X24385Y1393D01*
X24399Y1496D01*
X24385Y1599D01*
X24345Y1695D01*
X24305Y1748D01*
X24330Y1797D01*
X24670D01*
X24695Y1748D01*
X24655Y1695D01*
X24615Y1599D01*
X24601Y1496D01*
X24615Y1393D01*
X24655Y1297D01*
X24718Y1214D01*
X24801Y1151D01*
X24897Y1111D01*
X25000Y1097D01*
X25103Y1111D01*
X25199Y1151D01*
X25282Y1214D01*
X25345Y1297D01*
X25385Y1393D01*
X25399Y1496D01*
X25385Y1599D01*
X25345Y1695D01*
X25282Y1778D01*
X25203Y1838D01*
X25203Y1844D01*
X25237Y1888D01*
X25301D01*
Y2950D01*
X25233D01*
X25201Y2989D01*
X25202Y2996D01*
X25201Y3003D01*
X25233Y3042D01*
X25301D01*
Y3905D01*
X25309Y3905D01*
Y4113D01*
X25354Y4134D01*
X25366Y4124D01*
X25510Y4035D01*
X25667Y3971D01*
X25831Y3931D01*
X26000Y3918D01*
X26169Y3931D01*
X26333Y3971D01*
X26490Y4035D01*
X26634Y4124D01*
X26762Y4234D01*
X26872Y4362D01*
X26961Y4507D01*
X27025Y4663D01*
X27065Y4827D01*
X27078Y4996D01*
X27065Y5165D01*
X27025Y5329D01*
X26961Y5485D01*
X26888Y5604D01*
X26873Y5650D01*
X26873Y5650D01*
X26873Y5650D01*
Y6277D01*
X27722D01*
X27763Y6227D01*
X27758Y6200D01*
X27773Y6123D01*
X27796Y6089D01*
X27814Y6050D01*
X27796Y6011D01*
X27773Y5977D01*
X27758Y5900D01*
X27773Y5823D01*
X27817Y5757D01*
X27883Y5713D01*
X27960Y5698D01*
X28037Y5713D01*
X28103Y5757D01*
X28147Y5823D01*
X28162Y5900D01*
X28147Y5977D01*
X28124Y6011D01*
X28106Y6050D01*
X28124Y6089D01*
X28147Y6123D01*
X28162Y6200D01*
X28157Y6227D01*
X28198Y6277D01*
X28879D01*
X28929Y6288D01*
X28972Y6316D01*
X29844Y7188D01*
X29872Y7231D01*
X29883Y7281D01*
Y8997D01*
X29872Y9048D01*
X29844Y9091D01*
X29433Y9502D01*
Y10557D01*
X29422Y10607D01*
X29394Y10650D01*
X28753Y11292D01*
Y13715D01*
X29715Y14677D01*
X31396D01*
X31447Y14688D01*
X31490Y14716D01*
X32275Y15502D01*
X32322Y15522D01*
X32387Y15478D01*
X32465Y15463D01*
X32542Y15478D01*
X32608Y15522D01*
X32652Y15588D01*
X32660Y15630D01*
X32685Y15673D01*
X32762Y15688D01*
X32828Y15732D01*
X32872Y15798D01*
X32876Y15821D01*
X32927D01*
X32938Y15768D01*
X32982Y15702D01*
X33047Y15658D01*
X33125Y15643D01*
X33202Y15658D01*
X33268Y15702D01*
X33312Y15768D01*
X33327Y15845D01*
X33325Y15854D01*
X33335Y15863D01*
X33412Y15878D01*
X33478Y15922D01*
X33522Y15988D01*
X33537Y16065D01*
X33583Y16091D01*
X33622Y16098D01*
X33688Y16142D01*
X33732Y16208D01*
X33747Y16285D01*
X33793Y16311D01*
X33832Y16318D01*
X33898Y16362D01*
X33942Y16428D01*
X33957Y16505D01*
X33942Y16583D01*
X33898Y16648D01*
X33832Y16692D01*
X33755Y16708D01*
X33742Y16705D01*
X33668Y16779D01*
X33625Y16808D01*
X33575Y16818D01*
X31339D01*
X30837Y17320D01*
Y17975D01*
X30848Y17982D01*
X30892Y18048D01*
X30907Y18125D01*
X30892Y18203D01*
X30848Y18268D01*
X30782Y18312D01*
X30705Y18328D01*
X30627Y18312D01*
X30562Y18268D01*
X30518Y18203D01*
X30502Y18125D01*
X30456Y18100D01*
X30417Y18092D01*
X30352Y18048D01*
X30308Y17983D01*
X30292Y17905D01*
X30246Y17880D01*
X30207Y17872D01*
X30142Y17828D01*
X30098Y17763D01*
X30082Y17685D01*
X30098Y17608D01*
X30142Y17542D01*
X30152Y17535D01*
Y17346D01*
X30162Y17295D01*
X30191Y17252D01*
X31091Y16352D01*
X31134Y16323D01*
X31185Y16313D01*
X32137D01*
X32156Y16267D01*
X31192Y15303D01*
X29510D01*
X29459Y15292D01*
X29416Y15264D01*
X28319Y14166D01*
X28273Y14185D01*
Y17298D01*
X28581Y17607D01*
X29150D01*
X29181Y17568D01*
X29178Y17550D01*
X29193Y17473D01*
X29237Y17407D01*
X29303Y17363D01*
X29380Y17348D01*
X29457Y17363D01*
X29523Y17407D01*
X29567Y17473D01*
X29582Y17550D01*
X29580Y17562D01*
X29984Y17966D01*
X30012Y18009D01*
X30023Y18060D01*
Y19625D01*
X30775Y20377D01*
X34320D01*
X34371Y20388D01*
X34414Y20416D01*
X34886Y20888D01*
X35301D01*
Y21950D01*
X35233D01*
X35201Y21989D01*
X35202Y21996D01*
X35201Y22003D01*
X35233Y22042D01*
X35301D01*
Y23104D01*
X35237D01*
X35203Y23148D01*
X35203Y23154D01*
X35282Y23214D01*
X35345Y23297D01*
X35385Y23393D01*
X35399Y23496D01*
X35385Y23599D01*
X35345Y23695D01*
X35282Y23778D01*
X35199Y23841D01*
X35103Y23881D01*
X35000Y23895D01*
D02*
G37*
G36*
X37247Y20742D02*
X37169Y20727D01*
X37104Y20683D01*
X37060Y20617D01*
X37045Y20540D01*
X37060Y20463D01*
X37104Y20397D01*
X37169Y20353D01*
X37247Y20338D01*
X37324Y20353D01*
X37390Y20397D01*
X37434Y20463D01*
X37449Y20540D01*
X37434Y20617D01*
X37390Y20683D01*
X37324Y20727D01*
X37247Y20742D01*
D02*
G37*
G36*
X36299Y20532D02*
X36222Y20517D01*
X36156Y20473D01*
X36113Y20407D01*
X36097Y20330D01*
X36113Y20253D01*
X36156Y20187D01*
X36216Y20147D01*
X36219Y20120D01*
X36216Y20093D01*
X36156Y20053D01*
X36131Y20015D01*
X36097Y19977D01*
X36020Y19992D01*
X35943Y19977D01*
X35877Y19933D01*
X35833Y19867D01*
X35818Y19790D01*
X35833Y19713D01*
X35877Y19647D01*
X35943Y19603D01*
X36020Y19588D01*
X36087Y19601D01*
X36103Y19581D01*
X36114Y19559D01*
X36073Y19497D01*
X36058Y19420D01*
X36073Y19343D01*
X36117Y19277D01*
X36183Y19233D01*
X36260Y19218D01*
X36337Y19233D01*
X36403Y19277D01*
X36447Y19343D01*
X36462Y19420D01*
X36447Y19497D01*
X36403Y19563D01*
X36337Y19607D01*
X36260Y19622D01*
X36193Y19609D01*
X36177Y19629D01*
X36166Y19651D01*
X36189Y19685D01*
X36222Y19723D01*
X36299Y19708D01*
X36377Y19723D01*
X36442Y19767D01*
X36486Y19833D01*
X36502Y19910D01*
X36486Y19987D01*
X36442Y20053D01*
X36382Y20093D01*
X36379Y20120D01*
X36382Y20147D01*
X36442Y20187D01*
X36486Y20253D01*
X36502Y20330D01*
X36486Y20407D01*
X36442Y20473D01*
X36377Y20517D01*
X36299Y20532D01*
D02*
G37*
G36*
X37510Y20302D02*
X37433Y20287D01*
X37367Y20243D01*
X37323Y20177D01*
X37308Y20100D01*
X37323Y20023D01*
X37367Y19957D01*
X37433Y19913D01*
X37510Y19898D01*
X37587Y19913D01*
X37653Y19957D01*
X37697Y20023D01*
X37712Y20100D01*
X37697Y20177D01*
X37653Y20243D01*
X37587Y20287D01*
X37510Y20302D01*
D02*
G37*
G36*
X36890Y19642D02*
X36813Y19627D01*
X36747Y19583D01*
X36703Y19517D01*
X36688Y19440D01*
X36703Y19363D01*
X36747Y19297D01*
X36813Y19253D01*
X36890Y19238D01*
X36967Y19253D01*
X37033Y19297D01*
X37077Y19363D01*
X37092Y19440D01*
X37077Y19517D01*
X37033Y19583D01*
X36967Y19627D01*
X36890Y19642D01*
D02*
G37*
G36*
X37510Y19822D02*
X37433Y19807D01*
X37367Y19763D01*
X37323Y19697D01*
X37308Y19620D01*
X37323Y19543D01*
X37346Y19509D01*
X37364Y19470D01*
X37346Y19431D01*
X37323Y19397D01*
X37308Y19320D01*
X37323Y19243D01*
X37367Y19177D01*
X37433Y19133D01*
X37510Y19118D01*
X37587Y19133D01*
X37653Y19177D01*
X37697Y19243D01*
X37712Y19320D01*
X37697Y19397D01*
X37674Y19431D01*
X37656Y19470D01*
X37674Y19509D01*
X37697Y19543D01*
X37712Y19620D01*
X37697Y19697D01*
X37653Y19763D01*
X37587Y19807D01*
X37510Y19822D01*
D02*
G37*
G36*
X13701Y19104D02*
X13099D01*
Y19085D01*
X12701D01*
Y19104D01*
X12099D01*
Y19079D01*
X11701D01*
Y19104D01*
X11099D01*
Y19070D01*
X10701D01*
Y19104D01*
X10099D01*
Y19083D01*
X9701D01*
Y19104D01*
X9099D01*
Y18042D01*
X9167D01*
X9199Y18003D01*
X9198Y17996D01*
X9199Y17989D01*
X9167Y17950D01*
X9099D01*
Y16888D01*
X9268D01*
Y16056D01*
X9268Y16056D01*
X9278Y16005D01*
X9306Y15962D01*
X9938Y15331D01*
X9938Y15331D01*
X9981Y15302D01*
X10031Y15292D01*
X10031Y15292D01*
X13621D01*
X14653Y14260D01*
X14653Y14260D01*
X14696Y14231D01*
X14746Y14221D01*
X14746Y14221D01*
X15622D01*
X15622Y14221D01*
X15622Y14221D01*
X15631Y14216D01*
X15708Y14200D01*
X15786Y14216D01*
X15851Y14260D01*
X15895Y14325D01*
X15910Y14403D01*
X15895Y14480D01*
X15851Y14546D01*
X15786Y14590D01*
X15708Y14605D01*
X15631Y14590D01*
X15565Y14546D01*
X15525Y14486D01*
X15145D01*
X15139Y14495D01*
X15151Y14563D01*
X15172Y14577D01*
X15216Y14643D01*
X15222Y14672D01*
X15238Y14720D01*
X15315Y14735D01*
X15381Y14779D01*
X15425Y14844D01*
X15440Y14922D01*
X15439Y14926D01*
X15502Y14939D01*
X15568Y14982D01*
X15612Y15048D01*
X15627Y15126D01*
X15612Y15203D01*
X15568Y15269D01*
X15502Y15312D01*
X15425Y15328D01*
X15347Y15312D01*
X15282Y15269D01*
X15265Y15244D01*
X14746D01*
X13533Y16457D01*
Y16888D01*
X13701D01*
Y17950D01*
X13633D01*
X13601Y17989D01*
X13602Y17996D01*
X13601Y18003D01*
X13633Y18042D01*
X13701D01*
Y19104D01*
D02*
G37*
G36*
X32250Y19175D02*
X32173Y19160D01*
X32107Y19116D01*
X32063Y19051D01*
X32048Y18973D01*
X32063Y18896D01*
X32107Y18830D01*
X32173Y18786D01*
X32250Y18771D01*
X32327Y18786D01*
X32393Y18830D01*
X32437Y18896D01*
X32452Y18973D01*
X32437Y19051D01*
X32393Y19116D01*
X32327Y19160D01*
X32250Y19175D01*
D02*
G37*
G36*
X34740Y19172D02*
X34663Y19157D01*
X34597Y19113D01*
X34553Y19047D01*
X34538Y18970D01*
X34553Y18893D01*
X34597Y18827D01*
X34663Y18783D01*
X34740Y18768D01*
X34817Y18783D01*
X34883Y18827D01*
X34927Y18893D01*
X34942Y18970D01*
X34927Y19047D01*
X34883Y19113D01*
X34817Y19157D01*
X34740Y19172D01*
D02*
G37*
G36*
X36510Y19072D02*
X36433Y19057D01*
X36367Y19013D01*
X36323Y18947D01*
X36308Y18870D01*
X36323Y18793D01*
X36367Y18727D01*
X36433Y18683D01*
X36510Y18668D01*
X36587Y18683D01*
X36653Y18727D01*
X36697Y18793D01*
X36712Y18870D01*
X36697Y18947D01*
X36653Y19013D01*
X36587Y19057D01*
X36510Y19072D01*
D02*
G37*
G36*
X5337Y19250D02*
X4461D01*
Y18570D01*
X5337D01*
Y19250D01*
D02*
G37*
G36*
X4361D02*
X3484D01*
Y18570D01*
X4361D01*
Y19250D01*
D02*
G37*
G36*
X5337Y18470D02*
X4461D01*
Y17790D01*
X5337D01*
Y18470D01*
D02*
G37*
G36*
X4361D02*
X3484D01*
Y17790D01*
X4361D01*
Y18470D01*
D02*
G37*
G36*
X7400Y19508D02*
X7323Y19493D01*
X7257Y19449D01*
X7213Y19383D01*
X7198Y19306D01*
X7213Y19229D01*
X7257Y19163D01*
X7271Y19154D01*
X7255Y19104D01*
X7099D01*
Y18042D01*
X7145D01*
Y17950D01*
X7099D01*
Y17606D01*
X7049Y17602D01*
X7046Y17618D01*
X7037Y17663D01*
X6993Y17729D01*
X6927Y17773D01*
X6850Y17788D01*
X6773Y17773D01*
X6707Y17729D01*
X6663Y17663D01*
X6648Y17586D01*
X6663Y17509D01*
X6707Y17443D01*
X6773Y17399D01*
X6850Y17384D01*
X6927Y17399D01*
X6993Y17443D01*
X7037Y17509D01*
X7046Y17554D01*
X7049Y17570D01*
X7099Y17566D01*
Y16888D01*
X7701D01*
Y17950D01*
X7655D01*
Y18042D01*
X7701D01*
Y19104D01*
X7545D01*
X7529Y19154D01*
X7543Y19163D01*
X7587Y19229D01*
X7602Y19306D01*
X7587Y19383D01*
X7543Y19449D01*
X7477Y19493D01*
X7400Y19508D01*
D02*
G37*
G36*
X2880Y18450D02*
X2762Y18435D01*
X2653Y18389D01*
X2559Y18317D01*
X2486Y18223D01*
X2441Y18114D01*
X2426Y17996D01*
X2441Y17878D01*
X2486Y17769D01*
X2559Y17675D01*
X2653Y17603D01*
X2762Y17557D01*
X2880Y17542D01*
X2998Y17557D01*
X3107Y17603D01*
X3201Y17675D01*
X3273Y17769D01*
X3319Y17878D01*
X3334Y17996D01*
X3319Y18114D01*
X3273Y18223D01*
X3201Y18317D01*
X3107Y18389D01*
X2998Y18435D01*
X2880Y18450D01*
D02*
G37*
G36*
X5690Y17748D02*
X5613Y17733D01*
X5547Y17689D01*
X5503Y17623D01*
X5488Y17546D01*
X5503Y17469D01*
X5547Y17403D01*
X5613Y17359D01*
X5690Y17344D01*
X5767Y17359D01*
X5833Y17403D01*
X5877Y17469D01*
X5892Y17546D01*
X5877Y17623D01*
X5833Y17689D01*
X5767Y17733D01*
X5690Y17748D01*
D02*
G37*
G36*
X34760Y17672D02*
X34683Y17657D01*
X34617Y17613D01*
X34573Y17547D01*
X34558Y17470D01*
X34573Y17393D01*
X34617Y17327D01*
X34683Y17283D01*
X34760Y17268D01*
X34837Y17283D01*
X34903Y17327D01*
X34947Y17393D01*
X34962Y17470D01*
X34947Y17547D01*
X34903Y17613D01*
X34837Y17657D01*
X34760Y17672D01*
D02*
G37*
G36*
X32250D02*
X32173Y17657D01*
X32107Y17613D01*
X32063Y17547D01*
X32048Y17470D01*
X32063Y17393D01*
X32107Y17327D01*
X32173Y17283D01*
X32250Y17268D01*
X32327Y17283D01*
X32393Y17327D01*
X32437Y17393D01*
X32452Y17470D01*
X32437Y17547D01*
X32393Y17613D01*
X32327Y17657D01*
X32250Y17672D01*
D02*
G37*
G36*
X18660Y17460D02*
X18582Y17445D01*
X18517Y17401D01*
X18473Y17335D01*
X18458Y17258D01*
X18473Y17180D01*
X18517Y17115D01*
X18582Y17071D01*
X18660Y17055D01*
X18737Y17071D01*
X18803Y17115D01*
X18847Y17180D01*
X18862Y17258D01*
X18847Y17335D01*
X18803Y17401D01*
X18737Y17445D01*
X18660Y17460D01*
D02*
G37*
G36*
X14701Y19104D02*
X14099D01*
Y18042D01*
X14169D01*
X14200Y18003D01*
X14198Y17989D01*
X14166Y17950D01*
X14099D01*
Y16888D01*
X14701D01*
Y17950D01*
X14634D01*
X14602Y17989D01*
X14600Y18003D01*
X14631Y18042D01*
X14701D01*
Y19104D01*
D02*
G37*
G36*
X8701D02*
X8099D01*
Y18042D01*
X8196D01*
Y17950D01*
X8099D01*
Y16888D01*
X8701D01*
Y17950D01*
X8604D01*
Y18042D01*
X8701D01*
Y19104D01*
D02*
G37*
G36*
X30150Y17112D02*
X30073Y17097D01*
X30007Y17053D01*
X29963Y16987D01*
X29948Y16910D01*
X29950Y16898D01*
X29545Y16493D01*
X29270D01*
X29263Y16503D01*
X29197Y16547D01*
X29120Y16562D01*
X29043Y16547D01*
X28977Y16503D01*
X28933Y16437D01*
X28918Y16360D01*
X28933Y16283D01*
X28977Y16217D01*
X29043Y16173D01*
X29120Y16158D01*
X29197Y16173D01*
X29263Y16217D01*
X29270Y16227D01*
X29600D01*
X29651Y16238D01*
X29694Y16266D01*
X30138Y16710D01*
X30150Y16708D01*
X30227Y16723D01*
X30293Y16767D01*
X30337Y16833D01*
X30352Y16910D01*
X30337Y16987D01*
X30293Y17053D01*
X30227Y17097D01*
X30150Y17112D01*
D02*
G37*
G36*
X18600Y15794D02*
X18523Y15783D01*
X18451Y15754D01*
X18390Y15706D01*
X18342Y15645D01*
X18313Y15573D01*
X18302Y15496D01*
X18313Y15419D01*
X18342Y15347D01*
X18390Y15286D01*
X18451Y15238D01*
X18523Y15209D01*
X18600Y15198D01*
X18677Y15209D01*
X18749Y15238D01*
X18810Y15286D01*
X18858Y15347D01*
X18887Y15419D01*
X18898Y15496D01*
X18887Y15573D01*
X18858Y15645D01*
X18810Y15706D01*
X18749Y15754D01*
X18677Y15783D01*
X18600Y15794D01*
D02*
G37*
G36*
X19400D02*
X19323Y15783D01*
X19251Y15754D01*
X19190Y15706D01*
X19142Y15645D01*
X19113Y15573D01*
X19102Y15496D01*
X19113Y15419D01*
X19142Y15347D01*
X19190Y15286D01*
X19251Y15238D01*
X19323Y15209D01*
X19400Y15198D01*
X19445Y15204D01*
X19463Y15156D01*
X19437Y15139D01*
X19393Y15073D01*
X19378Y14996D01*
X19393Y14919D01*
X19437Y14853D01*
X19503Y14809D01*
X19580Y14794D01*
X19657Y14809D01*
X19723Y14853D01*
X19767Y14919D01*
X19782Y14996D01*
X19767Y15073D01*
X19723Y15139D01*
X19657Y15183D01*
X19580Y15198D01*
X19573Y15197D01*
X19571Y15199D01*
X19557Y15245D01*
X19610Y15286D01*
X19658Y15347D01*
X19687Y15419D01*
X19698Y15496D01*
X19687Y15573D01*
X19658Y15645D01*
X19610Y15706D01*
X19549Y15754D01*
X19477Y15783D01*
X19400Y15794D01*
D02*
G37*
G36*
X1200Y15192D02*
X1123Y15177D01*
X1057Y15133D01*
X1013Y15067D01*
X998Y14990D01*
X1013Y14913D01*
X1057Y14847D01*
X1123Y14803D01*
X1200Y14788D01*
X1277Y14803D01*
X1343Y14847D01*
X1387Y14913D01*
X1402Y14990D01*
X1387Y15067D01*
X1343Y15133D01*
X1277Y15177D01*
X1200Y15192D01*
D02*
G37*
G36*
X33765Y14464D02*
X33687Y14449D01*
X33622Y14405D01*
X33578Y14339D01*
X33566Y14279D01*
X33441Y14155D01*
X30554D01*
X30543Y14207D01*
X30499Y14272D01*
X30434Y14316D01*
X30356Y14332D01*
X30279Y14316D01*
X30213Y14272D01*
X30169Y14207D01*
X30154Y14129D01*
X30169Y14052D01*
X30178Y14039D01*
Y13248D01*
X30191Y13180D01*
X30230Y13122D01*
X30817Y12535D01*
Y11271D01*
X30830Y11203D01*
X30869Y11145D01*
X31325Y10689D01*
X31328Y10674D01*
X31372Y10609D01*
X31437Y10565D01*
X31515Y10549D01*
X31592Y10565D01*
X31658Y10609D01*
X31702Y10674D01*
X31717Y10752D01*
X31708Y10796D01*
X31753Y10826D01*
X31773Y10813D01*
X31850Y10798D01*
X31864Y10750D01*
X31873Y10703D01*
X31917Y10637D01*
X31983Y10593D01*
X32022Y10585D01*
X32068Y10560D01*
X32083Y10483D01*
X32127Y10417D01*
X32137Y10410D01*
Y10038D01*
X32148Y9988D01*
X32176Y9945D01*
X33157Y8963D01*
Y5775D01*
X32889Y5506D01*
X32857Y5527D01*
X32780Y5542D01*
X32703Y5527D01*
X32637Y5483D01*
X32628Y5470D01*
X32568Y5471D01*
X32514Y5507D01*
X32437Y5522D01*
X32359Y5507D01*
X32294Y5463D01*
X32250Y5397D01*
X32234Y5320D01*
X32250Y5243D01*
X32283Y5193D01*
X32262Y5143D01*
X32062D01*
X31976Y5228D01*
X31979Y5240D01*
X31964Y5317D01*
X31920Y5383D01*
X31854Y5427D01*
X31777Y5442D01*
X31699Y5427D01*
X31634Y5383D01*
X31590Y5317D01*
X31574Y5240D01*
X31590Y5163D01*
X31612Y5129D01*
X31630Y5090D01*
X31612Y5051D01*
X31590Y5017D01*
X31574Y4940D01*
X31590Y4863D01*
X31634Y4797D01*
X31644Y4790D01*
Y4344D01*
X31637Y4339D01*
X31593Y4274D01*
X31578Y4196D01*
X31593Y4119D01*
X31637Y4053D01*
X31703Y4009D01*
X31780Y3994D01*
X31858Y4009D01*
X31923Y4053D01*
X31967Y4119D01*
X31982Y4196D01*
X31967Y4274D01*
X31923Y4339D01*
X31909Y4349D01*
Y4790D01*
X31920Y4797D01*
X31964Y4863D01*
X31968Y4885D01*
X32007Y4877D01*
X32455D01*
X32470Y4827D01*
X32464Y4823D01*
X32420Y4757D01*
X32404Y4680D01*
X32420Y4603D01*
X32464Y4537D01*
X32529Y4493D01*
X32607Y4478D01*
X32684Y4493D01*
X32750Y4537D01*
X32764D01*
X32829Y4493D01*
X32907Y4478D01*
X32984Y4493D01*
X33050Y4537D01*
X33052Y4537D01*
X33158Y4431D01*
Y4356D01*
X33147Y4349D01*
X33103Y4284D01*
X33088Y4206D01*
X33103Y4129D01*
X33147Y4063D01*
X33213Y4019D01*
X33290Y4004D01*
X33368Y4019D01*
X33433Y4063D01*
X33477Y4129D01*
X33492Y4206D01*
X33477Y4284D01*
X33433Y4349D01*
X33423Y4356D01*
Y4486D01*
X33413Y4537D01*
X33384Y4580D01*
X33190Y4774D01*
X33147Y4802D01*
X33142Y4804D01*
X33125Y4858D01*
X33277Y5010D01*
X33332Y4993D01*
X33340Y4953D01*
X33384Y4887D01*
X33449Y4843D01*
X33527Y4828D01*
X33604Y4843D01*
X33670Y4887D01*
X33714Y4953D01*
X33729Y5030D01*
X33714Y5107D01*
X33670Y5173D01*
X33604Y5217D01*
X33563Y5225D01*
X33547Y5279D01*
X33744Y5476D01*
X33772Y5519D01*
X33783Y5570D01*
Y9175D01*
X33772Y9226D01*
X33744Y9269D01*
X33033Y9980D01*
Y10190D01*
X33043Y10197D01*
X33087Y10263D01*
X33102Y10340D01*
X33087Y10417D01*
X33043Y10483D01*
X32977Y10527D01*
X32935Y10535D01*
X32892Y10560D01*
X32877Y10637D01*
X32833Y10703D01*
X32767Y10747D01*
X32690Y10762D01*
X32613Y10747D01*
X32547Y10703D01*
X32507Y10643D01*
X32480Y10640D01*
X32453Y10643D01*
X32413Y10703D01*
X32347Y10747D01*
X32305Y10755D01*
X32262Y10780D01*
X32247Y10857D01*
X32203Y10923D01*
X32137Y10967D01*
X32060Y10982D01*
X32046Y11031D01*
X32037Y11078D01*
X31993Y11143D01*
X31927Y11187D01*
X31850Y11203D01*
X31773Y11187D01*
X31707Y11143D01*
X31663Y11078D01*
X31648Y11000D01*
X31657Y10956D01*
X31612Y10925D01*
X31592Y10939D01*
X31577Y10941D01*
X31174Y11345D01*
Y12609D01*
X31174Y12609D01*
X31160Y12678D01*
X31121Y12735D01*
X30535Y13322D01*
Y13849D01*
X33505D01*
X33563Y13860D01*
X33613Y13893D01*
X33782Y14063D01*
X33842Y14075D01*
X33908Y14119D01*
X33951Y14184D01*
X33967Y14262D01*
X33951Y14339D01*
X33908Y14405D01*
X33842Y14449D01*
X33765Y14464D01*
D02*
G37*
G36*
X903Y14075D02*
X627D01*
X555Y14065D01*
X488Y14037D01*
X430Y13993D01*
X385Y13935D01*
X357Y13868D01*
X348Y13795D01*
X357Y13723D01*
X385Y13655D01*
X430Y13598D01*
X488Y13553D01*
X555Y13525D01*
X627Y13516D01*
X903D01*
X975Y13525D01*
X1043Y13553D01*
X1101Y13598D01*
X1145Y13655D01*
X1173Y13723D01*
X1183Y13795D01*
X1173Y13868D01*
X1145Y13935D01*
X1101Y13993D01*
X1043Y14037D01*
X975Y14065D01*
X903Y14075D01*
D02*
G37*
G36*
X12710Y13761D02*
X12633Y13746D01*
X12567Y13702D01*
X12523Y13636D01*
X12508Y13559D01*
X12523Y13482D01*
X12567Y13416D01*
X12633Y13372D01*
X12710Y13357D01*
X12788Y13372D01*
X12853Y13416D01*
X12897Y13482D01*
X12913Y13559D01*
X12897Y13636D01*
X12853Y13702D01*
X12788Y13746D01*
X12710Y13761D01*
D02*
G37*
G36*
X11818Y13485D02*
X11741Y13470D01*
X11675Y13426D01*
X11631Y13360D01*
X11616Y13283D01*
X11631Y13205D01*
X11675Y13140D01*
X11741Y13096D01*
X11818Y13081D01*
X11896Y13096D01*
X11961Y13140D01*
X12005Y13205D01*
X12020Y13283D01*
X12005Y13360D01*
X11961Y13426D01*
X11896Y13470D01*
X11818Y13485D01*
D02*
G37*
G36*
X10256Y13310D02*
X10179Y13295D01*
X10113Y13251D01*
X10070Y13185D01*
X10054Y13108D01*
X10070Y13030D01*
X10113Y12965D01*
X10179Y12921D01*
X10256Y12905D01*
X10334Y12921D01*
X10400Y12965D01*
X10443Y13030D01*
X10459Y13108D01*
X10443Y13185D01*
X10400Y13251D01*
X10334Y13295D01*
X10256Y13310D01*
D02*
G37*
G36*
X19360Y12923D02*
X19283Y12907D01*
X19217Y12864D01*
X19173Y12798D01*
X19173Y12795D01*
X19116Y12767D01*
X19077Y12783D01*
X19000Y12794D01*
X18923Y12783D01*
X18851Y12754D01*
X18790Y12706D01*
X18742Y12645D01*
X18713Y12573D01*
X18702Y12496D01*
X18713Y12419D01*
X18742Y12347D01*
X18790Y12286D01*
X18851Y12238D01*
X18923Y12209D01*
X19000Y12198D01*
X19077Y12209D01*
X19149Y12238D01*
X19210Y12286D01*
X19258Y12347D01*
X19287Y12419D01*
X19295Y12480D01*
X19338Y12523D01*
X19360Y12518D01*
X19437Y12534D01*
X19503Y12577D01*
X19547Y12643D01*
X19562Y12721D01*
X19547Y12798D01*
X19503Y12864D01*
X19437Y12907D01*
X19360Y12923D01*
D02*
G37*
G36*
X13317Y13151D02*
X13239Y13136D01*
X13174Y13092D01*
X13130Y13026D01*
X13114Y12949D01*
X13130Y12871D01*
X13174Y12806D01*
X13239Y12762D01*
X13317Y12746D01*
X13394Y12762D01*
X13460Y12806D01*
X13504Y12871D01*
X13519Y12949D01*
X13504Y13026D01*
X13460Y13092D01*
X13394Y13136D01*
X13317Y13151D01*
D02*
G37*
G36*
X13250Y12334D02*
X13173Y12318D01*
X13107Y12275D01*
X13063Y12209D01*
X13048Y12131D01*
X13063Y12054D01*
X13107Y11988D01*
X13173Y11945D01*
X13250Y11929D01*
X13327Y11945D01*
X13393Y11988D01*
X13437Y12054D01*
X13452Y12131D01*
X13437Y12209D01*
X13393Y12275D01*
X13327Y12318D01*
X13250Y12334D01*
D02*
G37*
G36*
X9852D02*
X9775Y12318D01*
X9709Y12275D01*
X9665Y12209D01*
X9650Y12131D01*
X9665Y12054D01*
X9709Y11988D01*
X9775Y11945D01*
X9852Y11929D01*
X9930Y11945D01*
X9995Y11988D01*
X10039Y12054D01*
X10055Y12131D01*
X10039Y12209D01*
X9995Y12275D01*
X9930Y12318D01*
X9852Y12334D01*
D02*
G37*
G36*
X19178Y11703D02*
X19100Y11688D01*
X19035Y11644D01*
X18991Y11578D01*
X18976Y11501D01*
X18991Y11423D01*
X19035Y11358D01*
X19100Y11314D01*
X19178Y11298D01*
X19255Y11314D01*
X19321Y11358D01*
X19365Y11423D01*
X19380Y11501D01*
X19365Y11578D01*
X19321Y11644D01*
X19255Y11688D01*
X19178Y11703D01*
D02*
G37*
G36*
X903Y11476D02*
X627D01*
X555Y11467D01*
X488Y11439D01*
X430Y11394D01*
X385Y11337D01*
X357Y11269D01*
X348Y11197D01*
X357Y11124D01*
X385Y11057D01*
X430Y10999D01*
X488Y10955D01*
X555Y10927D01*
X627Y10917D01*
X903D01*
X975Y10927D01*
X1043Y10955D01*
X1101Y10999D01*
X1145Y11057D01*
X1173Y11124D01*
X1183Y11197D01*
X1173Y11269D01*
X1145Y11337D01*
X1101Y11394D01*
X1043Y11439D01*
X975Y11467D01*
X903Y11476D01*
D02*
G37*
G36*
X13250Y11162D02*
X13173Y11147D01*
X13107Y11103D01*
X13063Y11037D01*
X13048Y10960D01*
X13063Y10883D01*
X13107Y10817D01*
X13173Y10773D01*
X13250Y10758D01*
X13327Y10773D01*
X13393Y10817D01*
X13437Y10883D01*
X13452Y10960D01*
X13437Y11037D01*
X13393Y11103D01*
X13327Y11147D01*
X13250Y11162D01*
D02*
G37*
G36*
X33710Y11673D02*
X33633Y11657D01*
X33567Y11613D01*
X33523Y11548D01*
X33508Y11470D01*
X33523Y11393D01*
X33567Y11327D01*
X33633Y11283D01*
X33672Y11276D01*
X33718Y11250D01*
X33733Y11173D01*
X33777Y11107D01*
X33843Y11063D01*
X33882Y11056D01*
X33928Y11030D01*
X33943Y10953D01*
X33987Y10887D01*
X34053Y10843D01*
X34092Y10836D01*
X34138Y10810D01*
X34153Y10733D01*
X34197Y10667D01*
X34263Y10623D01*
X34305Y10615D01*
X34348Y10590D01*
X34363Y10513D01*
X34407Y10447D01*
X34473Y10403D01*
X34550Y10388D01*
X34627Y10403D01*
X34693Y10447D01*
X34737Y10513D01*
X34752Y10590D01*
X34737Y10668D01*
X34693Y10733D01*
X34627Y10777D01*
X34588Y10785D01*
X34542Y10810D01*
X34527Y10888D01*
X34483Y10953D01*
X34417Y10997D01*
X34378Y11005D01*
X34332Y11030D01*
X34317Y11108D01*
X34273Y11173D01*
X34207Y11217D01*
X34168Y11225D01*
X34122Y11250D01*
X34107Y11328D01*
X34063Y11393D01*
X33997Y11437D01*
X33958Y11445D01*
X33912Y11470D01*
X33897Y11548D01*
X33853Y11613D01*
X33787Y11657D01*
X33710Y11673D01*
D02*
G37*
G36*
X33260Y11162D02*
X33183Y11147D01*
X33117Y11103D01*
X33073Y11037D01*
X33058Y10960D01*
X33073Y10883D01*
X33117Y10817D01*
X33183Y10773D01*
X33225Y10765D01*
X33268Y10740D01*
X33283Y10663D01*
X33327Y10597D01*
X33393Y10553D01*
X33432Y10545D01*
X33478Y10520D01*
X33493Y10443D01*
X33537Y10377D01*
X33603Y10333D01*
X33680Y10318D01*
X33757Y10333D01*
X33823Y10377D01*
X33867Y10443D01*
X33882Y10520D01*
X33867Y10597D01*
X33823Y10663D01*
X33757Y10707D01*
X33718Y10715D01*
X33672Y10740D01*
X33657Y10817D01*
X33613Y10883D01*
X33547Y10927D01*
X33505Y10935D01*
X33462Y10960D01*
X33447Y11037D01*
X33403Y11103D01*
X33337Y11147D01*
X33260Y11162D01*
D02*
G37*
G36*
X13009Y10175D02*
X12932Y10159D01*
X12866Y10115D01*
X12822Y10050D01*
X12807Y9972D01*
X12822Y9895D01*
X12866Y9829D01*
X12932Y9785D01*
X13009Y9770D01*
X13086Y9785D01*
X13152Y9829D01*
X13196Y9895D01*
X13211Y9972D01*
X13196Y10050D01*
X13152Y10115D01*
X13086Y10159D01*
X13009Y10175D01*
D02*
G37*
G36*
X11624Y9778D02*
X11546Y9763D01*
X11481Y9719D01*
X11437Y9653D01*
X11425Y9594D01*
X11408Y9597D01*
X11331Y9582D01*
X11265Y9538D01*
X11221Y9472D01*
X11206Y9395D01*
X11221Y9318D01*
X11265Y9252D01*
X11331Y9208D01*
X11408Y9193D01*
X11486Y9208D01*
X11551Y9252D01*
X11595Y9318D01*
X11607Y9377D01*
X11624Y9374D01*
X11701Y9389D01*
X11767Y9433D01*
X11811Y9499D01*
X11826Y9576D01*
X11811Y9653D01*
X11767Y9719D01*
X11701Y9763D01*
X11624Y9778D01*
D02*
G37*
G36*
X10859Y9718D02*
X10782Y9702D01*
X10716Y9658D01*
X10672Y9593D01*
X10657Y9515D01*
X10672Y9438D01*
X10716Y9372D01*
X10782Y9328D01*
X10859Y9313D01*
X10937Y9328D01*
X11002Y9372D01*
X11046Y9438D01*
X11062Y9515D01*
X11046Y9593D01*
X11002Y9658D01*
X10937Y9702D01*
X10859Y9718D01*
D02*
G37*
G36*
X10391Y9694D02*
X10314Y9679D01*
X10248Y9635D01*
X10204Y9569D01*
X10189Y9492D01*
X10204Y9415D01*
X10248Y9349D01*
X10314Y9305D01*
X10391Y9290D01*
X10468Y9305D01*
X10534Y9349D01*
X10578Y9415D01*
X10593Y9492D01*
X10578Y9569D01*
X10534Y9635D01*
X10468Y9679D01*
X10391Y9694D01*
D02*
G37*
G36*
X12050Y9627D02*
X11973Y9611D01*
X11907Y9568D01*
X11863Y9502D01*
X11848Y9424D01*
X11863Y9347D01*
X11907Y9281D01*
X11973Y9238D01*
X12050Y9222D01*
X12128Y9238D01*
X12193Y9281D01*
X12237Y9347D01*
X12253Y9424D01*
X12237Y9502D01*
X12193Y9568D01*
X12128Y9611D01*
X12050Y9627D01*
D02*
G37*
G36*
X1710Y9182D02*
X1633Y9167D01*
X1567Y9123D01*
X1523Y9057D01*
X1508Y8980D01*
X1523Y8903D01*
X1567Y8837D01*
X1633Y8793D01*
X1710Y8778D01*
X1787Y8793D01*
X1853Y8837D01*
X1897Y8903D01*
X1912Y8980D01*
X1897Y9057D01*
X1853Y9123D01*
X1787Y9167D01*
X1710Y9182D01*
D02*
G37*
G36*
X5860Y8895D02*
X5783Y8879D01*
X5717Y8835D01*
X5673Y8770D01*
X5658Y8692D01*
X5673Y8615D01*
X5717Y8549D01*
X5783Y8505D01*
X5860Y8490D01*
X5937Y8505D01*
X6003Y8549D01*
X6047Y8615D01*
X6062Y8692D01*
X6047Y8770D01*
X6003Y8835D01*
X5937Y8879D01*
X5860Y8895D01*
D02*
G37*
G36*
X7090Y8392D02*
X7013Y8377D01*
X6962Y8343D01*
X6026D01*
X5975Y8377D01*
X5898Y8392D01*
X5820Y8377D01*
X5755Y8333D01*
X5711Y8267D01*
X5695Y8190D01*
X5711Y8113D01*
X5755Y8047D01*
X5820Y8003D01*
X5898Y7988D01*
X5975Y8003D01*
X6026Y8037D01*
X6962D01*
X7013Y8003D01*
X7090Y7988D01*
X7167Y8003D01*
X7218Y8037D01*
X7227D01*
X8031Y7233D01*
X8043Y7173D01*
X8077Y7122D01*
Y5481D01*
X8033Y5437D01*
X7973Y5425D01*
X7907Y5381D01*
X7863Y5315D01*
X7851Y5255D01*
X7699Y5103D01*
X7441D01*
X7402Y5153D01*
X7410Y5193D01*
X7394Y5271D01*
X7350Y5336D01*
X7285Y5380D01*
X7207Y5395D01*
X7130Y5380D01*
X7064Y5336D01*
X7013Y5350D01*
X6993Y5381D01*
X6927Y5425D01*
X6850Y5440D01*
X6773Y5425D01*
X6707Y5381D01*
X6663Y5315D01*
X6648Y5238D01*
X6663Y5160D01*
X6707Y5095D01*
X6773Y5051D01*
X6817Y5042D01*
X7017Y4842D01*
X7067Y4809D01*
X7125Y4797D01*
X7762D01*
X7821Y4809D01*
X7870Y4842D01*
X8067Y5039D01*
X8127Y5051D01*
X8193Y5095D01*
X8237Y5160D01*
X8249Y5220D01*
X8338Y5310D01*
X8371Y5359D01*
X8383Y5418D01*
Y7122D01*
X8417Y7173D01*
X8432Y7250D01*
X8417Y7327D01*
X8373Y7393D01*
X8307Y7437D01*
X8247Y7449D01*
X7398Y8298D01*
X7349Y8331D01*
X7290Y8343D01*
X7218D01*
X7167Y8377D01*
X7090Y8392D01*
D02*
G37*
G36*
X8961Y13735D02*
X8883Y13719D01*
X8818Y13675D01*
X8774Y13610D01*
X8765Y13566D01*
X8459Y13260D01*
X8424Y13208D01*
X8412Y13145D01*
Y8681D01*
X8424Y8619D01*
X8459Y8566D01*
X8693Y8332D01*
X8702Y8289D01*
X8746Y8223D01*
X8812Y8179D01*
X8889Y8164D01*
X8966Y8179D01*
X9032Y8223D01*
X9076Y8289D01*
X9091Y8366D01*
X9076Y8443D01*
X9032Y8509D01*
X8966Y8553D01*
X8923Y8562D01*
X8736Y8748D01*
Y13078D01*
X8995Y13337D01*
X9038Y13345D01*
X9104Y13389D01*
X9148Y13455D01*
X9163Y13532D01*
X9148Y13610D01*
X9104Y13675D01*
X9038Y13719D01*
X8961Y13735D01*
D02*
G37*
G36*
X9326Y7974D02*
X9248Y7959D01*
X9183Y7915D01*
X9139Y7849D01*
X9124Y7772D01*
X9139Y7695D01*
X9183Y7629D01*
X9248Y7585D01*
X9326Y7570D01*
X9403Y7585D01*
X9469Y7629D01*
X9513Y7695D01*
X9528Y7772D01*
X9513Y7849D01*
X9469Y7915D01*
X9403Y7959D01*
X9326Y7974D01*
D02*
G37*
G36*
X8479D02*
X8401Y7959D01*
X8336Y7915D01*
X8292Y7849D01*
X8276Y7772D01*
X8292Y7695D01*
X8336Y7629D01*
X8401Y7585D01*
X8479Y7570D01*
X8556Y7585D01*
X8622Y7629D01*
X8666Y7695D01*
X8681Y7772D01*
X8666Y7849D01*
X8622Y7915D01*
X8556Y7959D01*
X8479Y7974D01*
D02*
G37*
G36*
X6940Y7890D02*
X6863Y7875D01*
X6797Y7831D01*
X6753Y7765D01*
X6738Y7688D01*
X6753Y7610D01*
X6797Y7545D01*
X6863Y7501D01*
X6940Y7485D01*
X7017Y7501D01*
X7083Y7545D01*
X7127Y7610D01*
X7142Y7688D01*
X7127Y7765D01*
X7083Y7831D01*
X7017Y7875D01*
X6940Y7890D01*
D02*
G37*
G36*
X14489Y7625D02*
X14412Y7609D01*
X14346Y7565D01*
X14302Y7500D01*
X14287Y7422D01*
X14302Y7345D01*
X14346Y7279D01*
X14412Y7235D01*
X14489Y7220D01*
X14566Y7235D01*
X14632Y7279D01*
X14676Y7345D01*
X14691Y7422D01*
X14676Y7500D01*
X14632Y7565D01*
X14566Y7609D01*
X14489Y7625D01*
D02*
G37*
G36*
X10364Y7366D02*
X10287Y7351D01*
X10221Y7307D01*
X10177Y7241D01*
X10162Y7164D01*
X10177Y7086D01*
X10221Y7021D01*
X10287Y6977D01*
X10364Y6961D01*
X10442Y6977D01*
X10507Y7021D01*
X10551Y7086D01*
X10567Y7164D01*
X10551Y7241D01*
X10507Y7307D01*
X10442Y7351D01*
X10364Y7366D01*
D02*
G37*
G36*
X5337Y7715D02*
X3484D01*
Y6255D01*
X3751D01*
Y5842D01*
X3769Y5754D01*
X3818Y5680D01*
X3893Y5630D01*
X3981Y5613D01*
X4068Y5630D01*
X4143Y5680D01*
X4192Y5754D01*
X4210Y5842D01*
Y6255D01*
X5337D01*
Y6654D01*
X5914D01*
X5969Y6665D01*
X6015Y6696D01*
X6327Y7008D01*
X6970D01*
X7180Y6798D01*
X7180Y6796D01*
X7195Y6719D01*
X7239Y6653D01*
X7305Y6609D01*
X7382Y6594D01*
X7460Y6609D01*
X7525Y6653D01*
X7569Y6719D01*
X7585Y6796D01*
X7569Y6874D01*
X7525Y6939D01*
X7460Y6983D01*
X7382Y6999D01*
X7381Y6998D01*
X7129Y7250D01*
X7083Y7281D01*
X7029Y7292D01*
X6268D01*
X6214Y7281D01*
X6167Y7250D01*
X5856Y6938D01*
X5337D01*
Y7715D01*
D02*
G37*
G36*
X2880Y7450D02*
X2762Y7435D01*
X2653Y7389D01*
X2559Y7317D01*
X2486Y7223D01*
X2441Y7114D01*
X2426Y6996D01*
X2441Y6878D01*
X2486Y6769D01*
X2559Y6675D01*
X2653Y6603D01*
X2762Y6557D01*
X2880Y6542D01*
X2998Y6557D01*
X3107Y6603D01*
X3201Y6675D01*
X3273Y6769D01*
X3319Y6878D01*
X3334Y6996D01*
X3319Y7114D01*
X3273Y7223D01*
X3201Y7317D01*
X3107Y7389D01*
X2998Y7435D01*
X2880Y7450D01*
D02*
G37*
G36*
X32791Y6875D02*
X32714Y6860D01*
X32648Y6816D01*
X32604Y6750D01*
X32589Y6673D01*
X32604Y6595D01*
X32648Y6530D01*
X32659Y6523D01*
Y6236D01*
X32465Y6043D01*
X32377D01*
X32370Y6053D01*
X32304Y6097D01*
X32227Y6112D01*
X32149Y6097D01*
X32084Y6053D01*
X32040Y5987D01*
X32024Y5910D01*
X32040Y5833D01*
X32084Y5767D01*
X32149Y5723D01*
X32227Y5708D01*
X32304Y5723D01*
X32370Y5767D01*
X32377Y5777D01*
X32520D01*
X32571Y5788D01*
X32614Y5816D01*
X32885Y6088D01*
X32914Y6131D01*
X32924Y6181D01*
Y6523D01*
X32934Y6530D01*
X32978Y6595D01*
X32994Y6673D01*
X32978Y6750D01*
X32934Y6816D01*
X32869Y6860D01*
X32791Y6875D01*
D02*
G37*
G36*
X7693Y6149D02*
X7615Y6134D01*
X7550Y6090D01*
X7506Y6024D01*
X7490Y5947D01*
X7506Y5869D01*
X7550Y5804D01*
X7615Y5760D01*
X7693Y5745D01*
X7770Y5760D01*
X7836Y5804D01*
X7880Y5869D01*
X7895Y5947D01*
X7880Y6024D01*
X7836Y6090D01*
X7770Y6134D01*
X7693Y6149D01*
D02*
G37*
G36*
X6493D02*
X6415Y6134D01*
X6350Y6090D01*
X6306Y6024D01*
X6290Y5947D01*
X6306Y5869D01*
X6350Y5804D01*
X6415Y5760D01*
X6493Y5745D01*
X6570Y5760D01*
X6636Y5804D01*
X6680Y5869D01*
X6695Y5947D01*
X6680Y6024D01*
X6636Y6090D01*
X6570Y6134D01*
X6493Y6149D01*
D02*
G37*
G36*
X28557Y6112D02*
X28480Y6097D01*
X28414Y6053D01*
X28370Y5987D01*
X28355Y5910D01*
X28370Y5833D01*
X28414Y5767D01*
X28480Y5723D01*
X28557Y5708D01*
X28635Y5723D01*
X28700Y5767D01*
X28744Y5833D01*
X28760Y5910D01*
X28744Y5987D01*
X28700Y6053D01*
X28635Y6097D01*
X28557Y6112D01*
D02*
G37*
G36*
X5510Y5802D02*
X5433Y5787D01*
X5367Y5743D01*
X5323Y5677D01*
X5308Y5600D01*
X5310Y5588D01*
X5022Y5300D01*
X5010Y5302D01*
X4933Y5287D01*
X4867Y5243D01*
X4823Y5177D01*
X4808Y5100D01*
X4823Y5023D01*
X4867Y4957D01*
X4933Y4913D01*
X5010Y4898D01*
X5087Y4913D01*
X5153Y4957D01*
X5197Y5023D01*
X5212Y5100D01*
X5210Y5112D01*
X5498Y5400D01*
X5510Y5398D01*
X5587Y5413D01*
X5653Y5457D01*
X5697Y5523D01*
X5712Y5600D01*
X5697Y5677D01*
X5653Y5743D01*
X5587Y5787D01*
X5510Y5802D01*
D02*
G37*
G36*
X10341Y5779D02*
X10264Y5763D01*
X10198Y5720D01*
X10154Y5654D01*
X10139Y5577D01*
X10154Y5499D01*
X10198Y5434D01*
X10264Y5390D01*
X10341Y5374D01*
X10418Y5390D01*
X10484Y5434D01*
X10528Y5499D01*
X10543Y5577D01*
X10528Y5654D01*
X10484Y5720D01*
X10418Y5763D01*
X10341Y5779D01*
D02*
G37*
G36*
X6007Y5395D02*
X5930Y5380D01*
X5864Y5336D01*
X5820Y5271D01*
X5805Y5193D01*
X5820Y5116D01*
X5864Y5050D01*
X5930Y5006D01*
X6007Y4991D01*
X6085Y5006D01*
X6150Y5050D01*
X6194Y5116D01*
X6210Y5193D01*
X6194Y5271D01*
X6150Y5336D01*
X6085Y5380D01*
X6007Y5395D01*
D02*
G37*
G36*
X30199Y4789D02*
X30121Y4774D01*
X30056Y4730D01*
X30012Y4664D01*
X29997Y4587D01*
X30012Y4509D01*
X30056Y4444D01*
X30121Y4400D01*
X30199Y4384D01*
X30276Y4400D01*
X30342Y4444D01*
X30386Y4509D01*
X30401Y4587D01*
X30386Y4664D01*
X30342Y4730D01*
X30276Y4774D01*
X30199Y4789D01*
D02*
G37*
G36*
X19050Y4752D02*
X18973Y4737D01*
X18907Y4693D01*
X18863Y4627D01*
X18848Y4550D01*
X18863Y4473D01*
X18907Y4407D01*
X18973Y4363D01*
X19050Y4348D01*
X19127Y4363D01*
X19193Y4407D01*
X19237Y4473D01*
X19252Y4550D01*
X19237Y4627D01*
X19193Y4693D01*
X19127Y4737D01*
X19050Y4752D01*
D02*
G37*
G36*
X30709Y4578D02*
X30632Y4563D01*
X30566Y4519D01*
X30522Y4453D01*
X30507Y4376D01*
X30522Y4299D01*
X30566Y4233D01*
X30632Y4189D01*
X30709Y4174D01*
X30786Y4189D01*
X30852Y4233D01*
X30896Y4299D01*
X30911Y4376D01*
X30896Y4453D01*
X30852Y4519D01*
X30786Y4563D01*
X30709Y4578D01*
D02*
G37*
G36*
X3560Y3912D02*
X3483Y3897D01*
X3417Y3853D01*
X3373Y3787D01*
X3358Y3710D01*
X3373Y3633D01*
X3417Y3567D01*
X3483Y3523D01*
X3560Y3508D01*
X3637Y3523D01*
X3703Y3567D01*
X3747Y3633D01*
X3762Y3710D01*
X3747Y3787D01*
X3703Y3853D01*
X3637Y3897D01*
X3560Y3912D01*
D02*
G37*
G36*
X17301Y3523D02*
X17050D01*
Y3042D01*
X17301D01*
Y3523D01*
D02*
G37*
G36*
X16950D02*
X16699D01*
Y3042D01*
X16950D01*
Y3523D01*
D02*
G37*
G36*
X16301D02*
X16050D01*
Y3042D01*
X16301D01*
Y3523D01*
D02*
G37*
G36*
X15950D02*
X15699D01*
Y3042D01*
X15950D01*
Y3523D01*
D02*
G37*
G36*
X17301Y2950D02*
X17050D01*
Y2469D01*
X17301D01*
Y2950D01*
D02*
G37*
G36*
X16950D02*
X16699D01*
Y2469D01*
X16950D01*
Y2950D01*
D02*
G37*
G36*
X16301D02*
X16050D01*
Y2469D01*
X16301D01*
Y2950D01*
D02*
G37*
G36*
X15950D02*
X15699D01*
Y2469D01*
X15950D01*
Y2950D01*
D02*
G37*
G36*
X19050Y2768D02*
X18973Y2753D01*
X18907Y2709D01*
X18863Y2643D01*
X18848Y2566D01*
X18863Y2489D01*
X18907Y2423D01*
X18973Y2379D01*
X19050Y2364D01*
X19127Y2379D01*
X19193Y2423D01*
X19237Y2489D01*
X19252Y2566D01*
X19237Y2643D01*
X19193Y2709D01*
X19127Y2753D01*
X19050Y2768D01*
D02*
G37*
G36*
X1196Y2235D02*
X1118Y2220D01*
X1053Y2176D01*
X1009Y2110D01*
X993Y2033D01*
X1009Y1955D01*
X1053Y1890D01*
X1118Y1846D01*
X1196Y1830D01*
X1273Y1846D01*
X1339Y1890D01*
X1383Y1955D01*
X1398Y2033D01*
X1383Y2110D01*
X1339Y2176D01*
X1273Y2220D01*
X1196Y2235D01*
D02*
G37*
G36*
X17301Y2369D02*
X16699D01*
Y1888D01*
X16763D01*
X16797Y1844D01*
X16797Y1838D01*
X16718Y1778D01*
X16655Y1695D01*
X16615Y1599D01*
X16608Y1546D01*
X17392D01*
X17385Y1599D01*
X17345Y1695D01*
X17282Y1778D01*
X17203Y1838D01*
X17203Y1844D01*
X17237Y1888D01*
X17301D01*
Y2369D01*
D02*
G37*
G36*
X16301D02*
X15699D01*
Y1888D01*
X15763D01*
X15797Y1844D01*
X15797Y1838D01*
X15718Y1778D01*
X15655Y1695D01*
X15615Y1599D01*
X15608Y1546D01*
X16392D01*
X16385Y1599D01*
X16345Y1695D01*
X16282Y1778D01*
X16203Y1838D01*
X16203Y1844D01*
X16237Y1888D01*
X16301D01*
Y2369D01*
D02*
G37*
G36*
X1650Y1709D02*
X1573Y1694D01*
X1507Y1650D01*
X1463Y1584D01*
X1448Y1507D01*
X1463Y1429D01*
X1507Y1364D01*
X1573Y1320D01*
X1650Y1304D01*
X1727Y1320D01*
X1793Y1364D01*
X1837Y1429D01*
X1852Y1507D01*
X1837Y1584D01*
X1793Y1650D01*
X1727Y1694D01*
X1650Y1709D01*
D02*
G37*
G36*
X707D02*
X630Y1694D01*
X564Y1650D01*
X520Y1584D01*
X505Y1507D01*
X520Y1429D01*
X564Y1364D01*
X630Y1320D01*
X707Y1304D01*
X784Y1320D01*
X850Y1364D01*
X894Y1429D01*
X909Y1507D01*
X894Y1584D01*
X850Y1650D01*
X784Y1694D01*
X707Y1709D01*
D02*
G37*
G36*
X17392Y1446D02*
X17050D01*
Y1104D01*
X17103Y1111D01*
X17199Y1151D01*
X17282Y1214D01*
X17345Y1297D01*
X17385Y1393D01*
X17392Y1446D01*
D02*
G37*
G36*
X16950D02*
X16608D01*
X16615Y1393D01*
X16655Y1297D01*
X16718Y1214D01*
X16801Y1151D01*
X16897Y1111D01*
X16950Y1104D01*
Y1446D01*
D02*
G37*
G36*
X16392D02*
X16050D01*
Y1104D01*
X16103Y1111D01*
X16199Y1151D01*
X16282Y1214D01*
X16345Y1297D01*
X16385Y1393D01*
X16392Y1446D01*
D02*
G37*
G36*
X15950D02*
X15608D01*
X15615Y1393D01*
X15655Y1297D01*
X15718Y1214D01*
X15801Y1151D01*
X15897Y1111D01*
X15950Y1104D01*
Y1446D01*
D02*
G37*
G36*
X25050Y888D02*
Y546D01*
X25392D01*
X25385Y599D01*
X25345Y695D01*
X25282Y778D01*
X25199Y841D01*
X25103Y881D01*
X25050Y888D01*
D02*
G37*
G36*
X24950D02*
X24897Y881D01*
X24801Y841D01*
X24718Y778D01*
X24655Y695D01*
X24615Y599D01*
X24608Y546D01*
X24950D01*
Y888D01*
D02*
G37*
G36*
X24050D02*
Y546D01*
X24392D01*
X24385Y599D01*
X24345Y695D01*
X24282Y778D01*
X24199Y841D01*
X24103Y881D01*
X24050Y888D01*
D02*
G37*
G36*
X23950D02*
X23897Y881D01*
X23801Y841D01*
X23718Y778D01*
X23655Y695D01*
X23615Y599D01*
X23608Y546D01*
X23950D01*
Y888D01*
D02*
G37*
G36*
X23050D02*
Y546D01*
X23392D01*
X23385Y599D01*
X23345Y695D01*
X23282Y778D01*
X23199Y841D01*
X23103Y881D01*
X23050Y888D01*
D02*
G37*
G36*
X22950D02*
X22897Y881D01*
X22801Y841D01*
X22718Y778D01*
X22655Y695D01*
X22615Y599D01*
X22608Y546D01*
X22950D01*
Y888D01*
D02*
G37*
G36*
X22050D02*
Y546D01*
X22392D01*
X22385Y599D01*
X22345Y695D01*
X22282Y778D01*
X22199Y841D01*
X22103Y881D01*
X22050Y888D01*
D02*
G37*
G36*
X21950D02*
X21897Y881D01*
X21801Y841D01*
X21718Y778D01*
X21655Y695D01*
X21615Y599D01*
X21608Y546D01*
X21950D01*
Y888D01*
D02*
G37*
G36*
X21050D02*
Y546D01*
X21392D01*
X21385Y599D01*
X21345Y695D01*
X21282Y778D01*
X21199Y841D01*
X21103Y881D01*
X21050Y888D01*
D02*
G37*
G36*
X20950D02*
X20897Y881D01*
X20801Y841D01*
X20718Y778D01*
X20655Y695D01*
X20615Y599D01*
X20608Y546D01*
X20950D01*
Y888D01*
D02*
G37*
G36*
X20395Y891D02*
X20050D01*
Y546D01*
X20395D01*
Y891D01*
D02*
G37*
G36*
X19950D02*
X19605D01*
Y546D01*
X19950D01*
Y891D01*
D02*
G37*
G36*
X18050Y888D02*
Y546D01*
X18392D01*
X18385Y599D01*
X18345Y695D01*
X18282Y778D01*
X18199Y841D01*
X18103Y881D01*
X18050Y888D01*
D02*
G37*
G36*
X17950D02*
X17897Y881D01*
X17801Y841D01*
X17718Y778D01*
X17655Y695D01*
X17615Y599D01*
X17608Y546D01*
X17950D01*
Y888D01*
D02*
G37*
G36*
X17050D02*
Y546D01*
X17392D01*
X17385Y599D01*
X17345Y695D01*
X17282Y778D01*
X17199Y841D01*
X17103Y881D01*
X17050Y888D01*
D02*
G37*
G36*
X16950D02*
X16897Y881D01*
X16801Y841D01*
X16718Y778D01*
X16655Y695D01*
X16615Y599D01*
X16608Y546D01*
X16950D01*
Y888D01*
D02*
G37*
G36*
X16050D02*
Y546D01*
X16392D01*
X16385Y599D01*
X16345Y695D01*
X16282Y778D01*
X16199Y841D01*
X16103Y881D01*
X16050Y888D01*
D02*
G37*
G36*
X15950D02*
X15897Y881D01*
X15801Y841D01*
X15718Y778D01*
X15655Y695D01*
X15615Y599D01*
X15608Y546D01*
X15950D01*
Y888D01*
D02*
G37*
G36*
X15050D02*
Y546D01*
X15392D01*
X15385Y599D01*
X15345Y695D01*
X15282Y778D01*
X15199Y841D01*
X15103Y881D01*
X15050Y888D01*
D02*
G37*
G36*
X14950D02*
X14897Y881D01*
X14801Y841D01*
X14718Y778D01*
X14655Y695D01*
X14615Y599D01*
X14608Y546D01*
X14950D01*
Y888D01*
D02*
G37*
G36*
X14050D02*
Y546D01*
X14392D01*
X14385Y599D01*
X14345Y695D01*
X14282Y778D01*
X14199Y841D01*
X14103Y881D01*
X14050Y888D01*
D02*
G37*
G36*
X13950D02*
X13897Y881D01*
X13801Y841D01*
X13718Y778D01*
X13655Y695D01*
X13615Y599D01*
X13608Y546D01*
X13950D01*
Y888D01*
D02*
G37*
G36*
X13050D02*
Y546D01*
X13392D01*
X13385Y599D01*
X13345Y695D01*
X13282Y778D01*
X13199Y841D01*
X13103Y881D01*
X13050Y888D01*
D02*
G37*
G36*
X12950D02*
X12897Y881D01*
X12801Y841D01*
X12718Y778D01*
X12655Y695D01*
X12615Y599D01*
X12608Y546D01*
X12950D01*
Y888D01*
D02*
G37*
G36*
X12050D02*
Y546D01*
X12392D01*
X12385Y599D01*
X12345Y695D01*
X12282Y778D01*
X12199Y841D01*
X12103Y881D01*
X12050Y888D01*
D02*
G37*
G36*
X11950D02*
X11897Y881D01*
X11801Y841D01*
X11718Y778D01*
X11655Y695D01*
X11615Y599D01*
X11608Y546D01*
X11950D01*
Y888D01*
D02*
G37*
G36*
X11395Y891D02*
X11050D01*
Y546D01*
X11395D01*
Y891D01*
D02*
G37*
G36*
X10950D02*
X10605D01*
Y546D01*
X10950D01*
Y891D01*
D02*
G37*
G36*
X4645Y888D02*
Y546D01*
X4988D01*
X4981Y599D01*
X4941Y695D01*
X4877Y778D01*
X4795Y841D01*
X4699Y881D01*
X4645Y888D01*
D02*
G37*
G36*
X4545D02*
X4492Y881D01*
X4396Y841D01*
X4314Y778D01*
X4250Y695D01*
X4210Y599D01*
X4203Y546D01*
X4545D01*
Y888D01*
D02*
G37*
G36*
X5630Y1230D02*
X5501Y1213D01*
X5380Y1163D01*
X5276Y1084D01*
X5197Y980D01*
X5147Y859D01*
X5130Y730D01*
X5147Y601D01*
X5197Y480D01*
X5276Y376D01*
X5380Y297D01*
X5501Y247D01*
X5630Y230D01*
X5759Y247D01*
X5880Y297D01*
X5984Y376D01*
X6063Y480D01*
X6113Y601D01*
X6130Y730D01*
X6113Y859D01*
X6063Y980D01*
X5984Y1084D01*
X5880Y1163D01*
X5759Y1213D01*
X5630Y1230D01*
D02*
G37*
%LPD*%
G36*
X26119Y19820D02*
X26147Y19782D01*
Y19116D01*
X26097Y19075D01*
X26060Y19082D01*
X25983Y19067D01*
X25917Y19023D01*
X25873Y18957D01*
X25865Y18915D01*
X25840Y18872D01*
X25763Y18857D01*
X25697Y18813D01*
X25653Y18747D01*
X25638Y18670D01*
X25653Y18593D01*
X25654Y18591D01*
X25529Y18465D01*
X25483Y18484D01*
Y19820D01*
X26119D01*
D02*
G37*
G36*
X27167Y17583D02*
Y14297D01*
X24033D01*
Y14435D01*
X24345Y14747D01*
X24391Y14723D01*
X24406Y14646D01*
X24450Y14580D01*
X24516Y14536D01*
X24593Y14521D01*
X24671Y14536D01*
X24736Y14580D01*
X24761Y14617D01*
X24821Y14616D01*
X24847Y14577D01*
X24913Y14533D01*
X24990Y14518D01*
X25067Y14533D01*
X25133Y14577D01*
X25177Y14643D01*
X25192Y14720D01*
X25177Y14797D01*
X25133Y14863D01*
X25067Y14907D01*
X25053Y14910D01*
Y15393D01*
X25101Y15406D01*
X25128Y15362D01*
X25238Y15234D01*
X25366Y15124D01*
X25510Y15035D01*
X25667Y14971D01*
X25831Y14931D01*
X26000Y14918D01*
X26169Y14931D01*
X26333Y14971D01*
X26490Y15035D01*
X26634Y15124D01*
X26762Y15234D01*
X26872Y15362D01*
X26961Y15507D01*
X27025Y15663D01*
X27065Y15827D01*
X27078Y15996D01*
X27065Y16165D01*
X27025Y16329D01*
X26961Y16486D01*
X26872Y16630D01*
X26762Y16758D01*
X26634Y16868D01*
X26560Y16913D01*
X26549Y16962D01*
X26549D01*
X26549Y16962D01*
Y17596D01*
X27155D01*
X27167Y17583D01*
D02*
G37*
G36*
X27511Y10735D02*
X27550Y10712D01*
X27573Y10691D01*
X27602Y10662D01*
X27619Y10636D01*
X27634Y10590D01*
X27605Y10560D01*
X27266D01*
X27245Y10572D01*
X27238Y10592D01*
X27250Y10632D01*
X27273Y10668D01*
X27305Y10701D01*
X27359Y10734D01*
X27387Y10744D01*
X27474Y10746D01*
X27511Y10735D01*
D02*
G37*
G36*
X26926D02*
X26965Y10712D01*
X26988Y10691D01*
X27017Y10662D01*
X27034Y10636D01*
X27049Y10590D01*
X27020Y10560D01*
X26681D01*
X26660Y10572D01*
X26653Y10592D01*
X26665Y10632D01*
X26688Y10668D01*
X26720Y10701D01*
X26774Y10734D01*
X26802Y10744D01*
X26889Y10746D01*
X26926Y10735D01*
D02*
G37*
G36*
X26341D02*
X26380Y10712D01*
X26403Y10691D01*
X26432Y10662D01*
X26449Y10636D01*
X26464Y10590D01*
X26435Y10560D01*
X26096D01*
X26075Y10572D01*
X26068Y10592D01*
X26080Y10632D01*
X26103Y10668D01*
X26135Y10701D01*
X26189Y10734D01*
X26217Y10744D01*
X26304Y10746D01*
X26341Y10735D01*
D02*
G37*
G36*
X25756D02*
X25795Y10712D01*
X25818Y10691D01*
X25847Y10662D01*
X25864Y10636D01*
X25879Y10590D01*
X25850Y10560D01*
X25511D01*
X25490Y10572D01*
X25483Y10592D01*
X25495Y10632D01*
X25518Y10668D01*
X25550Y10701D01*
X25604Y10734D01*
X25632Y10744D01*
X25719Y10746D01*
X25756Y10735D01*
D02*
G37*
G36*
X27625Y10468D02*
X27632Y10448D01*
X27620Y10408D01*
X27597Y10372D01*
X27565Y10339D01*
X27511Y10306D01*
X27483Y10296D01*
X27396Y10294D01*
X27359Y10305D01*
X27320Y10328D01*
X27297Y10349D01*
X27268Y10378D01*
X27251Y10403D01*
X27236Y10450D01*
X27265Y10479D01*
X27604D01*
X27625Y10468D01*
D02*
G37*
G36*
X27040D02*
X27047Y10448D01*
X27035Y10408D01*
X27012Y10372D01*
X26980Y10339D01*
X26926Y10306D01*
X26898Y10296D01*
X26811Y10294D01*
X26774Y10305D01*
X26735Y10328D01*
X26712Y10349D01*
X26683Y10378D01*
X26666Y10403D01*
X26651Y10450D01*
X26680Y10479D01*
X27019D01*
X27040Y10468D01*
D02*
G37*
G36*
X26455D02*
X26462Y10448D01*
X26450Y10408D01*
X26427Y10372D01*
X26395Y10339D01*
X26341Y10306D01*
X26313Y10296D01*
X26226Y10294D01*
X26189Y10305D01*
X26150Y10328D01*
X26127Y10349D01*
X26098Y10378D01*
X26081Y10403D01*
X26066Y10450D01*
X26095Y10479D01*
X26434D01*
X26455Y10468D01*
D02*
G37*
G36*
X25870D02*
X25877Y10448D01*
X25865Y10408D01*
X25842Y10372D01*
X25810Y10339D01*
X25756Y10306D01*
X25728Y10296D01*
X25641Y10294D01*
X25604Y10305D01*
X25565Y10328D01*
X25542Y10349D01*
X25513Y10378D01*
X25496Y10403D01*
X25481Y10450D01*
X25510Y10479D01*
X25849D01*
X25870Y10468D01*
D02*
G37*
G36*
X21387Y9538D02*
Y6984D01*
X21337Y6980D01*
X21328Y7026D01*
X21284Y7092D01*
X21219Y7136D01*
X21141Y7151D01*
X21064Y7136D01*
X20998Y7092D01*
X20954Y7026D01*
X20939Y6949D01*
X20954Y6871D01*
X20998Y6806D01*
X21017Y6793D01*
Y6628D01*
X20967Y6587D01*
X20940Y6592D01*
X20928Y6590D01*
X20303Y7215D01*
Y8505D01*
X20619Y8821D01*
X20647Y8864D01*
X20658Y8915D01*
Y9349D01*
X20708Y9365D01*
X20717Y9351D01*
X20782Y9307D01*
X20860Y9291D01*
X20937Y9307D01*
X21003Y9351D01*
X21010Y9361D01*
X21091D01*
X21142Y9371D01*
X21185Y9400D01*
X21341Y9557D01*
X21387Y9538D01*
D02*
G37*
G36*
X26314Y9806D02*
X26321Y9773D01*
X26365Y9707D01*
X26431Y9663D01*
X26508Y9648D01*
X26520Y9650D01*
X26542Y9629D01*
X26585Y9600D01*
X26635Y9590D01*
X28221D01*
X28222Y9571D01*
X28687D01*
Y9355D01*
X28292Y8960D01*
X28280Y8962D01*
X28203Y8947D01*
X28137Y8903D01*
X28093Y8837D01*
X28078Y8760D01*
X28093Y8683D01*
X28137Y8617D01*
X28203Y8573D01*
X28280Y8558D01*
X28292Y8560D01*
X28897Y7955D01*
Y7635D01*
X28525Y7263D01*
X28046D01*
X28005Y7313D01*
X28012Y7350D01*
X27997Y7427D01*
X27974Y7461D01*
X27956Y7500D01*
X27974Y7539D01*
X27997Y7573D01*
X28012Y7650D01*
X27997Y7727D01*
X27974Y7762D01*
X27956Y7801D01*
X27974Y7839D01*
X27997Y7874D01*
X28012Y7952D01*
X27997Y8029D01*
X27953Y8095D01*
Y8111D01*
X27997Y8176D01*
X28012Y8254D01*
X27997Y8331D01*
X27953Y8397D01*
X27887Y8441D01*
X27810Y8456D01*
X27733Y8441D01*
X27667Y8397D01*
X27657Y8383D01*
X27140D01*
X27130Y8397D01*
X27065Y8441D01*
X26987Y8456D01*
X26910Y8441D01*
X26844Y8397D01*
X26800Y8331D01*
X26785Y8254D01*
X26800Y8176D01*
X26824Y8141D01*
X26841Y8103D01*
X26824Y8064D01*
X26800Y8029D01*
X26785Y7952D01*
X26800Y7874D01*
X26844Y7809D01*
Y7793D01*
X26800Y7727D01*
X26785Y7650D01*
X26800Y7573D01*
X26827Y7533D01*
X26800Y7483D01*
X25927D01*
X25920Y7493D01*
X25855Y7537D01*
X25777Y7552D01*
X25700Y7537D01*
X25634Y7493D01*
X25590Y7427D01*
X25575Y7350D01*
X25582Y7313D01*
X25541Y7263D01*
X22960D01*
X22953Y7273D01*
X22887Y7317D01*
X22810Y7332D01*
X22798Y7330D01*
X22013Y8115D01*
Y8880D01*
X22063Y8906D01*
X22083Y8893D01*
X22160Y8878D01*
X22237Y8893D01*
X22303Y8937D01*
X22310Y8947D01*
X25330D01*
X25381Y8958D01*
X25424Y8986D01*
X26260Y9823D01*
X26314Y9806D01*
D02*
G37*
G36*
X18067Y8687D02*
X18077Y8680D01*
Y8063D01*
X18088Y8012D01*
X18116Y7969D01*
X18193Y7892D01*
X18182Y7833D01*
X18137Y7803D01*
X18093Y7737D01*
X18078Y7660D01*
X18093Y7583D01*
X18137Y7517D01*
X18183Y7486D01*
X18147Y7431D01*
X18131Y7354D01*
X18136Y7328D01*
X18127Y7315D01*
X18093Y7290D01*
X18030Y7302D01*
X17953Y7287D01*
X17887Y7243D01*
X17843Y7177D01*
X17828Y7100D01*
X17780Y7081D01*
X17249D01*
X17242Y7092D01*
X17176Y7136D01*
X17099Y7151D01*
X17021Y7136D01*
X16956Y7092D01*
X16912Y7026D01*
X16896Y6949D01*
X16912Y6871D01*
X16956Y6806D01*
X17021Y6762D01*
X17099Y6746D01*
X17176Y6762D01*
X17242Y6806D01*
X17249Y6816D01*
X17772D01*
X17777Y6766D01*
X17727Y6756D01*
X17662Y6712D01*
X17618Y6647D01*
X17602Y6569D01*
X17618Y6492D01*
X17662Y6426D01*
X17727Y6382D01*
X17805Y6367D01*
X17849Y6376D01*
X17850Y6376D01*
X17897Y6337D01*
Y5675D01*
X17821Y5598D01*
X17800Y5602D01*
X17723Y5587D01*
X17657Y5543D01*
X17613Y5477D01*
X17598Y5400D01*
X17602Y5379D01*
X17345Y5123D01*
X15969D01*
X15933Y5173D01*
X15942Y5220D01*
X15927Y5297D01*
X15883Y5363D01*
X15877Y5367D01*
X15874Y5417D01*
X16255Y5797D01*
X16480D01*
X16487Y5787D01*
X16553Y5743D01*
X16630Y5728D01*
X16707Y5743D01*
X16773Y5787D01*
X16817Y5853D01*
X16832Y5930D01*
X16817Y6007D01*
X16773Y6073D01*
X16710Y6115D01*
Y6352D01*
X16760Y6372D01*
X17040Y6092D01*
X17038Y6080D01*
X17053Y6003D01*
X17097Y5937D01*
X17163Y5893D01*
X17240Y5878D01*
X17317Y5893D01*
X17383Y5937D01*
X17427Y6003D01*
X17442Y6080D01*
X17427Y6157D01*
X17383Y6223D01*
X17317Y6267D01*
X17240Y6282D01*
X17228Y6280D01*
X16874Y6634D01*
X16831Y6662D01*
X16780Y6673D01*
X15765D01*
X15663Y6775D01*
Y6850D01*
X15673Y6857D01*
X15717Y6923D01*
X15732Y7000D01*
X15721Y7056D01*
X15753Y7106D01*
X15989D01*
X16040Y7117D01*
X16083Y7145D01*
X16690Y7753D01*
X16729Y7721D01*
X16719Y7705D01*
X16704Y7628D01*
X16719Y7551D01*
X16763Y7485D01*
X16829Y7441D01*
X16906Y7426D01*
X16983Y7441D01*
X17049Y7485D01*
X17093Y7551D01*
X17108Y7628D01*
X17093Y7705D01*
X17049Y7771D01*
X16983Y7815D01*
X16906Y7830D01*
X16829Y7815D01*
X16813Y7805D01*
X16781Y7844D01*
X17635Y8697D01*
X18060D01*
X18067Y8687D01*
D02*
G37*
G36*
X24616Y6519D02*
X24655Y6496D01*
X24678Y6475D01*
X24707Y6446D01*
X24723Y6421D01*
X24739Y6374D01*
X24710Y6344D01*
X24370D01*
X24350Y6356D01*
X24343Y6376D01*
X24355Y6416D01*
X24378Y6452D01*
X24410Y6485D01*
X24464Y6518D01*
X24492Y6528D01*
X24579Y6530D01*
X24616Y6519D01*
D02*
G37*
G36*
X24041D02*
X24080Y6496D01*
X24103Y6475D01*
X24132Y6446D01*
X24149Y6421D01*
X24164Y6374D01*
X24135Y6344D01*
X23796D01*
X23775Y6356D01*
X23768Y6376D01*
X23781Y6416D01*
X23803Y6452D01*
X23835Y6485D01*
X23889Y6518D01*
X23917Y6528D01*
X24004Y6530D01*
X24041Y6519D01*
D02*
G37*
G36*
X23467D02*
X23506Y6496D01*
X23529Y6475D01*
X23558Y6446D01*
X23575Y6421D01*
X23590Y6374D01*
X23561Y6344D01*
X23221D01*
X23201Y6356D01*
X23194Y6376D01*
X23206Y6416D01*
X23229Y6452D01*
X23261Y6485D01*
X23315Y6518D01*
X23343Y6528D01*
X23430Y6530D01*
X23467Y6519D01*
D02*
G37*
G36*
X22892D02*
X22931Y6496D01*
X22954Y6475D01*
X22983Y6446D01*
X23000Y6421D01*
X23015Y6374D01*
X22986Y6344D01*
X22647D01*
X22626Y6356D01*
X22619Y6376D01*
X22632Y6416D01*
X22654Y6452D01*
X22686Y6485D01*
X22740Y6518D01*
X22768Y6528D01*
X22855Y6530D01*
X22892Y6519D01*
D02*
G37*
G36*
X24730Y6252D02*
X24737Y6232D01*
X24724Y6192D01*
X24702Y6156D01*
X24670Y6123D01*
X24616Y6090D01*
X24588Y6080D01*
X24501Y6078D01*
X24464Y6089D01*
X24425Y6112D01*
X24402Y6133D01*
X24373Y6162D01*
X24356Y6187D01*
X24341Y6234D01*
X24370Y6264D01*
X24709D01*
X24730Y6252D01*
D02*
G37*
G36*
X24155D02*
X24162Y6232D01*
X24150Y6192D01*
X24127Y6156D01*
X24095Y6123D01*
X24041Y6090D01*
X24013Y6080D01*
X23926Y6078D01*
X23889Y6089D01*
X23850Y6112D01*
X23827Y6133D01*
X23798Y6162D01*
X23781Y6187D01*
X23766Y6234D01*
X23795Y6264D01*
X24134D01*
X24155Y6252D01*
D02*
G37*
G36*
X23581D02*
X23588Y6232D01*
X23575Y6192D01*
X23553Y6156D01*
X23521Y6123D01*
X23467Y6090D01*
X23439Y6080D01*
X23352Y6078D01*
X23315Y6089D01*
X23276Y6112D01*
X23253Y6133D01*
X23224Y6162D01*
X23207Y6187D01*
X23192Y6234D01*
X23221Y6264D01*
X23560D01*
X23581Y6252D01*
D02*
G37*
G36*
X23006D02*
X23013Y6232D01*
X23001Y6192D01*
X22978Y6156D01*
X22946Y6123D01*
X22892Y6090D01*
X22864Y6080D01*
X22777Y6078D01*
X22740Y6089D01*
X22701Y6112D01*
X22678Y6133D01*
X22649Y6162D01*
X22632Y6187D01*
X22617Y6234D01*
X22646Y6264D01*
X22986D01*
X23006Y6252D01*
D02*
G37*
G36*
X18647Y6167D02*
X18658Y6116D01*
X18686Y6073D01*
X18708Y6052D01*
X18707Y6043D01*
X18663Y5977D01*
X18648Y5900D01*
X18663Y5823D01*
X18707Y5757D01*
X18773Y5713D01*
X18850Y5698D01*
X18927Y5713D01*
X18993Y5757D01*
X19037Y5823D01*
X19052Y5900D01*
X19044Y5942D01*
X19070Y5968D01*
X19147Y5983D01*
X19213Y6027D01*
X19257Y6093D01*
X19272Y6170D01*
X19270Y6182D01*
X19316Y6207D01*
X19486Y6036D01*
X19529Y6008D01*
X19556Y6002D01*
Y5513D01*
X18418D01*
X18380Y5535D01*
X18373Y5561D01*
Y6080D01*
X18383Y6087D01*
X18427Y6153D01*
X18438Y6211D01*
X18647D01*
Y6167D01*
D02*
G37*
%LPC*%
G36*
X25120Y8572D02*
X25043Y8557D01*
X24977Y8513D01*
X24933Y8447D01*
X24918Y8370D01*
X24933Y8293D01*
X24977Y8227D01*
X25043Y8183D01*
X25120Y8168D01*
X25197Y8183D01*
X25263Y8227D01*
X25307Y8293D01*
X25322Y8370D01*
X25307Y8447D01*
X25263Y8513D01*
X25197Y8557D01*
X25120Y8572D01*
D02*
G37*
G36*
X17353Y8229D02*
X17276Y8214D01*
X17210Y8170D01*
X17166Y8104D01*
X17151Y8027D01*
X17166Y7949D01*
X17210Y7884D01*
X17276Y7840D01*
X17353Y7825D01*
X17431Y7840D01*
X17496Y7884D01*
X17540Y7949D01*
X17555Y8027D01*
X17540Y8104D01*
X17496Y8170D01*
X17431Y8214D01*
X17353Y8229D01*
D02*
G37*
%LPD*%
G36*
X10099Y18042D02*
X10167D01*
X10199Y18003D01*
X10198Y17996D01*
X10199Y17989D01*
X10167Y17950D01*
X10099D01*
Y16888D01*
X10267D01*
Y16061D01*
X9648D01*
Y16061D01*
X9601Y16042D01*
X9532Y16111D01*
Y16888D01*
X9701D01*
Y17950D01*
X9633D01*
X9601Y17989D01*
X9602Y17996D01*
X9601Y18003D01*
X9633Y18042D01*
X9701D01*
Y18971D01*
X10099D01*
Y18042D01*
D02*
G37*
G36*
X13099D02*
X13167D01*
X13199Y18003D01*
X13198Y17996D01*
X13199Y17989D01*
X13167Y17950D01*
X13099D01*
Y16888D01*
X13267D01*
Y16402D01*
X13278Y16352D01*
X13306Y16309D01*
X13640Y15975D01*
X13621Y15929D01*
X12780D01*
X12533Y16176D01*
Y16888D01*
X12701D01*
Y17950D01*
X12633D01*
X12601Y17989D01*
X12602Y17996D01*
X12601Y18003D01*
X12633Y18042D01*
X12701D01*
Y18974D01*
X13099D01*
Y18042D01*
D02*
G37*
G36*
X12099D02*
X12167D01*
X12199Y18003D01*
X12198Y17996D01*
X12199Y17989D01*
X12167Y17950D01*
X12099D01*
Y16888D01*
X12267D01*
Y16121D01*
X12278Y16071D01*
X12306Y16028D01*
X12475Y15859D01*
X12456Y15813D01*
X11866D01*
X11533Y16146D01*
Y16888D01*
X11701D01*
Y17950D01*
X11633D01*
X11601Y17989D01*
X11602Y17996D01*
X11601Y18003D01*
X11633Y18042D01*
X11701D01*
Y18967D01*
X12099D01*
Y18042D01*
D02*
G37*
G36*
X11099D02*
X11167D01*
X11199Y18003D01*
X11198Y17996D01*
X11199Y17989D01*
X11167Y17950D01*
X11099D01*
Y16888D01*
X11267D01*
Y16091D01*
X11278Y16040D01*
X11306Y15997D01*
X11569Y15735D01*
X11550Y15688D01*
X10939D01*
X10533Y16095D01*
Y16888D01*
X10701D01*
Y17950D01*
X10633D01*
X10601Y17989D01*
X10602Y17996D01*
X10601Y18003D01*
X10633Y18042D01*
X10701D01*
Y18959D01*
X11099D01*
Y18042D01*
D02*
G37*
D12*
X25849Y10590D02*
G03*
X25510Y10590I-170J-44D01*
G01*
Y10449D02*
G03*
X25849Y10449I170J44D01*
G01*
X26435Y10590D02*
G03*
X26096Y10590I-170J-44D01*
G01*
Y10449D02*
G03*
X26435Y10449I170J44D01*
G01*
X27605Y10590D02*
G03*
X27266Y10590I-170J-44D01*
G01*
Y10449D02*
G03*
X27605Y10449I170J44D01*
G01*
X27020Y10590D02*
G03*
X26681Y10590I-170J-44D01*
G01*
Y10449D02*
G03*
X27020Y10449I170J44D01*
G01*
X24709Y6374D02*
G03*
X24370Y6374I-170J-44D01*
G01*
Y6234D02*
G03*
X24709Y6234I170J44D01*
G01*
X24135Y6374D02*
G03*
X23796Y6374I-170J-44D01*
G01*
Y6234D02*
G03*
X24135Y6234I170J44D01*
G01*
X23560Y6374D02*
G03*
X23221Y6374I-170J-44D01*
G01*
Y6234D02*
G03*
X23560Y6234I170J44D01*
G01*
X22986Y6374D02*
G03*
X22647Y6374I-170J-44D01*
G01*
Y6234D02*
G03*
X22986Y6234I170J44D01*
G01*
X14773Y14720D02*
X15029D01*
X13813Y15680D02*
X14773Y14720D01*
X14808Y14531D02*
X14820D01*
X13783Y15556D02*
X14808Y14531D01*
X14726Y14922D02*
X15238D01*
X14691Y15111D02*
X15410D01*
X15425Y15126D01*
X13852Y15796D02*
X14726Y14922D01*
X13400Y16402D02*
X14691Y15111D01*
X11400Y17419D02*
Y17996D01*
Y18573D01*
X10400Y17419D02*
Y17996D01*
Y18573D01*
X13548Y6998D02*
X14701D01*
X12237Y8701D02*
X12552Y9016D01*
X12237Y7337D02*
Y8701D01*
Y7337D02*
X12414Y7160D01*
X13386D01*
X13548Y6998D01*
X12124Y7049D02*
X13342D01*
X13589Y6802D01*
X9415Y9757D02*
X12124Y7049D01*
X13589Y6802D02*
X14998D01*
X11811Y15680D02*
X13813D01*
X10884Y15556D02*
X13783D01*
X12725Y15796D02*
X13852D01*
X13400Y16402D02*
Y17419D01*
Y17996D01*
Y18573D01*
X12400Y17996D02*
Y18573D01*
Y16121D02*
X12725Y15796D01*
X12400Y17419D02*
Y17996D01*
Y16121D02*
Y17419D01*
X11400Y16091D02*
X11811Y15680D01*
X11400Y16091D02*
Y17419D01*
X10400Y16040D02*
X10884Y15556D01*
X10400Y16040D02*
Y17419D01*
X8975Y9734D02*
X12060Y6649D01*
X8975Y9734D02*
Y10786D01*
X9283Y9736D02*
Y10418D01*
X9155Y9709D02*
X12902Y5962D01*
X9283Y9736D02*
X12178Y6840D01*
X9283Y10418D02*
X9709Y10844D01*
X9155Y9709D02*
Y10647D01*
X9415Y10274D02*
X9562Y10421D01*
X9415Y9757D02*
Y10274D01*
X12178Y6840D02*
X13223D01*
X14147Y5962D02*
X14379Y5730D01*
X12902Y5962D02*
X14147D01*
X12060Y6440D02*
Y6649D01*
X8975Y10786D02*
X9359Y11170D01*
X27160Y18150D02*
Y18892D01*
X27660Y11630D02*
Y18916D01*
X27780Y11450D02*
Y18536D01*
X28160Y18916D01*
X14998Y6802D02*
X15435Y7239D01*
X15989D01*
X9330Y11480D02*
X9709Y11101D01*
Y10844D02*
Y11101D01*
X15989Y7239D02*
X17580Y8830D01*
X18210D01*
X14379Y5730D02*
X14610D01*
X22160Y9080D02*
X25330D01*
X26318Y10068D01*
X27117D01*
X27435Y10387D01*
X26653Y10190D02*
X26850Y10387D01*
X26265Y10190D02*
X26653D01*
X25300Y9225D02*
X26265Y10190D01*
X22556Y9225D02*
X25300D01*
X22270Y9511D02*
X22556Y9225D01*
X22270Y9511D02*
Y9670D01*
X25352Y9460D02*
X26265Y10373D01*
X22650Y9460D02*
X25352D01*
X26265Y10373D02*
Y10387D01*
X25680Y9970D02*
Y10387D01*
X25503Y9793D02*
X25680Y9970D01*
X22743Y9793D02*
X25503D01*
X27430Y10658D02*
X27435Y10653D01*
X27430Y10658D02*
Y11100D01*
X26850Y10653D02*
Y10820D01*
X27130Y11100D01*
X26265Y10653D02*
X26383D01*
X26830Y11100D01*
X25680Y10653D02*
X25913Y10886D01*
X26316D01*
X26530Y11100D01*
X20860Y9494D02*
X21091D01*
X23416Y5430D02*
X23965Y5979D01*
Y6171D01*
X23166Y5620D02*
X23391Y5845D01*
Y6171D01*
X24082Y6437D02*
X24447Y6802D01*
X23965Y6437D02*
X24082D01*
X23756Y6802D02*
X24120D01*
X23391Y6437D02*
X23756Y6802D01*
X22675Y5679D02*
X22816Y5821D01*
Y6171D01*
X22810Y6443D02*
X22816Y6437D01*
X22810Y6443D02*
Y7130D01*
X26635Y9723D02*
X28301D01*
X26508Y9850D02*
X26635Y9723D01*
X19770Y6500D02*
X19960Y6690D01*
X26987Y7952D02*
X27810D01*
X26987Y7650D02*
X27810D01*
X21000Y21419D02*
X21147D01*
X21000D02*
X21000D01*
X26991Y8250D02*
X27810D01*
X26987Y8254D02*
X26991Y8250D01*
X17400Y4990D02*
X18030Y5620D01*
X14660Y4870D02*
X17580D01*
X18105Y5405D02*
X18240Y5540D01*
X17580Y4870D02*
X18110Y5400D01*
X24677Y11996D02*
Y12400D01*
X24540Y6115D02*
Y6171D01*
X23636Y5211D02*
X24540Y6115D01*
X22810Y7130D02*
X28580D01*
X24447Y6802D02*
X24620D01*
X24757Y6437D02*
X25120Y6800D01*
X24540Y6437D02*
X24757D01*
X29030Y7580D02*
Y8010D01*
X28580Y7130D02*
X29030Y7580D01*
X28280Y8760D02*
X29030Y8010D01*
X29150Y7530D02*
Y8490D01*
X28630Y7010D02*
X29150Y7530D01*
X28880Y8760D02*
X29150Y8490D01*
X29270Y7480D02*
Y8670D01*
X28680Y6890D02*
X29270Y7480D01*
X29180Y8760D02*
X29270Y8670D01*
X19770Y6500D02*
X19773D01*
X27430Y11100D02*
X27780Y11450D01*
X27130Y11100D02*
X27660Y11630D01*
X27540Y11748D02*
Y17770D01*
X26830Y11100D02*
X27106Y11376D01*
X27169D01*
X27540Y11748D01*
X26530Y11100D02*
X26930Y11501D01*
X27420Y11812D02*
Y17690D01*
X27108Y11501D02*
X27420Y11812D01*
X26930Y11501D02*
X27108D01*
X26220Y11100D02*
X26747Y11627D01*
X27300Y11868D02*
Y17638D01*
X27059Y11627D02*
X27300Y11868D01*
X26747Y11627D02*
X27059D01*
X23890Y11430D02*
X25590D01*
X25920Y11100D01*
X23790Y11190D02*
X25230D01*
X25320Y11100D01*
X23840Y11310D02*
X25410D01*
X25620Y11100D01*
X17677Y4670D02*
X18387Y5380D01*
X15240Y4670D02*
X17677D01*
X18387Y5380D02*
X21130D01*
X19480Y9520D02*
Y9960D01*
X19360Y9400D02*
X19480Y9520D01*
X19600Y9150D02*
X19810Y9360D01*
X19690Y9510D02*
Y10067D01*
X19480Y9300D02*
X19690Y9510D01*
X19810Y9360D02*
Y10269D01*
X19567Y10190D02*
X19690Y10067D01*
X20525Y8915D02*
Y9765D01*
X20730Y9970D01*
X19194Y10190D02*
X19567D01*
X19830Y11160D02*
X20120Y10870D01*
X18894Y10490D02*
X19194Y10190D01*
X18200Y9300D02*
Y9980D01*
Y9300D02*
X18980Y8520D01*
X18860Y18770D02*
X20407D01*
X16401Y19500D02*
X22777D01*
X22827Y19620D02*
X23360Y19087D01*
X16450Y19620D02*
X22827D01*
X16330Y19740D02*
X16450Y19620D01*
X16500Y19740D02*
X22876D01*
X16380Y19860D02*
X16500Y19740D01*
X16554Y19860D02*
X22926D01*
X16606Y19980D02*
X24100D01*
X15400Y21186D02*
X16606Y19980D01*
X17498Y20100D02*
X24280D01*
X16400Y21198D02*
X17498Y20100D01*
X18966Y20220D02*
X24330D01*
X18000Y21186D02*
X18966Y20220D01*
X20407Y18770D02*
X20419Y18758D01*
X17811Y18424D02*
X17828Y18408D01*
X20419D01*
X17811Y17651D02*
X20017D01*
X20163Y17798D01*
X15710Y6540D02*
X16780D01*
X15530Y6720D02*
X15710Y6540D01*
X15530Y6720D02*
Y7000D01*
X16780Y6540D02*
X17240Y6080D01*
X21130Y5380D02*
X21520Y5770D01*
X14840Y4990D02*
X17400D01*
X15740Y5220D02*
Y5470D01*
X13740Y5790D02*
X14660Y4870D01*
X14060Y5770D02*
X14840Y4990D01*
X15230Y4660D02*
X15240Y4670D01*
X12710Y5790D02*
X13740D01*
X18030Y6370D02*
X18332Y6672D01*
X18030Y5620D02*
Y6370D01*
X18332Y6672D02*
Y7352D01*
X18240Y5540D02*
Y6230D01*
X16200Y5930D02*
X16630D01*
X15740Y5470D02*
X16200Y5930D01*
X19040Y6670D02*
Y7510D01*
Y6670D02*
X19580Y6130D01*
X19590Y6290D02*
X20360D01*
X19270Y6610D02*
X19590Y6290D01*
X19270Y6610D02*
Y6737D01*
X19510Y6670D02*
Y6675D01*
X19580Y6130D02*
X20220D01*
X20774Y5770D02*
X21150Y6146D01*
Y6940D01*
X21141Y6949D02*
X21150Y6940D01*
X20580Y5770D02*
X20774D01*
X20220Y6130D02*
X20580Y5770D01*
X20360Y6290D02*
X20670Y5980D01*
X19423Y6890D02*
X19537D01*
X19270Y6737D02*
X19423Y6890D01*
X19537D02*
X19720Y7073D01*
X18250Y7660D02*
X18280D01*
X18780Y6167D02*
X18850Y6097D01*
Y5900D02*
Y6097D01*
X18900Y6340D02*
X19070Y6170D01*
X17099Y6949D02*
X17879D01*
X18030Y7100D01*
X21520Y5770D02*
Y9753D01*
X20449Y4108D02*
X21640Y5300D01*
X20302Y4108D02*
X20449D01*
X21640Y5300D02*
Y9700D01*
X21760Y5250D02*
Y9650D01*
X21000Y4490D02*
X21760Y5250D01*
X21000Y3573D02*
Y4490D01*
X20300Y10360D02*
X20670Y10730D01*
X19810Y11180D02*
X19830D01*
X21880Y8060D02*
Y9600D01*
X21760Y9650D02*
X22430Y10320D01*
X21640Y9700D02*
X22330Y10390D01*
X21520Y9753D02*
X21890Y10123D01*
X21880Y9600D02*
X22390Y10110D01*
X21890Y10123D02*
Y10950D01*
X21680Y10083D02*
Y11050D01*
X21091Y9494D02*
X21680Y10083D01*
Y11050D02*
X22040Y11410D01*
X21880Y8060D02*
X22810Y7130D01*
X32227Y5910D02*
X32520D01*
X30705Y17265D02*
Y18125D01*
X30495Y17305D02*
Y17905D01*
X30285Y17346D02*
Y17685D01*
Y17346D02*
X31185Y16445D01*
X30705Y17265D02*
X31284Y16685D01*
X30495Y17305D02*
X31235Y16565D01*
X29600Y16360D02*
X30150Y16910D01*
X29380Y17550D02*
X29890Y18060D01*
X29380Y17850D02*
X29770Y18240D01*
X29650Y18863D02*
X29650Y19780D01*
X28140Y17353D02*
X29650Y18863D01*
X18000Y21186D02*
Y21419D01*
X22280Y10900D02*
Y13670D01*
X22370Y13760D01*
X23660Y11490D02*
X23840Y11310D01*
X23780Y11540D02*
X23890Y11430D01*
X22370Y13750D02*
Y13760D01*
X22460Y13850D02*
Y15087D01*
X22370Y13760D02*
X22460Y13850D01*
X22700Y11079D02*
X23669Y10109D01*
X22820Y11129D02*
X23479Y10470D01*
X22940Y11178D02*
X23528Y10590D01*
X23060Y11238D02*
X23588Y10710D01*
X23180Y11288D02*
X23638Y10830D01*
X23300Y11338D02*
X23688Y10950D01*
X23420Y11387D02*
X23737Y11070D01*
X24510D01*
X23540Y11440D02*
X23790Y11190D01*
X21986Y20580D02*
X24490D01*
X21147Y21419D02*
X21986Y20580D01*
X22000Y21190D02*
X22490Y20700D01*
X23960Y15738D02*
Y17903D01*
X23840Y15788D02*
Y17953D01*
X23720Y15838D02*
Y18010D01*
X23600Y15887D02*
Y18062D01*
X23360Y15987D02*
Y18161D01*
X23240Y16036D02*
Y18211D01*
X23660Y14590D02*
X24560Y15490D01*
X23180Y14789D02*
X24080Y15689D01*
X23060Y14838D02*
X23960Y15738D01*
X22940Y14888D02*
X23840Y15788D01*
X22820Y14938D02*
X23720Y15838D01*
X22700Y14987D02*
X23600Y15887D01*
X22580Y15037D02*
X23480Y15937D01*
X22460Y15087D02*
X23360Y15987D01*
X22340Y15136D02*
X23240Y16036D01*
X23780Y14540D02*
X24680Y15440D01*
X33290Y5720D02*
Y9018D01*
X32910Y5340D02*
X33290Y5720D01*
X32780Y5340D02*
X32910D01*
X32870Y5130D02*
X33410Y5670D01*
X32920Y5010D02*
X33530Y5620D01*
X32970Y4890D02*
X33650Y5570D01*
X32627Y5130D02*
X32870D01*
X33410Y5670D02*
Y9071D01*
X32007Y5010D02*
X32920D01*
X33530Y5620D02*
Y9124D01*
X32817Y4890D02*
X32970D01*
X33650Y5570D02*
Y9175D01*
X32607Y4680D02*
X32817Y4890D01*
X31777Y5240D02*
X32007Y5010D01*
X32437Y5320D02*
X32627Y5130D01*
X32791Y6181D02*
Y6673D01*
X32520Y5910D02*
X32791Y6181D01*
X24510Y11070D02*
X25470Y10110D01*
X24330Y10950D02*
X25170Y10110D01*
X24150Y10830D02*
X24870Y10110D01*
X23970Y10710D02*
X24570Y10110D01*
X23790Y10590D02*
X24270Y10110D01*
X23610Y10470D02*
X23970Y10110D01*
X23479Y10470D02*
X23610D01*
X23528Y10590D02*
X23790D01*
X23688Y10950D02*
X24330D01*
X23638Y10830D02*
X24150D01*
X23588Y10710D02*
X23970D01*
X33290Y4206D02*
Y4486D01*
X33096Y4680D02*
X33290Y4486D01*
X32907Y4680D02*
X33096D01*
X31777Y4200D02*
X31780Y4196D01*
X31777Y4200D02*
Y4940D01*
X29300Y9447D02*
X29750Y8997D01*
X29180Y9398D02*
X29630Y8948D01*
X29060Y9348D02*
X29510Y8898D01*
X28940Y9298D02*
X29390Y8848D01*
X28020Y10980D02*
X28440Y10560D01*
X24620Y6802D02*
X24828Y7010D01*
X25120Y6800D02*
X25210Y6890D01*
X29630Y7331D02*
Y8948D01*
X29750Y7281D02*
Y8997D01*
X28879Y6410D02*
X29750Y7281D01*
X25699Y6410D02*
X28879D01*
X29510Y7381D02*
Y8898D01*
X29390Y7431D02*
Y8848D01*
X29300Y9447D02*
Y10557D01*
X29180Y9398D02*
Y10507D01*
X29060Y9348D02*
Y10457D01*
X28940Y9298D02*
Y10408D01*
X28620Y11237D02*
X29300Y10557D01*
X28380Y11137D02*
X29060Y10457D01*
X28260Y11088D02*
X28940Y10408D01*
X28829Y6530D02*
X29630Y7331D01*
X28779Y6650D02*
X29510Y7381D01*
X28729Y6770D02*
X29390Y7431D01*
X28620Y11237D02*
Y13770D01*
X28000Y21190D02*
Y21419D01*
Y21190D02*
X28670Y20520D01*
X25210Y6890D02*
X28680D01*
X24130Y13600D02*
Y14000D01*
Y12600D02*
Y12980D01*
X32570Y20750D02*
X33000Y21180D01*
X24204Y12996D02*
X24438D01*
X26425Y12616D02*
Y12996D01*
X24828Y7010D02*
X28630D01*
X9400Y21200D02*
Y21419D01*
X12400Y21196D02*
Y21419D01*
X13400Y21186D02*
Y21419D01*
X14400Y21186D02*
Y21419D01*
X25550Y6770D02*
X28729D01*
X35000Y21190D02*
Y21419D01*
X26425Y12996D02*
X26662D01*
X24202D02*
X24438D01*
X28500Y13820D02*
X29610Y14930D01*
X29120Y16360D02*
X29600D01*
X34000Y21190D02*
Y21419D01*
X15400Y21186D02*
Y21419D01*
X16400Y21198D02*
Y21419D01*
X24640Y4436D02*
Y5520D01*
X24000Y3796D02*
X24640Y4436D01*
X25000Y3573D02*
Y3796D01*
X24760Y4036D02*
X25000Y3796D01*
X20000Y3806D02*
X20302Y4108D01*
X20000Y21196D02*
Y21419D01*
X22000Y3573D02*
Y3800D01*
X22430Y4230D01*
X24520Y4493D02*
Y5570D01*
X25600Y6650D01*
X28779D01*
X24760Y4036D02*
Y5471D01*
X24640Y5520D02*
X25650Y6530D01*
X28829D01*
X24760Y5471D02*
X25699Y6410D01*
X23000Y3796D02*
X23314Y4110D01*
X24137D01*
X24520Y4493D01*
X22430Y4230D02*
X24087D01*
X24400Y4543D01*
Y5620D01*
X25550Y6770D01*
X28620Y13770D02*
X29660Y14810D01*
X22000Y21190D02*
Y21419D01*
X32270Y10038D02*
Y10560D01*
X32480Y10001D02*
Y10340D01*
X32690Y9964D02*
Y10560D01*
X32900Y9925D02*
Y10340D01*
Y9925D02*
X33650Y9175D01*
X32690Y9964D02*
X33530Y9124D01*
X32480Y10001D02*
X33410Y9071D01*
X32270Y10038D02*
X33290Y9018D01*
X28301Y9723D02*
X28440Y9861D01*
Y10560D01*
X22330Y10390D02*
Y10530D01*
X22430Y10320D02*
X22550D01*
X22390Y10110D02*
X22770D01*
X22110Y10740D02*
X22160Y10790D01*
X22280Y10900D02*
X23070Y10110D01*
X22400Y11080D02*
X23370Y10110D01*
X22400Y11080D02*
Y13390D01*
X22580Y13570D02*
Y15037D01*
X22490Y13480D02*
X22580Y13570D01*
X23900Y14490D02*
X24800Y15390D01*
X23900Y13300D02*
Y14490D01*
Y13300D02*
X24204Y12996D01*
X23780Y11540D02*
Y14540D01*
X23660Y11490D02*
Y14590D01*
X23540Y11440D02*
Y14639D01*
X23420Y11387D02*
Y14689D01*
X23300Y11338D02*
Y14739D01*
X23180Y11288D02*
Y14789D01*
X23060Y11238D02*
Y14838D01*
X22940Y11178D02*
Y14888D01*
X22820Y11129D02*
Y14938D01*
X22700Y11079D02*
Y14987D01*
X22400Y13390D02*
X22490Y13480D01*
X22160Y10790D02*
Y13850D01*
X22340Y14030D01*
Y15136D01*
X20000Y21196D02*
X20736Y20460D01*
X24441D01*
X20080Y20340D02*
X24379D01*
X13400Y21186D02*
X14726Y19860D01*
X19090Y21090D02*
X19330D01*
X19000Y21180D02*
X19090Y21090D01*
X19000Y21180D02*
Y21419D01*
X19330Y21090D02*
X20080Y20340D01*
X28670Y18970D02*
Y20520D01*
X28550Y19020D02*
Y20468D01*
X28280Y8760D02*
X28820Y9300D01*
Y10350D01*
X28140Y11030D02*
X28820Y10350D01*
X24990Y18421D02*
Y20080D01*
X24870Y18470D02*
Y20031D01*
X23300Y14739D02*
X24200Y15639D01*
X23420Y14689D02*
X24320Y15589D01*
X24680Y15440D02*
Y17602D01*
X25350Y18272D01*
X24560Y15490D02*
Y17651D01*
X25230Y18321D01*
Y20180D01*
X23540Y14639D02*
X24440Y15539D01*
Y17701D01*
X25110Y18371D01*
Y20130D01*
X24320Y15589D02*
Y17751D01*
X24990Y18421D01*
X24200Y15639D02*
Y17800D01*
X24870Y18470D01*
X24080Y15689D02*
Y17853D01*
X28020Y18320D02*
X28670Y18970D01*
X27900Y18370D02*
X28550Y19020D01*
X9400Y21200D02*
X10980Y19620D01*
X24441Y20460D02*
X24870Y20031D01*
X24490Y20580D02*
X24990Y20080D01*
X22490Y20700D02*
X24540D01*
X25110Y20130D01*
X23000Y21190D02*
Y21419D01*
X24000Y21190D02*
Y21419D01*
X24590Y20820D02*
X25230Y20180D01*
X23000Y21190D02*
X23370Y20820D01*
X24590D01*
X23480Y18111D02*
X23480Y18111D01*
X16281Y19620D02*
X16401Y19500D01*
X13856Y19740D02*
X16330D01*
X10980Y19620D02*
X16281D01*
X16434Y19980D02*
X16554Y19860D01*
X14400Y21186D02*
X15606Y19980D01*
X16434D01*
X14726Y19860D02*
X16380D01*
X12400Y21196D02*
X13856Y19740D01*
X24000Y21190D02*
X24250Y20940D01*
X34320Y20510D02*
X35000Y21190D01*
X33440Y20630D02*
X34000Y21190D01*
X30670Y20630D02*
X33440D01*
X29770Y19730D02*
X30670Y20630D01*
X29770Y18240D02*
Y19730D01*
X30720Y20510D02*
X34320D01*
X29890Y19680D02*
X30720Y20510D01*
X29890Y18060D02*
Y19680D01*
X30620Y20750D02*
X32570D01*
X28168Y20850D02*
X28550Y20468D01*
X27340Y20850D02*
X28168D01*
X27000Y21190D02*
X27340Y20850D01*
X27000Y21190D02*
Y21419D01*
X29650Y19780D02*
X30620Y20750D01*
X24920Y14790D02*
X24990Y14720D01*
X24800Y15390D02*
Y17549D01*
X25840Y18589D01*
Y18670D01*
X25000Y21180D02*
X26280Y19900D01*
X26050Y18870D02*
X26060Y18880D01*
X26050Y18583D02*
Y18870D01*
X24920Y17453D02*
X26050Y18583D01*
X24920Y14790D02*
Y17453D01*
X25777Y7350D02*
X27710D01*
X24000Y21190D02*
Y21419D01*
X25350Y18272D02*
Y20229D01*
X24250Y20940D02*
X24639D01*
X25350Y20229D01*
X24330Y20220D02*
X24630Y19920D01*
X24540Y19220D02*
X24630Y19310D01*
X24660Y18940D02*
X24750Y19030D01*
Y19969D01*
X24379Y20340D02*
X24750Y19969D01*
X24630Y19310D02*
Y19920D01*
X24510Y19590D02*
Y19870D01*
X24280Y20100D02*
X24510Y19870D01*
X24420Y19500D02*
X24510Y19590D01*
X24100Y19980D02*
X24300Y19780D01*
X24080Y17853D02*
X24660Y18433D01*
Y18940D01*
X23960Y17903D02*
X24450Y18393D01*
Y19130D01*
X24540Y19220D01*
X23840Y17953D02*
X24330Y18443D01*
Y19410D01*
X24420Y19500D01*
X23720Y18010D02*
X24210Y18500D01*
Y19690D01*
X24300Y19780D01*
X22777Y19500D02*
X23240Y19037D01*
X22876Y19740D02*
X23480Y19136D01*
X22926Y19860D02*
X23600Y19186D01*
X23240Y17990D02*
Y19037D01*
X23360Y17990D02*
Y19087D01*
X23480Y15937D02*
Y19136D01*
X23600Y17990D02*
Y19186D01*
X33335Y16065D02*
Y16122D01*
X33115Y15855D02*
X33125Y15845D01*
X33115Y15855D02*
Y16172D01*
X32962Y16325D02*
X33115Y16172D01*
X33575Y16685D02*
X33755Y16505D01*
X33265Y16565D02*
X33545Y16285D01*
X33011Y16445D02*
X33335Y16122D01*
X31284Y16685D02*
X33575D01*
X31235Y16565D02*
X33265D01*
X31185Y16445D02*
X33011D01*
X32402Y16325D02*
X32962D01*
X32332Y16085D02*
X32905D01*
X32292Y15875D02*
X32685D01*
X32251Y15665D02*
X32465D01*
X29660Y14810D02*
X31396D01*
X32251Y15665D01*
X29610Y14930D02*
X31346D01*
X32292Y15875D01*
X31297Y15050D02*
X32332Y16085D01*
X31247Y15170D02*
X32402Y16325D01*
X28260Y13920D02*
X29510Y15170D01*
X31247D01*
X28380Y13869D02*
X29561Y15050D01*
X31297D01*
X28500Y11187D02*
Y13820D01*
Y11187D02*
X29180Y10507D01*
X28380Y11137D02*
Y13869D01*
X28260Y11088D02*
Y13920D01*
X28140Y11030D02*
Y17353D01*
X28020Y10980D02*
Y18320D01*
X27900Y10930D02*
Y18370D01*
X26280Y18658D02*
Y19900D01*
X26660Y18450D02*
Y18916D01*
X26280Y18658D02*
X27300Y17638D01*
X26660Y18450D02*
X27420Y17690D01*
X27160Y18150D02*
X27540Y17770D01*
X19830Y11160D02*
Y11180D01*
X20170Y7160D02*
X20940Y6390D01*
X20170Y7160D02*
Y8560D01*
X20525Y8915D01*
X20300Y8910D02*
Y10360D01*
X5010Y5100D02*
X5510Y5600D01*
X18980Y8254D02*
Y8520D01*
X18210Y8063D02*
Y8830D01*
Y8063D02*
X18780Y7493D01*
Y6167D02*
Y7493D01*
X18600Y7850D02*
Y7998D01*
Y7850D02*
X18900Y7550D01*
Y6340D02*
Y7550D01*
X33000Y21180D02*
Y21419D01*
X19040Y7510D02*
X19114Y7584D01*
Y8120D01*
X18980Y8254D02*
X19114Y8120D01*
X19360Y8070D02*
Y9400D01*
Y8070D02*
X19720Y7710D01*
Y7073D02*
Y7710D01*
X19480Y8130D02*
Y9300D01*
Y8130D02*
X19840Y7770D01*
Y7000D02*
Y7770D01*
X19510Y6670D02*
X19840Y7000D01*
X19600Y8192D02*
Y9150D01*
Y8192D02*
X19960Y7832D01*
Y6690D02*
Y7832D01*
X19810Y8280D02*
X20045Y8515D01*
Y8655D01*
X20300Y8910D01*
X19810Y8610D02*
X20120Y8920D01*
Y10870D01*
X22130Y14120D02*
X22218Y14208D01*
Y15199D01*
X23120Y16101D01*
Y18974D01*
X22714Y19380D02*
X23120Y18974D01*
X21088Y19380D02*
X22714D01*
X20699Y18991D02*
X21088Y19380D01*
X20699Y18355D02*
Y18991D01*
X20453Y18109D02*
X20699Y18355D01*
X18465Y18109D02*
X20453D01*
X22040Y11410D02*
Y14030D01*
X22130Y14120D01*
X28230Y10016D02*
Y10600D01*
X27900Y10930D02*
X28230Y10600D01*
D14*
X8574Y8681D02*
X8889Y8366D01*
X8574Y8681D02*
Y13145D01*
X8961Y13532D01*
D15*
X25000Y21180D02*
Y21996D01*
X21000Y21419D02*
Y21996D01*
Y21419D02*
Y21419D01*
X30995Y11271D02*
X31515Y10752D01*
X35000Y21419D02*
Y21996D01*
X9400Y21196D02*
Y21996D01*
X23000Y2996D02*
Y3796D01*
X24000Y2996D02*
Y3796D01*
X20000Y2996D02*
Y3806D01*
X21000Y2996D02*
Y3573D01*
X9400Y21996D02*
Y22573D01*
X8400Y21996D02*
Y22573D01*
Y21419D02*
Y21996D01*
X7400D02*
Y22573D01*
Y21419D02*
Y21996D01*
X12400D02*
Y22573D01*
Y21419D02*
Y21996D01*
X11400D02*
Y22573D01*
Y21419D02*
Y21996D01*
X20000Y2419D02*
Y2996D01*
X21000Y2419D02*
Y2996D01*
X22000Y2419D02*
Y2996D01*
X23000Y2419D02*
Y2996D01*
X24000Y2419D02*
Y2996D01*
X25000D02*
Y3573D01*
Y2419D02*
Y2996D01*
X27000Y21419D02*
Y21996D01*
Y22573D01*
X34000Y21996D02*
Y22573D01*
Y21419D02*
Y21996D01*
X33000D02*
Y22573D01*
X32000Y21996D02*
Y22573D01*
Y21419D02*
Y21996D01*
X29000D02*
Y22573D01*
Y21419D02*
Y21996D01*
X28000D02*
Y22573D01*
Y21419D02*
Y21996D01*
X30000Y21419D02*
Y21996D01*
Y22573D01*
X31000Y21996D02*
Y22573D01*
Y21419D02*
Y21996D01*
X22000Y21419D02*
Y21996D01*
Y22573D01*
X21000Y21996D02*
Y22573D01*
X16400Y21996D02*
Y22573D01*
Y21419D02*
Y21996D01*
X15400D02*
Y22573D01*
Y21419D02*
Y21996D01*
X18000Y21419D02*
Y21996D01*
Y22573D01*
X13400Y21419D02*
Y21996D01*
Y22573D01*
X14400Y21419D02*
Y21996D01*
Y22573D01*
X19000Y21419D02*
Y21996D01*
Y22573D01*
X20000Y21419D02*
Y21996D01*
Y22573D01*
X23000Y21996D02*
Y22573D01*
X24000Y21419D02*
Y21996D01*
Y22573D01*
X25000Y21996D02*
Y22573D01*
X13000Y2419D02*
Y2996D01*
Y3573D01*
X18000Y2419D02*
Y2996D01*
Y3573D01*
X30356Y13248D02*
Y14129D01*
Y13248D02*
X30995Y12609D01*
Y11271D02*
Y12609D01*
X35000Y21996D02*
Y22573D01*
X22000Y2996D02*
Y3573D01*
X23000Y21419D02*
Y21996D01*
X33000Y21419D02*
Y21996D01*
D16*
X33505Y14002D02*
X33765Y14262D01*
X30484Y14002D02*
X33505D01*
X21989Y18646D02*
Y19066D01*
Y18226D02*
Y18646D01*
Y17806D02*
Y18226D01*
Y17386D02*
Y17806D01*
X21541Y16938D02*
X21989Y17386D01*
X21043Y16938D02*
X21541D01*
X30356Y14129D02*
X30484Y14002D01*
X26990Y12016D02*
Y12390D01*
X8230Y5418D02*
Y7250D01*
X8050Y5238D02*
X8230Y5418D01*
X7762Y4950D02*
X8050Y5238D01*
X7125Y4950D02*
X7762D01*
X6850Y5225D02*
X7125Y4950D01*
X7090Y8190D02*
X7290D01*
X5898D02*
X7090D01*
X7290D02*
X8230Y7250D01*
D17*
X8400Y17996D02*
Y18573D01*
Y17419D02*
Y17996D01*
D19*
X4599Y6796D02*
X5914D01*
X7029Y7150D02*
X7382Y6796D01*
X6268Y7150D02*
X7029D01*
X5914Y6796D02*
X6268Y7150D01*
X14400Y17419D02*
Y18573D01*
D21*
X15622Y14354D02*
X15671Y14403D01*
X15708D01*
X14746Y14354D02*
X15622D01*
X13676Y15425D02*
X14746Y14354D01*
X10031Y15425D02*
X13676D01*
X9400Y16056D02*
X10031Y15425D01*
X9400Y16056D02*
Y17419D01*
Y17996D02*
Y18573D01*
Y17419D02*
Y17996D01*
D56*
X8400Y22573D02*
D03*
Y21419D02*
D03*
X7400Y22573D02*
D03*
Y21419D02*
D03*
X16400D02*
D03*
Y22573D02*
D03*
X12400D02*
D03*
Y21419D02*
D03*
X11400Y22573D02*
D03*
Y21419D02*
D03*
X13400Y22573D02*
D03*
Y21419D02*
D03*
X14400Y22573D02*
D03*
Y21419D02*
D03*
X15400D02*
D03*
Y22573D02*
D03*
X9400Y21419D02*
D03*
Y22573D02*
D03*
X10400Y21419D02*
D03*
Y22573D02*
D03*
X25000Y21419D02*
D03*
Y22573D02*
D03*
X21000D02*
D03*
Y21419D02*
D03*
X20000Y22573D02*
D03*
Y21419D02*
D03*
X22000Y22573D02*
D03*
Y21419D02*
D03*
X23000Y22573D02*
D03*
Y21419D02*
D03*
X24000D02*
D03*
Y22573D02*
D03*
X18000Y21419D02*
D03*
Y22573D02*
D03*
X19000Y21419D02*
D03*
Y22573D02*
D03*
X27000Y22573D02*
D03*
Y21419D02*
D03*
X35000D02*
D03*
Y22573D02*
D03*
X31000D02*
D03*
Y21419D02*
D03*
X30000Y22573D02*
D03*
Y21419D02*
D03*
X32000Y22573D02*
D03*
Y21419D02*
D03*
X33000Y22573D02*
D03*
Y21419D02*
D03*
X34000D02*
D03*
Y22573D02*
D03*
X28000Y21419D02*
D03*
Y22573D02*
D03*
X29000Y21419D02*
D03*
Y22573D02*
D03*
X20000Y3573D02*
D03*
Y2419D02*
D03*
X24000D02*
D03*
Y3573D02*
D03*
X25000Y2419D02*
D03*
Y3573D02*
D03*
X23000Y2419D02*
D03*
Y3573D02*
D03*
X22000Y2419D02*
D03*
Y3573D02*
D03*
X21000D02*
D03*
Y2419D02*
D03*
X11000Y3573D02*
D03*
Y2419D02*
D03*
X15000D02*
D03*
Y3573D02*
D03*
X16000Y2419D02*
D03*
Y3573D02*
D03*
X14000Y2419D02*
D03*
Y3573D02*
D03*
X13000Y2419D02*
D03*
Y3573D02*
D03*
X12000D02*
D03*
Y2419D02*
D03*
X18000Y3573D02*
D03*
Y2419D02*
D03*
X17000Y3573D02*
D03*
Y2419D02*
D03*
X13400Y17419D02*
D03*
Y18573D02*
D03*
X14400Y17419D02*
D03*
Y18573D02*
D03*
X8400Y17419D02*
D03*
Y18573D02*
D03*
X9400D02*
D03*
Y17419D02*
D03*
X10400Y18573D02*
D03*
Y17419D02*
D03*
X12400Y18573D02*
D03*
Y17419D02*
D03*
X11400Y18573D02*
D03*
Y17419D02*
D03*
X7400D02*
D03*
Y18573D02*
D03*
D64*
X37973Y23596D02*
D03*
X5630Y730D02*
D03*
D105*
X9479Y8796D02*
D03*
X14158Y8699D02*
D03*
X14858Y13339D02*
D03*
X15883Y13357D02*
D03*
X15892Y12637D02*
D03*
X15861Y11959D02*
D03*
X8879Y6895D02*
D03*
X7638Y6272D02*
D03*
X7740Y6934D02*
D03*
X15029Y14720D02*
D03*
X14820Y14531D02*
D03*
X15238Y14922D02*
D03*
X15425Y15126D02*
D03*
X15526Y7709D02*
D03*
X16906Y7628D02*
D03*
X14489Y7422D02*
D03*
X19360Y12721D02*
D03*
X19530Y13833D02*
D03*
X19580Y14996D02*
D03*
X15708Y14403D02*
D03*
X13400Y17996D02*
D03*
X12400Y17996D02*
D03*
X11400Y17996D02*
D03*
X10400D02*
D03*
X14909Y10988D02*
D03*
X14590Y9821D02*
D03*
X13740Y9834D02*
D03*
X11963Y16470D02*
D03*
X12701Y16526D02*
D03*
X11179Y16491D02*
D03*
X10055Y16453D02*
D03*
X31490Y21050D02*
D03*
X707Y1507D02*
D03*
X1196Y2033D02*
D03*
X14400Y17989D02*
D03*
X6641Y19761D02*
D03*
X5153Y19950D02*
D03*
X3977Y20244D02*
D03*
X6005Y20662D02*
D03*
X7515Y20350D02*
D03*
X6804Y18696D02*
D03*
X5663Y18711D02*
D03*
X16701Y16552D02*
D03*
X15094Y17682D02*
D03*
X15145Y16552D02*
D03*
X17679Y13764D02*
D03*
X16657Y13860D02*
D03*
X17240Y14784D02*
D03*
X15821Y14803D02*
D03*
X16880Y15529D02*
D03*
X15103Y15496D02*
D03*
X13843Y13716D02*
D03*
X14242Y14580D02*
D03*
X13579Y15212D02*
D03*
X14410Y7822D02*
D03*
X10918Y7404D02*
D03*
X8282Y9338D02*
D03*
X7892Y10002D02*
D03*
X6794Y9983D02*
D03*
X5369Y9955D02*
D03*
X8806Y11100D02*
D03*
X8345Y10714D02*
D03*
X7274Y10699D02*
D03*
X6062Y10718D02*
D03*
X4911Y10714D02*
D03*
X8308Y11601D02*
D03*
X7249Y11579D02*
D03*
X6107Y11601D02*
D03*
X5176Y11579D02*
D03*
X4475Y13760D02*
D03*
X5898Y13746D02*
D03*
X7108D02*
D03*
X8383Y13744D02*
D03*
X11521Y14553D02*
D03*
X10311Y14496D02*
D03*
X9194Y14467D02*
D03*
X8033Y14457D02*
D03*
X6847Y14436D02*
D03*
X5600Y14435D02*
D03*
X4336Y14436D02*
D03*
X3144Y14450D02*
D03*
X2674Y15463D02*
D03*
X3816Y15450D02*
D03*
X5240Y15463D02*
D03*
X6578Y15450D02*
D03*
X7801Y15463D02*
D03*
X9021Y15436D02*
D03*
X10068Y15230D02*
D03*
X10876Y15212D02*
D03*
X12210Y15217D02*
D03*
X12938Y14450D02*
D03*
X11448Y13735D02*
D03*
X2655Y16453D02*
D03*
X4867D02*
D03*
X6204Y16463D02*
D03*
X7509Y16427D02*
D03*
X8838Y16453D02*
D03*
X14943Y20150D02*
D03*
X15940Y20166D02*
D03*
X16979Y20176D02*
D03*
X17885Y19292D02*
D03*
X17857Y18791D02*
D03*
X19823Y17441D02*
D03*
X20176Y16635D02*
D03*
X20002Y12949D02*
D03*
X19694Y14640D02*
D03*
X17254Y10877D02*
D03*
X18301Y14542D02*
D03*
X18335Y13358D02*
D03*
X18134Y12683D02*
D03*
X17630Y12206D02*
D03*
X14727Y12205D02*
D03*
X16211Y11132D02*
D03*
X15838Y10801D02*
D03*
X18814Y11501D02*
D03*
X18115Y10846D02*
D03*
X17043Y8002D02*
D03*
X17981Y8329D02*
D03*
X16811Y9232D02*
D03*
X17122Y9949D02*
D03*
X12188Y13347D02*
D03*
X13009Y13358D02*
D03*
X14759Y12721D02*
D03*
X13740Y11384D02*
D03*
X13710Y11812D02*
D03*
X8975Y11648D02*
D03*
X8788Y10311D02*
D03*
X8845Y9525D02*
D03*
X8788Y8808D02*
D03*
X9977Y9528D02*
D03*
X10441Y9180D02*
D03*
X11798Y8161D02*
D03*
X12542D02*
D03*
Y7460D02*
D03*
X13356Y7442D02*
D03*
X13343Y8192D02*
D03*
X14792Y8254D02*
D03*
X11044Y7019D02*
D03*
X10551Y5057D02*
D03*
X9920Y6890D02*
D03*
X9952Y7448D02*
D03*
X8333Y8648D02*
D03*
X10311Y8146D02*
D03*
X4811Y4766D02*
D03*
X6807Y6190D02*
D03*
X6928Y6786D02*
D03*
X5981Y6210D02*
D03*
X5734Y7206D02*
D03*
X6410Y9371D02*
D03*
X5682Y9424D02*
D03*
X4661Y11376D02*
D03*
X3213Y11674D02*
D03*
X3493Y13467D02*
D03*
X9358Y14066D02*
D03*
X9852Y14035D02*
D03*
X10495Y13898D02*
D03*
X11073Y13760D02*
D03*
X12710Y13559D02*
D03*
X14701Y6998D02*
D03*
X12848Y9022D02*
D03*
X12552Y9016D02*
D03*
X8889Y8366D02*
D03*
X8961Y13532D02*
D03*
X10256Y13108D02*
D03*
X9852Y12131D02*
D03*
X9909Y11105D02*
D03*
X9330Y11480D02*
D03*
X9518Y11705D02*
D03*
X9674Y9926D02*
D03*
X9998D02*
D03*
X12050Y9424D02*
D03*
X10391Y9492D02*
D03*
X10859Y9515D02*
D03*
X11624Y9576D02*
D03*
X11408Y9395D02*
D03*
X12254Y9034D02*
D03*
X10952Y8795D02*
D03*
X11387Y9041D02*
D03*
X13145Y10249D02*
D03*
X7382Y6796D02*
D03*
X10721Y7727D02*
D03*
X8698Y8071D02*
D03*
X9326Y7772D02*
D03*
X9400Y17996D02*
D03*
X8479Y7772D02*
D03*
X9155Y10647D02*
D03*
X9562Y10421D02*
D03*
X9359Y11170D02*
D03*
X10047Y11719D02*
D03*
X9977Y10343D02*
D03*
X13566Y12812D02*
D03*
X13317Y12949D02*
D03*
X9506Y10917D02*
D03*
X12386Y12739D02*
D03*
X11818Y13283D02*
D03*
X19178Y11501D02*
D03*
X13009Y9972D02*
D03*
X13250Y10960D02*
D03*
Y12131D02*
D03*
X10364Y7164D02*
D03*
X22650Y9460D02*
D03*
X22743Y9793D02*
D03*
X20860Y9494D02*
D03*
X28580Y8760D02*
D03*
X30199Y4587D02*
D03*
X30709Y4376D02*
D03*
X20730Y9970D02*
D03*
X28557Y5910D02*
D03*
X26987Y8254D02*
D03*
X25777Y7350D02*
D03*
X12710Y5790D02*
D03*
X14060Y5770D02*
D03*
X22675Y5679D02*
D03*
X15514Y6333D02*
D03*
X17805Y6569D02*
D03*
X23166Y5620D02*
D03*
X23416Y5430D02*
D03*
X23636Y5211D02*
D03*
X19070Y6170D02*
D03*
X18333Y7354D02*
D03*
X19773Y6500D02*
D03*
X26508Y9850D02*
D03*
X7400Y17996D02*
D03*
X14460Y3700D02*
D03*
X13480Y3920D02*
D03*
X19050Y4550D02*
D03*
X18540Y4030D02*
D03*
X18530Y2660D02*
D03*
X17780Y5730D02*
D03*
X18510Y5710D02*
D03*
X36090Y1670D02*
D03*
X33590Y1580D02*
D03*
X31720Y1600D02*
D03*
X26750Y1510D02*
D03*
X27490Y1530D02*
D03*
X27480Y2420D02*
D03*
X26780Y2400D02*
D03*
X26350Y2680D02*
D03*
X27510Y3370D02*
D03*
X510Y20000D02*
D03*
X1560Y23420D02*
D03*
X4120Y23720D02*
D03*
X2970Y21550D02*
D03*
X3980Y21240D02*
D03*
X6970Y21270D02*
D03*
X6980Y22780D02*
D03*
X7880Y21230D02*
D03*
X8250Y20770D02*
D03*
X8890Y21430D02*
D03*
X17560Y22010D02*
D03*
X16850Y21990D02*
D03*
X15920D02*
D03*
X14860Y21980D02*
D03*
X13910Y21970D02*
D03*
X12910Y21980D02*
D03*
X11940D02*
D03*
X10880Y21080D02*
D03*
X9930Y21090D02*
D03*
X9920Y21980D02*
D03*
X10900Y21970D02*
D03*
X10260Y20770D02*
D03*
X11420D02*
D03*
X11940Y21100D02*
D03*
X12940Y21080D02*
D03*
X13940D02*
D03*
X14920D02*
D03*
X15940Y21070D02*
D03*
X20520Y22010D02*
D03*
X19530Y21970D02*
D03*
X18500Y22000D02*
D03*
X18540Y21040D02*
D03*
X20540Y21080D02*
D03*
X21510Y21520D02*
D03*
X22520Y21130D02*
D03*
X26040Y21780D02*
D03*
X23540Y21130D02*
D03*
X24510Y21210D02*
D03*
X25590Y21040D02*
D03*
X26020Y19610D02*
D03*
X25610Y18950D02*
D03*
X28330Y17960D02*
D03*
X28860Y11890D02*
D03*
X29210Y12320D02*
D03*
X25520Y14470D02*
D03*
X24280Y14480D02*
D03*
X21850Y15510D02*
D03*
X21640Y14960D02*
D03*
X18750Y1620D02*
D03*
X19300Y1060D02*
D03*
X18970Y310D02*
D03*
X19730Y19170D02*
D03*
X20360Y17380D02*
D03*
X21220Y7720D02*
D03*
X20680Y8430D02*
D03*
X17760Y9250D02*
D03*
X17850Y9750D02*
D03*
X35550Y20690D02*
D03*
X34650Y20400D02*
D03*
X35670Y21290D02*
D03*
X35660Y23940D02*
D03*
X33490Y22910D02*
D03*
X31520Y22980D02*
D03*
X30510D02*
D03*
X29510Y23040D02*
D03*
X28510D02*
D03*
X27520Y23010D02*
D03*
Y21130D02*
D03*
X28490Y21120D02*
D03*
X29450Y21000D02*
D03*
X29970Y20760D02*
D03*
X30810Y14500D02*
D03*
X28520Y15590D02*
D03*
X30360Y16620D02*
D03*
X31150Y17340D02*
D03*
X31300Y18940D02*
D03*
X31800Y17930D02*
D03*
X32820Y18860D02*
D03*
X34320Y18870D02*
D03*
X33810Y17970D02*
D03*
X32710Y17390D02*
D03*
X34370Y17370D02*
D03*
X29110Y1670D02*
D03*
X28340Y3800D02*
D03*
X28810Y4250D02*
D03*
X29280Y4860D02*
D03*
X31220Y4900D02*
D03*
X31250Y5650D02*
D03*
X27400Y1050D02*
D03*
X27440Y320D02*
D03*
X25570Y1020D02*
D03*
X25560Y3380D02*
D03*
X21480Y4140D02*
D03*
X10480Y3010D02*
D03*
X10440Y3860D02*
D03*
X17410Y17960D02*
D03*
X20849Y11250D02*
D03*
X20810Y12050D02*
D03*
X21220Y8110D02*
D03*
X19615Y4745D02*
D03*
X16510Y5200D02*
D03*
X19480Y9960D02*
D03*
X19810Y10269D02*
D03*
X18894Y10490D02*
D03*
X18200Y9980D02*
D03*
X18860Y18770D02*
D03*
X19329Y19058D02*
D03*
X18505Y18960D02*
D03*
X15010Y18700D02*
D03*
X17811Y18424D02*
D03*
X17240Y6080D02*
D03*
X16930Y6020D02*
D03*
X15740Y5220D02*
D03*
X15230Y4660D02*
D03*
X18240Y6230D02*
D03*
X17800Y5400D02*
D03*
X18110D02*
D03*
X19510Y6675D02*
D03*
X19370Y6000D02*
D03*
X19510Y7620D02*
D03*
X18280Y7660D02*
D03*
X22160Y9080D02*
D03*
X18850Y5900D02*
D03*
X18030Y7100D02*
D03*
X18041Y6791D02*
D03*
X17099Y6949D02*
D03*
X16630Y5930D02*
D03*
X19450Y7100D02*
D03*
X19250Y7330D02*
D03*
X19810Y11180D02*
D03*
X20670Y10730D02*
D03*
Y7690D02*
D03*
Y5980D02*
D03*
X17990Y7800D02*
D03*
X17353Y8027D02*
D03*
X18580Y6070D02*
D03*
X20940Y6390D02*
D03*
X21141Y6949D02*
D03*
X20310Y5700D02*
D03*
X18210Y8830D02*
D03*
X22270Y9670D02*
D03*
X26830Y11100D02*
D03*
X20653Y14358D02*
D03*
X19050Y2566D02*
D03*
X27810Y2640D02*
D03*
X26990Y4200D02*
D03*
X27960Y6200D02*
D03*
Y5900D02*
D03*
X30285Y17685D02*
D03*
X30495Y17905D02*
D03*
X30705Y18125D02*
D03*
X31105Y17985D02*
D03*
X28425Y16635D02*
D03*
X29745Y15775D02*
D03*
X34115Y15985D02*
D03*
X29753Y9350D02*
D03*
X20520Y19250D02*
D03*
X21243Y13940D02*
D03*
X20383Y13770D02*
D03*
X18293Y16250D02*
D03*
X22233Y16140D02*
D03*
X17713Y17258D02*
D03*
X22370Y13760D02*
D03*
X22366Y16938D02*
D03*
X20383Y15708D02*
D03*
X20666Y17478D02*
D03*
X24677Y12400D02*
D03*
X21989Y19066D02*
D03*
Y18226D02*
D03*
Y17806D02*
D03*
Y17386D02*
D03*
Y18646D02*
D03*
X21043Y16938D02*
D03*
X17811Y17952D02*
D03*
Y17651D02*
D03*
X20163Y17798D02*
D03*
X20419Y18408D02*
D03*
X18660Y17258D02*
D03*
X32780Y5340D02*
D03*
X31780Y4196D02*
D03*
X33290Y4206D02*
D03*
X32907Y4680D02*
D03*
X32607D02*
D03*
X32227Y5910D02*
D03*
X31777Y5240D02*
D03*
Y5540D02*
D03*
X35585Y15602D02*
D03*
X35450Y18970D02*
D03*
X36500Y5346D02*
D03*
X33860Y6030D02*
D03*
X22810Y7130D02*
D03*
X28955Y11403D02*
D03*
X38500Y20496D02*
D03*
X34740Y18970D02*
D03*
X32250Y18973D02*
D03*
X34130Y11030D02*
D03*
X33920Y11250D02*
D03*
X33710Y11470D02*
D03*
X33260Y10960D02*
D03*
X31850Y11000D02*
D03*
X32060Y10780D02*
D03*
X31515Y10752D02*
D03*
X2500Y14870D02*
D03*
X2790Y13550D02*
D03*
X2510Y11260D02*
D03*
X1200Y14990D02*
D03*
X1710Y8980D02*
D03*
X23370Y10110D02*
D03*
X24270D02*
D03*
X23970D02*
D03*
X23670D02*
D03*
X23070D02*
D03*
X25320Y11100D02*
D03*
X25470Y10110D02*
D03*
X9280Y2986D02*
D03*
X6860Y3006D02*
D03*
X28470Y14440D02*
D03*
X29745Y14425D02*
D03*
X34829Y4089D02*
D03*
X32500Y7536D02*
D03*
X33010Y17046D02*
D03*
X30500Y5346D02*
D03*
X32500Y3096D02*
D03*
X22500Y4496D02*
D03*
X500Y14496D02*
D03*
X25120Y6800D02*
D03*
X24870Y10110D02*
D03*
X25170D02*
D03*
X30150Y16910D02*
D03*
X31050Y2197D02*
D03*
X23440Y4496D02*
D03*
X36790Y11746D02*
D03*
X36050D02*
D03*
X24620Y6802D02*
D03*
X23120Y8370D02*
D03*
X29120Y16360D02*
D03*
X24130Y13600D02*
D03*
X10500Y1496D02*
D03*
Y496D02*
D03*
X9000D02*
D03*
X6500D02*
D03*
X2500D02*
D03*
X500D02*
D03*
X26310D02*
D03*
X28500D02*
D03*
X30500D02*
D03*
X32500D02*
D03*
X34500D02*
D03*
X36500D02*
D03*
X38500Y22496D02*
D03*
X6900Y24496D02*
D03*
X5400D02*
D03*
X2500D02*
D03*
X500D02*
D03*
X7900Y18496D02*
D03*
X8900Y19096D02*
D03*
X8950Y17436D02*
D03*
X7890Y17066D02*
D03*
X6950Y1796D02*
D03*
X1680Y790D02*
D03*
X500Y2496D02*
D03*
X33060Y18020D02*
D03*
X11000Y2996D02*
D03*
X5690Y17546D02*
D03*
X6850Y17586D02*
D03*
X8400Y17996D02*
D03*
X26425Y12616D02*
D03*
X24130Y12600D02*
D03*
X28500Y3016D02*
D03*
X37100Y2250D02*
D03*
X30500Y4046D02*
D03*
X34500Y3096D02*
D03*
X20485Y4496D02*
D03*
X24620Y8370D02*
D03*
X24120D02*
D03*
X2250Y19166D02*
D03*
X2320Y17346D02*
D03*
X500Y16496D02*
D03*
X1010Y15916D02*
D03*
X500Y18496D02*
D03*
X4910Y21206D02*
D03*
X4500Y22496D02*
D03*
X2500Y22996D02*
D03*
X500D02*
D03*
X26140Y23586D02*
D03*
X34500Y22746D02*
D03*
X38500Y24496D02*
D03*
X26410Y20620D02*
D03*
X26662Y13498D02*
D03*
X9400Y21996D02*
D03*
X8400D02*
D03*
X7400D02*
D03*
X12400D02*
D03*
X11400D02*
D03*
X20000Y2996D02*
D03*
X21000D02*
D03*
X22000D02*
D03*
X23000D02*
D03*
X24000D02*
D03*
X25000D02*
D03*
X32250Y17470D02*
D03*
X34760D02*
D03*
X26440Y22766D02*
D03*
X25620Y22716D02*
D03*
X32520Y21200D02*
D03*
X32500Y22726D02*
D03*
X27000Y21996D02*
D03*
X34000D02*
D03*
X33000D02*
D03*
X32000D02*
D03*
X29000D02*
D03*
X28000D02*
D03*
X30000D02*
D03*
X31000D02*
D03*
X22000Y21996D02*
D03*
X21000D02*
D03*
X16400D02*
D03*
X15400D02*
D03*
X34170Y2202D02*
D03*
X500Y10496D02*
D03*
X13223Y6840D02*
D03*
X2390Y11866D02*
D03*
X500Y8496D02*
D03*
X18000Y21996D02*
D03*
Y2996D02*
D03*
X14000D02*
D03*
X12000D02*
D03*
X13000D02*
D03*
X13400Y21996D02*
D03*
X14400D02*
D03*
X19000D02*
D03*
X20000D02*
D03*
X23000D02*
D03*
X24000D02*
D03*
X25000D02*
D03*
X15000Y2996D02*
D03*
X35449Y8247D02*
D03*
X28500Y5346D02*
D03*
X35440Y2202D02*
D03*
X15530Y3526D02*
D03*
X15490Y2506D02*
D03*
X16460Y2476D02*
D03*
X16470Y3516D02*
D03*
X17520Y3486D02*
D03*
X17460Y2456D02*
D03*
X19470Y2236D02*
D03*
X9620Y1796D02*
D03*
X5770Y7616D02*
D03*
X3100Y9426D02*
D03*
X3310Y9006D02*
D03*
X3140Y10066D02*
D03*
X9890Y22576D02*
D03*
X10400Y22000D02*
D03*
X10890Y22596D02*
D03*
X6500Y23216D02*
D03*
X3100Y20996D02*
D03*
X490Y6496D02*
D03*
X500Y4496D02*
D03*
X8270Y3606D02*
D03*
X11510Y2496D02*
D03*
Y3926D02*
D03*
X12500Y2496D02*
D03*
X12490Y3906D02*
D03*
X14440Y4680D02*
D03*
X27810Y4820D02*
D03*
X29780Y2197D02*
D03*
X37100Y4496D02*
D03*
Y6496D02*
D03*
Y8496D02*
D03*
Y10496D02*
D03*
X37150Y16496D02*
D03*
X36500Y22496D02*
D03*
X38500Y18496D02*
D03*
X36869Y13262D02*
D03*
X34169Y8247D02*
D03*
X34500Y7526D02*
D03*
X30650Y7320D02*
D03*
X34490Y21000D02*
D03*
X37150Y14496D02*
D03*
X36059Y13262D02*
D03*
X3000Y22496D02*
D03*
X7400Y19306D02*
D03*
X16684Y19172D02*
D03*
X14680Y19350D02*
D03*
X15970D02*
D03*
X12910D02*
D03*
X10890D02*
D03*
X34850Y11380D02*
D03*
X29606Y12388D02*
D03*
X35300Y10496D02*
D03*
X34850Y12126D02*
D03*
X35405Y13982D02*
D03*
X30356Y14129D02*
D03*
X29755Y13834D02*
D03*
X31141Y10757D02*
D03*
X35200Y11806D02*
D03*
X31275Y11501D02*
D03*
X29855Y13434D02*
D03*
X35045Y13362D02*
D03*
Y13692D02*
D03*
X34850Y12856D02*
D03*
X35000Y21996D02*
D03*
X36500Y24486D02*
D03*
X27430Y11100D02*
D03*
X27660Y18916D02*
D03*
X29380Y17850D02*
D03*
Y17550D02*
D03*
X26220Y11100D02*
D03*
X25920D02*
D03*
X26530D02*
D03*
X25620D02*
D03*
X29180Y8760D02*
D03*
X34500Y5346D02*
D03*
X34700Y15996D02*
D03*
X28280Y8760D02*
D03*
X28880D02*
D03*
X24570Y10110D02*
D03*
X34140Y9346D02*
D03*
X28250Y9430D02*
D03*
X26550D02*
D03*
X32480Y10340D02*
D03*
X32270Y10560D02*
D03*
X34550Y10590D02*
D03*
X34340Y10810D02*
D03*
X33680Y10520D02*
D03*
X33470Y10740D02*
D03*
X28380Y8080D02*
D03*
X19960Y16256D02*
D03*
X32690Y10560D02*
D03*
X32900Y10340D02*
D03*
X29960Y8210D02*
D03*
X32791Y6673D02*
D03*
X31777Y4940D02*
D03*
X32437Y5320D02*
D03*
X33527Y5030D02*
D03*
X20900Y12390D02*
D03*
X21500D02*
D03*
X21800D02*
D03*
X21200D02*
D03*
X22770Y10110D02*
D03*
X18400Y4718D02*
D03*
X22110Y10740D02*
D03*
X22330Y10530D02*
D03*
X22550Y10320D02*
D03*
X21890Y10950D02*
D03*
X24990Y14720D02*
D03*
X24593Y14723D02*
D03*
X26990Y12390D02*
D03*
X22490Y13480D02*
D03*
X22130Y14120D02*
D03*
X25840Y18670D02*
D03*
X21299Y18380D02*
D03*
X25840Y17770D02*
D03*
X26140D02*
D03*
X26440D02*
D03*
X25540D02*
D03*
X18400Y20430D02*
D03*
X19330Y21090D02*
D03*
X24660Y18940D02*
D03*
X28160Y18916D02*
D03*
X29337Y18910D02*
D03*
X37247Y20540D02*
D03*
X36577Y21000D02*
D03*
X36020Y19790D02*
D03*
X26660Y18916D02*
D03*
X26060Y18880D02*
D03*
X36299Y20330D02*
D03*
X36890Y19440D02*
D03*
X37510Y20100D02*
D03*
Y19620D02*
D03*
X36299Y19910D02*
D03*
X36260Y19420D02*
D03*
X36810Y18870D02*
D03*
X36510D02*
D03*
X37510Y19320D02*
D03*
X31050Y8240D02*
D03*
X32500Y8896D02*
D03*
X30317Y18910D02*
D03*
X25760Y19350D02*
D03*
X19211Y17430D02*
D03*
X18791Y16830D02*
D03*
X17290Y17360D02*
D03*
X22350Y8500D02*
D03*
X26310Y3216D02*
D03*
X36967Y17910D02*
D03*
X26857Y16870D02*
D03*
X26677Y14630D02*
D03*
X24120Y6802D02*
D03*
X25120Y8370D02*
D03*
X27810Y7650D02*
D03*
Y7952D02*
D03*
Y8254D02*
D03*
Y7350D02*
D03*
X26987Y7650D02*
D03*
Y7952D02*
D03*
X18465Y18109D02*
D03*
X20419Y18758D02*
D03*
X17310Y20896D02*
D03*
X17210Y22756D02*
D03*
X24300Y19780D02*
D03*
X24540Y19220D02*
D03*
X24420Y19500D02*
D03*
X3720Y22430D02*
D03*
X33085Y15012D02*
D03*
X33765Y14262D02*
D03*
X32060Y15160D02*
D03*
X33505Y15012D02*
D03*
X34045D02*
D03*
X34385D02*
D03*
X34765Y15092D02*
D03*
X31960Y16180D02*
D03*
X30775Y16142D02*
D03*
X31155Y14234D02*
D03*
X32065Y14312D02*
D03*
X33765Y14689D02*
D03*
X33755Y16505D02*
D03*
X33545Y16285D02*
D03*
X33335Y16065D02*
D03*
X33125Y15845D02*
D03*
X32905Y16085D02*
D03*
X32685Y15875D02*
D03*
X32465Y15665D02*
D03*
X36210Y14330D02*
D03*
X15530Y7000D02*
D03*
X14610Y5730D02*
D03*
X27130Y11100D02*
D03*
X27160Y18892D02*
D03*
X12060Y6440D02*
D03*
X19810Y8280D02*
D03*
Y8600D02*
D03*
X6140Y3990D02*
D03*
X4740Y1970D02*
D03*
X6490Y1090D02*
D03*
X6150Y1880D02*
D03*
X8290Y1980D02*
D03*
X10280Y5220D02*
D03*
X3030Y17280D02*
D03*
X8170Y19290D02*
D03*
X8910Y19920D02*
D03*
X9930Y19950D02*
D03*
X11880Y19930D02*
D03*
X12970Y19960D02*
D03*
X13920Y20000D02*
D03*
X4370Y4500D02*
D03*
X3981Y5842D02*
D03*
X5510Y5600D02*
D03*
X5010Y5100D02*
D03*
X7207Y5193D02*
D03*
X6007D02*
D03*
X6940Y7688D02*
D03*
X8230Y7250D02*
D03*
X8050Y5238D02*
D03*
X6850D02*
D03*
X6493Y5947D02*
D03*
X7693D02*
D03*
X5860Y8692D02*
D03*
X5898Y8190D02*
D03*
X7090D02*
D03*
X3560Y3710D02*
D03*
X1650Y1507D02*
D03*
X10341Y5577D02*
D03*
X1824Y4936D02*
D03*
X7062Y5720D02*
D03*
X8000Y5962D02*
D03*
X6916Y8562D02*
D03*
X18600Y7998D02*
D03*
X18900Y8015D02*
D03*
X22007Y14625D02*
D03*
X12976Y4803D02*
D03*
X10921Y4697D02*
D03*
X19649Y11719D02*
D03*
X20310Y15015D02*
D03*
X36106Y16780D02*
D03*
X36258Y18200D02*
D03*
X37688Y20440D02*
D03*
X38116Y19612D02*
D03*
X37622Y18300D02*
D03*
X38520Y21486D02*
D03*
X37310Y21815D02*
D03*
X35578Y22746D02*
D03*
X37124Y23510D02*
D03*
X9800Y4707D02*
D03*
X12024Y4803D02*
D03*
X14054D02*
D03*
X24054Y4707D02*
D03*
X21997Y4764D02*
D03*
X2880Y18696D02*
D03*
X751Y19178D02*
D03*
X648Y17470D02*
D03*
X1866Y15436D02*
D03*
X36131Y9318D02*
D03*
X36303Y11156D02*
D03*
X36174Y7489D02*
D03*
X35087Y6956D02*
D03*
X35116Y6363D02*
D03*
X35613Y4936D02*
D03*
X36586Y2991D02*
D03*
X30415Y3035D02*
D03*
X25597Y2236D02*
D03*
X1204Y9939D02*
D03*
X1181Y9080D02*
D03*
X634Y9633D02*
D03*
X2766Y8709D02*
D03*
X5185Y8576D02*
D03*
X2048Y2888D02*
D03*
X3600Y5446D02*
D03*
X2700Y6388D02*
D03*
X3192Y6394D02*
D03*
X2674Y7596D02*
D03*
X4678Y5880D02*
D03*
X5486Y5991D02*
D03*
X5898Y5526D02*
D03*
X8249Y3003D02*
D03*
X3993Y2727D02*
D03*
X29970Y7067D02*
D03*
X33962Y7460D02*
D03*
X36611Y15663D02*
D03*
X1589Y22573D02*
D03*
X15821Y18749D02*
D03*
X16284Y17732D02*
D03*
X4297Y11797D02*
D03*
X4398Y10249D02*
D03*
X1329Y12752D02*
D03*
X1318Y11835D02*
D03*
X28230Y10016D02*
D03*
D149*
X25680Y10387D02*
D03*
Y10653D02*
D03*
X26265Y10387D02*
D03*
Y10653D02*
D03*
X27435Y10387D02*
D03*
Y10653D02*
D03*
X26850Y10387D02*
D03*
Y10653D02*
D03*
X24540Y6171D02*
D03*
Y6437D02*
D03*
X23965Y6171D02*
D03*
Y6437D02*
D03*
X23391Y6171D02*
D03*
Y6437D02*
D03*
X22816Y6171D02*
D03*
Y6437D02*
D03*
D154*
X18197Y4718D02*
X18400D01*
X17805Y4326D02*
X18197Y4718D01*
X15000Y4326D02*
X17805D01*
X4411Y6985D02*
X4599Y6796D01*
X4544Y4326D02*
X15000D01*
Y3573D02*
Y4326D01*
X15000Y2996D02*
Y3703D01*
X7400Y17996D02*
Y18573D01*
Y17419D02*
Y17996D01*
X12000Y2419D02*
Y3573D01*
X14000Y2419D02*
Y3573D01*
X11000Y2419D02*
Y3573D01*
X26662Y13498D02*
Y13996D01*
X15000Y2419D02*
Y2996D01*
X4370Y4500D02*
X4544Y4326D01*
D155*
X3981Y5842D02*
Y7172D01*
D158*
X25680Y10387D02*
Y10653D01*
X26265Y10387D02*
Y10653D01*
X27435Y10387D02*
Y10653D01*
X26850Y10387D02*
Y10653D01*
X24540Y6171D02*
Y6437D01*
X23965Y6171D02*
Y6437D01*
X23391Y6171D02*
Y6437D01*
X22816Y6171D02*
Y6437D01*
D164*
X18000Y496D02*
D03*
Y1496D02*
D03*
X15000D02*
D03*
Y496D02*
D03*
X13000Y1496D02*
D03*
Y496D02*
D03*
X12000Y1496D02*
D03*
Y496D02*
D03*
X11000Y1496D02*
D03*
X14000Y496D02*
D03*
Y1496D02*
D03*
X16000Y496D02*
D03*
Y1496D02*
D03*
X17000D02*
D03*
Y496D02*
D03*
X25000Y1496D02*
D03*
Y496D02*
D03*
X23000Y1496D02*
D03*
Y496D02*
D03*
X20000Y1496D02*
D03*
X21000Y496D02*
D03*
Y1496D02*
D03*
X22000Y496D02*
D03*
Y1496D02*
D03*
X24000Y496D02*
D03*
Y1496D02*
D03*
X1530Y24306D02*
D03*
X18000Y24496D02*
D03*
Y23496D02*
D03*
X21000D02*
D03*
Y24496D02*
D03*
X23000Y23496D02*
D03*
Y24496D02*
D03*
X24000Y23496D02*
D03*
Y24496D02*
D03*
X25000Y23496D02*
D03*
X22000Y24496D02*
D03*
Y23496D02*
D03*
X20000Y24496D02*
D03*
Y23496D02*
D03*
X19000D02*
D03*
Y24496D02*
D03*
X7400D02*
D03*
Y23496D02*
D03*
X8400D02*
D03*
Y24496D02*
D03*
X10400D02*
D03*
Y23496D02*
D03*
X11400D02*
D03*
Y24496D02*
D03*
X13400Y23496D02*
D03*
Y24496D02*
D03*
X16400Y23496D02*
D03*
X15400Y24496D02*
D03*
Y23496D02*
D03*
X14400Y24496D02*
D03*
Y23496D02*
D03*
X12400Y24496D02*
D03*
Y23496D02*
D03*
X9400D02*
D03*
Y24496D02*
D03*
X28000Y24496D02*
D03*
Y23496D02*
D03*
X31000D02*
D03*
Y24496D02*
D03*
X33000Y23496D02*
D03*
Y24496D02*
D03*
X34000Y23496D02*
D03*
Y24496D02*
D03*
X35000Y23496D02*
D03*
X32000Y24496D02*
D03*
Y23496D02*
D03*
X30000Y24496D02*
D03*
Y23496D02*
D03*
X29000D02*
D03*
Y24496D02*
D03*
X27000D02*
D03*
Y23496D02*
D03*
X4595Y496D02*
D03*
D165*
X11000Y496D02*
D03*
X20000D02*
D03*
X25000Y24496D02*
D03*
X16400D02*
D03*
X35000Y24496D02*
D03*
D166*
X26000Y4996D02*
D03*
Y15996D02*
D03*
X5500Y2996D02*
D03*
X6000Y21996D02*
D03*
X38000Y2996D02*
D03*
D167*
X765Y13795D02*
D03*
Y11197D02*
D03*
D168*
X19000Y12496D02*
D03*
X18600Y15496D02*
D03*
X19400D02*
D03*
D169*
X2880Y6996D02*
D03*
Y17996D02*
D03*
D171*
X12411Y10287D02*
D03*
X11886D02*
D03*
X11361D02*
D03*
X10836D02*
D03*
X12411Y10760D02*
D03*
X11886D02*
D03*
X11361D02*
D03*
X10836D02*
D03*
X12411Y11232D02*
D03*
X11886D02*
D03*
X11361D02*
D03*
X10836D02*
D03*
X12411Y11705D02*
D03*
X11886D02*
D03*
X11361D02*
D03*
X10836D02*
D03*
D172*
X33163Y11973D02*
D03*
X32691D02*
D03*
X32218D02*
D03*
X31746D02*
D03*
X33163Y12445D02*
D03*
X32691D02*
D03*
X32218D02*
D03*
X31746D02*
D03*
X33163Y12918D02*
D03*
X32691D02*
D03*
X32218D02*
D03*
X31746D02*
D03*
X33163Y13390D02*
D03*
X32691D02*
D03*
X32218D02*
D03*
X31746D02*
D03*
D173*
X4411Y6985D02*
D03*
Y18520D02*
D03*
D174*
X24438Y11996D02*
D03*
X26662D02*
D03*
X24438Y12996D02*
D03*
Y13996D02*
D03*
X26662Y12996D02*
D03*
Y13996D02*
D03*
M02*
